<svg width="900" height="121" viewBox="0 0 900 121" fill="none" xmlns="http://www.w3.org/2000/svg">
<g clip-path="url(#clip0_2716_1164)">
<rect width="900" height="121" fill="white"/>
<line y1="0.5" x2="900" y2="0.5" stroke="black"/>
<line x1="0.805174" y1="-0.0123898" x2="0.49487" y2="121.001" stroke="black"/>
<line x1="899.5" y1="1" x2="899.5" y2="121" stroke="black"/>
<path d="M39.1748 25.75V26.9219C39.1748 28.5332 38.9648 29.9785 38.5449 31.2578C38.125 32.5371 37.5244 33.626 36.7432 34.5244C35.9717 35.4229 35.0439 36.1113 33.96 36.5898C32.876 37.0586 31.6748 37.293 30.3564 37.293C29.0479 37.293 27.8516 37.0586 26.7676 36.5898C25.6934 36.1113 24.7607 35.4229 23.9697 34.5244C23.1787 33.626 22.5635 32.5371 22.124 31.2578C21.6943 29.9785 21.4795 28.5332 21.4795 26.9219V25.75C21.4795 24.1387 21.6943 22.6982 22.124 21.4287C22.5537 20.1494 23.1592 19.0605 23.9404 18.1621C24.7314 17.2539 25.6641 16.5654 26.7383 16.0967C27.8223 15.6182 29.0186 15.3789 30.3271 15.3789C31.6455 15.3789 32.8467 15.6182 33.9307 16.0967C35.0146 16.5654 35.9473 17.2539 36.7285 18.1621C37.5098 19.0605 38.1104 20.1494 38.5303 21.4287C38.96 22.6982 39.1748 24.1387 39.1748 25.75ZM35.498 26.9219V25.7207C35.498 24.5293 35.3809 23.4795 35.1465 22.5713C34.9219 21.6533 34.585 20.8867 34.1357 20.2715C33.6963 19.6465 33.1543 19.1777 32.5098 18.8652C31.8652 18.543 31.1377 18.3818 30.3271 18.3818C29.5166 18.3818 28.7939 18.543 28.1592 18.8652C27.5244 19.1777 26.9824 19.6465 26.5332 20.2715C26.0938 20.8867 25.7568 21.6533 25.5225 22.5713C25.2881 23.4795 25.1709 24.5293 25.1709 25.7207V26.9219C25.1709 28.1133 25.2881 29.168 25.5225 30.0859C25.7568 31.0039 26.0986 31.7803 26.5479 32.415C27.0068 33.04 27.5537 33.5137 28.1885 33.8359C28.8232 34.1484 29.5459 34.3047 30.3564 34.3047C31.1768 34.3047 31.9043 34.1484 32.5391 33.8359C33.1738 33.5137 33.7109 33.04 34.1504 32.415C34.5898 31.7803 34.9219 31.0039 35.1465 30.0859C35.3809 29.168 35.498 28.1133 35.498 26.9219ZM46.3086 21.1504V37H42.7783V21.1504H46.3086ZM56.6504 21.1504L49.5166 30.6865H45.4883L45.0195 27.4932H47.9639L52.2412 21.1504H56.6504ZM52.5195 37L47.7441 30.0859L50.5273 28.0791L57.1631 37H52.5195ZM57.8809 29.251V28.9141C57.8809 27.7715 58.0469 26.7119 58.3789 25.7354C58.7109 24.749 59.1895 23.8945 59.8145 23.1719C60.4492 22.4395 61.2207 21.873 62.1289 21.4727C63.0469 21.0625 64.082 20.8574 65.2344 20.8574C66.3965 20.8574 67.4316 21.0625 68.3398 21.4727C69.2578 21.873 70.0342 22.4395 70.6689 23.1719C71.3037 23.8945 71.7871 24.749 72.1191 25.7354C72.4512 26.7119 72.6172 27.7715 72.6172 28.9141V29.251C72.6172 30.3936 72.4512 31.4531 72.1191 32.4297C71.7871 33.4062 71.3037 34.2607 70.6689 34.9932C70.0342 35.7158 69.2627 36.2822 68.3545 36.6924C67.4463 37.0928 66.416 37.293 65.2637 37.293C64.1016 37.293 63.0615 37.0928 62.1436 36.6924C61.2354 36.2822 60.4639 35.7158 59.8291 34.9932C59.1943 34.2607 58.7109 33.4062 58.3789 32.4297C58.0469 31.4531 57.8809 30.3936 57.8809 29.251ZM61.4111 28.9141V29.251C61.4111 29.9639 61.4844 30.6377 61.6309 31.2725C61.7773 31.9072 62.0068 32.4639 62.3193 32.9424C62.6318 33.4209 63.0322 33.7969 63.5205 34.0703C64.0088 34.3438 64.5898 34.4805 65.2637 34.4805C65.918 34.4805 66.4844 34.3438 66.9629 34.0703C67.4512 33.7969 67.8516 33.4209 68.1641 32.9424C68.4766 32.4639 68.7061 31.9072 68.8525 31.2725C69.0088 30.6377 69.0869 29.9639 69.0869 29.251V28.9141C69.0869 28.2109 69.0088 27.5469 68.8525 26.9219C68.7061 26.2871 68.4717 25.7256 68.1494 25.2373C67.8369 24.749 67.4365 24.3682 66.9482 24.0947C66.4697 23.8115 65.8984 23.6699 65.2344 23.6699C64.5703 23.6699 63.9941 23.8115 63.5059 24.0947C63.0273 24.3682 62.6318 24.749 62.3193 25.2373C62.0068 25.7256 61.7773 26.2871 61.6309 26.9219C61.4844 27.5469 61.4111 28.2109 61.4111 28.9141ZM86.4014 27.7715V30.5547H78.1982V27.7715H86.4014ZM79.2236 21.1504V37H75.6934V21.1504H79.2236ZM88.9502 21.1504V37H85.4199V21.1504H88.9502ZM105.444 21.1504V37H101.914V21.1504H105.444ZM103.95 28.167V30.9648C103.521 31.1504 103.037 31.3213 102.5 31.4775C101.973 31.624 101.416 31.7461 100.83 31.8438C100.244 31.9316 99.6533 31.9756 99.0576 31.9756C97.6611 31.9756 96.4551 31.7607 95.4395 31.3311C94.4336 30.9014 93.6572 30.2422 93.1104 29.3535C92.5732 28.4551 92.3047 27.3174 92.3047 25.9404V21.1357H95.8203V25.9404C95.8203 26.7314 95.9375 27.3613 96.1719 27.8301C96.416 28.2988 96.7773 28.6357 97.2559 28.8408C97.7344 29.0459 98.335 29.1484 99.0576 29.1484C99.6631 29.1484 100.234 29.1094 100.771 29.0312C101.309 28.9434 101.841 28.8262 102.368 28.6797C102.896 28.5332 103.423 28.3623 103.95 28.167ZM118.145 33.8213V26.2627C118.145 25.6963 118.042 25.208 117.837 24.7979C117.632 24.3877 117.319 24.0703 116.899 23.8457C116.489 23.6211 115.972 23.5088 115.347 23.5088C114.771 23.5088 114.272 23.6064 113.853 23.8018C113.433 23.9971 113.105 24.2607 112.871 24.5928C112.637 24.9248 112.52 25.3008 112.52 25.7207H109.004C109.004 25.0957 109.155 24.4902 109.458 23.9043C109.761 23.3184 110.2 22.7959 110.776 22.3369C111.353 21.8779 112.041 21.5166 112.842 21.2529C113.643 20.9893 114.541 20.8574 115.537 20.8574C116.729 20.8574 117.783 21.0576 118.701 21.458C119.629 21.8584 120.356 22.4639 120.884 23.2744C121.421 24.0752 121.689 25.0811 121.689 26.292V33.3379C121.689 34.0605 121.738 34.71 121.836 35.2861C121.943 35.8525 122.095 36.3457 122.29 36.7656V37H118.672C118.506 36.6191 118.374 36.1357 118.276 35.5498C118.188 34.9541 118.145 34.3779 118.145 33.8213ZM118.657 27.3613L118.687 29.5439H116.152C115.498 29.5439 114.922 29.6074 114.424 29.7344C113.926 29.8516 113.511 30.0273 113.179 30.2617C112.847 30.4961 112.598 30.7793 112.432 31.1113C112.266 31.4434 112.183 31.8193 112.183 32.2393C112.183 32.6592 112.28 33.0449 112.476 33.3965C112.671 33.7383 112.954 34.0068 113.325 34.2021C113.706 34.3975 114.165 34.4951 114.702 34.4951C115.425 34.4951 116.055 34.3486 116.592 34.0557C117.139 33.7529 117.568 33.3867 117.881 32.957C118.193 32.5176 118.359 32.1025 118.379 31.7119L119.521 33.2793C119.404 33.6797 119.204 34.1094 118.921 34.5684C118.638 35.0273 118.267 35.4668 117.808 35.8867C117.358 36.2969 116.816 36.6338 116.182 36.8975C115.557 37.1611 114.834 37.293 114.014 37.293C112.979 37.293 112.056 37.0879 111.245 36.6777C110.435 36.2578 109.8 35.6963 109.341 34.9932C108.882 34.2803 108.652 33.4746 108.652 32.5762C108.652 31.7363 108.809 30.9941 109.121 30.3496C109.443 29.6953 109.912 29.1484 110.527 28.709C111.152 28.2695 111.914 27.9375 112.812 27.7129C113.711 27.4785 114.736 27.3613 115.889 27.3613H118.657ZM136.206 27.7715V30.5547H128.003V27.7715H136.206ZM129.028 21.1504V37H125.498V21.1504H129.028ZM138.755 21.1504V37H135.225V21.1504H138.755ZM146.167 31.8438L152.393 21.1504H155.923V37H152.393V26.292L146.167 37H142.637V21.1504H146.167V31.8438ZM162.998 29.251H166.66L162.163 37H158.516L162.998 29.251ZM165.576 21.1504H172.373V37H168.857V23.9336H165.576C164.912 23.9336 164.365 24.0508 163.936 24.2852C163.506 24.5098 163.188 24.8076 162.983 25.1787C162.778 25.54 162.676 25.9111 162.676 26.292C162.676 26.6729 162.769 27.0391 162.954 27.3906C163.149 27.7422 163.447 28.0303 163.848 28.2549C164.258 28.4795 164.771 28.5918 165.386 28.5918H170.044V31.1699H165.386C164.409 31.1699 163.535 31.0479 162.764 30.8037C161.992 30.5498 161.338 30.2031 160.801 29.7637C160.264 29.3145 159.854 28.792 159.57 28.1963C159.287 27.5908 159.146 26.9316 159.146 26.2188C159.146 25.4863 159.292 24.8125 159.585 24.1973C159.878 23.582 160.298 23.0449 160.845 22.5859C161.401 22.127 162.075 21.7754 162.866 21.5312C163.667 21.2773 164.57 21.1504 165.576 21.1504Z" fill="black"/>
<path d="M255.903 15.6719V37H252.241V15.6719H255.903ZM268.735 15.6719L260.063 27.8301H254.863L254.365 24.6367H258.027L264.238 15.6719H268.735ZM264.985 37L258.086 27.2734L260.459 24.4463L269.395 37H264.985ZM291.353 21.1504V37H287.822V21.1504H291.353ZM289.858 28.167V30.9648C289.429 31.1504 288.945 31.3213 288.408 31.4775C287.881 31.624 287.324 31.7461 286.738 31.8438C286.152 31.9316 285.562 31.9756 284.966 31.9756C283.569 31.9756 282.363 31.7607 281.348 31.3311C280.342 30.9014 279.565 30.2422 279.019 29.3535C278.481 28.4551 278.213 27.3174 278.213 25.9404V21.1357H281.729V25.9404C281.729 26.7314 281.846 27.3613 282.08 27.8301C282.324 28.2988 282.686 28.6357 283.164 28.8408C283.643 29.0459 284.243 29.1484 284.966 29.1484C285.571 29.1484 286.143 29.1094 286.68 29.0312C287.217 28.9434 287.749 28.8262 288.276 28.6797C288.804 28.5332 289.331 28.3623 289.858 28.167ZM302.104 37.293C300.933 37.293 299.873 37.1025 298.926 36.7217C297.988 36.3311 297.188 35.7891 296.523 35.0957C295.869 34.4023 295.366 33.5869 295.015 32.6494C294.663 31.7119 294.487 30.7012 294.487 29.6172V29.0312C294.487 27.791 294.668 26.668 295.029 25.6621C295.391 24.6562 295.894 23.7969 296.538 23.084C297.183 22.3613 297.944 21.8096 298.823 21.4287C299.702 21.0479 300.654 20.8574 301.68 20.8574C302.812 20.8574 303.804 21.0479 304.653 21.4287C305.503 21.8096 306.206 22.3467 306.763 23.04C307.329 23.7236 307.749 24.5391 308.022 25.4863C308.306 26.4336 308.447 27.4785 308.447 28.6211V30.1299H296.201V27.5957H304.961V27.3174C304.941 26.6826 304.814 26.0869 304.58 25.5303C304.355 24.9736 304.009 24.5244 303.54 24.1826C303.071 23.8408 302.446 23.6699 301.665 23.6699C301.079 23.6699 300.557 23.7969 300.098 24.0508C299.648 24.2949 299.272 24.6514 298.97 25.1201C298.667 25.5889 298.433 26.1553 298.267 26.8193C298.11 27.4736 298.032 28.2109 298.032 29.0312V29.6172C298.032 30.3105 298.125 30.9551 298.311 31.5508C298.506 32.1367 298.789 32.6494 299.16 33.0889C299.531 33.5283 299.98 33.875 300.508 34.1289C301.035 34.373 301.636 34.4951 302.31 34.4951C303.159 34.4951 303.916 34.3242 304.58 33.9824C305.244 33.6406 305.82 33.1572 306.309 32.5322L308.169 34.334C307.827 34.832 307.383 35.3105 306.836 35.7695C306.289 36.2188 305.62 36.585 304.829 36.8682C304.048 37.1514 303.14 37.293 302.104 37.293ZM320.62 32.7227L325.337 21.1504H328.398L321.821 37H319.419L312.856 21.1504H315.918L320.62 32.7227ZM315.01 21.1504V37H311.479V21.1504H315.01ZM326.23 37V21.1504H329.775V37H326.23ZM338.33 35.2715L342.637 21.1504H346.416L340.059 39.417C339.912 39.8076 339.722 40.2324 339.487 40.6914C339.253 41.1504 338.945 41.585 338.564 41.9951C338.193 42.415 337.729 42.752 337.173 43.0059C336.616 43.2695 335.942 43.4014 335.151 43.4014C334.839 43.4014 334.536 43.3721 334.243 43.3135C333.96 43.2646 333.691 43.2109 333.438 43.1523L333.423 40.457C333.521 40.4668 333.638 40.4766 333.774 40.4863C333.921 40.4961 334.038 40.501 334.126 40.501C334.712 40.501 335.2 40.4277 335.591 40.2812C335.981 40.1445 336.299 39.9199 336.543 39.6074C336.797 39.2949 337.012 38.875 337.188 38.3477L338.33 35.2715ZM335.898 21.1504L339.663 33.0156L340.293 36.7363L337.847 37.3662L332.09 21.1504H335.898ZM366.543 21.1504V23.9629H358.721V21.1504H366.543ZM359.556 21.1504V37H356.025V21.1504H359.556ZM369.312 21.1504V37H365.767V21.1504H369.312ZM376.592 24.1973V43.0938H373.062V21.1504H376.313L376.592 24.1973ZM386.919 28.9287V29.2363C386.919 30.3887 386.782 31.458 386.509 32.4443C386.245 33.4209 385.85 34.2754 385.322 35.0078C384.805 35.7305 384.165 36.292 383.403 36.6924C382.642 37.0928 381.763 37.293 380.767 37.293C379.78 37.293 378.916 37.1123 378.174 36.751C377.441 36.3799 376.821 35.8574 376.313 35.1836C375.806 34.5098 375.396 33.7188 375.083 32.8105C374.78 31.8926 374.565 30.8867 374.438 29.793V28.6064C374.565 27.4443 374.78 26.3896 375.083 25.4424C375.396 24.4951 375.806 23.6797 376.313 22.9961C376.821 22.3125 377.441 21.7852 378.174 21.4141C378.906 21.043 379.761 20.8574 380.737 20.8574C381.733 20.8574 382.617 21.0527 383.389 21.4434C384.16 21.8242 384.81 22.3711 385.337 23.084C385.864 23.7871 386.26 24.6367 386.523 25.6328C386.787 26.6191 386.919 27.7178 386.919 28.9287ZM383.389 29.2363V28.9287C383.389 28.1963 383.32 27.5176 383.184 26.8926C383.047 26.2578 382.832 25.7012 382.539 25.2227C382.246 24.7441 381.87 24.373 381.411 24.1094C380.962 23.8359 380.42 23.6992 379.785 23.6992C379.16 23.6992 378.623 23.8066 378.174 24.0215C377.725 24.2266 377.349 24.5146 377.046 24.8857C376.743 25.2568 376.509 25.6914 376.343 26.1895C376.177 26.6777 376.06 27.21 375.991 27.7861V30.6279C376.108 31.3311 376.309 31.9756 376.592 32.5615C376.875 33.1475 377.275 33.6162 377.793 33.9678C378.32 34.3096 378.994 34.4805 379.814 34.4805C380.449 34.4805 380.991 34.3438 381.44 34.0703C381.89 33.7969 382.256 33.4209 382.539 32.9424C382.832 32.4541 383.047 31.8926 383.184 31.2578C383.32 30.623 383.389 29.9492 383.389 29.2363ZM393.569 31.8438L399.795 21.1504H403.325V37H399.795V26.292L393.569 37H390.039V21.1504H393.569V31.8438ZM413.535 34.4805C414.111 34.4805 414.629 34.3682 415.088 34.1436C415.557 33.9092 415.933 33.5869 416.216 33.1768C416.509 32.7666 416.67 32.293 416.699 31.7559H420.024C420.005 32.7812 419.702 33.7139 419.116 34.5537C418.53 35.3936 417.754 36.0625 416.787 36.5605C415.82 37.0488 414.751 37.293 413.579 37.293C412.368 37.293 411.313 37.0879 410.415 36.6777C409.517 36.2578 408.77 35.6816 408.174 34.9492C407.578 34.2168 407.129 33.3721 406.826 32.415C406.533 31.458 406.387 30.4326 406.387 29.3389V28.8262C406.387 27.7324 406.533 26.707 406.826 25.75C407.129 24.7832 407.578 23.9336 408.174 23.2012C408.77 22.4688 409.517 21.8975 410.415 21.4873C411.313 21.0674 412.363 20.8574 413.564 20.8574C414.834 20.8574 415.947 21.1113 416.904 21.6191C417.861 22.1172 418.613 22.8154 419.16 23.7139C419.717 24.6025 420.005 25.6377 420.024 26.8193H416.699C416.67 26.2334 416.523 25.7061 416.26 25.2373C416.006 24.7588 415.645 24.3779 415.176 24.0947C414.717 23.8115 414.165 23.6699 413.521 23.6699C412.808 23.6699 412.217 23.8164 411.748 24.1094C411.279 24.3926 410.913 24.7832 410.649 25.2812C410.386 25.7695 410.195 26.3213 410.078 26.9365C409.971 27.542 409.917 28.1719 409.917 28.8262V29.3389C409.917 29.9932 409.971 30.6279 410.078 31.2432C410.186 31.8584 410.371 32.4102 410.635 32.8984C410.908 33.377 411.279 33.7627 411.748 34.0557C412.217 34.3389 412.812 34.4805 413.535 34.4805ZM422.061 29.251V28.9141C422.061 27.7715 422.227 26.7119 422.559 25.7354C422.891 24.749 423.369 23.8945 423.994 23.1719C424.629 22.4395 425.4 21.873 426.309 21.4727C427.227 21.0625 428.262 20.8574 429.414 20.8574C430.576 20.8574 431.611 21.0625 432.52 21.4727C433.438 21.873 434.214 22.4395 434.849 23.1719C435.483 23.8945 435.967 24.749 436.299 25.7354C436.631 26.7119 436.797 27.7715 436.797 28.9141V29.251C436.797 30.3936 436.631 31.4531 436.299 32.4297C435.967 33.4062 435.483 34.2607 434.849 34.9932C434.214 35.7158 433.442 36.2822 432.534 36.6924C431.626 37.0928 430.596 37.293 429.443 37.293C428.281 37.293 427.241 37.0928 426.323 36.6924C425.415 36.2822 424.644 35.7158 424.009 34.9932C423.374 34.2607 422.891 33.4062 422.559 32.4297C422.227 31.4531 422.061 30.3936 422.061 29.251ZM425.591 28.9141V29.251C425.591 29.9639 425.664 30.6377 425.811 31.2725C425.957 31.9072 426.187 32.4639 426.499 32.9424C426.812 33.4209 427.212 33.7969 427.7 34.0703C428.188 34.3438 428.77 34.4805 429.443 34.4805C430.098 34.4805 430.664 34.3438 431.143 34.0703C431.631 33.7969 432.031 33.4209 432.344 32.9424C432.656 32.4639 432.886 31.9072 433.032 31.2725C433.188 30.6377 433.267 29.9639 433.267 29.251V28.9141C433.267 28.2109 433.188 27.5469 433.032 26.9219C432.886 26.2871 432.651 25.7256 432.329 25.2373C432.017 24.749 431.616 24.3682 431.128 24.0947C430.649 23.8115 430.078 23.6699 429.414 23.6699C428.75 23.6699 428.174 23.8115 427.686 24.0947C427.207 24.3682 426.812 24.749 426.499 25.2373C426.187 25.7256 425.957 26.2871 425.811 26.9219C425.664 27.5469 425.591 28.2109 425.591 28.9141ZM446.743 37.293C445.571 37.293 444.512 37.1025 443.564 36.7217C442.627 36.3311 441.826 35.7891 441.162 35.0957C440.508 34.4023 440.005 33.5869 439.653 32.6494C439.302 31.7119 439.126 30.7012 439.126 29.6172V29.0312C439.126 27.791 439.307 26.668 439.668 25.6621C440.029 24.6562 440.532 23.7969 441.177 23.084C441.821 22.3613 442.583 21.8096 443.462 21.4287C444.341 21.0479 445.293 20.8574 446.318 20.8574C447.451 20.8574 448.442 21.0479 449.292 21.4287C450.142 21.8096 450.845 22.3467 451.401 23.04C451.968 23.7236 452.388 24.5391 452.661 25.4863C452.944 26.4336 453.086 27.4785 453.086 28.6211V30.1299H440.84V27.5957H449.6V27.3174C449.58 26.6826 449.453 26.0869 449.219 25.5303C448.994 24.9736 448.647 24.5244 448.179 24.1826C447.71 23.8408 447.085 23.6699 446.304 23.6699C445.718 23.6699 445.195 23.7969 444.736 24.0508C444.287 24.2949 443.911 24.6514 443.608 25.1201C443.306 25.5889 443.071 26.1553 442.905 26.8193C442.749 27.4736 442.671 28.2109 442.671 29.0312V29.6172C442.671 30.3105 442.764 30.9551 442.949 31.5508C443.145 32.1367 443.428 32.6494 443.799 33.0889C444.17 33.5283 444.619 33.875 445.146 34.1289C445.674 34.373 446.274 34.4951 446.948 34.4951C447.798 34.4951 448.555 34.3242 449.219 33.9824C449.883 33.6406 450.459 33.1572 450.947 32.5322L452.808 34.334C452.466 34.832 452.021 35.3105 451.475 35.7695C450.928 36.2188 450.259 36.585 449.468 36.8682C448.687 37.1514 447.778 37.293 446.743 37.293ZM458.711 21.1504H462.241L462.065 26.7314C462.017 28.3525 461.831 29.7441 461.509 30.9062C461.187 32.0684 460.767 33.0498 460.249 33.8506C459.731 34.6416 459.146 35.291 458.491 35.7988C457.847 36.3066 457.168 36.707 456.455 37H455.415V34.2168L455.913 34.1875C456.333 33.7383 456.694 33.2891 456.997 32.8398C457.31 32.3809 457.573 31.8779 457.788 31.3311C458.003 30.7744 458.169 30.125 458.286 29.3828C458.413 28.6406 458.496 27.7568 458.535 26.7314L458.711 21.1504ZM459.648 21.1504H469.697V37H466.182V24.1387H459.648V21.1504ZM454.609 34.1875H471.865V41.7168H468.335V37H458.184V41.7168H454.595L454.609 34.1875ZM474.531 35.2422C474.531 34.6953 474.717 34.2363 475.088 33.8652C475.459 33.4844 475.962 33.2939 476.597 33.2939C477.241 33.2939 477.744 33.4844 478.105 33.8652C478.477 34.2363 478.662 34.6953 478.662 35.2422C478.662 35.7891 478.477 36.248 478.105 36.6191C477.744 36.9902 477.241 37.1758 476.597 37.1758C475.962 37.1758 475.459 36.9902 475.088 36.6191C474.717 36.248 474.531 35.7891 474.531 35.2422ZM489.341 30.7158H486.074C486.084 29.8076 486.162 29.0459 486.309 28.4307C486.455 27.8057 486.699 27.2393 487.041 26.7314C487.393 26.2236 487.856 25.6865 488.433 25.1201C488.882 24.6904 489.287 24.2852 489.648 23.9043C490.01 23.5137 490.298 23.1035 490.513 22.6738C490.728 22.2344 490.835 21.7314 490.835 21.165C490.835 20.5498 490.732 20.0273 490.527 19.5977C490.322 19.168 490.02 18.8408 489.619 18.6162C489.229 18.3916 488.74 18.2793 488.154 18.2793C487.666 18.2793 487.207 18.377 486.777 18.5723C486.348 18.7578 486.001 19.0508 485.737 19.4512C485.474 19.8418 485.332 20.3594 485.312 21.0039H481.782C481.802 19.7734 482.095 18.7383 482.661 17.8984C483.228 17.0586 483.989 16.4287 484.946 16.0088C485.903 15.5889 486.973 15.3789 488.154 15.3789C489.463 15.3789 490.581 15.6035 491.509 16.0527C492.437 16.4922 493.145 17.1367 493.633 17.9863C494.131 18.8262 494.38 19.8418 494.38 21.0332C494.38 21.8926 494.209 22.6738 493.867 23.377C493.525 24.0703 493.081 24.7197 492.534 25.3252C491.987 25.9209 491.396 26.5166 490.762 27.1123C490.215 27.6104 489.844 28.1523 489.648 28.7383C489.453 29.3145 489.351 29.9736 489.341 30.7158ZM485.781 35.2861C485.781 34.7588 485.962 34.3145 486.323 33.9531C486.685 33.582 487.178 33.3965 487.803 33.3965C488.428 33.3965 488.921 33.582 489.282 33.9531C489.644 34.3145 489.824 34.7588 489.824 35.2861C489.824 35.8135 489.644 36.2627 489.282 36.6338C488.921 36.9951 488.428 37.1758 487.803 37.1758C487.178 37.1758 486.685 36.9951 486.323 36.6338C485.962 36.2627 485.781 35.8135 485.781 35.2861Z" fill="black"/>
<path d="M551.124 15.6719H554.801V22.2783C554.801 23.2842 554.952 24.0752 555.255 24.6514C555.558 25.2178 556.017 25.6182 556.632 25.8525C557.257 26.0869 558.033 26.2041 558.961 26.2041C559.41 26.2041 559.884 26.1846 560.382 26.1455C560.88 26.1064 561.378 26.0527 561.876 25.9844C562.384 25.9062 562.872 25.8184 563.341 25.7207C563.81 25.6133 564.239 25.4961 564.63 25.3691V28.2842C564.249 28.4014 563.829 28.5137 563.37 28.6211C562.921 28.7285 562.452 28.8213 561.964 28.8994C561.476 28.9678 560.978 29.0215 560.47 29.0605C559.962 29.0996 559.459 29.1191 558.961 29.1191C557.35 29.1191 555.958 28.8896 554.786 28.4307C553.614 27.9619 552.711 27.2246 552.076 26.2188C551.441 25.2129 551.124 23.8994 551.124 22.2783V15.6719ZM563.795 15.6719H567.472V37H563.795V15.6719ZM578.883 21.1504V37H575.338V21.1504H578.883ZM584.083 21.1504V23.9336H570.226V21.1504H584.083ZM585.211 29.251V28.9141C585.211 27.7715 585.377 26.7119 585.709 25.7354C586.041 24.749 586.52 23.8945 587.145 23.1719C587.779 22.4395 588.551 21.873 589.459 21.4727C590.377 21.0625 591.412 20.8574 592.564 20.8574C593.727 20.8574 594.762 21.0625 595.67 21.4727C596.588 21.873 597.364 22.4395 597.999 23.1719C598.634 23.8945 599.117 24.749 599.449 25.7354C599.781 26.7119 599.947 27.7715 599.947 28.9141V29.251C599.947 30.3936 599.781 31.4531 599.449 32.4297C599.117 33.4062 598.634 34.2607 597.999 34.9932C597.364 35.7158 596.593 36.2822 595.685 36.6924C594.776 37.0928 593.746 37.293 592.594 37.293C591.432 37.293 590.392 37.0928 589.474 36.6924C588.565 36.2822 587.794 35.7158 587.159 34.9932C586.524 34.2607 586.041 33.4062 585.709 32.4297C585.377 31.4531 585.211 30.3936 585.211 29.251ZM588.741 28.9141V29.251C588.741 29.9639 588.814 30.6377 588.961 31.2725C589.107 31.9072 589.337 32.4639 589.649 32.9424C589.962 33.4209 590.362 33.7969 590.851 34.0703C591.339 34.3438 591.92 34.4805 592.594 34.4805C593.248 34.4805 593.814 34.3438 594.293 34.0703C594.781 33.7969 595.182 33.4209 595.494 32.9424C595.807 32.4639 596.036 31.9072 596.183 31.2725C596.339 30.6377 596.417 29.9639 596.417 29.251V28.9141C596.417 28.2109 596.339 27.5469 596.183 26.9219C596.036 26.2871 595.802 25.7256 595.479 25.2373C595.167 24.749 594.767 24.3682 594.278 24.0947C593.8 23.8115 593.229 23.6699 592.564 23.6699C591.9 23.6699 591.324 23.8115 590.836 24.0947C590.357 24.3682 589.962 24.749 589.649 25.2373C589.337 25.7256 589.107 26.2871 588.961 26.9219C588.814 27.5469 588.741 28.2109 588.741 28.9141ZM613.248 21.1504H616.778L616.603 26.7314C616.554 28.3525 616.368 29.7441 616.046 30.9062C615.724 32.0684 615.304 33.0498 614.786 33.8506C614.269 34.6416 613.683 35.291 613.028 35.7988C612.384 36.3066 611.705 36.707 610.992 37H609.952V34.2168L610.45 34.1875C610.87 33.7383 611.231 33.2891 611.534 32.8398C611.847 32.3809 612.11 31.8779 612.325 31.3311C612.54 30.7744 612.706 30.125 612.823 29.3828C612.95 28.6406 613.033 27.7568 613.072 26.7314L613.248 21.1504ZM614.186 21.1504H624.234V37H620.719V24.1387H614.186V21.1504ZM609.146 34.1875H626.402V41.7168H622.872V37H612.721V41.7168H609.132L609.146 34.1875ZM637.857 33.8213V26.2627C637.857 25.6963 637.755 25.208 637.55 24.7979C637.345 24.3877 637.032 24.0703 636.612 23.8457C636.202 23.6211 635.685 23.5088 635.06 23.5088C634.483 23.5088 633.985 23.6064 633.565 23.8018C633.146 23.9971 632.818 24.2607 632.584 24.5928C632.35 24.9248 632.232 25.3008 632.232 25.7207H628.717C628.717 25.0957 628.868 24.4902 629.171 23.9043C629.474 23.3184 629.913 22.7959 630.489 22.3369C631.065 21.8779 631.754 21.5166 632.555 21.2529C633.355 20.9893 634.254 20.8574 635.25 20.8574C636.441 20.8574 637.496 21.0576 638.414 21.458C639.342 21.8584 640.069 22.4639 640.597 23.2744C641.134 24.0752 641.402 25.0811 641.402 26.292V33.3379C641.402 34.0605 641.451 34.71 641.549 35.2861C641.656 35.8525 641.808 36.3457 642.003 36.7656V37H638.385C638.219 36.6191 638.087 36.1357 637.989 35.5498C637.901 34.9541 637.857 34.3779 637.857 33.8213ZM638.37 27.3613L638.399 29.5439H635.865C635.211 29.5439 634.635 29.6074 634.137 29.7344C633.639 29.8516 633.224 30.0273 632.892 30.2617C632.56 30.4961 632.311 30.7793 632.145 31.1113C631.979 31.4434 631.896 31.8193 631.896 32.2393C631.896 32.6592 631.993 33.0449 632.188 33.3965C632.384 33.7383 632.667 34.0068 633.038 34.2021C633.419 34.3975 633.878 34.4951 634.415 34.4951C635.138 34.4951 635.768 34.3486 636.305 34.0557C636.852 33.7529 637.281 33.3867 637.594 32.957C637.906 32.5176 638.072 32.1025 638.092 31.7119L639.234 33.2793C639.117 33.6797 638.917 34.1094 638.634 34.5684C638.351 35.0273 637.979 35.4668 637.521 35.8867C637.071 36.2969 636.529 36.6338 635.895 36.8975C635.27 37.1611 634.547 37.293 633.727 37.293C632.691 37.293 631.769 37.0879 630.958 36.6777C630.147 36.2578 629.513 35.6963 629.054 34.9932C628.595 34.2803 628.365 33.4746 628.365 32.5762C628.365 31.7363 628.521 30.9941 628.834 30.3496C629.156 29.6953 629.625 29.1484 630.24 28.709C630.865 28.2695 631.627 27.9375 632.525 27.7129C633.424 27.4785 634.449 27.3613 635.602 27.3613H638.37ZM652.081 37.293C650.909 37.293 649.85 37.1025 648.902 36.7217C647.965 36.3311 647.164 35.7891 646.5 35.0957C645.846 34.4023 645.343 33.5869 644.991 32.6494C644.64 31.7119 644.464 30.7012 644.464 29.6172V29.0312C644.464 27.791 644.645 26.668 645.006 25.6621C645.367 24.6562 645.87 23.7969 646.515 23.084C647.159 22.3613 647.921 21.8096 648.8 21.4287C649.679 21.0479 650.631 20.8574 651.656 20.8574C652.789 20.8574 653.78 21.0479 654.63 21.4287C655.479 21.8096 656.183 22.3467 656.739 23.04C657.306 23.7236 657.726 24.5391 657.999 25.4863C658.282 26.4336 658.424 27.4785 658.424 28.6211V30.1299H646.178V27.5957H654.938V27.3174C654.918 26.6826 654.791 26.0869 654.557 25.5303C654.332 24.9736 653.985 24.5244 653.517 24.1826C653.048 23.8408 652.423 23.6699 651.642 23.6699C651.056 23.6699 650.533 23.7969 650.074 24.0508C649.625 24.2949 649.249 24.6514 648.946 25.1201C648.644 25.5889 648.409 26.1553 648.243 26.8193C648.087 27.4736 648.009 28.2109 648.009 29.0312V29.6172C648.009 30.3105 648.102 30.9551 648.287 31.5508C648.482 32.1367 648.766 32.6494 649.137 33.0889C649.508 33.5283 649.957 33.875 650.484 34.1289C651.012 34.373 651.612 34.4951 652.286 34.4951C653.136 34.4951 653.893 34.3242 654.557 33.9824C655.221 33.6406 655.797 33.1572 656.285 32.5322L658.146 34.334C657.804 34.832 657.359 35.3105 656.812 35.7695C656.266 36.2188 655.597 36.585 654.806 36.8682C654.024 37.1514 653.116 37.293 652.081 37.293ZM646.178 16.9463C646.178 16.4678 646.344 16.0674 646.676 15.7451C647.008 15.4131 647.447 15.2471 647.994 15.2471C648.551 15.2471 648.995 15.4131 649.327 15.7451C649.659 16.0674 649.825 16.4678 649.825 16.9463C649.825 17.415 649.659 17.8154 649.327 18.1475C648.995 18.4697 648.551 18.6309 647.994 18.6309C647.447 18.6309 647.008 18.4697 646.676 18.1475C646.344 17.8154 646.178 17.415 646.178 16.9463ZM652.96 16.9609C652.96 16.4824 653.126 16.082 653.458 15.7598C653.79 15.4277 654.234 15.2617 654.791 15.2617C655.338 15.2617 655.777 15.4277 656.109 15.7598C656.451 16.082 656.622 16.4824 656.622 16.9609C656.622 17.4297 656.451 17.8301 656.109 18.1621C655.777 18.4844 655.338 18.6455 654.791 18.6455C654.234 18.6455 653.79 18.4844 653.458 18.1621C653.126 17.8301 652.96 17.4297 652.96 16.9609ZM668.355 21.1504V37H664.811V21.1504H668.355ZM673.556 21.1504V23.9336H659.698V21.1504H673.556ZM682.521 30.7158H679.254C679.264 29.8076 679.342 29.0459 679.488 28.4307C679.635 27.8057 679.879 27.2393 680.221 26.7314C680.572 26.2236 681.036 25.6865 681.612 25.1201C682.062 24.6904 682.467 24.2852 682.828 23.9043C683.189 23.5137 683.478 23.1035 683.692 22.6738C683.907 22.2344 684.015 21.7314 684.015 21.165C684.015 20.5498 683.912 20.0273 683.707 19.5977C683.502 19.168 683.199 18.8408 682.799 18.6162C682.408 18.3916 681.92 18.2793 681.334 18.2793C680.846 18.2793 680.387 18.377 679.957 18.5723C679.527 18.7578 679.181 19.0508 678.917 19.4512C678.653 19.8418 678.512 20.3594 678.492 21.0039H674.962C674.981 19.7734 675.274 18.7383 675.841 17.8984C676.407 17.0586 677.169 16.4287 678.126 16.0088C679.083 15.5889 680.152 15.3789 681.334 15.3789C682.643 15.3789 683.761 15.6035 684.688 16.0527C685.616 16.4922 686.324 17.1367 686.812 17.9863C687.311 18.8262 687.56 19.8418 687.56 21.0332C687.56 21.8926 687.389 22.6738 687.047 23.377C686.705 24.0703 686.261 24.7197 685.714 25.3252C685.167 25.9209 684.576 26.5166 683.941 27.1123C683.395 27.6104 683.023 28.1523 682.828 28.7383C682.633 29.3145 682.53 29.9736 682.521 30.7158ZM678.961 35.2861C678.961 34.7588 679.142 34.3145 679.503 33.9531C679.864 33.582 680.357 33.3965 680.982 33.3965C681.607 33.3965 682.101 33.582 682.462 33.9531C682.823 34.3145 683.004 34.7588 683.004 35.2861C683.004 35.8135 682.823 36.2627 682.462 36.6338C682.101 36.9951 681.607 37.1758 680.982 37.1758C680.357 37.1758 679.864 36.9951 679.503 36.6338C679.142 36.2627 678.961 35.8135 678.961 35.2861Z" fill="black"/>
<line x1="1" y1="52.5" x2="901" y2="52.5" stroke="black"/>
<line y1="120.5" x2="900" y2="120.5" stroke="black"/>
<path d="M255.527 75.3203C255.911 75.3203 256.257 75.2454 256.562 75.0957C256.875 74.9395 257.126 74.7246 257.314 74.4512C257.51 74.1777 257.617 73.862 257.637 73.5039H259.854C259.84 74.1875 259.639 74.8092 259.248 75.3691C258.857 75.929 258.34 76.375 257.695 76.707C257.051 77.0326 256.338 77.1953 255.557 77.1953C254.749 77.1953 254.046 77.0586 253.447 76.7852C252.848 76.5052 252.35 76.1211 251.953 75.6328C251.556 75.1445 251.257 74.5814 251.055 73.9434C250.859 73.3053 250.762 72.6217 250.762 71.8926V71.5508C250.762 70.8216 250.859 70.138 251.055 69.5C251.257 68.8555 251.556 68.2891 251.953 67.8008C252.35 67.3125 252.848 66.9316 253.447 66.6582C254.046 66.3783 254.746 66.2383 255.547 66.2383C256.393 66.2383 257.135 66.4076 257.773 66.7461C258.411 67.0781 258.913 67.5436 259.277 68.1426C259.648 68.735 259.84 69.4251 259.854 70.2129H257.637C257.617 69.8223 257.52 69.4707 257.344 69.1582C257.174 68.8392 256.934 68.5853 256.621 68.3965C256.315 68.2077 255.947 68.1133 255.518 68.1133C255.042 68.1133 254.648 68.2109 254.336 68.4062C254.023 68.5951 253.779 68.8555 253.604 69.1875C253.428 69.513 253.301 69.8809 253.223 70.291C253.151 70.6947 253.115 71.1146 253.115 71.5508V71.8926C253.115 72.3288 253.151 72.752 253.223 73.1621C253.294 73.5723 253.418 73.9401 253.594 74.2656C253.776 74.5846 254.023 74.8418 254.336 75.0371C254.648 75.2259 255.046 75.3203 255.527 75.3203ZM264.727 75.8477L267.598 66.4336H270.117L265.879 78.6113C265.781 78.8717 265.654 79.1549 265.498 79.4609C265.342 79.7669 265.137 80.0566 264.883 80.3301C264.635 80.61 264.326 80.8346 263.955 81.0039C263.584 81.1797 263.135 81.2676 262.607 81.2676C262.399 81.2676 262.197 81.248 262.002 81.209C261.813 81.1764 261.634 81.1406 261.465 81.1016L261.455 79.3047C261.52 79.3112 261.598 79.3177 261.689 79.3242C261.787 79.3307 261.865 79.334 261.924 79.334C262.314 79.334 262.64 79.2852 262.9 79.1875C263.161 79.0964 263.372 78.9466 263.535 78.7383C263.704 78.5299 263.848 78.25 263.965 77.8984L264.727 75.8477ZM263.105 66.4336L265.615 74.3438L266.035 76.8242L264.404 77.2441L260.566 66.4336H263.105ZM287.08 75.1348L286.895 80.1348H284.736V77H283.467V75.1348H287.08ZM271.475 66.4336H273.828V75.125H277.188V66.4336H279.551V75.125H282.9V66.4336H285.254V77H271.475V66.4336ZM253.184 96.4648V109.062H251.367V94.4336H253.027L253.184 96.4648ZM260.303 99.6289V99.834C260.303 100.602 260.212 101.315 260.029 101.973C259.847 102.624 259.58 103.19 259.229 103.672C258.883 104.154 258.457 104.528 257.949 104.795C257.441 105.062 256.859 105.195 256.201 105.195C255.531 105.195 254.938 105.085 254.424 104.863C253.91 104.642 253.473 104.32 253.115 103.896C252.757 103.473 252.471 102.965 252.256 102.373C252.048 101.781 251.904 101.113 251.826 100.371V99.2773C251.904 98.4961 252.051 97.7962 252.266 97.1777C252.48 96.5592 252.764 96.0319 253.115 95.5957C253.473 95.153 253.906 94.8177 254.414 94.5898C254.922 94.3555 255.508 94.2383 256.172 94.2383C256.836 94.2383 257.425 94.3685 257.939 94.6289C258.454 94.8828 258.887 95.2474 259.238 95.7227C259.59 96.1979 259.854 96.7676 260.029 97.4316C260.212 98.0892 260.303 98.8216 260.303 99.6289ZM258.486 99.834V99.6289C258.486 99.1016 258.431 98.6068 258.32 98.1445C258.21 97.6758 258.037 97.2656 257.803 96.9141C257.575 96.556 257.282 96.276 256.924 96.0742C256.566 95.8659 256.139 95.7617 255.645 95.7617C255.189 95.7617 254.792 95.8398 254.453 95.9961C254.121 96.1523 253.838 96.3639 253.604 96.6309C253.369 96.8913 253.177 97.1908 253.027 97.5293C252.884 97.8613 252.777 98.2064 252.705 98.5645V101.094C252.835 101.549 253.018 101.979 253.252 102.383C253.486 102.78 253.799 103.102 254.189 103.35C254.58 103.59 255.072 103.711 255.664 103.711C256.152 103.711 256.572 103.61 256.924 103.408C257.282 103.2 257.575 102.917 257.803 102.559C258.037 102.201 258.21 101.79 258.32 101.328C258.431 100.859 258.486 100.361 258.486 99.834ZM264.57 90V105H262.754V90H264.57ZM273.701 103.193V97.7539C273.701 97.3372 273.617 96.9759 273.447 96.6699C273.285 96.3574 273.037 96.1165 272.705 95.9473C272.373 95.778 271.963 95.6934 271.475 95.6934C271.019 95.6934 270.618 95.7715 270.273 95.9277C269.935 96.084 269.668 96.2891 269.473 96.543C269.284 96.7969 269.189 97.0703 269.189 97.3633H267.383C267.383 96.9857 267.48 96.6113 267.676 96.2402C267.871 95.8691 268.151 95.5339 268.516 95.2344C268.887 94.9284 269.329 94.6875 269.844 94.5117C270.365 94.3294 270.944 94.2383 271.582 94.2383C272.35 94.2383 273.027 94.3685 273.613 94.6289C274.206 94.8893 274.668 95.2832 275 95.8105C275.339 96.3314 275.508 96.9857 275.508 97.7734V102.695C275.508 103.047 275.537 103.421 275.596 103.818C275.661 104.215 275.755 104.557 275.879 104.844V105H273.994C273.903 104.792 273.831 104.515 273.779 104.17C273.727 103.818 273.701 103.493 273.701 103.193ZM274.014 98.5938L274.033 99.8633H272.207C271.693 99.8633 271.234 99.9056 270.83 99.9902C270.426 100.068 270.088 100.189 269.814 100.352C269.541 100.514 269.333 100.719 269.189 100.967C269.046 101.208 268.975 101.491 268.975 101.816C268.975 102.148 269.049 102.451 269.199 102.725C269.349 102.998 269.574 103.216 269.873 103.379C270.179 103.535 270.553 103.613 270.996 103.613C271.549 103.613 272.038 103.496 272.461 103.262C272.884 103.027 273.219 102.741 273.467 102.402C273.721 102.064 273.857 101.735 273.877 101.416L274.648 102.285C274.603 102.559 274.479 102.861 274.277 103.193C274.076 103.525 273.805 103.844 273.467 104.15C273.135 104.45 272.738 104.701 272.275 104.902C271.82 105.098 271.305 105.195 270.732 105.195C270.016 105.195 269.388 105.055 268.848 104.775C268.314 104.495 267.897 104.121 267.598 103.652C267.305 103.177 267.158 102.646 267.158 102.061C267.158 101.494 267.269 100.996 267.49 100.566C267.712 100.13 268.031 99.7689 268.447 99.4824C268.864 99.1895 269.365 98.9681 269.951 98.8184C270.537 98.6686 271.191 98.5938 271.914 98.5938H274.014ZM280.156 96.6895V105H278.35V94.4336H280.059L280.156 96.6895ZM279.727 99.3164L278.975 99.2871C278.981 98.5645 279.089 97.8971 279.297 97.2852C279.505 96.6667 279.798 96.1296 280.176 95.6738C280.553 95.2181 281.003 94.8665 281.523 94.6191C282.051 94.3652 282.633 94.2383 283.271 94.2383C283.792 94.2383 284.261 94.3099 284.678 94.4531C285.094 94.5898 285.449 94.8112 285.742 95.1172C286.042 95.4232 286.27 95.8203 286.426 96.3086C286.582 96.7904 286.66 97.3796 286.66 98.0762V105H284.844V98.0566C284.844 97.5033 284.762 97.0605 284.6 96.7285C284.437 96.39 284.199 96.1458 283.887 95.9961C283.574 95.8398 283.19 95.7617 282.734 95.7617C282.285 95.7617 281.875 95.8561 281.504 96.0449C281.139 96.2337 280.824 96.4941 280.557 96.8262C280.296 97.1582 280.091 97.5391 279.941 97.9688C279.798 98.3919 279.727 98.8411 279.727 99.3164ZM293.789 105.195C293.053 105.195 292.386 105.072 291.787 104.824C291.195 104.57 290.684 104.215 290.254 103.76C289.831 103.304 289.505 102.764 289.277 102.139C289.049 101.514 288.936 100.83 288.936 100.088V99.6777C288.936 98.8184 289.062 98.0534 289.316 97.3828C289.57 96.7057 289.915 96.1328 290.352 95.6641C290.788 95.1953 291.283 94.8405 291.836 94.5996C292.389 94.3587 292.962 94.2383 293.555 94.2383C294.31 94.2383 294.961 94.3685 295.508 94.6289C296.061 94.8893 296.514 95.2539 296.865 95.7227C297.217 96.1849 297.477 96.7318 297.646 97.3633C297.816 97.9883 297.9 98.6719 297.9 99.4141V100.225H290.01V98.75H296.094V98.6133C296.068 98.1445 295.97 97.6888 295.801 97.2461C295.638 96.8034 295.378 96.4388 295.02 96.1523C294.661 95.8659 294.173 95.7227 293.555 95.7227C293.145 95.7227 292.767 95.8105 292.422 95.9863C292.077 96.1556 291.781 96.4095 291.533 96.748C291.286 97.0866 291.094 97.5 290.957 97.9883C290.82 98.4766 290.752 99.0397 290.752 99.6777V100.088C290.752 100.589 290.82 101.061 290.957 101.504C291.1 101.94 291.305 102.324 291.572 102.656C291.846 102.988 292.174 103.249 292.559 103.438C292.949 103.626 293.392 103.721 293.887 103.721C294.525 103.721 295.065 103.59 295.508 103.33C295.951 103.07 296.338 102.721 296.67 102.285L297.764 103.154C297.536 103.499 297.246 103.828 296.895 104.141C296.543 104.453 296.11 104.707 295.596 104.902C295.088 105.098 294.486 105.195 293.789 105.195ZM304.434 94.4336V95.8203H298.721V94.4336H304.434ZM300.654 91.8652H302.461V102.383C302.461 102.741 302.516 103.011 302.627 103.193C302.738 103.376 302.881 103.496 303.057 103.555C303.232 103.613 303.421 103.643 303.623 103.643C303.773 103.643 303.929 103.63 304.092 103.604C304.261 103.571 304.388 103.545 304.473 103.525L304.482 105C304.339 105.046 304.15 105.088 303.916 105.127C303.688 105.173 303.411 105.195 303.086 105.195C302.643 105.195 302.236 105.107 301.865 104.932C301.494 104.756 301.198 104.463 300.977 104.053C300.762 103.636 300.654 103.076 300.654 102.373V91.8652ZM315.273 98.2129V99.6973H310.508V98.2129H315.273ZM329.043 94.4336V95.9277H323.701V94.4336H329.043ZM323.965 94.4336V105H322.158V94.4336H323.965ZM330.645 94.4336V105H328.828V94.4336H330.645ZM340.605 94.4336V95.9277H335.498V94.4336H340.605ZM342.197 94.4336V105H340.391V94.4336H342.197ZM335.059 94.4336H336.875L336.602 99.5312C336.556 100.319 336.481 101.016 336.377 101.621C336.279 102.22 336.143 102.734 335.967 103.164C335.798 103.594 335.583 103.945 335.322 104.219C335.068 104.486 334.762 104.684 334.404 104.814C334.046 104.938 333.633 105 333.164 105H332.598V103.408L332.988 103.379C333.268 103.359 333.506 103.294 333.701 103.184C333.903 103.073 334.072 102.91 334.209 102.695C334.346 102.474 334.456 102.191 334.541 101.846C334.632 101.501 334.701 101.09 334.746 100.615C334.798 100.14 334.837 99.5866 334.863 98.9551L335.059 94.4336ZM351.338 103.193V97.7539C351.338 97.3372 351.253 96.9759 351.084 96.6699C350.921 96.3574 350.674 96.1165 350.342 95.9473C350.01 95.778 349.6 95.6934 349.111 95.6934C348.656 95.6934 348.255 95.7715 347.91 95.9277C347.572 96.084 347.305 96.2891 347.109 96.543C346.921 96.7969 346.826 97.0703 346.826 97.3633H345.02C345.02 96.9857 345.117 96.6113 345.312 96.2402C345.508 95.8691 345.788 95.5339 346.152 95.2344C346.523 94.9284 346.966 94.6875 347.48 94.5117C348.001 94.3294 348.581 94.2383 349.219 94.2383C349.987 94.2383 350.664 94.3685 351.25 94.6289C351.842 94.8893 352.305 95.2832 352.637 95.8105C352.975 96.3314 353.145 96.9857 353.145 97.7734V102.695C353.145 103.047 353.174 103.421 353.232 103.818C353.298 104.215 353.392 104.557 353.516 104.844V105H351.631C351.54 104.792 351.468 104.515 351.416 104.17C351.364 103.818 351.338 103.493 351.338 103.193ZM351.65 98.5938L351.67 99.8633H349.844C349.329 99.8633 348.87 99.9056 348.467 99.9902C348.063 100.068 347.725 100.189 347.451 100.352C347.178 100.514 346.969 100.719 346.826 100.967C346.683 101.208 346.611 101.491 346.611 101.816C346.611 102.148 346.686 102.451 346.836 102.725C346.986 102.998 347.21 103.216 347.51 103.379C347.816 103.535 348.19 103.613 348.633 103.613C349.186 103.613 349.674 103.496 350.098 103.262C350.521 103.027 350.856 102.741 351.104 102.402C351.357 102.064 351.494 101.735 351.514 101.416L352.285 102.285C352.24 102.559 352.116 102.861 351.914 103.193C351.712 103.525 351.442 103.844 351.104 104.15C350.771 104.45 350.374 104.701 349.912 104.902C349.456 105.098 348.942 105.195 348.369 105.195C347.653 105.195 347.025 105.055 346.484 104.775C345.951 104.495 345.534 104.121 345.234 103.652C344.941 103.177 344.795 102.646 344.795 102.061C344.795 101.494 344.906 100.996 345.127 100.566C345.348 100.13 345.667 99.7689 346.084 99.4824C346.501 99.1895 347.002 98.9681 347.588 98.8184C348.174 98.6686 348.828 98.5938 349.551 98.5938H351.65ZM363.154 99.0137V100.479H357.568V99.0137H363.154ZM357.949 94.4336V105H356.143V94.4336H357.949ZM364.619 94.4336V105H362.803V94.4336H364.619ZM371.914 105.195C371.178 105.195 370.511 105.072 369.912 104.824C369.32 104.57 368.809 104.215 368.379 103.76C367.956 103.304 367.63 102.764 367.402 102.139C367.174 101.514 367.061 100.83 367.061 100.088V99.6777C367.061 98.8184 367.188 98.0534 367.441 97.3828C367.695 96.7057 368.04 96.1328 368.477 95.6641C368.913 95.1953 369.408 94.8405 369.961 94.5996C370.514 94.3587 371.087 94.2383 371.68 94.2383C372.435 94.2383 373.086 94.3685 373.633 94.6289C374.186 94.8893 374.639 95.2539 374.99 95.7227C375.342 96.1849 375.602 96.7318 375.771 97.3633C375.941 97.9883 376.025 98.6719 376.025 99.4141V100.225H368.135V98.75H374.219V98.6133C374.193 98.1445 374.095 97.6888 373.926 97.2461C373.763 96.8034 373.503 96.4388 373.145 96.1523C372.786 95.8659 372.298 95.7227 371.68 95.7227C371.27 95.7227 370.892 95.8105 370.547 95.9863C370.202 96.1556 369.906 96.4095 369.658 96.748C369.411 97.0866 369.219 97.5 369.082 97.9883C368.945 98.4766 368.877 99.0397 368.877 99.6777V100.088C368.877 100.589 368.945 101.061 369.082 101.504C369.225 101.94 369.43 102.324 369.697 102.656C369.971 102.988 370.299 103.249 370.684 103.438C371.074 103.626 371.517 103.721 372.012 103.721C372.65 103.721 373.19 103.59 373.633 103.33C374.076 103.07 374.463 102.721 374.795 102.285L375.889 103.154C375.661 103.499 375.371 103.828 375.02 104.141C374.668 104.453 374.235 104.707 373.721 104.902C373.213 105.098 372.611 105.195 371.914 105.195ZM382.324 94.4336V105H380.508V94.4336H382.324ZM385.869 94.4336V95.8984H377.031V94.4336H385.869ZM393.721 103.193V97.7539C393.721 97.3372 393.636 96.9759 393.467 96.6699C393.304 96.3574 393.057 96.1165 392.725 95.9473C392.393 95.778 391.982 95.6934 391.494 95.6934C391.038 95.6934 390.638 95.7715 390.293 95.9277C389.954 96.084 389.688 96.2891 389.492 96.543C389.303 96.7969 389.209 97.0703 389.209 97.3633H387.402C387.402 96.9857 387.5 96.6113 387.695 96.2402C387.891 95.8691 388.171 95.5339 388.535 95.2344C388.906 94.9284 389.349 94.6875 389.863 94.5117C390.384 94.3294 390.964 94.2383 391.602 94.2383C392.37 94.2383 393.047 94.3685 393.633 94.6289C394.225 94.8893 394.688 95.2832 395.02 95.8105C395.358 96.3314 395.527 96.9857 395.527 97.7734V102.695C395.527 103.047 395.557 103.421 395.615 103.818C395.68 104.215 395.775 104.557 395.898 104.844V105H394.014C393.923 104.792 393.851 104.515 393.799 104.17C393.747 103.818 393.721 103.493 393.721 103.193ZM394.033 98.5938L394.053 99.8633H392.227C391.712 99.8633 391.253 99.9056 390.85 99.9902C390.446 100.068 390.107 100.189 389.834 100.352C389.561 100.514 389.352 100.719 389.209 100.967C389.066 101.208 388.994 101.491 388.994 101.816C388.994 102.148 389.069 102.451 389.219 102.725C389.368 102.998 389.593 103.216 389.893 103.379C390.199 103.535 390.573 103.613 391.016 103.613C391.569 103.613 392.057 103.496 392.48 103.262C392.904 103.027 393.239 102.741 393.486 102.402C393.74 102.064 393.877 101.735 393.896 101.416L394.668 102.285C394.622 102.559 394.499 102.861 394.297 103.193C394.095 103.525 393.825 103.844 393.486 104.15C393.154 104.45 392.757 104.701 392.295 104.902C391.839 105.098 391.325 105.195 390.752 105.195C390.036 105.195 389.408 105.055 388.867 104.775C388.333 104.495 387.917 104.121 387.617 103.652C387.324 103.177 387.178 102.646 387.178 102.061C387.178 101.494 387.288 100.996 387.51 100.566C387.731 100.13 388.05 99.7689 388.467 99.4824C388.883 99.1895 389.385 98.9681 389.971 98.8184C390.557 98.6686 391.211 98.5938 391.934 98.5938H394.033Z" fill="black"/>
<path d="M557.301 66.4336V68.3086H552.086V66.4336H557.301ZM552.643 66.4336V77H550.289V66.4336H552.643ZM559.146 66.4336V77H556.783V66.4336H559.146ZM564 68.4648V81.0625H561.646V66.4336H563.814L564 68.4648ZM570.885 71.6191V71.8242C570.885 72.5924 570.794 73.3053 570.611 73.9629C570.436 74.6139 570.172 75.1836 569.82 75.6719C569.475 76.1536 569.049 76.528 568.541 76.7949C568.033 77.0618 567.447 77.1953 566.783 77.1953C566.126 77.1953 565.549 77.0749 565.055 76.834C564.566 76.5866 564.153 76.2383 563.814 75.7891C563.476 75.3398 563.202 74.8125 562.994 74.207C562.792 73.5951 562.649 72.9245 562.564 72.1953V71.4043C562.649 70.6296 562.792 69.9264 562.994 69.2949C563.202 68.6634 563.476 68.1198 563.814 67.6641C564.153 67.2083 564.566 66.8568 565.055 66.6094C565.543 66.362 566.113 66.2383 566.764 66.2383C567.428 66.2383 568.017 66.3685 568.531 66.6289C569.046 66.8828 569.479 67.2474 569.83 67.7227C570.182 68.1914 570.445 68.7578 570.621 69.4219C570.797 70.0794 570.885 70.8118 570.885 71.6191ZM568.531 71.8242V71.6191C568.531 71.1309 568.486 70.6784 568.395 70.2617C568.303 69.8385 568.16 69.4674 567.965 69.1484C567.77 68.8294 567.519 68.582 567.213 68.4062C566.913 68.224 566.552 68.1328 566.129 68.1328C565.712 68.1328 565.354 68.2044 565.055 68.3477C564.755 68.4844 564.505 68.6764 564.303 68.9238C564.101 69.1712 563.945 69.4609 563.834 69.793C563.723 70.1185 563.645 70.4733 563.6 70.8574V72.752C563.678 73.2207 563.811 73.6504 564 74.041C564.189 74.4316 564.456 74.7441 564.801 74.9785C565.152 75.2064 565.602 75.3203 566.148 75.3203C566.572 75.3203 566.933 75.2292 567.232 75.0469C567.532 74.8646 567.776 74.6139 567.965 74.2949C568.16 73.9694 568.303 73.5951 568.395 73.1719C568.486 72.7487 568.531 72.2995 568.531 71.8242ZM575.318 73.5625L579.469 66.4336H581.822V77H579.469V69.8613L575.318 77H572.965V66.4336H575.318V73.5625ZM591.412 66.4336V68.3086H586.256V66.4336H591.412ZM593.258 66.4336V77H590.904V66.4336H593.258ZM585.68 66.4336H588.004L587.721 71.6582C587.682 72.4329 587.604 73.1165 587.486 73.709C587.376 74.2949 587.226 74.7995 587.037 75.2227C586.848 75.6393 586.617 75.9779 586.344 76.2383C586.07 76.4987 585.751 76.6908 585.387 76.8145C585.022 76.9382 584.612 77 584.156 77H583.424L583.414 75.0664L583.785 75.0371C584.026 75.0176 584.234 74.9557 584.41 74.8516C584.586 74.7409 584.736 74.5846 584.859 74.3828C584.99 74.181 585.094 73.9206 585.172 73.6016C585.257 73.2826 585.322 72.9049 585.367 72.4688C585.419 72.0326 585.458 71.5247 585.484 70.9453L585.68 66.4336ZM552.184 96.4648V109.062H550.367V94.4336H552.027L552.184 96.4648ZM559.303 99.6289V99.834C559.303 100.602 559.212 101.315 559.029 101.973C558.847 102.624 558.58 103.19 558.229 103.672C557.883 104.154 557.457 104.528 556.949 104.795C556.441 105.062 555.859 105.195 555.201 105.195C554.531 105.195 553.938 105.085 553.424 104.863C552.91 104.642 552.473 104.32 552.115 103.896C551.757 103.473 551.471 102.965 551.256 102.373C551.048 101.781 550.904 101.113 550.826 100.371V99.2773C550.904 98.4961 551.051 97.7962 551.266 97.1777C551.48 96.5592 551.764 96.0319 552.115 95.5957C552.473 95.153 552.906 94.8177 553.414 94.5898C553.922 94.3555 554.508 94.2383 555.172 94.2383C555.836 94.2383 556.425 94.3685 556.939 94.6289C557.454 94.8828 557.887 95.2474 558.238 95.7227C558.59 96.1979 558.854 96.7676 559.029 97.4316C559.212 98.0892 559.303 98.8216 559.303 99.6289ZM557.486 99.834V99.6289C557.486 99.1016 557.431 98.6068 557.32 98.1445C557.21 97.6758 557.037 97.2656 556.803 96.9141C556.575 96.556 556.282 96.276 555.924 96.0742C555.566 95.8659 555.139 95.7617 554.645 95.7617C554.189 95.7617 553.792 95.8398 553.453 95.9961C553.121 96.1523 552.838 96.3639 552.604 96.6309C552.369 96.8913 552.177 97.1908 552.027 97.5293C551.884 97.8613 551.777 98.2064 551.705 98.5645V101.094C551.835 101.549 552.018 101.979 552.252 102.383C552.486 102.78 552.799 103.102 553.189 103.35C553.58 103.59 554.072 103.711 554.664 103.711C555.152 103.711 555.572 103.61 555.924 103.408C556.282 103.2 556.575 102.917 556.803 102.559C557.037 102.201 557.21 101.79 557.32 101.328C557.431 100.859 557.486 100.361 557.486 99.834ZM563.57 90V105H561.754V90H563.57ZM572.701 103.193V97.7539C572.701 97.3372 572.617 96.9759 572.447 96.6699C572.285 96.3574 572.037 96.1165 571.705 95.9473C571.373 95.778 570.963 95.6934 570.475 95.6934C570.019 95.6934 569.618 95.7715 569.273 95.9277C568.935 96.084 568.668 96.2891 568.473 96.543C568.284 96.7969 568.189 97.0703 568.189 97.3633H566.383C566.383 96.9857 566.48 96.6113 566.676 96.2402C566.871 95.8691 567.151 95.5339 567.516 95.2344C567.887 94.9284 568.329 94.6875 568.844 94.5117C569.365 94.3294 569.944 94.2383 570.582 94.2383C571.35 94.2383 572.027 94.3685 572.613 94.6289C573.206 94.8893 573.668 95.2832 574 95.8105C574.339 96.3314 574.508 96.9857 574.508 97.7734V102.695C574.508 103.047 574.537 103.421 574.596 103.818C574.661 104.215 574.755 104.557 574.879 104.844V105H572.994C572.903 104.792 572.831 104.515 572.779 104.17C572.727 103.818 572.701 103.493 572.701 103.193ZM573.014 98.5938L573.033 99.8633H571.207C570.693 99.8633 570.234 99.9056 569.83 99.9902C569.426 100.068 569.088 100.189 568.814 100.352C568.541 100.514 568.333 100.719 568.189 100.967C568.046 101.208 567.975 101.491 567.975 101.816C567.975 102.148 568.049 102.451 568.199 102.725C568.349 102.998 568.574 103.216 568.873 103.379C569.179 103.535 569.553 103.613 569.996 103.613C570.549 103.613 571.038 103.496 571.461 103.262C571.884 103.027 572.219 102.741 572.467 102.402C572.721 102.064 572.857 101.735 572.877 101.416L573.648 102.285C573.603 102.559 573.479 102.861 573.277 103.193C573.076 103.525 572.805 103.844 572.467 104.15C572.135 104.45 571.738 104.701 571.275 104.902C570.82 105.098 570.305 105.195 569.732 105.195C569.016 105.195 568.388 105.055 567.848 104.775C567.314 104.495 566.897 104.121 566.598 103.652C566.305 103.177 566.158 102.646 566.158 102.061C566.158 101.494 566.269 100.996 566.49 100.566C566.712 100.13 567.031 99.7689 567.447 99.4824C567.864 99.1895 568.365 98.9681 568.951 98.8184C569.537 98.6686 570.191 98.5938 570.914 98.5938H573.014ZM579.156 96.6895V105H577.35V94.4336H579.059L579.156 96.6895ZM578.727 99.3164L577.975 99.2871C577.981 98.5645 578.089 97.8971 578.297 97.2852C578.505 96.6667 578.798 96.1296 579.176 95.6738C579.553 95.2181 580.003 94.8665 580.523 94.6191C581.051 94.3652 581.633 94.2383 582.271 94.2383C582.792 94.2383 583.261 94.3099 583.678 94.4531C584.094 94.5898 584.449 94.8112 584.742 95.1172C585.042 95.4232 585.27 95.8203 585.426 96.3086C585.582 96.7904 585.66 97.3796 585.66 98.0762V105H583.844V98.0566C583.844 97.5033 583.762 97.0605 583.6 96.7285C583.437 96.39 583.199 96.1458 582.887 95.9961C582.574 95.8398 582.19 95.7617 581.734 95.7617C581.285 95.7617 580.875 95.8561 580.504 96.0449C580.139 96.2337 579.824 96.4941 579.557 96.8262C579.296 97.1582 579.091 97.5391 578.941 97.9688C578.798 98.3919 578.727 98.8411 578.727 99.3164ZM592.789 105.195C592.053 105.195 591.386 105.072 590.787 104.824C590.195 104.57 589.684 104.215 589.254 103.76C588.831 103.304 588.505 102.764 588.277 102.139C588.049 101.514 587.936 100.83 587.936 100.088V99.6777C587.936 98.8184 588.062 98.0534 588.316 97.3828C588.57 96.7057 588.915 96.1328 589.352 95.6641C589.788 95.1953 590.283 94.8405 590.836 94.5996C591.389 94.3587 591.962 94.2383 592.555 94.2383C593.31 94.2383 593.961 94.3685 594.508 94.6289C595.061 94.8893 595.514 95.2539 595.865 95.7227C596.217 96.1849 596.477 96.7318 596.646 97.3633C596.816 97.9883 596.9 98.6719 596.9 99.4141V100.225H589.01V98.75H595.094V98.6133C595.068 98.1445 594.97 97.6888 594.801 97.2461C594.638 96.8034 594.378 96.4388 594.02 96.1523C593.661 95.8659 593.173 95.7227 592.555 95.7227C592.145 95.7227 591.767 95.8105 591.422 95.9863C591.077 96.1556 590.781 96.4095 590.533 96.748C590.286 97.0866 590.094 97.5 589.957 97.9883C589.82 98.4766 589.752 99.0397 589.752 99.6777V100.088C589.752 100.589 589.82 101.061 589.957 101.504C590.1 101.94 590.305 102.324 590.572 102.656C590.846 102.988 591.174 103.249 591.559 103.438C591.949 103.626 592.392 103.721 592.887 103.721C593.525 103.721 594.065 103.59 594.508 103.33C594.951 103.07 595.338 102.721 595.67 102.285L596.764 103.154C596.536 103.499 596.246 103.828 595.895 104.141C595.543 104.453 595.11 104.707 594.596 104.902C594.088 105.098 593.486 105.195 592.789 105.195ZM603.434 94.4336V95.8203H597.721V94.4336H603.434ZM599.654 91.8652H601.461V102.383C601.461 102.741 601.516 103.011 601.627 103.193C601.738 103.376 601.881 103.496 602.057 103.555C602.232 103.613 602.421 103.643 602.623 103.643C602.773 103.643 602.929 103.63 603.092 103.604C603.261 103.571 603.388 103.545 603.473 103.525L603.482 105C603.339 105.046 603.15 105.088 602.916 105.127C602.688 105.173 602.411 105.195 602.086 105.195C601.643 105.195 601.236 105.107 600.865 104.932C600.494 104.756 600.198 104.463 599.977 104.053C599.762 103.636 599.654 103.076 599.654 102.373V91.8652ZM609.283 88.75V90.2344H607.418V106.562H609.283V108.047H605.611V88.75H609.283ZM617.096 103.193V97.7539C617.096 97.3372 617.011 96.9759 616.842 96.6699C616.679 96.3574 616.432 96.1165 616.1 95.9473C615.768 95.778 615.357 95.6934 614.869 95.6934C614.413 95.6934 614.013 95.7715 613.668 95.9277C613.329 96.084 613.062 96.2891 612.867 96.543C612.678 96.7969 612.584 97.0703 612.584 97.3633H610.777C610.777 96.9857 610.875 96.6113 611.07 96.2402C611.266 95.8691 611.546 95.5339 611.91 95.2344C612.281 94.9284 612.724 94.6875 613.238 94.5117C613.759 94.3294 614.339 94.2383 614.977 94.2383C615.745 94.2383 616.422 94.3685 617.008 94.6289C617.6 94.8893 618.062 95.2832 618.395 95.8105C618.733 96.3314 618.902 96.9857 618.902 97.7734V102.695C618.902 103.047 618.932 103.421 618.99 103.818C619.055 104.215 619.15 104.557 619.273 104.844V105H617.389C617.298 104.792 617.226 104.515 617.174 104.17C617.122 103.818 617.096 103.493 617.096 103.193ZM617.408 98.5938L617.428 99.8633H615.602C615.087 99.8633 614.628 99.9056 614.225 99.9902C613.821 100.068 613.482 100.189 613.209 100.352C612.936 100.514 612.727 100.719 612.584 100.967C612.441 101.208 612.369 101.491 612.369 101.816C612.369 102.148 612.444 102.451 612.594 102.725C612.743 102.998 612.968 103.216 613.268 103.379C613.574 103.535 613.948 103.613 614.391 103.613C614.944 103.613 615.432 103.496 615.855 103.262C616.279 103.027 616.614 102.741 616.861 102.402C617.115 102.064 617.252 101.735 617.271 101.416L618.043 102.285C617.997 102.559 617.874 102.861 617.672 103.193C617.47 103.525 617.2 103.844 616.861 104.15C616.529 104.45 616.132 104.701 615.67 104.902C615.214 105.098 614.7 105.195 614.127 105.195C613.411 105.195 612.783 105.055 612.242 104.775C611.708 104.495 611.292 104.121 610.992 103.652C610.699 103.177 610.553 102.646 610.553 102.061C610.553 101.494 610.663 100.996 610.885 100.566C611.106 100.13 611.425 99.7689 611.842 99.4824C612.258 99.1895 612.76 98.9681 613.346 98.8184C613.932 98.6686 614.586 98.5938 615.309 98.5938H617.408ZM623.551 96.0938V105H621.744V94.4336H623.502L623.551 96.0938ZM626.852 94.375L626.842 96.0547C626.692 96.0221 626.549 96.0026 626.412 95.9961C626.282 95.9831 626.132 95.9766 625.963 95.9766C625.546 95.9766 625.178 96.0417 624.859 96.1719C624.54 96.3021 624.27 96.4844 624.049 96.7188C623.827 96.9531 623.652 97.2331 623.521 97.5586C623.398 97.8776 623.316 98.2292 623.277 98.6133L622.77 98.9062C622.77 98.2682 622.831 97.6693 622.955 97.1094C623.085 96.5495 623.284 96.0547 623.551 95.625C623.818 95.1888 624.156 94.8503 624.566 94.6094C624.983 94.362 625.478 94.2383 626.051 94.2383C626.181 94.2383 626.331 94.2546 626.5 94.2871C626.669 94.3132 626.786 94.3424 626.852 94.375ZM631.666 103.906L634.605 94.4336H636.539L632.301 106.631C632.203 106.891 632.073 107.171 631.91 107.471C631.754 107.777 631.552 108.066 631.305 108.34C631.057 108.613 630.758 108.835 630.406 109.004C630.061 109.18 629.648 109.268 629.166 109.268C629.023 109.268 628.84 109.248 628.619 109.209C628.398 109.17 628.242 109.137 628.15 109.111L628.141 107.646C628.193 107.653 628.274 107.66 628.385 107.666C628.502 107.679 628.583 107.686 628.629 107.686C629.039 107.686 629.387 107.63 629.674 107.52C629.96 107.415 630.201 107.236 630.396 106.982C630.598 106.735 630.771 106.393 630.914 105.957L631.666 103.906ZM629.508 94.4336L632.252 102.637L632.721 104.541L631.422 105.205L627.535 94.4336H629.508ZM636.891 90.2344V88.75H640.582V108.047H636.891V106.562H638.766V90.2344H636.891ZM652.203 98.2129V99.6973H647.438V98.2129H652.203ZM665.973 94.4336V95.9277H660.631V94.4336H665.973ZM660.895 94.4336V105H659.088V94.4336H660.895ZM667.574 94.4336V105H665.758V94.4336H667.574ZM677.535 94.4336V95.9277H672.428V94.4336H677.535ZM679.127 94.4336V105H677.32V94.4336H679.127ZM671.988 94.4336H673.805L673.531 99.5312C673.486 100.319 673.411 101.016 673.307 101.621C673.209 102.22 673.072 102.734 672.896 103.164C672.727 103.594 672.512 103.945 672.252 104.219C671.998 104.486 671.692 104.684 671.334 104.814C670.976 104.938 670.562 105 670.094 105H669.527V103.408L669.918 103.379C670.198 103.359 670.436 103.294 670.631 103.184C670.833 103.073 671.002 102.91 671.139 102.695C671.275 102.474 671.386 102.191 671.471 101.846C671.562 101.501 671.63 101.09 671.676 100.615C671.728 100.14 671.767 99.5866 671.793 98.9551L671.988 94.4336ZM688.268 103.193V97.7539C688.268 97.3372 688.183 96.9759 688.014 96.6699C687.851 96.3574 687.604 96.1165 687.271 95.9473C686.939 95.778 686.529 95.6934 686.041 95.6934C685.585 95.6934 685.185 95.7715 684.84 95.9277C684.501 96.084 684.234 96.2891 684.039 96.543C683.85 96.7969 683.756 97.0703 683.756 97.3633H681.949C681.949 96.9857 682.047 96.6113 682.242 96.2402C682.438 95.8691 682.717 95.5339 683.082 95.2344C683.453 94.9284 683.896 94.6875 684.41 94.5117C684.931 94.3294 685.51 94.2383 686.148 94.2383C686.917 94.2383 687.594 94.3685 688.18 94.6289C688.772 94.8893 689.234 95.2832 689.566 95.8105C689.905 96.3314 690.074 96.9857 690.074 97.7734V102.695C690.074 103.047 690.104 103.421 690.162 103.818C690.227 104.215 690.322 104.557 690.445 104.844V105H688.561C688.469 104.792 688.398 104.515 688.346 104.17C688.294 103.818 688.268 103.493 688.268 103.193ZM688.58 98.5938L688.6 99.8633H686.773C686.259 99.8633 685.8 99.9056 685.396 99.9902C684.993 100.068 684.654 100.189 684.381 100.352C684.107 100.514 683.899 100.719 683.756 100.967C683.613 101.208 683.541 101.491 683.541 101.816C683.541 102.148 683.616 102.451 683.766 102.725C683.915 102.998 684.14 103.216 684.439 103.379C684.745 103.535 685.12 103.613 685.562 103.613C686.116 103.613 686.604 103.496 687.027 103.262C687.451 103.027 687.786 102.741 688.033 102.402C688.287 102.064 688.424 101.735 688.443 101.416L689.215 102.285C689.169 102.559 689.046 102.861 688.844 103.193C688.642 103.525 688.372 103.844 688.033 104.15C687.701 104.45 687.304 104.701 686.842 104.902C686.386 105.098 685.872 105.195 685.299 105.195C684.583 105.195 683.954 105.055 683.414 104.775C682.88 104.495 682.464 104.121 682.164 103.652C681.871 103.177 681.725 102.646 681.725 102.061C681.725 101.494 681.835 100.996 682.057 100.566C682.278 100.13 682.597 99.7689 683.014 99.4824C683.43 99.1895 683.932 98.9681 684.518 98.8184C685.104 98.6686 685.758 98.5938 686.48 98.5938H688.58ZM700.084 99.0137V100.479H694.498V99.0137H700.084ZM694.879 94.4336V105H693.072V94.4336H694.879ZM701.549 94.4336V105H699.732V94.4336H701.549ZM708.844 105.195C708.108 105.195 707.441 105.072 706.842 104.824C706.249 104.57 705.738 104.215 705.309 103.76C704.885 103.304 704.56 102.764 704.332 102.139C704.104 101.514 703.99 100.83 703.99 100.088V99.6777C703.99 98.8184 704.117 98.0534 704.371 97.3828C704.625 96.7057 704.97 96.1328 705.406 95.6641C705.842 95.1953 706.337 94.8405 706.891 94.5996C707.444 94.3587 708.017 94.2383 708.609 94.2383C709.365 94.2383 710.016 94.3685 710.562 94.6289C711.116 94.8893 711.568 95.2539 711.92 95.7227C712.271 96.1849 712.532 96.7318 712.701 97.3633C712.87 97.9883 712.955 98.6719 712.955 99.4141V100.225H705.064V98.75H711.148V98.6133C711.122 98.1445 711.025 97.6888 710.855 97.2461C710.693 96.8034 710.432 96.4388 710.074 96.1523C709.716 95.8659 709.228 95.7227 708.609 95.7227C708.199 95.7227 707.822 95.8105 707.477 95.9863C707.132 96.1556 706.835 96.4095 706.588 96.748C706.34 97.0866 706.148 97.5 706.012 97.9883C705.875 98.4766 705.807 99.0397 705.807 99.6777V100.088C705.807 100.589 705.875 101.061 706.012 101.504C706.155 101.94 706.36 102.324 706.627 102.656C706.9 102.988 707.229 103.249 707.613 103.438C708.004 103.626 708.447 103.721 708.941 103.721C709.579 103.721 710.12 103.59 710.562 103.33C711.005 103.07 711.393 102.721 711.725 102.285L712.818 103.154C712.59 103.499 712.301 103.828 711.949 104.141C711.598 104.453 711.165 104.707 710.65 104.902C710.143 105.098 709.54 105.195 708.844 105.195ZM719.254 94.4336V105H717.438V94.4336H719.254ZM722.799 94.4336V95.8984H713.961V94.4336H722.799ZM730.65 103.193V97.7539C730.65 97.3372 730.566 96.9759 730.396 96.6699C730.234 96.3574 729.986 96.1165 729.654 95.9473C729.322 95.778 728.912 95.6934 728.424 95.6934C727.968 95.6934 727.568 95.7715 727.223 95.9277C726.884 96.084 726.617 96.2891 726.422 96.543C726.233 96.7969 726.139 97.0703 726.139 97.3633H724.332C724.332 96.9857 724.43 96.6113 724.625 96.2402C724.82 95.8691 725.1 95.5339 725.465 95.2344C725.836 94.9284 726.279 94.6875 726.793 94.5117C727.314 94.3294 727.893 94.2383 728.531 94.2383C729.299 94.2383 729.977 94.3685 730.562 94.6289C731.155 94.8893 731.617 95.2832 731.949 95.8105C732.288 96.3314 732.457 96.9857 732.457 97.7734V102.695C732.457 103.047 732.486 103.421 732.545 103.818C732.61 104.215 732.704 104.557 732.828 104.844V105H730.943C730.852 104.792 730.781 104.515 730.729 104.17C730.676 103.818 730.65 103.493 730.65 103.193ZM730.963 98.5938L730.982 99.8633H729.156C728.642 99.8633 728.183 99.9056 727.779 99.9902C727.376 100.068 727.037 100.189 726.764 100.352C726.49 100.514 726.282 100.719 726.139 100.967C725.995 101.208 725.924 101.491 725.924 101.816C725.924 102.148 725.999 102.451 726.148 102.725C726.298 102.998 726.523 103.216 726.822 103.379C727.128 103.535 727.503 103.613 727.945 103.613C728.499 103.613 728.987 103.496 729.41 103.262C729.833 103.027 730.169 102.741 730.416 102.402C730.67 102.064 730.807 101.735 730.826 101.416L731.598 102.285C731.552 102.559 731.428 102.861 731.227 103.193C731.025 103.525 730.755 103.844 730.416 104.15C730.084 104.45 729.687 104.701 729.225 104.902C728.769 105.098 728.255 105.195 727.682 105.195C726.965 105.195 726.337 105.055 725.797 104.775C725.263 104.495 724.846 104.121 724.547 103.652C724.254 103.177 724.107 102.646 724.107 102.061C724.107 101.494 724.218 100.996 724.439 100.566C724.661 100.13 724.98 99.7689 725.396 99.4824C725.813 99.1895 726.314 98.9681 726.9 98.8184C727.486 98.6686 728.141 98.5938 728.863 98.5938H730.963ZM737.105 96.4648V109.062H735.289V94.4336H736.949L737.105 96.4648ZM744.225 99.6289V99.834C744.225 100.602 744.133 101.315 743.951 101.973C743.769 102.624 743.502 103.19 743.15 103.672C742.805 104.154 742.379 104.528 741.871 104.795C741.363 105.062 740.781 105.195 740.123 105.195C739.452 105.195 738.86 105.085 738.346 104.863C737.831 104.642 737.395 104.32 737.037 103.896C736.679 103.473 736.393 102.965 736.178 102.373C735.969 101.781 735.826 101.113 735.748 100.371V99.2773C735.826 98.4961 735.973 97.7962 736.188 97.1777C736.402 96.5592 736.686 96.0319 737.037 95.5957C737.395 95.153 737.828 94.8177 738.336 94.5898C738.844 94.3555 739.43 94.2383 740.094 94.2383C740.758 94.2383 741.347 94.3685 741.861 94.6289C742.376 94.8828 742.809 95.2474 743.16 95.7227C743.512 96.1979 743.775 96.7676 743.951 97.4316C744.133 98.0892 744.225 98.8216 744.225 99.6289ZM742.408 99.834V99.6289C742.408 99.1016 742.353 98.6068 742.242 98.1445C742.132 97.6758 741.959 97.2656 741.725 96.9141C741.497 96.556 741.204 96.276 740.846 96.0742C740.488 95.8659 740.061 95.7617 739.566 95.7617C739.111 95.7617 738.714 95.8398 738.375 95.9961C738.043 96.1523 737.76 96.3639 737.525 96.6309C737.291 96.8913 737.099 97.1908 736.949 97.5293C736.806 97.8613 736.699 98.2064 736.627 98.5645V101.094C736.757 101.549 736.939 101.979 737.174 102.383C737.408 102.78 737.721 103.102 738.111 103.35C738.502 103.59 738.993 103.711 739.586 103.711C740.074 103.711 740.494 103.61 740.846 103.408C741.204 103.2 741.497 102.917 741.725 102.559C741.959 102.201 742.132 101.79 742.242 101.328C742.353 100.859 742.408 100.361 742.408 99.834ZM753.697 99.0137V100.479H748.111V99.0137H753.697ZM748.492 94.4336V105H746.686V94.4336H748.492ZM755.162 94.4336V105H753.346V94.4336H755.162ZM759.557 98.0664H762.73C763.583 98.0664 764.303 98.2161 764.889 98.5156C765.475 98.8086 765.917 99.2155 766.217 99.7363C766.523 100.251 766.676 100.837 766.676 101.494C766.676 101.982 766.591 102.441 766.422 102.871C766.253 103.294 765.999 103.665 765.66 103.984C765.328 104.303 764.915 104.554 764.42 104.736C763.932 104.912 763.368 105 762.73 105H758.238V94.4336H760.045V103.516H762.73C763.251 103.516 763.668 103.421 763.98 103.232C764.293 103.044 764.518 102.799 764.654 102.5C764.791 102.201 764.859 101.888 764.859 101.562C764.859 101.243 764.791 100.931 764.654 100.625C764.518 100.319 764.293 100.065 763.98 99.8633C763.668 99.6549 763.251 99.5508 762.73 99.5508H759.557V98.0664ZM770.436 94.4336V105H768.629V94.4336H770.436ZM775.553 102.139L780.426 94.4336H782.242V105H780.426V97.2949L775.553 105H773.756V94.4336H775.553V102.139ZM779.439 90.6055H780.904C780.904 91.1133 780.787 91.5658 780.553 91.9629C780.318 92.3535 779.983 92.6595 779.547 92.8809C779.111 93.1022 778.593 93.2129 777.994 93.2129C777.089 93.2129 776.373 92.972 775.846 92.4902C775.325 92.002 775.064 91.3737 775.064 90.6055H776.529C776.529 90.9896 776.64 91.3281 776.861 91.6211C777.083 91.9141 777.46 92.0605 777.994 92.0605C778.515 92.0605 778.886 91.9141 779.107 91.6211C779.329 91.3281 779.439 90.9896 779.439 90.6055Z" fill="black"/>
<path d="M38.1836 82.3623V86.0708H21.1279V82.3623H38.1836ZM31.6553 75.3896V93.5049H27.6733V75.3896H31.6553ZM60.708 92.2915V83.4731C60.708 82.8123 60.5884 82.2427 60.3491 81.7642C60.1099 81.2856 59.7453 80.9154 59.2554 80.6533C58.7769 80.3913 58.173 80.2603 57.4438 80.2603C56.7716 80.2603 56.1906 80.3742 55.7007 80.6021C55.2108 80.8299 54.8291 81.1375 54.5557 81.5249C54.2822 81.9123 54.1455 82.3509 54.1455 82.8408H50.0439C50.0439 82.1117 50.2205 81.4053 50.5737 80.7217C50.9269 80.0381 51.4396 79.4285 52.1118 78.8931C52.784 78.3576 53.5872 77.936 54.5215 77.6284C55.4557 77.3208 56.5039 77.167 57.666 77.167C59.056 77.167 60.2865 77.4006 61.3574 77.8677C62.4398 78.3348 63.2886 79.0412 63.9038 79.9868C64.5304 80.9211 64.8438 82.0946 64.8438 83.5073V91.7275C64.8438 92.5706 64.9007 93.3283 65.0146 94.0005C65.14 94.6613 65.3166 95.2367 65.5444 95.7266V96H61.3232C61.1296 95.5557 60.9757 94.9917 60.8618 94.3081C60.7593 93.6131 60.708 92.9409 60.708 92.2915ZM61.3062 84.7549L61.3403 87.3013H58.3838C57.6204 87.3013 56.9482 87.3753 56.3672 87.5234C55.7861 87.6602 55.3019 87.8652 54.9146 88.1387C54.5272 88.4121 54.2367 88.7425 54.043 89.1299C53.8493 89.5173 53.7524 89.9559 53.7524 90.4458C53.7524 90.9357 53.8664 91.3857 54.0942 91.7959C54.3221 92.1947 54.6525 92.508 55.0854 92.7358C55.5298 92.9637 56.0653 93.0776 56.6919 93.0776C57.535 93.0776 58.2699 92.9067 58.8965 92.5649C59.5345 92.2118 60.0358 91.7845 60.4004 91.2832C60.765 90.7705 60.9587 90.2863 60.9814 89.8306L62.3145 91.6592C62.1777 92.1263 61.9442 92.6276 61.6138 93.1631C61.2834 93.6986 60.8504 94.2113 60.3149 94.7012C59.7909 95.1797 59.1585 95.5728 58.418 95.8804C57.6888 96.188 56.8457 96.3418 55.8887 96.3418C54.681 96.3418 53.6043 96.1025 52.6587 95.624C51.7131 95.1341 50.9725 94.479 50.437 93.6587C49.9015 92.827 49.6338 91.887 49.6338 90.8389C49.6338 89.859 49.8161 88.9932 50.1807 88.2412C50.5566 87.4779 51.1035 86.8398 51.8213 86.3271C52.5505 85.8145 53.4391 85.4271 54.4873 85.165C55.5355 84.8916 56.7318 84.7549 58.0762 84.7549H61.3062ZM73.2861 81.0293V96H69.1675V77.5088H73.0981L73.2861 81.0293ZM78.9429 77.3892L78.9087 81.2173C78.658 81.1717 78.3846 81.1375 78.0884 81.1147C77.8035 81.092 77.5187 81.0806 77.2339 81.0806C76.5275 81.0806 75.9066 81.1831 75.3711 81.3882C74.8356 81.5819 74.3856 81.8667 74.021 82.2427C73.6678 82.6073 73.3944 83.0516 73.2007 83.5757C73.007 84.0998 72.8931 84.6865 72.8589 85.3359L71.9189 85.4043C71.9189 84.2422 72.0329 83.1655 72.2607 82.1743C72.4886 81.1831 72.8304 80.3115 73.2861 79.5596C73.7533 78.8076 74.3343 78.2209 75.0293 77.7993C75.7357 77.3778 76.5503 77.167 77.4731 77.167C77.7238 77.167 77.9915 77.1898 78.2764 77.2354C78.5726 77.2809 78.7948 77.3322 78.9429 77.3892ZM87.1973 93.9834L92.2217 77.5088H96.6309L89.2139 98.8198C89.043 99.2756 88.8208 99.7712 88.5474 100.307C88.2739 100.842 87.915 101.349 87.4707 101.828C87.0378 102.318 86.4966 102.711 85.8472 103.007C85.1978 103.314 84.4116 103.468 83.4888 103.468C83.1242 103.468 82.771 103.434 82.4292 103.366C82.0988 103.309 81.7855 103.246 81.4893 103.178L81.4722 100.033C81.5861 100.045 81.7228 100.056 81.8823 100.067C82.0532 100.079 82.1899 100.084 82.2925 100.084C82.9761 100.084 83.5457 99.999 84.0015 99.8281C84.4572 99.6686 84.8275 99.4066 85.1123 99.042C85.4085 98.6774 85.6592 98.1875 85.8643 97.5723L87.1973 93.9834ZM84.3604 77.5088L88.7524 91.3516L89.4873 95.6924L86.6333 96.4272L79.917 77.5088H84.3604Z" fill="black"/>
</g>
<defs>
<clipPath id="clip0_2716_1164">
<rect width="900" height="121" fill="white"/>
</clipPath>
</defs>
</svg>
