<svg width="900" height="121" viewBox="0 0 900 121" fill="none" xmlns="http://www.w3.org/2000/svg">
<g clip-path="url(#clip0_2716_1247)">
<rect width="900" height="121" fill="white"/>
<line y1="0.5" x2="900" y2="0.5" stroke="black"/>
<line x1="0.805174" y1="-0.0123898" x2="0.49487" y2="121.001" stroke="black"/>
<line x1="899.5" y1="1" x2="899.5" y2="121" stroke="black"/>
<path d="M39.1748 25.75V26.9219C39.1748 28.5332 38.9648 29.9785 38.5449 31.2578C38.125 32.5371 37.5244 33.626 36.7432 34.5244C35.9717 35.4229 35.0439 36.1113 33.96 36.5898C32.876 37.0586 31.6748 37.293 30.3564 37.293C29.0479 37.293 27.8516 37.0586 26.7676 36.5898C25.6934 36.1113 24.7607 35.4229 23.9697 34.5244C23.1787 33.626 22.5635 32.5371 22.124 31.2578C21.6943 29.9785 21.4795 28.5332 21.4795 26.9219V25.75C21.4795 24.1387 21.6943 22.6982 22.124 21.4287C22.5537 20.1494 23.1592 19.0605 23.9404 18.1621C24.7314 17.2539 25.6641 16.5654 26.7383 16.0967C27.8223 15.6182 29.0186 15.3789 30.3271 15.3789C31.6455 15.3789 32.8467 15.6182 33.9307 16.0967C35.0146 16.5654 35.9473 17.2539 36.7285 18.1621C37.5098 19.0605 38.1104 20.1494 38.5303 21.4287C38.96 22.6982 39.1748 24.1387 39.1748 25.75ZM35.498 26.9219V25.7207C35.498 24.5293 35.3809 23.4795 35.1465 22.5713C34.9219 21.6533 34.585 20.8867 34.1357 20.2715C33.6963 19.6465 33.1543 19.1777 32.5098 18.8652C31.8652 18.543 31.1377 18.3818 30.3271 18.3818C29.5166 18.3818 28.7939 18.543 28.1592 18.8652C27.5244 19.1777 26.9824 19.6465 26.5332 20.2715C26.0938 20.8867 25.7568 21.6533 25.5225 22.5713C25.2881 23.4795 25.1709 24.5293 25.1709 25.7207V26.9219C25.1709 28.1133 25.2881 29.168 25.5225 30.0859C25.7568 31.0039 26.0986 31.7803 26.5479 32.415C27.0068 33.04 27.5537 33.5137 28.1885 33.8359C28.8232 34.1484 29.5459 34.3047 30.3564 34.3047C31.1768 34.3047 31.9043 34.1484 32.5391 33.8359C33.1738 33.5137 33.7109 33.04 34.1504 32.415C34.5898 31.7803 34.9219 31.0039 35.1465 30.0859C35.3809 29.168 35.498 28.1133 35.498 26.9219ZM46.3086 21.1504V37H42.7783V21.1504H46.3086ZM56.6504 21.1504L49.5166 30.6865H45.4883L45.0195 27.4932H47.9639L52.2412 21.1504H56.6504ZM52.5195 37L47.7441 30.0859L50.5273 28.0791L57.1631 37H52.5195ZM57.8809 29.251V28.9141C57.8809 27.7715 58.0469 26.7119 58.3789 25.7354C58.7109 24.749 59.1895 23.8945 59.8145 23.1719C60.4492 22.4395 61.2207 21.873 62.1289 21.4727C63.0469 21.0625 64.082 20.8574 65.2344 20.8574C66.3965 20.8574 67.4316 21.0625 68.3398 21.4727C69.2578 21.873 70.0342 22.4395 70.6689 23.1719C71.3037 23.8945 71.7871 24.749 72.1191 25.7354C72.4512 26.7119 72.6172 27.7715 72.6172 28.9141V29.251C72.6172 30.3936 72.4512 31.4531 72.1191 32.4297C71.7871 33.4062 71.3037 34.2607 70.6689 34.9932C70.0342 35.7158 69.2627 36.2822 68.3545 36.6924C67.4463 37.0928 66.416 37.293 65.2637 37.293C64.1016 37.293 63.0615 37.0928 62.1436 36.6924C61.2354 36.2822 60.4639 35.7158 59.8291 34.9932C59.1943 34.2607 58.7109 33.4062 58.3789 32.4297C58.0469 31.4531 57.8809 30.3936 57.8809 29.251ZM61.4111 28.9141V29.251C61.4111 29.9639 61.4844 30.6377 61.6309 31.2725C61.7773 31.9072 62.0068 32.4639 62.3193 32.9424C62.6318 33.4209 63.0322 33.7969 63.5205 34.0703C64.0088 34.3438 64.5898 34.4805 65.2637 34.4805C65.918 34.4805 66.4844 34.3438 66.9629 34.0703C67.4512 33.7969 67.8516 33.4209 68.1641 32.9424C68.4766 32.4639 68.7061 31.9072 68.8525 31.2725C69.0088 30.6377 69.0869 29.9639 69.0869 29.251V28.9141C69.0869 28.2109 69.0088 27.5469 68.8525 26.9219C68.7061 26.2871 68.4717 25.7256 68.1494 25.2373C67.8369 24.749 67.4365 24.3682 66.9482 24.0947C66.4697 23.8115 65.8984 23.6699 65.2344 23.6699C64.5703 23.6699 63.9941 23.8115 63.5059 24.0947C63.0273 24.3682 62.6318 24.749 62.3193 25.2373C62.0068 25.7256 61.7773 26.2871 61.6309 26.9219C61.4844 27.5469 61.4111 28.2109 61.4111 28.9141ZM86.4014 27.7715V30.5547H78.1982V27.7715H86.4014ZM79.2236 21.1504V37H75.6934V21.1504H79.2236ZM88.9502 21.1504V37H85.4199V21.1504H88.9502ZM105.444 21.1504V37H101.914V21.1504H105.444ZM103.95 28.167V30.9648C103.521 31.1504 103.037 31.3213 102.5 31.4775C101.973 31.624 101.416 31.7461 100.83 31.8438C100.244 31.9316 99.6533 31.9756 99.0576 31.9756C97.6611 31.9756 96.4551 31.7607 95.4395 31.3311C94.4336 30.9014 93.6572 30.2422 93.1104 29.3535C92.5732 28.4551 92.3047 27.3174 92.3047 25.9404V21.1357H95.8203V25.9404C95.8203 26.7314 95.9375 27.3613 96.1719 27.8301C96.416 28.2988 96.7773 28.6357 97.2559 28.8408C97.7344 29.0459 98.335 29.1484 99.0576 29.1484C99.6631 29.1484 100.234 29.1094 100.771 29.0312C101.309 28.9434 101.841 28.8262 102.368 28.6797C102.896 28.5332 103.423 28.3623 103.95 28.167ZM118.145 33.8213V26.2627C118.145 25.6963 118.042 25.208 117.837 24.7979C117.632 24.3877 117.319 24.0703 116.899 23.8457C116.489 23.6211 115.972 23.5088 115.347 23.5088C114.771 23.5088 114.272 23.6064 113.853 23.8018C113.433 23.9971 113.105 24.2607 112.871 24.5928C112.637 24.9248 112.52 25.3008 112.52 25.7207H109.004C109.004 25.0957 109.155 24.4902 109.458 23.9043C109.761 23.3184 110.2 22.7959 110.776 22.3369C111.353 21.8779 112.041 21.5166 112.842 21.2529C113.643 20.9893 114.541 20.8574 115.537 20.8574C116.729 20.8574 117.783 21.0576 118.701 21.458C119.629 21.8584 120.356 22.4639 120.884 23.2744C121.421 24.0752 121.689 25.0811 121.689 26.292V33.3379C121.689 34.0605 121.738 34.71 121.836 35.2861C121.943 35.8525 122.095 36.3457 122.29 36.7656V37H118.672C118.506 36.6191 118.374 36.1357 118.276 35.5498C118.188 34.9541 118.145 34.3779 118.145 33.8213ZM118.657 27.3613L118.687 29.5439H116.152C115.498 29.5439 114.922 29.6074 114.424 29.7344C113.926 29.8516 113.511 30.0273 113.179 30.2617C112.847 30.4961 112.598 30.7793 112.432 31.1113C112.266 31.4434 112.183 31.8193 112.183 32.2393C112.183 32.6592 112.28 33.0449 112.476 33.3965C112.671 33.7383 112.954 34.0068 113.325 34.2021C113.706 34.3975 114.165 34.4951 114.702 34.4951C115.425 34.4951 116.055 34.3486 116.592 34.0557C117.139 33.7529 117.568 33.3867 117.881 32.957C118.193 32.5176 118.359 32.1025 118.379 31.7119L119.521 33.2793C119.404 33.6797 119.204 34.1094 118.921 34.5684C118.638 35.0273 118.267 35.4668 117.808 35.8867C117.358 36.2969 116.816 36.6338 116.182 36.8975C115.557 37.1611 114.834 37.293 114.014 37.293C112.979 37.293 112.056 37.0879 111.245 36.6777C110.435 36.2578 109.8 35.6963 109.341 34.9932C108.882 34.2803 108.652 33.4746 108.652 32.5762C108.652 31.7363 108.809 30.9941 109.121 30.3496C109.443 29.6953 109.912 29.1484 110.527 28.709C111.152 28.2695 111.914 27.9375 112.812 27.7129C113.711 27.4785 114.736 27.3613 115.889 27.3613H118.657ZM136.206 27.7715V30.5547H128.003V27.7715H136.206ZM129.028 21.1504V37H125.498V21.1504H129.028ZM138.755 21.1504V37H135.225V21.1504H138.755ZM146.167 31.8438L152.393 21.1504H155.923V37H152.393V26.292L146.167 37H142.637V21.1504H146.167V31.8438ZM162.998 29.251H166.66L162.163 37H158.516L162.998 29.251ZM165.576 21.1504H172.373V37H168.857V23.9336H165.576C164.912 23.9336 164.365 24.0508 163.936 24.2852C163.506 24.5098 163.188 24.8076 162.983 25.1787C162.778 25.54 162.676 25.9111 162.676 26.292C162.676 26.6729 162.769 27.0391 162.954 27.3906C163.149 27.7422 163.447 28.0303 163.848 28.2549C164.258 28.4795 164.771 28.5918 165.386 28.5918H170.044V31.1699H165.386C164.409 31.1699 163.535 31.0479 162.764 30.8037C161.992 30.5498 161.338 30.2031 160.801 29.7637C160.264 29.3145 159.854 28.792 159.57 28.1963C159.287 27.5908 159.146 26.9316 159.146 26.2188C159.146 25.4863 159.292 24.8125 159.585 24.1973C159.878 23.582 160.298 23.0449 160.845 22.5859C161.401 22.127 162.075 21.7754 162.866 21.5312C163.667 21.2773 164.57 21.1504 165.576 21.1504Z" fill="black"/>
<path d="M255.903 15.6719V37H252.241V15.6719H255.903ZM268.735 15.6719L260.063 27.8301H254.863L254.365 24.6367H258.027L264.238 15.6719H268.735ZM264.985 37L258.086 27.2734L260.459 24.4463L269.395 37H264.985ZM291.353 21.1504V37H287.822V21.1504H291.353ZM289.858 28.167V30.9648C289.429 31.1504 288.945 31.3213 288.408 31.4775C287.881 31.624 287.324 31.7461 286.738 31.8438C286.152 31.9316 285.562 31.9756 284.966 31.9756C283.569 31.9756 282.363 31.7607 281.348 31.3311C280.342 30.9014 279.565 30.2422 279.019 29.3535C278.481 28.4551 278.213 27.3174 278.213 25.9404V21.1357H281.729V25.9404C281.729 26.7314 281.846 27.3613 282.08 27.8301C282.324 28.2988 282.686 28.6357 283.164 28.8408C283.643 29.0459 284.243 29.1484 284.966 29.1484C285.571 29.1484 286.143 29.1094 286.68 29.0312C287.217 28.9434 287.749 28.8262 288.276 28.6797C288.804 28.5332 289.331 28.3623 289.858 28.167ZM302.104 37.293C300.933 37.293 299.873 37.1025 298.926 36.7217C297.988 36.3311 297.188 35.7891 296.523 35.0957C295.869 34.4023 295.366 33.5869 295.015 32.6494C294.663 31.7119 294.487 30.7012 294.487 29.6172V29.0312C294.487 27.791 294.668 26.668 295.029 25.6621C295.391 24.6562 295.894 23.7969 296.538 23.084C297.183 22.3613 297.944 21.8096 298.823 21.4287C299.702 21.0479 300.654 20.8574 301.68 20.8574C302.812 20.8574 303.804 21.0479 304.653 21.4287C305.503 21.8096 306.206 22.3467 306.763 23.04C307.329 23.7236 307.749 24.5391 308.022 25.4863C308.306 26.4336 308.447 27.4785 308.447 28.6211V30.1299H296.201V27.5957H304.961V27.3174C304.941 26.6826 304.814 26.0869 304.58 25.5303C304.355 24.9736 304.009 24.5244 303.54 24.1826C303.071 23.8408 302.446 23.6699 301.665 23.6699C301.079 23.6699 300.557 23.7969 300.098 24.0508C299.648 24.2949 299.272 24.6514 298.97 25.1201C298.667 25.5889 298.433 26.1553 298.267 26.8193C298.11 27.4736 298.032 28.2109 298.032 29.0312V29.6172C298.032 30.3105 298.125 30.9551 298.311 31.5508C298.506 32.1367 298.789 32.6494 299.16 33.0889C299.531 33.5283 299.98 33.875 300.508 34.1289C301.035 34.373 301.636 34.4951 302.31 34.4951C303.159 34.4951 303.916 34.3242 304.58 33.9824C305.244 33.6406 305.82 33.1572 306.309 32.5322L308.169 34.334C307.827 34.832 307.383 35.3105 306.836 35.7695C306.289 36.2188 305.62 36.585 304.829 36.8682C304.048 37.1514 303.14 37.293 302.104 37.293ZM320.62 32.7227L325.337 21.1504H328.398L321.821 37H319.419L312.856 21.1504H315.918L320.62 32.7227ZM315.01 21.1504V37H311.479V21.1504H315.01ZM326.23 37V21.1504H329.775V37H326.23ZM338.33 35.2715L342.637 21.1504H346.416L340.059 39.417C339.912 39.8076 339.722 40.2324 339.487 40.6914C339.253 41.1504 338.945 41.585 338.564 41.9951C338.193 42.415 337.729 42.752 337.173 43.0059C336.616 43.2695 335.942 43.4014 335.151 43.4014C334.839 43.4014 334.536 43.3721 334.243 43.3135C333.96 43.2646 333.691 43.2109 333.438 43.1523L333.423 40.457C333.521 40.4668 333.638 40.4766 333.774 40.4863C333.921 40.4961 334.038 40.501 334.126 40.501C334.712 40.501 335.2 40.4277 335.591 40.2812C335.981 40.1445 336.299 39.9199 336.543 39.6074C336.797 39.2949 337.012 38.875 337.188 38.3477L338.33 35.2715ZM335.898 21.1504L339.663 33.0156L340.293 36.7363L337.847 37.3662L332.09 21.1504H335.898ZM366.543 21.1504V23.9629H358.721V21.1504H366.543ZM359.556 21.1504V37H356.025V21.1504H359.556ZM369.312 21.1504V37H365.767V21.1504H369.312ZM376.592 24.1973V43.0938H373.062V21.1504H376.313L376.592 24.1973ZM386.919 28.9287V29.2363C386.919 30.3887 386.782 31.458 386.509 32.4443C386.245 33.4209 385.85 34.2754 385.322 35.0078C384.805 35.7305 384.165 36.292 383.403 36.6924C382.642 37.0928 381.763 37.293 380.767 37.293C379.78 37.293 378.916 37.1123 378.174 36.751C377.441 36.3799 376.821 35.8574 376.313 35.1836C375.806 34.5098 375.396 33.7188 375.083 32.8105C374.78 31.8926 374.565 30.8867 374.438 29.793V28.6064C374.565 27.4443 374.78 26.3896 375.083 25.4424C375.396 24.4951 375.806 23.6797 376.313 22.9961C376.821 22.3125 377.441 21.7852 378.174 21.4141C378.906 21.043 379.761 20.8574 380.737 20.8574C381.733 20.8574 382.617 21.0527 383.389 21.4434C384.16 21.8242 384.81 22.3711 385.337 23.084C385.864 23.7871 386.26 24.6367 386.523 25.6328C386.787 26.6191 386.919 27.7178 386.919 28.9287ZM383.389 29.2363V28.9287C383.389 28.1963 383.32 27.5176 383.184 26.8926C383.047 26.2578 382.832 25.7012 382.539 25.2227C382.246 24.7441 381.87 24.373 381.411 24.1094C380.962 23.8359 380.42 23.6992 379.785 23.6992C379.16 23.6992 378.623 23.8066 378.174 24.0215C377.725 24.2266 377.349 24.5146 377.046 24.8857C376.743 25.2568 376.509 25.6914 376.343 26.1895C376.177 26.6777 376.06 27.21 375.991 27.7861V30.6279C376.108 31.3311 376.309 31.9756 376.592 32.5615C376.875 33.1475 377.275 33.6162 377.793 33.9678C378.32 34.3096 378.994 34.4805 379.814 34.4805C380.449 34.4805 380.991 34.3438 381.44 34.0703C381.89 33.7969 382.256 33.4209 382.539 32.9424C382.832 32.4541 383.047 31.8926 383.184 31.2578C383.32 30.623 383.389 29.9492 383.389 29.2363ZM393.569 31.8438L399.795 21.1504H403.325V37H399.795V26.292L393.569 37H390.039V21.1504H393.569V31.8438ZM413.535 34.4805C414.111 34.4805 414.629 34.3682 415.088 34.1436C415.557 33.9092 415.933 33.5869 416.216 33.1768C416.509 32.7666 416.67 32.293 416.699 31.7559H420.024C420.005 32.7812 419.702 33.7139 419.116 34.5537C418.53 35.3936 417.754 36.0625 416.787 36.5605C415.82 37.0488 414.751 37.293 413.579 37.293C412.368 37.293 411.313 37.0879 410.415 36.6777C409.517 36.2578 408.77 35.6816 408.174 34.9492C407.578 34.2168 407.129 33.3721 406.826 32.415C406.533 31.458 406.387 30.4326 406.387 29.3389V28.8262C406.387 27.7324 406.533 26.707 406.826 25.75C407.129 24.7832 407.578 23.9336 408.174 23.2012C408.77 22.4688 409.517 21.8975 410.415 21.4873C411.313 21.0674 412.363 20.8574 413.564 20.8574C414.834 20.8574 415.947 21.1113 416.904 21.6191C417.861 22.1172 418.613 22.8154 419.16 23.7139C419.717 24.6025 420.005 25.6377 420.024 26.8193H416.699C416.67 26.2334 416.523 25.7061 416.26 25.2373C416.006 24.7588 415.645 24.3779 415.176 24.0947C414.717 23.8115 414.165 23.6699 413.521 23.6699C412.808 23.6699 412.217 23.8164 411.748 24.1094C411.279 24.3926 410.913 24.7832 410.649 25.2812C410.386 25.7695 410.195 26.3213 410.078 26.9365C409.971 27.542 409.917 28.1719 409.917 28.8262V29.3389C409.917 29.9932 409.971 30.6279 410.078 31.2432C410.186 31.8584 410.371 32.4102 410.635 32.8984C410.908 33.377 411.279 33.7627 411.748 34.0557C412.217 34.3389 412.812 34.4805 413.535 34.4805ZM422.061 29.251V28.9141C422.061 27.7715 422.227 26.7119 422.559 25.7354C422.891 24.749 423.369 23.8945 423.994 23.1719C424.629 22.4395 425.4 21.873 426.309 21.4727C427.227 21.0625 428.262 20.8574 429.414 20.8574C430.576 20.8574 431.611 21.0625 432.52 21.4727C433.438 21.873 434.214 22.4395 434.849 23.1719C435.483 23.8945 435.967 24.749 436.299 25.7354C436.631 26.7119 436.797 27.7715 436.797 28.9141V29.251C436.797 30.3936 436.631 31.4531 436.299 32.4297C435.967 33.4062 435.483 34.2607 434.849 34.9932C434.214 35.7158 433.442 36.2822 432.534 36.6924C431.626 37.0928 430.596 37.293 429.443 37.293C428.281 37.293 427.241 37.0928 426.323 36.6924C425.415 36.2822 424.644 35.7158 424.009 34.9932C423.374 34.2607 422.891 33.4062 422.559 32.4297C422.227 31.4531 422.061 30.3936 422.061 29.251ZM425.591 28.9141V29.251C425.591 29.9639 425.664 30.6377 425.811 31.2725C425.957 31.9072 426.187 32.4639 426.499 32.9424C426.812 33.4209 427.212 33.7969 427.7 34.0703C428.188 34.3438 428.77 34.4805 429.443 34.4805C430.098 34.4805 430.664 34.3438 431.143 34.0703C431.631 33.7969 432.031 33.4209 432.344 32.9424C432.656 32.4639 432.886 31.9072 433.032 31.2725C433.188 30.6377 433.267 29.9639 433.267 29.251V28.9141C433.267 28.2109 433.188 27.5469 433.032 26.9219C432.886 26.2871 432.651 25.7256 432.329 25.2373C432.017 24.749 431.616 24.3682 431.128 24.0947C430.649 23.8115 430.078 23.6699 429.414 23.6699C428.75 23.6699 428.174 23.8115 427.686 24.0947C427.207 24.3682 426.812 24.749 426.499 25.2373C426.187 25.7256 425.957 26.2871 425.811 26.9219C425.664 27.5469 425.591 28.2109 425.591 28.9141ZM446.743 37.293C445.571 37.293 444.512 37.1025 443.564 36.7217C442.627 36.3311 441.826 35.7891 441.162 35.0957C440.508 34.4023 440.005 33.5869 439.653 32.6494C439.302 31.7119 439.126 30.7012 439.126 29.6172V29.0312C439.126 27.791 439.307 26.668 439.668 25.6621C440.029 24.6562 440.532 23.7969 441.177 23.084C441.821 22.3613 442.583 21.8096 443.462 21.4287C444.341 21.0479 445.293 20.8574 446.318 20.8574C447.451 20.8574 448.442 21.0479 449.292 21.4287C450.142 21.8096 450.845 22.3467 451.401 23.04C451.968 23.7236 452.388 24.5391 452.661 25.4863C452.944 26.4336 453.086 27.4785 453.086 28.6211V30.1299H440.84V27.5957H449.6V27.3174C449.58 26.6826 449.453 26.0869 449.219 25.5303C448.994 24.9736 448.647 24.5244 448.179 24.1826C447.71 23.8408 447.085 23.6699 446.304 23.6699C445.718 23.6699 445.195 23.7969 444.736 24.0508C444.287 24.2949 443.911 24.6514 443.608 25.1201C443.306 25.5889 443.071 26.1553 442.905 26.8193C442.749 27.4736 442.671 28.2109 442.671 29.0312V29.6172C442.671 30.3105 442.764 30.9551 442.949 31.5508C443.145 32.1367 443.428 32.6494 443.799 33.0889C444.17 33.5283 444.619 33.875 445.146 34.1289C445.674 34.373 446.274 34.4951 446.948 34.4951C447.798 34.4951 448.555 34.3242 449.219 33.9824C449.883 33.6406 450.459 33.1572 450.947 32.5322L452.808 34.334C452.466 34.832 452.021 35.3105 451.475 35.7695C450.928 36.2188 450.259 36.585 449.468 36.8682C448.687 37.1514 447.778 37.293 446.743 37.293ZM458.711 21.1504H462.241L462.065 26.7314C462.017 28.3525 461.831 29.7441 461.509 30.9062C461.187 32.0684 460.767 33.0498 460.249 33.8506C459.731 34.6416 459.146 35.291 458.491 35.7988C457.847 36.3066 457.168 36.707 456.455 37H455.415V34.2168L455.913 34.1875C456.333 33.7383 456.694 33.2891 456.997 32.8398C457.31 32.3809 457.573 31.8779 457.788 31.3311C458.003 30.7744 458.169 30.125 458.286 29.3828C458.413 28.6406 458.496 27.7568 458.535 26.7314L458.711 21.1504ZM459.648 21.1504H469.697V37H466.182V24.1387H459.648V21.1504ZM454.609 34.1875H471.865V41.7168H468.335V37H458.184V41.7168H454.595L454.609 34.1875ZM474.531 35.2422C474.531 34.6953 474.717 34.2363 475.088 33.8652C475.459 33.4844 475.962 33.2939 476.597 33.2939C477.241 33.2939 477.744 33.4844 478.105 33.8652C478.477 34.2363 478.662 34.6953 478.662 35.2422C478.662 35.7891 478.477 36.248 478.105 36.6191C477.744 36.9902 477.241 37.1758 476.597 37.1758C475.962 37.1758 475.459 36.9902 475.088 36.6191C474.717 36.248 474.531 35.7891 474.531 35.2422ZM489.341 30.7158H486.074C486.084 29.8076 486.162 29.0459 486.309 28.4307C486.455 27.8057 486.699 27.2393 487.041 26.7314C487.393 26.2236 487.856 25.6865 488.433 25.1201C488.882 24.6904 489.287 24.2852 489.648 23.9043C490.01 23.5137 490.298 23.1035 490.513 22.6738C490.728 22.2344 490.835 21.7314 490.835 21.165C490.835 20.5498 490.732 20.0273 490.527 19.5977C490.322 19.168 490.02 18.8408 489.619 18.6162C489.229 18.3916 488.74 18.2793 488.154 18.2793C487.666 18.2793 487.207 18.377 486.777 18.5723C486.348 18.7578 486.001 19.0508 485.737 19.4512C485.474 19.8418 485.332 20.3594 485.312 21.0039H481.782C481.802 19.7734 482.095 18.7383 482.661 17.8984C483.228 17.0586 483.989 16.4287 484.946 16.0088C485.903 15.5889 486.973 15.3789 488.154 15.3789C489.463 15.3789 490.581 15.6035 491.509 16.0527C492.437 16.4922 493.145 17.1367 493.633 17.9863C494.131 18.8262 494.38 19.8418 494.38 21.0332C494.38 21.8926 494.209 22.6738 493.867 23.377C493.525 24.0703 493.081 24.7197 492.534 25.3252C491.987 25.9209 491.396 26.5166 490.762 27.1123C490.215 27.6104 489.844 28.1523 489.648 28.7383C489.453 29.3145 489.351 29.9736 489.341 30.7158ZM485.781 35.2861C485.781 34.7588 485.962 34.3145 486.323 33.9531C486.685 33.582 487.178 33.3965 487.803 33.3965C488.428 33.3965 488.921 33.582 489.282 33.9531C489.644 34.3145 489.824 34.7588 489.824 35.2861C489.824 35.8135 489.644 36.2627 489.282 36.6338C488.921 36.9951 488.428 37.1758 487.803 37.1758C487.178 37.1758 486.685 36.9951 486.323 36.6338C485.962 36.2627 485.781 35.8135 485.781 35.2861Z" fill="black"/>
<path d="M551.124 15.6719H554.801V22.2783C554.801 23.2842 554.952 24.0752 555.255 24.6514C555.558 25.2178 556.017 25.6182 556.632 25.8525C557.257 26.0869 558.033 26.2041 558.961 26.2041C559.41 26.2041 559.884 26.1846 560.382 26.1455C560.88 26.1064 561.378 26.0527 561.876 25.9844C562.384 25.9062 562.872 25.8184 563.341 25.7207C563.81 25.6133 564.239 25.4961 564.63 25.3691V28.2842C564.249 28.4014 563.829 28.5137 563.37 28.6211C562.921 28.7285 562.452 28.8213 561.964 28.8994C561.476 28.9678 560.978 29.0215 560.47 29.0605C559.962 29.0996 559.459 29.1191 558.961 29.1191C557.35 29.1191 555.958 28.8896 554.786 28.4307C553.614 27.9619 552.711 27.2246 552.076 26.2188C551.441 25.2129 551.124 23.8994 551.124 22.2783V15.6719ZM563.795 15.6719H567.472V37H563.795V15.6719ZM578.883 21.1504V37H575.338V21.1504H578.883ZM584.083 21.1504V23.9336H570.226V21.1504H584.083ZM585.211 29.251V28.9141C585.211 27.7715 585.377 26.7119 585.709 25.7354C586.041 24.749 586.52 23.8945 587.145 23.1719C587.779 22.4395 588.551 21.873 589.459 21.4727C590.377 21.0625 591.412 20.8574 592.564 20.8574C593.727 20.8574 594.762 21.0625 595.67 21.4727C596.588 21.873 597.364 22.4395 597.999 23.1719C598.634 23.8945 599.117 24.749 599.449 25.7354C599.781 26.7119 599.947 27.7715 599.947 28.9141V29.251C599.947 30.3936 599.781 31.4531 599.449 32.4297C599.117 33.4062 598.634 34.2607 597.999 34.9932C597.364 35.7158 596.593 36.2822 595.685 36.6924C594.776 37.0928 593.746 37.293 592.594 37.293C591.432 37.293 590.392 37.0928 589.474 36.6924C588.565 36.2822 587.794 35.7158 587.159 34.9932C586.524 34.2607 586.041 33.4062 585.709 32.4297C585.377 31.4531 585.211 30.3936 585.211 29.251ZM588.741 28.9141V29.251C588.741 29.9639 588.814 30.6377 588.961 31.2725C589.107 31.9072 589.337 32.4639 589.649 32.9424C589.962 33.4209 590.362 33.7969 590.851 34.0703C591.339 34.3438 591.92 34.4805 592.594 34.4805C593.248 34.4805 593.814 34.3438 594.293 34.0703C594.781 33.7969 595.182 33.4209 595.494 32.9424C595.807 32.4639 596.036 31.9072 596.183 31.2725C596.339 30.6377 596.417 29.9639 596.417 29.251V28.9141C596.417 28.2109 596.339 27.5469 596.183 26.9219C596.036 26.2871 595.802 25.7256 595.479 25.2373C595.167 24.749 594.767 24.3682 594.278 24.0947C593.8 23.8115 593.229 23.6699 592.564 23.6699C591.9 23.6699 591.324 23.8115 590.836 24.0947C590.357 24.3682 589.962 24.749 589.649 25.2373C589.337 25.7256 589.107 26.2871 588.961 26.9219C588.814 27.5469 588.741 28.2109 588.741 28.9141ZM613.248 21.1504H616.778L616.603 26.7314C616.554 28.3525 616.368 29.7441 616.046 30.9062C615.724 32.0684 615.304 33.0498 614.786 33.8506C614.269 34.6416 613.683 35.291 613.028 35.7988C612.384 36.3066 611.705 36.707 610.992 37H609.952V34.2168L610.45 34.1875C610.87 33.7383 611.231 33.2891 611.534 32.8398C611.847 32.3809 612.11 31.8779 612.325 31.3311C612.54 30.7744 612.706 30.125 612.823 29.3828C612.95 28.6406 613.033 27.7568 613.072 26.7314L613.248 21.1504ZM614.186 21.1504H624.234V37H620.719V24.1387H614.186V21.1504ZM609.146 34.1875H626.402V41.7168H622.872V37H612.721V41.7168H609.132L609.146 34.1875ZM637.857 33.8213V26.2627C637.857 25.6963 637.755 25.208 637.55 24.7979C637.345 24.3877 637.032 24.0703 636.612 23.8457C636.202 23.6211 635.685 23.5088 635.06 23.5088C634.483 23.5088 633.985 23.6064 633.565 23.8018C633.146 23.9971 632.818 24.2607 632.584 24.5928C632.35 24.9248 632.232 25.3008 632.232 25.7207H628.717C628.717 25.0957 628.868 24.4902 629.171 23.9043C629.474 23.3184 629.913 22.7959 630.489 22.3369C631.065 21.8779 631.754 21.5166 632.555 21.2529C633.355 20.9893 634.254 20.8574 635.25 20.8574C636.441 20.8574 637.496 21.0576 638.414 21.458C639.342 21.8584 640.069 22.4639 640.597 23.2744C641.134 24.0752 641.402 25.0811 641.402 26.292V33.3379C641.402 34.0605 641.451 34.71 641.549 35.2861C641.656 35.8525 641.808 36.3457 642.003 36.7656V37H638.385C638.219 36.6191 638.087 36.1357 637.989 35.5498C637.901 34.9541 637.857 34.3779 637.857 33.8213ZM638.37 27.3613L638.399 29.5439H635.865C635.211 29.5439 634.635 29.6074 634.137 29.7344C633.639 29.8516 633.224 30.0273 632.892 30.2617C632.56 30.4961 632.311 30.7793 632.145 31.1113C631.979 31.4434 631.896 31.8193 631.896 32.2393C631.896 32.6592 631.993 33.0449 632.188 33.3965C632.384 33.7383 632.667 34.0068 633.038 34.2021C633.419 34.3975 633.878 34.4951 634.415 34.4951C635.138 34.4951 635.768 34.3486 636.305 34.0557C636.852 33.7529 637.281 33.3867 637.594 32.957C637.906 32.5176 638.072 32.1025 638.092 31.7119L639.234 33.2793C639.117 33.6797 638.917 34.1094 638.634 34.5684C638.351 35.0273 637.979 35.4668 637.521 35.8867C637.071 36.2969 636.529 36.6338 635.895 36.8975C635.27 37.1611 634.547 37.293 633.727 37.293C632.691 37.293 631.769 37.0879 630.958 36.6777C630.147 36.2578 629.513 35.6963 629.054 34.9932C628.595 34.2803 628.365 33.4746 628.365 32.5762C628.365 31.7363 628.521 30.9941 628.834 30.3496C629.156 29.6953 629.625 29.1484 630.24 28.709C630.865 28.2695 631.627 27.9375 632.525 27.7129C633.424 27.4785 634.449 27.3613 635.602 27.3613H638.37ZM652.081 37.293C650.909 37.293 649.85 37.1025 648.902 36.7217C647.965 36.3311 647.164 35.7891 646.5 35.0957C645.846 34.4023 645.343 33.5869 644.991 32.6494C644.64 31.7119 644.464 30.7012 644.464 29.6172V29.0312C644.464 27.791 644.645 26.668 645.006 25.6621C645.367 24.6562 645.87 23.7969 646.515 23.084C647.159 22.3613 647.921 21.8096 648.8 21.4287C649.679 21.0479 650.631 20.8574 651.656 20.8574C652.789 20.8574 653.78 21.0479 654.63 21.4287C655.479 21.8096 656.183 22.3467 656.739 23.04C657.306 23.7236 657.726 24.5391 657.999 25.4863C658.282 26.4336 658.424 27.4785 658.424 28.6211V30.1299H646.178V27.5957H654.938V27.3174C654.918 26.6826 654.791 26.0869 654.557 25.5303C654.332 24.9736 653.985 24.5244 653.517 24.1826C653.048 23.8408 652.423 23.6699 651.642 23.6699C651.056 23.6699 650.533 23.7969 650.074 24.0508C649.625 24.2949 649.249 24.6514 648.946 25.1201C648.644 25.5889 648.409 26.1553 648.243 26.8193C648.087 27.4736 648.009 28.2109 648.009 29.0312V29.6172C648.009 30.3105 648.102 30.9551 648.287 31.5508C648.482 32.1367 648.766 32.6494 649.137 33.0889C649.508 33.5283 649.957 33.875 650.484 34.1289C651.012 34.373 651.612 34.4951 652.286 34.4951C653.136 34.4951 653.893 34.3242 654.557 33.9824C655.221 33.6406 655.797 33.1572 656.285 32.5322L658.146 34.334C657.804 34.832 657.359 35.3105 656.812 35.7695C656.266 36.2188 655.597 36.585 654.806 36.8682C654.024 37.1514 653.116 37.293 652.081 37.293ZM646.178 16.9463C646.178 16.4678 646.344 16.0674 646.676 15.7451C647.008 15.4131 647.447 15.2471 647.994 15.2471C648.551 15.2471 648.995 15.4131 649.327 15.7451C649.659 16.0674 649.825 16.4678 649.825 16.9463C649.825 17.415 649.659 17.8154 649.327 18.1475C648.995 18.4697 648.551 18.6309 647.994 18.6309C647.447 18.6309 647.008 18.4697 646.676 18.1475C646.344 17.8154 646.178 17.415 646.178 16.9463ZM652.96 16.9609C652.96 16.4824 653.126 16.082 653.458 15.7598C653.79 15.4277 654.234 15.2617 654.791 15.2617C655.338 15.2617 655.777 15.4277 656.109 15.7598C656.451 16.082 656.622 16.4824 656.622 16.9609C656.622 17.4297 656.451 17.8301 656.109 18.1621C655.777 18.4844 655.338 18.6455 654.791 18.6455C654.234 18.6455 653.79 18.4844 653.458 18.1621C653.126 17.8301 652.96 17.4297 652.96 16.9609ZM668.355 21.1504V37H664.811V21.1504H668.355ZM673.556 21.1504V23.9336H659.698V21.1504H673.556ZM682.521 30.7158H679.254C679.264 29.8076 679.342 29.0459 679.488 28.4307C679.635 27.8057 679.879 27.2393 680.221 26.7314C680.572 26.2236 681.036 25.6865 681.612 25.1201C682.062 24.6904 682.467 24.2852 682.828 23.9043C683.189 23.5137 683.478 23.1035 683.692 22.6738C683.907 22.2344 684.015 21.7314 684.015 21.165C684.015 20.5498 683.912 20.0273 683.707 19.5977C683.502 19.168 683.199 18.8408 682.799 18.6162C682.408 18.3916 681.92 18.2793 681.334 18.2793C680.846 18.2793 680.387 18.377 679.957 18.5723C679.527 18.7578 679.181 19.0508 678.917 19.4512C678.653 19.8418 678.512 20.3594 678.492 21.0039H674.962C674.981 19.7734 675.274 18.7383 675.841 17.8984C676.407 17.0586 677.169 16.4287 678.126 16.0088C679.083 15.5889 680.152 15.3789 681.334 15.3789C682.643 15.3789 683.761 15.6035 684.688 16.0527C685.616 16.4922 686.324 17.1367 686.812 17.9863C687.311 18.8262 687.56 19.8418 687.56 21.0332C687.56 21.8926 687.389 22.6738 687.047 23.377C686.705 24.0703 686.261 24.7197 685.714 25.3252C685.167 25.9209 684.576 26.5166 683.941 27.1123C683.395 27.6104 683.023 28.1523 682.828 28.7383C682.633 29.3145 682.53 29.9736 682.521 30.7158ZM678.961 35.2861C678.961 34.7588 679.142 34.3145 679.503 33.9531C679.864 33.582 680.357 33.3965 680.982 33.3965C681.607 33.3965 682.101 33.582 682.462 33.9531C682.823 34.3145 683.004 34.7588 683.004 35.2861C683.004 35.8135 682.823 36.2627 682.462 36.6338C682.101 36.9951 681.607 37.1758 680.982 37.1758C680.357 37.1758 679.864 36.9951 679.503 36.6338C679.142 36.2627 678.961 35.8135 678.961 35.2861Z" fill="black"/>
<line x1="1" y1="52.5" x2="901" y2="52.5" stroke="black"/>
<line y1="120.5" x2="900" y2="120.5" stroke="black"/>
<path d="M253.75 66.4336V77H251.396V66.4336H253.75ZM260.645 66.4336L255.889 72.791H253.203L252.891 70.6621H254.854L257.705 66.4336H260.645ZM257.891 77L254.707 72.3906L256.562 71.0527L260.986 77H257.891ZM274.277 66.4336V68.3086H269.668V77H267.314V66.4336H274.277ZM282.354 66.4336V68.3086H277.197V66.4336H282.354ZM284.199 66.4336V77H281.846V66.4336H284.199ZM276.621 66.4336H278.945L278.662 71.6582C278.623 72.4329 278.545 73.1165 278.428 73.709C278.317 74.2949 278.167 74.7995 277.979 75.2227C277.79 75.6393 277.559 75.9779 277.285 76.2383C277.012 76.4987 276.693 76.6908 276.328 76.8145C275.964 76.9382 275.553 77 275.098 77H274.365L274.355 75.0664L274.727 75.0371C274.967 75.0176 275.176 74.9557 275.352 74.8516C275.527 74.7409 275.677 74.5846 275.801 74.3828C275.931 74.181 276.035 73.9206 276.113 73.6016C276.198 73.2826 276.263 72.9049 276.309 72.4688C276.361 72.0326 276.4 71.5247 276.426 70.9453L276.621 66.4336ZM292.656 74.8809V69.8418C292.656 69.4642 292.588 69.1387 292.451 68.8652C292.314 68.5918 292.106 68.3802 291.826 68.2305C291.553 68.0807 291.208 68.0059 290.791 68.0059C290.407 68.0059 290.075 68.071 289.795 68.2012C289.515 68.3314 289.297 68.5072 289.141 68.7285C288.984 68.9499 288.906 69.2005 288.906 69.4805H286.562C286.562 69.0638 286.663 68.6602 286.865 68.2695C287.067 67.8789 287.36 67.5306 287.744 67.2246C288.128 66.9186 288.587 66.6777 289.121 66.502C289.655 66.3262 290.254 66.2383 290.918 66.2383C291.712 66.2383 292.415 66.3717 293.027 66.6387C293.646 66.9056 294.131 67.3092 294.482 67.8496C294.84 68.3835 295.02 69.054 295.02 69.8613V74.5586C295.02 75.0404 295.052 75.4733 295.117 75.8574C295.189 76.235 295.29 76.5638 295.42 76.8438V77H293.008C292.897 76.7461 292.809 76.4238 292.744 76.0332C292.686 75.6361 292.656 75.252 292.656 74.8809ZM292.998 70.5742L293.018 72.0293H291.328C290.892 72.0293 290.508 72.0716 290.176 72.1562C289.844 72.2344 289.567 72.3516 289.346 72.5078C289.124 72.6641 288.958 72.8529 288.848 73.0742C288.737 73.2956 288.682 73.5462 288.682 73.8262C288.682 74.1061 288.747 74.3633 288.877 74.5977C289.007 74.8255 289.196 75.0046 289.443 75.1348C289.697 75.265 290.003 75.3301 290.361 75.3301C290.843 75.3301 291.263 75.2324 291.621 75.0371C291.986 74.8353 292.272 74.5911 292.48 74.3047C292.689 74.0117 292.799 73.735 292.812 73.4746L293.574 74.5195C293.496 74.7865 293.363 75.0729 293.174 75.3789C292.985 75.6849 292.738 75.9779 292.432 76.2578C292.132 76.5312 291.771 76.7559 291.348 76.9316C290.931 77.1074 290.449 77.1953 289.902 77.1953C289.212 77.1953 288.597 77.0586 288.057 76.7852C287.516 76.5052 287.093 76.1309 286.787 75.6621C286.481 75.1868 286.328 74.6497 286.328 74.0508C286.328 73.4909 286.432 72.9961 286.641 72.5664C286.855 72.1302 287.168 71.7656 287.578 71.4727C287.995 71.1797 288.503 70.9583 289.102 70.8086C289.701 70.6523 290.384 70.5742 291.152 70.5742H292.998ZM304.512 66.4336V68.3086H299.902V77H297.549V66.4336H304.512ZM255.762 105.195C255.026 105.195 254.359 105.072 253.76 104.824C253.167 104.57 252.656 104.215 252.227 103.76C251.803 103.304 251.478 102.764 251.25 102.139C251.022 101.514 250.908 100.83 250.908 100.088V99.6777C250.908 98.8184 251.035 98.0534 251.289 97.3828C251.543 96.7057 251.888 96.1328 252.324 95.6641C252.76 95.1953 253.255 94.8405 253.809 94.5996C254.362 94.3587 254.935 94.2383 255.527 94.2383C256.283 94.2383 256.934 94.3685 257.48 94.6289C258.034 94.8893 258.486 95.2539 258.838 95.7227C259.189 96.1849 259.45 96.7318 259.619 97.3633C259.788 97.9883 259.873 98.6719 259.873 99.4141V100.225H251.982V98.75H258.066V98.6133C258.04 98.1445 257.943 97.6888 257.773 97.2461C257.611 96.8034 257.35 96.4388 256.992 96.1523C256.634 95.8659 256.146 95.7227 255.527 95.7227C255.117 95.7227 254.74 95.8105 254.395 95.9863C254.049 96.1556 253.753 96.4095 253.506 96.748C253.258 97.0866 253.066 97.5 252.93 97.9883C252.793 98.4766 252.725 99.0397 252.725 99.6777V100.088C252.725 100.589 252.793 101.061 252.93 101.504C253.073 101.94 253.278 102.324 253.545 102.656C253.818 102.988 254.147 103.249 254.531 103.438C254.922 103.626 255.365 103.721 255.859 103.721C256.497 103.721 257.038 103.59 257.48 103.33C257.923 103.07 258.311 102.721 258.643 102.285L259.736 103.154C259.508 103.499 259.219 103.828 258.867 104.141C258.516 104.453 258.083 104.707 257.568 104.902C257.061 105.098 256.458 105.195 255.762 105.195ZM268.135 102.197C268.135 101.937 268.076 101.696 267.959 101.475C267.848 101.247 267.617 101.042 267.266 100.859C266.921 100.671 266.4 100.508 265.703 100.371C265.117 100.247 264.587 100.101 264.111 99.9316C263.643 99.7624 263.242 99.5573 262.91 99.3164C262.585 99.0755 262.334 98.7923 262.158 98.4668C261.982 98.1413 261.895 97.7604 261.895 97.3242C261.895 96.9076 261.986 96.5137 262.168 96.1426C262.357 95.7715 262.62 95.4427 262.959 95.1562C263.304 94.8698 263.717 94.6452 264.199 94.4824C264.681 94.3197 265.218 94.2383 265.811 94.2383C266.657 94.2383 267.38 94.388 267.979 94.6875C268.577 94.987 269.036 95.3874 269.355 95.8887C269.674 96.3835 269.834 96.9336 269.834 97.5391H268.027C268.027 97.2461 267.939 96.9629 267.764 96.6895C267.594 96.4095 267.344 96.1784 267.012 95.9961C266.686 95.8138 266.286 95.7227 265.811 95.7227C265.309 95.7227 264.902 95.8008 264.59 95.957C264.284 96.1068 264.059 96.2988 263.916 96.5332C263.779 96.7676 263.711 97.015 263.711 97.2754C263.711 97.4707 263.743 97.6465 263.809 97.8027C263.88 97.9525 264.004 98.0924 264.18 98.2227C264.355 98.3464 264.603 98.4635 264.922 98.5742C265.241 98.6849 265.648 98.7956 266.143 98.9062C267.008 99.1016 267.721 99.3359 268.281 99.6094C268.841 99.8828 269.258 100.218 269.531 100.615C269.805 101.012 269.941 101.494 269.941 102.061C269.941 102.523 269.844 102.946 269.648 103.33C269.46 103.714 269.183 104.046 268.818 104.326C268.46 104.6 268.031 104.814 267.529 104.971C267.035 105.12 266.478 105.195 265.859 105.195C264.928 105.195 264.141 105.029 263.496 104.697C262.852 104.365 262.363 103.936 262.031 103.408C261.699 102.881 261.533 102.324 261.533 101.738H263.35C263.376 102.233 263.519 102.627 263.779 102.92C264.04 103.206 264.359 103.411 264.736 103.535C265.114 103.652 265.488 103.711 265.859 103.711C266.354 103.711 266.768 103.646 267.1 103.516C267.438 103.385 267.695 103.206 267.871 102.979C268.047 102.751 268.135 102.49 268.135 102.197ZM276.543 103.711C276.973 103.711 277.37 103.623 277.734 103.447C278.099 103.271 278.398 103.031 278.633 102.725C278.867 102.412 279.001 102.057 279.033 101.66H280.752C280.719 102.285 280.508 102.868 280.117 103.408C279.733 103.942 279.229 104.375 278.604 104.707C277.979 105.033 277.292 105.195 276.543 105.195C275.749 105.195 275.055 105.055 274.463 104.775C273.877 104.495 273.389 104.111 272.998 103.623C272.614 103.135 272.324 102.575 272.129 101.943C271.94 101.305 271.846 100.632 271.846 99.9219V99.5117C271.846 98.8021 271.94 98.1315 272.129 97.5C272.324 96.862 272.614 96.2988 272.998 95.8105C273.389 95.3223 273.877 94.9382 274.463 94.6582C275.055 94.3783 275.749 94.2383 276.543 94.2383C277.37 94.2383 278.092 94.4076 278.711 94.7461C279.329 95.0781 279.814 95.5339 280.166 96.1133C280.524 96.6862 280.719 97.3372 280.752 98.0664H279.033C279.001 97.6302 278.877 97.2363 278.662 96.8848C278.454 96.5332 278.167 96.2533 277.803 96.0449C277.445 95.8301 277.025 95.7227 276.543 95.7227C275.99 95.7227 275.524 95.8333 275.146 96.0547C274.775 96.2695 274.479 96.5625 274.258 96.9336C274.043 97.2982 273.887 97.7051 273.789 98.1543C273.698 98.597 273.652 99.0495 273.652 99.5117V99.9219C273.652 100.384 273.698 100.84 273.789 101.289C273.88 101.738 274.033 102.145 274.248 102.51C274.469 102.874 274.766 103.167 275.137 103.389C275.514 103.604 275.983 103.711 276.543 103.711ZM289.014 103.193V97.7539C289.014 97.3372 288.929 96.9759 288.76 96.6699C288.597 96.3574 288.35 96.1165 288.018 95.9473C287.686 95.778 287.275 95.6934 286.787 95.6934C286.331 95.6934 285.931 95.7715 285.586 95.9277C285.247 96.084 284.98 96.2891 284.785 96.543C284.596 96.7969 284.502 97.0703 284.502 97.3633H282.695C282.695 96.9857 282.793 96.6113 282.988 96.2402C283.184 95.8691 283.464 95.5339 283.828 95.2344C284.199 94.9284 284.642 94.6875 285.156 94.5117C285.677 94.3294 286.257 94.2383 286.895 94.2383C287.663 94.2383 288.34 94.3685 288.926 94.6289C289.518 94.8893 289.98 95.2832 290.312 95.8105C290.651 96.3314 290.82 96.9857 290.82 97.7734V102.695C290.82 103.047 290.85 103.421 290.908 103.818C290.973 104.215 291.068 104.557 291.191 104.844V105H289.307C289.215 104.792 289.144 104.515 289.092 104.17C289.04 103.818 289.014 103.493 289.014 103.193ZM289.326 98.5938L289.346 99.8633H287.52C287.005 99.8633 286.546 99.9056 286.143 99.9902C285.739 100.068 285.4 100.189 285.127 100.352C284.854 100.514 284.645 100.719 284.502 100.967C284.359 101.208 284.287 101.491 284.287 101.816C284.287 102.148 284.362 102.451 284.512 102.725C284.661 102.998 284.886 103.216 285.186 103.379C285.492 103.535 285.866 103.613 286.309 103.613C286.862 103.613 287.35 103.496 287.773 103.262C288.197 103.027 288.532 102.741 288.779 102.402C289.033 102.064 289.17 101.735 289.189 101.416L289.961 102.285C289.915 102.559 289.792 102.861 289.59 103.193C289.388 103.525 289.118 103.844 288.779 104.15C288.447 104.45 288.05 104.701 287.588 104.902C287.132 105.098 286.618 105.195 286.045 105.195C285.329 105.195 284.701 105.055 284.16 104.775C283.626 104.495 283.21 104.121 282.91 103.652C282.617 103.177 282.471 102.646 282.471 102.061C282.471 101.494 282.581 100.996 282.803 100.566C283.024 100.13 283.343 99.7689 283.76 99.4824C284.176 99.1895 284.678 98.9681 285.264 98.8184C285.85 98.6686 286.504 98.5938 287.227 98.5938H289.326ZM295.469 96.4648V109.062H293.652V94.4336H295.312L295.469 96.4648ZM302.588 99.6289V99.834C302.588 100.602 302.497 101.315 302.314 101.973C302.132 102.624 301.865 103.19 301.514 103.672C301.169 104.154 300.742 104.528 300.234 104.795C299.727 105.062 299.144 105.195 298.486 105.195C297.816 105.195 297.223 105.085 296.709 104.863C296.195 104.642 295.758 104.32 295.4 103.896C295.042 103.473 294.756 102.965 294.541 102.373C294.333 101.781 294.189 101.113 294.111 100.371V99.2773C294.189 98.4961 294.336 97.7962 294.551 97.1777C294.766 96.5592 295.049 96.0319 295.4 95.5957C295.758 95.153 296.191 94.8177 296.699 94.5898C297.207 94.3555 297.793 94.2383 298.457 94.2383C299.121 94.2383 299.71 94.3685 300.225 94.6289C300.739 94.8828 301.172 95.2474 301.523 95.7227C301.875 96.1979 302.139 96.7676 302.314 97.4316C302.497 98.0892 302.588 98.8216 302.588 99.6289ZM300.771 99.834V99.6289C300.771 99.1016 300.716 98.6068 300.605 98.1445C300.495 97.6758 300.322 97.2656 300.088 96.9141C299.86 96.556 299.567 96.276 299.209 96.0742C298.851 95.8659 298.424 95.7617 297.93 95.7617C297.474 95.7617 297.077 95.8398 296.738 95.9961C296.406 96.1523 296.123 96.3639 295.889 96.6309C295.654 96.8913 295.462 97.1908 295.312 97.5293C295.169 97.8613 295.062 98.2064 294.99 98.5645V101.094C295.12 101.549 295.303 101.979 295.537 102.383C295.771 102.78 296.084 103.102 296.475 103.35C296.865 103.59 297.357 103.711 297.949 103.711C298.438 103.711 298.857 103.61 299.209 103.408C299.567 103.2 299.86 102.917 300.088 102.559C300.322 102.201 300.495 101.79 300.605 101.328C300.716 100.859 300.771 100.361 300.771 99.834ZM309.277 105.195C308.542 105.195 307.874 105.072 307.275 104.824C306.683 104.57 306.172 104.215 305.742 103.76C305.319 103.304 304.993 102.764 304.766 102.139C304.538 101.514 304.424 100.83 304.424 100.088V99.6777C304.424 98.8184 304.551 98.0534 304.805 97.3828C305.059 96.7057 305.404 96.1328 305.84 95.6641C306.276 95.1953 306.771 94.8405 307.324 94.5996C307.878 94.3587 308.451 94.2383 309.043 94.2383C309.798 94.2383 310.449 94.3685 310.996 94.6289C311.549 94.8893 312.002 95.2539 312.354 95.7227C312.705 96.1849 312.965 96.7318 313.135 97.3633C313.304 97.9883 313.389 98.6719 313.389 99.4141V100.225H305.498V98.75H311.582V98.6133C311.556 98.1445 311.458 97.6888 311.289 97.2461C311.126 96.8034 310.866 96.4388 310.508 96.1523C310.15 95.8659 309.661 95.7227 309.043 95.7227C308.633 95.7227 308.255 95.8105 307.91 95.9863C307.565 96.1556 307.269 96.4095 307.021 96.748C306.774 97.0866 306.582 97.5 306.445 97.9883C306.309 98.4766 306.24 99.0397 306.24 99.6777V100.088C306.24 100.589 306.309 101.061 306.445 101.504C306.589 101.94 306.794 102.324 307.061 102.656C307.334 102.988 307.663 103.249 308.047 103.438C308.438 103.626 308.88 103.721 309.375 103.721C310.013 103.721 310.553 103.59 310.996 103.33C311.439 103.07 311.826 102.721 312.158 102.285L313.252 103.154C313.024 103.499 312.734 103.828 312.383 104.141C312.031 104.453 311.598 104.707 311.084 104.902C310.576 105.098 309.974 105.195 309.277 105.195ZM324.219 98.2129V99.6973H319.453V98.2129H324.219ZM333.916 103.906L336.855 94.4336H338.789L334.551 106.631C334.453 106.891 334.323 107.171 334.16 107.471C334.004 107.777 333.802 108.066 333.555 108.34C333.307 108.613 333.008 108.835 332.656 109.004C332.311 109.18 331.898 109.268 331.416 109.268C331.273 109.268 331.09 109.248 330.869 109.209C330.648 109.17 330.492 109.137 330.4 109.111L330.391 107.646C330.443 107.653 330.524 107.66 330.635 107.666C330.752 107.679 330.833 107.686 330.879 107.686C331.289 107.686 331.637 107.63 331.924 107.52C332.21 107.415 332.451 107.236 332.646 106.982C332.848 106.735 333.021 106.393 333.164 105.957L333.916 103.906ZM331.758 94.4336L334.502 102.637L334.971 104.541L333.672 105.205L329.785 94.4336H331.758ZM347.197 89.834H348.682C348.682 90.472 348.584 90.9798 348.389 91.3574C348.193 91.7285 347.926 92.015 347.588 92.2168C347.256 92.4186 346.878 92.5716 346.455 92.6758C346.038 92.7799 345.605 92.8809 345.156 92.9785C344.596 93.0957 344.076 93.2812 343.594 93.5352C343.118 93.7826 342.708 94.1341 342.363 94.5898C342.025 95.0456 341.774 95.638 341.611 96.3672C341.455 97.0964 341.413 97.998 341.484 99.0723V99.9707H340V99.0723C340 97.8678 340.114 96.8164 340.342 95.918C340.576 95.0195 340.905 94.2611 341.328 93.6426C341.751 93.0241 342.253 92.5326 342.832 92.168C343.418 91.8034 344.062 91.5527 344.766 91.416C345.273 91.3184 345.71 91.2142 346.074 91.1035C346.439 90.9863 346.715 90.8301 346.904 90.6348C347.1 90.4395 347.197 90.1725 347.197 89.834ZM345.059 95.0391C345.749 95.0391 346.364 95.1595 346.904 95.4004C347.445 95.6413 347.904 95.9766 348.281 96.4062C348.659 96.8359 348.945 97.3438 349.141 97.9297C349.342 98.5091 349.443 99.1406 349.443 99.8242V100.039C349.443 100.775 349.336 101.458 349.121 102.09C348.913 102.715 348.604 103.262 348.193 103.73C347.79 104.193 347.295 104.554 346.709 104.814C346.13 105.075 345.469 105.205 344.727 105.205C343.984 105.205 343.32 105.075 342.734 104.814C342.155 104.554 341.66 104.193 341.25 103.73C340.84 103.262 340.527 102.715 340.312 102.09C340.104 101.458 340 100.775 340 100.039V99.8242C340 99.6615 340.029 99.502 340.088 99.3457C340.146 99.1895 340.218 99.0299 340.303 98.8672C340.394 98.7044 340.475 98.5319 340.547 98.3496C340.788 97.7637 341.117 97.2201 341.533 96.7188C341.956 96.2174 342.461 95.8138 343.047 95.5078C343.639 95.1953 344.31 95.0391 345.059 95.0391ZM344.707 96.5137C344.043 96.5137 343.496 96.6667 343.066 96.9727C342.643 97.2786 342.327 97.6855 342.119 98.1934C341.911 98.6947 341.807 99.2383 341.807 99.8242V100.039C341.807 100.534 341.865 101.003 341.982 101.445C342.1 101.888 342.275 102.282 342.51 102.627C342.751 102.965 343.053 103.232 343.418 103.428C343.789 103.623 344.225 103.721 344.727 103.721C345.228 103.721 345.661 103.623 346.025 103.428C346.39 103.232 346.689 102.965 346.924 102.627C347.158 102.282 347.334 101.888 347.451 101.445C347.568 101.003 347.627 100.534 347.627 100.039V99.8242C347.627 99.3815 347.568 98.9616 347.451 98.5645C347.334 98.1673 347.155 97.8158 346.914 97.5098C346.68 97.2038 346.377 96.9629 346.006 96.7871C345.641 96.6048 345.208 96.5137 344.707 96.5137ZM355.879 105.195C355.143 105.195 354.476 105.072 353.877 104.824C353.285 104.57 352.773 104.215 352.344 103.76C351.921 103.304 351.595 102.764 351.367 102.139C351.139 101.514 351.025 100.83 351.025 100.088V99.6777C351.025 98.8184 351.152 98.0534 351.406 97.3828C351.66 96.7057 352.005 96.1328 352.441 95.6641C352.878 95.1953 353.372 94.8405 353.926 94.5996C354.479 94.3587 355.052 94.2383 355.645 94.2383C356.4 94.2383 357.051 94.3685 357.598 94.6289C358.151 94.8893 358.604 95.2539 358.955 95.7227C359.307 96.1849 359.567 96.7318 359.736 97.3633C359.906 97.9883 359.99 98.6719 359.99 99.4141V100.225H352.1V98.75H358.184V98.6133C358.158 98.1445 358.06 97.6888 357.891 97.2461C357.728 96.8034 357.467 96.4388 357.109 96.1523C356.751 95.8659 356.263 95.7227 355.645 95.7227C355.234 95.7227 354.857 95.8105 354.512 95.9863C354.167 96.1556 353.87 96.4095 353.623 96.748C353.376 97.0866 353.184 97.5 353.047 97.9883C352.91 98.4766 352.842 99.0397 352.842 99.6777V100.088C352.842 100.589 352.91 101.061 353.047 101.504C353.19 101.94 353.395 102.324 353.662 102.656C353.936 102.988 354.264 103.249 354.648 103.438C355.039 103.626 355.482 103.721 355.977 103.721C356.615 103.721 357.155 103.59 357.598 103.33C358.04 103.07 358.428 102.721 358.76 102.285L359.854 103.154C359.626 103.499 359.336 103.828 358.984 104.141C358.633 104.453 358.2 104.707 357.686 104.902C357.178 105.098 356.576 105.195 355.879 105.195ZM368.926 94.4336V95.9277H364.043V105H362.236V94.4336H368.926ZM376.729 103.193V97.7539C376.729 97.3372 376.644 96.9759 376.475 96.6699C376.312 96.3574 376.064 96.1165 375.732 95.9473C375.4 95.778 374.99 95.6934 374.502 95.6934C374.046 95.6934 373.646 95.7715 373.301 95.9277C372.962 96.084 372.695 96.2891 372.5 96.543C372.311 96.7969 372.217 97.0703 372.217 97.3633H370.41C370.41 96.9857 370.508 96.6113 370.703 96.2402C370.898 95.8691 371.178 95.5339 371.543 95.2344C371.914 94.9284 372.357 94.6875 372.871 94.5117C373.392 94.3294 373.971 94.2383 374.609 94.2383C375.378 94.2383 376.055 94.3685 376.641 94.6289C377.233 94.8893 377.695 95.2832 378.027 95.8105C378.366 96.3314 378.535 96.9857 378.535 97.7734V102.695C378.535 103.047 378.564 103.421 378.623 103.818C378.688 104.215 378.783 104.557 378.906 104.844V105H377.021C376.93 104.792 376.859 104.515 376.807 104.17C376.755 103.818 376.729 103.493 376.729 103.193ZM377.041 98.5938L377.061 99.8633H375.234C374.72 99.8633 374.261 99.9056 373.857 99.9902C373.454 100.068 373.115 100.189 372.842 100.352C372.568 100.514 372.36 100.719 372.217 100.967C372.074 101.208 372.002 101.491 372.002 101.816C372.002 102.148 372.077 102.451 372.227 102.725C372.376 102.998 372.601 103.216 372.9 103.379C373.206 103.535 373.581 103.613 374.023 103.613C374.577 103.613 375.065 103.496 375.488 103.262C375.911 103.027 376.247 102.741 376.494 102.402C376.748 102.064 376.885 101.735 376.904 101.416L377.676 102.285C377.63 102.559 377.507 102.861 377.305 103.193C377.103 103.525 376.833 103.844 376.494 104.15C376.162 104.45 375.765 104.701 375.303 104.902C374.847 105.098 374.333 105.195 373.76 105.195C373.044 105.195 372.415 105.055 371.875 104.775C371.341 104.495 370.924 104.121 370.625 103.652C370.332 103.177 370.186 102.646 370.186 102.061C370.186 101.494 370.296 100.996 370.518 100.566C370.739 100.13 371.058 99.7689 371.475 99.4824C371.891 99.1895 372.393 98.9681 372.979 98.8184C373.564 98.6686 374.219 98.5938 374.941 98.5938H377.041ZM385.527 94.4336V105H383.711V94.4336H385.527ZM389.072 94.4336V95.8984H380.234V94.4336H389.072ZM392.334 98.0664H395.508C396.361 98.0664 397.08 98.2161 397.666 98.5156C398.252 98.8086 398.695 99.2155 398.994 99.7363C399.3 100.251 399.453 100.837 399.453 101.494C399.453 101.982 399.368 102.441 399.199 102.871C399.03 103.294 398.776 103.665 398.438 103.984C398.105 104.303 397.692 104.554 397.197 104.736C396.709 104.912 396.146 105 395.508 105H391.016V94.4336H392.822V103.516H395.508C396.029 103.516 396.445 103.421 396.758 103.232C397.07 103.044 397.295 102.799 397.432 102.5C397.568 102.201 397.637 101.888 397.637 101.562C397.637 101.243 397.568 100.931 397.432 100.625C397.295 100.319 397.07 100.065 396.758 99.8633C396.445 99.6549 396.029 99.5508 395.508 99.5508H392.334V98.0664Z" fill="black"/>
<path d="M554.527 75.3203C554.911 75.3203 555.257 75.2454 555.562 75.0957C555.875 74.9395 556.126 74.7246 556.314 74.4512C556.51 74.1777 556.617 73.862 556.637 73.5039H558.854C558.84 74.1875 558.639 74.8092 558.248 75.3691C557.857 75.929 557.34 76.375 556.695 76.707C556.051 77.0326 555.338 77.1953 554.557 77.1953C553.749 77.1953 553.046 77.0586 552.447 76.7852C551.848 76.5052 551.35 76.1211 550.953 75.6328C550.556 75.1445 550.257 74.5814 550.055 73.9434C549.859 73.3053 549.762 72.6217 549.762 71.8926V71.5508C549.762 70.8216 549.859 70.138 550.055 69.5C550.257 68.8555 550.556 68.2891 550.953 67.8008C551.35 67.3125 551.848 66.9316 552.447 66.6582C553.046 66.3783 553.746 66.2383 554.547 66.2383C555.393 66.2383 556.135 66.4076 556.773 66.7461C557.411 67.0781 557.913 67.5436 558.277 68.1426C558.648 68.735 558.84 69.4251 558.854 70.2129H556.637C556.617 69.8223 556.52 69.4707 556.344 69.1582C556.174 68.8392 555.934 68.5853 555.621 68.3965C555.315 68.2077 554.947 68.1133 554.518 68.1133C554.042 68.1133 553.648 68.2109 553.336 68.4062C553.023 68.5951 552.779 68.8555 552.604 69.1875C552.428 69.513 552.301 69.8809 552.223 70.291C552.151 70.6947 552.115 71.1146 552.115 71.5508V71.8926C552.115 72.3288 552.151 72.752 552.223 73.1621C552.294 73.5723 552.418 73.9401 552.594 74.2656C552.776 74.5846 553.023 74.8418 553.336 75.0371C553.648 75.2259 554.046 75.3203 554.527 75.3203ZM563.727 75.8477L566.598 66.4336H569.117L564.879 78.6113C564.781 78.8717 564.654 79.1549 564.498 79.4609C564.342 79.7669 564.137 80.0566 563.883 80.3301C563.635 80.61 563.326 80.8346 562.955 81.0039C562.584 81.1797 562.135 81.2676 561.607 81.2676C561.399 81.2676 561.197 81.248 561.002 81.209C560.813 81.1764 560.634 81.1406 560.465 81.1016L560.455 79.3047C560.52 79.3112 560.598 79.3177 560.689 79.3242C560.787 79.3307 560.865 79.334 560.924 79.334C561.314 79.334 561.64 79.2852 561.9 79.1875C562.161 79.0964 562.372 78.9466 562.535 78.7383C562.704 78.5299 562.848 78.25 562.965 77.8984L563.727 75.8477ZM562.105 66.4336L564.615 74.3438L565.035 76.8242L563.404 77.2441L559.566 66.4336H562.105ZM586.08 75.1348L585.895 80.1348H583.736V77H582.467V75.1348H586.08ZM570.475 66.4336H572.828V75.125H576.188V66.4336H578.551V75.125H581.9V66.4336H584.254V77H570.475V66.4336ZM554.762 105.195C554.026 105.195 553.359 105.072 552.76 104.824C552.167 104.57 551.656 104.215 551.227 103.76C550.803 103.304 550.478 102.764 550.25 102.139C550.022 101.514 549.908 100.83 549.908 100.088V99.6777C549.908 98.8184 550.035 98.0534 550.289 97.3828C550.543 96.7057 550.888 96.1328 551.324 95.6641C551.76 95.1953 552.255 94.8405 552.809 94.5996C553.362 94.3587 553.935 94.2383 554.527 94.2383C555.283 94.2383 555.934 94.3685 556.48 94.6289C557.034 94.8893 557.486 95.2539 557.838 95.7227C558.189 96.1849 558.45 96.7318 558.619 97.3633C558.788 97.9883 558.873 98.6719 558.873 99.4141V100.225H550.982V98.75H557.066V98.6133C557.04 98.1445 556.943 97.6888 556.773 97.2461C556.611 96.8034 556.35 96.4388 555.992 96.1523C555.634 95.8659 555.146 95.7227 554.527 95.7227C554.117 95.7227 553.74 95.8105 553.395 95.9863C553.049 96.1556 552.753 96.4095 552.506 96.748C552.258 97.0866 552.066 97.5 551.93 97.9883C551.793 98.4766 551.725 99.0397 551.725 99.6777V100.088C551.725 100.589 551.793 101.061 551.93 101.504C552.073 101.94 552.278 102.324 552.545 102.656C552.818 102.988 553.147 103.249 553.531 103.438C553.922 103.626 554.365 103.721 554.859 103.721C555.497 103.721 556.038 103.59 556.48 103.33C556.923 103.07 557.311 102.721 557.643 102.285L558.736 103.154C558.508 103.499 558.219 103.828 557.867 104.141C557.516 104.453 557.083 104.707 556.568 104.902C556.061 105.098 555.458 105.195 554.762 105.195ZM567.135 102.197C567.135 101.937 567.076 101.696 566.959 101.475C566.848 101.247 566.617 101.042 566.266 100.859C565.921 100.671 565.4 100.508 564.703 100.371C564.117 100.247 563.587 100.101 563.111 99.9316C562.643 99.7624 562.242 99.5573 561.91 99.3164C561.585 99.0755 561.334 98.7923 561.158 98.4668C560.982 98.1413 560.895 97.7604 560.895 97.3242C560.895 96.9076 560.986 96.5137 561.168 96.1426C561.357 95.7715 561.62 95.4427 561.959 95.1562C562.304 94.8698 562.717 94.6452 563.199 94.4824C563.681 94.3197 564.218 94.2383 564.811 94.2383C565.657 94.2383 566.38 94.388 566.979 94.6875C567.577 94.987 568.036 95.3874 568.355 95.8887C568.674 96.3835 568.834 96.9336 568.834 97.5391H567.027C567.027 97.2461 566.939 96.9629 566.764 96.6895C566.594 96.4095 566.344 96.1784 566.012 95.9961C565.686 95.8138 565.286 95.7227 564.811 95.7227C564.309 95.7227 563.902 95.8008 563.59 95.957C563.284 96.1068 563.059 96.2988 562.916 96.5332C562.779 96.7676 562.711 97.015 562.711 97.2754C562.711 97.4707 562.743 97.6465 562.809 97.8027C562.88 97.9525 563.004 98.0924 563.18 98.2227C563.355 98.3464 563.603 98.4635 563.922 98.5742C564.241 98.6849 564.648 98.7956 565.143 98.9062C566.008 99.1016 566.721 99.3359 567.281 99.6094C567.841 99.8828 568.258 100.218 568.531 100.615C568.805 101.012 568.941 101.494 568.941 102.061C568.941 102.523 568.844 102.946 568.648 103.33C568.46 103.714 568.183 104.046 567.818 104.326C567.46 104.6 567.031 104.814 566.529 104.971C566.035 105.12 565.478 105.195 564.859 105.195C563.928 105.195 563.141 105.029 562.496 104.697C561.852 104.365 561.363 103.936 561.031 103.408C560.699 102.881 560.533 102.324 560.533 101.738H562.35C562.376 102.233 562.519 102.627 562.779 102.92C563.04 103.206 563.359 103.411 563.736 103.535C564.114 103.652 564.488 103.711 564.859 103.711C565.354 103.711 565.768 103.646 566.1 103.516C566.438 103.385 566.695 103.206 566.871 102.979C567.047 102.751 567.135 102.49 567.135 102.197ZM575.543 103.711C575.973 103.711 576.37 103.623 576.734 103.447C577.099 103.271 577.398 103.031 577.633 102.725C577.867 102.412 578.001 102.057 578.033 101.66H579.752C579.719 102.285 579.508 102.868 579.117 103.408C578.733 103.942 578.229 104.375 577.604 104.707C576.979 105.033 576.292 105.195 575.543 105.195C574.749 105.195 574.055 105.055 573.463 104.775C572.877 104.495 572.389 104.111 571.998 103.623C571.614 103.135 571.324 102.575 571.129 101.943C570.94 101.305 570.846 100.632 570.846 99.9219V99.5117C570.846 98.8021 570.94 98.1315 571.129 97.5C571.324 96.862 571.614 96.2988 571.998 95.8105C572.389 95.3223 572.877 94.9382 573.463 94.6582C574.055 94.3783 574.749 94.2383 575.543 94.2383C576.37 94.2383 577.092 94.4076 577.711 94.7461C578.329 95.0781 578.814 95.5339 579.166 96.1133C579.524 96.6862 579.719 97.3372 579.752 98.0664H578.033C578.001 97.6302 577.877 97.2363 577.662 96.8848C577.454 96.5332 577.167 96.2533 576.803 96.0449C576.445 95.8301 576.025 95.7227 575.543 95.7227C574.99 95.7227 574.524 95.8333 574.146 96.0547C573.775 96.2695 573.479 96.5625 573.258 96.9336C573.043 97.2982 572.887 97.7051 572.789 98.1543C572.698 98.597 572.652 99.0495 572.652 99.5117V99.9219C572.652 100.384 572.698 100.84 572.789 101.289C572.88 101.738 573.033 102.145 573.248 102.51C573.469 102.874 573.766 103.167 574.137 103.389C574.514 103.604 574.983 103.711 575.543 103.711ZM588.014 103.193V97.7539C588.014 97.3372 587.929 96.9759 587.76 96.6699C587.597 96.3574 587.35 96.1165 587.018 95.9473C586.686 95.778 586.275 95.6934 585.787 95.6934C585.331 95.6934 584.931 95.7715 584.586 95.9277C584.247 96.084 583.98 96.2891 583.785 96.543C583.596 96.7969 583.502 97.0703 583.502 97.3633H581.695C581.695 96.9857 581.793 96.6113 581.988 96.2402C582.184 95.8691 582.464 95.5339 582.828 95.2344C583.199 94.9284 583.642 94.6875 584.156 94.5117C584.677 94.3294 585.257 94.2383 585.895 94.2383C586.663 94.2383 587.34 94.3685 587.926 94.6289C588.518 94.8893 588.98 95.2832 589.312 95.8105C589.651 96.3314 589.82 96.9857 589.82 97.7734V102.695C589.82 103.047 589.85 103.421 589.908 103.818C589.973 104.215 590.068 104.557 590.191 104.844V105H588.307C588.215 104.792 588.144 104.515 588.092 104.17C588.04 103.818 588.014 103.493 588.014 103.193ZM588.326 98.5938L588.346 99.8633H586.52C586.005 99.8633 585.546 99.9056 585.143 99.9902C584.739 100.068 584.4 100.189 584.127 100.352C583.854 100.514 583.645 100.719 583.502 100.967C583.359 101.208 583.287 101.491 583.287 101.816C583.287 102.148 583.362 102.451 583.512 102.725C583.661 102.998 583.886 103.216 584.186 103.379C584.492 103.535 584.866 103.613 585.309 103.613C585.862 103.613 586.35 103.496 586.773 103.262C587.197 103.027 587.532 102.741 587.779 102.402C588.033 102.064 588.17 101.735 588.189 101.416L588.961 102.285C588.915 102.559 588.792 102.861 588.59 103.193C588.388 103.525 588.118 103.844 587.779 104.15C587.447 104.45 587.05 104.701 586.588 104.902C586.132 105.098 585.618 105.195 585.045 105.195C584.329 105.195 583.701 105.055 583.16 104.775C582.626 104.495 582.21 104.121 581.91 103.652C581.617 103.177 581.471 102.646 581.471 102.061C581.471 101.494 581.581 100.996 581.803 100.566C582.024 100.13 582.343 99.7689 582.76 99.4824C583.176 99.1895 583.678 98.9681 584.264 98.8184C584.85 98.6686 585.504 98.5938 586.227 98.5938H588.326ZM594.469 96.4648V109.062H592.652V94.4336H594.312L594.469 96.4648ZM601.588 99.6289V99.834C601.588 100.602 601.497 101.315 601.314 101.973C601.132 102.624 600.865 103.19 600.514 103.672C600.169 104.154 599.742 104.528 599.234 104.795C598.727 105.062 598.144 105.195 597.486 105.195C596.816 105.195 596.223 105.085 595.709 104.863C595.195 104.642 594.758 104.32 594.4 103.896C594.042 103.473 593.756 102.965 593.541 102.373C593.333 101.781 593.189 101.113 593.111 100.371V99.2773C593.189 98.4961 593.336 97.7962 593.551 97.1777C593.766 96.5592 594.049 96.0319 594.4 95.5957C594.758 95.153 595.191 94.8177 595.699 94.5898C596.207 94.3555 596.793 94.2383 597.457 94.2383C598.121 94.2383 598.71 94.3685 599.225 94.6289C599.739 94.8828 600.172 95.2474 600.523 95.7227C600.875 96.1979 601.139 96.7676 601.314 97.4316C601.497 98.0892 601.588 98.8216 601.588 99.6289ZM599.771 99.834V99.6289C599.771 99.1016 599.716 98.6068 599.605 98.1445C599.495 97.6758 599.322 97.2656 599.088 96.9141C598.86 96.556 598.567 96.276 598.209 96.0742C597.851 95.8659 597.424 95.7617 596.93 95.7617C596.474 95.7617 596.077 95.8398 595.738 95.9961C595.406 96.1523 595.123 96.3639 594.889 96.6309C594.654 96.8913 594.462 97.1908 594.312 97.5293C594.169 97.8613 594.062 98.2064 593.99 98.5645V101.094C594.12 101.549 594.303 101.979 594.537 102.383C594.771 102.78 595.084 103.102 595.475 103.35C595.865 103.59 596.357 103.711 596.949 103.711C597.438 103.711 597.857 103.61 598.209 103.408C598.567 103.2 598.86 102.917 599.088 102.559C599.322 102.201 599.495 101.79 599.605 101.328C599.716 100.859 599.771 100.361 599.771 99.834ZM608.277 105.195C607.542 105.195 606.874 105.072 606.275 104.824C605.683 104.57 605.172 104.215 604.742 103.76C604.319 103.304 603.993 102.764 603.766 102.139C603.538 101.514 603.424 100.83 603.424 100.088V99.6777C603.424 98.8184 603.551 98.0534 603.805 97.3828C604.059 96.7057 604.404 96.1328 604.84 95.6641C605.276 95.1953 605.771 94.8405 606.324 94.5996C606.878 94.3587 607.451 94.2383 608.043 94.2383C608.798 94.2383 609.449 94.3685 609.996 94.6289C610.549 94.8893 611.002 95.2539 611.354 95.7227C611.705 96.1849 611.965 96.7318 612.135 97.3633C612.304 97.9883 612.389 98.6719 612.389 99.4141V100.225H604.498V98.75H610.582V98.6133C610.556 98.1445 610.458 97.6888 610.289 97.2461C610.126 96.8034 609.866 96.4388 609.508 96.1523C609.15 95.8659 608.661 95.7227 608.043 95.7227C607.633 95.7227 607.255 95.8105 606.91 95.9863C606.565 96.1556 606.269 96.4095 606.021 96.748C605.774 97.0866 605.582 97.5 605.445 97.9883C605.309 98.4766 605.24 99.0397 605.24 99.6777V100.088C605.24 100.589 605.309 101.061 605.445 101.504C605.589 101.94 605.794 102.324 606.061 102.656C606.334 102.988 606.663 103.249 607.047 103.438C607.438 103.626 607.88 103.721 608.375 103.721C609.013 103.721 609.553 103.59 609.996 103.33C610.439 103.07 610.826 102.721 611.158 102.285L612.252 103.154C612.024 103.499 611.734 103.828 611.383 104.141C611.031 104.453 610.598 104.707 610.084 104.902C609.576 105.098 608.974 105.195 608.277 105.195ZM618.229 88.75V90.2344H616.363V106.562H618.229V108.047H614.557V88.75H618.229ZM624.195 105.195C623.46 105.195 622.792 105.072 622.193 104.824C621.601 104.57 621.09 104.215 620.66 103.76C620.237 103.304 619.911 102.764 619.684 102.139C619.456 101.514 619.342 100.83 619.342 100.088V99.6777C619.342 98.8184 619.469 98.0534 619.723 97.3828C619.977 96.7057 620.322 96.1328 620.758 95.6641C621.194 95.1953 621.689 94.8405 622.242 94.5996C622.796 94.3587 623.368 94.2383 623.961 94.2383C624.716 94.2383 625.367 94.3685 625.914 94.6289C626.467 94.8893 626.92 95.2539 627.271 95.7227C627.623 96.1849 627.883 96.7318 628.053 97.3633C628.222 97.9883 628.307 98.6719 628.307 99.4141V100.225H620.416V98.75H626.5V98.6133C626.474 98.1445 626.376 97.6888 626.207 97.2461C626.044 96.8034 625.784 96.4388 625.426 96.1523C625.068 95.8659 624.579 95.7227 623.961 95.7227C623.551 95.7227 623.173 95.8105 622.828 95.9863C622.483 96.1556 622.187 96.4095 621.939 96.748C621.692 97.0866 621.5 97.5 621.363 97.9883C621.227 98.4766 621.158 99.0397 621.158 99.6777V100.088C621.158 100.589 621.227 101.061 621.363 101.504C621.507 101.94 621.712 102.324 621.979 102.656C622.252 102.988 622.581 103.249 622.965 103.438C623.355 103.626 623.798 103.721 624.293 103.721C624.931 103.721 625.471 103.59 625.914 103.33C626.357 103.07 626.744 102.721 627.076 102.285L628.17 103.154C627.942 103.499 627.652 103.828 627.301 104.141C626.949 104.453 626.516 104.707 626.002 104.902C625.494 105.098 624.892 105.195 624.195 105.195ZM629.137 90.2344V88.75H632.828V108.047H629.137V106.562H631.012V90.2344H629.137ZM644.449 98.2129V99.6973H639.684V98.2129H644.449ZM657.955 89.834H659.439C659.439 90.472 659.342 90.9798 659.146 91.3574C658.951 91.7285 658.684 92.015 658.346 92.2168C658.014 92.4186 657.636 92.5716 657.213 92.6758C656.796 92.7799 656.363 92.8809 655.914 92.9785C655.354 93.0957 654.833 93.2812 654.352 93.5352C653.876 93.7826 653.466 94.1341 653.121 94.5898C652.783 95.0456 652.532 95.638 652.369 96.3672C652.213 97.0964 652.171 97.998 652.242 99.0723V99.9707H650.758V99.0723C650.758 97.8678 650.872 96.8164 651.1 95.918C651.334 95.0195 651.663 94.2611 652.086 93.6426C652.509 93.0241 653.01 92.5326 653.59 92.168C654.176 91.8034 654.82 91.5527 655.523 91.416C656.031 91.3184 656.467 91.2142 656.832 91.1035C657.197 90.9863 657.473 90.8301 657.662 90.6348C657.857 90.4395 657.955 90.1725 657.955 89.834ZM655.816 95.0391C656.507 95.0391 657.122 95.1595 657.662 95.4004C658.202 95.6413 658.661 95.9766 659.039 96.4062C659.417 96.8359 659.703 97.3438 659.898 97.9297C660.1 98.5091 660.201 99.1406 660.201 99.8242V100.039C660.201 100.775 660.094 101.458 659.879 102.09C659.671 102.715 659.361 103.262 658.951 103.73C658.548 104.193 658.053 104.554 657.467 104.814C656.887 105.075 656.227 105.205 655.484 105.205C654.742 105.205 654.078 105.075 653.492 104.814C652.913 104.554 652.418 104.193 652.008 103.73C651.598 103.262 651.285 102.715 651.07 102.09C650.862 101.458 650.758 100.775 650.758 100.039V99.8242C650.758 99.6615 650.787 99.502 650.846 99.3457C650.904 99.1895 650.976 99.0299 651.061 98.8672C651.152 98.7044 651.233 98.5319 651.305 98.3496C651.546 97.7637 651.874 97.2201 652.291 96.7188C652.714 96.2174 653.219 95.8138 653.805 95.5078C654.397 95.1953 655.068 95.0391 655.816 95.0391ZM655.465 96.5137C654.801 96.5137 654.254 96.6667 653.824 96.9727C653.401 97.2786 653.085 97.6855 652.877 98.1934C652.669 98.6947 652.564 99.2383 652.564 99.8242V100.039C652.564 100.534 652.623 101.003 652.74 101.445C652.857 101.888 653.033 102.282 653.268 102.627C653.508 102.965 653.811 103.232 654.176 103.428C654.547 103.623 654.983 103.721 655.484 103.721C655.986 103.721 656.419 103.623 656.783 103.428C657.148 103.232 657.447 102.965 657.682 102.627C657.916 102.282 658.092 101.888 658.209 101.445C658.326 101.003 658.385 100.534 658.385 100.039V99.8242C658.385 99.3815 658.326 98.9616 658.209 98.5645C658.092 98.1673 657.913 97.8158 657.672 97.5098C657.438 97.2038 657.135 96.9629 656.764 96.7871C656.399 96.6048 655.966 96.5137 655.465 96.5137ZM666.637 105.195C665.901 105.195 665.234 105.072 664.635 104.824C664.042 104.57 663.531 104.215 663.102 103.76C662.678 103.304 662.353 102.764 662.125 102.139C661.897 101.514 661.783 100.83 661.783 100.088V99.6777C661.783 98.8184 661.91 98.0534 662.164 97.3828C662.418 96.7057 662.763 96.1328 663.199 95.6641C663.635 95.1953 664.13 94.8405 664.684 94.5996C665.237 94.3587 665.81 94.2383 666.402 94.2383C667.158 94.2383 667.809 94.3685 668.355 94.6289C668.909 94.8893 669.361 95.2539 669.713 95.7227C670.064 96.1849 670.325 96.7318 670.494 97.3633C670.663 97.9883 670.748 98.6719 670.748 99.4141V100.225H662.857V98.75H668.941V98.6133C668.915 98.1445 668.818 97.6888 668.648 97.2461C668.486 96.8034 668.225 96.4388 667.867 96.1523C667.509 95.8659 667.021 95.7227 666.402 95.7227C665.992 95.7227 665.615 95.8105 665.27 95.9863C664.924 96.1556 664.628 96.4095 664.381 96.748C664.133 97.0866 663.941 97.5 663.805 97.9883C663.668 98.4766 663.6 99.0397 663.6 99.6777V100.088C663.6 100.589 663.668 101.061 663.805 101.504C663.948 101.94 664.153 102.324 664.42 102.656C664.693 102.988 665.022 103.249 665.406 103.438C665.797 103.626 666.24 103.721 666.734 103.721C667.372 103.721 667.913 103.59 668.355 103.33C668.798 103.07 669.186 102.721 669.518 102.285L670.611 103.154C670.383 103.499 670.094 103.828 669.742 104.141C669.391 104.453 668.958 104.707 668.443 104.902C667.936 105.098 667.333 105.195 666.637 105.195ZM679.684 94.4336V95.9277H674.801V105H672.994V94.4336H679.684ZM687.926 94.4336V95.9277H682.818V94.4336H687.926ZM689.518 94.4336V105H687.711V94.4336H689.518ZM682.379 94.4336H684.195L683.922 99.5312C683.876 100.319 683.801 101.016 683.697 101.621C683.6 102.22 683.463 102.734 683.287 103.164C683.118 103.594 682.903 103.945 682.643 104.219C682.389 104.486 682.083 104.684 681.725 104.814C681.367 104.938 680.953 105 680.484 105H679.918V103.408L680.309 103.379C680.589 103.359 680.826 103.294 681.021 103.184C681.223 103.073 681.393 102.91 681.529 102.695C681.666 102.474 681.777 102.191 681.861 101.846C681.952 101.501 682.021 101.09 682.066 100.615C682.118 100.14 682.158 99.5866 682.184 98.9551L682.379 94.4336ZM696.812 105.195C696.077 105.195 695.41 105.072 694.811 104.824C694.218 104.57 693.707 104.215 693.277 103.76C692.854 103.304 692.529 102.764 692.301 102.139C692.073 101.514 691.959 100.83 691.959 100.088V99.6777C691.959 98.8184 692.086 98.0534 692.34 97.3828C692.594 96.7057 692.939 96.1328 693.375 95.6641C693.811 95.1953 694.306 94.8405 694.859 94.5996C695.413 94.3587 695.986 94.2383 696.578 94.2383C697.333 94.2383 697.984 94.3685 698.531 94.6289C699.085 94.8893 699.537 95.2539 699.889 95.7227C700.24 96.1849 700.501 96.7318 700.67 97.3633C700.839 97.9883 700.924 98.6719 700.924 99.4141V100.225H693.033V98.75H699.117V98.6133C699.091 98.1445 698.993 97.6888 698.824 97.2461C698.661 96.8034 698.401 96.4388 698.043 96.1523C697.685 95.8659 697.197 95.7227 696.578 95.7227C696.168 95.7227 695.79 95.8105 695.445 95.9863C695.1 96.1556 694.804 96.4095 694.557 96.748C694.309 97.0866 694.117 97.5 693.98 97.9883C693.844 98.4766 693.775 99.0397 693.775 99.6777V100.088C693.775 100.589 693.844 101.061 693.98 101.504C694.124 101.94 694.329 102.324 694.596 102.656C694.869 102.988 695.198 103.249 695.582 103.438C695.973 103.626 696.415 103.721 696.91 103.721C697.548 103.721 698.089 103.59 698.531 103.33C698.974 103.07 699.361 102.721 699.693 102.285L700.787 103.154C700.559 103.499 700.27 103.828 699.918 104.141C699.566 104.453 699.133 104.707 698.619 104.902C698.111 105.098 697.509 105.195 696.812 105.195ZM703.189 105V94.4336H704.996V103.516H709.859V94.4336H711.676V105H703.189ZM712.926 103.516L712.75 108.135H711.139V105H709.762V103.516H712.926Z" fill="black"/>
<path d="M38.1836 82.3623V86.0708H21.1279V82.3623H38.1836ZM31.6553 75.3896V93.5049H27.6733V75.3896H31.6553ZM58.4351 96.3418C57.0679 96.3418 55.8317 96.1196 54.7266 95.6753C53.6328 95.2196 52.6986 94.5872 51.9238 93.7783C51.1605 92.9694 50.5737 92.0181 50.1636 90.9243C49.7534 89.8306 49.5483 88.6514 49.5483 87.3867V86.7031C49.5483 85.2562 49.7591 83.946 50.1807 82.7725C50.6022 81.599 51.189 80.5964 51.9409 79.7646C52.6929 78.9215 53.5815 78.2778 54.6069 77.8335C55.6323 77.3892 56.7432 77.167 57.9395 77.167C59.2611 77.167 60.4175 77.3892 61.4087 77.8335C62.3999 78.2778 63.2202 78.9045 63.8696 79.7134C64.5304 80.5109 65.0203 81.4622 65.3394 82.5674C65.6698 83.6725 65.835 84.8916 65.835 86.2246V87.9849H51.5479V85.0283H61.7676V84.7036C61.7448 83.9631 61.5967 83.2681 61.3232 82.6187C61.0612 81.9692 60.6567 81.4451 60.1099 81.0464C59.563 80.6476 58.8338 80.4482 57.9224 80.4482C57.2388 80.4482 56.6292 80.5964 56.0938 80.8926C55.5697 81.1774 55.131 81.5933 54.7778 82.1401C54.4246 82.687 54.1512 83.3478 53.9575 84.1226C53.7752 84.8859 53.6841 85.7461 53.6841 86.7031V87.3867C53.6841 88.1956 53.7923 88.9476 54.0088 89.6426C54.2367 90.3262 54.5671 90.9243 55 91.437C55.4329 91.9497 55.957 92.3542 56.5723 92.6504C57.1875 92.9352 57.8882 93.0776 58.6743 93.0776C59.6655 93.0776 60.5485 92.8783 61.3232 92.4795C62.098 92.0807 62.7702 91.5168 63.3398 90.7876L65.5103 92.8896C65.1115 93.4707 64.5931 94.029 63.9551 94.5645C63.3171 95.0885 62.5366 95.5158 61.6138 95.8462C60.7023 96.1766 59.6427 96.3418 58.4351 96.3418Z" fill="black"/>
</g>
<defs>
<clipPath id="clip0_2716_1247">
<rect width="900" height="121" fill="white"/>
</clipPath>
</defs>
</svg>
