<svg width="900" height="121" viewBox="0 0 900 121" fill="none" xmlns="http://www.w3.org/2000/svg">
<g clip-path="url(#clip0_2713_798)">
<rect width="900" height="121" fill="white"/>
<line y1="0.5" x2="900" y2="0.5" stroke="black"/>
<line y1="120.5" x2="900" y2="120.5" stroke="black"/>
<line x1="0.5" x2="0.5" y2="121" stroke="black"/>
<line x1="899.5" y1="1" x2="899.5" y2="121" stroke="black"/>
<path d="M39.1748 25.75V26.9219C39.1748 28.5332 38.9648 29.9785 38.5449 31.2578C38.125 32.5371 37.5244 33.626 36.7432 34.5244C35.9717 35.4229 35.0439 36.1113 33.96 36.5898C32.876 37.0586 31.6748 37.293 30.3564 37.293C29.0479 37.293 27.8516 37.0586 26.7676 36.5898C25.6934 36.1113 24.7607 35.4229 23.9697 34.5244C23.1787 33.626 22.5635 32.5371 22.124 31.2578C21.6943 29.9785 21.4795 28.5332 21.4795 26.9219V25.75C21.4795 24.1387 21.6943 22.6982 22.124 21.4287C22.5537 20.1494 23.1592 19.0605 23.9404 18.1621C24.7314 17.2539 25.6641 16.5654 26.7383 16.0967C27.8223 15.6182 29.0186 15.3789 30.3271 15.3789C31.6455 15.3789 32.8467 15.6182 33.9307 16.0967C35.0146 16.5654 35.9473 17.2539 36.7285 18.1621C37.5098 19.0605 38.1104 20.1494 38.5303 21.4287C38.96 22.6982 39.1748 24.1387 39.1748 25.75ZM35.498 26.9219V25.7207C35.498 24.5293 35.3809 23.4795 35.1465 22.5713C34.9219 21.6533 34.585 20.8867 34.1357 20.2715C33.6963 19.6465 33.1543 19.1777 32.5098 18.8652C31.8652 18.543 31.1377 18.3818 30.3271 18.3818C29.5166 18.3818 28.7939 18.543 28.1592 18.8652C27.5244 19.1777 26.9824 19.6465 26.5332 20.2715C26.0938 20.8867 25.7568 21.6533 25.5225 22.5713C25.2881 23.4795 25.1709 24.5293 25.1709 25.7207V26.9219C25.1709 28.1133 25.2881 29.168 25.5225 30.0859C25.7568 31.0039 26.0986 31.7803 26.5479 32.415C27.0068 33.04 27.5537 33.5137 28.1885 33.8359C28.8232 34.1484 29.5459 34.3047 30.3564 34.3047C31.1768 34.3047 31.9043 34.1484 32.5391 33.8359C33.1738 33.5137 33.7109 33.04 34.1504 32.415C34.5898 31.7803 34.9219 31.0039 35.1465 30.0859C35.3809 29.168 35.498 28.1133 35.498 26.9219ZM46.3086 21.1504V37H42.7783V21.1504H46.3086ZM56.6504 21.1504L49.5166 30.6865H45.4883L45.0195 27.4932H47.9639L52.2412 21.1504H56.6504ZM52.5195 37L47.7441 30.0859L50.5273 28.0791L57.1631 37H52.5195ZM57.8809 29.251V28.9141C57.8809 27.7715 58.0469 26.7119 58.3789 25.7354C58.7109 24.749 59.1895 23.8945 59.8145 23.1719C60.4492 22.4395 61.2207 21.873 62.1289 21.4727C63.0469 21.0625 64.082 20.8574 65.2344 20.8574C66.3965 20.8574 67.4316 21.0625 68.3398 21.4727C69.2578 21.873 70.0342 22.4395 70.6689 23.1719C71.3037 23.8945 71.7871 24.749 72.1191 25.7354C72.4512 26.7119 72.6172 27.7715 72.6172 28.9141V29.251C72.6172 30.3936 72.4512 31.4531 72.1191 32.4297C71.7871 33.4062 71.3037 34.2607 70.6689 34.9932C70.0342 35.7158 69.2627 36.2822 68.3545 36.6924C67.4463 37.0928 66.416 37.293 65.2637 37.293C64.1016 37.293 63.0615 37.0928 62.1436 36.6924C61.2354 36.2822 60.4639 35.7158 59.8291 34.9932C59.1943 34.2607 58.7109 33.4062 58.3789 32.4297C58.0469 31.4531 57.8809 30.3936 57.8809 29.251ZM61.4111 28.9141V29.251C61.4111 29.9639 61.4844 30.6377 61.6309 31.2725C61.7773 31.9072 62.0068 32.4639 62.3193 32.9424C62.6318 33.4209 63.0322 33.7969 63.5205 34.0703C64.0088 34.3438 64.5898 34.4805 65.2637 34.4805C65.918 34.4805 66.4844 34.3438 66.9629 34.0703C67.4512 33.7969 67.8516 33.4209 68.1641 32.9424C68.4766 32.4639 68.7061 31.9072 68.8525 31.2725C69.0088 30.6377 69.0869 29.9639 69.0869 29.251V28.9141C69.0869 28.2109 69.0088 27.5469 68.8525 26.9219C68.7061 26.2871 68.4717 25.7256 68.1494 25.2373C67.8369 24.749 67.4365 24.3682 66.9482 24.0947C66.4697 23.8115 65.8984 23.6699 65.2344 23.6699C64.5703 23.6699 63.9941 23.8115 63.5059 24.0947C63.0273 24.3682 62.6318 24.749 62.3193 25.2373C62.0068 25.7256 61.7773 26.2871 61.6309 26.9219C61.4844 27.5469 61.4111 28.2109 61.4111 28.9141ZM86.4014 27.7715V30.5547H78.1982V27.7715H86.4014ZM79.2236 21.1504V37H75.6934V21.1504H79.2236ZM88.9502 21.1504V37H85.4199V21.1504H88.9502ZM105.444 21.1504V37H101.914V21.1504H105.444ZM103.95 28.167V30.9648C103.521 31.1504 103.037 31.3213 102.5 31.4775C101.973 31.624 101.416 31.7461 100.83 31.8438C100.244 31.9316 99.6533 31.9756 99.0576 31.9756C97.6611 31.9756 96.4551 31.7607 95.4395 31.3311C94.4336 30.9014 93.6572 30.2422 93.1104 29.3535C92.5732 28.4551 92.3047 27.3174 92.3047 25.9404V21.1357H95.8203V25.9404C95.8203 26.7314 95.9375 27.3613 96.1719 27.8301C96.416 28.2988 96.7773 28.6357 97.2559 28.8408C97.7344 29.0459 98.335 29.1484 99.0576 29.1484C99.6631 29.1484 100.234 29.1094 100.771 29.0312C101.309 28.9434 101.841 28.8262 102.368 28.6797C102.896 28.5332 103.423 28.3623 103.95 28.167ZM118.145 33.8213V26.2627C118.145 25.6963 118.042 25.208 117.837 24.7979C117.632 24.3877 117.319 24.0703 116.899 23.8457C116.489 23.6211 115.972 23.5088 115.347 23.5088C114.771 23.5088 114.272 23.6064 113.853 23.8018C113.433 23.9971 113.105 24.2607 112.871 24.5928C112.637 24.9248 112.52 25.3008 112.52 25.7207H109.004C109.004 25.0957 109.155 24.4902 109.458 23.9043C109.761 23.3184 110.2 22.7959 110.776 22.3369C111.353 21.8779 112.041 21.5166 112.842 21.2529C113.643 20.9893 114.541 20.8574 115.537 20.8574C116.729 20.8574 117.783 21.0576 118.701 21.458C119.629 21.8584 120.356 22.4639 120.884 23.2744C121.421 24.0752 121.689 25.0811 121.689 26.292V33.3379C121.689 34.0605 121.738 34.71 121.836 35.2861C121.943 35.8525 122.095 36.3457 122.29 36.7656V37H118.672C118.506 36.6191 118.374 36.1357 118.276 35.5498C118.188 34.9541 118.145 34.3779 118.145 33.8213ZM118.657 27.3613L118.687 29.5439H116.152C115.498 29.5439 114.922 29.6074 114.424 29.7344C113.926 29.8516 113.511 30.0273 113.179 30.2617C112.847 30.4961 112.598 30.7793 112.432 31.1113C112.266 31.4434 112.183 31.8193 112.183 32.2393C112.183 32.6592 112.28 33.0449 112.476 33.3965C112.671 33.7383 112.954 34.0068 113.325 34.2021C113.706 34.3975 114.165 34.4951 114.702 34.4951C115.425 34.4951 116.055 34.3486 116.592 34.0557C117.139 33.7529 117.568 33.3867 117.881 32.957C118.193 32.5176 118.359 32.1025 118.379 31.7119L119.521 33.2793C119.404 33.6797 119.204 34.1094 118.921 34.5684C118.638 35.0273 118.267 35.4668 117.808 35.8867C117.358 36.2969 116.816 36.6338 116.182 36.8975C115.557 37.1611 114.834 37.293 114.014 37.293C112.979 37.293 112.056 37.0879 111.245 36.6777C110.435 36.2578 109.8 35.6963 109.341 34.9932C108.882 34.2803 108.652 33.4746 108.652 32.5762C108.652 31.7363 108.809 30.9941 109.121 30.3496C109.443 29.6953 109.912 29.1484 110.527 28.709C111.152 28.2695 111.914 27.9375 112.812 27.7129C113.711 27.4785 114.736 27.3613 115.889 27.3613H118.657ZM136.206 27.7715V30.5547H128.003V27.7715H136.206ZM129.028 21.1504V37H125.498V21.1504H129.028ZM138.755 21.1504V37H135.225V21.1504H138.755ZM146.167 31.8438L152.393 21.1504H155.923V37H152.393V26.292L146.167 37H142.637V21.1504H146.167V31.8438ZM162.998 29.251H166.66L162.163 37H158.516L162.998 29.251ZM165.576 21.1504H172.373V37H168.857V23.9336H165.576C164.912 23.9336 164.365 24.0508 163.936 24.2852C163.506 24.5098 163.188 24.8076 162.983 25.1787C162.778 25.54 162.676 25.9111 162.676 26.292C162.676 26.6729 162.769 27.0391 162.954 27.3906C163.149 27.7422 163.447 28.0303 163.848 28.2549C164.258 28.4795 164.771 28.5918 165.386 28.5918H170.044V31.1699H165.386C164.409 31.1699 163.535 31.0479 162.764 30.8037C161.992 30.5498 161.338 30.2031 160.801 29.7637C160.264 29.3145 159.854 28.792 159.57 28.1963C159.287 27.5908 159.146 26.9316 159.146 26.2188C159.146 25.4863 159.292 24.8125 159.585 24.1973C159.878 23.582 160.298 23.0449 160.845 22.5859C161.401 22.127 162.075 21.7754 162.866 21.5312C163.667 21.2773 164.57 21.1504 165.576 21.1504Z" fill="black"/>
<path d="M255.903 15.6719V37H252.241V15.6719H255.903ZM268.735 15.6719L260.063 27.8301H254.863L254.365 24.6367H258.027L264.238 15.6719H268.735ZM264.985 37L258.086 27.2734L260.459 24.4463L269.395 37H264.985ZM291.353 21.1504V37H287.822V21.1504H291.353ZM289.858 28.167V30.9648C289.429 31.1504 288.945 31.3213 288.408 31.4775C287.881 31.624 287.324 31.7461 286.738 31.8438C286.152 31.9316 285.562 31.9756 284.966 31.9756C283.569 31.9756 282.363 31.7607 281.348 31.3311C280.342 30.9014 279.565 30.2422 279.019 29.3535C278.481 28.4551 278.213 27.3174 278.213 25.9404V21.1357H281.729V25.9404C281.729 26.7314 281.846 27.3613 282.08 27.8301C282.324 28.2988 282.686 28.6357 283.164 28.8408C283.643 29.0459 284.243 29.1484 284.966 29.1484C285.571 29.1484 286.143 29.1094 286.68 29.0312C287.217 28.9434 287.749 28.8262 288.276 28.6797C288.804 28.5332 289.331 28.3623 289.858 28.167ZM302.104 37.293C300.933 37.293 299.873 37.1025 298.926 36.7217C297.988 36.3311 297.188 35.7891 296.523 35.0957C295.869 34.4023 295.366 33.5869 295.015 32.6494C294.663 31.7119 294.487 30.7012 294.487 29.6172V29.0312C294.487 27.791 294.668 26.668 295.029 25.6621C295.391 24.6562 295.894 23.7969 296.538 23.084C297.183 22.3613 297.944 21.8096 298.823 21.4287C299.702 21.0479 300.654 20.8574 301.68 20.8574C302.812 20.8574 303.804 21.0479 304.653 21.4287C305.503 21.8096 306.206 22.3467 306.763 23.04C307.329 23.7236 307.749 24.5391 308.022 25.4863C308.306 26.4336 308.447 27.4785 308.447 28.6211V30.1299H296.201V27.5957H304.961V27.3174C304.941 26.6826 304.814 26.0869 304.58 25.5303C304.355 24.9736 304.009 24.5244 303.54 24.1826C303.071 23.8408 302.446 23.6699 301.665 23.6699C301.079 23.6699 300.557 23.7969 300.098 24.0508C299.648 24.2949 299.272 24.6514 298.97 25.1201C298.667 25.5889 298.433 26.1553 298.267 26.8193C298.11 27.4736 298.032 28.2109 298.032 29.0312V29.6172C298.032 30.3105 298.125 30.9551 298.311 31.5508C298.506 32.1367 298.789 32.6494 299.16 33.0889C299.531 33.5283 299.98 33.875 300.508 34.1289C301.035 34.373 301.636 34.4951 302.31 34.4951C303.159 34.4951 303.916 34.3242 304.58 33.9824C305.244 33.6406 305.82 33.1572 306.309 32.5322L308.169 34.334C307.827 34.832 307.383 35.3105 306.836 35.7695C306.289 36.2188 305.62 36.585 304.829 36.8682C304.048 37.1514 303.14 37.293 302.104 37.293ZM320.62 32.7227L325.337 21.1504H328.398L321.821 37H319.419L312.856 21.1504H315.918L320.62 32.7227ZM315.01 21.1504V37H311.479V21.1504H315.01ZM326.23 37V21.1504H329.775V37H326.23ZM338.33 35.2715L342.637 21.1504H346.416L340.059 39.417C339.912 39.8076 339.722 40.2324 339.487 40.6914C339.253 41.1504 338.945 41.585 338.564 41.9951C338.193 42.415 337.729 42.752 337.173 43.0059C336.616 43.2695 335.942 43.4014 335.151 43.4014C334.839 43.4014 334.536 43.3721 334.243 43.3135C333.96 43.2646 333.691 43.2109 333.438 43.1523L333.423 40.457C333.521 40.4668 333.638 40.4766 333.774 40.4863C333.921 40.4961 334.038 40.501 334.126 40.501C334.712 40.501 335.2 40.4277 335.591 40.2812C335.981 40.1445 336.299 39.9199 336.543 39.6074C336.797 39.2949 337.012 38.875 337.188 38.3477L338.33 35.2715ZM335.898 21.1504L339.663 33.0156L340.293 36.7363L337.847 37.3662L332.09 21.1504H335.898ZM366.543 21.1504V23.9629H358.721V21.1504H366.543ZM359.556 21.1504V37H356.025V21.1504H359.556ZM369.312 21.1504V37H365.767V21.1504H369.312ZM376.592 24.1973V43.0938H373.062V21.1504H376.313L376.592 24.1973ZM386.919 28.9287V29.2363C386.919 30.3887 386.782 31.458 386.509 32.4443C386.245 33.4209 385.85 34.2754 385.322 35.0078C384.805 35.7305 384.165 36.292 383.403 36.6924C382.642 37.0928 381.763 37.293 380.767 37.293C379.78 37.293 378.916 37.1123 378.174 36.751C377.441 36.3799 376.821 35.8574 376.313 35.1836C375.806 34.5098 375.396 33.7188 375.083 32.8105C374.78 31.8926 374.565 30.8867 374.438 29.793V28.6064C374.565 27.4443 374.78 26.3896 375.083 25.4424C375.396 24.4951 375.806 23.6797 376.313 22.9961C376.821 22.3125 377.441 21.7852 378.174 21.4141C378.906 21.043 379.761 20.8574 380.737 20.8574C381.733 20.8574 382.617 21.0527 383.389 21.4434C384.16 21.8242 384.81 22.3711 385.337 23.084C385.864 23.7871 386.26 24.6367 386.523 25.6328C386.787 26.6191 386.919 27.7178 386.919 28.9287ZM383.389 29.2363V28.9287C383.389 28.1963 383.32 27.5176 383.184 26.8926C383.047 26.2578 382.832 25.7012 382.539 25.2227C382.246 24.7441 381.87 24.373 381.411 24.1094C380.962 23.8359 380.42 23.6992 379.785 23.6992C379.16 23.6992 378.623 23.8066 378.174 24.0215C377.725 24.2266 377.349 24.5146 377.046 24.8857C376.743 25.2568 376.509 25.6914 376.343 26.1895C376.177 26.6777 376.06 27.21 375.991 27.7861V30.6279C376.108 31.3311 376.309 31.9756 376.592 32.5615C376.875 33.1475 377.275 33.6162 377.793 33.9678C378.32 34.3096 378.994 34.4805 379.814 34.4805C380.449 34.4805 380.991 34.3438 381.44 34.0703C381.89 33.7969 382.256 33.4209 382.539 32.9424C382.832 32.4541 383.047 31.8926 383.184 31.2578C383.32 30.623 383.389 29.9492 383.389 29.2363ZM393.569 31.8438L399.795 21.1504H403.325V37H399.795V26.292L393.569 37H390.039V21.1504H393.569V31.8438ZM413.535 34.4805C414.111 34.4805 414.629 34.3682 415.088 34.1436C415.557 33.9092 415.933 33.5869 416.216 33.1768C416.509 32.7666 416.67 32.293 416.699 31.7559H420.024C420.005 32.7812 419.702 33.7139 419.116 34.5537C418.53 35.3936 417.754 36.0625 416.787 36.5605C415.82 37.0488 414.751 37.293 413.579 37.293C412.368 37.293 411.313 37.0879 410.415 36.6777C409.517 36.2578 408.77 35.6816 408.174 34.9492C407.578 34.2168 407.129 33.3721 406.826 32.415C406.533 31.458 406.387 30.4326 406.387 29.3389V28.8262C406.387 27.7324 406.533 26.707 406.826 25.75C407.129 24.7832 407.578 23.9336 408.174 23.2012C408.77 22.4688 409.517 21.8975 410.415 21.4873C411.313 21.0674 412.363 20.8574 413.564 20.8574C414.834 20.8574 415.947 21.1113 416.904 21.6191C417.861 22.1172 418.613 22.8154 419.16 23.7139C419.717 24.6025 420.005 25.6377 420.024 26.8193H416.699C416.67 26.2334 416.523 25.7061 416.26 25.2373C416.006 24.7588 415.645 24.3779 415.176 24.0947C414.717 23.8115 414.165 23.6699 413.521 23.6699C412.808 23.6699 412.217 23.8164 411.748 24.1094C411.279 24.3926 410.913 24.7832 410.649 25.2812C410.386 25.7695 410.195 26.3213 410.078 26.9365C409.971 27.542 409.917 28.1719 409.917 28.8262V29.3389C409.917 29.9932 409.971 30.6279 410.078 31.2432C410.186 31.8584 410.371 32.4102 410.635 32.8984C410.908 33.377 411.279 33.7627 411.748 34.0557C412.217 34.3389 412.812 34.4805 413.535 34.4805ZM422.061 29.251V28.9141C422.061 27.7715 422.227 26.7119 422.559 25.7354C422.891 24.749 423.369 23.8945 423.994 23.1719C424.629 22.4395 425.4 21.873 426.309 21.4727C427.227 21.0625 428.262 20.8574 429.414 20.8574C430.576 20.8574 431.611 21.0625 432.52 21.4727C433.438 21.873 434.214 22.4395 434.849 23.1719C435.483 23.8945 435.967 24.749 436.299 25.7354C436.631 26.7119 436.797 27.7715 436.797 28.9141V29.251C436.797 30.3936 436.631 31.4531 436.299 32.4297C435.967 33.4062 435.483 34.2607 434.849 34.9932C434.214 35.7158 433.442 36.2822 432.534 36.6924C431.626 37.0928 430.596 37.293 429.443 37.293C428.281 37.293 427.241 37.0928 426.323 36.6924C425.415 36.2822 424.644 35.7158 424.009 34.9932C423.374 34.2607 422.891 33.4062 422.559 32.4297C422.227 31.4531 422.061 30.3936 422.061 29.251ZM425.591 28.9141V29.251C425.591 29.9639 425.664 30.6377 425.811 31.2725C425.957 31.9072 426.187 32.4639 426.499 32.9424C426.812 33.4209 427.212 33.7969 427.7 34.0703C428.188 34.3438 428.77 34.4805 429.443 34.4805C430.098 34.4805 430.664 34.3438 431.143 34.0703C431.631 33.7969 432.031 33.4209 432.344 32.9424C432.656 32.4639 432.886 31.9072 433.032 31.2725C433.188 30.6377 433.267 29.9639 433.267 29.251V28.9141C433.267 28.2109 433.188 27.5469 433.032 26.9219C432.886 26.2871 432.651 25.7256 432.329 25.2373C432.017 24.749 431.616 24.3682 431.128 24.0947C430.649 23.8115 430.078 23.6699 429.414 23.6699C428.75 23.6699 428.174 23.8115 427.686 24.0947C427.207 24.3682 426.812 24.749 426.499 25.2373C426.187 25.7256 425.957 26.2871 425.811 26.9219C425.664 27.5469 425.591 28.2109 425.591 28.9141ZM446.743 37.293C445.571 37.293 444.512 37.1025 443.564 36.7217C442.627 36.3311 441.826 35.7891 441.162 35.0957C440.508 34.4023 440.005 33.5869 439.653 32.6494C439.302 31.7119 439.126 30.7012 439.126 29.6172V29.0312C439.126 27.791 439.307 26.668 439.668 25.6621C440.029 24.6562 440.532 23.7969 441.177 23.084C441.821 22.3613 442.583 21.8096 443.462 21.4287C444.341 21.0479 445.293 20.8574 446.318 20.8574C447.451 20.8574 448.442 21.0479 449.292 21.4287C450.142 21.8096 450.845 22.3467 451.401 23.04C451.968 23.7236 452.388 24.5391 452.661 25.4863C452.944 26.4336 453.086 27.4785 453.086 28.6211V30.1299H440.84V27.5957H449.6V27.3174C449.58 26.6826 449.453 26.0869 449.219 25.5303C448.994 24.9736 448.647 24.5244 448.179 24.1826C447.71 23.8408 447.085 23.6699 446.304 23.6699C445.718 23.6699 445.195 23.7969 444.736 24.0508C444.287 24.2949 443.911 24.6514 443.608 25.1201C443.306 25.5889 443.071 26.1553 442.905 26.8193C442.749 27.4736 442.671 28.2109 442.671 29.0312V29.6172C442.671 30.3105 442.764 30.9551 442.949 31.5508C443.145 32.1367 443.428 32.6494 443.799 33.0889C444.17 33.5283 444.619 33.875 445.146 34.1289C445.674 34.373 446.274 34.4951 446.948 34.4951C447.798 34.4951 448.555 34.3242 449.219 33.9824C449.883 33.6406 450.459 33.1572 450.947 32.5322L452.808 34.334C452.466 34.832 452.021 35.3105 451.475 35.7695C450.928 36.2188 450.259 36.585 449.468 36.8682C448.687 37.1514 447.778 37.293 446.743 37.293ZM458.711 21.1504H462.241L462.065 26.7314C462.017 28.3525 461.831 29.7441 461.509 30.9062C461.187 32.0684 460.767 33.0498 460.249 33.8506C459.731 34.6416 459.146 35.291 458.491 35.7988C457.847 36.3066 457.168 36.707 456.455 37H455.415V34.2168L455.913 34.1875C456.333 33.7383 456.694 33.2891 456.997 32.8398C457.31 32.3809 457.573 31.8779 457.788 31.3311C458.003 30.7744 458.169 30.125 458.286 29.3828C458.413 28.6406 458.496 27.7568 458.535 26.7314L458.711 21.1504ZM459.648 21.1504H469.697V37H466.182V24.1387H459.648V21.1504ZM454.609 34.1875H471.865V41.7168H468.335V37H458.184V41.7168H454.595L454.609 34.1875ZM474.531 35.2422C474.531 34.6953 474.717 34.2363 475.088 33.8652C475.459 33.4844 475.962 33.2939 476.597 33.2939C477.241 33.2939 477.744 33.4844 478.105 33.8652C478.477 34.2363 478.662 34.6953 478.662 35.2422C478.662 35.7891 478.477 36.248 478.105 36.6191C477.744 36.9902 477.241 37.1758 476.597 37.1758C475.962 37.1758 475.459 36.9902 475.088 36.6191C474.717 36.248 474.531 35.7891 474.531 35.2422ZM489.341 30.7158H486.074C486.084 29.8076 486.162 29.0459 486.309 28.4307C486.455 27.8057 486.699 27.2393 487.041 26.7314C487.393 26.2236 487.856 25.6865 488.433 25.1201C488.882 24.6904 489.287 24.2852 489.648 23.9043C490.01 23.5137 490.298 23.1035 490.513 22.6738C490.728 22.2344 490.835 21.7314 490.835 21.165C490.835 20.5498 490.732 20.0273 490.527 19.5977C490.322 19.168 490.02 18.8408 489.619 18.6162C489.229 18.3916 488.74 18.2793 488.154 18.2793C487.666 18.2793 487.207 18.377 486.777 18.5723C486.348 18.7578 486.001 19.0508 485.737 19.4512C485.474 19.8418 485.332 20.3594 485.312 21.0039H481.782C481.802 19.7734 482.095 18.7383 482.661 17.8984C483.228 17.0586 483.989 16.4287 484.946 16.0088C485.903 15.5889 486.973 15.3789 488.154 15.3789C489.463 15.3789 490.581 15.6035 491.509 16.0527C492.437 16.4922 493.145 17.1367 493.633 17.9863C494.131 18.8262 494.38 19.8418 494.38 21.0332C494.38 21.8926 494.209 22.6738 493.867 23.377C493.525 24.0703 493.081 24.7197 492.534 25.3252C491.987 25.9209 491.396 26.5166 490.762 27.1123C490.215 27.6104 489.844 28.1523 489.648 28.7383C489.453 29.3145 489.351 29.9736 489.341 30.7158ZM485.781 35.2861C485.781 34.7588 485.962 34.3145 486.323 33.9531C486.685 33.582 487.178 33.3965 487.803 33.3965C488.428 33.3965 488.921 33.582 489.282 33.9531C489.644 34.3145 489.824 34.7588 489.824 35.2861C489.824 35.8135 489.644 36.2627 489.282 36.6338C488.921 36.9951 488.428 37.1758 487.803 37.1758C487.178 37.1758 486.685 36.9951 486.323 36.6338C485.962 36.2627 485.781 35.8135 485.781 35.2861Z" fill="black"/>
<path d="M551.124 15.6719H554.801V22.2783C554.801 23.2842 554.952 24.0752 555.255 24.6514C555.558 25.2178 556.017 25.6182 556.632 25.8525C557.257 26.0869 558.033 26.2041 558.961 26.2041C559.41 26.2041 559.884 26.1846 560.382 26.1455C560.88 26.1064 561.378 26.0527 561.876 25.9844C562.384 25.9062 562.872 25.8184 563.341 25.7207C563.81 25.6133 564.239 25.4961 564.63 25.3691V28.2842C564.249 28.4014 563.829 28.5137 563.37 28.6211C562.921 28.7285 562.452 28.8213 561.964 28.8994C561.476 28.9678 560.978 29.0215 560.47 29.0605C559.962 29.0996 559.459 29.1191 558.961 29.1191C557.35 29.1191 555.958 28.8896 554.786 28.4307C553.614 27.9619 552.711 27.2246 552.076 26.2188C551.441 25.2129 551.124 23.8994 551.124 22.2783V15.6719ZM563.795 15.6719H567.472V37H563.795V15.6719ZM578.883 21.1504V37H575.338V21.1504H578.883ZM584.083 21.1504V23.9336H570.226V21.1504H584.083ZM585.211 29.251V28.9141C585.211 27.7715 585.377 26.7119 585.709 25.7354C586.041 24.749 586.52 23.8945 587.145 23.1719C587.779 22.4395 588.551 21.873 589.459 21.4727C590.377 21.0625 591.412 20.8574 592.564 20.8574C593.727 20.8574 594.762 21.0625 595.67 21.4727C596.588 21.873 597.364 22.4395 597.999 23.1719C598.634 23.8945 599.117 24.749 599.449 25.7354C599.781 26.7119 599.947 27.7715 599.947 28.9141V29.251C599.947 30.3936 599.781 31.4531 599.449 32.4297C599.117 33.4062 598.634 34.2607 597.999 34.9932C597.364 35.7158 596.593 36.2822 595.685 36.6924C594.776 37.0928 593.746 37.293 592.594 37.293C591.432 37.293 590.392 37.0928 589.474 36.6924C588.565 36.2822 587.794 35.7158 587.159 34.9932C586.524 34.2607 586.041 33.4062 585.709 32.4297C585.377 31.4531 585.211 30.3936 585.211 29.251ZM588.741 28.9141V29.251C588.741 29.9639 588.814 30.6377 588.961 31.2725C589.107 31.9072 589.337 32.4639 589.649 32.9424C589.962 33.4209 590.362 33.7969 590.851 34.0703C591.339 34.3438 591.92 34.4805 592.594 34.4805C593.248 34.4805 593.814 34.3438 594.293 34.0703C594.781 33.7969 595.182 33.4209 595.494 32.9424C595.807 32.4639 596.036 31.9072 596.183 31.2725C596.339 30.6377 596.417 29.9639 596.417 29.251V28.9141C596.417 28.2109 596.339 27.5469 596.183 26.9219C596.036 26.2871 595.802 25.7256 595.479 25.2373C595.167 24.749 594.767 24.3682 594.278 24.0947C593.8 23.8115 593.229 23.6699 592.564 23.6699C591.9 23.6699 591.324 23.8115 590.836 24.0947C590.357 24.3682 589.962 24.749 589.649 25.2373C589.337 25.7256 589.107 26.2871 588.961 26.9219C588.814 27.5469 588.741 28.2109 588.741 28.9141ZM613.248 21.1504H616.778L616.603 26.7314C616.554 28.3525 616.368 29.7441 616.046 30.9062C615.724 32.0684 615.304 33.0498 614.786 33.8506C614.269 34.6416 613.683 35.291 613.028 35.7988C612.384 36.3066 611.705 36.707 610.992 37H609.952V34.2168L610.45 34.1875C610.87 33.7383 611.231 33.2891 611.534 32.8398C611.847 32.3809 612.11 31.8779 612.325 31.3311C612.54 30.7744 612.706 30.125 612.823 29.3828C612.95 28.6406 613.033 27.7568 613.072 26.7314L613.248 21.1504ZM614.186 21.1504H624.234V37H620.719V24.1387H614.186V21.1504ZM609.146 34.1875H626.402V41.7168H622.872V37H612.721V41.7168H609.132L609.146 34.1875ZM637.857 33.8213V26.2627C637.857 25.6963 637.755 25.208 637.55 24.7979C637.345 24.3877 637.032 24.0703 636.612 23.8457C636.202 23.6211 635.685 23.5088 635.06 23.5088C634.483 23.5088 633.985 23.6064 633.565 23.8018C633.146 23.9971 632.818 24.2607 632.584 24.5928C632.35 24.9248 632.232 25.3008 632.232 25.7207H628.717C628.717 25.0957 628.868 24.4902 629.171 23.9043C629.474 23.3184 629.913 22.7959 630.489 22.3369C631.065 21.8779 631.754 21.5166 632.555 21.2529C633.355 20.9893 634.254 20.8574 635.25 20.8574C636.441 20.8574 637.496 21.0576 638.414 21.458C639.342 21.8584 640.069 22.4639 640.597 23.2744C641.134 24.0752 641.402 25.0811 641.402 26.292V33.3379C641.402 34.0605 641.451 34.71 641.549 35.2861C641.656 35.8525 641.808 36.3457 642.003 36.7656V37H638.385C638.219 36.6191 638.087 36.1357 637.989 35.5498C637.901 34.9541 637.857 34.3779 637.857 33.8213ZM638.37 27.3613L638.399 29.5439H635.865C635.211 29.5439 634.635 29.6074 634.137 29.7344C633.639 29.8516 633.224 30.0273 632.892 30.2617C632.56 30.4961 632.311 30.7793 632.145 31.1113C631.979 31.4434 631.896 31.8193 631.896 32.2393C631.896 32.6592 631.993 33.0449 632.188 33.3965C632.384 33.7383 632.667 34.0068 633.038 34.2021C633.419 34.3975 633.878 34.4951 634.415 34.4951C635.138 34.4951 635.768 34.3486 636.305 34.0557C636.852 33.7529 637.281 33.3867 637.594 32.957C637.906 32.5176 638.072 32.1025 638.092 31.7119L639.234 33.2793C639.117 33.6797 638.917 34.1094 638.634 34.5684C638.351 35.0273 637.979 35.4668 637.521 35.8867C637.071 36.2969 636.529 36.6338 635.895 36.8975C635.27 37.1611 634.547 37.293 633.727 37.293C632.691 37.293 631.769 37.0879 630.958 36.6777C630.147 36.2578 629.513 35.6963 629.054 34.9932C628.595 34.2803 628.365 33.4746 628.365 32.5762C628.365 31.7363 628.521 30.9941 628.834 30.3496C629.156 29.6953 629.625 29.1484 630.24 28.709C630.865 28.2695 631.627 27.9375 632.525 27.7129C633.424 27.4785 634.449 27.3613 635.602 27.3613H638.37ZM652.081 37.293C650.909 37.293 649.85 37.1025 648.902 36.7217C647.965 36.3311 647.164 35.7891 646.5 35.0957C645.846 34.4023 645.343 33.5869 644.991 32.6494C644.64 31.7119 644.464 30.7012 644.464 29.6172V29.0312C644.464 27.791 644.645 26.668 645.006 25.6621C645.367 24.6562 645.87 23.7969 646.515 23.084C647.159 22.3613 647.921 21.8096 648.8 21.4287C649.679 21.0479 650.631 20.8574 651.656 20.8574C652.789 20.8574 653.78 21.0479 654.63 21.4287C655.479 21.8096 656.183 22.3467 656.739 23.04C657.306 23.7236 657.726 24.5391 657.999 25.4863C658.282 26.4336 658.424 27.4785 658.424 28.6211V30.1299H646.178V27.5957H654.938V27.3174C654.918 26.6826 654.791 26.0869 654.557 25.5303C654.332 24.9736 653.985 24.5244 653.517 24.1826C653.048 23.8408 652.423 23.6699 651.642 23.6699C651.056 23.6699 650.533 23.7969 650.074 24.0508C649.625 24.2949 649.249 24.6514 648.946 25.1201C648.644 25.5889 648.409 26.1553 648.243 26.8193C648.087 27.4736 648.009 28.2109 648.009 29.0312V29.6172C648.009 30.3105 648.102 30.9551 648.287 31.5508C648.482 32.1367 648.766 32.6494 649.137 33.0889C649.508 33.5283 649.957 33.875 650.484 34.1289C651.012 34.373 651.612 34.4951 652.286 34.4951C653.136 34.4951 653.893 34.3242 654.557 33.9824C655.221 33.6406 655.797 33.1572 656.285 32.5322L658.146 34.334C657.804 34.832 657.359 35.3105 656.812 35.7695C656.266 36.2188 655.597 36.585 654.806 36.8682C654.024 37.1514 653.116 37.293 652.081 37.293ZM646.178 16.9463C646.178 16.4678 646.344 16.0674 646.676 15.7451C647.008 15.4131 647.447 15.2471 647.994 15.2471C648.551 15.2471 648.995 15.4131 649.327 15.7451C649.659 16.0674 649.825 16.4678 649.825 16.9463C649.825 17.415 649.659 17.8154 649.327 18.1475C648.995 18.4697 648.551 18.6309 647.994 18.6309C647.447 18.6309 647.008 18.4697 646.676 18.1475C646.344 17.8154 646.178 17.415 646.178 16.9463ZM652.96 16.9609C652.96 16.4824 653.126 16.082 653.458 15.7598C653.79 15.4277 654.234 15.2617 654.791 15.2617C655.338 15.2617 655.777 15.4277 656.109 15.7598C656.451 16.082 656.622 16.4824 656.622 16.9609C656.622 17.4297 656.451 17.8301 656.109 18.1621C655.777 18.4844 655.338 18.6455 654.791 18.6455C654.234 18.6455 653.79 18.4844 653.458 18.1621C653.126 17.8301 652.96 17.4297 652.96 16.9609ZM668.355 21.1504V37H664.811V21.1504H668.355ZM673.556 21.1504V23.9336H659.698V21.1504H673.556ZM682.521 30.7158H679.254C679.264 29.8076 679.342 29.0459 679.488 28.4307C679.635 27.8057 679.879 27.2393 680.221 26.7314C680.572 26.2236 681.036 25.6865 681.612 25.1201C682.062 24.6904 682.467 24.2852 682.828 23.9043C683.189 23.5137 683.478 23.1035 683.692 22.6738C683.907 22.2344 684.015 21.7314 684.015 21.165C684.015 20.5498 683.912 20.0273 683.707 19.5977C683.502 19.168 683.199 18.8408 682.799 18.6162C682.408 18.3916 681.92 18.2793 681.334 18.2793C680.846 18.2793 680.387 18.377 679.957 18.5723C679.527 18.7578 679.181 19.0508 678.917 19.4512C678.653 19.8418 678.512 20.3594 678.492 21.0039H674.962C674.981 19.7734 675.274 18.7383 675.841 17.8984C676.407 17.0586 677.169 16.4287 678.126 16.0088C679.083 15.5889 680.152 15.3789 681.334 15.3789C682.643 15.3789 683.761 15.6035 684.688 16.0527C685.616 16.4922 686.324 17.1367 686.812 17.9863C687.311 18.8262 687.56 19.8418 687.56 21.0332C687.56 21.8926 687.389 22.6738 687.047 23.377C686.705 24.0703 686.261 24.7197 685.714 25.3252C685.167 25.9209 684.576 26.5166 683.941 27.1123C683.395 27.6104 683.023 28.1523 682.828 28.7383C682.633 29.3145 682.53 29.9736 682.521 30.7158ZM678.961 35.2861C678.961 34.7588 679.142 34.3145 679.503 33.9531C679.864 33.582 680.357 33.3965 680.982 33.3965C681.607 33.3965 682.101 33.582 682.462 33.9531C682.823 34.3145 683.004 34.7588 683.004 35.2861C683.004 35.8135 682.823 36.2627 682.462 36.6338C682.101 36.9951 681.607 37.1758 680.982 37.1758C680.357 37.1758 679.864 36.9951 679.503 36.6338C679.142 36.2627 678.961 35.8135 678.961 35.2861Z" fill="black"/>
<line x1="1" y1="52.5" x2="901" y2="52.5" stroke="black"/>
<path d="M38.1836 82.3623V86.0708H21.1279V82.3623H38.1836ZM31.6553 75.3896V93.5049H27.6733V75.3896H31.6553ZM58.4351 96.3418C57.0679 96.3418 55.8317 96.1196 54.7266 95.6753C53.6328 95.2196 52.6986 94.5872 51.9238 93.7783C51.1605 92.9694 50.5737 92.0181 50.1636 90.9243C49.7534 89.8306 49.5483 88.6514 49.5483 87.3867V86.7031C49.5483 85.2562 49.7591 83.946 50.1807 82.7725C50.6022 81.599 51.189 80.5964 51.9409 79.7646C52.6929 78.9215 53.5815 78.2778 54.6069 77.8335C55.6323 77.3892 56.7432 77.167 57.9395 77.167C59.2611 77.167 60.4175 77.3892 61.4087 77.8335C62.3999 78.2778 63.2202 78.9045 63.8696 79.7134C64.5304 80.5109 65.0203 81.4622 65.3394 82.5674C65.6698 83.6725 65.835 84.8916 65.835 86.2246V87.9849H51.5479V85.0283H61.7676V84.7036C61.7448 83.9631 61.5967 83.2681 61.3232 82.6187C61.0612 81.9692 60.6567 81.4451 60.1099 81.0464C59.563 80.6476 58.8338 80.4482 57.9224 80.4482C57.2388 80.4482 56.6292 80.5964 56.0938 80.8926C55.5697 81.1774 55.131 81.5933 54.7778 82.1401C54.4246 82.687 54.1512 83.3478 53.9575 84.1226C53.7752 84.8859 53.6841 85.7461 53.6841 86.7031V87.3867C53.6841 88.1956 53.7923 88.9476 54.0088 89.6426C54.2367 90.3262 54.5671 90.9243 55 91.437C55.4329 91.9497 55.957 92.3542 56.5723 92.6504C57.1875 92.9352 57.8882 93.0776 58.6743 93.0776C59.6655 93.0776 60.5485 92.8783 61.3232 92.4795C62.098 92.0807 62.7702 91.5168 63.3398 90.7876L65.5103 92.8896C65.1115 93.4707 64.5931 94.029 63.9551 94.5645C63.3171 95.0885 62.5366 95.5158 61.6138 95.8462C60.7023 96.1766 59.6427 96.3418 58.4351 96.3418ZM79.4214 90.9927C79.4214 90.5825 79.3188 90.2122 79.1138 89.8818C78.9087 89.54 78.5156 89.2324 77.9346 88.959C77.3649 88.6855 76.5218 88.4349 75.4053 88.207C74.4255 87.9906 73.5254 87.7342 72.7051 87.438C71.8962 87.1304 71.2012 86.7601 70.6201 86.3271C70.0391 85.8942 69.589 85.3815 69.27 84.7891C68.951 84.1966 68.7915 83.513 68.7915 82.7383C68.7915 81.9863 68.9567 81.2743 69.2871 80.6021C69.6175 79.9299 70.0903 79.3374 70.7056 78.8247C71.3208 78.312 72.0671 77.9076 72.9443 77.6113C73.833 77.3151 74.8242 77.167 75.918 77.167C77.4674 77.167 78.7948 77.429 79.8999 77.9531C81.0164 78.4658 81.8709 79.1665 82.4634 80.0552C83.0558 80.9325 83.3521 81.9237 83.3521 83.0288H79.2334C79.2334 82.5389 79.1081 82.0832 78.8574 81.6616C78.6182 81.2287 78.2536 80.8812 77.7637 80.6191C77.2738 80.3457 76.6585 80.209 75.918 80.209C75.2116 80.209 74.6248 80.3229 74.1577 80.5508C73.702 80.7673 73.3602 81.0521 73.1323 81.4053C72.9159 81.7585 72.8076 82.1458 72.8076 82.5674C72.8076 82.875 72.8646 83.1541 72.9785 83.4048C73.1038 83.644 73.3089 83.8662 73.5938 84.0713C73.8786 84.265 74.266 84.4473 74.7559 84.6182C75.2572 84.7891 75.8838 84.9543 76.6357 85.1138C78.0485 85.41 79.2619 85.7917 80.2759 86.2588C81.3013 86.7145 82.0874 87.307 82.6343 88.0361C83.1812 88.7539 83.4546 89.6654 83.4546 90.7705C83.4546 91.5908 83.278 92.3428 82.9248 93.0264C82.583 93.6986 82.0817 94.2853 81.4209 94.7866C80.7601 95.2765 79.9683 95.6582 79.0454 95.9316C78.134 96.2051 77.1086 96.3418 75.9692 96.3418C74.2944 96.3418 72.876 96.0456 71.7139 95.4531C70.5518 94.8493 69.6688 94.0802 69.0649 93.146C68.4725 92.2004 68.1763 91.2205 68.1763 90.2065H72.1582C72.2038 90.9699 72.4146 91.5794 72.7905 92.0352C73.1779 92.4795 73.6564 92.8042 74.2261 93.0093C74.8071 93.203 75.4053 93.2998 76.0205 93.2998C76.7611 93.2998 77.382 93.203 77.8833 93.0093C78.3846 92.8042 78.7663 92.5308 79.0283 92.189C79.2904 91.8358 79.4214 91.437 79.4214 90.9927ZM95.5371 77.5088V80.5166H85.1123V77.5088H95.5371ZM88.1201 72.98H92.2388V90.8901C92.2388 91.4598 92.3185 91.8984 92.478 92.2061C92.6489 92.5023 92.8825 92.7017 93.1787 92.8042C93.4749 92.9067 93.8224 92.958 94.2212 92.958C94.506 92.958 94.7795 92.9409 95.0415 92.9067C95.3035 92.8726 95.5143 92.8384 95.6738 92.8042L95.6909 95.9487C95.3491 96.0513 94.9504 96.1424 94.4946 96.2222C94.0503 96.3019 93.5376 96.3418 92.9565 96.3418C92.0109 96.3418 91.1735 96.1766 90.4443 95.8462C89.7152 95.5044 89.1455 94.9518 88.7354 94.1885C88.3252 93.4251 88.1201 92.4111 88.1201 91.1465V72.98Z" fill="black"/>
<path d="M258.301 66.4336V68.3086H253.086V66.4336H258.301ZM253.643 66.4336V77H251.289V66.4336H253.643ZM260.146 66.4336V77H257.783V66.4336H260.146ZM265 68.4648V81.0625H262.646V66.4336H264.814L265 68.4648ZM271.885 71.6191V71.8242C271.885 72.5924 271.794 73.3053 271.611 73.9629C271.436 74.6139 271.172 75.1836 270.82 75.6719C270.475 76.1536 270.049 76.528 269.541 76.7949C269.033 77.0618 268.447 77.1953 267.783 77.1953C267.126 77.1953 266.549 77.0749 266.055 76.834C265.566 76.5866 265.153 76.2383 264.814 75.7891C264.476 75.3398 264.202 74.8125 263.994 74.207C263.792 73.5951 263.649 72.9245 263.564 72.1953V71.4043C263.649 70.6296 263.792 69.9264 263.994 69.2949C264.202 68.6634 264.476 68.1198 264.814 67.6641C265.153 67.2083 265.566 66.8568 266.055 66.6094C266.543 66.362 267.113 66.2383 267.764 66.2383C268.428 66.2383 269.017 66.3685 269.531 66.6289C270.046 66.8828 270.479 67.2474 270.83 67.7227C271.182 68.1914 271.445 68.7578 271.621 69.4219C271.797 70.0794 271.885 70.8118 271.885 71.6191ZM269.531 71.8242V71.6191C269.531 71.1309 269.486 70.6784 269.395 70.2617C269.303 69.8385 269.16 69.4674 268.965 69.1484C268.77 68.8294 268.519 68.582 268.213 68.4062C267.913 68.224 267.552 68.1328 267.129 68.1328C266.712 68.1328 266.354 68.2044 266.055 68.3477C265.755 68.4844 265.505 68.6764 265.303 68.9238C265.101 69.1712 264.945 69.4609 264.834 69.793C264.723 70.1185 264.645 70.4733 264.6 70.8574V72.752C264.678 73.2207 264.811 73.6504 265 74.041C265.189 74.4316 265.456 74.7441 265.801 74.9785C266.152 75.2064 266.602 75.3203 267.148 75.3203C267.572 75.3203 267.933 75.2292 268.232 75.0469C268.532 74.8646 268.776 74.6139 268.965 74.2949C269.16 73.9694 269.303 73.5951 269.395 73.1719C269.486 72.7487 269.531 72.2995 269.531 71.8242ZM276.318 73.5625L280.469 66.4336H282.822V77H280.469V69.8613L276.318 77H273.965V66.4336H276.318V73.5625ZM292.412 66.4336V68.3086H287.256V66.4336H292.412ZM294.258 66.4336V77H291.904V66.4336H294.258ZM286.68 66.4336H289.004L288.721 71.6582C288.682 72.4329 288.604 73.1165 288.486 73.709C288.376 74.2949 288.226 74.7995 288.037 75.2227C287.848 75.6393 287.617 75.9779 287.344 76.2383C287.07 76.4987 286.751 76.6908 286.387 76.8145C286.022 76.9382 285.612 77 285.156 77H284.424L284.414 75.0664L284.785 75.0371C285.026 75.0176 285.234 74.9557 285.41 74.8516C285.586 74.7409 285.736 74.5846 285.859 74.3828C285.99 74.181 286.094 73.9206 286.172 73.6016C286.257 73.2826 286.322 72.9049 286.367 72.4688C286.419 72.0326 286.458 71.5247 286.484 70.9453L286.68 66.4336ZM257.529 102.197C257.529 101.937 257.471 101.696 257.354 101.475C257.243 101.247 257.012 101.042 256.66 100.859C256.315 100.671 255.794 100.508 255.098 100.371C254.512 100.247 253.981 100.101 253.506 99.9316C253.037 99.7624 252.637 99.5573 252.305 99.3164C251.979 99.0755 251.729 98.7923 251.553 98.4668C251.377 98.1413 251.289 97.7604 251.289 97.3242C251.289 96.9076 251.38 96.5137 251.562 96.1426C251.751 95.7715 252.015 95.4427 252.354 95.1562C252.699 94.8698 253.112 94.6452 253.594 94.4824C254.076 94.3197 254.613 94.2383 255.205 94.2383C256.051 94.2383 256.774 94.388 257.373 94.6875C257.972 94.987 258.431 95.3874 258.75 95.8887C259.069 96.3835 259.229 96.9336 259.229 97.5391H257.422C257.422 97.2461 257.334 96.9629 257.158 96.6895C256.989 96.4095 256.738 96.1784 256.406 95.9961C256.081 95.8138 255.68 95.7227 255.205 95.7227C254.704 95.7227 254.297 95.8008 253.984 95.957C253.678 96.1068 253.454 96.2988 253.311 96.5332C253.174 96.7676 253.105 97.015 253.105 97.2754C253.105 97.4707 253.138 97.6465 253.203 97.8027C253.275 97.9525 253.398 98.0924 253.574 98.2227C253.75 98.3464 253.997 98.4635 254.316 98.5742C254.635 98.6849 255.042 98.7956 255.537 98.9062C256.403 99.1016 257.116 99.3359 257.676 99.6094C258.236 99.8828 258.652 100.218 258.926 100.615C259.199 101.012 259.336 101.494 259.336 102.061C259.336 102.523 259.238 102.946 259.043 103.33C258.854 103.714 258.577 104.046 258.213 104.326C257.855 104.6 257.425 104.814 256.924 104.971C256.429 105.12 255.872 105.195 255.254 105.195C254.323 105.195 253.535 105.029 252.891 104.697C252.246 104.365 251.758 103.936 251.426 103.408C251.094 102.881 250.928 102.324 250.928 101.738H252.744C252.77 102.233 252.913 102.627 253.174 102.92C253.434 103.206 253.753 103.411 254.131 103.535C254.508 103.652 254.883 103.711 255.254 103.711C255.749 103.711 256.162 103.646 256.494 103.516C256.833 103.385 257.09 103.206 257.266 102.979C257.441 102.751 257.529 102.49 257.529 102.197ZM263.506 96.5332V105H261.689V94.4336H263.408L263.506 96.5332ZM263.135 99.3164L262.295 99.2871C262.301 98.5645 262.396 97.8971 262.578 97.2852C262.76 96.6667 263.031 96.1296 263.389 95.6738C263.747 95.2181 264.193 94.8665 264.727 94.6191C265.26 94.3652 265.879 94.2383 266.582 94.2383C267.077 94.2383 267.533 94.3099 267.949 94.4531C268.366 94.5898 268.727 94.8079 269.033 95.1074C269.339 95.4069 269.577 95.791 269.746 96.2598C269.915 96.7285 270 97.2949 270 97.959V105H268.193V98.0469C268.193 97.4935 268.099 97.0508 267.91 96.7188C267.728 96.3867 267.467 96.1458 267.129 95.9961C266.79 95.8398 266.393 95.7617 265.938 95.7617C265.404 95.7617 264.958 95.8561 264.6 96.0449C264.242 96.2337 263.955 96.4941 263.74 96.8262C263.525 97.1582 263.369 97.5391 263.271 97.9688C263.18 98.3919 263.135 98.8411 263.135 99.3164ZM269.98 98.3203L268.77 98.6914C268.776 98.112 268.87 97.5553 269.053 97.0215C269.242 96.4876 269.512 96.0124 269.863 95.5957C270.221 95.179 270.661 94.8503 271.182 94.6094C271.702 94.362 272.298 94.2383 272.969 94.2383C273.535 94.2383 274.036 94.3132 274.473 94.4629C274.915 94.6126 275.286 94.8438 275.586 95.1562C275.892 95.4622 276.123 95.8561 276.279 96.3379C276.436 96.8197 276.514 97.3926 276.514 98.0566V105H274.697V98.0371C274.697 97.4447 274.603 96.9857 274.414 96.6602C274.232 96.3281 273.971 96.097 273.633 95.9668C273.301 95.8301 272.904 95.7617 272.441 95.7617C272.044 95.7617 271.693 95.8301 271.387 95.9668C271.081 96.1035 270.824 96.2923 270.615 96.5332C270.407 96.7676 270.247 97.0378 270.137 97.3438C270.033 97.6497 269.98 97.9753 269.98 98.3203ZM285.479 103.193V97.7539C285.479 97.3372 285.394 96.9759 285.225 96.6699C285.062 96.3574 284.814 96.1165 284.482 95.9473C284.15 95.778 283.74 95.6934 283.252 95.6934C282.796 95.6934 282.396 95.7715 282.051 95.9277C281.712 96.084 281.445 96.2891 281.25 96.543C281.061 96.7969 280.967 97.0703 280.967 97.3633H279.16C279.16 96.9857 279.258 96.6113 279.453 96.2402C279.648 95.8691 279.928 95.5339 280.293 95.2344C280.664 94.9284 281.107 94.6875 281.621 94.5117C282.142 94.3294 282.721 94.2383 283.359 94.2383C284.128 94.2383 284.805 94.3685 285.391 94.6289C285.983 94.8893 286.445 95.2832 286.777 95.8105C287.116 96.3314 287.285 96.9857 287.285 97.7734V102.695C287.285 103.047 287.314 103.421 287.373 103.818C287.438 104.215 287.533 104.557 287.656 104.844V105H285.771C285.68 104.792 285.609 104.515 285.557 104.17C285.505 103.818 285.479 103.493 285.479 103.193ZM285.791 98.5938L285.811 99.8633H283.984C283.47 99.8633 283.011 99.9056 282.607 99.9902C282.204 100.068 281.865 100.189 281.592 100.352C281.318 100.514 281.11 100.719 280.967 100.967C280.824 101.208 280.752 101.491 280.752 101.816C280.752 102.148 280.827 102.451 280.977 102.725C281.126 102.998 281.351 103.216 281.65 103.379C281.956 103.535 282.331 103.613 282.773 103.613C283.327 103.613 283.815 103.496 284.238 103.262C284.661 103.027 284.997 102.741 285.244 102.402C285.498 102.064 285.635 101.735 285.654 101.416L286.426 102.285C286.38 102.559 286.257 102.861 286.055 103.193C285.853 103.525 285.583 103.844 285.244 104.15C284.912 104.45 284.515 104.701 284.053 104.902C283.597 105.098 283.083 105.195 282.51 105.195C281.794 105.195 281.165 105.055 280.625 104.775C280.091 104.495 279.674 104.121 279.375 103.652C279.082 103.177 278.936 102.646 278.936 102.061C278.936 101.494 279.046 100.996 279.268 100.566C279.489 100.13 279.808 99.7689 280.225 99.4824C280.641 99.1895 281.143 98.9681 281.729 98.8184C282.314 98.6686 282.969 98.5938 283.691 98.5938H285.791ZM291.934 96.0938V105H290.127V94.4336H291.885L291.934 96.0938ZM295.234 94.375L295.225 96.0547C295.075 96.0221 294.932 96.0026 294.795 95.9961C294.665 95.9831 294.515 95.9766 294.346 95.9766C293.929 95.9766 293.561 96.0417 293.242 96.1719C292.923 96.3021 292.653 96.4844 292.432 96.7188C292.21 96.9531 292.035 97.2331 291.904 97.5586C291.781 97.8776 291.699 98.2292 291.66 98.6133L291.152 98.9062C291.152 98.2682 291.214 97.6693 291.338 97.1094C291.468 96.5495 291.667 96.0547 291.934 95.625C292.201 95.1888 292.539 94.8503 292.949 94.6094C293.366 94.362 293.861 94.2383 294.434 94.2383C294.564 94.2383 294.714 94.2546 294.883 94.2871C295.052 94.3132 295.169 94.3424 295.234 94.375ZM301.816 94.4336V95.8203H296.104V94.4336H301.816ZM298.037 91.8652H299.844V102.383C299.844 102.741 299.899 103.011 300.01 103.193C300.12 103.376 300.264 103.496 300.439 103.555C300.615 103.613 300.804 103.643 301.006 103.643C301.156 103.643 301.312 103.63 301.475 103.604C301.644 103.571 301.771 103.545 301.855 103.525L301.865 105C301.722 105.046 301.533 105.088 301.299 105.127C301.071 105.173 300.794 105.195 300.469 105.195C300.026 105.195 299.619 105.107 299.248 104.932C298.877 104.756 298.581 104.463 298.359 104.053C298.145 103.636 298.037 103.076 298.037 102.373V91.8652ZM312.656 98.2129V99.6973H307.891V98.2129H312.656ZM322.354 103.906L325.293 94.4336H327.227L322.988 106.631C322.891 106.891 322.76 107.171 322.598 107.471C322.441 107.777 322.24 108.066 321.992 108.34C321.745 108.613 321.445 108.835 321.094 109.004C320.749 109.18 320.335 109.268 319.854 109.268C319.71 109.268 319.528 109.248 319.307 109.209C319.085 109.17 318.929 109.137 318.838 109.111L318.828 107.646C318.88 107.653 318.962 107.66 319.072 107.666C319.189 107.679 319.271 107.686 319.316 107.686C319.727 107.686 320.075 107.63 320.361 107.52C320.648 107.415 320.889 107.236 321.084 106.982C321.286 106.735 321.458 106.393 321.602 105.957L322.354 103.906ZM320.195 94.4336L322.939 102.637L323.408 104.541L322.109 105.205L318.223 94.4336H320.195ZM334.932 102.598L338.525 94.4336H340.264L335.557 105H334.307L329.619 94.4336H331.357L334.932 102.598ZM330.83 94.4336V105H329.023V94.4336H330.83ZM338.975 105V94.4336H340.791V105H338.975ZM350.869 99.0137V100.479H345.283V99.0137H350.869ZM345.664 94.4336V105H343.857V94.4336H345.664ZM352.334 94.4336V105H350.518V94.4336H352.334ZM356.729 98.0664H359.902C360.755 98.0664 361.475 98.2161 362.061 98.5156C362.646 98.8086 363.089 99.2155 363.389 99.7363C363.695 100.251 363.848 100.837 363.848 101.494C363.848 101.982 363.763 102.441 363.594 102.871C363.424 103.294 363.171 103.665 362.832 103.984C362.5 104.303 362.087 104.554 361.592 104.736C361.104 104.912 360.54 105 359.902 105H355.41V94.4336H357.217V103.516H359.902C360.423 103.516 360.84 103.421 361.152 103.232C361.465 103.044 361.689 102.799 361.826 102.5C361.963 102.201 362.031 101.888 362.031 101.562C362.031 101.243 361.963 100.931 361.826 100.625C361.689 100.319 361.465 100.065 361.152 99.8633C360.84 99.6549 360.423 99.5508 359.902 99.5508H356.729V98.0664ZM367.607 94.4336V105H365.801V94.4336H367.607ZM372.725 102.139L377.598 94.4336H379.414V105H377.598V97.2949L372.725 105H370.928V94.4336H372.725V102.139ZM376.611 90.6055H378.076C378.076 91.1133 377.959 91.5658 377.725 91.9629C377.49 92.3535 377.155 92.6595 376.719 92.8809C376.283 93.1022 375.765 93.2129 375.166 93.2129C374.261 93.2129 373.545 92.972 373.018 92.4902C372.497 92.002 372.236 91.3737 372.236 90.6055H373.701C373.701 90.9896 373.812 91.3281 374.033 91.6211C374.255 91.9141 374.632 92.0605 375.166 92.0605C375.687 92.0605 376.058 91.9141 376.279 91.6211C376.501 91.3281 376.611 90.9896 376.611 90.6055Z" fill="black"/>
<path d="M557.301 66.4336V68.3086H552.086V66.4336H557.301ZM552.643 66.4336V77H550.289V66.4336H552.643ZM559.146 66.4336V77H556.783V66.4336H559.146ZM564 68.4648V81.0625H561.646V66.4336H563.814L564 68.4648ZM570.885 71.6191V71.8242C570.885 72.5924 570.794 73.3053 570.611 73.9629C570.436 74.6139 570.172 75.1836 569.82 75.6719C569.475 76.1536 569.049 76.528 568.541 76.7949C568.033 77.0618 567.447 77.1953 566.783 77.1953C566.126 77.1953 565.549 77.0749 565.055 76.834C564.566 76.5866 564.153 76.2383 563.814 75.7891C563.476 75.3398 563.202 74.8125 562.994 74.207C562.792 73.5951 562.649 72.9245 562.564 72.1953V71.4043C562.649 70.6296 562.792 69.9264 562.994 69.2949C563.202 68.6634 563.476 68.1198 563.814 67.6641C564.153 67.2083 564.566 66.8568 565.055 66.6094C565.543 66.362 566.113 66.2383 566.764 66.2383C567.428 66.2383 568.017 66.3685 568.531 66.6289C569.046 66.8828 569.479 67.2474 569.83 67.7227C570.182 68.1914 570.445 68.7578 570.621 69.4219C570.797 70.0794 570.885 70.8118 570.885 71.6191ZM568.531 71.8242V71.6191C568.531 71.1309 568.486 70.6784 568.395 70.2617C568.303 69.8385 568.16 69.4674 567.965 69.1484C567.77 68.8294 567.519 68.582 567.213 68.4062C566.913 68.224 566.552 68.1328 566.129 68.1328C565.712 68.1328 565.354 68.2044 565.055 68.3477C564.755 68.4844 564.505 68.6764 564.303 68.9238C564.101 69.1712 563.945 69.4609 563.834 69.793C563.723 70.1185 563.645 70.4733 563.6 70.8574V72.752C563.678 73.2207 563.811 73.6504 564 74.041C564.189 74.4316 564.456 74.7441 564.801 74.9785C565.152 75.2064 565.602 75.3203 566.148 75.3203C566.572 75.3203 566.933 75.2292 567.232 75.0469C567.532 74.8646 567.776 74.6139 567.965 74.2949C568.16 73.9694 568.303 73.5951 568.395 73.1719C568.486 72.7487 568.531 72.2995 568.531 71.8242ZM575.318 73.5625L579.469 66.4336H581.822V77H579.469V69.8613L575.318 77H572.965V66.4336H575.318V73.5625ZM591.412 66.4336V68.3086H586.256V66.4336H591.412ZM593.258 66.4336V77H590.904V66.4336H593.258ZM585.68 66.4336H588.004L587.721 71.6582C587.682 72.4329 587.604 73.1165 587.486 73.709C587.376 74.2949 587.226 74.7995 587.037 75.2227C586.848 75.6393 586.617 75.9779 586.344 76.2383C586.07 76.4987 585.751 76.6908 585.387 76.8145C585.022 76.9382 584.612 77 584.156 77H583.424L583.414 75.0664L583.785 75.0371C584.026 75.0176 584.234 74.9557 584.41 74.8516C584.586 74.7409 584.736 74.5846 584.859 74.3828C584.99 74.181 585.094 73.9206 585.172 73.6016C585.257 73.2826 585.322 72.9049 585.367 72.4688C585.419 72.0326 585.458 71.5247 585.484 70.9453L585.68 66.4336ZM554.801 94.4336V95.8203H549.088V94.4336H554.801ZM551.021 91.8652H552.828V102.383C552.828 102.741 552.883 103.011 552.994 103.193C553.105 103.376 553.248 103.496 553.424 103.555C553.6 103.613 553.788 103.643 553.99 103.643C554.14 103.643 554.296 103.63 554.459 103.604C554.628 103.571 554.755 103.545 554.84 103.525L554.85 105C554.706 105.046 554.518 105.088 554.283 105.127C554.055 105.173 553.779 105.195 553.453 105.195C553.01 105.195 552.604 105.107 552.232 104.932C551.861 104.756 551.565 104.463 551.344 104.053C551.129 103.636 551.021 103.076 551.021 102.373V91.8652ZM558.727 90V105H556.92V90H558.727ZM558.297 99.3164L557.545 99.2871C557.551 98.5645 557.659 97.8971 557.867 97.2852C558.076 96.6667 558.368 96.1296 558.746 95.6738C559.124 95.2181 559.573 94.8665 560.094 94.6191C560.621 94.3652 561.204 94.2383 561.842 94.2383C562.363 94.2383 562.831 94.3099 563.248 94.4531C563.665 94.5898 564.02 94.8112 564.312 95.1172C564.612 95.4232 564.84 95.8203 564.996 96.3086C565.152 96.7904 565.23 97.3796 565.23 98.0762V105H563.414V98.0566C563.414 97.5033 563.333 97.0605 563.17 96.7285C563.007 96.39 562.77 96.1458 562.457 95.9961C562.145 95.8398 561.76 95.7617 561.305 95.7617C560.855 95.7617 560.445 95.8561 560.074 96.0449C559.71 96.2337 559.394 96.4941 559.127 96.8262C558.867 97.1582 558.661 97.5391 558.512 97.9688C558.368 98.3919 558.297 98.8411 558.297 99.3164ZM572.32 105.195C571.585 105.195 570.917 105.072 570.318 104.824C569.726 104.57 569.215 104.215 568.785 103.76C568.362 103.304 568.036 102.764 567.809 102.139C567.581 101.514 567.467 100.83 567.467 100.088V99.6777C567.467 98.8184 567.594 98.0534 567.848 97.3828C568.102 96.7057 568.447 96.1328 568.883 95.6641C569.319 95.1953 569.814 94.8405 570.367 94.5996C570.921 94.3587 571.493 94.2383 572.086 94.2383C572.841 94.2383 573.492 94.3685 574.039 94.6289C574.592 94.8893 575.045 95.2539 575.396 95.7227C575.748 96.1849 576.008 96.7318 576.178 97.3633C576.347 97.9883 576.432 98.6719 576.432 99.4141V100.225H568.541V98.75H574.625V98.6133C574.599 98.1445 574.501 97.6888 574.332 97.2461C574.169 96.8034 573.909 96.4388 573.551 96.1523C573.193 95.8659 572.704 95.7227 572.086 95.7227C571.676 95.7227 571.298 95.8105 570.953 95.9863C570.608 96.1556 570.312 96.4095 570.064 96.748C569.817 97.0866 569.625 97.5 569.488 97.9883C569.352 98.4766 569.283 99.0397 569.283 99.6777V100.088C569.283 100.589 569.352 101.061 569.488 101.504C569.632 101.94 569.837 102.324 570.104 102.656C570.377 102.988 570.706 103.249 571.09 103.438C571.48 103.626 571.923 103.721 572.418 103.721C573.056 103.721 573.596 103.59 574.039 103.33C574.482 103.07 574.869 102.721 575.201 102.285L576.295 103.154C576.067 103.499 575.777 103.828 575.426 104.141C575.074 104.453 574.641 104.707 574.127 104.902C573.619 105.098 573.017 105.195 572.32 105.195ZM589.654 102.197C589.654 101.937 589.596 101.696 589.479 101.475C589.368 101.247 589.137 101.042 588.785 100.859C588.44 100.671 587.919 100.508 587.223 100.371C586.637 100.247 586.106 100.101 585.631 99.9316C585.162 99.7624 584.762 99.5573 584.43 99.3164C584.104 99.0755 583.854 98.7923 583.678 98.4668C583.502 98.1413 583.414 97.7604 583.414 97.3242C583.414 96.9076 583.505 96.5137 583.688 96.1426C583.876 95.7715 584.14 95.4427 584.479 95.1562C584.824 94.8698 585.237 94.6452 585.719 94.4824C586.201 94.3197 586.738 94.2383 587.33 94.2383C588.176 94.2383 588.899 94.388 589.498 94.6875C590.097 94.987 590.556 95.3874 590.875 95.8887C591.194 96.3835 591.354 96.9336 591.354 97.5391H589.547C589.547 97.2461 589.459 96.9629 589.283 96.6895C589.114 96.4095 588.863 96.1784 588.531 95.9961C588.206 95.8138 587.805 95.7227 587.33 95.7227C586.829 95.7227 586.422 95.8008 586.109 95.957C585.803 96.1068 585.579 96.2988 585.436 96.5332C585.299 96.7676 585.23 97.015 585.23 97.2754C585.23 97.4707 585.263 97.6465 585.328 97.8027C585.4 97.9525 585.523 98.0924 585.699 98.2227C585.875 98.3464 586.122 98.4635 586.441 98.5742C586.76 98.6849 587.167 98.7956 587.662 98.9062C588.528 99.1016 589.241 99.3359 589.801 99.6094C590.361 99.8828 590.777 100.218 591.051 100.615C591.324 101.012 591.461 101.494 591.461 102.061C591.461 102.523 591.363 102.946 591.168 103.33C590.979 103.714 590.702 104.046 590.338 104.326C589.98 104.6 589.55 104.814 589.049 104.971C588.554 105.12 587.997 105.195 587.379 105.195C586.448 105.195 585.66 105.029 585.016 104.697C584.371 104.365 583.883 103.936 583.551 103.408C583.219 102.881 583.053 102.324 583.053 101.738H584.869C584.895 102.233 585.038 102.627 585.299 102.92C585.559 103.206 585.878 103.411 586.256 103.535C586.633 103.652 587.008 103.711 587.379 103.711C587.874 103.711 588.287 103.646 588.619 103.516C588.958 103.385 589.215 103.206 589.391 102.979C589.566 102.751 589.654 102.49 589.654 102.197ZM595.631 96.5332V105H593.814V94.4336H595.533L595.631 96.5332ZM595.26 99.3164L594.42 99.2871C594.426 98.5645 594.521 97.8971 594.703 97.2852C594.885 96.6667 595.156 96.1296 595.514 95.6738C595.872 95.2181 596.318 94.8665 596.852 94.6191C597.385 94.3652 598.004 94.2383 598.707 94.2383C599.202 94.2383 599.658 94.3099 600.074 94.4531C600.491 94.5898 600.852 94.8079 601.158 95.1074C601.464 95.4069 601.702 95.791 601.871 96.2598C602.04 96.7285 602.125 97.2949 602.125 97.959V105H600.318V98.0469C600.318 97.4935 600.224 97.0508 600.035 96.7188C599.853 96.3867 599.592 96.1458 599.254 95.9961C598.915 95.8398 598.518 95.7617 598.062 95.7617C597.529 95.7617 597.083 95.8561 596.725 96.0449C596.367 96.2337 596.08 96.4941 595.865 96.8262C595.65 97.1582 595.494 97.5391 595.396 97.9688C595.305 98.3919 595.26 98.8411 595.26 99.3164ZM602.105 98.3203L600.895 98.6914C600.901 98.112 600.995 97.5553 601.178 97.0215C601.367 96.4876 601.637 96.0124 601.988 95.5957C602.346 95.179 602.786 94.8503 603.307 94.6094C603.827 94.362 604.423 94.2383 605.094 94.2383C605.66 94.2383 606.161 94.3132 606.598 94.4629C607.04 94.6126 607.411 94.8438 607.711 95.1562C608.017 95.4622 608.248 95.8561 608.404 96.3379C608.561 96.8197 608.639 97.3926 608.639 98.0566V105H606.822V98.0371C606.822 97.4447 606.728 96.9857 606.539 96.6602C606.357 96.3281 606.096 96.097 605.758 95.9668C605.426 95.8301 605.029 95.7617 604.566 95.7617C604.169 95.7617 603.818 95.8301 603.512 95.9668C603.206 96.1035 602.949 96.2923 602.74 96.5332C602.532 96.7676 602.372 97.0378 602.262 97.3438C602.158 97.6497 602.105 97.9753 602.105 98.3203ZM617.604 103.193V97.7539C617.604 97.3372 617.519 96.9759 617.35 96.6699C617.187 96.3574 616.939 96.1165 616.607 95.9473C616.275 95.778 615.865 95.6934 615.377 95.6934C614.921 95.6934 614.521 95.7715 614.176 95.9277C613.837 96.084 613.57 96.2891 613.375 96.543C613.186 96.7969 613.092 97.0703 613.092 97.3633H611.285C611.285 96.9857 611.383 96.6113 611.578 96.2402C611.773 95.8691 612.053 95.5339 612.418 95.2344C612.789 94.9284 613.232 94.6875 613.746 94.5117C614.267 94.3294 614.846 94.2383 615.484 94.2383C616.253 94.2383 616.93 94.3685 617.516 94.6289C618.108 94.8893 618.57 95.2832 618.902 95.8105C619.241 96.3314 619.41 96.9857 619.41 97.7734V102.695C619.41 103.047 619.439 103.421 619.498 103.818C619.563 104.215 619.658 104.557 619.781 104.844V105H617.896C617.805 104.792 617.734 104.515 617.682 104.17C617.63 103.818 617.604 103.493 617.604 103.193ZM617.916 98.5938L617.936 99.8633H616.109C615.595 99.8633 615.136 99.9056 614.732 99.9902C614.329 100.068 613.99 100.189 613.717 100.352C613.443 100.514 613.235 100.719 613.092 100.967C612.949 101.208 612.877 101.491 612.877 101.816C612.877 102.148 612.952 102.451 613.102 102.725C613.251 102.998 613.476 103.216 613.775 103.379C614.081 103.535 614.456 103.613 614.898 103.613C615.452 103.613 615.94 103.496 616.363 103.262C616.786 103.027 617.122 102.741 617.369 102.402C617.623 102.064 617.76 101.735 617.779 101.416L618.551 102.285C618.505 102.559 618.382 102.861 618.18 103.193C617.978 103.525 617.708 103.844 617.369 104.15C617.037 104.45 616.64 104.701 616.178 104.902C615.722 105.098 615.208 105.195 614.635 105.195C613.919 105.195 613.29 105.055 612.75 104.775C612.216 104.495 611.799 104.121 611.5 103.652C611.207 103.177 611.061 102.646 611.061 102.061C611.061 101.494 611.171 100.996 611.393 100.566C611.614 100.13 611.933 99.7689 612.35 99.4824C612.766 99.1895 613.268 98.9681 613.854 98.8184C614.439 98.6686 615.094 98.5938 615.816 98.5938H617.916ZM624.059 96.0938V105H622.252V94.4336H624.01L624.059 96.0938ZM627.359 94.375L627.35 96.0547C627.2 96.0221 627.057 96.0026 626.92 95.9961C626.79 95.9831 626.64 95.9766 626.471 95.9766C626.054 95.9766 625.686 96.0417 625.367 96.1719C625.048 96.3021 624.778 96.4844 624.557 96.7188C624.335 96.9531 624.16 97.2331 624.029 97.5586C623.906 97.8776 623.824 98.2292 623.785 98.6133L623.277 98.9062C623.277 98.2682 623.339 97.6693 623.463 97.1094C623.593 96.5495 623.792 96.0547 624.059 95.625C624.326 95.1888 624.664 94.8503 625.074 94.6094C625.491 94.362 625.986 94.2383 626.559 94.2383C626.689 94.2383 626.839 94.2546 627.008 94.2871C627.177 94.3132 627.294 94.3424 627.359 94.375ZM633.941 94.4336V95.8203H628.229V94.4336H633.941ZM630.162 91.8652H631.969V102.383C631.969 102.741 632.024 103.011 632.135 103.193C632.245 103.376 632.389 103.496 632.564 103.555C632.74 103.613 632.929 103.643 633.131 103.643C633.281 103.643 633.437 103.63 633.6 103.604C633.769 103.571 633.896 103.545 633.98 103.525L633.99 105C633.847 105.046 633.658 105.088 633.424 105.127C633.196 105.173 632.919 105.195 632.594 105.195C632.151 105.195 631.744 105.107 631.373 104.932C631.002 104.756 630.706 104.463 630.484 104.053C630.27 103.636 630.162 103.076 630.162 102.373V91.8652ZM639.791 88.75V90.2344H637.926V106.562H639.791V108.047H636.119V88.75H639.791ZM645.758 105.195C645.022 105.195 644.355 105.072 643.756 104.824C643.163 104.57 642.652 104.215 642.223 103.76C641.799 103.304 641.474 102.764 641.246 102.139C641.018 101.514 640.904 100.83 640.904 100.088V99.6777C640.904 98.8184 641.031 98.0534 641.285 97.3828C641.539 96.7057 641.884 96.1328 642.32 95.6641C642.757 95.1953 643.251 94.8405 643.805 94.5996C644.358 94.3587 644.931 94.2383 645.523 94.2383C646.279 94.2383 646.93 94.3685 647.477 94.6289C648.03 94.8893 648.482 95.2539 648.834 95.7227C649.186 96.1849 649.446 96.7318 649.615 97.3633C649.785 97.9883 649.869 98.6719 649.869 99.4141V100.225H641.979V98.75H648.062V98.6133C648.036 98.1445 647.939 97.6888 647.77 97.2461C647.607 96.8034 647.346 96.4388 646.988 96.1523C646.63 95.8659 646.142 95.7227 645.523 95.7227C645.113 95.7227 644.736 95.8105 644.391 95.9863C644.046 96.1556 643.749 96.4095 643.502 96.748C643.255 97.0866 643.062 97.5 642.926 97.9883C642.789 98.4766 642.721 99.0397 642.721 99.6777V100.088C642.721 100.589 642.789 101.061 642.926 101.504C643.069 101.94 643.274 102.324 643.541 102.656C643.814 102.988 644.143 103.249 644.527 103.438C644.918 103.626 645.361 103.721 645.855 103.721C646.493 103.721 647.034 103.59 647.477 103.33C647.919 103.07 648.307 102.721 648.639 102.285L649.732 103.154C649.505 103.499 649.215 103.828 648.863 104.141C648.512 104.453 648.079 104.707 647.564 104.902C647.057 105.098 646.454 105.195 645.758 105.195ZM658.131 102.197C658.131 101.937 658.072 101.696 657.955 101.475C657.844 101.247 657.613 101.042 657.262 100.859C656.917 100.671 656.396 100.508 655.699 100.371C655.113 100.247 654.583 100.101 654.107 99.9316C653.639 99.7624 653.238 99.5573 652.906 99.3164C652.581 99.0755 652.33 98.7923 652.154 98.4668C651.979 98.1413 651.891 97.7604 651.891 97.3242C651.891 96.9076 651.982 96.5137 652.164 96.1426C652.353 95.7715 652.617 95.4427 652.955 95.1562C653.3 94.8698 653.714 94.6452 654.195 94.4824C654.677 94.3197 655.214 94.2383 655.807 94.2383C656.653 94.2383 657.376 94.388 657.975 94.6875C658.574 94.987 659.033 95.3874 659.352 95.8887C659.671 96.3835 659.83 96.9336 659.83 97.5391H658.023C658.023 97.2461 657.936 96.9629 657.76 96.6895C657.59 96.4095 657.34 96.1784 657.008 95.9961C656.682 95.8138 656.282 95.7227 655.807 95.7227C655.305 95.7227 654.898 95.8008 654.586 95.957C654.28 96.1068 654.055 96.2988 653.912 96.5332C653.775 96.7676 653.707 97.015 653.707 97.2754C653.707 97.4707 653.74 97.6465 653.805 97.8027C653.876 97.9525 654 98.0924 654.176 98.2227C654.352 98.3464 654.599 98.4635 654.918 98.5742C655.237 98.6849 655.644 98.7956 656.139 98.9062C657.005 99.1016 657.717 99.3359 658.277 99.6094C658.837 99.8828 659.254 100.218 659.527 100.615C659.801 101.012 659.938 101.494 659.938 102.061C659.938 102.523 659.84 102.946 659.645 103.33C659.456 103.714 659.179 104.046 658.814 104.326C658.456 104.6 658.027 104.814 657.525 104.971C657.031 105.12 656.474 105.195 655.855 105.195C654.924 105.195 654.137 105.029 653.492 104.697C652.848 104.365 652.359 103.936 652.027 103.408C651.695 102.881 651.529 102.324 651.529 101.738H653.346C653.372 102.233 653.515 102.627 653.775 102.92C654.036 103.206 654.355 103.411 654.732 103.535C655.11 103.652 655.484 103.711 655.855 103.711C656.35 103.711 656.764 103.646 657.096 103.516C657.434 103.385 657.691 103.206 657.867 102.979C658.043 102.751 658.131 102.49 658.131 102.197ZM666.734 94.4336V95.8203H661.021V94.4336H666.734ZM662.955 91.8652H664.762V102.383C664.762 102.741 664.817 103.011 664.928 103.193C665.038 103.376 665.182 103.496 665.357 103.555C665.533 103.613 665.722 103.643 665.924 103.643C666.074 103.643 666.23 103.63 666.393 103.604C666.562 103.571 666.689 103.545 666.773 103.525L666.783 105C666.64 105.046 666.451 105.088 666.217 105.127C665.989 105.173 665.712 105.195 665.387 105.195C664.944 105.195 664.537 105.107 664.166 104.932C663.795 104.756 663.499 104.463 663.277 104.053C663.062 103.636 662.955 103.076 662.955 102.373V91.8652ZM667.574 90.2344V88.75H671.266V108.047H667.574V106.562H669.449V90.2344H667.574ZM682.887 98.2129V99.6973H678.121V98.2129H682.887ZM693.844 103.711C694.273 103.711 694.671 103.623 695.035 103.447C695.4 103.271 695.699 103.031 695.934 102.725C696.168 102.412 696.301 102.057 696.334 101.66H698.053C698.02 102.285 697.809 102.868 697.418 103.408C697.034 103.942 696.529 104.375 695.904 104.707C695.279 105.033 694.592 105.195 693.844 105.195C693.049 105.195 692.356 105.055 691.764 104.775C691.178 104.495 690.689 104.111 690.299 103.623C689.915 103.135 689.625 102.575 689.43 101.943C689.241 101.305 689.146 100.632 689.146 99.9219V99.5117C689.146 98.8021 689.241 98.1315 689.43 97.5C689.625 96.862 689.915 96.2988 690.299 95.8105C690.689 95.3223 691.178 94.9382 691.764 94.6582C692.356 94.3783 693.049 94.2383 693.844 94.2383C694.671 94.2383 695.393 94.4076 696.012 94.7461C696.63 95.0781 697.115 95.5339 697.467 96.1133C697.825 96.6862 698.02 97.3372 698.053 98.0664H696.334C696.301 97.6302 696.178 97.2363 695.963 96.8848C695.755 96.5332 695.468 96.2533 695.104 96.0449C694.745 95.8301 694.326 95.7227 693.844 95.7227C693.29 95.7227 692.825 95.8333 692.447 96.0547C692.076 96.2695 691.78 96.5625 691.559 96.9336C691.344 97.2982 691.188 97.7051 691.09 98.1543C690.999 98.597 690.953 99.0495 690.953 99.5117V99.9219C690.953 100.384 690.999 100.84 691.09 101.289C691.181 101.738 691.334 102.145 691.549 102.51C691.77 102.874 692.066 103.167 692.438 103.389C692.815 103.604 693.284 103.711 693.844 103.711ZM706.314 103.193V97.7539C706.314 97.3372 706.23 96.9759 706.061 96.6699C705.898 96.3574 705.65 96.1165 705.318 95.9473C704.986 95.778 704.576 95.6934 704.088 95.6934C703.632 95.6934 703.232 95.7715 702.887 95.9277C702.548 96.084 702.281 96.2891 702.086 96.543C701.897 96.7969 701.803 97.0703 701.803 97.3633H699.996C699.996 96.9857 700.094 96.6113 700.289 96.2402C700.484 95.8691 700.764 95.5339 701.129 95.2344C701.5 94.9284 701.943 94.6875 702.457 94.5117C702.978 94.3294 703.557 94.2383 704.195 94.2383C704.964 94.2383 705.641 94.3685 706.227 94.6289C706.819 94.8893 707.281 95.2832 707.613 95.8105C707.952 96.3314 708.121 96.9857 708.121 97.7734V102.695C708.121 103.047 708.15 103.421 708.209 103.818C708.274 104.215 708.368 104.557 708.492 104.844V105H706.607C706.516 104.792 706.445 104.515 706.393 104.17C706.34 103.818 706.314 103.493 706.314 103.193ZM706.627 98.5938L706.646 99.8633H704.82C704.306 99.8633 703.847 99.9056 703.443 99.9902C703.04 100.068 702.701 100.189 702.428 100.352C702.154 100.514 701.946 100.719 701.803 100.967C701.66 101.208 701.588 101.491 701.588 101.816C701.588 102.148 701.663 102.451 701.812 102.725C701.962 102.998 702.187 103.216 702.486 103.379C702.792 103.535 703.167 103.613 703.609 103.613C704.163 103.613 704.651 103.496 705.074 103.262C705.497 103.027 705.833 102.741 706.08 102.402C706.334 102.064 706.471 101.735 706.49 101.416L707.262 102.285C707.216 102.559 707.092 102.861 706.891 103.193C706.689 103.525 706.419 103.844 706.08 104.15C705.748 104.45 705.351 104.701 704.889 104.902C704.433 105.098 703.919 105.195 703.346 105.195C702.63 105.195 702.001 105.055 701.461 104.775C700.927 104.495 700.51 104.121 700.211 103.652C699.918 103.177 699.771 102.646 699.771 102.061C699.771 101.494 699.882 100.996 700.104 100.566C700.325 100.13 700.644 99.7689 701.061 99.4824C701.477 99.1895 701.979 98.9681 702.564 98.8184C703.15 98.6686 703.805 98.5938 704.527 98.5938H706.627ZM717.037 102.598L720.631 94.4336H722.369L717.662 105H716.412L711.725 94.4336H713.463L717.037 102.598ZM712.936 94.4336V105H711.129V94.4336H712.936ZM721.08 105V94.4336H722.896V105H721.08ZM727.291 98.0664H730.465C731.318 98.0664 732.037 98.2161 732.623 98.5156C733.209 98.8086 733.652 99.2155 733.951 99.7363C734.257 100.251 734.41 100.837 734.41 101.494C734.41 101.982 734.326 102.441 734.156 102.871C733.987 103.294 733.733 103.665 733.395 103.984C733.062 104.303 732.649 104.554 732.154 104.736C731.666 104.912 731.103 105 730.465 105H725.973V94.4336H727.779V103.516H730.465C730.986 103.516 731.402 103.421 731.715 103.232C732.027 103.044 732.252 102.799 732.389 102.5C732.525 102.201 732.594 101.888 732.594 101.562C732.594 101.243 732.525 100.931 732.389 100.625C732.252 100.319 732.027 100.065 731.715 99.8633C731.402 99.6549 730.986 99.5508 730.465 99.5508H727.291V98.0664ZM738.17 94.4336V105H736.363V94.4336H738.17ZM743.287 102.139L748.16 94.4336H749.977V105H748.16V97.2949L743.287 105H741.49V94.4336H743.287V102.139ZM747.174 90.6055H748.639C748.639 91.1133 748.521 91.5658 748.287 91.9629C748.053 92.3535 747.717 92.6595 747.281 92.8809C746.845 93.1022 746.327 93.2129 745.729 93.2129C744.824 93.2129 744.107 92.972 743.58 92.4902C743.059 92.002 742.799 91.3737 742.799 90.6055H744.264C744.264 90.9896 744.374 91.3281 744.596 91.6211C744.817 91.9141 745.195 92.0605 745.729 92.0605C746.249 92.0605 746.62 91.9141 746.842 91.6211C747.063 91.3281 747.174 90.9896 747.174 90.6055ZM760.807 103.906L763.746 94.4336H765.68L761.441 106.631C761.344 106.891 761.214 107.171 761.051 107.471C760.895 107.777 760.693 108.066 760.445 108.34C760.198 108.613 759.898 108.835 759.547 109.004C759.202 109.18 758.788 109.268 758.307 109.268C758.163 109.268 757.981 109.248 757.76 109.209C757.538 109.17 757.382 109.137 757.291 109.111L757.281 107.646C757.333 107.653 757.415 107.66 757.525 107.666C757.643 107.679 757.724 107.686 757.77 107.686C758.18 107.686 758.528 107.63 758.814 107.52C759.101 107.415 759.342 107.236 759.537 106.982C759.739 106.735 759.911 106.393 760.055 105.957L760.807 103.906ZM758.648 94.4336L761.393 102.637L761.861 104.541L760.562 105.205L756.676 94.4336H758.648ZM773.385 102.598L776.979 94.4336H778.717L774.01 105H772.76L768.072 94.4336H769.811L773.385 102.598ZM769.283 94.4336V105H767.477V94.4336H769.283ZM777.428 105V94.4336H779.244V105H777.428ZM789.322 99.0137V100.479H783.736V99.0137H789.322ZM784.117 94.4336V105H782.311V94.4336H784.117ZM790.787 94.4336V105H788.971V94.4336H790.787ZM795.182 98.0664H798.355C799.208 98.0664 799.928 98.2161 800.514 98.5156C801.1 98.8086 801.542 99.2155 801.842 99.7363C802.148 100.251 802.301 100.837 802.301 101.494C802.301 101.982 802.216 102.441 802.047 102.871C801.878 103.294 801.624 103.665 801.285 103.984C800.953 104.303 800.54 104.554 800.045 104.736C799.557 104.912 798.993 105 798.355 105H793.863V94.4336H795.67V103.516H798.355C798.876 103.516 799.293 103.421 799.605 103.232C799.918 103.044 800.143 102.799 800.279 102.5C800.416 102.201 800.484 101.888 800.484 101.562C800.484 101.243 800.416 100.931 800.279 100.625C800.143 100.319 799.918 100.065 799.605 99.8633C799.293 99.6549 798.876 99.5508 798.355 99.5508H795.182V98.0664ZM806.061 94.4336V105H804.254V94.4336H806.061ZM811.178 102.139L816.051 94.4336H817.867V105H816.051V97.2949L811.178 105H809.381V94.4336H811.178V102.139ZM815.064 90.6055H816.529C816.529 91.1133 816.412 91.5658 816.178 91.9629C815.943 92.3535 815.608 92.6595 815.172 92.8809C814.736 93.1022 814.218 93.2129 813.619 93.2129C812.714 93.2129 811.998 92.972 811.471 92.4902C810.95 92.002 810.689 91.3737 810.689 90.6055H812.154C812.154 90.9896 812.265 91.3281 812.486 91.6211C812.708 91.9141 813.085 92.0605 813.619 92.0605C814.14 92.0605 814.511 91.9141 814.732 91.6211C814.954 91.3281 815.064 90.9896 815.064 90.6055Z" fill="black"/>
</g>
<defs>
<clipPath id="clip0_2713_798">
<rect width="900" height="121" fill="white"/>
</clipPath>
</defs>
</svg>
