<svg width="900" height="121" viewBox="0 0 900 121" fill="none" xmlns="http://www.w3.org/2000/svg">
<g clip-path="url(#clip0_2716_1211)">
<rect width="900" height="121" fill="white"/>
<line y1="0.5" x2="900" y2="0.5" stroke="black"/>
<line x1="0.805174" y1="-0.0123898" x2="0.49487" y2="121.001" stroke="black"/>
<line x1="899.5" y1="1" x2="899.5" y2="121" stroke="black"/>
<path d="M39.1748 25.75V26.9219C39.1748 28.5332 38.9648 29.9785 38.5449 31.2578C38.125 32.5371 37.5244 33.626 36.7432 34.5244C35.9717 35.4229 35.0439 36.1113 33.96 36.5898C32.876 37.0586 31.6748 37.293 30.3564 37.293C29.0479 37.293 27.8516 37.0586 26.7676 36.5898C25.6934 36.1113 24.7607 35.4229 23.9697 34.5244C23.1787 33.626 22.5635 32.5371 22.124 31.2578C21.6943 29.9785 21.4795 28.5332 21.4795 26.9219V25.75C21.4795 24.1387 21.6943 22.6982 22.124 21.4287C22.5537 20.1494 23.1592 19.0605 23.9404 18.1621C24.7314 17.2539 25.6641 16.5654 26.7383 16.0967C27.8223 15.6182 29.0186 15.3789 30.3271 15.3789C31.6455 15.3789 32.8467 15.6182 33.9307 16.0967C35.0146 16.5654 35.9473 17.2539 36.7285 18.1621C37.5098 19.0605 38.1104 20.1494 38.5303 21.4287C38.96 22.6982 39.1748 24.1387 39.1748 25.75ZM35.498 26.9219V25.7207C35.498 24.5293 35.3809 23.4795 35.1465 22.5713C34.9219 21.6533 34.585 20.8867 34.1357 20.2715C33.6963 19.6465 33.1543 19.1777 32.5098 18.8652C31.8652 18.543 31.1377 18.3818 30.3271 18.3818C29.5166 18.3818 28.7939 18.543 28.1592 18.8652C27.5244 19.1777 26.9824 19.6465 26.5332 20.2715C26.0938 20.8867 25.7568 21.6533 25.5225 22.5713C25.2881 23.4795 25.1709 24.5293 25.1709 25.7207V26.9219C25.1709 28.1133 25.2881 29.168 25.5225 30.0859C25.7568 31.0039 26.0986 31.7803 26.5479 32.415C27.0068 33.04 27.5537 33.5137 28.1885 33.8359C28.8232 34.1484 29.5459 34.3047 30.3564 34.3047C31.1768 34.3047 31.9043 34.1484 32.5391 33.8359C33.1738 33.5137 33.7109 33.04 34.1504 32.415C34.5898 31.7803 34.9219 31.0039 35.1465 30.0859C35.3809 29.168 35.498 28.1133 35.498 26.9219ZM46.3086 21.1504V37H42.7783V21.1504H46.3086ZM56.6504 21.1504L49.5166 30.6865H45.4883L45.0195 27.4932H47.9639L52.2412 21.1504H56.6504ZM52.5195 37L47.7441 30.0859L50.5273 28.0791L57.1631 37H52.5195ZM57.8809 29.251V28.9141C57.8809 27.7715 58.0469 26.7119 58.3789 25.7354C58.7109 24.749 59.1895 23.8945 59.8145 23.1719C60.4492 22.4395 61.2207 21.873 62.1289 21.4727C63.0469 21.0625 64.082 20.8574 65.2344 20.8574C66.3965 20.8574 67.4316 21.0625 68.3398 21.4727C69.2578 21.873 70.0342 22.4395 70.6689 23.1719C71.3037 23.8945 71.7871 24.749 72.1191 25.7354C72.4512 26.7119 72.6172 27.7715 72.6172 28.9141V29.251C72.6172 30.3936 72.4512 31.4531 72.1191 32.4297C71.7871 33.4062 71.3037 34.2607 70.6689 34.9932C70.0342 35.7158 69.2627 36.2822 68.3545 36.6924C67.4463 37.0928 66.416 37.293 65.2637 37.293C64.1016 37.293 63.0615 37.0928 62.1436 36.6924C61.2354 36.2822 60.4639 35.7158 59.8291 34.9932C59.1943 34.2607 58.7109 33.4062 58.3789 32.4297C58.0469 31.4531 57.8809 30.3936 57.8809 29.251ZM61.4111 28.9141V29.251C61.4111 29.9639 61.4844 30.6377 61.6309 31.2725C61.7773 31.9072 62.0068 32.4639 62.3193 32.9424C62.6318 33.4209 63.0322 33.7969 63.5205 34.0703C64.0088 34.3438 64.5898 34.4805 65.2637 34.4805C65.918 34.4805 66.4844 34.3438 66.9629 34.0703C67.4512 33.7969 67.8516 33.4209 68.1641 32.9424C68.4766 32.4639 68.7061 31.9072 68.8525 31.2725C69.0088 30.6377 69.0869 29.9639 69.0869 29.251V28.9141C69.0869 28.2109 69.0088 27.5469 68.8525 26.9219C68.7061 26.2871 68.4717 25.7256 68.1494 25.2373C67.8369 24.749 67.4365 24.3682 66.9482 24.0947C66.4697 23.8115 65.8984 23.6699 65.2344 23.6699C64.5703 23.6699 63.9941 23.8115 63.5059 24.0947C63.0273 24.3682 62.6318 24.749 62.3193 25.2373C62.0068 25.7256 61.7773 26.2871 61.6309 26.9219C61.4844 27.5469 61.4111 28.2109 61.4111 28.9141ZM86.4014 27.7715V30.5547H78.1982V27.7715H86.4014ZM79.2236 21.1504V37H75.6934V21.1504H79.2236ZM88.9502 21.1504V37H85.4199V21.1504H88.9502ZM105.444 21.1504V37H101.914V21.1504H105.444ZM103.95 28.167V30.9648C103.521 31.1504 103.037 31.3213 102.5 31.4775C101.973 31.624 101.416 31.7461 100.83 31.8438C100.244 31.9316 99.6533 31.9756 99.0576 31.9756C97.6611 31.9756 96.4551 31.7607 95.4395 31.3311C94.4336 30.9014 93.6572 30.2422 93.1104 29.3535C92.5732 28.4551 92.3047 27.3174 92.3047 25.9404V21.1357H95.8203V25.9404C95.8203 26.7314 95.9375 27.3613 96.1719 27.8301C96.416 28.2988 96.7773 28.6357 97.2559 28.8408C97.7344 29.0459 98.335 29.1484 99.0576 29.1484C99.6631 29.1484 100.234 29.1094 100.771 29.0312C101.309 28.9434 101.841 28.8262 102.368 28.6797C102.896 28.5332 103.423 28.3623 103.95 28.167ZM118.145 33.8213V26.2627C118.145 25.6963 118.042 25.208 117.837 24.7979C117.632 24.3877 117.319 24.0703 116.899 23.8457C116.489 23.6211 115.972 23.5088 115.347 23.5088C114.771 23.5088 114.272 23.6064 113.853 23.8018C113.433 23.9971 113.105 24.2607 112.871 24.5928C112.637 24.9248 112.52 25.3008 112.52 25.7207H109.004C109.004 25.0957 109.155 24.4902 109.458 23.9043C109.761 23.3184 110.2 22.7959 110.776 22.3369C111.353 21.8779 112.041 21.5166 112.842 21.2529C113.643 20.9893 114.541 20.8574 115.537 20.8574C116.729 20.8574 117.783 21.0576 118.701 21.458C119.629 21.8584 120.356 22.4639 120.884 23.2744C121.421 24.0752 121.689 25.0811 121.689 26.292V33.3379C121.689 34.0605 121.738 34.71 121.836 35.2861C121.943 35.8525 122.095 36.3457 122.29 36.7656V37H118.672C118.506 36.6191 118.374 36.1357 118.276 35.5498C118.188 34.9541 118.145 34.3779 118.145 33.8213ZM118.657 27.3613L118.687 29.5439H116.152C115.498 29.5439 114.922 29.6074 114.424 29.7344C113.926 29.8516 113.511 30.0273 113.179 30.2617C112.847 30.4961 112.598 30.7793 112.432 31.1113C112.266 31.4434 112.183 31.8193 112.183 32.2393C112.183 32.6592 112.28 33.0449 112.476 33.3965C112.671 33.7383 112.954 34.0068 113.325 34.2021C113.706 34.3975 114.165 34.4951 114.702 34.4951C115.425 34.4951 116.055 34.3486 116.592 34.0557C117.139 33.7529 117.568 33.3867 117.881 32.957C118.193 32.5176 118.359 32.1025 118.379 31.7119L119.521 33.2793C119.404 33.6797 119.204 34.1094 118.921 34.5684C118.638 35.0273 118.267 35.4668 117.808 35.8867C117.358 36.2969 116.816 36.6338 116.182 36.8975C115.557 37.1611 114.834 37.293 114.014 37.293C112.979 37.293 112.056 37.0879 111.245 36.6777C110.435 36.2578 109.8 35.6963 109.341 34.9932C108.882 34.2803 108.652 33.4746 108.652 32.5762C108.652 31.7363 108.809 30.9941 109.121 30.3496C109.443 29.6953 109.912 29.1484 110.527 28.709C111.152 28.2695 111.914 27.9375 112.812 27.7129C113.711 27.4785 114.736 27.3613 115.889 27.3613H118.657ZM136.206 27.7715V30.5547H128.003V27.7715H136.206ZM129.028 21.1504V37H125.498V21.1504H129.028ZM138.755 21.1504V37H135.225V21.1504H138.755ZM146.167 31.8438L152.393 21.1504H155.923V37H152.393V26.292L146.167 37H142.637V21.1504H146.167V31.8438ZM162.998 29.251H166.66L162.163 37H158.516L162.998 29.251ZM165.576 21.1504H172.373V37H168.857V23.9336H165.576C164.912 23.9336 164.365 24.0508 163.936 24.2852C163.506 24.5098 163.188 24.8076 162.983 25.1787C162.778 25.54 162.676 25.9111 162.676 26.292C162.676 26.6729 162.769 27.0391 162.954 27.3906C163.149 27.7422 163.447 28.0303 163.848 28.2549C164.258 28.4795 164.771 28.5918 165.386 28.5918H170.044V31.1699H165.386C164.409 31.1699 163.535 31.0479 162.764 30.8037C161.992 30.5498 161.338 30.2031 160.801 29.7637C160.264 29.3145 159.854 28.792 159.57 28.1963C159.287 27.5908 159.146 26.9316 159.146 26.2188C159.146 25.4863 159.292 24.8125 159.585 24.1973C159.878 23.582 160.298 23.0449 160.845 22.5859C161.401 22.127 162.075 21.7754 162.866 21.5312C163.667 21.2773 164.57 21.1504 165.576 21.1504Z" fill="black"/>
<path d="M255.903 15.6719V37H252.241V15.6719H255.903ZM268.735 15.6719L260.063 27.8301H254.863L254.365 24.6367H258.027L264.238 15.6719H268.735ZM264.985 37L258.086 27.2734L260.459 24.4463L269.395 37H264.985ZM291.353 21.1504V37H287.822V21.1504H291.353ZM289.858 28.167V30.9648C289.429 31.1504 288.945 31.3213 288.408 31.4775C287.881 31.624 287.324 31.7461 286.738 31.8438C286.152 31.9316 285.562 31.9756 284.966 31.9756C283.569 31.9756 282.363 31.7607 281.348 31.3311C280.342 30.9014 279.565 30.2422 279.019 29.3535C278.481 28.4551 278.213 27.3174 278.213 25.9404V21.1357H281.729V25.9404C281.729 26.7314 281.846 27.3613 282.08 27.8301C282.324 28.2988 282.686 28.6357 283.164 28.8408C283.643 29.0459 284.243 29.1484 284.966 29.1484C285.571 29.1484 286.143 29.1094 286.68 29.0312C287.217 28.9434 287.749 28.8262 288.276 28.6797C288.804 28.5332 289.331 28.3623 289.858 28.167ZM302.104 37.293C300.933 37.293 299.873 37.1025 298.926 36.7217C297.988 36.3311 297.188 35.7891 296.523 35.0957C295.869 34.4023 295.366 33.5869 295.015 32.6494C294.663 31.7119 294.487 30.7012 294.487 29.6172V29.0312C294.487 27.791 294.668 26.668 295.029 25.6621C295.391 24.6562 295.894 23.7969 296.538 23.084C297.183 22.3613 297.944 21.8096 298.823 21.4287C299.702 21.0479 300.654 20.8574 301.68 20.8574C302.812 20.8574 303.804 21.0479 304.653 21.4287C305.503 21.8096 306.206 22.3467 306.763 23.04C307.329 23.7236 307.749 24.5391 308.022 25.4863C308.306 26.4336 308.447 27.4785 308.447 28.6211V30.1299H296.201V27.5957H304.961V27.3174C304.941 26.6826 304.814 26.0869 304.58 25.5303C304.355 24.9736 304.009 24.5244 303.54 24.1826C303.071 23.8408 302.446 23.6699 301.665 23.6699C301.079 23.6699 300.557 23.7969 300.098 24.0508C299.648 24.2949 299.272 24.6514 298.97 25.1201C298.667 25.5889 298.433 26.1553 298.267 26.8193C298.11 27.4736 298.032 28.2109 298.032 29.0312V29.6172C298.032 30.3105 298.125 30.9551 298.311 31.5508C298.506 32.1367 298.789 32.6494 299.16 33.0889C299.531 33.5283 299.98 33.875 300.508 34.1289C301.035 34.373 301.636 34.4951 302.31 34.4951C303.159 34.4951 303.916 34.3242 304.58 33.9824C305.244 33.6406 305.82 33.1572 306.309 32.5322L308.169 34.334C307.827 34.832 307.383 35.3105 306.836 35.7695C306.289 36.2188 305.62 36.585 304.829 36.8682C304.048 37.1514 303.14 37.293 302.104 37.293ZM320.62 32.7227L325.337 21.1504H328.398L321.821 37H319.419L312.856 21.1504H315.918L320.62 32.7227ZM315.01 21.1504V37H311.479V21.1504H315.01ZM326.23 37V21.1504H329.775V37H326.23ZM338.33 35.2715L342.637 21.1504H346.416L340.059 39.417C339.912 39.8076 339.722 40.2324 339.487 40.6914C339.253 41.1504 338.945 41.585 338.564 41.9951C338.193 42.415 337.729 42.752 337.173 43.0059C336.616 43.2695 335.942 43.4014 335.151 43.4014C334.839 43.4014 334.536 43.3721 334.243 43.3135C333.96 43.2646 333.691 43.2109 333.438 43.1523L333.423 40.457C333.521 40.4668 333.638 40.4766 333.774 40.4863C333.921 40.4961 334.038 40.501 334.126 40.501C334.712 40.501 335.2 40.4277 335.591 40.2812C335.981 40.1445 336.299 39.9199 336.543 39.6074C336.797 39.2949 337.012 38.875 337.188 38.3477L338.33 35.2715ZM335.898 21.1504L339.663 33.0156L340.293 36.7363L337.847 37.3662L332.09 21.1504H335.898ZM366.543 21.1504V23.9629H358.721V21.1504H366.543ZM359.556 21.1504V37H356.025V21.1504H359.556ZM369.312 21.1504V37H365.767V21.1504H369.312ZM376.592 24.1973V43.0938H373.062V21.1504H376.313L376.592 24.1973ZM386.919 28.9287V29.2363C386.919 30.3887 386.782 31.458 386.509 32.4443C386.245 33.4209 385.85 34.2754 385.322 35.0078C384.805 35.7305 384.165 36.292 383.403 36.6924C382.642 37.0928 381.763 37.293 380.767 37.293C379.78 37.293 378.916 37.1123 378.174 36.751C377.441 36.3799 376.821 35.8574 376.313 35.1836C375.806 34.5098 375.396 33.7188 375.083 32.8105C374.78 31.8926 374.565 30.8867 374.438 29.793V28.6064C374.565 27.4443 374.78 26.3896 375.083 25.4424C375.396 24.4951 375.806 23.6797 376.313 22.9961C376.821 22.3125 377.441 21.7852 378.174 21.4141C378.906 21.043 379.761 20.8574 380.737 20.8574C381.733 20.8574 382.617 21.0527 383.389 21.4434C384.16 21.8242 384.81 22.3711 385.337 23.084C385.864 23.7871 386.26 24.6367 386.523 25.6328C386.787 26.6191 386.919 27.7178 386.919 28.9287ZM383.389 29.2363V28.9287C383.389 28.1963 383.32 27.5176 383.184 26.8926C383.047 26.2578 382.832 25.7012 382.539 25.2227C382.246 24.7441 381.87 24.373 381.411 24.1094C380.962 23.8359 380.42 23.6992 379.785 23.6992C379.16 23.6992 378.623 23.8066 378.174 24.0215C377.725 24.2266 377.349 24.5146 377.046 24.8857C376.743 25.2568 376.509 25.6914 376.343 26.1895C376.177 26.6777 376.06 27.21 375.991 27.7861V30.6279C376.108 31.3311 376.309 31.9756 376.592 32.5615C376.875 33.1475 377.275 33.6162 377.793 33.9678C378.32 34.3096 378.994 34.4805 379.814 34.4805C380.449 34.4805 380.991 34.3438 381.44 34.0703C381.89 33.7969 382.256 33.4209 382.539 32.9424C382.832 32.4541 383.047 31.8926 383.184 31.2578C383.32 30.623 383.389 29.9492 383.389 29.2363ZM393.569 31.8438L399.795 21.1504H403.325V37H399.795V26.292L393.569 37H390.039V21.1504H393.569V31.8438ZM413.535 34.4805C414.111 34.4805 414.629 34.3682 415.088 34.1436C415.557 33.9092 415.933 33.5869 416.216 33.1768C416.509 32.7666 416.67 32.293 416.699 31.7559H420.024C420.005 32.7812 419.702 33.7139 419.116 34.5537C418.53 35.3936 417.754 36.0625 416.787 36.5605C415.82 37.0488 414.751 37.293 413.579 37.293C412.368 37.293 411.313 37.0879 410.415 36.6777C409.517 36.2578 408.77 35.6816 408.174 34.9492C407.578 34.2168 407.129 33.3721 406.826 32.415C406.533 31.458 406.387 30.4326 406.387 29.3389V28.8262C406.387 27.7324 406.533 26.707 406.826 25.75C407.129 24.7832 407.578 23.9336 408.174 23.2012C408.77 22.4688 409.517 21.8975 410.415 21.4873C411.313 21.0674 412.363 20.8574 413.564 20.8574C414.834 20.8574 415.947 21.1113 416.904 21.6191C417.861 22.1172 418.613 22.8154 419.16 23.7139C419.717 24.6025 420.005 25.6377 420.024 26.8193H416.699C416.67 26.2334 416.523 25.7061 416.26 25.2373C416.006 24.7588 415.645 24.3779 415.176 24.0947C414.717 23.8115 414.165 23.6699 413.521 23.6699C412.808 23.6699 412.217 23.8164 411.748 24.1094C411.279 24.3926 410.913 24.7832 410.649 25.2812C410.386 25.7695 410.195 26.3213 410.078 26.9365C409.971 27.542 409.917 28.1719 409.917 28.8262V29.3389C409.917 29.9932 409.971 30.6279 410.078 31.2432C410.186 31.8584 410.371 32.4102 410.635 32.8984C410.908 33.377 411.279 33.7627 411.748 34.0557C412.217 34.3389 412.812 34.4805 413.535 34.4805ZM422.061 29.251V28.9141C422.061 27.7715 422.227 26.7119 422.559 25.7354C422.891 24.749 423.369 23.8945 423.994 23.1719C424.629 22.4395 425.4 21.873 426.309 21.4727C427.227 21.0625 428.262 20.8574 429.414 20.8574C430.576 20.8574 431.611 21.0625 432.52 21.4727C433.438 21.873 434.214 22.4395 434.849 23.1719C435.483 23.8945 435.967 24.749 436.299 25.7354C436.631 26.7119 436.797 27.7715 436.797 28.9141V29.251C436.797 30.3936 436.631 31.4531 436.299 32.4297C435.967 33.4062 435.483 34.2607 434.849 34.9932C434.214 35.7158 433.442 36.2822 432.534 36.6924C431.626 37.0928 430.596 37.293 429.443 37.293C428.281 37.293 427.241 37.0928 426.323 36.6924C425.415 36.2822 424.644 35.7158 424.009 34.9932C423.374 34.2607 422.891 33.4062 422.559 32.4297C422.227 31.4531 422.061 30.3936 422.061 29.251ZM425.591 28.9141V29.251C425.591 29.9639 425.664 30.6377 425.811 31.2725C425.957 31.9072 426.187 32.4639 426.499 32.9424C426.812 33.4209 427.212 33.7969 427.7 34.0703C428.188 34.3438 428.77 34.4805 429.443 34.4805C430.098 34.4805 430.664 34.3438 431.143 34.0703C431.631 33.7969 432.031 33.4209 432.344 32.9424C432.656 32.4639 432.886 31.9072 433.032 31.2725C433.188 30.6377 433.267 29.9639 433.267 29.251V28.9141C433.267 28.2109 433.188 27.5469 433.032 26.9219C432.886 26.2871 432.651 25.7256 432.329 25.2373C432.017 24.749 431.616 24.3682 431.128 24.0947C430.649 23.8115 430.078 23.6699 429.414 23.6699C428.75 23.6699 428.174 23.8115 427.686 24.0947C427.207 24.3682 426.812 24.749 426.499 25.2373C426.187 25.7256 425.957 26.2871 425.811 26.9219C425.664 27.5469 425.591 28.2109 425.591 28.9141ZM446.743 37.293C445.571 37.293 444.512 37.1025 443.564 36.7217C442.627 36.3311 441.826 35.7891 441.162 35.0957C440.508 34.4023 440.005 33.5869 439.653 32.6494C439.302 31.7119 439.126 30.7012 439.126 29.6172V29.0312C439.126 27.791 439.307 26.668 439.668 25.6621C440.029 24.6562 440.532 23.7969 441.177 23.084C441.821 22.3613 442.583 21.8096 443.462 21.4287C444.341 21.0479 445.293 20.8574 446.318 20.8574C447.451 20.8574 448.442 21.0479 449.292 21.4287C450.142 21.8096 450.845 22.3467 451.401 23.04C451.968 23.7236 452.388 24.5391 452.661 25.4863C452.944 26.4336 453.086 27.4785 453.086 28.6211V30.1299H440.84V27.5957H449.6V27.3174C449.58 26.6826 449.453 26.0869 449.219 25.5303C448.994 24.9736 448.647 24.5244 448.179 24.1826C447.71 23.8408 447.085 23.6699 446.304 23.6699C445.718 23.6699 445.195 23.7969 444.736 24.0508C444.287 24.2949 443.911 24.6514 443.608 25.1201C443.306 25.5889 443.071 26.1553 442.905 26.8193C442.749 27.4736 442.671 28.2109 442.671 29.0312V29.6172C442.671 30.3105 442.764 30.9551 442.949 31.5508C443.145 32.1367 443.428 32.6494 443.799 33.0889C444.17 33.5283 444.619 33.875 445.146 34.1289C445.674 34.373 446.274 34.4951 446.948 34.4951C447.798 34.4951 448.555 34.3242 449.219 33.9824C449.883 33.6406 450.459 33.1572 450.947 32.5322L452.808 34.334C452.466 34.832 452.021 35.3105 451.475 35.7695C450.928 36.2188 450.259 36.585 449.468 36.8682C448.687 37.1514 447.778 37.293 446.743 37.293ZM458.711 21.1504H462.241L462.065 26.7314C462.017 28.3525 461.831 29.7441 461.509 30.9062C461.187 32.0684 460.767 33.0498 460.249 33.8506C459.731 34.6416 459.146 35.291 458.491 35.7988C457.847 36.3066 457.168 36.707 456.455 37H455.415V34.2168L455.913 34.1875C456.333 33.7383 456.694 33.2891 456.997 32.8398C457.31 32.3809 457.573 31.8779 457.788 31.3311C458.003 30.7744 458.169 30.125 458.286 29.3828C458.413 28.6406 458.496 27.7568 458.535 26.7314L458.711 21.1504ZM459.648 21.1504H469.697V37H466.182V24.1387H459.648V21.1504ZM454.609 34.1875H471.865V41.7168H468.335V37H458.184V41.7168H454.595L454.609 34.1875ZM474.531 35.2422C474.531 34.6953 474.717 34.2363 475.088 33.8652C475.459 33.4844 475.962 33.2939 476.597 33.2939C477.241 33.2939 477.744 33.4844 478.105 33.8652C478.477 34.2363 478.662 34.6953 478.662 35.2422C478.662 35.7891 478.477 36.248 478.105 36.6191C477.744 36.9902 477.241 37.1758 476.597 37.1758C475.962 37.1758 475.459 36.9902 475.088 36.6191C474.717 36.248 474.531 35.7891 474.531 35.2422ZM489.341 30.7158H486.074C486.084 29.8076 486.162 29.0459 486.309 28.4307C486.455 27.8057 486.699 27.2393 487.041 26.7314C487.393 26.2236 487.856 25.6865 488.433 25.1201C488.882 24.6904 489.287 24.2852 489.648 23.9043C490.01 23.5137 490.298 23.1035 490.513 22.6738C490.728 22.2344 490.835 21.7314 490.835 21.165C490.835 20.5498 490.732 20.0273 490.527 19.5977C490.322 19.168 490.02 18.8408 489.619 18.6162C489.229 18.3916 488.74 18.2793 488.154 18.2793C487.666 18.2793 487.207 18.377 486.777 18.5723C486.348 18.7578 486.001 19.0508 485.737 19.4512C485.474 19.8418 485.332 20.3594 485.312 21.0039H481.782C481.802 19.7734 482.095 18.7383 482.661 17.8984C483.228 17.0586 483.989 16.4287 484.946 16.0088C485.903 15.5889 486.973 15.3789 488.154 15.3789C489.463 15.3789 490.581 15.6035 491.509 16.0527C492.437 16.4922 493.145 17.1367 493.633 17.9863C494.131 18.8262 494.38 19.8418 494.38 21.0332C494.38 21.8926 494.209 22.6738 493.867 23.377C493.525 24.0703 493.081 24.7197 492.534 25.3252C491.987 25.9209 491.396 26.5166 490.762 27.1123C490.215 27.6104 489.844 28.1523 489.648 28.7383C489.453 29.3145 489.351 29.9736 489.341 30.7158ZM485.781 35.2861C485.781 34.7588 485.962 34.3145 486.323 33.9531C486.685 33.582 487.178 33.3965 487.803 33.3965C488.428 33.3965 488.921 33.582 489.282 33.9531C489.644 34.3145 489.824 34.7588 489.824 35.2861C489.824 35.8135 489.644 36.2627 489.282 36.6338C488.921 36.9951 488.428 37.1758 487.803 37.1758C487.178 37.1758 486.685 36.9951 486.323 36.6338C485.962 36.2627 485.781 35.8135 485.781 35.2861Z" fill="black"/>
<path d="M551.124 15.6719H554.801V22.2783C554.801 23.2842 554.952 24.0752 555.255 24.6514C555.558 25.2178 556.017 25.6182 556.632 25.8525C557.257 26.0869 558.033 26.2041 558.961 26.2041C559.41 26.2041 559.884 26.1846 560.382 26.1455C560.88 26.1064 561.378 26.0527 561.876 25.9844C562.384 25.9062 562.872 25.8184 563.341 25.7207C563.81 25.6133 564.239 25.4961 564.63 25.3691V28.2842C564.249 28.4014 563.829 28.5137 563.37 28.6211C562.921 28.7285 562.452 28.8213 561.964 28.8994C561.476 28.9678 560.978 29.0215 560.47 29.0605C559.962 29.0996 559.459 29.1191 558.961 29.1191C557.35 29.1191 555.958 28.8896 554.786 28.4307C553.614 27.9619 552.711 27.2246 552.076 26.2188C551.441 25.2129 551.124 23.8994 551.124 22.2783V15.6719ZM563.795 15.6719H567.472V37H563.795V15.6719ZM578.883 21.1504V37H575.338V21.1504H578.883ZM584.083 21.1504V23.9336H570.226V21.1504H584.083ZM585.211 29.251V28.9141C585.211 27.7715 585.377 26.7119 585.709 25.7354C586.041 24.749 586.52 23.8945 587.145 23.1719C587.779 22.4395 588.551 21.873 589.459 21.4727C590.377 21.0625 591.412 20.8574 592.564 20.8574C593.727 20.8574 594.762 21.0625 595.67 21.4727C596.588 21.873 597.364 22.4395 597.999 23.1719C598.634 23.8945 599.117 24.749 599.449 25.7354C599.781 26.7119 599.947 27.7715 599.947 28.9141V29.251C599.947 30.3936 599.781 31.4531 599.449 32.4297C599.117 33.4062 598.634 34.2607 597.999 34.9932C597.364 35.7158 596.593 36.2822 595.685 36.6924C594.776 37.0928 593.746 37.293 592.594 37.293C591.432 37.293 590.392 37.0928 589.474 36.6924C588.565 36.2822 587.794 35.7158 587.159 34.9932C586.524 34.2607 586.041 33.4062 585.709 32.4297C585.377 31.4531 585.211 30.3936 585.211 29.251ZM588.741 28.9141V29.251C588.741 29.9639 588.814 30.6377 588.961 31.2725C589.107 31.9072 589.337 32.4639 589.649 32.9424C589.962 33.4209 590.362 33.7969 590.851 34.0703C591.339 34.3438 591.92 34.4805 592.594 34.4805C593.248 34.4805 593.814 34.3438 594.293 34.0703C594.781 33.7969 595.182 33.4209 595.494 32.9424C595.807 32.4639 596.036 31.9072 596.183 31.2725C596.339 30.6377 596.417 29.9639 596.417 29.251V28.9141C596.417 28.2109 596.339 27.5469 596.183 26.9219C596.036 26.2871 595.802 25.7256 595.479 25.2373C595.167 24.749 594.767 24.3682 594.278 24.0947C593.8 23.8115 593.229 23.6699 592.564 23.6699C591.9 23.6699 591.324 23.8115 590.836 24.0947C590.357 24.3682 589.962 24.749 589.649 25.2373C589.337 25.7256 589.107 26.2871 588.961 26.9219C588.814 27.5469 588.741 28.2109 588.741 28.9141ZM613.248 21.1504H616.778L616.603 26.7314C616.554 28.3525 616.368 29.7441 616.046 30.9062C615.724 32.0684 615.304 33.0498 614.786 33.8506C614.269 34.6416 613.683 35.291 613.028 35.7988C612.384 36.3066 611.705 36.707 610.992 37H609.952V34.2168L610.45 34.1875C610.87 33.7383 611.231 33.2891 611.534 32.8398C611.847 32.3809 612.11 31.8779 612.325 31.3311C612.54 30.7744 612.706 30.125 612.823 29.3828C612.95 28.6406 613.033 27.7568 613.072 26.7314L613.248 21.1504ZM614.186 21.1504H624.234V37H620.719V24.1387H614.186V21.1504ZM609.146 34.1875H626.402V41.7168H622.872V37H612.721V41.7168H609.132L609.146 34.1875ZM637.857 33.8213V26.2627C637.857 25.6963 637.755 25.208 637.55 24.7979C637.345 24.3877 637.032 24.0703 636.612 23.8457C636.202 23.6211 635.685 23.5088 635.06 23.5088C634.483 23.5088 633.985 23.6064 633.565 23.8018C633.146 23.9971 632.818 24.2607 632.584 24.5928C632.35 24.9248 632.232 25.3008 632.232 25.7207H628.717C628.717 25.0957 628.868 24.4902 629.171 23.9043C629.474 23.3184 629.913 22.7959 630.489 22.3369C631.065 21.8779 631.754 21.5166 632.555 21.2529C633.355 20.9893 634.254 20.8574 635.25 20.8574C636.441 20.8574 637.496 21.0576 638.414 21.458C639.342 21.8584 640.069 22.4639 640.597 23.2744C641.134 24.0752 641.402 25.0811 641.402 26.292V33.3379C641.402 34.0605 641.451 34.71 641.549 35.2861C641.656 35.8525 641.808 36.3457 642.003 36.7656V37H638.385C638.219 36.6191 638.087 36.1357 637.989 35.5498C637.901 34.9541 637.857 34.3779 637.857 33.8213ZM638.37 27.3613L638.399 29.5439H635.865C635.211 29.5439 634.635 29.6074 634.137 29.7344C633.639 29.8516 633.224 30.0273 632.892 30.2617C632.56 30.4961 632.311 30.7793 632.145 31.1113C631.979 31.4434 631.896 31.8193 631.896 32.2393C631.896 32.6592 631.993 33.0449 632.188 33.3965C632.384 33.7383 632.667 34.0068 633.038 34.2021C633.419 34.3975 633.878 34.4951 634.415 34.4951C635.138 34.4951 635.768 34.3486 636.305 34.0557C636.852 33.7529 637.281 33.3867 637.594 32.957C637.906 32.5176 638.072 32.1025 638.092 31.7119L639.234 33.2793C639.117 33.6797 638.917 34.1094 638.634 34.5684C638.351 35.0273 637.979 35.4668 637.521 35.8867C637.071 36.2969 636.529 36.6338 635.895 36.8975C635.27 37.1611 634.547 37.293 633.727 37.293C632.691 37.293 631.769 37.0879 630.958 36.6777C630.147 36.2578 629.513 35.6963 629.054 34.9932C628.595 34.2803 628.365 33.4746 628.365 32.5762C628.365 31.7363 628.521 30.9941 628.834 30.3496C629.156 29.6953 629.625 29.1484 630.24 28.709C630.865 28.2695 631.627 27.9375 632.525 27.7129C633.424 27.4785 634.449 27.3613 635.602 27.3613H638.37ZM652.081 37.293C650.909 37.293 649.85 37.1025 648.902 36.7217C647.965 36.3311 647.164 35.7891 646.5 35.0957C645.846 34.4023 645.343 33.5869 644.991 32.6494C644.64 31.7119 644.464 30.7012 644.464 29.6172V29.0312C644.464 27.791 644.645 26.668 645.006 25.6621C645.367 24.6562 645.87 23.7969 646.515 23.084C647.159 22.3613 647.921 21.8096 648.8 21.4287C649.679 21.0479 650.631 20.8574 651.656 20.8574C652.789 20.8574 653.78 21.0479 654.63 21.4287C655.479 21.8096 656.183 22.3467 656.739 23.04C657.306 23.7236 657.726 24.5391 657.999 25.4863C658.282 26.4336 658.424 27.4785 658.424 28.6211V30.1299H646.178V27.5957H654.938V27.3174C654.918 26.6826 654.791 26.0869 654.557 25.5303C654.332 24.9736 653.985 24.5244 653.517 24.1826C653.048 23.8408 652.423 23.6699 651.642 23.6699C651.056 23.6699 650.533 23.7969 650.074 24.0508C649.625 24.2949 649.249 24.6514 648.946 25.1201C648.644 25.5889 648.409 26.1553 648.243 26.8193C648.087 27.4736 648.009 28.2109 648.009 29.0312V29.6172C648.009 30.3105 648.102 30.9551 648.287 31.5508C648.482 32.1367 648.766 32.6494 649.137 33.0889C649.508 33.5283 649.957 33.875 650.484 34.1289C651.012 34.373 651.612 34.4951 652.286 34.4951C653.136 34.4951 653.893 34.3242 654.557 33.9824C655.221 33.6406 655.797 33.1572 656.285 32.5322L658.146 34.334C657.804 34.832 657.359 35.3105 656.812 35.7695C656.266 36.2188 655.597 36.585 654.806 36.8682C654.024 37.1514 653.116 37.293 652.081 37.293ZM646.178 16.9463C646.178 16.4678 646.344 16.0674 646.676 15.7451C647.008 15.4131 647.447 15.2471 647.994 15.2471C648.551 15.2471 648.995 15.4131 649.327 15.7451C649.659 16.0674 649.825 16.4678 649.825 16.9463C649.825 17.415 649.659 17.8154 649.327 18.1475C648.995 18.4697 648.551 18.6309 647.994 18.6309C647.447 18.6309 647.008 18.4697 646.676 18.1475C646.344 17.8154 646.178 17.415 646.178 16.9463ZM652.96 16.9609C652.96 16.4824 653.126 16.082 653.458 15.7598C653.79 15.4277 654.234 15.2617 654.791 15.2617C655.338 15.2617 655.777 15.4277 656.109 15.7598C656.451 16.082 656.622 16.4824 656.622 16.9609C656.622 17.4297 656.451 17.8301 656.109 18.1621C655.777 18.4844 655.338 18.6455 654.791 18.6455C654.234 18.6455 653.79 18.4844 653.458 18.1621C653.126 17.8301 652.96 17.4297 652.96 16.9609ZM668.355 21.1504V37H664.811V21.1504H668.355ZM673.556 21.1504V23.9336H659.698V21.1504H673.556ZM682.521 30.7158H679.254C679.264 29.8076 679.342 29.0459 679.488 28.4307C679.635 27.8057 679.879 27.2393 680.221 26.7314C680.572 26.2236 681.036 25.6865 681.612 25.1201C682.062 24.6904 682.467 24.2852 682.828 23.9043C683.189 23.5137 683.478 23.1035 683.692 22.6738C683.907 22.2344 684.015 21.7314 684.015 21.165C684.015 20.5498 683.912 20.0273 683.707 19.5977C683.502 19.168 683.199 18.8408 682.799 18.6162C682.408 18.3916 681.92 18.2793 681.334 18.2793C680.846 18.2793 680.387 18.377 679.957 18.5723C679.527 18.7578 679.181 19.0508 678.917 19.4512C678.653 19.8418 678.512 20.3594 678.492 21.0039H674.962C674.981 19.7734 675.274 18.7383 675.841 17.8984C676.407 17.0586 677.169 16.4287 678.126 16.0088C679.083 15.5889 680.152 15.3789 681.334 15.3789C682.643 15.3789 683.761 15.6035 684.688 16.0527C685.616 16.4922 686.324 17.1367 686.812 17.9863C687.311 18.8262 687.56 19.8418 687.56 21.0332C687.56 21.8926 687.389 22.6738 687.047 23.377C686.705 24.0703 686.261 24.7197 685.714 25.3252C685.167 25.9209 684.576 26.5166 683.941 27.1123C683.395 27.6104 683.023 28.1523 682.828 28.7383C682.633 29.3145 682.53 29.9736 682.521 30.7158ZM678.961 35.2861C678.961 34.7588 679.142 34.3145 679.503 33.9531C679.864 33.582 680.357 33.3965 680.982 33.3965C681.607 33.3965 682.101 33.582 682.462 33.9531C682.823 34.3145 683.004 34.7588 683.004 35.2861C683.004 35.8135 682.823 36.2627 682.462 36.6338C682.101 36.9951 681.607 37.1758 680.982 37.1758C680.357 37.1758 679.864 36.9951 679.503 36.6338C679.142 36.2627 678.961 35.8135 678.961 35.2861Z" fill="black"/>
<line x1="1" y1="52.5" x2="901" y2="52.5" stroke="black"/>
<line y1="120.5" x2="900" y2="120.5" stroke="black"/>
<path d="M255.527 74.3203C255.911 74.3203 256.257 74.2454 256.562 74.0957C256.875 73.9395 257.126 73.7246 257.314 73.4512C257.51 73.1777 257.617 72.862 257.637 72.5039H259.854C259.84 73.1875 259.639 73.8092 259.248 74.3691C258.857 74.929 258.34 75.375 257.695 75.707C257.051 76.0326 256.338 76.1953 255.557 76.1953C254.749 76.1953 254.046 76.0586 253.447 75.7852C252.848 75.5052 252.35 75.1211 251.953 74.6328C251.556 74.1445 251.257 73.5814 251.055 72.9434C250.859 72.3053 250.762 71.6217 250.762 70.8926V70.5508C250.762 69.8216 250.859 69.138 251.055 68.5C251.257 67.8555 251.556 67.2891 251.953 66.8008C252.35 66.3125 252.848 65.9316 253.447 65.6582C254.046 65.3783 254.746 65.2383 255.547 65.2383C256.393 65.2383 257.135 65.4076 257.773 65.7461C258.411 66.0781 258.913 66.5436 259.277 67.1426C259.648 67.735 259.84 68.4251 259.854 69.2129H257.637C257.617 68.8223 257.52 68.4707 257.344 68.1582C257.174 67.8392 256.934 67.5853 256.621 67.3965C256.315 67.2077 255.947 67.1133 255.518 67.1133C255.042 67.1133 254.648 67.2109 254.336 67.4062C254.023 67.5951 253.779 67.8555 253.604 68.1875C253.428 68.513 253.301 68.8809 253.223 69.291C253.151 69.6947 253.115 70.1146 253.115 70.5508V70.8926C253.115 71.3288 253.151 71.752 253.223 72.1621C253.294 72.5723 253.418 72.9401 253.594 73.2656C253.776 73.5846 254.023 73.8418 254.336 74.0371C254.648 74.2259 255.046 74.3203 255.527 74.3203ZM264.727 74.8477L267.598 65.4336H270.117L265.879 77.6113C265.781 77.8717 265.654 78.1549 265.498 78.4609C265.342 78.7669 265.137 79.0566 264.883 79.3301C264.635 79.61 264.326 79.8346 263.955 80.0039C263.584 80.1797 263.135 80.2676 262.607 80.2676C262.399 80.2676 262.197 80.248 262.002 80.209C261.813 80.1764 261.634 80.1406 261.465 80.1016L261.455 78.3047C261.52 78.3112 261.598 78.3177 261.689 78.3242C261.787 78.3307 261.865 78.334 261.924 78.334C262.314 78.334 262.64 78.2852 262.9 78.1875C263.161 78.0964 263.372 77.9466 263.535 77.7383C263.704 77.5299 263.848 77.25 263.965 76.8984L264.727 74.8477ZM263.105 65.4336L265.615 73.3438L266.035 75.8242L264.404 76.2441L260.566 65.4336H263.105ZM287.08 74.1348L286.895 79.1348H284.736V76H283.467V74.1348H287.08ZM271.475 65.4336H273.828V74.125H277.188V65.4336H279.551V74.125H282.9V65.4336H285.254V76H271.475V65.4336ZM253.184 95.4648V108.062H251.367V93.4336H253.027L253.184 95.4648ZM260.303 98.6289V98.834C260.303 99.6022 260.212 100.315 260.029 100.973C259.847 101.624 259.58 102.19 259.229 102.672C258.883 103.154 258.457 103.528 257.949 103.795C257.441 104.062 256.859 104.195 256.201 104.195C255.531 104.195 254.938 104.085 254.424 103.863C253.91 103.642 253.473 103.32 253.115 102.896C252.757 102.473 252.471 101.965 252.256 101.373C252.048 100.781 251.904 100.113 251.826 99.3711V98.2773C251.904 97.4961 252.051 96.7962 252.266 96.1777C252.48 95.5592 252.764 95.0319 253.115 94.5957C253.473 94.153 253.906 93.8177 254.414 93.5898C254.922 93.3555 255.508 93.2383 256.172 93.2383C256.836 93.2383 257.425 93.3685 257.939 93.6289C258.454 93.8828 258.887 94.2474 259.238 94.7227C259.59 95.1979 259.854 95.7676 260.029 96.4316C260.212 97.0892 260.303 97.8216 260.303 98.6289ZM258.486 98.834V98.6289C258.486 98.1016 258.431 97.6068 258.32 97.1445C258.21 96.6758 258.037 96.2656 257.803 95.9141C257.575 95.556 257.282 95.276 256.924 95.0742C256.566 94.8659 256.139 94.7617 255.645 94.7617C255.189 94.7617 254.792 94.8398 254.453 94.9961C254.121 95.1523 253.838 95.3639 253.604 95.6309C253.369 95.8913 253.177 96.1908 253.027 96.5293C252.884 96.8613 252.777 97.2064 252.705 97.5645V100.094C252.835 100.549 253.018 100.979 253.252 101.383C253.486 101.78 253.799 102.102 254.189 102.35C254.58 102.59 255.072 102.711 255.664 102.711C256.152 102.711 256.572 102.61 256.924 102.408C257.282 102.2 257.575 101.917 257.803 101.559C258.037 101.201 258.21 100.79 258.32 100.328C258.431 99.8594 258.486 99.3613 258.486 98.834ZM268.838 102.193V96.7539C268.838 96.3372 268.753 95.9759 268.584 95.6699C268.421 95.3574 268.174 95.1165 267.842 94.9473C267.51 94.778 267.1 94.6934 266.611 94.6934C266.156 94.6934 265.755 94.7715 265.41 94.9277C265.072 95.084 264.805 95.2891 264.609 95.543C264.421 95.7969 264.326 96.0703 264.326 96.3633H262.52C262.52 95.9857 262.617 95.6113 262.812 95.2402C263.008 94.8691 263.288 94.5339 263.652 94.2344C264.023 93.9284 264.466 93.6875 264.98 93.5117C265.501 93.3294 266.081 93.2383 266.719 93.2383C267.487 93.2383 268.164 93.3685 268.75 93.6289C269.342 93.8893 269.805 94.2832 270.137 94.8105C270.475 95.3314 270.645 95.9857 270.645 96.7734V101.695C270.645 102.047 270.674 102.421 270.732 102.818C270.798 103.215 270.892 103.557 271.016 103.844V104H269.131C269.04 103.792 268.968 103.515 268.916 103.17C268.864 102.818 268.838 102.493 268.838 102.193ZM269.15 97.5938L269.17 98.8633H267.344C266.829 98.8633 266.37 98.9056 265.967 98.9902C265.563 99.0684 265.225 99.1888 264.951 99.3516C264.678 99.5143 264.469 99.7194 264.326 99.9668C264.183 100.208 264.111 100.491 264.111 100.816C264.111 101.148 264.186 101.451 264.336 101.725C264.486 101.998 264.71 102.216 265.01 102.379C265.316 102.535 265.69 102.613 266.133 102.613C266.686 102.613 267.174 102.496 267.598 102.262C268.021 102.027 268.356 101.741 268.604 101.402C268.857 101.064 268.994 100.735 269.014 100.416L269.785 101.285C269.74 101.559 269.616 101.861 269.414 102.193C269.212 102.525 268.942 102.844 268.604 103.15C268.271 103.45 267.874 103.701 267.412 103.902C266.956 104.098 266.442 104.195 265.869 104.195C265.153 104.195 264.525 104.055 263.984 103.775C263.451 103.495 263.034 103.121 262.734 102.652C262.441 102.177 262.295 101.646 262.295 101.061C262.295 100.494 262.406 99.9961 262.627 99.5664C262.848 99.1302 263.167 98.7689 263.584 98.4824C264.001 98.1895 264.502 97.9681 265.088 97.8184C265.674 97.6686 266.328 97.5938 267.051 97.5938H269.15ZM280.332 93.4336H281.973V103.775C281.973 104.706 281.784 105.501 281.406 106.158C281.029 106.816 280.501 107.314 279.824 107.652C279.154 107.997 278.379 108.17 277.5 108.17C277.135 108.17 276.706 108.111 276.211 107.994C275.723 107.883 275.241 107.691 274.766 107.418C274.297 107.151 273.903 106.79 273.584 106.334L274.531 105.26C274.974 105.794 275.436 106.165 275.918 106.373C276.406 106.581 276.888 106.686 277.363 106.686C277.936 106.686 278.431 106.578 278.848 106.363C279.264 106.148 279.587 105.829 279.814 105.406C280.049 104.99 280.166 104.475 280.166 103.863V95.7578L280.332 93.4336ZM273.057 98.834V98.6289C273.057 97.8216 273.151 97.0892 273.34 96.4316C273.535 95.7676 273.812 95.1979 274.17 94.7227C274.535 94.2474 274.974 93.8828 275.488 93.6289C276.003 93.3685 276.582 93.2383 277.227 93.2383C277.891 93.2383 278.47 93.3555 278.965 93.5898C279.466 93.8177 279.889 94.153 280.234 94.5957C280.586 95.0319 280.863 95.5592 281.064 96.1777C281.266 96.7962 281.406 97.4961 281.484 98.2773V99.1758C281.413 99.9505 281.273 100.647 281.064 101.266C280.863 101.884 280.586 102.411 280.234 102.848C279.889 103.284 279.466 103.619 278.965 103.854C278.464 104.081 277.878 104.195 277.207 104.195C276.576 104.195 276.003 104.062 275.488 103.795C274.98 103.528 274.544 103.154 274.18 102.672C273.815 102.19 273.535 101.624 273.34 100.973C273.151 100.315 273.057 99.6022 273.057 98.834ZM274.863 98.6289V98.834C274.863 99.3613 274.915 99.8561 275.02 100.318C275.13 100.781 275.296 101.188 275.518 101.539C275.745 101.891 276.035 102.167 276.387 102.369C276.738 102.564 277.158 102.662 277.646 102.662C278.245 102.662 278.74 102.535 279.131 102.281C279.521 102.027 279.831 101.692 280.059 101.275C280.293 100.859 280.475 100.406 280.605 99.918V97.5645C280.534 97.2064 280.423 96.8613 280.273 96.5293C280.13 96.1908 279.941 95.8913 279.707 95.6309C279.479 95.3639 279.196 95.1523 278.857 94.9961C278.519 94.8398 278.122 94.7617 277.666 94.7617C277.171 94.7617 276.745 94.8659 276.387 95.0742C276.035 95.276 275.745 95.556 275.518 95.9141C275.296 96.2656 275.13 96.6758 275.02 97.1445C274.915 97.6068 274.863 98.1016 274.863 98.6289ZM290.947 102.193V96.7539C290.947 96.3372 290.863 95.9759 290.693 95.6699C290.531 95.3574 290.283 95.1165 289.951 94.9473C289.619 94.778 289.209 94.6934 288.721 94.6934C288.265 94.6934 287.865 94.7715 287.52 94.9277C287.181 95.084 286.914 95.2891 286.719 95.543C286.53 95.7969 286.436 96.0703 286.436 96.3633H284.629C284.629 95.9857 284.727 95.6113 284.922 95.2402C285.117 94.8691 285.397 94.5339 285.762 94.2344C286.133 93.9284 286.576 93.6875 287.09 93.5117C287.611 93.3294 288.19 93.2383 288.828 93.2383C289.596 93.2383 290.273 93.3685 290.859 93.6289C291.452 93.8893 291.914 94.2832 292.246 94.8105C292.585 95.3314 292.754 95.9857 292.754 96.7734V101.695C292.754 102.047 292.783 102.421 292.842 102.818C292.907 103.215 293.001 103.557 293.125 103.844V104H291.24C291.149 103.792 291.077 103.515 291.025 103.17C290.973 102.818 290.947 102.493 290.947 102.193ZM291.26 97.5938L291.279 98.8633H289.453C288.939 98.8633 288.48 98.9056 288.076 98.9902C287.673 99.0684 287.334 99.1888 287.061 99.3516C286.787 99.5143 286.579 99.7194 286.436 99.9668C286.292 100.208 286.221 100.491 286.221 100.816C286.221 101.148 286.296 101.451 286.445 101.725C286.595 101.998 286.82 102.216 287.119 102.379C287.425 102.535 287.799 102.613 288.242 102.613C288.796 102.613 289.284 102.496 289.707 102.262C290.13 102.027 290.465 101.741 290.713 101.402C290.967 101.064 291.104 100.735 291.123 100.416L291.895 101.285C291.849 101.559 291.725 101.861 291.523 102.193C291.322 102.525 291.051 102.844 290.713 103.15C290.381 103.45 289.984 103.701 289.521 103.902C289.066 104.098 288.551 104.195 287.979 104.195C287.262 104.195 286.634 104.055 286.094 103.775C285.56 103.495 285.143 103.121 284.844 102.652C284.551 102.177 284.404 101.646 284.404 101.061C284.404 100.494 284.515 99.9961 284.736 99.5664C284.958 99.1302 285.277 98.7689 285.693 98.4824C286.11 98.1895 286.611 97.9681 287.197 97.8184C287.783 97.6686 288.438 97.5938 289.16 97.5938H291.26ZM297.402 95.6895V104H295.596V93.4336H297.305L297.402 95.6895ZM296.973 98.3164L296.221 98.2871C296.227 97.5645 296.335 96.8971 296.543 96.2852C296.751 95.6667 297.044 95.1296 297.422 94.6738C297.799 94.2181 298.249 93.8665 298.77 93.6191C299.297 93.3652 299.88 93.2383 300.518 93.2383C301.038 93.2383 301.507 93.3099 301.924 93.4531C302.34 93.5898 302.695 93.8112 302.988 94.1172C303.288 94.4232 303.516 94.8203 303.672 95.3086C303.828 95.7904 303.906 96.3796 303.906 97.0762V104H302.09V97.0566C302.09 96.5033 302.008 96.0605 301.846 95.7285C301.683 95.39 301.445 95.1458 301.133 94.9961C300.82 94.8398 300.436 94.7617 299.98 94.7617C299.531 94.7617 299.121 94.8561 298.75 95.0449C298.385 95.2337 298.07 95.4941 297.803 95.8262C297.542 96.1582 297.337 96.5391 297.188 96.9688C297.044 97.3919 296.973 97.8411 296.973 98.3164ZM315.371 97.2129V98.6973H310.605V97.2129H315.371ZM324.238 98.9609H326.191L323.135 104H321.182L324.238 98.9609ZM325.752 93.4336H330.166V104H328.359V94.8984H325.752C325.238 94.8984 324.818 94.9863 324.492 95.1621C324.167 95.3314 323.929 95.5527 323.779 95.8262C323.63 96.0996 323.555 96.3828 323.555 96.6758C323.555 96.9622 323.623 97.2389 323.76 97.5059C323.896 97.7663 324.111 97.9811 324.404 98.1504C324.697 98.3197 325.075 98.4043 325.537 98.4043H328.848V99.8887H325.537C324.932 99.8887 324.395 99.8073 323.926 99.6445C323.457 99.4818 323.06 99.2572 322.734 98.9707C322.409 98.6777 322.161 98.3359 321.992 97.9453C321.823 97.5482 321.738 97.1185 321.738 96.6562C321.738 96.194 321.826 95.7676 322.002 95.377C322.184 94.9863 322.445 94.6445 322.783 94.3516C323.128 94.0586 323.548 93.834 324.043 93.6777C324.544 93.515 325.114 93.4336 325.752 93.4336ZM337.021 98.9512H335.078V97.8379H336.875C337.376 97.8379 337.773 97.776 338.066 97.6523C338.359 97.5221 338.568 97.3431 338.691 97.1152C338.815 96.8874 338.877 96.6204 338.877 96.3145C338.877 96.041 338.805 95.7839 338.662 95.543C338.525 95.2956 338.304 95.097 337.998 94.9473C337.692 94.791 337.282 94.7129 336.768 94.7129C336.351 94.7129 335.973 94.7878 335.635 94.9375C335.296 95.0807 335.026 95.2793 334.824 95.5332C334.629 95.7806 334.531 96.0605 334.531 96.373H332.725C332.725 95.7285 332.907 95.1751 333.271 94.7129C333.643 94.2441 334.134 93.8828 334.746 93.6289C335.365 93.375 336.038 93.248 336.768 93.248C337.38 93.248 337.926 93.3164 338.408 93.4531C338.896 93.5833 339.31 93.7786 339.648 94.0391C339.987 94.293 340.244 94.612 340.42 94.9961C340.602 95.3737 340.693 95.8132 340.693 96.3145C340.693 96.6725 340.609 97.0111 340.439 97.3301C340.27 97.6491 340.026 97.9323 339.707 98.1797C339.388 98.4206 339.001 98.6094 338.545 98.7461C338.096 98.8828 337.588 98.9512 337.021 98.9512ZM335.078 98.2676H337.021C337.653 98.2676 338.21 98.3294 338.691 98.4531C339.173 98.5703 339.577 98.7461 339.902 98.9805C340.228 99.2148 340.472 99.5046 340.635 99.8496C340.804 100.188 340.889 100.579 340.889 101.021C340.889 101.516 340.788 101.962 340.586 102.359C340.391 102.75 340.111 103.082 339.746 103.355C339.382 103.629 338.945 103.837 338.438 103.98C337.936 104.124 337.38 104.195 336.768 104.195C336.084 104.195 335.42 104.078 334.775 103.844C334.131 103.609 333.6 103.248 333.184 102.76C332.767 102.265 332.559 101.637 332.559 100.875H334.365C334.365 101.194 334.466 101.497 334.668 101.783C334.87 102.07 335.15 102.301 335.508 102.477C335.872 102.652 336.292 102.74 336.768 102.74C337.275 102.74 337.699 102.662 338.037 102.506C338.376 102.35 338.63 102.141 338.799 101.881C338.975 101.62 339.062 101.337 339.062 101.031C339.062 100.634 338.984 100.315 338.828 100.074C338.672 99.8333 338.431 99.6576 338.105 99.5469C337.786 99.4297 337.376 99.3711 336.875 99.3711H335.078V98.2676ZM344.717 97.0664H347.891C348.743 97.0664 349.463 97.2161 350.049 97.5156C350.635 97.8086 351.077 98.2155 351.377 98.7363C351.683 99.2507 351.836 99.8366 351.836 100.494C351.836 100.982 351.751 101.441 351.582 101.871C351.413 102.294 351.159 102.665 350.82 102.984C350.488 103.303 350.075 103.554 349.58 103.736C349.092 103.912 348.529 104 347.891 104H343.398V93.4336H345.205V102.516H347.891C348.411 102.516 348.828 102.421 349.141 102.232C349.453 102.044 349.678 101.799 349.814 101.5C349.951 101.201 350.02 100.888 350.02 100.562C350.02 100.243 349.951 99.931 349.814 99.625C349.678 99.319 349.453 99.0651 349.141 98.8633C348.828 98.6549 348.411 98.5508 347.891 98.5508H344.717V97.0664ZM355.596 93.4336V104H353.789V93.4336H355.596ZM366.729 93.4336V104H364.922V93.4336H366.729ZM366.113 98.2871V99.7715C365.749 99.9082 365.378 100.032 365 100.143C364.629 100.247 364.235 100.331 363.818 100.396C363.408 100.455 362.962 100.484 362.48 100.484C361.647 100.484 360.924 100.341 360.312 100.055C359.701 99.7617 359.229 99.3223 358.896 98.7363C358.564 98.1439 358.398 97.3984 358.398 96.5V93.4141H360.205V96.5C360.205 97.0859 360.293 97.5612 360.469 97.9258C360.645 98.2904 360.902 98.5605 361.24 98.7363C361.579 98.9056 361.992 98.9902 362.48 98.9902C362.949 98.9902 363.389 98.9609 363.799 98.9023C364.215 98.8372 364.613 98.7526 364.99 98.6484C365.374 98.5443 365.749 98.4238 366.113 98.2871ZM376.807 98.0137V99.4785H371.221V98.0137H376.807ZM371.602 93.4336V104H369.795V93.4336H371.602ZM378.271 93.4336V104H376.455V93.4336H378.271ZM383.135 101.139L388.008 93.4336H389.824V104H388.008V96.2949L383.135 104H381.338V93.4336H383.135V101.139ZM394.688 93.4336V104H392.881V93.4336H394.688ZM401.621 93.4336L396.611 99.4883H394.082L393.809 97.9062H395.879L399.424 93.4336H401.621ZM399.678 104L395.791 99.2148L396.953 97.9062L401.973 104H399.678Z" fill="black"/>
<path d="M554.527 74.3203C554.911 74.3203 555.257 74.2454 555.562 74.0957C555.875 73.9395 556.126 73.7246 556.314 73.4512C556.51 73.1777 556.617 72.862 556.637 72.5039H558.854C558.84 73.1875 558.639 73.8092 558.248 74.3691C557.857 74.929 557.34 75.375 556.695 75.707C556.051 76.0326 555.338 76.1953 554.557 76.1953C553.749 76.1953 553.046 76.0586 552.447 75.7852C551.848 75.5052 551.35 75.1211 550.953 74.6328C550.556 74.1445 550.257 73.5814 550.055 72.9434C549.859 72.3053 549.762 71.6217 549.762 70.8926V70.5508C549.762 69.8216 549.859 69.138 550.055 68.5C550.257 67.8555 550.556 67.2891 550.953 66.8008C551.35 66.3125 551.848 65.9316 552.447 65.6582C553.046 65.3783 553.746 65.2383 554.547 65.2383C555.393 65.2383 556.135 65.4076 556.773 65.7461C557.411 66.0781 557.913 66.5436 558.277 67.1426C558.648 67.735 558.84 68.4251 558.854 69.2129H556.637C556.617 68.8223 556.52 68.4707 556.344 68.1582C556.174 67.8392 555.934 67.5853 555.621 67.3965C555.315 67.2077 554.947 67.1133 554.518 67.1133C554.042 67.1133 553.648 67.2109 553.336 67.4062C553.023 67.5951 552.779 67.8555 552.604 68.1875C552.428 68.513 552.301 68.8809 552.223 69.291C552.151 69.6947 552.115 70.1146 552.115 70.5508V70.8926C552.115 71.3288 552.151 71.752 552.223 72.1621C552.294 72.5723 552.418 72.9401 552.594 73.2656C552.776 73.5846 553.023 73.8418 553.336 74.0371C553.648 74.2259 554.046 74.3203 554.527 74.3203ZM563.727 74.8477L566.598 65.4336H569.117L564.879 77.6113C564.781 77.8717 564.654 78.1549 564.498 78.4609C564.342 78.7669 564.137 79.0566 563.883 79.3301C563.635 79.61 563.326 79.8346 562.955 80.0039C562.584 80.1797 562.135 80.2676 561.607 80.2676C561.399 80.2676 561.197 80.248 561.002 80.209C560.813 80.1764 560.634 80.1406 560.465 80.1016L560.455 78.3047C560.52 78.3112 560.598 78.3177 560.689 78.3242C560.787 78.3307 560.865 78.334 560.924 78.334C561.314 78.334 561.64 78.2852 561.9 78.1875C562.161 78.0964 562.372 77.9466 562.535 77.7383C562.704 77.5299 562.848 77.25 562.965 76.8984L563.727 74.8477ZM562.105 65.4336L564.615 73.3438L565.035 75.8242L563.404 76.2441L559.566 65.4336H562.105ZM586.08 74.1348L585.895 79.1348H583.736V76H582.467V74.1348H586.08ZM570.475 65.4336H572.828V74.125H576.188V65.4336H578.551V74.125H581.9V65.4336H584.254V76H570.475V65.4336ZM552.184 95.4648V108.062H550.367V93.4336H552.027L552.184 95.4648ZM559.303 98.6289V98.834C559.303 99.6022 559.212 100.315 559.029 100.973C558.847 101.624 558.58 102.19 558.229 102.672C557.883 103.154 557.457 103.528 556.949 103.795C556.441 104.062 555.859 104.195 555.201 104.195C554.531 104.195 553.938 104.085 553.424 103.863C552.91 103.642 552.473 103.32 552.115 102.896C551.757 102.473 551.471 101.965 551.256 101.373C551.048 100.781 550.904 100.113 550.826 99.3711V98.2773C550.904 97.4961 551.051 96.7962 551.266 96.1777C551.48 95.5592 551.764 95.0319 552.115 94.5957C552.473 94.153 552.906 93.8177 553.414 93.5898C553.922 93.3555 554.508 93.2383 555.172 93.2383C555.836 93.2383 556.425 93.3685 556.939 93.6289C557.454 93.8828 557.887 94.2474 558.238 94.7227C558.59 95.1979 558.854 95.7676 559.029 96.4316C559.212 97.0892 559.303 97.8216 559.303 98.6289ZM557.486 98.834V98.6289C557.486 98.1016 557.431 97.6068 557.32 97.1445C557.21 96.6758 557.037 96.2656 556.803 95.9141C556.575 95.556 556.282 95.276 555.924 95.0742C555.566 94.8659 555.139 94.7617 554.645 94.7617C554.189 94.7617 553.792 94.8398 553.453 94.9961C553.121 95.1523 552.838 95.3639 552.604 95.6309C552.369 95.8913 552.177 96.1908 552.027 96.5293C551.884 96.8613 551.777 97.2064 551.705 97.5645V100.094C551.835 100.549 552.018 100.979 552.252 101.383C552.486 101.78 552.799 102.102 553.189 102.35C553.58 102.59 554.072 102.711 554.664 102.711C555.152 102.711 555.572 102.61 555.924 102.408C556.282 102.2 556.575 101.917 556.803 101.559C557.037 101.201 557.21 100.79 557.32 100.328C557.431 99.8594 557.486 99.3613 557.486 98.834ZM567.838 102.193V96.7539C567.838 96.3372 567.753 95.9759 567.584 95.6699C567.421 95.3574 567.174 95.1165 566.842 94.9473C566.51 94.778 566.1 94.6934 565.611 94.6934C565.156 94.6934 564.755 94.7715 564.41 94.9277C564.072 95.084 563.805 95.2891 563.609 95.543C563.421 95.7969 563.326 96.0703 563.326 96.3633H561.52C561.52 95.9857 561.617 95.6113 561.812 95.2402C562.008 94.8691 562.288 94.5339 562.652 94.2344C563.023 93.9284 563.466 93.6875 563.98 93.5117C564.501 93.3294 565.081 93.2383 565.719 93.2383C566.487 93.2383 567.164 93.3685 567.75 93.6289C568.342 93.8893 568.805 94.2832 569.137 94.8105C569.475 95.3314 569.645 95.9857 569.645 96.7734V101.695C569.645 102.047 569.674 102.421 569.732 102.818C569.798 103.215 569.892 103.557 570.016 103.844V104H568.131C568.04 103.792 567.968 103.515 567.916 103.17C567.864 102.818 567.838 102.493 567.838 102.193ZM568.15 97.5938L568.17 98.8633H566.344C565.829 98.8633 565.37 98.9056 564.967 98.9902C564.563 99.0684 564.225 99.1888 563.951 99.3516C563.678 99.5143 563.469 99.7194 563.326 99.9668C563.183 100.208 563.111 100.491 563.111 100.816C563.111 101.148 563.186 101.451 563.336 101.725C563.486 101.998 563.71 102.216 564.01 102.379C564.316 102.535 564.69 102.613 565.133 102.613C565.686 102.613 566.174 102.496 566.598 102.262C567.021 102.027 567.356 101.741 567.604 101.402C567.857 101.064 567.994 100.735 568.014 100.416L568.785 101.285C568.74 101.559 568.616 101.861 568.414 102.193C568.212 102.525 567.942 102.844 567.604 103.15C567.271 103.45 566.874 103.701 566.412 103.902C565.956 104.098 565.442 104.195 564.869 104.195C564.153 104.195 563.525 104.055 562.984 103.775C562.451 103.495 562.034 103.121 561.734 102.652C561.441 102.177 561.295 101.646 561.295 101.061C561.295 100.494 561.406 99.9961 561.627 99.5664C561.848 99.1302 562.167 98.7689 562.584 98.4824C563.001 98.1895 563.502 97.9681 564.088 97.8184C564.674 97.6686 565.328 97.5938 566.051 97.5938H568.15ZM579.332 93.4336H580.973V103.775C580.973 104.706 580.784 105.501 580.406 106.158C580.029 106.816 579.501 107.314 578.824 107.652C578.154 107.997 577.379 108.17 576.5 108.17C576.135 108.17 575.706 108.111 575.211 107.994C574.723 107.883 574.241 107.691 573.766 107.418C573.297 107.151 572.903 106.79 572.584 106.334L573.531 105.26C573.974 105.794 574.436 106.165 574.918 106.373C575.406 106.581 575.888 106.686 576.363 106.686C576.936 106.686 577.431 106.578 577.848 106.363C578.264 106.148 578.587 105.829 578.814 105.406C579.049 104.99 579.166 104.475 579.166 103.863V95.7578L579.332 93.4336ZM572.057 98.834V98.6289C572.057 97.8216 572.151 97.0892 572.34 96.4316C572.535 95.7676 572.812 95.1979 573.17 94.7227C573.535 94.2474 573.974 93.8828 574.488 93.6289C575.003 93.3685 575.582 93.2383 576.227 93.2383C576.891 93.2383 577.47 93.3555 577.965 93.5898C578.466 93.8177 578.889 94.153 579.234 94.5957C579.586 95.0319 579.863 95.5592 580.064 96.1777C580.266 96.7962 580.406 97.4961 580.484 98.2773V99.1758C580.413 99.9505 580.273 100.647 580.064 101.266C579.863 101.884 579.586 102.411 579.234 102.848C578.889 103.284 578.466 103.619 577.965 103.854C577.464 104.081 576.878 104.195 576.207 104.195C575.576 104.195 575.003 104.062 574.488 103.795C573.98 103.528 573.544 103.154 573.18 102.672C572.815 102.19 572.535 101.624 572.34 100.973C572.151 100.315 572.057 99.6022 572.057 98.834ZM573.863 98.6289V98.834C573.863 99.3613 573.915 99.8561 574.02 100.318C574.13 100.781 574.296 101.188 574.518 101.539C574.745 101.891 575.035 102.167 575.387 102.369C575.738 102.564 576.158 102.662 576.646 102.662C577.245 102.662 577.74 102.535 578.131 102.281C578.521 102.027 578.831 101.692 579.059 101.275C579.293 100.859 579.475 100.406 579.605 99.918V97.5645C579.534 97.2064 579.423 96.8613 579.273 96.5293C579.13 96.1908 578.941 95.8913 578.707 95.6309C578.479 95.3639 578.196 95.1523 577.857 94.9961C577.519 94.8398 577.122 94.7617 576.666 94.7617C576.171 94.7617 575.745 94.8659 575.387 95.0742C575.035 95.276 574.745 95.556 574.518 95.9141C574.296 96.2656 574.13 96.6758 574.02 97.1445C573.915 97.6068 573.863 98.1016 573.863 98.6289ZM589.947 102.193V96.7539C589.947 96.3372 589.863 95.9759 589.693 95.6699C589.531 95.3574 589.283 95.1165 588.951 94.9473C588.619 94.778 588.209 94.6934 587.721 94.6934C587.265 94.6934 586.865 94.7715 586.52 94.9277C586.181 95.084 585.914 95.2891 585.719 95.543C585.53 95.7969 585.436 96.0703 585.436 96.3633H583.629C583.629 95.9857 583.727 95.6113 583.922 95.2402C584.117 94.8691 584.397 94.5339 584.762 94.2344C585.133 93.9284 585.576 93.6875 586.09 93.5117C586.611 93.3294 587.19 93.2383 587.828 93.2383C588.596 93.2383 589.273 93.3685 589.859 93.6289C590.452 93.8893 590.914 94.2832 591.246 94.8105C591.585 95.3314 591.754 95.9857 591.754 96.7734V101.695C591.754 102.047 591.783 102.421 591.842 102.818C591.907 103.215 592.001 103.557 592.125 103.844V104H590.24C590.149 103.792 590.077 103.515 590.025 103.17C589.973 102.818 589.947 102.493 589.947 102.193ZM590.26 97.5938L590.279 98.8633H588.453C587.939 98.8633 587.48 98.9056 587.076 98.9902C586.673 99.0684 586.334 99.1888 586.061 99.3516C585.787 99.5143 585.579 99.7194 585.436 99.9668C585.292 100.208 585.221 100.491 585.221 100.816C585.221 101.148 585.296 101.451 585.445 101.725C585.595 101.998 585.82 102.216 586.119 102.379C586.425 102.535 586.799 102.613 587.242 102.613C587.796 102.613 588.284 102.496 588.707 102.262C589.13 102.027 589.465 101.741 589.713 101.402C589.967 101.064 590.104 100.735 590.123 100.416L590.895 101.285C590.849 101.559 590.725 101.861 590.523 102.193C590.322 102.525 590.051 102.844 589.713 103.15C589.381 103.45 588.984 103.701 588.521 103.902C588.066 104.098 587.551 104.195 586.979 104.195C586.262 104.195 585.634 104.055 585.094 103.775C584.56 103.495 584.143 103.121 583.844 102.652C583.551 102.177 583.404 101.646 583.404 101.061C583.404 100.494 583.515 99.9961 583.736 99.5664C583.958 99.1302 584.277 98.7689 584.693 98.4824C585.11 98.1895 585.611 97.9681 586.197 97.8184C586.783 97.6686 587.438 97.5938 588.16 97.5938H590.26ZM596.402 95.6895V104H594.596V93.4336H596.305L596.402 95.6895ZM595.973 98.3164L595.221 98.2871C595.227 97.5645 595.335 96.8971 595.543 96.2852C595.751 95.6667 596.044 95.1296 596.422 94.6738C596.799 94.2181 597.249 93.8665 597.77 93.6191C598.297 93.3652 598.88 93.2383 599.518 93.2383C600.038 93.2383 600.507 93.3099 600.924 93.4531C601.34 93.5898 601.695 93.8112 601.988 94.1172C602.288 94.4232 602.516 94.8203 602.672 95.3086C602.828 95.7904 602.906 96.3796 602.906 97.0762V104H601.09V97.0566C601.09 96.5033 601.008 96.0605 600.846 95.7285C600.683 95.39 600.445 95.1458 600.133 94.9961C599.82 94.8398 599.436 94.7617 598.98 94.7617C598.531 94.7617 598.121 94.8561 597.75 95.0449C597.385 95.2337 597.07 95.4941 596.803 95.8262C596.542 96.1582 596.337 96.5391 596.188 96.9688C596.044 97.3919 595.973 97.8411 595.973 98.3164ZM609.381 87.75V89.2344H607.516V105.562H609.381V107.047H605.709V87.75H609.381ZM612.926 93.4336V104H611.109V93.4336H612.926ZM610.973 90.6309C610.973 90.3379 611.061 90.0905 611.236 89.8887C611.419 89.6868 611.686 89.5859 612.037 89.5859C612.382 89.5859 612.646 89.6868 612.828 89.8887C613.017 90.0905 613.111 90.3379 613.111 90.6309C613.111 90.9108 613.017 91.1517 612.828 91.3535C612.646 91.5488 612.382 91.6465 612.037 91.6465C611.686 91.6465 611.419 91.5488 611.236 91.3535C611.061 91.1517 610.973 90.9108 610.973 90.6309ZM621.979 101.197C621.979 100.937 621.92 100.696 621.803 100.475C621.692 100.247 621.461 100.042 621.109 99.8594C620.764 99.6706 620.243 99.5078 619.547 99.3711C618.961 99.2474 618.43 99.1009 617.955 98.9316C617.486 98.7624 617.086 98.5573 616.754 98.3164C616.428 98.0755 616.178 97.7923 616.002 97.4668C615.826 97.1413 615.738 96.7604 615.738 96.3242C615.738 95.9076 615.829 95.5137 616.012 95.1426C616.201 94.7715 616.464 94.4427 616.803 94.1562C617.148 93.8698 617.561 93.6452 618.043 93.4824C618.525 93.3197 619.062 93.2383 619.654 93.2383C620.501 93.2383 621.223 93.388 621.822 93.6875C622.421 93.987 622.88 94.3874 623.199 94.8887C623.518 95.3835 623.678 95.9336 623.678 96.5391H621.871C621.871 96.2461 621.783 95.9629 621.607 95.6895C621.438 95.4095 621.188 95.1784 620.855 94.9961C620.53 94.8138 620.13 94.7227 619.654 94.7227C619.153 94.7227 618.746 94.8008 618.434 94.957C618.128 95.1068 617.903 95.2988 617.76 95.5332C617.623 95.7676 617.555 96.015 617.555 96.2754C617.555 96.4707 617.587 96.6465 617.652 96.8027C617.724 96.9525 617.848 97.0924 618.023 97.2227C618.199 97.3464 618.447 97.4635 618.766 97.5742C619.085 97.6849 619.492 97.7956 619.986 97.9062C620.852 98.1016 621.565 98.3359 622.125 98.6094C622.685 98.8828 623.102 99.2181 623.375 99.6152C623.648 100.012 623.785 100.494 623.785 101.061C623.785 101.523 623.688 101.946 623.492 102.33C623.303 102.714 623.027 103.046 622.662 103.326C622.304 103.6 621.874 103.814 621.373 103.971C620.878 104.12 620.322 104.195 619.703 104.195C618.772 104.195 617.984 104.029 617.34 103.697C616.695 103.365 616.207 102.936 615.875 102.408C615.543 101.881 615.377 101.324 615.377 100.738H617.193C617.219 101.233 617.363 101.627 617.623 101.92C617.883 102.206 618.202 102.411 618.58 102.535C618.958 102.652 619.332 102.711 619.703 102.711C620.198 102.711 620.611 102.646 620.943 102.516C621.282 102.385 621.539 102.206 621.715 101.979C621.891 101.751 621.979 101.49 621.979 101.197ZM627.955 95.5332V104H626.139V93.4336H627.857L627.955 95.5332ZM627.584 98.3164L626.744 98.2871C626.751 97.5645 626.845 96.8971 627.027 96.2852C627.21 95.6667 627.48 95.1296 627.838 94.6738C628.196 94.2181 628.642 93.8665 629.176 93.6191C629.71 93.3652 630.328 93.2383 631.031 93.2383C631.526 93.2383 631.982 93.3099 632.398 93.4531C632.815 93.5898 633.176 93.8079 633.482 94.1074C633.788 94.4069 634.026 94.791 634.195 95.2598C634.365 95.7285 634.449 96.2949 634.449 96.959V104H632.643V97.0469C632.643 96.4935 632.548 96.0508 632.359 95.7188C632.177 95.3867 631.917 95.1458 631.578 94.9961C631.24 94.8398 630.842 94.7617 630.387 94.7617C629.853 94.7617 629.407 94.8561 629.049 95.0449C628.691 95.2337 628.404 95.4941 628.189 95.8262C627.975 96.1582 627.818 96.5391 627.721 96.9688C627.63 97.3919 627.584 97.8411 627.584 98.3164ZM634.43 97.3203L633.219 97.6914C633.225 97.112 633.32 96.5553 633.502 96.0215C633.691 95.4876 633.961 95.0124 634.312 94.5957C634.671 94.179 635.11 93.8503 635.631 93.6094C636.152 93.362 636.747 93.2383 637.418 93.2383C637.984 93.2383 638.486 93.3132 638.922 93.4629C639.365 93.6126 639.736 93.8438 640.035 94.1562C640.341 94.4622 640.572 94.8561 640.729 95.3379C640.885 95.8197 640.963 96.3926 640.963 97.0566V104H639.146V97.0371C639.146 96.4447 639.052 95.9857 638.863 95.6602C638.681 95.3281 638.421 95.097 638.082 94.9668C637.75 94.8301 637.353 94.7617 636.891 94.7617C636.493 94.7617 636.142 94.8301 635.836 94.9668C635.53 95.1035 635.273 95.2923 635.064 95.5332C634.856 95.7676 634.697 96.0378 634.586 96.3438C634.482 96.6497 634.43 96.9753 634.43 97.3203ZM642.418 89.2344V87.75H646.109V107.047H642.418V105.562H644.293V89.2344H642.418ZM657.73 97.2129V98.6973H652.965V97.2129H657.73ZM666.598 98.9609H668.551L665.494 104H663.541L666.598 98.9609ZM668.111 93.4336H672.525V104H670.719V94.8984H668.111C667.597 94.8984 667.177 94.9863 666.852 95.1621C666.526 95.3314 666.288 95.5527 666.139 95.8262C665.989 96.0996 665.914 96.3828 665.914 96.6758C665.914 96.9622 665.982 97.2389 666.119 97.5059C666.256 97.7663 666.471 97.9811 666.764 98.1504C667.057 98.3197 667.434 98.4043 667.896 98.4043H671.207V99.8887H667.896C667.291 99.8887 666.754 99.8073 666.285 99.6445C665.816 99.4818 665.419 99.2572 665.094 98.9707C664.768 98.6777 664.521 98.3359 664.352 97.9453C664.182 97.5482 664.098 97.1185 664.098 96.6562C664.098 96.194 664.186 95.7676 664.361 95.377C664.544 94.9863 664.804 94.6445 665.143 94.3516C665.488 94.0586 665.908 93.834 666.402 93.6777C666.904 93.515 667.473 93.4336 668.111 93.4336ZM679.381 98.9512H677.438V97.8379H679.234C679.736 97.8379 680.133 97.776 680.426 97.6523C680.719 97.5221 680.927 97.3431 681.051 97.1152C681.174 96.8874 681.236 96.6204 681.236 96.3145C681.236 96.041 681.165 95.7839 681.021 95.543C680.885 95.2956 680.663 95.097 680.357 94.9473C680.051 94.791 679.641 94.7129 679.127 94.7129C678.71 94.7129 678.333 94.7878 677.994 94.9375C677.656 95.0807 677.385 95.2793 677.184 95.5332C676.988 95.7806 676.891 96.0605 676.891 96.373H675.084C675.084 95.7285 675.266 95.1751 675.631 94.7129C676.002 94.2441 676.493 93.8828 677.105 93.6289C677.724 93.375 678.398 93.248 679.127 93.248C679.739 93.248 680.286 93.3164 680.768 93.4531C681.256 93.5833 681.669 93.7786 682.008 94.0391C682.346 94.293 682.604 94.612 682.779 94.9961C682.962 95.3737 683.053 95.8132 683.053 96.3145C683.053 96.6725 682.968 97.0111 682.799 97.3301C682.63 97.6491 682.385 97.9323 682.066 98.1797C681.747 98.4206 681.36 98.6094 680.904 98.7461C680.455 98.8828 679.947 98.9512 679.381 98.9512ZM677.438 98.2676H679.381C680.012 98.2676 680.569 98.3294 681.051 98.4531C681.533 98.5703 681.936 98.7461 682.262 98.9805C682.587 99.2148 682.831 99.5046 682.994 99.8496C683.163 100.188 683.248 100.579 683.248 101.021C683.248 101.516 683.147 101.962 682.945 102.359C682.75 102.75 682.47 103.082 682.105 103.355C681.741 103.629 681.305 103.837 680.797 103.98C680.296 104.124 679.739 104.195 679.127 104.195C678.443 104.195 677.779 104.078 677.135 103.844C676.49 103.609 675.96 103.248 675.543 102.76C675.126 102.265 674.918 101.637 674.918 100.875H676.725C676.725 101.194 676.826 101.497 677.027 101.783C677.229 102.07 677.509 102.301 677.867 102.477C678.232 102.652 678.652 102.74 679.127 102.74C679.635 102.74 680.058 102.662 680.396 102.506C680.735 102.35 680.989 102.141 681.158 101.881C681.334 101.62 681.422 101.337 681.422 101.031C681.422 100.634 681.344 100.315 681.188 100.074C681.031 99.8333 680.79 99.6576 680.465 99.5469C680.146 99.4297 679.736 99.3711 679.234 99.3711H677.438V98.2676ZM687.076 97.0664H690.25C691.103 97.0664 691.822 97.2161 692.408 97.5156C692.994 97.8086 693.437 98.2155 693.736 98.7363C694.042 99.2507 694.195 99.8366 694.195 100.494C694.195 100.982 694.111 101.441 693.941 101.871C693.772 102.294 693.518 102.665 693.18 102.984C692.848 103.303 692.434 103.554 691.939 103.736C691.451 103.912 690.888 104 690.25 104H685.758V93.4336H687.564V102.516H690.25C690.771 102.516 691.188 102.421 691.5 102.232C691.812 102.044 692.037 101.799 692.174 101.5C692.311 101.201 692.379 100.888 692.379 100.562C692.379 100.243 692.311 99.931 692.174 99.625C692.037 99.319 691.812 99.0651 691.5 98.8633C691.188 98.6549 690.771 98.5508 690.25 98.5508H687.076V97.0664ZM697.955 93.4336V104H696.148V93.4336H697.955ZM709.088 93.4336V104H707.281V93.4336H709.088ZM708.473 98.2871V99.7715C708.108 99.9082 707.737 100.032 707.359 100.143C706.988 100.247 706.594 100.331 706.178 100.396C705.768 100.455 705.322 100.484 704.84 100.484C704.007 100.484 703.284 100.341 702.672 100.055C702.06 99.7617 701.588 99.3223 701.256 98.7363C700.924 98.1439 700.758 97.3984 700.758 96.5V93.4141H702.564V96.5C702.564 97.0859 702.652 97.5612 702.828 97.9258C703.004 98.2904 703.261 98.5605 703.6 98.7363C703.938 98.9056 704.352 98.9902 704.84 98.9902C705.309 98.9902 705.748 98.9609 706.158 98.9023C706.575 98.8372 706.972 98.7526 707.35 98.6484C707.734 98.5443 708.108 98.4238 708.473 98.2871ZM716.383 104.195C715.647 104.195 714.98 104.072 714.381 103.824C713.788 103.57 713.277 103.215 712.848 102.76C712.424 102.304 712.099 101.764 711.871 101.139C711.643 100.514 711.529 99.8301 711.529 99.0879V98.6777C711.529 97.8184 711.656 97.0534 711.91 96.3828C712.164 95.7057 712.509 95.1328 712.945 94.6641C713.382 94.1953 713.876 93.8405 714.43 93.5996C714.983 93.3587 715.556 93.2383 716.148 93.2383C716.904 93.2383 717.555 93.3685 718.102 93.6289C718.655 93.8893 719.107 94.2539 719.459 94.7227C719.811 95.1849 720.071 95.7318 720.24 96.3633C720.41 96.9883 720.494 97.6719 720.494 98.4141V99.2246H712.604V97.75H718.688V97.6133C718.661 97.1445 718.564 96.6888 718.395 96.2461C718.232 95.8034 717.971 95.4388 717.613 95.1523C717.255 94.8659 716.767 94.7227 716.148 94.7227C715.738 94.7227 715.361 94.8105 715.016 94.9863C714.671 95.1556 714.374 95.4095 714.127 95.748C713.88 96.0866 713.688 96.5 713.551 96.9883C713.414 97.4766 713.346 98.0397 713.346 98.6777V99.0879C713.346 99.5892 713.414 100.061 713.551 100.504C713.694 100.94 713.899 101.324 714.166 101.656C714.439 101.988 714.768 102.249 715.152 102.438C715.543 102.626 715.986 102.721 716.48 102.721C717.118 102.721 717.659 102.59 718.102 102.33C718.544 102.07 718.932 101.721 719.264 101.285L720.357 102.154C720.13 102.499 719.84 102.828 719.488 103.141C719.137 103.453 718.704 103.707 718.189 103.902C717.682 104.098 717.079 104.195 716.383 104.195ZM726.832 102.711C727.262 102.711 727.659 102.623 728.023 102.447C728.388 102.271 728.688 102.031 728.922 101.725C729.156 101.412 729.29 101.057 729.322 100.66H731.041C731.008 101.285 730.797 101.868 730.406 102.408C730.022 102.942 729.518 103.375 728.893 103.707C728.268 104.033 727.581 104.195 726.832 104.195C726.038 104.195 725.344 104.055 724.752 103.775C724.166 103.495 723.678 103.111 723.287 102.623C722.903 102.135 722.613 101.575 722.418 100.943C722.229 100.305 722.135 99.6315 722.135 98.9219V98.5117C722.135 97.8021 722.229 97.1315 722.418 96.5C722.613 95.862 722.903 95.2988 723.287 94.8105C723.678 94.3223 724.166 93.9382 724.752 93.6582C725.344 93.3783 726.038 93.2383 726.832 93.2383C727.659 93.2383 728.382 93.4076 729 93.7461C729.618 94.0781 730.104 94.5339 730.455 95.1133C730.813 95.6862 731.008 96.3372 731.041 97.0664H729.322C729.29 96.6302 729.166 96.2363 728.951 95.8848C728.743 95.5332 728.456 95.2533 728.092 95.0449C727.734 94.8301 727.314 94.7227 726.832 94.7227C726.279 94.7227 725.813 94.8333 725.436 95.0547C725.064 95.2695 724.768 95.5625 724.547 95.9336C724.332 96.2982 724.176 96.7051 724.078 97.1543C723.987 97.597 723.941 98.0495 723.941 98.5117V98.9219C723.941 99.3841 723.987 99.8398 724.078 100.289C724.169 100.738 724.322 101.145 724.537 101.51C724.758 101.874 725.055 102.167 725.426 102.389C725.803 102.604 726.272 102.711 726.832 102.711ZM737.379 93.4336V104H735.562V93.4336H737.379ZM740.924 93.4336V94.8984H732.086V93.4336H740.924ZM747.662 99.3516H744.195L744.176 97.9062H747.008C747.568 97.9062 748.033 97.8509 748.404 97.7402C748.782 97.6296 749.065 97.4635 749.254 97.2422C749.443 97.0208 749.537 96.7474 749.537 96.4219C749.537 96.168 749.482 95.9466 749.371 95.7578C749.267 95.5625 749.107 95.403 748.893 95.2793C748.678 95.1491 748.411 95.0547 748.092 94.9961C747.779 94.931 747.411 94.8984 746.988 94.8984H744.674V104H742.867V93.4336H746.988C747.659 93.4336 748.261 93.4922 748.795 93.6094C749.335 93.7266 749.794 93.9056 750.172 94.1465C750.556 94.3809 750.849 94.6803 751.051 95.0449C751.253 95.4095 751.354 95.8392 751.354 96.334C751.354 96.653 751.288 96.9557 751.158 97.2422C751.028 97.5286 750.836 97.7826 750.582 98.0039C750.328 98.2253 750.016 98.4076 749.645 98.5508C749.273 98.6875 748.847 98.7754 748.365 98.8145L747.662 99.3516ZM747.662 104H743.541L744.439 102.535H747.662C748.163 102.535 748.58 102.473 748.912 102.35C749.244 102.219 749.492 102.037 749.654 101.803C749.824 101.562 749.908 101.275 749.908 100.943C749.908 100.611 749.824 100.328 749.654 100.094C749.492 99.8529 749.244 99.6706 748.912 99.5469C748.58 99.4167 748.163 99.3516 747.662 99.3516H744.918L744.938 97.9062H748.365L749.02 98.4531C749.599 98.4987 750.09 98.6419 750.494 98.8828C750.898 99.1237 751.204 99.4297 751.412 99.8008C751.62 100.165 751.725 100.562 751.725 100.992C751.725 101.487 751.63 101.923 751.441 102.301C751.259 102.678 750.992 102.994 750.641 103.248C750.289 103.495 749.863 103.684 749.361 103.814C748.86 103.938 748.294 104 747.662 104ZM753.668 98.834V98.6094C753.668 97.8477 753.779 97.1413 754 96.4902C754.221 95.8327 754.54 95.263 754.957 94.7812C755.374 94.293 755.878 93.9154 756.471 93.6484C757.063 93.375 757.727 93.2383 758.463 93.2383C759.205 93.2383 759.872 93.375 760.465 93.6484C761.064 93.9154 761.572 94.293 761.988 94.7812C762.411 95.263 762.734 95.8327 762.955 96.4902C763.176 97.1413 763.287 97.8477 763.287 98.6094V98.834C763.287 99.5957 763.176 100.302 762.955 100.953C762.734 101.604 762.411 102.174 761.988 102.662C761.572 103.144 761.067 103.521 760.475 103.795C759.889 104.062 759.225 104.195 758.482 104.195C757.74 104.195 757.073 104.062 756.48 103.795C755.888 103.521 755.38 103.144 754.957 102.662C754.54 102.174 754.221 101.604 754 100.953C753.779 100.302 753.668 99.5957 753.668 98.834ZM755.475 98.6094V98.834C755.475 99.3613 755.536 99.8594 755.66 100.328C755.784 100.79 755.969 101.201 756.217 101.559C756.471 101.917 756.786 102.2 757.164 102.408C757.542 102.61 757.981 102.711 758.482 102.711C758.977 102.711 759.41 102.61 759.781 102.408C760.159 102.2 760.471 101.917 760.719 101.559C760.966 101.201 761.152 100.79 761.275 100.328C761.406 99.8594 761.471 99.3613 761.471 98.834V98.6094C761.471 98.0885 761.406 97.597 761.275 97.1348C761.152 96.666 760.963 96.2526 760.709 95.8945C760.462 95.5299 760.149 95.2435 759.771 95.0352C759.4 94.8268 758.964 94.7227 758.463 94.7227C757.968 94.7227 757.532 94.8268 757.154 95.0352C756.783 95.2435 756.471 95.5299 756.217 95.8945C755.969 96.2526 755.784 96.666 755.66 97.1348C755.536 97.597 755.475 98.0885 755.475 98.6094Z" fill="black"/>
<path d="M38.1836 81.3623V85.0708H21.1279V81.3623H38.1836ZM31.6553 74.3896V92.5049H27.6733V74.3896H31.6553ZM54.6924 76.5088V95H50.5566V76.5088H54.6924ZM50.2832 71.6553C50.2832 71.0286 50.4883 70.5103 50.8984 70.1001C51.32 69.6785 51.901 69.4678 52.6416 69.4678C53.3708 69.4678 53.9461 69.6785 54.3677 70.1001C54.7892 70.5103 55 71.0286 55 71.6553C55 72.2705 54.7892 72.7832 54.3677 73.1934C53.9461 73.6035 53.3708 73.8086 52.6416 73.8086C51.901 73.8086 51.32 73.6035 50.8984 73.1934C50.4883 72.7832 50.2832 72.2705 50.2832 71.6553ZM69.5776 89.9927C69.5776 89.5825 69.4751 89.2122 69.27 88.8818C69.0649 88.54 68.6719 88.2324 68.0908 87.959C67.5212 87.6855 66.6781 87.4349 65.5615 87.207C64.5817 86.9906 63.6816 86.7342 62.8613 86.438C62.0524 86.1304 61.3574 85.7601 60.7764 85.3271C60.1953 84.8942 59.7453 84.3815 59.4263 83.7891C59.1073 83.1966 58.9478 82.513 58.9478 81.7383C58.9478 80.9863 59.113 80.2743 59.4434 79.6021C59.7738 78.9299 60.2466 78.3374 60.8618 77.8247C61.4771 77.312 62.2233 76.9076 63.1006 76.6113C63.9893 76.3151 64.9805 76.167 66.0742 76.167C67.6237 76.167 68.951 76.429 70.0562 76.9531C71.1727 77.4658 72.0272 78.1665 72.6196 79.0552C73.2121 79.9325 73.5083 80.9237 73.5083 82.0288H69.3896C69.3896 81.5389 69.2643 81.0832 69.0137 80.6616C68.7744 80.2287 68.4098 79.8812 67.9199 79.6191C67.43 79.3457 66.8148 79.209 66.0742 79.209C65.3678 79.209 64.7811 79.3229 64.314 79.5508C63.8582 79.7673 63.5164 80.0521 63.2886 80.4053C63.0721 80.7585 62.9639 81.1458 62.9639 81.5674C62.9639 81.875 63.0208 82.1541 63.1348 82.4048C63.2601 82.644 63.4652 82.8662 63.75 83.0713C64.0348 83.265 64.4222 83.4473 64.9121 83.6182C65.4134 83.7891 66.04 83.9543 66.792 84.1138C68.2048 84.41 69.4181 84.7917 70.4321 85.2588C71.4575 85.7145 72.2437 86.307 72.7905 87.0361C73.3374 87.7539 73.6108 88.6654 73.6108 89.7705C73.6108 90.5908 73.4342 91.3428 73.0811 92.0264C72.7393 92.6986 72.238 93.2853 71.5771 93.7866C70.9163 94.2765 70.1245 94.6582 69.2017 94.9316C68.2902 95.2051 67.2648 95.3418 66.1255 95.3418C64.4507 95.3418 63.0322 95.0456 61.8701 94.4531C60.708 93.8493 59.825 93.0802 59.2212 92.146C58.6287 91.2004 58.3325 90.2205 58.3325 89.2065H62.3145C62.36 89.9699 62.5708 90.5794 62.9468 91.0352C63.3341 91.4795 63.8127 91.8042 64.3823 92.0093C64.9634 92.203 65.5615 92.2998 66.1768 92.2998C66.9173 92.2998 67.5382 92.203 68.0396 92.0093C68.5409 91.8042 68.9225 91.5308 69.1846 91.189C69.4466 90.8358 69.5776 90.437 69.5776 89.9927ZM81.3354 80.2686V95H77.2168V76.5088H81.0962L81.3354 80.2686ZM80.6689 85.0708L79.2676 85.0537C79.2676 83.7777 79.4271 82.5985 79.7461 81.5161C80.0651 80.4338 80.5322 79.4938 81.1475 78.6963C81.7627 77.8874 82.526 77.2664 83.4375 76.8335C84.3604 76.3892 85.4256 76.167 86.6333 76.167C87.4764 76.167 88.2454 76.2923 88.9404 76.543C89.6468 76.7822 90.2563 77.1639 90.769 77.688C91.2931 78.2121 91.6919 78.8843 91.9653 79.7046C92.2502 80.5249 92.3926 81.5161 92.3926 82.6782V95H88.2739V83.0371C88.2739 82.137 88.1372 81.4307 87.8638 80.918C87.6017 80.4053 87.2201 80.0407 86.7188 79.8242C86.2288 79.5964 85.6421 79.4824 84.9585 79.4824C84.1838 79.4824 83.5229 79.6305 82.9761 79.9268C82.4406 80.223 82.002 80.6274 81.6602 81.1401C81.3184 81.6528 81.0677 82.2453 80.9082 82.9175C80.7487 83.5897 80.6689 84.3075 80.6689 85.0708ZM92.1362 83.9771L90.2051 84.4043C90.2051 83.2878 90.3589 82.2339 90.6665 81.2427C90.9855 80.2401 91.4469 79.3628 92.0508 78.6108C92.666 77.8475 93.4237 77.2493 94.3237 76.8164C95.2238 76.3835 96.2549 76.167 97.417 76.167C98.3626 76.167 99.2057 76.298 99.9463 76.5601C100.698 76.8107 101.336 77.2095 101.86 77.7563C102.384 78.3032 102.783 79.0153 103.057 79.8926C103.33 80.7585 103.467 81.8066 103.467 83.0371V95H99.3311V83.02C99.3311 82.0858 99.1943 81.3623 98.9209 80.8496C98.6589 80.3369 98.2829 79.9837 97.793 79.79C97.3031 79.585 96.7163 79.4824 96.0327 79.4824C95.3947 79.4824 94.8307 79.6021 94.3408 79.8413C93.8623 80.0692 93.4578 80.3939 93.1274 80.8154C92.797 81.2256 92.5464 81.6984 92.3755 82.2339C92.216 82.7694 92.1362 83.3504 92.1362 83.9771Z" fill="black"/>
</g>
<defs>
<clipPath id="clip0_2716_1211">
<rect width="900" height="121" fill="white"/>
</clipPath>
</defs>
</svg>
