<svg width="900" height="122" viewBox="0 0 900 122" fill="none" xmlns="http://www.w3.org/2000/svg">
<g clip-path="url(#clip0_2713_984)">
<rect width="900" height="122" fill="white"/>
<line y1="0.5" x2="900" y2="0.5" stroke="black"/>
<line x1="0.5" x2="0.5" y2="122" stroke="black"/>
<line x1="899.5" y1="1" x2="899.5" y2="121" stroke="black"/>
<path d="M39.1748 25.75V26.9219C39.1748 28.5332 38.9648 29.9785 38.5449 31.2578C38.125 32.5371 37.5244 33.626 36.7432 34.5244C35.9717 35.4229 35.0439 36.1113 33.96 36.5898C32.876 37.0586 31.6748 37.293 30.3564 37.293C29.0479 37.293 27.8516 37.0586 26.7676 36.5898C25.6934 36.1113 24.7607 35.4229 23.9697 34.5244C23.1787 33.626 22.5635 32.5371 22.124 31.2578C21.6943 29.9785 21.4795 28.5332 21.4795 26.9219V25.75C21.4795 24.1387 21.6943 22.6982 22.124 21.4287C22.5537 20.1494 23.1592 19.0605 23.9404 18.1621C24.7314 17.2539 25.6641 16.5654 26.7383 16.0967C27.8223 15.6182 29.0186 15.3789 30.3271 15.3789C31.6455 15.3789 32.8467 15.6182 33.9307 16.0967C35.0146 16.5654 35.9473 17.2539 36.7285 18.1621C37.5098 19.0605 38.1104 20.1494 38.5303 21.4287C38.96 22.6982 39.1748 24.1387 39.1748 25.75ZM35.498 26.9219V25.7207C35.498 24.5293 35.3809 23.4795 35.1465 22.5713C34.9219 21.6533 34.585 20.8867 34.1357 20.2715C33.6963 19.6465 33.1543 19.1777 32.5098 18.8652C31.8652 18.543 31.1377 18.3818 30.3271 18.3818C29.5166 18.3818 28.7939 18.543 28.1592 18.8652C27.5244 19.1777 26.9824 19.6465 26.5332 20.2715C26.0938 20.8867 25.7568 21.6533 25.5225 22.5713C25.2881 23.4795 25.1709 24.5293 25.1709 25.7207V26.9219C25.1709 28.1133 25.2881 29.168 25.5225 30.0859C25.7568 31.0039 26.0986 31.7803 26.5479 32.415C27.0068 33.04 27.5537 33.5137 28.1885 33.8359C28.8232 34.1484 29.5459 34.3047 30.3564 34.3047C31.1768 34.3047 31.9043 34.1484 32.5391 33.8359C33.1738 33.5137 33.7109 33.04 34.1504 32.415C34.5898 31.7803 34.9219 31.0039 35.1465 30.0859C35.3809 29.168 35.498 28.1133 35.498 26.9219ZM46.3086 21.1504V37H42.7783V21.1504H46.3086ZM56.6504 21.1504L49.5166 30.6865H45.4883L45.0195 27.4932H47.9639L52.2412 21.1504H56.6504ZM52.5195 37L47.7441 30.0859L50.5273 28.0791L57.1631 37H52.5195ZM57.8809 29.251V28.9141C57.8809 27.7715 58.0469 26.7119 58.3789 25.7354C58.7109 24.749 59.1895 23.8945 59.8145 23.1719C60.4492 22.4395 61.2207 21.873 62.1289 21.4727C63.0469 21.0625 64.082 20.8574 65.2344 20.8574C66.3965 20.8574 67.4316 21.0625 68.3398 21.4727C69.2578 21.873 70.0342 22.4395 70.6689 23.1719C71.3037 23.8945 71.7871 24.749 72.1191 25.7354C72.4512 26.7119 72.6172 27.7715 72.6172 28.9141V29.251C72.6172 30.3936 72.4512 31.4531 72.1191 32.4297C71.7871 33.4062 71.3037 34.2607 70.6689 34.9932C70.0342 35.7158 69.2627 36.2822 68.3545 36.6924C67.4463 37.0928 66.416 37.293 65.2637 37.293C64.1016 37.293 63.0615 37.0928 62.1436 36.6924C61.2354 36.2822 60.4639 35.7158 59.8291 34.9932C59.1943 34.2607 58.7109 33.4062 58.3789 32.4297C58.0469 31.4531 57.8809 30.3936 57.8809 29.251ZM61.4111 28.9141V29.251C61.4111 29.9639 61.4844 30.6377 61.6309 31.2725C61.7773 31.9072 62.0068 32.4639 62.3193 32.9424C62.6318 33.4209 63.0322 33.7969 63.5205 34.0703C64.0088 34.3438 64.5898 34.4805 65.2637 34.4805C65.918 34.4805 66.4844 34.3438 66.9629 34.0703C67.4512 33.7969 67.8516 33.4209 68.1641 32.9424C68.4766 32.4639 68.7061 31.9072 68.8525 31.2725C69.0088 30.6377 69.0869 29.9639 69.0869 29.251V28.9141C69.0869 28.2109 69.0088 27.5469 68.8525 26.9219C68.7061 26.2871 68.4717 25.7256 68.1494 25.2373C67.8369 24.749 67.4365 24.3682 66.9482 24.0947C66.4697 23.8115 65.8984 23.6699 65.2344 23.6699C64.5703 23.6699 63.9941 23.8115 63.5059 24.0947C63.0273 24.3682 62.6318 24.749 62.3193 25.2373C62.0068 25.7256 61.7773 26.2871 61.6309 26.9219C61.4844 27.5469 61.4111 28.2109 61.4111 28.9141ZM86.4014 27.7715V30.5547H78.1982V27.7715H86.4014ZM79.2236 21.1504V37H75.6934V21.1504H79.2236ZM88.9502 21.1504V37H85.4199V21.1504H88.9502ZM105.444 21.1504V37H101.914V21.1504H105.444ZM103.95 28.167V30.9648C103.521 31.1504 103.037 31.3213 102.5 31.4775C101.973 31.624 101.416 31.7461 100.83 31.8438C100.244 31.9316 99.6533 31.9756 99.0576 31.9756C97.6611 31.9756 96.4551 31.7607 95.4395 31.3311C94.4336 30.9014 93.6572 30.2422 93.1104 29.3535C92.5732 28.4551 92.3047 27.3174 92.3047 25.9404V21.1357H95.8203V25.9404C95.8203 26.7314 95.9375 27.3613 96.1719 27.8301C96.416 28.2988 96.7773 28.6357 97.2559 28.8408C97.7344 29.0459 98.335 29.1484 99.0576 29.1484C99.6631 29.1484 100.234 29.1094 100.771 29.0312C101.309 28.9434 101.841 28.8262 102.368 28.6797C102.896 28.5332 103.423 28.3623 103.95 28.167ZM118.145 33.8213V26.2627C118.145 25.6963 118.042 25.208 117.837 24.7979C117.632 24.3877 117.319 24.0703 116.899 23.8457C116.489 23.6211 115.972 23.5088 115.347 23.5088C114.771 23.5088 114.272 23.6064 113.853 23.8018C113.433 23.9971 113.105 24.2607 112.871 24.5928C112.637 24.9248 112.52 25.3008 112.52 25.7207H109.004C109.004 25.0957 109.155 24.4902 109.458 23.9043C109.761 23.3184 110.2 22.7959 110.776 22.3369C111.353 21.8779 112.041 21.5166 112.842 21.2529C113.643 20.9893 114.541 20.8574 115.537 20.8574C116.729 20.8574 117.783 21.0576 118.701 21.458C119.629 21.8584 120.356 22.4639 120.884 23.2744C121.421 24.0752 121.689 25.0811 121.689 26.292V33.3379C121.689 34.0605 121.738 34.71 121.836 35.2861C121.943 35.8525 122.095 36.3457 122.29 36.7656V37H118.672C118.506 36.6191 118.374 36.1357 118.276 35.5498C118.188 34.9541 118.145 34.3779 118.145 33.8213ZM118.657 27.3613L118.687 29.5439H116.152C115.498 29.5439 114.922 29.6074 114.424 29.7344C113.926 29.8516 113.511 30.0273 113.179 30.2617C112.847 30.4961 112.598 30.7793 112.432 31.1113C112.266 31.4434 112.183 31.8193 112.183 32.2393C112.183 32.6592 112.28 33.0449 112.476 33.3965C112.671 33.7383 112.954 34.0068 113.325 34.2021C113.706 34.3975 114.165 34.4951 114.702 34.4951C115.425 34.4951 116.055 34.3486 116.592 34.0557C117.139 33.7529 117.568 33.3867 117.881 32.957C118.193 32.5176 118.359 32.1025 118.379 31.7119L119.521 33.2793C119.404 33.6797 119.204 34.1094 118.921 34.5684C118.638 35.0273 118.267 35.4668 117.808 35.8867C117.358 36.2969 116.816 36.6338 116.182 36.8975C115.557 37.1611 114.834 37.293 114.014 37.293C112.979 37.293 112.056 37.0879 111.245 36.6777C110.435 36.2578 109.8 35.6963 109.341 34.9932C108.882 34.2803 108.652 33.4746 108.652 32.5762C108.652 31.7363 108.809 30.9941 109.121 30.3496C109.443 29.6953 109.912 29.1484 110.527 28.709C111.152 28.2695 111.914 27.9375 112.812 27.7129C113.711 27.4785 114.736 27.3613 115.889 27.3613H118.657ZM136.206 27.7715V30.5547H128.003V27.7715H136.206ZM129.028 21.1504V37H125.498V21.1504H129.028ZM138.755 21.1504V37H135.225V21.1504H138.755ZM146.167 31.8438L152.393 21.1504H155.923V37H152.393V26.292L146.167 37H142.637V21.1504H146.167V31.8438ZM162.998 29.251H166.66L162.163 37H158.516L162.998 29.251ZM165.576 21.1504H172.373V37H168.857V23.9336H165.576C164.912 23.9336 164.365 24.0508 163.936 24.2852C163.506 24.5098 163.188 24.8076 162.983 25.1787C162.778 25.54 162.676 25.9111 162.676 26.292C162.676 26.6729 162.769 27.0391 162.954 27.3906C163.149 27.7422 163.447 28.0303 163.848 28.2549C164.258 28.4795 164.771 28.5918 165.386 28.5918H170.044V31.1699H165.386C164.409 31.1699 163.535 31.0479 162.764 30.8037C161.992 30.5498 161.338 30.2031 160.801 29.7637C160.264 29.3145 159.854 28.792 159.57 28.1963C159.287 27.5908 159.146 26.9316 159.146 26.2188C159.146 25.4863 159.292 24.8125 159.585 24.1973C159.878 23.582 160.298 23.0449 160.845 22.5859C161.401 22.127 162.075 21.7754 162.866 21.5312C163.667 21.2773 164.57 21.1504 165.576 21.1504Z" fill="black"/>
<path d="M255.903 15.6719V37H252.241V15.6719H255.903ZM268.735 15.6719L260.063 27.8301H254.863L254.365 24.6367H258.027L264.238 15.6719H268.735ZM264.985 37L258.086 27.2734L260.459 24.4463L269.395 37H264.985ZM291.353 21.1504V37H287.822V21.1504H291.353ZM289.858 28.167V30.9648C289.429 31.1504 288.945 31.3213 288.408 31.4775C287.881 31.624 287.324 31.7461 286.738 31.8438C286.152 31.9316 285.562 31.9756 284.966 31.9756C283.569 31.9756 282.363 31.7607 281.348 31.3311C280.342 30.9014 279.565 30.2422 279.019 29.3535C278.481 28.4551 278.213 27.3174 278.213 25.9404V21.1357H281.729V25.9404C281.729 26.7314 281.846 27.3613 282.08 27.8301C282.324 28.2988 282.686 28.6357 283.164 28.8408C283.643 29.0459 284.243 29.1484 284.966 29.1484C285.571 29.1484 286.143 29.1094 286.68 29.0312C287.217 28.9434 287.749 28.8262 288.276 28.6797C288.804 28.5332 289.331 28.3623 289.858 28.167ZM302.104 37.293C300.933 37.293 299.873 37.1025 298.926 36.7217C297.988 36.3311 297.188 35.7891 296.523 35.0957C295.869 34.4023 295.366 33.5869 295.015 32.6494C294.663 31.7119 294.487 30.7012 294.487 29.6172V29.0312C294.487 27.791 294.668 26.668 295.029 25.6621C295.391 24.6562 295.894 23.7969 296.538 23.084C297.183 22.3613 297.944 21.8096 298.823 21.4287C299.702 21.0479 300.654 20.8574 301.68 20.8574C302.812 20.8574 303.804 21.0479 304.653 21.4287C305.503 21.8096 306.206 22.3467 306.763 23.04C307.329 23.7236 307.749 24.5391 308.022 25.4863C308.306 26.4336 308.447 27.4785 308.447 28.6211V30.1299H296.201V27.5957H304.961V27.3174C304.941 26.6826 304.814 26.0869 304.58 25.5303C304.355 24.9736 304.009 24.5244 303.54 24.1826C303.071 23.8408 302.446 23.6699 301.665 23.6699C301.079 23.6699 300.557 23.7969 300.098 24.0508C299.648 24.2949 299.272 24.6514 298.97 25.1201C298.667 25.5889 298.433 26.1553 298.267 26.8193C298.11 27.4736 298.032 28.2109 298.032 29.0312V29.6172C298.032 30.3105 298.125 30.9551 298.311 31.5508C298.506 32.1367 298.789 32.6494 299.16 33.0889C299.531 33.5283 299.98 33.875 300.508 34.1289C301.035 34.373 301.636 34.4951 302.31 34.4951C303.159 34.4951 303.916 34.3242 304.58 33.9824C305.244 33.6406 305.82 33.1572 306.309 32.5322L308.169 34.334C307.827 34.832 307.383 35.3105 306.836 35.7695C306.289 36.2188 305.62 36.585 304.829 36.8682C304.048 37.1514 303.14 37.293 302.104 37.293ZM320.62 32.7227L325.337 21.1504H328.398L321.821 37H319.419L312.856 21.1504H315.918L320.62 32.7227ZM315.01 21.1504V37H311.479V21.1504H315.01ZM326.23 37V21.1504H329.775V37H326.23ZM338.33 35.2715L342.637 21.1504H346.416L340.059 39.417C339.912 39.8076 339.722 40.2324 339.487 40.6914C339.253 41.1504 338.945 41.585 338.564 41.9951C338.193 42.415 337.729 42.752 337.173 43.0059C336.616 43.2695 335.942 43.4014 335.151 43.4014C334.839 43.4014 334.536 43.3721 334.243 43.3135C333.96 43.2646 333.691 43.2109 333.438 43.1523L333.423 40.457C333.521 40.4668 333.638 40.4766 333.774 40.4863C333.921 40.4961 334.038 40.501 334.126 40.501C334.712 40.501 335.2 40.4277 335.591 40.2812C335.981 40.1445 336.299 39.9199 336.543 39.6074C336.797 39.2949 337.012 38.875 337.188 38.3477L338.33 35.2715ZM335.898 21.1504L339.663 33.0156L340.293 36.7363L337.847 37.3662L332.09 21.1504H335.898ZM366.543 21.1504V23.9629H358.721V21.1504H366.543ZM359.556 21.1504V37H356.025V21.1504H359.556ZM369.312 21.1504V37H365.767V21.1504H369.312ZM376.592 24.1973V43.0938H373.062V21.1504H376.313L376.592 24.1973ZM386.919 28.9287V29.2363C386.919 30.3887 386.782 31.458 386.509 32.4443C386.245 33.4209 385.85 34.2754 385.322 35.0078C384.805 35.7305 384.165 36.292 383.403 36.6924C382.642 37.0928 381.763 37.293 380.767 37.293C379.78 37.293 378.916 37.1123 378.174 36.751C377.441 36.3799 376.821 35.8574 376.313 35.1836C375.806 34.5098 375.396 33.7188 375.083 32.8105C374.78 31.8926 374.565 30.8867 374.438 29.793V28.6064C374.565 27.4443 374.78 26.3896 375.083 25.4424C375.396 24.4951 375.806 23.6797 376.313 22.9961C376.821 22.3125 377.441 21.7852 378.174 21.4141C378.906 21.043 379.761 20.8574 380.737 20.8574C381.733 20.8574 382.617 21.0527 383.389 21.4434C384.16 21.8242 384.81 22.3711 385.337 23.084C385.864 23.7871 386.26 24.6367 386.523 25.6328C386.787 26.6191 386.919 27.7178 386.919 28.9287ZM383.389 29.2363V28.9287C383.389 28.1963 383.32 27.5176 383.184 26.8926C383.047 26.2578 382.832 25.7012 382.539 25.2227C382.246 24.7441 381.87 24.373 381.411 24.1094C380.962 23.8359 380.42 23.6992 379.785 23.6992C379.16 23.6992 378.623 23.8066 378.174 24.0215C377.725 24.2266 377.349 24.5146 377.046 24.8857C376.743 25.2568 376.509 25.6914 376.343 26.1895C376.177 26.6777 376.06 27.21 375.991 27.7861V30.6279C376.108 31.3311 376.309 31.9756 376.592 32.5615C376.875 33.1475 377.275 33.6162 377.793 33.9678C378.32 34.3096 378.994 34.4805 379.814 34.4805C380.449 34.4805 380.991 34.3438 381.44 34.0703C381.89 33.7969 382.256 33.4209 382.539 32.9424C382.832 32.4541 383.047 31.8926 383.184 31.2578C383.32 30.623 383.389 29.9492 383.389 29.2363ZM393.569 31.8438L399.795 21.1504H403.325V37H399.795V26.292L393.569 37H390.039V21.1504H393.569V31.8438ZM413.535 34.4805C414.111 34.4805 414.629 34.3682 415.088 34.1436C415.557 33.9092 415.933 33.5869 416.216 33.1768C416.509 32.7666 416.67 32.293 416.699 31.7559H420.024C420.005 32.7812 419.702 33.7139 419.116 34.5537C418.53 35.3936 417.754 36.0625 416.787 36.5605C415.82 37.0488 414.751 37.293 413.579 37.293C412.368 37.293 411.313 37.0879 410.415 36.6777C409.517 36.2578 408.77 35.6816 408.174 34.9492C407.578 34.2168 407.129 33.3721 406.826 32.415C406.533 31.458 406.387 30.4326 406.387 29.3389V28.8262C406.387 27.7324 406.533 26.707 406.826 25.75C407.129 24.7832 407.578 23.9336 408.174 23.2012C408.77 22.4688 409.517 21.8975 410.415 21.4873C411.313 21.0674 412.363 20.8574 413.564 20.8574C414.834 20.8574 415.947 21.1113 416.904 21.6191C417.861 22.1172 418.613 22.8154 419.16 23.7139C419.717 24.6025 420.005 25.6377 420.024 26.8193H416.699C416.67 26.2334 416.523 25.7061 416.26 25.2373C416.006 24.7588 415.645 24.3779 415.176 24.0947C414.717 23.8115 414.165 23.6699 413.521 23.6699C412.808 23.6699 412.217 23.8164 411.748 24.1094C411.279 24.3926 410.913 24.7832 410.649 25.2812C410.386 25.7695 410.195 26.3213 410.078 26.9365C409.971 27.542 409.917 28.1719 409.917 28.8262V29.3389C409.917 29.9932 409.971 30.6279 410.078 31.2432C410.186 31.8584 410.371 32.4102 410.635 32.8984C410.908 33.377 411.279 33.7627 411.748 34.0557C412.217 34.3389 412.812 34.4805 413.535 34.4805ZM422.061 29.251V28.9141C422.061 27.7715 422.227 26.7119 422.559 25.7354C422.891 24.749 423.369 23.8945 423.994 23.1719C424.629 22.4395 425.4 21.873 426.309 21.4727C427.227 21.0625 428.262 20.8574 429.414 20.8574C430.576 20.8574 431.611 21.0625 432.52 21.4727C433.438 21.873 434.214 22.4395 434.849 23.1719C435.483 23.8945 435.967 24.749 436.299 25.7354C436.631 26.7119 436.797 27.7715 436.797 28.9141V29.251C436.797 30.3936 436.631 31.4531 436.299 32.4297C435.967 33.4062 435.483 34.2607 434.849 34.9932C434.214 35.7158 433.442 36.2822 432.534 36.6924C431.626 37.0928 430.596 37.293 429.443 37.293C428.281 37.293 427.241 37.0928 426.323 36.6924C425.415 36.2822 424.644 35.7158 424.009 34.9932C423.374 34.2607 422.891 33.4062 422.559 32.4297C422.227 31.4531 422.061 30.3936 422.061 29.251ZM425.591 28.9141V29.251C425.591 29.9639 425.664 30.6377 425.811 31.2725C425.957 31.9072 426.187 32.4639 426.499 32.9424C426.812 33.4209 427.212 33.7969 427.7 34.0703C428.188 34.3438 428.77 34.4805 429.443 34.4805C430.098 34.4805 430.664 34.3438 431.143 34.0703C431.631 33.7969 432.031 33.4209 432.344 32.9424C432.656 32.4639 432.886 31.9072 433.032 31.2725C433.188 30.6377 433.267 29.9639 433.267 29.251V28.9141C433.267 28.2109 433.188 27.5469 433.032 26.9219C432.886 26.2871 432.651 25.7256 432.329 25.2373C432.017 24.749 431.616 24.3682 431.128 24.0947C430.649 23.8115 430.078 23.6699 429.414 23.6699C428.75 23.6699 428.174 23.8115 427.686 24.0947C427.207 24.3682 426.812 24.749 426.499 25.2373C426.187 25.7256 425.957 26.2871 425.811 26.9219C425.664 27.5469 425.591 28.2109 425.591 28.9141ZM446.743 37.293C445.571 37.293 444.512 37.1025 443.564 36.7217C442.627 36.3311 441.826 35.7891 441.162 35.0957C440.508 34.4023 440.005 33.5869 439.653 32.6494C439.302 31.7119 439.126 30.7012 439.126 29.6172V29.0312C439.126 27.791 439.307 26.668 439.668 25.6621C440.029 24.6562 440.532 23.7969 441.177 23.084C441.821 22.3613 442.583 21.8096 443.462 21.4287C444.341 21.0479 445.293 20.8574 446.318 20.8574C447.451 20.8574 448.442 21.0479 449.292 21.4287C450.142 21.8096 450.845 22.3467 451.401 23.04C451.968 23.7236 452.388 24.5391 452.661 25.4863C452.944 26.4336 453.086 27.4785 453.086 28.6211V30.1299H440.84V27.5957H449.6V27.3174C449.58 26.6826 449.453 26.0869 449.219 25.5303C448.994 24.9736 448.647 24.5244 448.179 24.1826C447.71 23.8408 447.085 23.6699 446.304 23.6699C445.718 23.6699 445.195 23.7969 444.736 24.0508C444.287 24.2949 443.911 24.6514 443.608 25.1201C443.306 25.5889 443.071 26.1553 442.905 26.8193C442.749 27.4736 442.671 28.2109 442.671 29.0312V29.6172C442.671 30.3105 442.764 30.9551 442.949 31.5508C443.145 32.1367 443.428 32.6494 443.799 33.0889C444.17 33.5283 444.619 33.875 445.146 34.1289C445.674 34.373 446.274 34.4951 446.948 34.4951C447.798 34.4951 448.555 34.3242 449.219 33.9824C449.883 33.6406 450.459 33.1572 450.947 32.5322L452.808 34.334C452.466 34.832 452.021 35.3105 451.475 35.7695C450.928 36.2188 450.259 36.585 449.468 36.8682C448.687 37.1514 447.778 37.293 446.743 37.293ZM458.711 21.1504H462.241L462.065 26.7314C462.017 28.3525 461.831 29.7441 461.509 30.9062C461.187 32.0684 460.767 33.0498 460.249 33.8506C459.731 34.6416 459.146 35.291 458.491 35.7988C457.847 36.3066 457.168 36.707 456.455 37H455.415V34.2168L455.913 34.1875C456.333 33.7383 456.694 33.2891 456.997 32.8398C457.31 32.3809 457.573 31.8779 457.788 31.3311C458.003 30.7744 458.169 30.125 458.286 29.3828C458.413 28.6406 458.496 27.7568 458.535 26.7314L458.711 21.1504ZM459.648 21.1504H469.697V37H466.182V24.1387H459.648V21.1504ZM454.609 34.1875H471.865V41.7168H468.335V37H458.184V41.7168H454.595L454.609 34.1875ZM474.531 35.2422C474.531 34.6953 474.717 34.2363 475.088 33.8652C475.459 33.4844 475.962 33.2939 476.597 33.2939C477.241 33.2939 477.744 33.4844 478.105 33.8652C478.477 34.2363 478.662 34.6953 478.662 35.2422C478.662 35.7891 478.477 36.248 478.105 36.6191C477.744 36.9902 477.241 37.1758 476.597 37.1758C475.962 37.1758 475.459 36.9902 475.088 36.6191C474.717 36.248 474.531 35.7891 474.531 35.2422ZM489.341 30.7158H486.074C486.084 29.8076 486.162 29.0459 486.309 28.4307C486.455 27.8057 486.699 27.2393 487.041 26.7314C487.393 26.2236 487.856 25.6865 488.433 25.1201C488.882 24.6904 489.287 24.2852 489.648 23.9043C490.01 23.5137 490.298 23.1035 490.513 22.6738C490.728 22.2344 490.835 21.7314 490.835 21.165C490.835 20.5498 490.732 20.0273 490.527 19.5977C490.322 19.168 490.02 18.8408 489.619 18.6162C489.229 18.3916 488.74 18.2793 488.154 18.2793C487.666 18.2793 487.207 18.377 486.777 18.5723C486.348 18.7578 486.001 19.0508 485.737 19.4512C485.474 19.8418 485.332 20.3594 485.312 21.0039H481.782C481.802 19.7734 482.095 18.7383 482.661 17.8984C483.228 17.0586 483.989 16.4287 484.946 16.0088C485.903 15.5889 486.973 15.3789 488.154 15.3789C489.463 15.3789 490.581 15.6035 491.509 16.0527C492.437 16.4922 493.145 17.1367 493.633 17.9863C494.131 18.8262 494.38 19.8418 494.38 21.0332C494.38 21.8926 494.209 22.6738 493.867 23.377C493.525 24.0703 493.081 24.7197 492.534 25.3252C491.987 25.9209 491.396 26.5166 490.762 27.1123C490.215 27.6104 489.844 28.1523 489.648 28.7383C489.453 29.3145 489.351 29.9736 489.341 30.7158ZM485.781 35.2861C485.781 34.7588 485.962 34.3145 486.323 33.9531C486.685 33.582 487.178 33.3965 487.803 33.3965C488.428 33.3965 488.921 33.582 489.282 33.9531C489.644 34.3145 489.824 34.7588 489.824 35.2861C489.824 35.8135 489.644 36.2627 489.282 36.6338C488.921 36.9951 488.428 37.1758 487.803 37.1758C487.178 37.1758 486.685 36.9951 486.323 36.6338C485.962 36.2627 485.781 35.8135 485.781 35.2861Z" fill="black"/>
<path d="M551.124 15.6719H554.801V22.2783C554.801 23.2842 554.952 24.0752 555.255 24.6514C555.558 25.2178 556.017 25.6182 556.632 25.8525C557.257 26.0869 558.033 26.2041 558.961 26.2041C559.41 26.2041 559.884 26.1846 560.382 26.1455C560.88 26.1064 561.378 26.0527 561.876 25.9844C562.384 25.9062 562.872 25.8184 563.341 25.7207C563.81 25.6133 564.239 25.4961 564.63 25.3691V28.2842C564.249 28.4014 563.829 28.5137 563.37 28.6211C562.921 28.7285 562.452 28.8213 561.964 28.8994C561.476 28.9678 560.978 29.0215 560.47 29.0605C559.962 29.0996 559.459 29.1191 558.961 29.1191C557.35 29.1191 555.958 28.8896 554.786 28.4307C553.614 27.9619 552.711 27.2246 552.076 26.2188C551.441 25.2129 551.124 23.8994 551.124 22.2783V15.6719ZM563.795 15.6719H567.472V37H563.795V15.6719ZM578.883 21.1504V37H575.338V21.1504H578.883ZM584.083 21.1504V23.9336H570.226V21.1504H584.083ZM585.211 29.251V28.9141C585.211 27.7715 585.377 26.7119 585.709 25.7354C586.041 24.749 586.52 23.8945 587.145 23.1719C587.779 22.4395 588.551 21.873 589.459 21.4727C590.377 21.0625 591.412 20.8574 592.564 20.8574C593.727 20.8574 594.762 21.0625 595.67 21.4727C596.588 21.873 597.364 22.4395 597.999 23.1719C598.634 23.8945 599.117 24.749 599.449 25.7354C599.781 26.7119 599.947 27.7715 599.947 28.9141V29.251C599.947 30.3936 599.781 31.4531 599.449 32.4297C599.117 33.4062 598.634 34.2607 597.999 34.9932C597.364 35.7158 596.593 36.2822 595.685 36.6924C594.776 37.0928 593.746 37.293 592.594 37.293C591.432 37.293 590.392 37.0928 589.474 36.6924C588.565 36.2822 587.794 35.7158 587.159 34.9932C586.524 34.2607 586.041 33.4062 585.709 32.4297C585.377 31.4531 585.211 30.3936 585.211 29.251ZM588.741 28.9141V29.251C588.741 29.9639 588.814 30.6377 588.961 31.2725C589.107 31.9072 589.337 32.4639 589.649 32.9424C589.962 33.4209 590.362 33.7969 590.851 34.0703C591.339 34.3438 591.92 34.4805 592.594 34.4805C593.248 34.4805 593.814 34.3438 594.293 34.0703C594.781 33.7969 595.182 33.4209 595.494 32.9424C595.807 32.4639 596.036 31.9072 596.183 31.2725C596.339 30.6377 596.417 29.9639 596.417 29.251V28.9141C596.417 28.2109 596.339 27.5469 596.183 26.9219C596.036 26.2871 595.802 25.7256 595.479 25.2373C595.167 24.749 594.767 24.3682 594.278 24.0947C593.8 23.8115 593.229 23.6699 592.564 23.6699C591.9 23.6699 591.324 23.8115 590.836 24.0947C590.357 24.3682 589.962 24.749 589.649 25.2373C589.337 25.7256 589.107 26.2871 588.961 26.9219C588.814 27.5469 588.741 28.2109 588.741 28.9141ZM613.248 21.1504H616.778L616.603 26.7314C616.554 28.3525 616.368 29.7441 616.046 30.9062C615.724 32.0684 615.304 33.0498 614.786 33.8506C614.269 34.6416 613.683 35.291 613.028 35.7988C612.384 36.3066 611.705 36.707 610.992 37H609.952V34.2168L610.45 34.1875C610.87 33.7383 611.231 33.2891 611.534 32.8398C611.847 32.3809 612.11 31.8779 612.325 31.3311C612.54 30.7744 612.706 30.125 612.823 29.3828C612.95 28.6406 613.033 27.7568 613.072 26.7314L613.248 21.1504ZM614.186 21.1504H624.234V37H620.719V24.1387H614.186V21.1504ZM609.146 34.1875H626.402V41.7168H622.872V37H612.721V41.7168H609.132L609.146 34.1875ZM637.857 33.8213V26.2627C637.857 25.6963 637.755 25.208 637.55 24.7979C637.345 24.3877 637.032 24.0703 636.612 23.8457C636.202 23.6211 635.685 23.5088 635.06 23.5088C634.483 23.5088 633.985 23.6064 633.565 23.8018C633.146 23.9971 632.818 24.2607 632.584 24.5928C632.35 24.9248 632.232 25.3008 632.232 25.7207H628.717C628.717 25.0957 628.868 24.4902 629.171 23.9043C629.474 23.3184 629.913 22.7959 630.489 22.3369C631.065 21.8779 631.754 21.5166 632.555 21.2529C633.355 20.9893 634.254 20.8574 635.25 20.8574C636.441 20.8574 637.496 21.0576 638.414 21.458C639.342 21.8584 640.069 22.4639 640.597 23.2744C641.134 24.0752 641.402 25.0811 641.402 26.292V33.3379C641.402 34.0605 641.451 34.71 641.549 35.2861C641.656 35.8525 641.808 36.3457 642.003 36.7656V37H638.385C638.219 36.6191 638.087 36.1357 637.989 35.5498C637.901 34.9541 637.857 34.3779 637.857 33.8213ZM638.37 27.3613L638.399 29.5439H635.865C635.211 29.5439 634.635 29.6074 634.137 29.7344C633.639 29.8516 633.224 30.0273 632.892 30.2617C632.56 30.4961 632.311 30.7793 632.145 31.1113C631.979 31.4434 631.896 31.8193 631.896 32.2393C631.896 32.6592 631.993 33.0449 632.188 33.3965C632.384 33.7383 632.667 34.0068 633.038 34.2021C633.419 34.3975 633.878 34.4951 634.415 34.4951C635.138 34.4951 635.768 34.3486 636.305 34.0557C636.852 33.7529 637.281 33.3867 637.594 32.957C637.906 32.5176 638.072 32.1025 638.092 31.7119L639.234 33.2793C639.117 33.6797 638.917 34.1094 638.634 34.5684C638.351 35.0273 637.979 35.4668 637.521 35.8867C637.071 36.2969 636.529 36.6338 635.895 36.8975C635.27 37.1611 634.547 37.293 633.727 37.293C632.691 37.293 631.769 37.0879 630.958 36.6777C630.147 36.2578 629.513 35.6963 629.054 34.9932C628.595 34.2803 628.365 33.4746 628.365 32.5762C628.365 31.7363 628.521 30.9941 628.834 30.3496C629.156 29.6953 629.625 29.1484 630.24 28.709C630.865 28.2695 631.627 27.9375 632.525 27.7129C633.424 27.4785 634.449 27.3613 635.602 27.3613H638.37ZM652.081 37.293C650.909 37.293 649.85 37.1025 648.902 36.7217C647.965 36.3311 647.164 35.7891 646.5 35.0957C645.846 34.4023 645.343 33.5869 644.991 32.6494C644.64 31.7119 644.464 30.7012 644.464 29.6172V29.0312C644.464 27.791 644.645 26.668 645.006 25.6621C645.367 24.6562 645.87 23.7969 646.515 23.084C647.159 22.3613 647.921 21.8096 648.8 21.4287C649.679 21.0479 650.631 20.8574 651.656 20.8574C652.789 20.8574 653.78 21.0479 654.63 21.4287C655.479 21.8096 656.183 22.3467 656.739 23.04C657.306 23.7236 657.726 24.5391 657.999 25.4863C658.282 26.4336 658.424 27.4785 658.424 28.6211V30.1299H646.178V27.5957H654.938V27.3174C654.918 26.6826 654.791 26.0869 654.557 25.5303C654.332 24.9736 653.985 24.5244 653.517 24.1826C653.048 23.8408 652.423 23.6699 651.642 23.6699C651.056 23.6699 650.533 23.7969 650.074 24.0508C649.625 24.2949 649.249 24.6514 648.946 25.1201C648.644 25.5889 648.409 26.1553 648.243 26.8193C648.087 27.4736 648.009 28.2109 648.009 29.0312V29.6172C648.009 30.3105 648.102 30.9551 648.287 31.5508C648.482 32.1367 648.766 32.6494 649.137 33.0889C649.508 33.5283 649.957 33.875 650.484 34.1289C651.012 34.373 651.612 34.4951 652.286 34.4951C653.136 34.4951 653.893 34.3242 654.557 33.9824C655.221 33.6406 655.797 33.1572 656.285 32.5322L658.146 34.334C657.804 34.832 657.359 35.3105 656.812 35.7695C656.266 36.2188 655.597 36.585 654.806 36.8682C654.024 37.1514 653.116 37.293 652.081 37.293ZM646.178 16.9463C646.178 16.4678 646.344 16.0674 646.676 15.7451C647.008 15.4131 647.447 15.2471 647.994 15.2471C648.551 15.2471 648.995 15.4131 649.327 15.7451C649.659 16.0674 649.825 16.4678 649.825 16.9463C649.825 17.415 649.659 17.8154 649.327 18.1475C648.995 18.4697 648.551 18.6309 647.994 18.6309C647.447 18.6309 647.008 18.4697 646.676 18.1475C646.344 17.8154 646.178 17.415 646.178 16.9463ZM652.96 16.9609C652.96 16.4824 653.126 16.082 653.458 15.7598C653.79 15.4277 654.234 15.2617 654.791 15.2617C655.338 15.2617 655.777 15.4277 656.109 15.7598C656.451 16.082 656.622 16.4824 656.622 16.9609C656.622 17.4297 656.451 17.8301 656.109 18.1621C655.777 18.4844 655.338 18.6455 654.791 18.6455C654.234 18.6455 653.79 18.4844 653.458 18.1621C653.126 17.8301 652.96 17.4297 652.96 16.9609ZM668.355 21.1504V37H664.811V21.1504H668.355ZM673.556 21.1504V23.9336H659.698V21.1504H673.556ZM682.521 30.7158H679.254C679.264 29.8076 679.342 29.0459 679.488 28.4307C679.635 27.8057 679.879 27.2393 680.221 26.7314C680.572 26.2236 681.036 25.6865 681.612 25.1201C682.062 24.6904 682.467 24.2852 682.828 23.9043C683.189 23.5137 683.478 23.1035 683.692 22.6738C683.907 22.2344 684.015 21.7314 684.015 21.165C684.015 20.5498 683.912 20.0273 683.707 19.5977C683.502 19.168 683.199 18.8408 682.799 18.6162C682.408 18.3916 681.92 18.2793 681.334 18.2793C680.846 18.2793 680.387 18.377 679.957 18.5723C679.527 18.7578 679.181 19.0508 678.917 19.4512C678.653 19.8418 678.512 20.3594 678.492 21.0039H674.962C674.981 19.7734 675.274 18.7383 675.841 17.8984C676.407 17.0586 677.169 16.4287 678.126 16.0088C679.083 15.5889 680.152 15.3789 681.334 15.3789C682.643 15.3789 683.761 15.6035 684.688 16.0527C685.616 16.4922 686.324 17.1367 686.812 17.9863C687.311 18.8262 687.56 19.8418 687.56 21.0332C687.56 21.8926 687.389 22.6738 687.047 23.377C686.705 24.0703 686.261 24.7197 685.714 25.3252C685.167 25.9209 684.576 26.5166 683.941 27.1123C683.395 27.6104 683.023 28.1523 682.828 28.7383C682.633 29.3145 682.53 29.9736 682.521 30.7158ZM678.961 35.2861C678.961 34.7588 679.142 34.3145 679.503 33.9531C679.864 33.582 680.357 33.3965 680.982 33.3965C681.607 33.3965 682.101 33.582 682.462 33.9531C682.823 34.3145 683.004 34.7588 683.004 35.2861C683.004 35.8135 682.823 36.2627 682.462 36.6338C682.101 36.9951 681.607 37.1758 680.982 37.1758C680.357 37.1758 679.864 36.9951 679.503 36.6338C679.142 36.2627 678.961 35.8135 678.961 35.2861Z" fill="black"/>
<line x1="1" y1="52.5" x2="901" y2="52.5" stroke="black"/>
<line y1="121.5" x2="900" y2="121.5" stroke="black"/>
<path d="M255.527 77.3203C255.911 77.3203 256.257 77.2454 256.562 77.0957C256.875 76.9395 257.126 76.7246 257.314 76.4512C257.51 76.1777 257.617 75.862 257.637 75.5039H259.854C259.84 76.1875 259.639 76.8092 259.248 77.3691C258.857 77.929 258.34 78.375 257.695 78.707C257.051 79.0326 256.338 79.1953 255.557 79.1953C254.749 79.1953 254.046 79.0586 253.447 78.7852C252.848 78.5052 252.35 78.1211 251.953 77.6328C251.556 77.1445 251.257 76.5814 251.055 75.9434C250.859 75.3053 250.762 74.6217 250.762 73.8926V73.5508C250.762 72.8216 250.859 72.138 251.055 71.5C251.257 70.8555 251.556 70.2891 251.953 69.8008C252.35 69.3125 252.848 68.9316 253.447 68.6582C254.046 68.3783 254.746 68.2383 255.547 68.2383C256.393 68.2383 257.135 68.4076 257.773 68.7461C258.411 69.0781 258.913 69.5436 259.277 70.1426C259.648 70.735 259.84 71.4251 259.854 72.2129H257.637C257.617 71.8223 257.52 71.4707 257.344 71.1582C257.174 70.8392 256.934 70.5853 256.621 70.3965C256.315 70.2077 255.947 70.1133 255.518 70.1133C255.042 70.1133 254.648 70.2109 254.336 70.4062C254.023 70.5951 253.779 70.8555 253.604 71.1875C253.428 71.513 253.301 71.8809 253.223 72.291C253.151 72.6947 253.115 73.1146 253.115 73.5508V73.8926C253.115 74.3288 253.151 74.752 253.223 75.1621C253.294 75.5723 253.418 75.9401 253.594 76.2656C253.776 76.5846 254.023 76.8418 254.336 77.0371C254.648 77.2259 255.046 77.3203 255.527 77.3203ZM264.727 77.8477L267.598 68.4336H270.117L265.879 80.6113C265.781 80.8717 265.654 81.1549 265.498 81.4609C265.342 81.7669 265.137 82.0566 264.883 82.3301C264.635 82.61 264.326 82.8346 263.955 83.0039C263.584 83.1797 263.135 83.2676 262.607 83.2676C262.399 83.2676 262.197 83.248 262.002 83.209C261.813 83.1764 261.634 83.1406 261.465 83.1016L261.455 81.3047C261.52 81.3112 261.598 81.3177 261.689 81.3242C261.787 81.3307 261.865 81.334 261.924 81.334C262.314 81.334 262.64 81.2852 262.9 81.1875C263.161 81.0964 263.372 80.9466 263.535 80.7383C263.704 80.5299 263.848 80.25 263.965 79.8984L264.727 77.8477ZM263.105 68.4336L265.615 76.3438L266.035 78.8242L264.404 79.2441L260.566 68.4336H263.105ZM287.08 77.1348L286.895 82.1348H284.736V79H283.467V77.1348H287.08ZM271.475 68.4336H273.828V77.125H277.188V68.4336H279.551V77.125H282.9V68.4336H285.254V79H271.475V68.4336ZM253.184 98.6895V107H251.377V96.4336H253.086L253.184 98.6895ZM252.754 101.316L252.002 101.287C252.008 100.564 252.116 99.8971 252.324 99.2852C252.533 98.6667 252.826 98.1296 253.203 97.6738C253.581 97.2181 254.03 96.8665 254.551 96.6191C255.078 96.3652 255.661 96.2383 256.299 96.2383C256.82 96.2383 257.288 96.3099 257.705 96.4531C258.122 96.5898 258.477 96.8112 258.77 97.1172C259.069 97.4232 259.297 97.8203 259.453 98.3086C259.609 98.7904 259.688 99.3796 259.688 100.076V107H257.871V100.057C257.871 99.5033 257.79 99.0605 257.627 98.7285C257.464 98.39 257.227 98.1458 256.914 97.9961C256.602 97.8398 256.217 97.7617 255.762 97.7617C255.312 97.7617 254.902 97.8561 254.531 98.0449C254.167 98.2337 253.851 98.4941 253.584 98.8262C253.324 99.1582 253.118 99.5391 252.969 99.9688C252.826 100.392 252.754 100.841 252.754 101.316ZM261.953 101.834V101.609C261.953 100.848 262.064 100.141 262.285 99.4902C262.507 98.8327 262.826 98.263 263.242 97.7812C263.659 97.293 264.163 96.9154 264.756 96.6484C265.348 96.375 266.012 96.2383 266.748 96.2383C267.49 96.2383 268.158 96.375 268.75 96.6484C269.349 96.9154 269.857 97.293 270.273 97.7812C270.697 98.263 271.019 98.8327 271.24 99.4902C271.462 100.141 271.572 100.848 271.572 101.609V101.834C271.572 102.596 271.462 103.302 271.24 103.953C271.019 104.604 270.697 105.174 270.273 105.662C269.857 106.144 269.352 106.521 268.76 106.795C268.174 107.062 267.51 107.195 266.768 107.195C266.025 107.195 265.358 107.062 264.766 106.795C264.173 106.521 263.665 106.144 263.242 105.662C262.826 105.174 262.507 104.604 262.285 103.953C262.064 103.302 261.953 102.596 261.953 101.834ZM263.76 101.609V101.834C263.76 102.361 263.822 102.859 263.945 103.328C264.069 103.79 264.255 104.201 264.502 104.559C264.756 104.917 265.072 105.2 265.449 105.408C265.827 105.61 266.266 105.711 266.768 105.711C267.262 105.711 267.695 105.61 268.066 105.408C268.444 105.2 268.757 104.917 269.004 104.559C269.251 104.201 269.437 103.79 269.561 103.328C269.691 102.859 269.756 102.361 269.756 101.834V101.609C269.756 101.089 269.691 100.597 269.561 100.135C269.437 99.666 269.248 99.2526 268.994 98.8945C268.747 98.5299 268.434 98.2435 268.057 98.0352C267.686 97.8268 267.249 97.7227 266.748 97.7227C266.253 97.7227 265.817 97.8268 265.439 98.0352C265.068 98.2435 264.756 98.5299 264.502 98.8945C264.255 99.2526 264.069 99.666 263.945 100.135C263.822 100.597 263.76 101.089 263.76 101.609ZM275.801 96.4336V107H273.984V96.4336H275.801ZM273.848 93.6309C273.848 93.3379 273.936 93.0905 274.111 92.8887C274.294 92.6868 274.561 92.5859 274.912 92.5859C275.257 92.5859 275.521 92.6868 275.703 92.8887C275.892 93.0905 275.986 93.3379 275.986 93.6309C275.986 93.9108 275.892 94.1517 275.703 94.3535C275.521 94.5488 275.257 94.6465 274.912 94.6465C274.561 94.6465 274.294 94.5488 274.111 94.3535C273.936 94.1517 273.848 93.9108 273.848 93.6309ZM284.854 104.197C284.854 103.937 284.795 103.696 284.678 103.475C284.567 103.247 284.336 103.042 283.984 102.859C283.639 102.671 283.118 102.508 282.422 102.371C281.836 102.247 281.305 102.101 280.83 101.932C280.361 101.762 279.961 101.557 279.629 101.316C279.303 101.076 279.053 100.792 278.877 100.467C278.701 100.141 278.613 99.7604 278.613 99.3242C278.613 98.9076 278.704 98.5137 278.887 98.1426C279.076 97.7715 279.339 97.4427 279.678 97.1562C280.023 96.8698 280.436 96.6452 280.918 96.4824C281.4 96.3197 281.937 96.2383 282.529 96.2383C283.376 96.2383 284.098 96.388 284.697 96.6875C285.296 96.987 285.755 97.3874 286.074 97.8887C286.393 98.3835 286.553 98.9336 286.553 99.5391H284.746C284.746 99.2461 284.658 98.9629 284.482 98.6895C284.313 98.4095 284.062 98.1784 283.73 97.9961C283.405 97.8138 283.005 97.7227 282.529 97.7227C282.028 97.7227 281.621 97.8008 281.309 97.957C281.003 98.1068 280.778 98.2988 280.635 98.5332C280.498 98.7676 280.43 99.015 280.43 99.2754C280.43 99.4707 280.462 99.6465 280.527 99.8027C280.599 99.9525 280.723 100.092 280.898 100.223C281.074 100.346 281.322 100.464 281.641 100.574C281.96 100.685 282.367 100.796 282.861 100.906C283.727 101.102 284.44 101.336 285 101.609C285.56 101.883 285.977 102.218 286.25 102.615C286.523 103.012 286.66 103.494 286.66 104.061C286.66 104.523 286.562 104.946 286.367 105.33C286.178 105.714 285.902 106.046 285.537 106.326C285.179 106.6 284.749 106.814 284.248 106.971C283.753 107.12 283.197 107.195 282.578 107.195C281.647 107.195 280.859 107.029 280.215 106.697C279.57 106.365 279.082 105.936 278.75 105.408C278.418 104.881 278.252 104.324 278.252 103.738H280.068C280.094 104.233 280.238 104.627 280.498 104.92C280.758 105.206 281.077 105.411 281.455 105.535C281.833 105.652 282.207 105.711 282.578 105.711C283.073 105.711 283.486 105.646 283.818 105.516C284.157 105.385 284.414 105.206 284.59 104.979C284.766 104.751 284.854 104.49 284.854 104.197ZM293.418 107.195C292.682 107.195 292.015 107.072 291.416 106.824C290.824 106.57 290.312 106.215 289.883 105.76C289.46 105.304 289.134 104.764 288.906 104.139C288.678 103.514 288.564 102.83 288.564 102.088V101.678C288.564 100.818 288.691 100.053 288.945 99.3828C289.199 98.7057 289.544 98.1328 289.98 97.6641C290.417 97.1953 290.911 96.8405 291.465 96.5996C292.018 96.3587 292.591 96.2383 293.184 96.2383C293.939 96.2383 294.59 96.3685 295.137 96.6289C295.69 96.8893 296.143 97.2539 296.494 97.7227C296.846 98.1849 297.106 98.7318 297.275 99.3633C297.445 99.9883 297.529 100.672 297.529 101.414V102.225H289.639V100.75H295.723V100.613C295.697 100.145 295.599 99.6888 295.43 99.2461C295.267 98.8034 295.007 98.4388 294.648 98.1523C294.29 97.8659 293.802 97.7227 293.184 97.7227C292.773 97.7227 292.396 97.8105 292.051 97.9863C291.706 98.1556 291.41 98.4095 291.162 98.748C290.915 99.0866 290.723 99.5 290.586 99.9883C290.449 100.477 290.381 101.04 290.381 101.678V102.088C290.381 102.589 290.449 103.061 290.586 103.504C290.729 103.94 290.934 104.324 291.201 104.656C291.475 104.988 291.803 105.249 292.188 105.438C292.578 105.626 293.021 105.721 293.516 105.721C294.154 105.721 294.694 105.59 295.137 105.33C295.579 105.07 295.967 104.721 296.299 104.285L297.393 105.154C297.165 105.499 296.875 105.828 296.523 106.141C296.172 106.453 295.739 106.707 295.225 106.902C294.717 107.098 294.115 107.195 293.418 107.195ZM308.359 100.213V101.697H303.594V100.213H308.359ZM315.244 96.4336H317.051V105.516H320.918V96.4336H322.734V105.516H326.592V96.4336H328.398V107H315.244V96.4336ZM334.248 105.906L337.188 96.4336H339.121L334.883 108.631C334.785 108.891 334.655 109.171 334.492 109.471C334.336 109.777 334.134 110.066 333.887 110.34C333.639 110.613 333.34 110.835 332.988 111.004C332.643 111.18 332.23 111.268 331.748 111.268C331.605 111.268 331.423 111.248 331.201 111.209C330.98 111.17 330.824 111.137 330.732 111.111L330.723 109.646C330.775 109.653 330.856 109.66 330.967 109.666C331.084 109.679 331.165 109.686 331.211 109.686C331.621 109.686 331.969 109.63 332.256 109.52C332.542 109.415 332.783 109.236 332.979 108.982C333.18 108.735 333.353 108.393 333.496 107.957L334.248 105.906ZM332.09 96.4336L334.834 104.637L335.303 106.541L334.004 107.205L330.117 96.4336H332.09ZM346.826 104.598L350.42 96.4336H352.158L347.451 107H346.201L341.514 96.4336H343.252L346.826 104.598ZM342.725 96.4336V107H340.918V96.4336H342.725ZM350.869 107V96.4336H352.686V107H350.869Z" fill="black"/>
<path d="M557.301 68.4336V70.3086H552.086V68.4336H557.301ZM552.643 68.4336V79H550.289V68.4336H552.643ZM559.146 68.4336V79H556.783V68.4336H559.146ZM564 70.4648V83.0625H561.646V68.4336H563.814L564 70.4648ZM570.885 73.6191V73.8242C570.885 74.5924 570.794 75.3053 570.611 75.9629C570.436 76.6139 570.172 77.1836 569.82 77.6719C569.475 78.1536 569.049 78.528 568.541 78.7949C568.033 79.0618 567.447 79.1953 566.783 79.1953C566.126 79.1953 565.549 79.0749 565.055 78.834C564.566 78.5866 564.153 78.2383 563.814 77.7891C563.476 77.3398 563.202 76.8125 562.994 76.207C562.792 75.5951 562.649 74.9245 562.564 74.1953V73.4043C562.649 72.6296 562.792 71.9264 562.994 71.2949C563.202 70.6634 563.476 70.1198 563.814 69.6641C564.153 69.2083 564.566 68.8568 565.055 68.6094C565.543 68.362 566.113 68.2383 566.764 68.2383C567.428 68.2383 568.017 68.3685 568.531 68.6289C569.046 68.8828 569.479 69.2474 569.83 69.7227C570.182 70.1914 570.445 70.7578 570.621 71.4219C570.797 72.0794 570.885 72.8118 570.885 73.6191ZM568.531 73.8242V73.6191C568.531 73.1309 568.486 72.6784 568.395 72.2617C568.303 71.8385 568.16 71.4674 567.965 71.1484C567.77 70.8294 567.519 70.582 567.213 70.4062C566.913 70.224 566.552 70.1328 566.129 70.1328C565.712 70.1328 565.354 70.2044 565.055 70.3477C564.755 70.4844 564.505 70.6764 564.303 70.9238C564.101 71.1712 563.945 71.4609 563.834 71.793C563.723 72.1185 563.645 72.4733 563.6 72.8574V74.752C563.678 75.2207 563.811 75.6504 564 76.041C564.189 76.4316 564.456 76.7441 564.801 76.9785C565.152 77.2064 565.602 77.3203 566.148 77.3203C566.572 77.3203 566.933 77.2292 567.232 77.0469C567.532 76.8646 567.776 76.6139 567.965 76.2949C568.16 75.9694 568.303 75.5951 568.395 75.1719C568.486 74.7487 568.531 74.2995 568.531 73.8242ZM575.318 75.5625L579.469 68.4336H581.822V79H579.469V71.8613L575.318 79H572.965V68.4336H575.318V75.5625ZM591.412 68.4336V70.3086H586.256V68.4336H591.412ZM593.258 68.4336V79H590.904V68.4336H593.258ZM585.68 68.4336H588.004L587.721 73.6582C587.682 74.4329 587.604 75.1165 587.486 75.709C587.376 76.2949 587.226 76.7995 587.037 77.2227C586.848 77.6393 586.617 77.9779 586.344 78.2383C586.07 78.4987 585.751 78.6908 585.387 78.8145C585.022 78.9382 584.612 79 584.156 79H583.424L583.414 77.0664L583.785 77.0371C584.026 77.0176 584.234 76.9557 584.41 76.8516C584.586 76.7409 584.736 76.5846 584.859 76.3828C584.99 76.181 585.094 75.9206 585.172 75.6016C585.257 75.2826 585.322 74.9049 585.367 74.4688C585.419 74.0326 585.458 73.5247 585.484 72.9453L585.68 68.4336ZM552.184 98.6895V107H550.377V96.4336H552.086L552.184 98.6895ZM551.754 101.316L551.002 101.287C551.008 100.564 551.116 99.8971 551.324 99.2852C551.533 98.6667 551.826 98.1296 552.203 97.6738C552.581 97.2181 553.03 96.8665 553.551 96.6191C554.078 96.3652 554.661 96.2383 555.299 96.2383C555.82 96.2383 556.288 96.3099 556.705 96.4531C557.122 96.5898 557.477 96.8112 557.77 97.1172C558.069 97.4232 558.297 97.8203 558.453 98.3086C558.609 98.7904 558.688 99.3796 558.688 100.076V107H556.871V100.057C556.871 99.5033 556.79 99.0605 556.627 98.7285C556.464 98.39 556.227 98.1458 555.914 97.9961C555.602 97.8398 555.217 97.7617 554.762 97.7617C554.312 97.7617 553.902 97.8561 553.531 98.0449C553.167 98.2337 552.851 98.4941 552.584 98.8262C552.324 99.1582 552.118 99.5391 551.969 99.9688C551.826 100.392 551.754 100.841 551.754 101.316ZM560.953 101.834V101.609C560.953 100.848 561.064 100.141 561.285 99.4902C561.507 98.8327 561.826 98.263 562.242 97.7812C562.659 97.293 563.163 96.9154 563.756 96.6484C564.348 96.375 565.012 96.2383 565.748 96.2383C566.49 96.2383 567.158 96.375 567.75 96.6484C568.349 96.9154 568.857 97.293 569.273 97.7812C569.697 98.263 570.019 98.8327 570.24 99.4902C570.462 100.141 570.572 100.848 570.572 101.609V101.834C570.572 102.596 570.462 103.302 570.24 103.953C570.019 104.604 569.697 105.174 569.273 105.662C568.857 106.144 568.352 106.521 567.76 106.795C567.174 107.062 566.51 107.195 565.768 107.195C565.025 107.195 564.358 107.062 563.766 106.795C563.173 106.521 562.665 106.144 562.242 105.662C561.826 105.174 561.507 104.604 561.285 103.953C561.064 103.302 560.953 102.596 560.953 101.834ZM562.76 101.609V101.834C562.76 102.361 562.822 102.859 562.945 103.328C563.069 103.79 563.255 104.201 563.502 104.559C563.756 104.917 564.072 105.2 564.449 105.408C564.827 105.61 565.266 105.711 565.768 105.711C566.262 105.711 566.695 105.61 567.066 105.408C567.444 105.2 567.757 104.917 568.004 104.559C568.251 104.201 568.437 103.79 568.561 103.328C568.691 102.859 568.756 102.361 568.756 101.834V101.609C568.756 101.089 568.691 100.597 568.561 100.135C568.437 99.666 568.248 99.2526 567.994 98.8945C567.747 98.5299 567.434 98.2435 567.057 98.0352C566.686 97.8268 566.249 97.7227 565.748 97.7227C565.253 97.7227 564.817 97.8268 564.439 98.0352C564.068 98.2435 563.756 98.5299 563.502 98.8945C563.255 99.2526 563.069 99.666 562.945 100.135C562.822 100.597 562.76 101.089 562.76 101.609ZM574.801 96.4336V107H572.984V96.4336H574.801ZM572.848 93.6309C572.848 93.3379 572.936 93.0905 573.111 92.8887C573.294 92.6868 573.561 92.5859 573.912 92.5859C574.257 92.5859 574.521 92.6868 574.703 92.8887C574.892 93.0905 574.986 93.3379 574.986 93.6309C574.986 93.9108 574.892 94.1517 574.703 94.3535C574.521 94.5488 574.257 94.6465 573.912 94.6465C573.561 94.6465 573.294 94.5488 573.111 94.3535C572.936 94.1517 572.848 93.9108 572.848 93.6309ZM583.854 104.197C583.854 103.937 583.795 103.696 583.678 103.475C583.567 103.247 583.336 103.042 582.984 102.859C582.639 102.671 582.118 102.508 581.422 102.371C580.836 102.247 580.305 102.101 579.83 101.932C579.361 101.762 578.961 101.557 578.629 101.316C578.303 101.076 578.053 100.792 577.877 100.467C577.701 100.141 577.613 99.7604 577.613 99.3242C577.613 98.9076 577.704 98.5137 577.887 98.1426C578.076 97.7715 578.339 97.4427 578.678 97.1562C579.023 96.8698 579.436 96.6452 579.918 96.4824C580.4 96.3197 580.937 96.2383 581.529 96.2383C582.376 96.2383 583.098 96.388 583.697 96.6875C584.296 96.987 584.755 97.3874 585.074 97.8887C585.393 98.3835 585.553 98.9336 585.553 99.5391H583.746C583.746 99.2461 583.658 98.9629 583.482 98.6895C583.313 98.4095 583.062 98.1784 582.73 97.9961C582.405 97.8138 582.005 97.7227 581.529 97.7227C581.028 97.7227 580.621 97.8008 580.309 97.957C580.003 98.1068 579.778 98.2988 579.635 98.5332C579.498 98.7676 579.43 99.015 579.43 99.2754C579.43 99.4707 579.462 99.6465 579.527 99.8027C579.599 99.9525 579.723 100.092 579.898 100.223C580.074 100.346 580.322 100.464 580.641 100.574C580.96 100.685 581.367 100.796 581.861 100.906C582.727 101.102 583.44 101.336 584 101.609C584.56 101.883 584.977 102.218 585.25 102.615C585.523 103.012 585.66 103.494 585.66 104.061C585.66 104.523 585.562 104.946 585.367 105.33C585.178 105.714 584.902 106.046 584.537 106.326C584.179 106.6 583.749 106.814 583.248 106.971C582.753 107.12 582.197 107.195 581.578 107.195C580.647 107.195 579.859 107.029 579.215 106.697C578.57 106.365 578.082 105.936 577.75 105.408C577.418 104.881 577.252 104.324 577.252 103.738H579.068C579.094 104.233 579.238 104.627 579.498 104.92C579.758 105.206 580.077 105.411 580.455 105.535C580.833 105.652 581.207 105.711 581.578 105.711C582.073 105.711 582.486 105.646 582.818 105.516C583.157 105.385 583.414 105.206 583.59 104.979C583.766 104.751 583.854 104.49 583.854 104.197ZM592.418 107.195C591.682 107.195 591.015 107.072 590.416 106.824C589.824 106.57 589.312 106.215 588.883 105.76C588.46 105.304 588.134 104.764 587.906 104.139C587.678 103.514 587.564 102.83 587.564 102.088V101.678C587.564 100.818 587.691 100.053 587.945 99.3828C588.199 98.7057 588.544 98.1328 588.98 97.6641C589.417 97.1953 589.911 96.8405 590.465 96.5996C591.018 96.3587 591.591 96.2383 592.184 96.2383C592.939 96.2383 593.59 96.3685 594.137 96.6289C594.69 96.8893 595.143 97.2539 595.494 97.7227C595.846 98.1849 596.106 98.7318 596.275 99.3633C596.445 99.9883 596.529 100.672 596.529 101.414V102.225H588.639V100.75H594.723V100.613C594.697 100.145 594.599 99.6888 594.43 99.2461C594.267 98.8034 594.007 98.4388 593.648 98.1523C593.29 97.8659 592.802 97.7227 592.184 97.7227C591.773 97.7227 591.396 97.8105 591.051 97.9863C590.706 98.1556 590.41 98.4095 590.162 98.748C589.915 99.0866 589.723 99.5 589.586 99.9883C589.449 100.477 589.381 101.04 589.381 101.678V102.088C589.381 102.589 589.449 103.061 589.586 103.504C589.729 103.94 589.934 104.324 590.201 104.656C590.475 104.988 590.803 105.249 591.188 105.438C591.578 105.626 592.021 105.721 592.516 105.721C593.154 105.721 593.694 105.59 594.137 105.33C594.579 105.07 594.967 104.721 595.299 104.285L596.393 105.154C596.165 105.499 595.875 105.828 595.523 106.141C595.172 106.453 594.739 106.707 594.225 106.902C593.717 107.098 593.115 107.195 592.418 107.195ZM602.369 90.75V92.2344H600.504V108.562H602.369V110.047H598.697V90.75H602.369ZM605.914 92V107H604.098V92H605.914ZM613.199 107.195C612.464 107.195 611.796 107.072 611.197 106.824C610.605 106.57 610.094 106.215 609.664 105.76C609.241 105.304 608.915 104.764 608.688 104.139C608.46 103.514 608.346 102.83 608.346 102.088V101.678C608.346 100.818 608.473 100.053 608.727 99.3828C608.98 98.7057 609.326 98.1328 609.762 97.6641C610.198 97.1953 610.693 96.8405 611.246 96.5996C611.799 96.3587 612.372 96.2383 612.965 96.2383C613.72 96.2383 614.371 96.3685 614.918 96.6289C615.471 96.8893 615.924 97.2539 616.275 97.7227C616.627 98.1849 616.887 98.7318 617.057 99.3633C617.226 99.9883 617.311 100.672 617.311 101.414V102.225H609.42V100.75H615.504V100.613C615.478 100.145 615.38 99.6888 615.211 99.2461C615.048 98.8034 614.788 98.4388 614.43 98.1523C614.072 97.8659 613.583 97.7227 612.965 97.7227C612.555 97.7227 612.177 97.8105 611.832 97.9863C611.487 98.1556 611.191 98.4095 610.943 98.748C610.696 99.0866 610.504 99.5 610.367 99.9883C610.23 100.477 610.162 101.04 610.162 101.678V102.088C610.162 102.589 610.23 103.061 610.367 103.504C610.51 103.94 610.715 104.324 610.982 104.656C611.256 104.988 611.585 105.249 611.969 105.438C612.359 105.626 612.802 105.721 613.297 105.721C613.935 105.721 614.475 105.59 614.918 105.33C615.361 105.07 615.748 104.721 616.08 104.285L617.174 105.154C616.946 105.499 616.656 105.828 616.305 106.141C615.953 106.453 615.52 106.707 615.006 106.902C614.498 107.098 613.896 107.195 613.199 107.195ZM625.572 104.197C625.572 103.937 625.514 103.696 625.396 103.475C625.286 103.247 625.055 103.042 624.703 102.859C624.358 102.671 623.837 102.508 623.141 102.371C622.555 102.247 622.024 102.101 621.549 101.932C621.08 101.762 620.68 101.557 620.348 101.316C620.022 101.076 619.771 100.792 619.596 100.467C619.42 100.141 619.332 99.7604 619.332 99.3242C619.332 98.9076 619.423 98.5137 619.605 98.1426C619.794 97.7715 620.058 97.4427 620.396 97.1562C620.742 96.8698 621.155 96.6452 621.637 96.4824C622.118 96.3197 622.656 96.2383 623.248 96.2383C624.094 96.2383 624.817 96.388 625.416 96.6875C626.015 96.987 626.474 97.3874 626.793 97.8887C627.112 98.3835 627.271 98.9336 627.271 99.5391H625.465C625.465 99.2461 625.377 98.9629 625.201 98.6895C625.032 98.4095 624.781 98.1784 624.449 97.9961C624.124 97.8138 623.723 97.7227 623.248 97.7227C622.747 97.7227 622.34 97.8008 622.027 97.957C621.721 98.1068 621.497 98.2988 621.354 98.5332C621.217 98.7676 621.148 99.015 621.148 99.2754C621.148 99.4707 621.181 99.6465 621.246 99.8027C621.318 99.9525 621.441 100.092 621.617 100.223C621.793 100.346 622.04 100.464 622.359 100.574C622.678 100.685 623.085 100.796 623.58 100.906C624.446 101.102 625.159 101.336 625.719 101.609C626.279 101.883 626.695 102.218 626.969 102.615C627.242 103.012 627.379 103.494 627.379 104.061C627.379 104.523 627.281 104.946 627.086 105.33C626.897 105.714 626.62 106.046 626.256 106.326C625.898 106.6 625.468 106.814 624.967 106.971C624.472 107.12 623.915 107.195 623.297 107.195C622.366 107.195 621.578 107.029 620.934 106.697C620.289 106.365 619.801 105.936 619.469 105.408C619.137 104.881 618.971 104.324 618.971 103.738H620.787C620.813 104.233 620.956 104.627 621.217 104.92C621.477 105.206 621.796 105.411 622.174 105.535C622.551 105.652 622.926 105.711 623.297 105.711C623.792 105.711 624.205 105.646 624.537 105.516C624.876 105.385 625.133 105.206 625.309 104.979C625.484 104.751 625.572 104.49 625.572 104.197ZM635.904 104.197C635.904 103.937 635.846 103.696 635.729 103.475C635.618 103.247 635.387 103.042 635.035 102.859C634.69 102.671 634.169 102.508 633.473 102.371C632.887 102.247 632.356 102.101 631.881 101.932C631.412 101.762 631.012 101.557 630.68 101.316C630.354 101.076 630.104 100.792 629.928 100.467C629.752 100.141 629.664 99.7604 629.664 99.3242C629.664 98.9076 629.755 98.5137 629.938 98.1426C630.126 97.7715 630.39 97.4427 630.729 97.1562C631.074 96.8698 631.487 96.6452 631.969 96.4824C632.451 96.3197 632.988 96.2383 633.58 96.2383C634.426 96.2383 635.149 96.388 635.748 96.6875C636.347 96.987 636.806 97.3874 637.125 97.8887C637.444 98.3835 637.604 98.9336 637.604 99.5391H635.797C635.797 99.2461 635.709 98.9629 635.533 98.6895C635.364 98.4095 635.113 98.1784 634.781 97.9961C634.456 97.8138 634.055 97.7227 633.58 97.7227C633.079 97.7227 632.672 97.8008 632.359 97.957C632.053 98.1068 631.829 98.2988 631.686 98.5332C631.549 98.7676 631.48 99.015 631.48 99.2754C631.48 99.4707 631.513 99.6465 631.578 99.8027C631.65 99.9525 631.773 100.092 631.949 100.223C632.125 100.346 632.372 100.464 632.691 100.574C633.01 100.685 633.417 100.796 633.912 100.906C634.778 101.102 635.491 101.336 636.051 101.609C636.611 101.883 637.027 102.218 637.301 102.615C637.574 103.012 637.711 103.494 637.711 104.061C637.711 104.523 637.613 104.946 637.418 105.33C637.229 105.714 636.952 106.046 636.588 106.326C636.23 106.6 635.8 106.814 635.299 106.971C634.804 107.12 634.247 107.195 633.629 107.195C632.698 107.195 631.91 107.029 631.266 106.697C630.621 106.365 630.133 105.936 629.801 105.408C629.469 104.881 629.303 104.324 629.303 103.738H631.119C631.145 104.233 631.288 104.627 631.549 104.92C631.809 105.206 632.128 105.411 632.506 105.535C632.883 105.652 633.258 105.711 633.629 105.711C634.124 105.711 634.537 105.646 634.869 105.516C635.208 105.385 635.465 105.206 635.641 104.979C635.816 104.751 635.904 104.49 635.904 104.197ZM638.805 92.2344V90.75H642.496V110.047H638.805V108.562H640.68V92.2344H638.805ZM654.117 100.213V101.697H649.352V100.213H654.117ZM667.623 91.834H669.107C669.107 92.472 669.01 92.9798 668.814 93.3574C668.619 93.7285 668.352 94.015 668.014 94.2168C667.682 94.4186 667.304 94.5716 666.881 94.6758C666.464 94.7799 666.031 94.8809 665.582 94.9785C665.022 95.0957 664.501 95.2812 664.02 95.5352C663.544 95.7826 663.134 96.1341 662.789 96.5898C662.451 97.0456 662.2 97.638 662.037 98.3672C661.881 99.0964 661.839 99.998 661.91 101.072V101.971H660.426V101.072C660.426 99.8678 660.54 98.8164 660.768 97.918C661.002 97.0195 661.331 96.2611 661.754 95.6426C662.177 95.0241 662.678 94.5326 663.258 94.168C663.844 93.8034 664.488 93.5527 665.191 93.416C665.699 93.3184 666.135 93.2142 666.5 93.1035C666.865 92.9863 667.141 92.8301 667.33 92.6348C667.525 92.4395 667.623 92.1725 667.623 91.834ZM665.484 97.0391C666.174 97.0391 666.79 97.1595 667.33 97.4004C667.87 97.6413 668.329 97.9766 668.707 98.4062C669.085 98.8359 669.371 99.3438 669.566 99.9297C669.768 100.509 669.869 101.141 669.869 101.824V102.039C669.869 102.775 669.762 103.458 669.547 104.09C669.339 104.715 669.029 105.262 668.619 105.73C668.215 106.193 667.721 106.554 667.135 106.814C666.555 107.075 665.895 107.205 665.152 107.205C664.41 107.205 663.746 107.075 663.16 106.814C662.581 106.554 662.086 106.193 661.676 105.73C661.266 105.262 660.953 104.715 660.738 104.09C660.53 103.458 660.426 102.775 660.426 102.039V101.824C660.426 101.661 660.455 101.502 660.514 101.346C660.572 101.189 660.644 101.03 660.729 100.867C660.82 100.704 660.901 100.532 660.973 100.35C661.214 99.7637 661.542 99.2201 661.959 98.7188C662.382 98.2174 662.887 97.8138 663.473 97.5078C664.065 97.1953 664.736 97.0391 665.484 97.0391ZM665.133 98.5137C664.469 98.5137 663.922 98.6667 663.492 98.9727C663.069 99.2786 662.753 99.6855 662.545 100.193C662.337 100.695 662.232 101.238 662.232 101.824V102.039C662.232 102.534 662.291 103.003 662.408 103.445C662.525 103.888 662.701 104.282 662.936 104.627C663.176 104.965 663.479 105.232 663.844 105.428C664.215 105.623 664.651 105.721 665.152 105.721C665.654 105.721 666.087 105.623 666.451 105.428C666.816 105.232 667.115 104.965 667.35 104.627C667.584 104.282 667.76 103.888 667.877 103.445C667.994 103.003 668.053 102.534 668.053 102.039V101.824C668.053 101.382 667.994 100.962 667.877 100.564C667.76 100.167 667.581 99.8158 667.34 99.5098C667.105 99.2038 666.803 98.9629 666.432 98.7871C666.067 98.6048 665.634 98.5137 665.133 98.5137ZM676.305 107.195C675.569 107.195 674.902 107.072 674.303 106.824C673.71 106.57 673.199 106.215 672.77 105.76C672.346 105.304 672.021 104.764 671.793 104.139C671.565 103.514 671.451 102.83 671.451 102.088V101.678C671.451 100.818 671.578 100.053 671.832 99.3828C672.086 98.7057 672.431 98.1328 672.867 97.6641C673.303 97.1953 673.798 96.8405 674.352 96.5996C674.905 96.3587 675.478 96.2383 676.07 96.2383C676.826 96.2383 677.477 96.3685 678.023 96.6289C678.577 96.8893 679.029 97.2539 679.381 97.7227C679.732 98.1849 679.993 98.7318 680.162 99.3633C680.331 99.9883 680.416 100.672 680.416 101.414V102.225H672.525V100.75H678.609V100.613C678.583 100.145 678.486 99.6888 678.316 99.2461C678.154 98.8034 677.893 98.4388 677.535 98.1523C677.177 97.8659 676.689 97.7227 676.07 97.7227C675.66 97.7227 675.283 97.8105 674.938 97.9863C674.592 98.1556 674.296 98.4095 674.049 98.748C673.801 99.0866 673.609 99.5 673.473 99.9883C673.336 100.477 673.268 101.04 673.268 101.678V102.088C673.268 102.589 673.336 103.061 673.473 103.504C673.616 103.94 673.821 104.324 674.088 104.656C674.361 104.988 674.69 105.249 675.074 105.438C675.465 105.626 675.908 105.721 676.402 105.721C677.04 105.721 677.581 105.59 678.023 105.33C678.466 105.07 678.854 104.721 679.186 104.285L680.279 105.154C680.051 105.499 679.762 105.828 679.41 106.141C679.059 106.453 678.626 106.707 678.111 106.902C677.604 107.098 677.001 107.195 676.305 107.195ZM686.754 105.711C687.184 105.711 687.581 105.623 687.945 105.447C688.31 105.271 688.609 105.031 688.844 104.725C689.078 104.412 689.212 104.057 689.244 103.66H690.963C690.93 104.285 690.719 104.868 690.328 105.408C689.944 105.942 689.439 106.375 688.814 106.707C688.189 107.033 687.503 107.195 686.754 107.195C685.96 107.195 685.266 107.055 684.674 106.775C684.088 106.495 683.6 106.111 683.209 105.623C682.825 105.135 682.535 104.575 682.34 103.943C682.151 103.305 682.057 102.632 682.057 101.922V101.512C682.057 100.802 682.151 100.132 682.34 99.5C682.535 98.862 682.825 98.2988 683.209 97.8105C683.6 97.3223 684.088 96.9382 684.674 96.6582C685.266 96.3783 685.96 96.2383 686.754 96.2383C687.581 96.2383 688.303 96.4076 688.922 96.7461C689.54 97.0781 690.025 97.5339 690.377 98.1133C690.735 98.6862 690.93 99.3372 690.963 100.066H689.244C689.212 99.6302 689.088 99.2363 688.873 98.8848C688.665 98.5332 688.378 98.2533 688.014 98.0449C687.656 97.8301 687.236 97.7227 686.754 97.7227C686.201 97.7227 685.735 97.8333 685.357 98.0547C684.986 98.2695 684.69 98.5625 684.469 98.9336C684.254 99.2982 684.098 99.7051 684 100.154C683.909 100.597 683.863 101.049 683.863 101.512V101.922C683.863 102.384 683.909 102.84 684 103.289C684.091 103.738 684.244 104.145 684.459 104.51C684.68 104.874 684.977 105.167 685.348 105.389C685.725 105.604 686.194 105.711 686.754 105.711ZM693.15 96.4336H694.957V105.516H698.824V96.4336H700.641V105.516H704.498V96.4336H706.305V107H693.15V96.4336ZM712.154 105.906L715.094 96.4336H717.027L712.789 108.631C712.691 108.891 712.561 109.171 712.398 109.471C712.242 109.777 712.04 110.066 711.793 110.34C711.546 110.613 711.246 110.835 710.895 111.004C710.549 111.18 710.136 111.268 709.654 111.268C709.511 111.268 709.329 111.248 709.107 111.209C708.886 111.17 708.73 111.137 708.639 111.111L708.629 109.646C708.681 109.653 708.762 109.66 708.873 109.666C708.99 109.679 709.072 109.686 709.117 109.686C709.527 109.686 709.876 109.63 710.162 109.52C710.449 109.415 710.689 109.236 710.885 108.982C711.087 108.735 711.259 108.393 711.402 107.957L712.154 105.906ZM709.996 96.4336L712.74 104.637L713.209 106.541L711.91 107.205L708.023 96.4336H709.996ZM724.732 104.598L728.326 96.4336H730.064L725.357 107H724.107L719.42 96.4336H721.158L724.732 104.598ZM720.631 96.4336V107H718.824V96.4336H720.631ZM728.775 107V96.4336H730.592V107H728.775ZM740.67 101.014V102.479H735.084V101.014H740.67ZM735.465 96.4336V107H733.658V96.4336H735.465ZM742.135 96.4336V107H740.318V96.4336H742.135ZM746.529 100.066H749.703C750.556 100.066 751.275 100.216 751.861 100.516C752.447 100.809 752.89 101.215 753.189 101.736C753.495 102.251 753.648 102.837 753.648 103.494C753.648 103.982 753.564 104.441 753.395 104.871C753.225 105.294 752.971 105.665 752.633 105.984C752.301 106.303 751.887 106.554 751.393 106.736C750.904 106.912 750.341 107 749.703 107H745.211V96.4336H747.018V105.516H749.703C750.224 105.516 750.641 105.421 750.953 105.232C751.266 105.044 751.49 104.799 751.627 104.5C751.764 104.201 751.832 103.888 751.832 103.562C751.832 103.243 751.764 102.931 751.627 102.625C751.49 102.319 751.266 102.065 750.953 101.863C750.641 101.655 750.224 101.551 749.703 101.551H746.529V100.066ZM757.408 96.4336V107H755.602V96.4336H757.408ZM762.525 104.139L767.398 96.4336H769.215V107H767.398V99.2949L762.525 107H760.729V96.4336H762.525V104.139ZM766.412 92.6055H767.877C767.877 93.1133 767.76 93.5658 767.525 93.9629C767.291 94.3535 766.956 94.6595 766.52 94.8809C766.083 95.1022 765.566 95.2129 764.967 95.2129C764.062 95.2129 763.346 94.972 762.818 94.4902C762.298 94.002 762.037 93.3737 762.037 92.6055H763.502C763.502 92.9896 763.613 93.3281 763.834 93.6211C764.055 93.9141 764.433 94.0605 764.967 94.0605C765.488 94.0605 765.859 93.9141 766.08 93.6211C766.301 93.3281 766.412 92.9896 766.412 92.6055Z" fill="black"/>
<path d="M38.1836 84.3623V88.0708H21.1279V84.3623H38.1836ZM31.6553 77.3896V95.5049H27.6733V77.3896H31.6553ZM54.6924 71.75V98H50.5566V71.75H54.6924ZM67.356 98.3418C65.9888 98.3418 64.7526 98.1196 63.6475 97.6753C62.5537 97.2196 61.6195 96.5872 60.8447 95.7783C60.0814 94.9694 59.4946 94.0181 59.0845 92.9243C58.6743 91.8306 58.4692 90.6514 58.4692 89.3867V88.7031C58.4692 87.2562 58.68 85.946 59.1016 84.7725C59.5231 83.599 60.1099 82.5964 60.8618 81.7646C61.6138 80.9215 62.5024 80.2778 63.5278 79.8335C64.5532 79.3892 65.6641 79.167 66.8604 79.167C68.182 79.167 69.3384 79.3892 70.3296 79.8335C71.3208 80.2778 72.1411 80.9045 72.7905 81.7134C73.4513 82.5109 73.9412 83.4622 74.2603 84.5674C74.5907 85.6725 74.7559 86.8916 74.7559 88.2246V89.9849H60.4688V87.0283H70.6885V86.7036C70.6657 85.9631 70.5176 85.2681 70.2441 84.6187C69.9821 83.9692 69.5776 83.4451 69.0308 83.0464C68.4839 82.6476 67.7547 82.4482 66.8433 82.4482C66.1597 82.4482 65.5501 82.5964 65.0146 82.8926C64.4906 83.1774 64.0519 83.5933 63.6987 84.1401C63.3455 84.687 63.0721 85.3478 62.8784 86.1226C62.6961 86.8859 62.605 87.7461 62.605 88.7031V89.3867C62.605 90.1956 62.7132 90.9476 62.9297 91.6426C63.1576 92.3262 63.488 92.9243 63.9209 93.437C64.3538 93.9497 64.8779 94.3542 65.4932 94.6504C66.1084 94.9352 66.8091 95.0776 67.5952 95.0776C68.5864 95.0776 69.4694 94.8783 70.2441 94.4795C71.0189 94.0807 71.6911 93.5168 72.2607 92.7876L74.4312 94.8896C74.0324 95.4707 73.514 96.029 72.876 96.5645C72.238 97.0885 71.4575 97.5158 70.5347 97.8462C69.6232 98.1766 68.5636 98.3418 67.356 98.3418ZM88.3423 92.9927C88.3423 92.5825 88.2397 92.2122 88.0347 91.8818C87.8296 91.54 87.4365 91.2324 86.8555 90.959C86.2858 90.6855 85.4427 90.4349 84.3262 90.207C83.3464 89.9906 82.4463 89.7342 81.626 89.438C80.8171 89.1304 80.1221 88.7601 79.541 88.3271C78.96 87.8942 78.5099 87.3815 78.1909 86.7891C77.8719 86.1966 77.7124 85.513 77.7124 84.7383C77.7124 83.9863 77.8776 83.2743 78.208 82.6021C78.5384 81.9299 79.0112 81.3374 79.6265 80.8247C80.2417 80.312 80.988 79.9076 81.8652 79.6113C82.7539 79.3151 83.7451 79.167 84.8389 79.167C86.3883 79.167 87.7157 79.429 88.8208 79.9531C89.9373 80.4658 90.7918 81.1665 91.3843 82.0552C91.9767 82.9325 92.2729 83.9237 92.2729 85.0288H88.1543C88.1543 84.5389 88.029 84.0832 87.7783 83.6616C87.5391 83.2287 87.1745 82.8812 86.6846 82.6191C86.1947 82.3457 85.5794 82.209 84.8389 82.209C84.1325 82.209 83.5457 82.3229 83.0786 82.5508C82.6229 82.7673 82.2811 83.0521 82.0532 83.4053C81.8368 83.7585 81.7285 84.1458 81.7285 84.5674C81.7285 84.875 81.7855 85.1541 81.8994 85.4048C82.0247 85.644 82.2298 85.8662 82.5146 86.0713C82.7995 86.265 83.1868 86.4473 83.6768 86.6182C84.1781 86.7891 84.8047 86.9543 85.5566 87.1138C86.9694 87.41 88.1828 87.7917 89.1968 88.2588C90.2222 88.7145 91.0083 89.307 91.5552 90.0361C92.1021 90.7539 92.3755 91.6654 92.3755 92.7705C92.3755 93.5908 92.1989 94.3428 91.8457 95.0264C91.5039 95.6986 91.0026 96.2853 90.3418 96.7866C89.681 97.2765 88.8892 97.6582 87.9663 97.9316C87.0549 98.2051 86.0295 98.3418 84.8901 98.3418C83.2153 98.3418 81.7969 98.0456 80.6348 97.4531C79.4727 96.8493 78.5897 96.0802 77.9858 95.146C77.3934 94.2004 77.0972 93.2205 77.0972 92.2065H81.0791C81.1247 92.9699 81.3354 93.5794 81.7114 94.0352C82.0988 94.4795 82.5773 94.8042 83.147 95.0093C83.728 95.203 84.3262 95.2998 84.9414 95.2998C85.682 95.2998 86.3029 95.203 86.8042 95.0093C87.3055 94.8042 87.6872 94.5308 87.9492 94.189C88.2113 93.8358 88.3423 93.437 88.3423 92.9927ZM106.355 92.9927C106.355 92.5825 106.252 92.2122 106.047 91.8818C105.842 91.54 105.449 91.2324 104.868 90.959C104.299 90.6855 103.455 90.4349 102.339 90.207C101.359 89.9906 100.459 89.7342 99.6387 89.438C98.8298 89.1304 98.1348 88.7601 97.5537 88.3271C96.9727 87.8942 96.5226 87.3815 96.2036 86.7891C95.8846 86.1966 95.7251 85.513 95.7251 84.7383C95.7251 83.9863 95.8903 83.2743 96.2207 82.6021C96.5511 81.9299 97.0239 81.3374 97.6392 80.8247C98.2544 80.312 99.0007 79.9076 99.8779 79.6113C100.767 79.3151 101.758 79.167 102.852 79.167C104.401 79.167 105.728 79.429 106.833 79.9531C107.95 80.4658 108.805 81.1665 109.397 82.0552C109.989 82.9325 110.286 83.9237 110.286 85.0288H106.167C106.167 84.5389 106.042 84.0832 105.791 83.6616C105.552 83.2287 105.187 82.8812 104.697 82.6191C104.207 82.3457 103.592 82.209 102.852 82.209C102.145 82.209 101.558 82.3229 101.091 82.5508C100.636 82.7673 100.294 83.0521 100.066 83.4053C99.8494 83.7585 99.7412 84.1458 99.7412 84.5674C99.7412 84.875 99.7982 85.1541 99.9121 85.4048C100.037 85.644 100.243 85.8662 100.527 86.0713C100.812 86.265 101.2 86.4473 101.689 86.6182C102.191 86.7891 102.817 86.9543 103.569 87.1138C104.982 87.41 106.195 87.7917 107.209 88.2588C108.235 88.7145 109.021 89.307 109.568 90.0361C110.115 90.7539 110.388 91.6654 110.388 92.7705C110.388 93.5908 110.212 94.3428 109.858 95.0264C109.517 95.6986 109.015 96.2853 108.354 96.7866C107.694 97.2765 106.902 97.6582 105.979 97.9316C105.068 98.2051 104.042 98.3418 102.903 98.3418C101.228 98.3418 99.8096 98.0456 98.6475 97.4531C97.4854 96.8493 96.6024 96.0802 95.9985 95.146C95.4061 94.2004 95.1099 93.2205 95.1099 92.2065H99.0918C99.1374 92.9699 99.3481 93.5794 99.7241 94.0352C100.111 94.4795 100.59 94.8042 101.16 95.0093C101.741 95.203 102.339 95.2998 102.954 95.2998C103.695 95.2998 104.316 95.203 104.817 95.0093C105.318 94.8042 105.7 94.5308 105.962 94.189C106.224 93.8358 106.355 93.437 106.355 92.9927Z" fill="black"/>
</g>
<defs>
<clipPath id="clip0_2713_984">
<rect width="900" height="122" fill="white"/>
</clipPath>
</defs>
</svg>
