<svg width="900" height="190" viewBox="0 0 900 190" fill="none" xmlns="http://www.w3.org/2000/svg">
<g clip-path="url(#clip0_2713_737)">
<rect width="900" height="190" fill="white"/>
<line y1="0.5" x2="900" y2="0.5" stroke="black"/>
<line y1="189.5" x2="900" y2="189.5" stroke="black"/>
<line x1="0.5" x2="0.5" y2="190" stroke="black"/>
<line x1="899.5" y1="1" x2="899.5" y2="190" stroke="black"/>
<path d="M39.1748 25.75V26.9219C39.1748 28.5332 38.9648 29.9785 38.5449 31.2578C38.125 32.5371 37.5244 33.626 36.7432 34.5244C35.9717 35.4229 35.0439 36.1113 33.96 36.5898C32.876 37.0586 31.6748 37.293 30.3564 37.293C29.0479 37.293 27.8516 37.0586 26.7676 36.5898C25.6934 36.1113 24.7607 35.4229 23.9697 34.5244C23.1787 33.626 22.5635 32.5371 22.124 31.2578C21.6943 29.9785 21.4795 28.5332 21.4795 26.9219V25.75C21.4795 24.1387 21.6943 22.6982 22.124 21.4287C22.5537 20.1494 23.1592 19.0605 23.9404 18.1621C24.7314 17.2539 25.6641 16.5654 26.7383 16.0967C27.8223 15.6182 29.0186 15.3789 30.3271 15.3789C31.6455 15.3789 32.8467 15.6182 33.9307 16.0967C35.0146 16.5654 35.9473 17.2539 36.7285 18.1621C37.5098 19.0605 38.1104 20.1494 38.5303 21.4287C38.96 22.6982 39.1748 24.1387 39.1748 25.75ZM35.498 26.9219V25.7207C35.498 24.5293 35.3809 23.4795 35.1465 22.5713C34.9219 21.6533 34.585 20.8867 34.1357 20.2715C33.6963 19.6465 33.1543 19.1777 32.5098 18.8652C31.8652 18.543 31.1377 18.3818 30.3271 18.3818C29.5166 18.3818 28.7939 18.543 28.1592 18.8652C27.5244 19.1777 26.9824 19.6465 26.5332 20.2715C26.0938 20.8867 25.7568 21.6533 25.5225 22.5713C25.2881 23.4795 25.1709 24.5293 25.1709 25.7207V26.9219C25.1709 28.1133 25.2881 29.168 25.5225 30.0859C25.7568 31.0039 26.0986 31.7803 26.5479 32.415C27.0068 33.04 27.5537 33.5137 28.1885 33.8359C28.8232 34.1484 29.5459 34.3047 30.3564 34.3047C31.1768 34.3047 31.9043 34.1484 32.5391 33.8359C33.1738 33.5137 33.7109 33.04 34.1504 32.415C34.5898 31.7803 34.9219 31.0039 35.1465 30.0859C35.3809 29.168 35.498 28.1133 35.498 26.9219ZM46.3086 21.1504V37H42.7783V21.1504H46.3086ZM56.6504 21.1504L49.5166 30.6865H45.4883L45.0195 27.4932H47.9639L52.2412 21.1504H56.6504ZM52.5195 37L47.7441 30.0859L50.5273 28.0791L57.1631 37H52.5195ZM57.8809 29.251V28.9141C57.8809 27.7715 58.0469 26.7119 58.3789 25.7354C58.7109 24.749 59.1895 23.8945 59.8145 23.1719C60.4492 22.4395 61.2207 21.873 62.1289 21.4727C63.0469 21.0625 64.082 20.8574 65.2344 20.8574C66.3965 20.8574 67.4316 21.0625 68.3398 21.4727C69.2578 21.873 70.0342 22.4395 70.6689 23.1719C71.3037 23.8945 71.7871 24.749 72.1191 25.7354C72.4512 26.7119 72.6172 27.7715 72.6172 28.9141V29.251C72.6172 30.3936 72.4512 31.4531 72.1191 32.4297C71.7871 33.4062 71.3037 34.2607 70.6689 34.9932C70.0342 35.7158 69.2627 36.2822 68.3545 36.6924C67.4463 37.0928 66.416 37.293 65.2637 37.293C64.1016 37.293 63.0615 37.0928 62.1436 36.6924C61.2354 36.2822 60.4639 35.7158 59.8291 34.9932C59.1943 34.2607 58.7109 33.4062 58.3789 32.4297C58.0469 31.4531 57.8809 30.3936 57.8809 29.251ZM61.4111 28.9141V29.251C61.4111 29.9639 61.4844 30.6377 61.6309 31.2725C61.7773 31.9072 62.0068 32.4639 62.3193 32.9424C62.6318 33.4209 63.0322 33.7969 63.5205 34.0703C64.0088 34.3438 64.5898 34.4805 65.2637 34.4805C65.918 34.4805 66.4844 34.3438 66.9629 34.0703C67.4512 33.7969 67.8516 33.4209 68.1641 32.9424C68.4766 32.4639 68.7061 31.9072 68.8525 31.2725C69.0088 30.6377 69.0869 29.9639 69.0869 29.251V28.9141C69.0869 28.2109 69.0088 27.5469 68.8525 26.9219C68.7061 26.2871 68.4717 25.7256 68.1494 25.2373C67.8369 24.749 67.4365 24.3682 66.9482 24.0947C66.4697 23.8115 65.8984 23.6699 65.2344 23.6699C64.5703 23.6699 63.9941 23.8115 63.5059 24.0947C63.0273 24.3682 62.6318 24.749 62.3193 25.2373C62.0068 25.7256 61.7773 26.2871 61.6309 26.9219C61.4844 27.5469 61.4111 28.2109 61.4111 28.9141ZM86.4014 27.7715V30.5547H78.1982V27.7715H86.4014ZM79.2236 21.1504V37H75.6934V21.1504H79.2236ZM88.9502 21.1504V37H85.4199V21.1504H88.9502ZM105.444 21.1504V37H101.914V21.1504H105.444ZM103.95 28.167V30.9648C103.521 31.1504 103.037 31.3213 102.5 31.4775C101.973 31.624 101.416 31.7461 100.83 31.8438C100.244 31.9316 99.6533 31.9756 99.0576 31.9756C97.6611 31.9756 96.4551 31.7607 95.4395 31.3311C94.4336 30.9014 93.6572 30.2422 93.1104 29.3535C92.5732 28.4551 92.3047 27.3174 92.3047 25.9404V21.1357H95.8203V25.9404C95.8203 26.7314 95.9375 27.3613 96.1719 27.8301C96.416 28.2988 96.7773 28.6357 97.2559 28.8408C97.7344 29.0459 98.335 29.1484 99.0576 29.1484C99.6631 29.1484 100.234 29.1094 100.771 29.0312C101.309 28.9434 101.841 28.8262 102.368 28.6797C102.896 28.5332 103.423 28.3623 103.95 28.167ZM118.145 33.8213V26.2627C118.145 25.6963 118.042 25.208 117.837 24.7979C117.632 24.3877 117.319 24.0703 116.899 23.8457C116.489 23.6211 115.972 23.5088 115.347 23.5088C114.771 23.5088 114.272 23.6064 113.853 23.8018C113.433 23.9971 113.105 24.2607 112.871 24.5928C112.637 24.9248 112.52 25.3008 112.52 25.7207H109.004C109.004 25.0957 109.155 24.4902 109.458 23.9043C109.761 23.3184 110.2 22.7959 110.776 22.3369C111.353 21.8779 112.041 21.5166 112.842 21.2529C113.643 20.9893 114.541 20.8574 115.537 20.8574C116.729 20.8574 117.783 21.0576 118.701 21.458C119.629 21.8584 120.356 22.4639 120.884 23.2744C121.421 24.0752 121.689 25.0811 121.689 26.292V33.3379C121.689 34.0605 121.738 34.71 121.836 35.2861C121.943 35.8525 122.095 36.3457 122.29 36.7656V37H118.672C118.506 36.6191 118.374 36.1357 118.276 35.5498C118.188 34.9541 118.145 34.3779 118.145 33.8213ZM118.657 27.3613L118.687 29.5439H116.152C115.498 29.5439 114.922 29.6074 114.424 29.7344C113.926 29.8516 113.511 30.0273 113.179 30.2617C112.847 30.4961 112.598 30.7793 112.432 31.1113C112.266 31.4434 112.183 31.8193 112.183 32.2393C112.183 32.6592 112.28 33.0449 112.476 33.3965C112.671 33.7383 112.954 34.0068 113.325 34.2021C113.706 34.3975 114.165 34.4951 114.702 34.4951C115.425 34.4951 116.055 34.3486 116.592 34.0557C117.139 33.7529 117.568 33.3867 117.881 32.957C118.193 32.5176 118.359 32.1025 118.379 31.7119L119.521 33.2793C119.404 33.6797 119.204 34.1094 118.921 34.5684C118.638 35.0273 118.267 35.4668 117.808 35.8867C117.358 36.2969 116.816 36.6338 116.182 36.8975C115.557 37.1611 114.834 37.293 114.014 37.293C112.979 37.293 112.056 37.0879 111.245 36.6777C110.435 36.2578 109.8 35.6963 109.341 34.9932C108.882 34.2803 108.652 33.4746 108.652 32.5762C108.652 31.7363 108.809 30.9941 109.121 30.3496C109.443 29.6953 109.912 29.1484 110.527 28.709C111.152 28.2695 111.914 27.9375 112.812 27.7129C113.711 27.4785 114.736 27.3613 115.889 27.3613H118.657ZM136.206 27.7715V30.5547H128.003V27.7715H136.206ZM129.028 21.1504V37H125.498V21.1504H129.028ZM138.755 21.1504V37H135.225V21.1504H138.755ZM146.167 31.8438L152.393 21.1504H155.923V37H152.393V26.292L146.167 37H142.637V21.1504H146.167V31.8438ZM162.998 29.251H166.66L162.163 37H158.516L162.998 29.251ZM165.576 21.1504H172.373V37H168.857V23.9336H165.576C164.912 23.9336 164.365 24.0508 163.936 24.2852C163.506 24.5098 163.188 24.8076 162.983 25.1787C162.778 25.54 162.676 25.9111 162.676 26.292C162.676 26.6729 162.769 27.0391 162.954 27.3906C163.149 27.7422 163.447 28.0303 163.848 28.2549C164.258 28.4795 164.771 28.5918 165.386 28.5918H170.044V31.1699H165.386C164.409 31.1699 163.535 31.0479 162.764 30.8037C161.992 30.5498 161.338 30.2031 160.801 29.7637C160.264 29.3145 159.854 28.792 159.57 28.1963C159.287 27.5908 159.146 26.9316 159.146 26.2188C159.146 25.4863 159.292 24.8125 159.585 24.1973C159.878 23.582 160.298 23.0449 160.845 22.5859C161.401 22.127 162.075 21.7754 162.866 21.5312C163.667 21.2773 164.57 21.1504 165.576 21.1504Z" fill="black"/>
<path d="M255.903 15.6719V37H252.241V15.6719H255.903ZM268.735 15.6719L260.063 27.8301H254.863L254.365 24.6367H258.027L264.238 15.6719H268.735ZM264.985 37L258.086 27.2734L260.459 24.4463L269.395 37H264.985ZM291.353 21.1504V37H287.822V21.1504H291.353ZM289.858 28.167V30.9648C289.429 31.1504 288.945 31.3213 288.408 31.4775C287.881 31.624 287.324 31.7461 286.738 31.8438C286.152 31.9316 285.562 31.9756 284.966 31.9756C283.569 31.9756 282.363 31.7607 281.348 31.3311C280.342 30.9014 279.565 30.2422 279.019 29.3535C278.481 28.4551 278.213 27.3174 278.213 25.9404V21.1357H281.729V25.9404C281.729 26.7314 281.846 27.3613 282.08 27.8301C282.324 28.2988 282.686 28.6357 283.164 28.8408C283.643 29.0459 284.243 29.1484 284.966 29.1484C285.571 29.1484 286.143 29.1094 286.68 29.0312C287.217 28.9434 287.749 28.8262 288.276 28.6797C288.804 28.5332 289.331 28.3623 289.858 28.167ZM302.104 37.293C300.933 37.293 299.873 37.1025 298.926 36.7217C297.988 36.3311 297.188 35.7891 296.523 35.0957C295.869 34.4023 295.366 33.5869 295.015 32.6494C294.663 31.7119 294.487 30.7012 294.487 29.6172V29.0312C294.487 27.791 294.668 26.668 295.029 25.6621C295.391 24.6562 295.894 23.7969 296.538 23.084C297.183 22.3613 297.944 21.8096 298.823 21.4287C299.702 21.0479 300.654 20.8574 301.68 20.8574C302.812 20.8574 303.804 21.0479 304.653 21.4287C305.503 21.8096 306.206 22.3467 306.763 23.04C307.329 23.7236 307.749 24.5391 308.022 25.4863C308.306 26.4336 308.447 27.4785 308.447 28.6211V30.1299H296.201V27.5957H304.961V27.3174C304.941 26.6826 304.814 26.0869 304.58 25.5303C304.355 24.9736 304.009 24.5244 303.54 24.1826C303.071 23.8408 302.446 23.6699 301.665 23.6699C301.079 23.6699 300.557 23.7969 300.098 24.0508C299.648 24.2949 299.272 24.6514 298.97 25.1201C298.667 25.5889 298.433 26.1553 298.267 26.8193C298.11 27.4736 298.032 28.2109 298.032 29.0312V29.6172C298.032 30.3105 298.125 30.9551 298.311 31.5508C298.506 32.1367 298.789 32.6494 299.16 33.0889C299.531 33.5283 299.98 33.875 300.508 34.1289C301.035 34.373 301.636 34.4951 302.31 34.4951C303.159 34.4951 303.916 34.3242 304.58 33.9824C305.244 33.6406 305.82 33.1572 306.309 32.5322L308.169 34.334C307.827 34.832 307.383 35.3105 306.836 35.7695C306.289 36.2188 305.62 36.585 304.829 36.8682C304.048 37.1514 303.14 37.293 302.104 37.293ZM320.62 32.7227L325.337 21.1504H328.398L321.821 37H319.419L312.856 21.1504H315.918L320.62 32.7227ZM315.01 21.1504V37H311.479V21.1504H315.01ZM326.23 37V21.1504H329.775V37H326.23ZM338.33 35.2715L342.637 21.1504H346.416L340.059 39.417C339.912 39.8076 339.722 40.2324 339.487 40.6914C339.253 41.1504 338.945 41.585 338.564 41.9951C338.193 42.415 337.729 42.752 337.173 43.0059C336.616 43.2695 335.942 43.4014 335.151 43.4014C334.839 43.4014 334.536 43.3721 334.243 43.3135C333.96 43.2646 333.691 43.2109 333.438 43.1523L333.423 40.457C333.521 40.4668 333.638 40.4766 333.774 40.4863C333.921 40.4961 334.038 40.501 334.126 40.501C334.712 40.501 335.2 40.4277 335.591 40.2812C335.981 40.1445 336.299 39.9199 336.543 39.6074C336.797 39.2949 337.012 38.875 337.188 38.3477L338.33 35.2715ZM335.898 21.1504L339.663 33.0156L340.293 36.7363L337.847 37.3662L332.09 21.1504H335.898ZM366.543 21.1504V23.9629H358.721V21.1504H366.543ZM359.556 21.1504V37H356.025V21.1504H359.556ZM369.312 21.1504V37H365.767V21.1504H369.312ZM376.592 24.1973V43.0938H373.062V21.1504H376.313L376.592 24.1973ZM386.919 28.9287V29.2363C386.919 30.3887 386.782 31.458 386.509 32.4443C386.245 33.4209 385.85 34.2754 385.322 35.0078C384.805 35.7305 384.165 36.292 383.403 36.6924C382.642 37.0928 381.763 37.293 380.767 37.293C379.78 37.293 378.916 37.1123 378.174 36.751C377.441 36.3799 376.821 35.8574 376.313 35.1836C375.806 34.5098 375.396 33.7188 375.083 32.8105C374.78 31.8926 374.565 30.8867 374.438 29.793V28.6064C374.565 27.4443 374.78 26.3896 375.083 25.4424C375.396 24.4951 375.806 23.6797 376.313 22.9961C376.821 22.3125 377.441 21.7852 378.174 21.4141C378.906 21.043 379.761 20.8574 380.737 20.8574C381.733 20.8574 382.617 21.0527 383.389 21.4434C384.16 21.8242 384.81 22.3711 385.337 23.084C385.864 23.7871 386.26 24.6367 386.523 25.6328C386.787 26.6191 386.919 27.7178 386.919 28.9287ZM383.389 29.2363V28.9287C383.389 28.1963 383.32 27.5176 383.184 26.8926C383.047 26.2578 382.832 25.7012 382.539 25.2227C382.246 24.7441 381.87 24.373 381.411 24.1094C380.962 23.8359 380.42 23.6992 379.785 23.6992C379.16 23.6992 378.623 23.8066 378.174 24.0215C377.725 24.2266 377.349 24.5146 377.046 24.8857C376.743 25.2568 376.509 25.6914 376.343 26.1895C376.177 26.6777 376.06 27.21 375.991 27.7861V30.6279C376.108 31.3311 376.309 31.9756 376.592 32.5615C376.875 33.1475 377.275 33.6162 377.793 33.9678C378.32 34.3096 378.994 34.4805 379.814 34.4805C380.449 34.4805 380.991 34.3438 381.44 34.0703C381.89 33.7969 382.256 33.4209 382.539 32.9424C382.832 32.4541 383.047 31.8926 383.184 31.2578C383.32 30.623 383.389 29.9492 383.389 29.2363ZM393.569 31.8438L399.795 21.1504H403.325V37H399.795V26.292L393.569 37H390.039V21.1504H393.569V31.8438ZM413.535 34.4805C414.111 34.4805 414.629 34.3682 415.088 34.1436C415.557 33.9092 415.933 33.5869 416.216 33.1768C416.509 32.7666 416.67 32.293 416.699 31.7559H420.024C420.005 32.7812 419.702 33.7139 419.116 34.5537C418.53 35.3936 417.754 36.0625 416.787 36.5605C415.82 37.0488 414.751 37.293 413.579 37.293C412.368 37.293 411.313 37.0879 410.415 36.6777C409.517 36.2578 408.77 35.6816 408.174 34.9492C407.578 34.2168 407.129 33.3721 406.826 32.415C406.533 31.458 406.387 30.4326 406.387 29.3389V28.8262C406.387 27.7324 406.533 26.707 406.826 25.75C407.129 24.7832 407.578 23.9336 408.174 23.2012C408.77 22.4688 409.517 21.8975 410.415 21.4873C411.313 21.0674 412.363 20.8574 413.564 20.8574C414.834 20.8574 415.947 21.1113 416.904 21.6191C417.861 22.1172 418.613 22.8154 419.16 23.7139C419.717 24.6025 420.005 25.6377 420.024 26.8193H416.699C416.67 26.2334 416.523 25.7061 416.26 25.2373C416.006 24.7588 415.645 24.3779 415.176 24.0947C414.717 23.8115 414.165 23.6699 413.521 23.6699C412.808 23.6699 412.217 23.8164 411.748 24.1094C411.279 24.3926 410.913 24.7832 410.649 25.2812C410.386 25.7695 410.195 26.3213 410.078 26.9365C409.971 27.542 409.917 28.1719 409.917 28.8262V29.3389C409.917 29.9932 409.971 30.6279 410.078 31.2432C410.186 31.8584 410.371 32.4102 410.635 32.8984C410.908 33.377 411.279 33.7627 411.748 34.0557C412.217 34.3389 412.812 34.4805 413.535 34.4805ZM422.061 29.251V28.9141C422.061 27.7715 422.227 26.7119 422.559 25.7354C422.891 24.749 423.369 23.8945 423.994 23.1719C424.629 22.4395 425.4 21.873 426.309 21.4727C427.227 21.0625 428.262 20.8574 429.414 20.8574C430.576 20.8574 431.611 21.0625 432.52 21.4727C433.438 21.873 434.214 22.4395 434.849 23.1719C435.483 23.8945 435.967 24.749 436.299 25.7354C436.631 26.7119 436.797 27.7715 436.797 28.9141V29.251C436.797 30.3936 436.631 31.4531 436.299 32.4297C435.967 33.4062 435.483 34.2607 434.849 34.9932C434.214 35.7158 433.442 36.2822 432.534 36.6924C431.626 37.0928 430.596 37.293 429.443 37.293C428.281 37.293 427.241 37.0928 426.323 36.6924C425.415 36.2822 424.644 35.7158 424.009 34.9932C423.374 34.2607 422.891 33.4062 422.559 32.4297C422.227 31.4531 422.061 30.3936 422.061 29.251ZM425.591 28.9141V29.251C425.591 29.9639 425.664 30.6377 425.811 31.2725C425.957 31.9072 426.187 32.4639 426.499 32.9424C426.812 33.4209 427.212 33.7969 427.7 34.0703C428.188 34.3438 428.77 34.4805 429.443 34.4805C430.098 34.4805 430.664 34.3438 431.143 34.0703C431.631 33.7969 432.031 33.4209 432.344 32.9424C432.656 32.4639 432.886 31.9072 433.032 31.2725C433.188 30.6377 433.267 29.9639 433.267 29.251V28.9141C433.267 28.2109 433.188 27.5469 433.032 26.9219C432.886 26.2871 432.651 25.7256 432.329 25.2373C432.017 24.749 431.616 24.3682 431.128 24.0947C430.649 23.8115 430.078 23.6699 429.414 23.6699C428.75 23.6699 428.174 23.8115 427.686 24.0947C427.207 24.3682 426.812 24.749 426.499 25.2373C426.187 25.7256 425.957 26.2871 425.811 26.9219C425.664 27.5469 425.591 28.2109 425.591 28.9141ZM446.743 37.293C445.571 37.293 444.512 37.1025 443.564 36.7217C442.627 36.3311 441.826 35.7891 441.162 35.0957C440.508 34.4023 440.005 33.5869 439.653 32.6494C439.302 31.7119 439.126 30.7012 439.126 29.6172V29.0312C439.126 27.791 439.307 26.668 439.668 25.6621C440.029 24.6562 440.532 23.7969 441.177 23.084C441.821 22.3613 442.583 21.8096 443.462 21.4287C444.341 21.0479 445.293 20.8574 446.318 20.8574C447.451 20.8574 448.442 21.0479 449.292 21.4287C450.142 21.8096 450.845 22.3467 451.401 23.04C451.968 23.7236 452.388 24.5391 452.661 25.4863C452.944 26.4336 453.086 27.4785 453.086 28.6211V30.1299H440.84V27.5957H449.6V27.3174C449.58 26.6826 449.453 26.0869 449.219 25.5303C448.994 24.9736 448.647 24.5244 448.179 24.1826C447.71 23.8408 447.085 23.6699 446.304 23.6699C445.718 23.6699 445.195 23.7969 444.736 24.0508C444.287 24.2949 443.911 24.6514 443.608 25.1201C443.306 25.5889 443.071 26.1553 442.905 26.8193C442.749 27.4736 442.671 28.2109 442.671 29.0312V29.6172C442.671 30.3105 442.764 30.9551 442.949 31.5508C443.145 32.1367 443.428 32.6494 443.799 33.0889C444.17 33.5283 444.619 33.875 445.146 34.1289C445.674 34.373 446.274 34.4951 446.948 34.4951C447.798 34.4951 448.555 34.3242 449.219 33.9824C449.883 33.6406 450.459 33.1572 450.947 32.5322L452.808 34.334C452.466 34.832 452.021 35.3105 451.475 35.7695C450.928 36.2188 450.259 36.585 449.468 36.8682C448.687 37.1514 447.778 37.293 446.743 37.293ZM458.711 21.1504H462.241L462.065 26.7314C462.017 28.3525 461.831 29.7441 461.509 30.9062C461.187 32.0684 460.767 33.0498 460.249 33.8506C459.731 34.6416 459.146 35.291 458.491 35.7988C457.847 36.3066 457.168 36.707 456.455 37H455.415V34.2168L455.913 34.1875C456.333 33.7383 456.694 33.2891 456.997 32.8398C457.31 32.3809 457.573 31.8779 457.788 31.3311C458.003 30.7744 458.169 30.125 458.286 29.3828C458.413 28.6406 458.496 27.7568 458.535 26.7314L458.711 21.1504ZM459.648 21.1504H469.697V37H466.182V24.1387H459.648V21.1504ZM454.609 34.1875H471.865V41.7168H468.335V37H458.184V41.7168H454.595L454.609 34.1875ZM474.531 35.2422C474.531 34.6953 474.717 34.2363 475.088 33.8652C475.459 33.4844 475.962 33.2939 476.597 33.2939C477.241 33.2939 477.744 33.4844 478.105 33.8652C478.477 34.2363 478.662 34.6953 478.662 35.2422C478.662 35.7891 478.477 36.248 478.105 36.6191C477.744 36.9902 477.241 37.1758 476.597 37.1758C475.962 37.1758 475.459 36.9902 475.088 36.6191C474.717 36.248 474.531 35.7891 474.531 35.2422ZM489.341 30.7158H486.074C486.084 29.8076 486.162 29.0459 486.309 28.4307C486.455 27.8057 486.699 27.2393 487.041 26.7314C487.393 26.2236 487.856 25.6865 488.433 25.1201C488.882 24.6904 489.287 24.2852 489.648 23.9043C490.01 23.5137 490.298 23.1035 490.513 22.6738C490.728 22.2344 490.835 21.7314 490.835 21.165C490.835 20.5498 490.732 20.0273 490.527 19.5977C490.322 19.168 490.02 18.8408 489.619 18.6162C489.229 18.3916 488.74 18.2793 488.154 18.2793C487.666 18.2793 487.207 18.377 486.777 18.5723C486.348 18.7578 486.001 19.0508 485.737 19.4512C485.474 19.8418 485.332 20.3594 485.312 21.0039H481.782C481.802 19.7734 482.095 18.7383 482.661 17.8984C483.228 17.0586 483.989 16.4287 484.946 16.0088C485.903 15.5889 486.973 15.3789 488.154 15.3789C489.463 15.3789 490.581 15.6035 491.509 16.0527C492.437 16.4922 493.145 17.1367 493.633 17.9863C494.131 18.8262 494.38 19.8418 494.38 21.0332C494.38 21.8926 494.209 22.6738 493.867 23.377C493.525 24.0703 493.081 24.7197 492.534 25.3252C491.987 25.9209 491.396 26.5166 490.762 27.1123C490.215 27.6104 489.844 28.1523 489.648 28.7383C489.453 29.3145 489.351 29.9736 489.341 30.7158ZM485.781 35.2861C485.781 34.7588 485.962 34.3145 486.323 33.9531C486.685 33.582 487.178 33.3965 487.803 33.3965C488.428 33.3965 488.921 33.582 489.282 33.9531C489.644 34.3145 489.824 34.7588 489.824 35.2861C489.824 35.8135 489.644 36.2627 489.282 36.6338C488.921 36.9951 488.428 37.1758 487.803 37.1758C487.178 37.1758 486.685 36.9951 486.323 36.6338C485.962 36.2627 485.781 35.8135 485.781 35.2861Z" fill="black"/>
<path d="M551.124 15.6719H554.801V22.2783C554.801 23.2842 554.952 24.0752 555.255 24.6514C555.558 25.2178 556.017 25.6182 556.632 25.8525C557.257 26.0869 558.033 26.2041 558.961 26.2041C559.41 26.2041 559.884 26.1846 560.382 26.1455C560.88 26.1064 561.378 26.0527 561.876 25.9844C562.384 25.9062 562.872 25.8184 563.341 25.7207C563.81 25.6133 564.239 25.4961 564.63 25.3691V28.2842C564.249 28.4014 563.829 28.5137 563.37 28.6211C562.921 28.7285 562.452 28.8213 561.964 28.8994C561.476 28.9678 560.978 29.0215 560.47 29.0605C559.962 29.0996 559.459 29.1191 558.961 29.1191C557.35 29.1191 555.958 28.8896 554.786 28.4307C553.614 27.9619 552.711 27.2246 552.076 26.2188C551.441 25.2129 551.124 23.8994 551.124 22.2783V15.6719ZM563.795 15.6719H567.472V37H563.795V15.6719ZM578.883 21.1504V37H575.338V21.1504H578.883ZM584.083 21.1504V23.9336H570.226V21.1504H584.083ZM585.211 29.251V28.9141C585.211 27.7715 585.377 26.7119 585.709 25.7354C586.041 24.749 586.52 23.8945 587.145 23.1719C587.779 22.4395 588.551 21.873 589.459 21.4727C590.377 21.0625 591.412 20.8574 592.564 20.8574C593.727 20.8574 594.762 21.0625 595.67 21.4727C596.588 21.873 597.364 22.4395 597.999 23.1719C598.634 23.8945 599.117 24.749 599.449 25.7354C599.781 26.7119 599.947 27.7715 599.947 28.9141V29.251C599.947 30.3936 599.781 31.4531 599.449 32.4297C599.117 33.4062 598.634 34.2607 597.999 34.9932C597.364 35.7158 596.593 36.2822 595.685 36.6924C594.776 37.0928 593.746 37.293 592.594 37.293C591.432 37.293 590.392 37.0928 589.474 36.6924C588.565 36.2822 587.794 35.7158 587.159 34.9932C586.524 34.2607 586.041 33.4062 585.709 32.4297C585.377 31.4531 585.211 30.3936 585.211 29.251ZM588.741 28.9141V29.251C588.741 29.9639 588.814 30.6377 588.961 31.2725C589.107 31.9072 589.337 32.4639 589.649 32.9424C589.962 33.4209 590.362 33.7969 590.851 34.0703C591.339 34.3438 591.92 34.4805 592.594 34.4805C593.248 34.4805 593.814 34.3438 594.293 34.0703C594.781 33.7969 595.182 33.4209 595.494 32.9424C595.807 32.4639 596.036 31.9072 596.183 31.2725C596.339 30.6377 596.417 29.9639 596.417 29.251V28.9141C596.417 28.2109 596.339 27.5469 596.183 26.9219C596.036 26.2871 595.802 25.7256 595.479 25.2373C595.167 24.749 594.767 24.3682 594.278 24.0947C593.8 23.8115 593.229 23.6699 592.564 23.6699C591.9 23.6699 591.324 23.8115 590.836 24.0947C590.357 24.3682 589.962 24.749 589.649 25.2373C589.337 25.7256 589.107 26.2871 588.961 26.9219C588.814 27.5469 588.741 28.2109 588.741 28.9141ZM613.248 21.1504H616.778L616.603 26.7314C616.554 28.3525 616.368 29.7441 616.046 30.9062C615.724 32.0684 615.304 33.0498 614.786 33.8506C614.269 34.6416 613.683 35.291 613.028 35.7988C612.384 36.3066 611.705 36.707 610.992 37H609.952V34.2168L610.45 34.1875C610.87 33.7383 611.231 33.2891 611.534 32.8398C611.847 32.3809 612.11 31.8779 612.325 31.3311C612.54 30.7744 612.706 30.125 612.823 29.3828C612.95 28.6406 613.033 27.7568 613.072 26.7314L613.248 21.1504ZM614.186 21.1504H624.234V37H620.719V24.1387H614.186V21.1504ZM609.146 34.1875H626.402V41.7168H622.872V37H612.721V41.7168H609.132L609.146 34.1875ZM637.857 33.8213V26.2627C637.857 25.6963 637.755 25.208 637.55 24.7979C637.345 24.3877 637.032 24.0703 636.612 23.8457C636.202 23.6211 635.685 23.5088 635.06 23.5088C634.483 23.5088 633.985 23.6064 633.565 23.8018C633.146 23.9971 632.818 24.2607 632.584 24.5928C632.35 24.9248 632.232 25.3008 632.232 25.7207H628.717C628.717 25.0957 628.868 24.4902 629.171 23.9043C629.474 23.3184 629.913 22.7959 630.489 22.3369C631.065 21.8779 631.754 21.5166 632.555 21.2529C633.355 20.9893 634.254 20.8574 635.25 20.8574C636.441 20.8574 637.496 21.0576 638.414 21.458C639.342 21.8584 640.069 22.4639 640.597 23.2744C641.134 24.0752 641.402 25.0811 641.402 26.292V33.3379C641.402 34.0605 641.451 34.71 641.549 35.2861C641.656 35.8525 641.808 36.3457 642.003 36.7656V37H638.385C638.219 36.6191 638.087 36.1357 637.989 35.5498C637.901 34.9541 637.857 34.3779 637.857 33.8213ZM638.37 27.3613L638.399 29.5439H635.865C635.211 29.5439 634.635 29.6074 634.137 29.7344C633.639 29.8516 633.224 30.0273 632.892 30.2617C632.56 30.4961 632.311 30.7793 632.145 31.1113C631.979 31.4434 631.896 31.8193 631.896 32.2393C631.896 32.6592 631.993 33.0449 632.188 33.3965C632.384 33.7383 632.667 34.0068 633.038 34.2021C633.419 34.3975 633.878 34.4951 634.415 34.4951C635.138 34.4951 635.768 34.3486 636.305 34.0557C636.852 33.7529 637.281 33.3867 637.594 32.957C637.906 32.5176 638.072 32.1025 638.092 31.7119L639.234 33.2793C639.117 33.6797 638.917 34.1094 638.634 34.5684C638.351 35.0273 637.979 35.4668 637.521 35.8867C637.071 36.2969 636.529 36.6338 635.895 36.8975C635.27 37.1611 634.547 37.293 633.727 37.293C632.691 37.293 631.769 37.0879 630.958 36.6777C630.147 36.2578 629.513 35.6963 629.054 34.9932C628.595 34.2803 628.365 33.4746 628.365 32.5762C628.365 31.7363 628.521 30.9941 628.834 30.3496C629.156 29.6953 629.625 29.1484 630.24 28.709C630.865 28.2695 631.627 27.9375 632.525 27.7129C633.424 27.4785 634.449 27.3613 635.602 27.3613H638.37ZM652.081 37.293C650.909 37.293 649.85 37.1025 648.902 36.7217C647.965 36.3311 647.164 35.7891 646.5 35.0957C645.846 34.4023 645.343 33.5869 644.991 32.6494C644.64 31.7119 644.464 30.7012 644.464 29.6172V29.0312C644.464 27.791 644.645 26.668 645.006 25.6621C645.367 24.6562 645.87 23.7969 646.515 23.084C647.159 22.3613 647.921 21.8096 648.8 21.4287C649.679 21.0479 650.631 20.8574 651.656 20.8574C652.789 20.8574 653.78 21.0479 654.63 21.4287C655.479 21.8096 656.183 22.3467 656.739 23.04C657.306 23.7236 657.726 24.5391 657.999 25.4863C658.282 26.4336 658.424 27.4785 658.424 28.6211V30.1299H646.178V27.5957H654.938V27.3174C654.918 26.6826 654.791 26.0869 654.557 25.5303C654.332 24.9736 653.985 24.5244 653.517 24.1826C653.048 23.8408 652.423 23.6699 651.642 23.6699C651.056 23.6699 650.533 23.7969 650.074 24.0508C649.625 24.2949 649.249 24.6514 648.946 25.1201C648.644 25.5889 648.409 26.1553 648.243 26.8193C648.087 27.4736 648.009 28.2109 648.009 29.0312V29.6172C648.009 30.3105 648.102 30.9551 648.287 31.5508C648.482 32.1367 648.766 32.6494 649.137 33.0889C649.508 33.5283 649.957 33.875 650.484 34.1289C651.012 34.373 651.612 34.4951 652.286 34.4951C653.136 34.4951 653.893 34.3242 654.557 33.9824C655.221 33.6406 655.797 33.1572 656.285 32.5322L658.146 34.334C657.804 34.832 657.359 35.3105 656.812 35.7695C656.266 36.2188 655.597 36.585 654.806 36.8682C654.024 37.1514 653.116 37.293 652.081 37.293ZM646.178 16.9463C646.178 16.4678 646.344 16.0674 646.676 15.7451C647.008 15.4131 647.447 15.2471 647.994 15.2471C648.551 15.2471 648.995 15.4131 649.327 15.7451C649.659 16.0674 649.825 16.4678 649.825 16.9463C649.825 17.415 649.659 17.8154 649.327 18.1475C648.995 18.4697 648.551 18.6309 647.994 18.6309C647.447 18.6309 647.008 18.4697 646.676 18.1475C646.344 17.8154 646.178 17.415 646.178 16.9463ZM652.96 16.9609C652.96 16.4824 653.126 16.082 653.458 15.7598C653.79 15.4277 654.234 15.2617 654.791 15.2617C655.338 15.2617 655.777 15.4277 656.109 15.7598C656.451 16.082 656.622 16.4824 656.622 16.9609C656.622 17.4297 656.451 17.8301 656.109 18.1621C655.777 18.4844 655.338 18.6455 654.791 18.6455C654.234 18.6455 653.79 18.4844 653.458 18.1621C653.126 17.8301 652.96 17.4297 652.96 16.9609ZM668.355 21.1504V37H664.811V21.1504H668.355ZM673.556 21.1504V23.9336H659.698V21.1504H673.556ZM682.521 30.7158H679.254C679.264 29.8076 679.342 29.0459 679.488 28.4307C679.635 27.8057 679.879 27.2393 680.221 26.7314C680.572 26.2236 681.036 25.6865 681.612 25.1201C682.062 24.6904 682.467 24.2852 682.828 23.9043C683.189 23.5137 683.478 23.1035 683.692 22.6738C683.907 22.2344 684.015 21.7314 684.015 21.165C684.015 20.5498 683.912 20.0273 683.707 19.5977C683.502 19.168 683.199 18.8408 682.799 18.6162C682.408 18.3916 681.92 18.2793 681.334 18.2793C680.846 18.2793 680.387 18.377 679.957 18.5723C679.527 18.7578 679.181 19.0508 678.917 19.4512C678.653 19.8418 678.512 20.3594 678.492 21.0039H674.962C674.981 19.7734 675.274 18.7383 675.841 17.8984C676.407 17.0586 677.169 16.4287 678.126 16.0088C679.083 15.5889 680.152 15.3789 681.334 15.3789C682.643 15.3789 683.761 15.6035 684.688 16.0527C685.616 16.4922 686.324 17.1367 686.812 17.9863C687.311 18.8262 687.56 19.8418 687.56 21.0332C687.56 21.8926 687.389 22.6738 687.047 23.377C686.705 24.0703 686.261 24.7197 685.714 25.3252C685.167 25.9209 684.576 26.5166 683.941 27.1123C683.395 27.6104 683.023 28.1523 682.828 28.7383C682.633 29.3145 682.53 29.9736 682.521 30.7158ZM678.961 35.2861C678.961 34.7588 679.142 34.3145 679.503 33.9531C679.864 33.582 680.357 33.3965 680.982 33.3965C681.607 33.3965 682.101 33.582 682.462 33.9531C682.823 34.3145 683.004 34.7588 683.004 35.2861C683.004 35.8135 682.823 36.2627 682.462 36.6338C682.101 36.9951 681.607 37.1758 680.982 37.1758C680.357 37.1758 679.864 36.9951 679.503 36.6338C679.142 36.2627 678.961 35.8135 678.961 35.2861Z" fill="black"/>
<line x1="1" y1="52.5" x2="901" y2="52.5" stroke="black"/>
<path d="M38.1836 117.362V121.071H21.1279V117.362H38.1836ZM31.6553 110.39V128.505H27.6733V110.39H31.6553ZM54.6924 104.75V131H50.5566V104.75H54.6924ZM64.5703 128.983L69.5947 112.509H74.0039L66.5869 133.82C66.416 134.276 66.1938 134.771 65.9204 135.307C65.647 135.842 65.2881 136.349 64.8438 136.828C64.4108 137.318 63.8696 137.711 63.2202 138.007C62.5708 138.314 61.7847 138.468 60.8618 138.468C60.4972 138.468 60.144 138.434 59.8022 138.366C59.4718 138.309 59.1585 138.246 58.8623 138.178L58.8452 135.033C58.9591 135.045 59.0959 135.056 59.2554 135.067C59.4263 135.079 59.563 135.084 59.6655 135.084C60.3491 135.084 60.9188 134.999 61.3745 134.828C61.8302 134.669 62.2005 134.407 62.4854 134.042C62.7816 133.677 63.0322 133.188 63.2373 132.572L64.5703 128.983ZM61.7334 112.509L66.1255 126.352L66.8604 130.692L64.0063 131.427L57.29 112.509H61.7334Z" fill="black"/>
<path d="M258.301 135.434V137.309H253.086V135.434H258.301ZM253.643 135.434V146H251.289V135.434H253.643ZM260.146 135.434V146H257.783V135.434H260.146ZM265 137.465V150.062H262.646V135.434H264.814L265 137.465ZM271.885 140.619V140.824C271.885 141.592 271.794 142.305 271.611 142.963C271.436 143.614 271.172 144.184 270.82 144.672C270.475 145.154 270.049 145.528 269.541 145.795C269.033 146.062 268.447 146.195 267.783 146.195C267.126 146.195 266.549 146.075 266.055 145.834C265.566 145.587 265.153 145.238 264.814 144.789C264.476 144.34 264.202 143.812 263.994 143.207C263.792 142.595 263.649 141.924 263.564 141.195V140.404C263.649 139.63 263.792 138.926 263.994 138.295C264.202 137.663 264.476 137.12 264.814 136.664C265.153 136.208 265.566 135.857 266.055 135.609C266.543 135.362 267.113 135.238 267.764 135.238C268.428 135.238 269.017 135.368 269.531 135.629C270.046 135.883 270.479 136.247 270.83 136.723C271.182 137.191 271.445 137.758 271.621 138.422C271.797 139.079 271.885 139.812 271.885 140.619ZM269.531 140.824V140.619C269.531 140.131 269.486 139.678 269.395 139.262C269.303 138.839 269.16 138.467 268.965 138.148C268.77 137.829 268.519 137.582 268.213 137.406C267.913 137.224 267.552 137.133 267.129 137.133C266.712 137.133 266.354 137.204 266.055 137.348C265.755 137.484 265.505 137.676 265.303 137.924C265.101 138.171 264.945 138.461 264.834 138.793C264.723 139.118 264.645 139.473 264.6 139.857V141.752C264.678 142.221 264.811 142.65 265 143.041C265.189 143.432 265.456 143.744 265.801 143.979C266.152 144.206 266.602 144.32 267.148 144.32C267.572 144.32 267.933 144.229 268.232 144.047C268.532 143.865 268.776 143.614 268.965 143.295C269.16 142.969 269.303 142.595 269.395 142.172C269.486 141.749 269.531 141.299 269.531 140.824ZM276.318 142.562L280.469 135.434H282.822V146H280.469V138.861L276.318 146H273.965V135.434H276.318V142.562ZM292.412 135.434V137.309H287.256V135.434H292.412ZM294.258 135.434V146H291.904V135.434H294.258ZM286.68 135.434H289.004L288.721 140.658C288.682 141.433 288.604 142.117 288.486 142.709C288.376 143.295 288.226 143.799 288.037 144.223C287.848 144.639 287.617 144.978 287.344 145.238C287.07 145.499 286.751 145.691 286.387 145.814C286.022 145.938 285.612 146 285.156 146H284.424L284.414 144.066L284.785 144.037C285.026 144.018 285.234 143.956 285.41 143.852C285.586 143.741 285.736 143.585 285.859 143.383C285.99 143.181 286.094 142.921 286.172 142.602C286.257 142.283 286.322 141.905 286.367 141.469C286.419 141.033 286.458 140.525 286.484 139.945L286.68 135.434ZM255.605 172.711C256.035 172.711 256.432 172.623 256.797 172.447C257.161 172.271 257.461 172.031 257.695 171.725C257.93 171.412 258.063 171.057 258.096 170.66H259.814C259.782 171.285 259.57 171.868 259.18 172.408C258.796 172.942 258.291 173.375 257.666 173.707C257.041 174.033 256.354 174.195 255.605 174.195C254.811 174.195 254.118 174.055 253.525 173.775C252.939 173.495 252.451 173.111 252.061 172.623C251.676 172.135 251.387 171.575 251.191 170.943C251.003 170.305 250.908 169.632 250.908 168.922V168.512C250.908 167.802 251.003 167.132 251.191 166.5C251.387 165.862 251.676 165.299 252.061 164.811C252.451 164.322 252.939 163.938 253.525 163.658C254.118 163.378 254.811 163.238 255.605 163.238C256.432 163.238 257.155 163.408 257.773 163.746C258.392 164.078 258.877 164.534 259.229 165.113C259.587 165.686 259.782 166.337 259.814 167.066H258.096C258.063 166.63 257.939 166.236 257.725 165.885C257.516 165.533 257.23 165.253 256.865 165.045C256.507 164.83 256.087 164.723 255.605 164.723C255.052 164.723 254.587 164.833 254.209 165.055C253.838 165.27 253.542 165.562 253.32 165.934C253.105 166.298 252.949 166.705 252.852 167.154C252.76 167.597 252.715 168.049 252.715 168.512V168.922C252.715 169.384 252.76 169.84 252.852 170.289C252.943 170.738 253.096 171.145 253.311 171.51C253.532 171.874 253.828 172.167 254.199 172.389C254.577 172.604 255.046 172.711 255.605 172.711ZM263.809 159V174H261.992V159H263.809ZM271.094 174.195C270.358 174.195 269.691 174.072 269.092 173.824C268.499 173.57 267.988 173.215 267.559 172.76C267.135 172.304 266.81 171.764 266.582 171.139C266.354 170.514 266.24 169.83 266.24 169.088V168.678C266.24 167.818 266.367 167.053 266.621 166.383C266.875 165.706 267.22 165.133 267.656 164.664C268.092 164.195 268.587 163.84 269.141 163.6C269.694 163.359 270.267 163.238 270.859 163.238C271.615 163.238 272.266 163.368 272.812 163.629C273.366 163.889 273.818 164.254 274.17 164.723C274.521 165.185 274.782 165.732 274.951 166.363C275.12 166.988 275.205 167.672 275.205 168.414V169.225H267.314V167.75H273.398V167.613C273.372 167.145 273.275 166.689 273.105 166.246C272.943 165.803 272.682 165.439 272.324 165.152C271.966 164.866 271.478 164.723 270.859 164.723C270.449 164.723 270.072 164.811 269.727 164.986C269.382 165.156 269.085 165.41 268.838 165.748C268.59 166.087 268.398 166.5 268.262 166.988C268.125 167.477 268.057 168.04 268.057 168.678V169.088C268.057 169.589 268.125 170.061 268.262 170.504C268.405 170.94 268.61 171.324 268.877 171.656C269.15 171.988 269.479 172.249 269.863 172.438C270.254 172.626 270.697 172.721 271.191 172.721C271.829 172.721 272.37 172.59 272.812 172.33C273.255 172.07 273.643 171.721 273.975 171.285L275.068 172.154C274.84 172.499 274.551 172.828 274.199 173.141C273.848 173.453 273.415 173.707 272.9 173.902C272.393 174.098 271.79 174.195 271.094 174.195ZM283.545 172.193V166.754C283.545 166.337 283.46 165.976 283.291 165.67C283.128 165.357 282.881 165.117 282.549 164.947C282.217 164.778 281.807 164.693 281.318 164.693C280.863 164.693 280.462 164.771 280.117 164.928C279.779 165.084 279.512 165.289 279.316 165.543C279.128 165.797 279.033 166.07 279.033 166.363H277.227C277.227 165.986 277.324 165.611 277.52 165.24C277.715 164.869 277.995 164.534 278.359 164.234C278.73 163.928 279.173 163.688 279.688 163.512C280.208 163.329 280.788 163.238 281.426 163.238C282.194 163.238 282.871 163.368 283.457 163.629C284.049 163.889 284.512 164.283 284.844 164.811C285.182 165.331 285.352 165.986 285.352 166.773V171.695C285.352 172.047 285.381 172.421 285.439 172.818C285.505 173.215 285.599 173.557 285.723 173.844V174H283.838C283.747 173.792 283.675 173.515 283.623 173.17C283.571 172.818 283.545 172.493 283.545 172.193ZM283.857 167.594L283.877 168.863H282.051C281.536 168.863 281.077 168.906 280.674 168.99C280.27 169.068 279.932 169.189 279.658 169.352C279.385 169.514 279.176 169.719 279.033 169.967C278.89 170.208 278.818 170.491 278.818 170.816C278.818 171.148 278.893 171.451 279.043 171.725C279.193 171.998 279.417 172.216 279.717 172.379C280.023 172.535 280.397 172.613 280.84 172.613C281.393 172.613 281.882 172.496 282.305 172.262C282.728 172.027 283.063 171.741 283.311 171.402C283.564 171.064 283.701 170.735 283.721 170.416L284.492 171.285C284.447 171.559 284.323 171.861 284.121 172.193C283.919 172.525 283.649 172.844 283.311 173.15C282.979 173.45 282.581 173.701 282.119 173.902C281.663 174.098 281.149 174.195 280.576 174.195C279.86 174.195 279.232 174.055 278.691 173.775C278.158 173.495 277.741 173.121 277.441 172.652C277.148 172.177 277.002 171.646 277.002 171.061C277.002 170.494 277.113 169.996 277.334 169.566C277.555 169.13 277.874 168.769 278.291 168.482C278.708 168.189 279.209 167.968 279.795 167.818C280.381 167.669 281.035 167.594 281.758 167.594H283.857ZM290 165.689V174H288.193V163.434H289.902L290 165.689ZM289.57 168.316L288.818 168.287C288.825 167.564 288.932 166.897 289.141 166.285C289.349 165.667 289.642 165.13 290.02 164.674C290.397 164.218 290.846 163.867 291.367 163.619C291.895 163.365 292.477 163.238 293.115 163.238C293.636 163.238 294.105 163.31 294.521 163.453C294.938 163.59 295.293 163.811 295.586 164.117C295.885 164.423 296.113 164.82 296.27 165.309C296.426 165.79 296.504 166.38 296.504 167.076V174H294.688V167.057C294.688 166.503 294.606 166.061 294.443 165.729C294.281 165.39 294.043 165.146 293.73 164.996C293.418 164.84 293.034 164.762 292.578 164.762C292.129 164.762 291.719 164.856 291.348 165.045C290.983 165.234 290.667 165.494 290.4 165.826C290.14 166.158 289.935 166.539 289.785 166.969C289.642 167.392 289.57 167.841 289.57 168.316ZM307.969 167.213V168.697H303.203V167.213H307.969ZM322.666 163.434V174H320.859V163.434H322.666ZM322.051 168.287V169.771C321.686 169.908 321.315 170.032 320.938 170.143C320.566 170.247 320.173 170.331 319.756 170.396C319.346 170.455 318.9 170.484 318.418 170.484C317.585 170.484 316.862 170.341 316.25 170.055C315.638 169.762 315.166 169.322 314.834 168.736C314.502 168.144 314.336 167.398 314.336 166.5V163.414H316.143V166.5C316.143 167.086 316.23 167.561 316.406 167.926C316.582 168.29 316.839 168.561 317.178 168.736C317.516 168.906 317.93 168.99 318.418 168.99C318.887 168.99 319.326 168.961 319.736 168.902C320.153 168.837 320.55 168.753 320.928 168.648C321.312 168.544 321.686 168.424 322.051 168.287ZM327.529 171.139L332.402 163.434H334.219V174H332.402V166.295L327.529 174H325.732V163.434H327.529V171.139ZM341.348 172.711C341.777 172.711 342.174 172.623 342.539 172.447C342.904 172.271 343.203 172.031 343.438 171.725C343.672 171.412 343.805 171.057 343.838 170.66H345.557C345.524 171.285 345.312 171.868 344.922 172.408C344.538 172.942 344.033 173.375 343.408 173.707C342.783 174.033 342.096 174.195 341.348 174.195C340.553 174.195 339.86 174.055 339.268 173.775C338.682 173.495 338.193 173.111 337.803 172.623C337.419 172.135 337.129 171.575 336.934 170.943C336.745 170.305 336.65 169.632 336.65 168.922V168.512C336.65 167.802 336.745 167.132 336.934 166.5C337.129 165.862 337.419 165.299 337.803 164.811C338.193 164.322 338.682 163.938 339.268 163.658C339.86 163.378 340.553 163.238 341.348 163.238C342.174 163.238 342.897 163.408 343.516 163.746C344.134 164.078 344.619 164.534 344.971 165.113C345.329 165.686 345.524 166.337 345.557 167.066H343.838C343.805 166.63 343.682 166.236 343.467 165.885C343.258 165.533 342.972 165.253 342.607 165.045C342.249 164.83 341.829 164.723 341.348 164.723C340.794 164.723 340.329 164.833 339.951 165.055C339.58 165.27 339.284 165.562 339.062 165.934C338.848 166.298 338.691 166.705 338.594 167.154C338.503 167.597 338.457 168.049 338.457 168.512V168.922C338.457 169.384 338.503 169.84 338.594 170.289C338.685 170.738 338.838 171.145 339.053 171.51C339.274 171.874 339.57 172.167 339.941 172.389C340.319 172.604 340.788 172.711 341.348 172.711ZM351.895 163.434V174H350.078V163.434H351.895ZM355.439 163.434V164.898H346.602V163.434H355.439ZM358.701 167.066H361.875C362.728 167.066 363.447 167.216 364.033 167.516C364.619 167.809 365.062 168.215 365.361 168.736C365.667 169.251 365.82 169.837 365.82 170.494C365.82 170.982 365.736 171.441 365.566 171.871C365.397 172.294 365.143 172.665 364.805 172.984C364.473 173.303 364.059 173.554 363.564 173.736C363.076 173.912 362.513 174 361.875 174H357.383V163.434H359.189V172.516H361.875C362.396 172.516 362.812 172.421 363.125 172.232C363.438 172.044 363.662 171.799 363.799 171.5C363.936 171.201 364.004 170.888 364.004 170.562C364.004 170.243 363.936 169.931 363.799 169.625C363.662 169.319 363.438 169.065 363.125 168.863C362.812 168.655 362.396 168.551 361.875 168.551H358.701V167.066ZM369.58 163.434V174H367.773V163.434H369.58ZM374.697 171.139L379.57 163.434H381.387V174H379.57V166.295L374.697 174H372.9V163.434H374.697V171.139ZM378.584 159.605H380.049C380.049 160.113 379.932 160.566 379.697 160.963C379.463 161.354 379.128 161.66 378.691 161.881C378.255 162.102 377.738 162.213 377.139 162.213C376.234 162.213 375.518 161.972 374.99 161.49C374.469 161.002 374.209 160.374 374.209 159.605H375.674C375.674 159.99 375.785 160.328 376.006 160.621C376.227 160.914 376.605 161.061 377.139 161.061C377.66 161.061 378.031 160.914 378.252 160.621C378.473 160.328 378.584 159.99 378.584 159.605Z" fill="black"/>
<path d="M255.527 77.3203C255.911 77.3203 256.257 77.2454 256.562 77.0957C256.875 76.9395 257.126 76.7246 257.314 76.4512C257.51 76.1777 257.617 75.862 257.637 75.5039H259.854C259.84 76.1875 259.639 76.8092 259.248 77.3691C258.857 77.929 258.34 78.375 257.695 78.707C257.051 79.0326 256.338 79.1953 255.557 79.1953C254.749 79.1953 254.046 79.0586 253.447 78.7852C252.848 78.5052 252.35 78.1211 251.953 77.6328C251.556 77.1445 251.257 76.5814 251.055 75.9434C250.859 75.3053 250.762 74.6217 250.762 73.8926V73.5508C250.762 72.8216 250.859 72.138 251.055 71.5C251.257 70.8555 251.556 70.2891 251.953 69.8008C252.35 69.3125 252.848 68.9316 253.447 68.6582C254.046 68.3783 254.746 68.2383 255.547 68.2383C256.393 68.2383 257.135 68.4076 257.773 68.7461C258.411 69.0781 258.913 69.5436 259.277 70.1426C259.648 70.735 259.84 71.4251 259.854 72.2129H257.637C257.617 71.8223 257.52 71.4707 257.344 71.1582C257.174 70.8392 256.934 70.5853 256.621 70.3965C256.315 70.2077 255.947 70.1133 255.518 70.1133C255.042 70.1133 254.648 70.2109 254.336 70.4062C254.023 70.5951 253.779 70.8555 253.604 71.1875C253.428 71.513 253.301 71.8809 253.223 72.291C253.151 72.6947 253.115 73.1146 253.115 73.5508V73.8926C253.115 74.3288 253.151 74.752 253.223 75.1621C253.294 75.5723 253.418 75.9401 253.594 76.2656C253.776 76.5846 254.023 76.8418 254.336 77.0371C254.648 77.2259 255.046 77.3203 255.527 77.3203ZM264.727 77.8477L267.598 68.4336H270.117L265.879 80.6113C265.781 80.8717 265.654 81.1549 265.498 81.4609C265.342 81.7669 265.137 82.0566 264.883 82.3301C264.635 82.61 264.326 82.8346 263.955 83.0039C263.584 83.1797 263.135 83.2676 262.607 83.2676C262.399 83.2676 262.197 83.248 262.002 83.209C261.813 83.1764 261.634 83.1406 261.465 83.1016L261.455 81.3047C261.52 81.3112 261.598 81.3177 261.689 81.3242C261.787 81.3307 261.865 81.334 261.924 81.334C262.314 81.334 262.64 81.2852 262.9 81.1875C263.161 81.0964 263.372 80.9466 263.535 80.7383C263.704 80.5299 263.848 80.25 263.965 79.8984L264.727 77.8477ZM263.105 68.4336L265.615 76.3438L266.035 78.8242L264.404 79.2441L260.566 68.4336H263.105ZM287.08 77.1348L286.895 82.1348H284.736V79H283.467V77.1348H287.08ZM271.475 68.4336H273.828V77.125H277.188V68.4336H279.551V77.125H282.9V68.4336H285.254V79H271.475V68.4336ZM288.926 77.8281C288.926 77.4635 289.049 77.1576 289.297 76.9102C289.544 76.6562 289.88 76.5293 290.303 76.5293C290.732 76.5293 291.068 76.6562 291.309 76.9102C291.556 77.1576 291.68 77.4635 291.68 77.8281C291.68 78.1927 291.556 78.4987 291.309 78.7461C291.068 78.9935 290.732 79.1172 290.303 79.1172C289.88 79.1172 289.544 78.9935 289.297 78.7461C289.049 78.4987 288.926 78.1927 288.926 77.8281ZM258.223 96.4336H259.863V106.775C259.863 107.706 259.674 108.501 259.297 109.158C258.919 109.816 258.392 110.314 257.715 110.652C257.044 110.997 256.27 111.17 255.391 111.17C255.026 111.17 254.596 111.111 254.102 110.994C253.613 110.883 253.132 110.691 252.656 110.418C252.188 110.151 251.794 109.79 251.475 109.334L252.422 108.26C252.865 108.794 253.327 109.165 253.809 109.373C254.297 109.581 254.779 109.686 255.254 109.686C255.827 109.686 256.322 109.578 256.738 109.363C257.155 109.148 257.477 108.829 257.705 108.406C257.939 107.99 258.057 107.475 258.057 106.863V98.7578L258.223 96.4336ZM250.947 101.834V101.629C250.947 100.822 251.042 100.089 251.23 99.4316C251.426 98.7676 251.702 98.1979 252.061 97.7227C252.425 97.2474 252.865 96.8828 253.379 96.6289C253.893 96.3685 254.473 96.2383 255.117 96.2383C255.781 96.2383 256.361 96.3555 256.855 96.5898C257.357 96.8177 257.78 97.153 258.125 97.5957C258.477 98.0319 258.753 98.5592 258.955 99.1777C259.157 99.7962 259.297 100.496 259.375 101.277V102.176C259.303 102.951 259.163 103.647 258.955 104.266C258.753 104.884 258.477 105.411 258.125 105.848C257.78 106.284 257.357 106.619 256.855 106.854C256.354 107.081 255.768 107.195 255.098 107.195C254.466 107.195 253.893 107.062 253.379 106.795C252.871 106.528 252.435 106.154 252.07 105.672C251.706 105.19 251.426 104.624 251.23 103.973C251.042 103.315 250.947 102.602 250.947 101.834ZM252.754 101.629V101.834C252.754 102.361 252.806 102.856 252.91 103.318C253.021 103.781 253.187 104.188 253.408 104.539C253.636 104.891 253.926 105.167 254.277 105.369C254.629 105.564 255.049 105.662 255.537 105.662C256.136 105.662 256.631 105.535 257.021 105.281C257.412 105.027 257.721 104.692 257.949 104.275C258.184 103.859 258.366 103.406 258.496 102.918V100.564C258.424 100.206 258.314 99.8613 258.164 99.5293C258.021 99.1908 257.832 98.8913 257.598 98.6309C257.37 98.3639 257.087 98.1523 256.748 97.9961C256.41 97.8398 256.012 97.7617 255.557 97.7617C255.062 97.7617 254.635 97.8659 254.277 98.0742C253.926 98.276 253.636 98.556 253.408 98.9141C253.187 99.2656 253.021 99.6758 252.91 100.145C252.806 100.607 252.754 101.102 252.754 101.629ZM264.414 92V107H262.607V92H264.414ZM263.984 101.316L263.232 101.287C263.239 100.564 263.346 99.8971 263.555 99.2852C263.763 98.6667 264.056 98.1296 264.434 97.6738C264.811 97.2181 265.26 96.8665 265.781 96.6191C266.309 96.3652 266.891 96.2383 267.529 96.2383C268.05 96.2383 268.519 96.3099 268.936 96.4531C269.352 96.5898 269.707 96.8112 270 97.1172C270.299 97.4232 270.527 97.8203 270.684 98.3086C270.84 98.7904 270.918 99.3796 270.918 100.076V107H269.102V100.057C269.102 99.5033 269.02 99.0605 268.857 98.7285C268.695 98.39 268.457 98.1458 268.145 97.9961C267.832 97.8398 267.448 97.7617 266.992 97.7617C266.543 97.7617 266.133 97.8561 265.762 98.0449C265.397 98.2337 265.081 98.4941 264.814 98.8262C264.554 99.1582 264.349 99.5391 264.199 99.9688C264.056 100.392 263.984 100.841 263.984 101.316ZM273.145 101.834V101.609C273.145 100.848 273.255 100.141 273.477 99.4902C273.698 98.8327 274.017 98.263 274.434 97.7812C274.85 97.293 275.355 96.9154 275.947 96.6484C276.54 96.375 277.204 96.2383 277.939 96.2383C278.682 96.2383 279.349 96.375 279.941 96.6484C280.54 96.9154 281.048 97.293 281.465 97.7812C281.888 98.263 282.21 98.8327 282.432 99.4902C282.653 100.141 282.764 100.848 282.764 101.609V101.834C282.764 102.596 282.653 103.302 282.432 103.953C282.21 104.604 281.888 105.174 281.465 105.662C281.048 106.144 280.544 106.521 279.951 106.795C279.365 107.062 278.701 107.195 277.959 107.195C277.217 107.195 276.549 107.062 275.957 106.795C275.365 106.521 274.857 106.144 274.434 105.662C274.017 105.174 273.698 104.604 273.477 103.953C273.255 103.302 273.145 102.596 273.145 101.834ZM274.951 101.609V101.834C274.951 102.361 275.013 102.859 275.137 103.328C275.26 103.79 275.446 104.201 275.693 104.559C275.947 104.917 276.263 105.2 276.641 105.408C277.018 105.61 277.458 105.711 277.959 105.711C278.454 105.711 278.887 105.61 279.258 105.408C279.635 105.2 279.948 104.917 280.195 104.559C280.443 104.201 280.628 103.79 280.752 103.328C280.882 102.859 280.947 102.361 280.947 101.834V101.609C280.947 101.089 280.882 100.597 280.752 100.135C280.628 99.666 280.439 99.2526 280.186 98.8945C279.938 98.5299 279.626 98.2435 279.248 98.0352C278.877 97.8268 278.441 97.7227 277.939 97.7227C277.445 97.7227 277.008 97.8268 276.631 98.0352C276.26 98.2435 275.947 98.5299 275.693 98.8945C275.446 99.2526 275.26 99.666 275.137 100.135C275.013 100.597 274.951 101.089 274.951 101.609ZM291.182 104.197C291.182 103.937 291.123 103.696 291.006 103.475C290.895 103.247 290.664 103.042 290.312 102.859C289.967 102.671 289.447 102.508 288.75 102.371C288.164 102.247 287.633 102.101 287.158 101.932C286.689 101.762 286.289 101.557 285.957 101.316C285.632 101.076 285.381 100.792 285.205 100.467C285.029 100.141 284.941 99.7604 284.941 99.3242C284.941 98.9076 285.033 98.5137 285.215 98.1426C285.404 97.7715 285.667 97.4427 286.006 97.1562C286.351 96.8698 286.764 96.6452 287.246 96.4824C287.728 96.3197 288.265 96.2383 288.857 96.2383C289.704 96.2383 290.426 96.388 291.025 96.6875C291.624 96.987 292.083 97.3874 292.402 97.8887C292.721 98.3835 292.881 98.9336 292.881 99.5391H291.074C291.074 99.2461 290.986 98.9629 290.811 98.6895C290.641 98.4095 290.391 98.1784 290.059 97.9961C289.733 97.8138 289.333 97.7227 288.857 97.7227C288.356 97.7227 287.949 97.8008 287.637 97.957C287.331 98.1068 287.106 98.2988 286.963 98.5332C286.826 98.7676 286.758 99.015 286.758 99.2754C286.758 99.4707 286.79 99.6465 286.855 99.8027C286.927 99.9525 287.051 100.092 287.227 100.223C287.402 100.346 287.65 100.464 287.969 100.574C288.288 100.685 288.695 100.796 289.189 100.906C290.055 101.102 290.768 101.336 291.328 101.609C291.888 101.883 292.305 102.218 292.578 102.615C292.852 103.012 292.988 103.494 292.988 104.061C292.988 104.523 292.891 104.946 292.695 105.33C292.507 105.714 292.23 106.046 291.865 106.326C291.507 106.6 291.077 106.814 290.576 106.971C290.081 107.12 289.525 107.195 288.906 107.195C287.975 107.195 287.188 107.029 286.543 106.697C285.898 106.365 285.41 105.936 285.078 105.408C284.746 104.881 284.58 104.324 284.58 103.738H286.396C286.423 104.233 286.566 104.627 286.826 104.92C287.087 105.206 287.406 105.411 287.783 105.535C288.161 105.652 288.535 105.711 288.906 105.711C289.401 105.711 289.814 105.646 290.146 105.516C290.485 105.385 290.742 105.206 290.918 104.979C291.094 104.751 291.182 104.49 291.182 104.197ZM299.785 96.4336V97.8203H294.072V96.4336H299.785ZM296.006 93.8652H297.812V104.383C297.812 104.741 297.868 105.011 297.979 105.193C298.089 105.376 298.232 105.496 298.408 105.555C298.584 105.613 298.773 105.643 298.975 105.643C299.124 105.643 299.281 105.63 299.443 105.604C299.613 105.571 299.74 105.545 299.824 105.525L299.834 107C299.691 107.046 299.502 107.088 299.268 107.127C299.04 107.173 298.763 107.195 298.438 107.195C297.995 107.195 297.588 107.107 297.217 106.932C296.846 106.756 296.549 106.463 296.328 106.053C296.113 105.636 296.006 105.076 296.006 104.373V93.8652ZM310.625 100.213V101.697H305.859V100.213H310.625ZM324.395 96.4336V97.9277H319.053V96.4336H324.395ZM319.316 96.4336V107H317.51V96.4336H319.316ZM325.996 96.4336V107H324.18V96.4336H325.996ZM330.703 98.4648V111.062H328.887V96.4336H330.547L330.703 98.4648ZM337.822 101.629V101.834C337.822 102.602 337.731 103.315 337.549 103.973C337.367 104.624 337.1 105.19 336.748 105.672C336.403 106.154 335.977 106.528 335.469 106.795C334.961 107.062 334.378 107.195 333.721 107.195C333.05 107.195 332.458 107.085 331.943 106.863C331.429 106.642 330.993 106.32 330.635 105.896C330.277 105.473 329.99 104.965 329.775 104.373C329.567 103.781 329.424 103.113 329.346 102.371V101.277C329.424 100.496 329.57 99.7962 329.785 99.1777C330 98.5592 330.283 98.0319 330.635 97.5957C330.993 97.153 331.426 96.8177 331.934 96.5898C332.441 96.3555 333.027 96.2383 333.691 96.2383C334.355 96.2383 334.945 96.3685 335.459 96.6289C335.973 96.8828 336.406 97.2474 336.758 97.7227C337.109 98.1979 337.373 98.7676 337.549 99.4316C337.731 100.089 337.822 100.822 337.822 101.629ZM336.006 101.834V101.629C336.006 101.102 335.951 100.607 335.84 100.145C335.729 99.6758 335.557 99.2656 335.322 98.9141C335.094 98.556 334.801 98.276 334.443 98.0742C334.085 97.8659 333.659 97.7617 333.164 97.7617C332.708 97.7617 332.311 97.8398 331.973 97.9961C331.641 98.1523 331.357 98.3639 331.123 98.6309C330.889 98.8913 330.697 99.1908 330.547 99.5293C330.404 99.8613 330.296 100.206 330.225 100.564V103.094C330.355 103.549 330.537 103.979 330.771 104.383C331.006 104.78 331.318 105.102 331.709 105.35C332.1 105.59 332.591 105.711 333.184 105.711C333.672 105.711 334.092 105.61 334.443 105.408C334.801 105.2 335.094 104.917 335.322 104.559C335.557 104.201 335.729 103.79 335.84 103.328C335.951 102.859 336.006 102.361 336.006 101.834ZM342.08 104.139L346.953 96.4336H348.77V107H346.953V99.2949L342.08 107H340.283V96.4336H342.08V104.139ZM355.615 101.951H353.672V100.838H355.469C355.97 100.838 356.367 100.776 356.66 100.652C356.953 100.522 357.161 100.343 357.285 100.115C357.409 99.8874 357.471 99.6204 357.471 99.3145C357.471 99.041 357.399 98.7839 357.256 98.543C357.119 98.2956 356.898 98.097 356.592 97.9473C356.286 97.791 355.876 97.7129 355.361 97.7129C354.945 97.7129 354.567 97.7878 354.229 97.9375C353.89 98.0807 353.62 98.2793 353.418 98.5332C353.223 98.7806 353.125 99.0605 353.125 99.373H351.318C351.318 98.7285 351.501 98.1751 351.865 97.7129C352.236 97.2441 352.728 96.8828 353.34 96.6289C353.958 96.375 354.632 96.248 355.361 96.248C355.973 96.248 356.52 96.3164 357.002 96.4531C357.49 96.5833 357.904 96.7786 358.242 97.0391C358.581 97.293 358.838 97.612 359.014 97.9961C359.196 98.3737 359.287 98.8132 359.287 99.3145C359.287 99.6725 359.202 100.011 359.033 100.33C358.864 100.649 358.62 100.932 358.301 101.18C357.982 101.421 357.594 101.609 357.139 101.746C356.689 101.883 356.182 101.951 355.615 101.951ZM353.672 101.268H355.615C356.247 101.268 356.803 101.329 357.285 101.453C357.767 101.57 358.171 101.746 358.496 101.98C358.822 102.215 359.066 102.505 359.229 102.85C359.398 103.188 359.482 103.579 359.482 104.021C359.482 104.516 359.382 104.962 359.18 105.359C358.984 105.75 358.704 106.082 358.34 106.355C357.975 106.629 357.539 106.837 357.031 106.98C356.53 107.124 355.973 107.195 355.361 107.195C354.678 107.195 354.014 107.078 353.369 106.844C352.725 106.609 352.194 106.248 351.777 105.76C351.361 105.265 351.152 104.637 351.152 103.875H352.959C352.959 104.194 353.06 104.497 353.262 104.783C353.464 105.07 353.743 105.301 354.102 105.477C354.466 105.652 354.886 105.74 355.361 105.74C355.869 105.74 356.292 105.662 356.631 105.506C356.969 105.35 357.223 105.141 357.393 104.881C357.568 104.62 357.656 104.337 357.656 104.031C357.656 103.634 357.578 103.315 357.422 103.074C357.266 102.833 357.025 102.658 356.699 102.547C356.38 102.43 355.97 102.371 355.469 102.371H353.672V101.268ZM363.633 98.4648V111.062H361.816V96.4336H363.477L363.633 98.4648ZM370.752 101.629V101.834C370.752 102.602 370.661 103.315 370.479 103.973C370.296 104.624 370.029 105.19 369.678 105.672C369.333 106.154 368.906 106.528 368.398 106.795C367.891 107.062 367.308 107.195 366.65 107.195C365.98 107.195 365.387 107.085 364.873 106.863C364.359 106.642 363.923 106.32 363.564 105.896C363.206 105.473 362.92 104.965 362.705 104.373C362.497 103.781 362.354 103.113 362.275 102.371V101.277C362.354 100.496 362.5 99.7962 362.715 99.1777C362.93 98.5592 363.213 98.0319 363.564 97.5957C363.923 97.153 364.355 96.8177 364.863 96.5898C365.371 96.3555 365.957 96.2383 366.621 96.2383C367.285 96.2383 367.874 96.3685 368.389 96.6289C368.903 96.8828 369.336 97.2474 369.688 97.7227C370.039 98.1979 370.303 98.7676 370.479 99.4316C370.661 100.089 370.752 100.822 370.752 101.629ZM368.936 101.834V101.629C368.936 101.102 368.88 100.607 368.77 100.145C368.659 99.6758 368.486 99.2656 368.252 98.9141C368.024 98.556 367.731 98.276 367.373 98.0742C367.015 97.8659 366.589 97.7617 366.094 97.7617C365.638 97.7617 365.241 97.8398 364.902 97.9961C364.57 98.1523 364.287 98.3639 364.053 98.6309C363.818 98.8913 363.626 99.1908 363.477 99.5293C363.333 99.8613 363.226 100.206 363.154 100.564V103.094C363.285 103.549 363.467 103.979 363.701 104.383C363.936 104.78 364.248 105.102 364.639 105.35C365.029 105.59 365.521 105.711 366.113 105.711C366.602 105.711 367.021 105.61 367.373 105.408C367.731 105.2 368.024 104.917 368.252 104.559C368.486 104.201 368.659 103.79 368.77 103.328C368.88 102.859 368.936 102.361 368.936 101.834ZM379.287 105.193V99.7539C379.287 99.3372 379.202 98.9759 379.033 98.6699C378.87 98.3574 378.623 98.1165 378.291 97.9473C377.959 97.778 377.549 97.6934 377.061 97.6934C376.605 97.6934 376.204 97.7715 375.859 97.9277C375.521 98.084 375.254 98.2891 375.059 98.543C374.87 98.7969 374.775 99.0703 374.775 99.3633H372.969C372.969 98.9857 373.066 98.6113 373.262 98.2402C373.457 97.8691 373.737 97.5339 374.102 97.2344C374.473 96.9284 374.915 96.6875 375.43 96.5117C375.951 96.3294 376.53 96.2383 377.168 96.2383C377.936 96.2383 378.613 96.3685 379.199 96.6289C379.792 96.8893 380.254 97.2832 380.586 97.8105C380.924 98.3314 381.094 98.9857 381.094 99.7734V104.695C381.094 105.047 381.123 105.421 381.182 105.818C381.247 106.215 381.341 106.557 381.465 106.844V107H379.58C379.489 106.792 379.417 106.515 379.365 106.17C379.313 105.818 379.287 105.493 379.287 105.193ZM379.6 100.594L379.619 101.863H377.793C377.279 101.863 376.82 101.906 376.416 101.99C376.012 102.068 375.674 102.189 375.4 102.352C375.127 102.514 374.919 102.719 374.775 102.967C374.632 103.208 374.561 103.491 374.561 103.816C374.561 104.148 374.635 104.451 374.785 104.725C374.935 104.998 375.16 105.216 375.459 105.379C375.765 105.535 376.139 105.613 376.582 105.613C377.135 105.613 377.624 105.496 378.047 105.262C378.47 105.027 378.805 104.741 379.053 104.402C379.307 104.064 379.443 103.735 379.463 103.416L380.234 104.285C380.189 104.559 380.065 104.861 379.863 105.193C379.661 105.525 379.391 105.844 379.053 106.15C378.721 106.45 378.324 106.701 377.861 106.902C377.406 107.098 376.891 107.195 376.318 107.195C375.602 107.195 374.974 107.055 374.434 106.775C373.9 106.495 373.483 106.121 373.184 105.652C372.891 105.177 372.744 104.646 372.744 104.061C372.744 103.494 372.855 102.996 373.076 102.566C373.298 102.13 373.617 101.769 374.033 101.482C374.45 101.189 374.951 100.968 375.537 100.818C376.123 100.669 376.777 100.594 377.5 100.594H379.6ZM385.898 96.4336V107H384.092V96.4336H385.898ZM392.832 96.4336L387.822 102.488H385.293L385.02 100.906H387.09L390.635 96.4336H392.832ZM390.889 107L387.002 102.215L388.164 100.906L393.184 107H390.889Z" fill="black"/>
<path d="M557.428 139.848V141.703H551.959V139.848H557.428ZM552.643 135.434V146H550.289V135.434H552.643ZM559.127 135.434V146H556.773V135.434H559.127ZM567.594 143.881V138.842C567.594 138.464 567.525 138.139 567.389 137.865C567.252 137.592 567.044 137.38 566.764 137.23C566.49 137.081 566.145 137.006 565.729 137.006C565.344 137.006 565.012 137.071 564.732 137.201C564.452 137.331 564.234 137.507 564.078 137.729C563.922 137.95 563.844 138.201 563.844 138.48H561.5C561.5 138.064 561.601 137.66 561.803 137.27C562.005 136.879 562.298 136.531 562.682 136.225C563.066 135.919 563.525 135.678 564.059 135.502C564.592 135.326 565.191 135.238 565.855 135.238C566.65 135.238 567.353 135.372 567.965 135.639C568.583 135.906 569.068 136.309 569.42 136.85C569.778 137.383 569.957 138.054 569.957 138.861V143.559C569.957 144.04 569.99 144.473 570.055 144.857C570.126 145.235 570.227 145.564 570.357 145.844V146H567.945C567.835 145.746 567.747 145.424 567.682 145.033C567.623 144.636 567.594 144.252 567.594 143.881ZM567.936 139.574L567.955 141.029H566.266C565.829 141.029 565.445 141.072 565.113 141.156C564.781 141.234 564.505 141.352 564.283 141.508C564.062 141.664 563.896 141.853 563.785 142.074C563.674 142.296 563.619 142.546 563.619 142.826C563.619 143.106 563.684 143.363 563.814 143.598C563.945 143.826 564.133 144.005 564.381 144.135C564.635 144.265 564.941 144.33 565.299 144.33C565.781 144.33 566.201 144.232 566.559 144.037C566.923 143.835 567.21 143.591 567.418 143.305C567.626 143.012 567.737 142.735 567.75 142.475L568.512 143.52C568.434 143.786 568.3 144.073 568.111 144.379C567.923 144.685 567.675 144.978 567.369 145.258C567.07 145.531 566.708 145.756 566.285 145.932C565.868 146.107 565.387 146.195 564.84 146.195C564.15 146.195 563.535 146.059 562.994 145.785C562.454 145.505 562.031 145.131 561.725 144.662C561.419 144.187 561.266 143.65 561.266 143.051C561.266 142.491 561.37 141.996 561.578 141.566C561.793 141.13 562.105 140.766 562.516 140.473C562.932 140.18 563.44 139.958 564.039 139.809C564.638 139.652 565.322 139.574 566.09 139.574H567.936ZM574.781 137.465V150.062H572.428V135.434H574.596L574.781 137.465ZM581.666 140.619V140.824C581.666 141.592 581.575 142.305 581.393 142.963C581.217 143.614 580.953 144.184 580.602 144.672C580.257 145.154 579.83 145.528 579.322 145.795C578.814 146.062 578.229 146.195 577.564 146.195C576.907 146.195 576.331 146.075 575.836 145.834C575.348 145.587 574.934 145.238 574.596 144.789C574.257 144.34 573.984 143.812 573.775 143.207C573.574 142.595 573.43 141.924 573.346 141.195V140.404C573.43 139.63 573.574 138.926 573.775 138.295C573.984 137.663 574.257 137.12 574.596 136.664C574.934 136.208 575.348 135.857 575.836 135.609C576.324 135.362 576.894 135.238 577.545 135.238C578.209 135.238 578.798 135.368 579.312 135.629C579.827 135.883 580.26 136.247 580.611 136.723C580.963 137.191 581.227 137.758 581.402 138.422C581.578 139.079 581.666 139.812 581.666 140.619ZM579.312 140.824V140.619C579.312 140.131 579.267 139.678 579.176 139.262C579.085 138.839 578.941 138.467 578.746 138.148C578.551 137.829 578.3 137.582 577.994 137.406C577.695 137.224 577.333 137.133 576.91 137.133C576.493 137.133 576.135 137.204 575.836 137.348C575.536 137.484 575.286 137.676 575.084 137.924C574.882 138.171 574.726 138.461 574.615 138.793C574.505 139.118 574.426 139.473 574.381 139.857V141.752C574.459 142.221 574.592 142.65 574.781 143.041C574.97 143.432 575.237 143.744 575.582 143.979C575.934 144.206 576.383 144.32 576.93 144.32C577.353 144.32 577.714 144.229 578.014 144.047C578.313 143.865 578.557 143.614 578.746 143.295C578.941 142.969 579.085 142.595 579.176 142.172C579.267 141.749 579.312 141.299 579.312 140.824ZM588.326 146.195C587.545 146.195 586.839 146.068 586.207 145.814C585.582 145.554 585.048 145.193 584.605 144.73C584.169 144.268 583.834 143.725 583.6 143.1C583.365 142.475 583.248 141.801 583.248 141.078V140.688C583.248 139.861 583.368 139.112 583.609 138.441C583.85 137.771 584.186 137.198 584.615 136.723C585.045 136.241 585.553 135.873 586.139 135.619C586.725 135.365 587.359 135.238 588.043 135.238C588.798 135.238 589.459 135.365 590.025 135.619C590.592 135.873 591.061 136.231 591.432 136.693C591.809 137.149 592.089 137.693 592.271 138.324C592.46 138.956 592.555 139.652 592.555 140.414V141.42H584.391V139.73H590.23V139.545C590.217 139.122 590.133 138.725 589.977 138.354C589.827 137.982 589.596 137.683 589.283 137.455C588.971 137.227 588.554 137.113 588.033 137.113C587.643 137.113 587.294 137.198 586.988 137.367C586.689 137.53 586.438 137.768 586.236 138.08C586.035 138.393 585.878 138.77 585.768 139.213C585.663 139.649 585.611 140.141 585.611 140.688V141.078C585.611 141.54 585.673 141.97 585.797 142.367C585.927 142.758 586.116 143.1 586.363 143.393C586.611 143.686 586.91 143.917 587.262 144.086C587.613 144.249 588.014 144.33 588.463 144.33C589.029 144.33 589.534 144.216 589.977 143.988C590.419 143.76 590.803 143.438 591.129 143.021L592.369 144.223C592.141 144.555 591.845 144.874 591.48 145.18C591.116 145.479 590.67 145.723 590.143 145.912C589.622 146.101 589.016 146.195 588.326 146.195ZM602.877 135.434V146H600.523V135.434H602.877ZM601.881 140.111V141.977C601.594 142.1 601.272 142.214 600.914 142.318C600.562 142.416 600.191 142.497 599.801 142.562C599.41 142.621 599.016 142.65 598.619 142.65C597.688 142.65 596.884 142.507 596.207 142.221C595.536 141.934 595.019 141.495 594.654 140.902C594.296 140.303 594.117 139.545 594.117 138.627V135.424H596.461V138.627C596.461 139.154 596.539 139.574 596.695 139.887C596.858 140.199 597.099 140.424 597.418 140.561C597.737 140.697 598.137 140.766 598.619 140.766C599.023 140.766 599.404 140.74 599.762 140.688C600.12 140.629 600.475 140.551 600.826 140.453C601.178 140.355 601.529 140.242 601.881 140.111ZM607.818 142.562L611.969 135.434H614.322V146H611.969V138.861L607.818 146H605.465V135.434H607.818V142.562ZM621.471 146.195C620.689 146.195 619.983 146.068 619.352 145.814C618.727 145.554 618.193 145.193 617.75 144.73C617.314 144.268 616.979 143.725 616.744 143.1C616.51 142.475 616.393 141.801 616.393 141.078V140.688C616.393 139.861 616.513 139.112 616.754 138.441C616.995 137.771 617.33 137.198 617.76 136.723C618.189 136.241 618.697 135.873 619.283 135.619C619.869 135.365 620.504 135.238 621.188 135.238C621.943 135.238 622.604 135.365 623.17 135.619C623.736 135.873 624.205 136.231 624.576 136.693C624.954 137.149 625.234 137.693 625.416 138.324C625.605 138.956 625.699 139.652 625.699 140.414V141.42H617.535V139.73H623.375V139.545C623.362 139.122 623.277 138.725 623.121 138.354C622.971 137.982 622.74 137.683 622.428 137.455C622.115 137.227 621.699 137.113 621.178 137.113C620.787 137.113 620.439 137.198 620.133 137.367C619.833 137.53 619.583 137.768 619.381 138.08C619.179 138.393 619.023 138.77 618.912 139.213C618.808 139.649 618.756 140.141 618.756 140.688V141.078C618.756 141.54 618.818 141.97 618.941 142.367C619.072 142.758 619.26 143.1 619.508 143.393C619.755 143.686 620.055 143.917 620.406 144.086C620.758 144.249 621.158 144.33 621.607 144.33C622.174 144.33 622.678 144.216 623.121 143.988C623.564 143.76 623.948 143.438 624.273 143.021L625.514 144.223C625.286 144.555 624.99 144.874 624.625 145.18C624.26 145.479 623.814 145.723 623.287 145.912C622.766 146.101 622.161 146.195 621.471 146.195ZM554.605 172.711C555.035 172.711 555.432 172.623 555.797 172.447C556.161 172.271 556.461 172.031 556.695 171.725C556.93 171.412 557.063 171.057 557.096 170.66H558.814C558.782 171.285 558.57 171.868 558.18 172.408C557.796 172.942 557.291 173.375 556.666 173.707C556.041 174.033 555.354 174.195 554.605 174.195C553.811 174.195 553.118 174.055 552.525 173.775C551.939 173.495 551.451 173.111 551.061 172.623C550.676 172.135 550.387 171.575 550.191 170.943C550.003 170.305 549.908 169.632 549.908 168.922V168.512C549.908 167.802 550.003 167.132 550.191 166.5C550.387 165.862 550.676 165.299 551.061 164.811C551.451 164.322 551.939 163.938 552.525 163.658C553.118 163.378 553.811 163.238 554.605 163.238C555.432 163.238 556.155 163.408 556.773 163.746C557.392 164.078 557.877 164.534 558.229 165.113C558.587 165.686 558.782 166.337 558.814 167.066H557.096C557.063 166.63 556.939 166.236 556.725 165.885C556.516 165.533 556.23 165.253 555.865 165.045C555.507 164.83 555.087 164.723 554.605 164.723C554.052 164.723 553.587 164.833 553.209 165.055C552.838 165.27 552.542 165.562 552.32 165.934C552.105 166.298 551.949 166.705 551.852 167.154C551.76 167.597 551.715 168.049 551.715 168.512V168.922C551.715 169.384 551.76 169.84 551.852 170.289C551.943 170.738 552.096 171.145 552.311 171.51C552.532 171.874 552.828 172.167 553.199 172.389C553.577 172.604 554.046 172.711 554.605 172.711ZM562.809 159V174H560.992V159H562.809ZM570.094 174.195C569.358 174.195 568.691 174.072 568.092 173.824C567.499 173.57 566.988 173.215 566.559 172.76C566.135 172.304 565.81 171.764 565.582 171.139C565.354 170.514 565.24 169.83 565.24 169.088V168.678C565.24 167.818 565.367 167.053 565.621 166.383C565.875 165.706 566.22 165.133 566.656 164.664C567.092 164.195 567.587 163.84 568.141 163.6C568.694 163.359 569.267 163.238 569.859 163.238C570.615 163.238 571.266 163.368 571.812 163.629C572.366 163.889 572.818 164.254 573.17 164.723C573.521 165.185 573.782 165.732 573.951 166.363C574.12 166.988 574.205 167.672 574.205 168.414V169.225H566.314V167.75H572.398V167.613C572.372 167.145 572.275 166.689 572.105 166.246C571.943 165.803 571.682 165.439 571.324 165.152C570.966 164.866 570.478 164.723 569.859 164.723C569.449 164.723 569.072 164.811 568.727 164.986C568.382 165.156 568.085 165.41 567.838 165.748C567.59 166.087 567.398 166.5 567.262 166.988C567.125 167.477 567.057 168.04 567.057 168.678V169.088C567.057 169.589 567.125 170.061 567.262 170.504C567.405 170.94 567.61 171.324 567.877 171.656C568.15 171.988 568.479 172.249 568.863 172.438C569.254 172.626 569.697 172.721 570.191 172.721C570.829 172.721 571.37 172.59 571.812 172.33C572.255 172.07 572.643 171.721 572.975 171.285L574.068 172.154C573.84 172.499 573.551 172.828 573.199 173.141C572.848 173.453 572.415 173.707 571.9 173.902C571.393 174.098 570.79 174.195 570.094 174.195ZM582.545 172.193V166.754C582.545 166.337 582.46 165.976 582.291 165.67C582.128 165.357 581.881 165.117 581.549 164.947C581.217 164.778 580.807 164.693 580.318 164.693C579.863 164.693 579.462 164.771 579.117 164.928C578.779 165.084 578.512 165.289 578.316 165.543C578.128 165.797 578.033 166.07 578.033 166.363H576.227C576.227 165.986 576.324 165.611 576.52 165.24C576.715 164.869 576.995 164.534 577.359 164.234C577.73 163.928 578.173 163.688 578.688 163.512C579.208 163.329 579.788 163.238 580.426 163.238C581.194 163.238 581.871 163.368 582.457 163.629C583.049 163.889 583.512 164.283 583.844 164.811C584.182 165.331 584.352 165.986 584.352 166.773V171.695C584.352 172.047 584.381 172.421 584.439 172.818C584.505 173.215 584.599 173.557 584.723 173.844V174H582.838C582.747 173.792 582.675 173.515 582.623 173.17C582.571 172.818 582.545 172.493 582.545 172.193ZM582.857 167.594L582.877 168.863H581.051C580.536 168.863 580.077 168.906 579.674 168.99C579.27 169.068 578.932 169.189 578.658 169.352C578.385 169.514 578.176 169.719 578.033 169.967C577.89 170.208 577.818 170.491 577.818 170.816C577.818 171.148 577.893 171.451 578.043 171.725C578.193 171.998 578.417 172.216 578.717 172.379C579.023 172.535 579.397 172.613 579.84 172.613C580.393 172.613 580.882 172.496 581.305 172.262C581.728 172.027 582.063 171.741 582.311 171.402C582.564 171.064 582.701 170.735 582.721 170.416L583.492 171.285C583.447 171.559 583.323 171.861 583.121 172.193C582.919 172.525 582.649 172.844 582.311 173.15C581.979 173.45 581.581 173.701 581.119 173.902C580.663 174.098 580.149 174.195 579.576 174.195C578.86 174.195 578.232 174.055 577.691 173.775C577.158 173.495 576.741 173.121 576.441 172.652C576.148 172.177 576.002 171.646 576.002 171.061C576.002 170.494 576.113 169.996 576.334 169.566C576.555 169.13 576.874 168.769 577.291 168.482C577.708 168.189 578.209 167.968 578.795 167.818C579.381 167.669 580.035 167.594 580.758 167.594H582.857ZM589 165.689V174H587.193V163.434H588.902L589 165.689ZM588.57 168.316L587.818 168.287C587.825 167.564 587.932 166.897 588.141 166.285C588.349 165.667 588.642 165.13 589.02 164.674C589.397 164.218 589.846 163.867 590.367 163.619C590.895 163.365 591.477 163.238 592.115 163.238C592.636 163.238 593.105 163.31 593.521 163.453C593.938 163.59 594.293 163.811 594.586 164.117C594.885 164.423 595.113 164.82 595.27 165.309C595.426 165.79 595.504 166.38 595.504 167.076V174H593.688V167.057C593.688 166.503 593.606 166.061 593.443 165.729C593.281 165.39 593.043 165.146 592.73 164.996C592.418 164.84 592.034 164.762 591.578 164.762C591.129 164.762 590.719 164.856 590.348 165.045C589.983 165.234 589.667 165.494 589.4 165.826C589.14 166.158 588.935 166.539 588.785 166.969C588.642 167.392 588.57 167.841 588.57 168.316ZM601.979 157.75V159.234H600.113V175.562H601.979V177.047H598.307V157.75H601.979ZM605.523 159V174H603.707V159H605.523ZM611.393 172.906L614.332 163.434H616.266L612.027 175.631C611.93 175.891 611.799 176.171 611.637 176.471C611.48 176.777 611.279 177.066 611.031 177.34C610.784 177.613 610.484 177.835 610.133 178.004C609.788 178.18 609.374 178.268 608.893 178.268C608.749 178.268 608.567 178.248 608.346 178.209C608.124 178.17 607.968 178.137 607.877 178.111L607.867 176.646C607.919 176.653 608.001 176.66 608.111 176.666C608.229 176.679 608.31 176.686 608.355 176.686C608.766 176.686 609.114 176.63 609.4 176.52C609.687 176.415 609.928 176.236 610.123 175.982C610.325 175.735 610.497 175.393 610.641 174.957L611.393 172.906ZM609.234 163.434L611.979 171.637L612.447 173.541L611.148 174.205L607.262 163.434H609.234ZM616.617 159.234V157.75H620.309V177.047H616.617V175.562H618.492V159.234H616.617ZM631.93 167.213V168.697H627.164V167.213H631.93ZM646.627 163.434V174H644.82V163.434H646.627ZM646.012 168.287V169.771C645.647 169.908 645.276 170.032 644.898 170.143C644.527 170.247 644.133 170.331 643.717 170.396C643.307 170.455 642.861 170.484 642.379 170.484C641.546 170.484 640.823 170.341 640.211 170.055C639.599 169.762 639.127 169.322 638.795 168.736C638.463 168.144 638.297 167.398 638.297 166.5V163.414H640.104V166.5C640.104 167.086 640.191 167.561 640.367 167.926C640.543 168.29 640.8 168.561 641.139 168.736C641.477 168.906 641.891 168.99 642.379 168.99C642.848 168.99 643.287 168.961 643.697 168.902C644.114 168.837 644.511 168.753 644.889 168.648C645.273 168.544 645.647 168.424 646.012 168.287ZM651.49 171.139L656.363 163.434H658.18V174H656.363V166.295L651.49 174H649.693V163.434H651.49V171.139ZM665.309 172.711C665.738 172.711 666.135 172.623 666.5 172.447C666.865 172.271 667.164 172.031 667.398 171.725C667.633 171.412 667.766 171.057 667.799 170.66H669.518C669.485 171.285 669.273 171.868 668.883 172.408C668.499 172.942 667.994 173.375 667.369 173.707C666.744 174.033 666.057 174.195 665.309 174.195C664.514 174.195 663.821 174.055 663.229 173.775C662.643 173.495 662.154 173.111 661.764 172.623C661.38 172.135 661.09 171.575 660.895 170.943C660.706 170.305 660.611 169.632 660.611 168.922V168.512C660.611 167.802 660.706 167.132 660.895 166.5C661.09 165.862 661.38 165.299 661.764 164.811C662.154 164.322 662.643 163.938 663.229 163.658C663.821 163.378 664.514 163.238 665.309 163.238C666.135 163.238 666.858 163.408 667.477 163.746C668.095 164.078 668.58 164.534 668.932 165.113C669.29 165.686 669.485 166.337 669.518 167.066H667.799C667.766 166.63 667.643 166.236 667.428 165.885C667.219 165.533 666.933 165.253 666.568 165.045C666.21 164.83 665.79 164.723 665.309 164.723C664.755 164.723 664.29 164.833 663.912 165.055C663.541 165.27 663.245 165.562 663.023 165.934C662.809 166.298 662.652 166.705 662.555 167.154C662.464 167.597 662.418 168.049 662.418 168.512V168.922C662.418 169.384 662.464 169.84 662.555 170.289C662.646 170.738 662.799 171.145 663.014 171.51C663.235 171.874 663.531 172.167 663.902 172.389C664.28 172.604 664.749 172.711 665.309 172.711ZM675.855 163.434V174H674.039V163.434H675.855ZM679.4 163.434V164.898H670.562V163.434H679.4ZM680.289 168.834V168.609C680.289 167.848 680.4 167.141 680.621 166.49C680.842 165.833 681.161 165.263 681.578 164.781C681.995 164.293 682.499 163.915 683.092 163.648C683.684 163.375 684.348 163.238 685.084 163.238C685.826 163.238 686.493 163.375 687.086 163.648C687.685 163.915 688.193 164.293 688.609 164.781C689.033 165.263 689.355 165.833 689.576 166.49C689.798 167.141 689.908 167.848 689.908 168.609V168.834C689.908 169.596 689.798 170.302 689.576 170.953C689.355 171.604 689.033 172.174 688.609 172.662C688.193 173.144 687.688 173.521 687.096 173.795C686.51 174.062 685.846 174.195 685.104 174.195C684.361 174.195 683.694 174.062 683.102 173.795C682.509 173.521 682.001 173.144 681.578 172.662C681.161 172.174 680.842 171.604 680.621 170.953C680.4 170.302 680.289 169.596 680.289 168.834ZM682.096 168.609V168.834C682.096 169.361 682.158 169.859 682.281 170.328C682.405 170.79 682.59 171.201 682.838 171.559C683.092 171.917 683.408 172.2 683.785 172.408C684.163 172.61 684.602 172.711 685.104 172.711C685.598 172.711 686.031 172.61 686.402 172.408C686.78 172.2 687.092 171.917 687.34 171.559C687.587 171.201 687.773 170.79 687.896 170.328C688.027 169.859 688.092 169.361 688.092 168.834V168.609C688.092 168.089 688.027 167.597 687.896 167.135C687.773 166.666 687.584 166.253 687.33 165.895C687.083 165.53 686.77 165.243 686.393 165.035C686.021 164.827 685.585 164.723 685.084 164.723C684.589 164.723 684.153 164.827 683.775 165.035C683.404 165.243 683.092 165.53 682.838 165.895C682.59 166.253 682.405 166.666 682.281 167.135C682.158 167.597 682.096 168.089 682.096 168.609Z" fill="black"/>
<path d="M557.301 68.4336V70.3086H552.086V68.4336H557.301ZM552.643 68.4336V79H550.289V68.4336H552.643ZM559.146 68.4336V79H556.783V68.4336H559.146ZM564 70.4648V83.0625H561.646V68.4336H563.814L564 70.4648ZM570.885 73.6191V73.8242C570.885 74.5924 570.794 75.3053 570.611 75.9629C570.436 76.6139 570.172 77.1836 569.82 77.6719C569.475 78.1536 569.049 78.528 568.541 78.7949C568.033 79.0618 567.447 79.1953 566.783 79.1953C566.126 79.1953 565.549 79.0749 565.055 78.834C564.566 78.5866 564.153 78.2383 563.814 77.7891C563.476 77.3398 563.202 76.8125 562.994 76.207C562.792 75.5951 562.649 74.9245 562.564 74.1953V73.4043C562.649 72.6296 562.792 71.9264 562.994 71.2949C563.202 70.6634 563.476 70.1198 563.814 69.6641C564.153 69.2083 564.566 68.8568 565.055 68.6094C565.543 68.362 566.113 68.2383 566.764 68.2383C567.428 68.2383 568.017 68.3685 568.531 68.6289C569.046 68.8828 569.479 69.2474 569.83 69.7227C570.182 70.1914 570.445 70.7578 570.621 71.4219C570.797 72.0794 570.885 72.8118 570.885 73.6191ZM568.531 73.8242V73.6191C568.531 73.1309 568.486 72.6784 568.395 72.2617C568.303 71.8385 568.16 71.4674 567.965 71.1484C567.77 70.8294 567.519 70.582 567.213 70.4062C566.913 70.224 566.552 70.1328 566.129 70.1328C565.712 70.1328 565.354 70.2044 565.055 70.3477C564.755 70.4844 564.505 70.6764 564.303 70.9238C564.101 71.1712 563.945 71.4609 563.834 71.793C563.723 72.1185 563.645 72.4733 563.6 72.8574V74.752C563.678 75.2207 563.811 75.6504 564 76.041C564.189 76.4316 564.456 76.7441 564.801 76.9785C565.152 77.2064 565.602 77.3203 566.148 77.3203C566.572 77.3203 566.933 77.2292 567.232 77.0469C567.532 76.8646 567.776 76.6139 567.965 76.2949C568.16 75.9694 568.303 75.5951 568.395 75.1719C568.486 74.7487 568.531 74.2995 568.531 73.8242ZM575.318 75.5625L579.469 68.4336H581.822V79H579.469V71.8613L575.318 79H572.965V68.4336H575.318V75.5625ZM591.412 68.4336V70.3086H586.256V68.4336H591.412ZM593.258 68.4336V79H590.904V68.4336H593.258ZM585.68 68.4336H588.004L587.721 73.6582C587.682 74.4329 587.604 75.1165 587.486 75.709C587.376 76.2949 587.226 76.7995 587.037 77.2227C586.848 77.6393 586.617 77.9779 586.344 78.2383C586.07 78.4987 585.751 78.6908 585.387 78.8145C585.022 78.9382 584.612 79 584.156 79H583.424L583.414 77.0664L583.785 77.0371C584.026 77.0176 584.234 76.9557 584.41 76.8516C584.586 76.7409 584.736 76.5846 584.859 76.3828C584.99 76.181 585.094 75.9206 585.172 75.6016C585.257 75.2826 585.322 74.9049 585.367 74.4688C585.419 74.0326 585.458 73.5247 585.484 72.9453L585.68 68.4336ZM557.223 96.4336H558.863V106.775C558.863 107.706 558.674 108.501 558.297 109.158C557.919 109.816 557.392 110.314 556.715 110.652C556.044 110.997 555.27 111.17 554.391 111.17C554.026 111.17 553.596 111.111 553.102 110.994C552.613 110.883 552.132 110.691 551.656 110.418C551.188 110.151 550.794 109.79 550.475 109.334L551.422 108.26C551.865 108.794 552.327 109.165 552.809 109.373C553.297 109.581 553.779 109.686 554.254 109.686C554.827 109.686 555.322 109.578 555.738 109.363C556.155 109.148 556.477 108.829 556.705 108.406C556.939 107.99 557.057 107.475 557.057 106.863V98.7578L557.223 96.4336ZM549.947 101.834V101.629C549.947 100.822 550.042 100.089 550.23 99.4316C550.426 98.7676 550.702 98.1979 551.061 97.7227C551.425 97.2474 551.865 96.8828 552.379 96.6289C552.893 96.3685 553.473 96.2383 554.117 96.2383C554.781 96.2383 555.361 96.3555 555.855 96.5898C556.357 96.8177 556.78 97.153 557.125 97.5957C557.477 98.0319 557.753 98.5592 557.955 99.1777C558.157 99.7962 558.297 100.496 558.375 101.277V102.176C558.303 102.951 558.163 103.647 557.955 104.266C557.753 104.884 557.477 105.411 557.125 105.848C556.78 106.284 556.357 106.619 555.855 106.854C555.354 107.081 554.768 107.195 554.098 107.195C553.466 107.195 552.893 107.062 552.379 106.795C551.871 106.528 551.435 106.154 551.07 105.672C550.706 105.19 550.426 104.624 550.23 103.973C550.042 103.315 549.947 102.602 549.947 101.834ZM551.754 101.629V101.834C551.754 102.361 551.806 102.856 551.91 103.318C552.021 103.781 552.187 104.188 552.408 104.539C552.636 104.891 552.926 105.167 553.277 105.369C553.629 105.564 554.049 105.662 554.537 105.662C555.136 105.662 555.631 105.535 556.021 105.281C556.412 105.027 556.721 104.692 556.949 104.275C557.184 103.859 557.366 103.406 557.496 102.918V100.564C557.424 100.206 557.314 99.8613 557.164 99.5293C557.021 99.1908 556.832 98.8913 556.598 98.6309C556.37 98.3639 556.087 98.1523 555.748 97.9961C555.41 97.8398 555.012 97.7617 554.557 97.7617C554.062 97.7617 553.635 97.8659 553.277 98.0742C552.926 98.276 552.636 98.556 552.408 98.9141C552.187 99.2656 552.021 99.6758 551.91 100.145C551.806 100.607 551.754 101.102 551.754 101.629ZM563.414 92V107H561.607V92H563.414ZM562.984 101.316L562.232 101.287C562.239 100.564 562.346 99.8971 562.555 99.2852C562.763 98.6667 563.056 98.1296 563.434 97.6738C563.811 97.2181 564.26 96.8665 564.781 96.6191C565.309 96.3652 565.891 96.2383 566.529 96.2383C567.05 96.2383 567.519 96.3099 567.936 96.4531C568.352 96.5898 568.707 96.8112 569 97.1172C569.299 97.4232 569.527 97.8203 569.684 98.3086C569.84 98.7904 569.918 99.3796 569.918 100.076V107H568.102V100.057C568.102 99.5033 568.02 99.0605 567.857 98.7285C567.695 98.39 567.457 98.1458 567.145 97.9961C566.832 97.8398 566.448 97.7617 565.992 97.7617C565.543 97.7617 565.133 97.8561 564.762 98.0449C564.397 98.2337 564.081 98.4941 563.814 98.8262C563.554 99.1582 563.349 99.5391 563.199 99.9688C563.056 100.392 562.984 100.841 562.984 101.316ZM572.145 101.834V101.609C572.145 100.848 572.255 100.141 572.477 99.4902C572.698 98.8327 573.017 98.263 573.434 97.7812C573.85 97.293 574.355 96.9154 574.947 96.6484C575.54 96.375 576.204 96.2383 576.939 96.2383C577.682 96.2383 578.349 96.375 578.941 96.6484C579.54 96.9154 580.048 97.293 580.465 97.7812C580.888 98.263 581.21 98.8327 581.432 99.4902C581.653 100.141 581.764 100.848 581.764 101.609V101.834C581.764 102.596 581.653 103.302 581.432 103.953C581.21 104.604 580.888 105.174 580.465 105.662C580.048 106.144 579.544 106.521 578.951 106.795C578.365 107.062 577.701 107.195 576.959 107.195C576.217 107.195 575.549 107.062 574.957 106.795C574.365 106.521 573.857 106.144 573.434 105.662C573.017 105.174 572.698 104.604 572.477 103.953C572.255 103.302 572.145 102.596 572.145 101.834ZM573.951 101.609V101.834C573.951 102.361 574.013 102.859 574.137 103.328C574.26 103.79 574.446 104.201 574.693 104.559C574.947 104.917 575.263 105.2 575.641 105.408C576.018 105.61 576.458 105.711 576.959 105.711C577.454 105.711 577.887 105.61 578.258 105.408C578.635 105.2 578.948 104.917 579.195 104.559C579.443 104.201 579.628 103.79 579.752 103.328C579.882 102.859 579.947 102.361 579.947 101.834V101.609C579.947 101.089 579.882 100.597 579.752 100.135C579.628 99.666 579.439 99.2526 579.186 98.8945C578.938 98.5299 578.626 98.2435 578.248 98.0352C577.877 97.8268 577.441 97.7227 576.939 97.7227C576.445 97.7227 576.008 97.8268 575.631 98.0352C575.26 98.2435 574.947 98.5299 574.693 98.8945C574.446 99.2526 574.26 99.666 574.137 100.135C574.013 100.597 573.951 101.089 573.951 101.609ZM590.182 104.197C590.182 103.937 590.123 103.696 590.006 103.475C589.895 103.247 589.664 103.042 589.312 102.859C588.967 102.671 588.447 102.508 587.75 102.371C587.164 102.247 586.633 102.101 586.158 101.932C585.689 101.762 585.289 101.557 584.957 101.316C584.632 101.076 584.381 100.792 584.205 100.467C584.029 100.141 583.941 99.7604 583.941 99.3242C583.941 98.9076 584.033 98.5137 584.215 98.1426C584.404 97.7715 584.667 97.4427 585.006 97.1562C585.351 96.8698 585.764 96.6452 586.246 96.4824C586.728 96.3197 587.265 96.2383 587.857 96.2383C588.704 96.2383 589.426 96.388 590.025 96.6875C590.624 96.987 591.083 97.3874 591.402 97.8887C591.721 98.3835 591.881 98.9336 591.881 99.5391H590.074C590.074 99.2461 589.986 98.9629 589.811 98.6895C589.641 98.4095 589.391 98.1784 589.059 97.9961C588.733 97.8138 588.333 97.7227 587.857 97.7227C587.356 97.7227 586.949 97.8008 586.637 97.957C586.331 98.1068 586.106 98.2988 585.963 98.5332C585.826 98.7676 585.758 99.015 585.758 99.2754C585.758 99.4707 585.79 99.6465 585.855 99.8027C585.927 99.9525 586.051 100.092 586.227 100.223C586.402 100.346 586.65 100.464 586.969 100.574C587.288 100.685 587.695 100.796 588.189 100.906C589.055 101.102 589.768 101.336 590.328 101.609C590.888 101.883 591.305 102.218 591.578 102.615C591.852 103.012 591.988 103.494 591.988 104.061C591.988 104.523 591.891 104.946 591.695 105.33C591.507 105.714 591.23 106.046 590.865 106.326C590.507 106.6 590.077 106.814 589.576 106.971C589.081 107.12 588.525 107.195 587.906 107.195C586.975 107.195 586.188 107.029 585.543 106.697C584.898 106.365 584.41 105.936 584.078 105.408C583.746 104.881 583.58 104.324 583.58 103.738H585.396C585.423 104.233 585.566 104.627 585.826 104.92C586.087 105.206 586.406 105.411 586.783 105.535C587.161 105.652 587.535 105.711 587.906 105.711C588.401 105.711 588.814 105.646 589.146 105.516C589.485 105.385 589.742 105.206 589.918 104.979C590.094 104.751 590.182 104.49 590.182 104.197ZM598.785 96.4336V97.8203H593.072V96.4336H598.785ZM595.006 93.8652H596.812V104.383C596.812 104.741 596.868 105.011 596.979 105.193C597.089 105.376 597.232 105.496 597.408 105.555C597.584 105.613 597.773 105.643 597.975 105.643C598.124 105.643 598.281 105.63 598.443 105.604C598.613 105.571 598.74 105.545 598.824 105.525L598.834 107C598.691 107.046 598.502 107.088 598.268 107.127C598.04 107.173 597.763 107.195 597.438 107.195C596.995 107.195 596.588 107.107 596.217 106.932C595.846 106.756 595.549 106.463 595.328 106.053C595.113 105.636 595.006 105.076 595.006 104.373V93.8652ZM604.635 90.75V92.2344H602.77V108.562H604.635V110.047H600.963V90.75H604.635ZM608.18 92V107H606.363V92H608.18ZM614.049 105.906L616.988 96.4336H618.922L614.684 108.631C614.586 108.891 614.456 109.171 614.293 109.471C614.137 109.777 613.935 110.066 613.688 110.34C613.44 110.613 613.141 110.835 612.789 111.004C612.444 111.18 612.031 111.268 611.549 111.268C611.406 111.268 611.223 111.248 611.002 111.209C610.781 111.17 610.624 111.137 610.533 111.111L610.523 109.646C610.576 109.653 610.657 109.66 610.768 109.666C610.885 109.679 610.966 109.686 611.012 109.686C611.422 109.686 611.77 109.63 612.057 109.52C612.343 109.415 612.584 109.236 612.779 108.982C612.981 108.735 613.154 108.393 613.297 107.957L614.049 105.906ZM611.891 96.4336L614.635 104.637L615.104 106.541L613.805 107.205L609.918 96.4336H611.891ZM619.273 92.2344V90.75H622.965V110.047H619.273V108.562H621.148V92.2344H619.273ZM634.586 100.213V101.697H629.82V100.213H634.586ZM648.355 96.4336V97.9277H643.014V96.4336H648.355ZM643.277 96.4336V107H641.471V96.4336H643.277ZM649.957 96.4336V107H648.141V96.4336H649.957ZM654.664 98.4648V111.062H652.848V96.4336H654.508L654.664 98.4648ZM661.783 101.629V101.834C661.783 102.602 661.692 103.315 661.51 103.973C661.327 104.624 661.061 105.19 660.709 105.672C660.364 106.154 659.938 106.528 659.43 106.795C658.922 107.062 658.339 107.195 657.682 107.195C657.011 107.195 656.419 107.085 655.904 106.863C655.39 106.642 654.954 106.32 654.596 105.896C654.238 105.473 653.951 104.965 653.736 104.373C653.528 103.781 653.385 103.113 653.307 102.371V101.277C653.385 100.496 653.531 99.7962 653.746 99.1777C653.961 98.5592 654.244 98.0319 654.596 97.5957C654.954 97.153 655.387 96.8177 655.895 96.5898C656.402 96.3555 656.988 96.2383 657.652 96.2383C658.316 96.2383 658.906 96.3685 659.42 96.6289C659.934 96.8828 660.367 97.2474 660.719 97.7227C661.07 98.1979 661.334 98.7676 661.51 99.4316C661.692 100.089 661.783 100.822 661.783 101.629ZM659.967 101.834V101.629C659.967 101.102 659.911 100.607 659.801 100.145C659.69 99.6758 659.518 99.2656 659.283 98.9141C659.055 98.556 658.762 98.276 658.404 98.0742C658.046 97.8659 657.62 97.7617 657.125 97.7617C656.669 97.7617 656.272 97.8398 655.934 97.9961C655.602 98.1523 655.318 98.3639 655.084 98.6309C654.85 98.8913 654.658 99.1908 654.508 99.5293C654.365 99.8613 654.257 100.206 654.186 100.564V103.094C654.316 103.549 654.498 103.979 654.732 104.383C654.967 104.78 655.279 105.102 655.67 105.35C656.061 105.59 656.552 105.711 657.145 105.711C657.633 105.711 658.053 105.61 658.404 105.408C658.762 105.2 659.055 104.917 659.283 104.559C659.518 104.201 659.69 103.79 659.801 103.328C659.911 102.859 659.967 102.361 659.967 101.834ZM666.041 104.139L670.914 96.4336H672.73V107H670.914V99.2949L666.041 107H664.244V96.4336H666.041V104.139ZM679.576 101.951H677.633V100.838H679.43C679.931 100.838 680.328 100.776 680.621 100.652C680.914 100.522 681.122 100.343 681.246 100.115C681.37 99.8874 681.432 99.6204 681.432 99.3145C681.432 99.041 681.36 98.7839 681.217 98.543C681.08 98.2956 680.859 98.097 680.553 97.9473C680.247 97.791 679.837 97.7129 679.322 97.7129C678.906 97.7129 678.528 97.7878 678.189 97.9375C677.851 98.0807 677.581 98.2793 677.379 98.5332C677.184 98.7806 677.086 99.0605 677.086 99.373H675.279C675.279 98.7285 675.462 98.1751 675.826 97.7129C676.197 97.2441 676.689 96.8828 677.301 96.6289C677.919 96.375 678.593 96.248 679.322 96.248C679.934 96.248 680.481 96.3164 680.963 96.4531C681.451 96.5833 681.865 96.7786 682.203 97.0391C682.542 97.293 682.799 97.612 682.975 97.9961C683.157 98.3737 683.248 98.8132 683.248 99.3145C683.248 99.6725 683.163 100.011 682.994 100.33C682.825 100.649 682.581 100.932 682.262 101.18C681.943 101.421 681.555 101.609 681.1 101.746C680.65 101.883 680.143 101.951 679.576 101.951ZM677.633 101.268H679.576C680.208 101.268 680.764 101.329 681.246 101.453C681.728 101.57 682.132 101.746 682.457 101.98C682.783 102.215 683.027 102.505 683.189 102.85C683.359 103.188 683.443 103.579 683.443 104.021C683.443 104.516 683.342 104.962 683.141 105.359C682.945 105.75 682.665 106.082 682.301 106.355C681.936 106.629 681.5 106.837 680.992 106.98C680.491 107.124 679.934 107.195 679.322 107.195C678.639 107.195 677.975 107.078 677.33 106.844C676.686 106.609 676.155 106.248 675.738 105.76C675.322 105.265 675.113 104.637 675.113 103.875H676.92C676.92 104.194 677.021 104.497 677.223 104.783C677.424 105.07 677.704 105.301 678.062 105.477C678.427 105.652 678.847 105.74 679.322 105.74C679.83 105.74 680.253 105.662 680.592 105.506C680.93 105.35 681.184 105.141 681.354 104.881C681.529 104.62 681.617 104.337 681.617 104.031C681.617 103.634 681.539 103.315 681.383 103.074C681.227 102.833 680.986 102.658 680.66 102.547C680.341 102.43 679.931 102.371 679.43 102.371H677.633V101.268ZM687.594 98.4648V111.062H685.777V96.4336H687.438L687.594 98.4648ZM694.713 101.629V101.834C694.713 102.602 694.622 103.315 694.439 103.973C694.257 104.624 693.99 105.19 693.639 105.672C693.294 106.154 692.867 106.528 692.359 106.795C691.852 107.062 691.269 107.195 690.611 107.195C689.941 107.195 689.348 107.085 688.834 106.863C688.32 106.642 687.883 106.32 687.525 105.896C687.167 105.473 686.881 104.965 686.666 104.373C686.458 103.781 686.314 103.113 686.236 102.371V101.277C686.314 100.496 686.461 99.7962 686.676 99.1777C686.891 98.5592 687.174 98.0319 687.525 97.5957C687.883 97.153 688.316 96.8177 688.824 96.5898C689.332 96.3555 689.918 96.2383 690.582 96.2383C691.246 96.2383 691.835 96.3685 692.35 96.6289C692.864 96.8828 693.297 97.2474 693.648 97.7227C694 98.1979 694.264 98.7676 694.439 99.4316C694.622 100.089 694.713 100.822 694.713 101.629ZM692.896 101.834V101.629C692.896 101.102 692.841 100.607 692.73 100.145C692.62 99.6758 692.447 99.2656 692.213 98.9141C691.985 98.556 691.692 98.276 691.334 98.0742C690.976 97.8659 690.549 97.7617 690.055 97.7617C689.599 97.7617 689.202 97.8398 688.863 97.9961C688.531 98.1523 688.248 98.3639 688.014 98.6309C687.779 98.8913 687.587 99.1908 687.438 99.5293C687.294 99.8613 687.187 100.206 687.115 100.564V103.094C687.245 103.549 687.428 103.979 687.662 104.383C687.896 104.78 688.209 105.102 688.6 105.35C688.99 105.59 689.482 105.711 690.074 105.711C690.562 105.711 690.982 105.61 691.334 105.408C691.692 105.2 691.985 104.917 692.213 104.559C692.447 104.201 692.62 103.79 692.73 103.328C692.841 102.859 692.896 102.361 692.896 101.834ZM703.248 105.193V99.7539C703.248 99.3372 703.163 98.9759 702.994 98.6699C702.831 98.3574 702.584 98.1165 702.252 97.9473C701.92 97.778 701.51 97.6934 701.021 97.6934C700.566 97.6934 700.165 97.7715 699.82 97.9277C699.482 98.084 699.215 98.2891 699.02 98.543C698.831 98.7969 698.736 99.0703 698.736 99.3633H696.93C696.93 98.9857 697.027 98.6113 697.223 98.2402C697.418 97.8691 697.698 97.5339 698.062 97.2344C698.434 96.9284 698.876 96.6875 699.391 96.5117C699.911 96.3294 700.491 96.2383 701.129 96.2383C701.897 96.2383 702.574 96.3685 703.16 96.6289C703.753 96.8893 704.215 97.2832 704.547 97.8105C704.885 98.3314 705.055 98.9857 705.055 99.7734V104.695C705.055 105.047 705.084 105.421 705.143 105.818C705.208 106.215 705.302 106.557 705.426 106.844V107H703.541C703.45 106.792 703.378 106.515 703.326 106.17C703.274 105.818 703.248 105.493 703.248 105.193ZM703.561 100.594L703.58 101.863H701.754C701.24 101.863 700.781 101.906 700.377 101.99C699.973 102.068 699.635 102.189 699.361 102.352C699.088 102.514 698.88 102.719 698.736 102.967C698.593 103.208 698.521 103.491 698.521 103.816C698.521 104.148 698.596 104.451 698.746 104.725C698.896 104.998 699.12 105.216 699.42 105.379C699.726 105.535 700.1 105.613 700.543 105.613C701.096 105.613 701.585 105.496 702.008 105.262C702.431 105.027 702.766 104.741 703.014 104.402C703.268 104.064 703.404 103.735 703.424 103.416L704.195 104.285C704.15 104.559 704.026 104.861 703.824 105.193C703.622 105.525 703.352 105.844 703.014 106.15C702.682 106.45 702.285 106.701 701.822 106.902C701.367 107.098 700.852 107.195 700.279 107.195C699.563 107.195 698.935 107.055 698.395 106.775C697.861 106.495 697.444 106.121 697.145 105.652C696.852 105.177 696.705 104.646 696.705 104.061C696.705 103.494 696.816 102.996 697.037 102.566C697.258 102.13 697.577 101.769 697.994 101.482C698.411 101.189 698.912 100.968 699.498 100.818C700.084 100.669 700.738 100.594 701.461 100.594H703.561ZM715.865 96.4336V107H714.059V96.4336H715.865ZM715.25 101.287V102.771C714.885 102.908 714.514 103.032 714.137 103.143C713.766 103.247 713.372 103.331 712.955 103.396C712.545 103.455 712.099 103.484 711.617 103.484C710.784 103.484 710.061 103.341 709.449 103.055C708.837 102.762 708.365 102.322 708.033 101.736C707.701 101.144 707.535 100.398 707.535 99.5V96.4141H709.342V99.5C709.342 100.086 709.43 100.561 709.605 100.926C709.781 101.29 710.038 101.561 710.377 101.736C710.715 101.906 711.129 101.99 711.617 101.99C712.086 101.99 712.525 101.961 712.936 101.902C713.352 101.837 713.749 101.753 714.127 101.648C714.511 101.544 714.885 101.424 715.25 101.287ZM725.943 101.014V102.479H720.357V101.014H725.943ZM720.738 96.4336V107H718.932V96.4336H720.738ZM727.408 96.4336V107H725.592V96.4336H727.408ZM731.803 100.066H734.977C735.829 100.066 736.549 100.216 737.135 100.516C737.721 100.809 738.163 101.215 738.463 101.736C738.769 102.251 738.922 102.837 738.922 103.494C738.922 103.982 738.837 104.441 738.668 104.871C738.499 105.294 738.245 105.665 737.906 105.984C737.574 106.303 737.161 106.554 736.666 106.736C736.178 106.912 735.615 107 734.977 107H730.484V96.4336H732.291V105.516H734.977C735.497 105.516 735.914 105.421 736.227 105.232C736.539 105.044 736.764 104.799 736.9 104.5C737.037 104.201 737.105 103.888 737.105 103.562C737.105 103.243 737.037 102.931 736.9 102.625C736.764 102.319 736.539 102.065 736.227 101.863C735.914 101.655 735.497 101.551 734.977 101.551H731.803V100.066ZM742.682 96.4336V107H740.875V96.4336H742.682ZM747.799 104.139L752.672 96.4336H754.488V107H752.672V99.2949L747.799 107H746.002V96.4336H747.799V104.139ZM751.686 92.6055H753.15C753.15 93.1133 753.033 93.5658 752.799 93.9629C752.564 94.3535 752.229 94.6595 751.793 94.8809C751.357 95.1022 750.839 95.2129 750.24 95.2129C749.335 95.2129 748.619 94.972 748.092 94.4902C747.571 94.002 747.311 93.3737 747.311 92.6055H748.775C748.775 92.9896 748.886 93.3281 749.107 93.6211C749.329 93.9141 749.706 94.0605 750.24 94.0605C750.761 94.0605 751.132 93.9141 751.354 93.6211C751.575 93.3281 751.686 92.9896 751.686 92.6055Z" fill="black"/>
</g>
<defs>
<clipPath id="clip0_2713_737">
<rect width="900" height="190" fill="white"/>
</clipPath>
</defs>
</svg>
