<svg width="900" height="128" viewBox="0 0 900 128" fill="none" xmlns="http://www.w3.org/2000/svg">
<g clip-path="url(#clip0_2713_947)">
<rect width="900" height="128" fill="white"/>
<line y1="0.5" x2="900" y2="0.5" stroke="black"/>
<line x1="0.5" x2="0.5" y2="128" stroke="black"/>
<line x1="899.5" y1="1" x2="899.5" y2="128" stroke="black"/>
<path d="M39.1748 25.75V26.9219C39.1748 28.5332 38.9648 29.9785 38.5449 31.2578C38.125 32.5371 37.5244 33.626 36.7432 34.5244C35.9717 35.4229 35.0439 36.1113 33.96 36.5898C32.876 37.0586 31.6748 37.293 30.3564 37.293C29.0479 37.293 27.8516 37.0586 26.7676 36.5898C25.6934 36.1113 24.7607 35.4229 23.9697 34.5244C23.1787 33.626 22.5635 32.5371 22.124 31.2578C21.6943 29.9785 21.4795 28.5332 21.4795 26.9219V25.75C21.4795 24.1387 21.6943 22.6982 22.124 21.4287C22.5537 20.1494 23.1592 19.0605 23.9404 18.1621C24.7314 17.2539 25.6641 16.5654 26.7383 16.0967C27.8223 15.6182 29.0186 15.3789 30.3271 15.3789C31.6455 15.3789 32.8467 15.6182 33.9307 16.0967C35.0146 16.5654 35.9473 17.2539 36.7285 18.1621C37.5098 19.0605 38.1104 20.1494 38.5303 21.4287C38.96 22.6982 39.1748 24.1387 39.1748 25.75ZM35.498 26.9219V25.7207C35.498 24.5293 35.3809 23.4795 35.1465 22.5713C34.9219 21.6533 34.585 20.8867 34.1357 20.2715C33.6963 19.6465 33.1543 19.1777 32.5098 18.8652C31.8652 18.543 31.1377 18.3818 30.3271 18.3818C29.5166 18.3818 28.7939 18.543 28.1592 18.8652C27.5244 19.1777 26.9824 19.6465 26.5332 20.2715C26.0938 20.8867 25.7568 21.6533 25.5225 22.5713C25.2881 23.4795 25.1709 24.5293 25.1709 25.7207V26.9219C25.1709 28.1133 25.2881 29.168 25.5225 30.0859C25.7568 31.0039 26.0986 31.7803 26.5479 32.415C27.0068 33.04 27.5537 33.5137 28.1885 33.8359C28.8232 34.1484 29.5459 34.3047 30.3564 34.3047C31.1768 34.3047 31.9043 34.1484 32.5391 33.8359C33.1738 33.5137 33.7109 33.04 34.1504 32.415C34.5898 31.7803 34.9219 31.0039 35.1465 30.0859C35.3809 29.168 35.498 28.1133 35.498 26.9219ZM46.3086 21.1504V37H42.7783V21.1504H46.3086ZM56.6504 21.1504L49.5166 30.6865H45.4883L45.0195 27.4932H47.9639L52.2412 21.1504H56.6504ZM52.5195 37L47.7441 30.0859L50.5273 28.0791L57.1631 37H52.5195ZM57.8809 29.251V28.9141C57.8809 27.7715 58.0469 26.7119 58.3789 25.7354C58.7109 24.749 59.1895 23.8945 59.8145 23.1719C60.4492 22.4395 61.2207 21.873 62.1289 21.4727C63.0469 21.0625 64.082 20.8574 65.2344 20.8574C66.3965 20.8574 67.4316 21.0625 68.3398 21.4727C69.2578 21.873 70.0342 22.4395 70.6689 23.1719C71.3037 23.8945 71.7871 24.749 72.1191 25.7354C72.4512 26.7119 72.6172 27.7715 72.6172 28.9141V29.251C72.6172 30.3936 72.4512 31.4531 72.1191 32.4297C71.7871 33.4062 71.3037 34.2607 70.6689 34.9932C70.0342 35.7158 69.2627 36.2822 68.3545 36.6924C67.4463 37.0928 66.416 37.293 65.2637 37.293C64.1016 37.293 63.0615 37.0928 62.1436 36.6924C61.2354 36.2822 60.4639 35.7158 59.8291 34.9932C59.1943 34.2607 58.7109 33.4062 58.3789 32.4297C58.0469 31.4531 57.8809 30.3936 57.8809 29.251ZM61.4111 28.9141V29.251C61.4111 29.9639 61.4844 30.6377 61.6309 31.2725C61.7773 31.9072 62.0068 32.4639 62.3193 32.9424C62.6318 33.4209 63.0322 33.7969 63.5205 34.0703C64.0088 34.3438 64.5898 34.4805 65.2637 34.4805C65.918 34.4805 66.4844 34.3438 66.9629 34.0703C67.4512 33.7969 67.8516 33.4209 68.1641 32.9424C68.4766 32.4639 68.7061 31.9072 68.8525 31.2725C69.0088 30.6377 69.0869 29.9639 69.0869 29.251V28.9141C69.0869 28.2109 69.0088 27.5469 68.8525 26.9219C68.7061 26.2871 68.4717 25.7256 68.1494 25.2373C67.8369 24.749 67.4365 24.3682 66.9482 24.0947C66.4697 23.8115 65.8984 23.6699 65.2344 23.6699C64.5703 23.6699 63.9941 23.8115 63.5059 24.0947C63.0273 24.3682 62.6318 24.749 62.3193 25.2373C62.0068 25.7256 61.7773 26.2871 61.6309 26.9219C61.4844 27.5469 61.4111 28.2109 61.4111 28.9141ZM86.4014 27.7715V30.5547H78.1982V27.7715H86.4014ZM79.2236 21.1504V37H75.6934V21.1504H79.2236ZM88.9502 21.1504V37H85.4199V21.1504H88.9502ZM105.444 21.1504V37H101.914V21.1504H105.444ZM103.95 28.167V30.9648C103.521 31.1504 103.037 31.3213 102.5 31.4775C101.973 31.624 101.416 31.7461 100.83 31.8438C100.244 31.9316 99.6533 31.9756 99.0576 31.9756C97.6611 31.9756 96.4551 31.7607 95.4395 31.3311C94.4336 30.9014 93.6572 30.2422 93.1104 29.3535C92.5732 28.4551 92.3047 27.3174 92.3047 25.9404V21.1357H95.8203V25.9404C95.8203 26.7314 95.9375 27.3613 96.1719 27.8301C96.416 28.2988 96.7773 28.6357 97.2559 28.8408C97.7344 29.0459 98.335 29.1484 99.0576 29.1484C99.6631 29.1484 100.234 29.1094 100.771 29.0312C101.309 28.9434 101.841 28.8262 102.368 28.6797C102.896 28.5332 103.423 28.3623 103.95 28.167ZM118.145 33.8213V26.2627C118.145 25.6963 118.042 25.208 117.837 24.7979C117.632 24.3877 117.319 24.0703 116.899 23.8457C116.489 23.6211 115.972 23.5088 115.347 23.5088C114.771 23.5088 114.272 23.6064 113.853 23.8018C113.433 23.9971 113.105 24.2607 112.871 24.5928C112.637 24.9248 112.52 25.3008 112.52 25.7207H109.004C109.004 25.0957 109.155 24.4902 109.458 23.9043C109.761 23.3184 110.2 22.7959 110.776 22.3369C111.353 21.8779 112.041 21.5166 112.842 21.2529C113.643 20.9893 114.541 20.8574 115.537 20.8574C116.729 20.8574 117.783 21.0576 118.701 21.458C119.629 21.8584 120.356 22.4639 120.884 23.2744C121.421 24.0752 121.689 25.0811 121.689 26.292V33.3379C121.689 34.0605 121.738 34.71 121.836 35.2861C121.943 35.8525 122.095 36.3457 122.29 36.7656V37H118.672C118.506 36.6191 118.374 36.1357 118.276 35.5498C118.188 34.9541 118.145 34.3779 118.145 33.8213ZM118.657 27.3613L118.687 29.5439H116.152C115.498 29.5439 114.922 29.6074 114.424 29.7344C113.926 29.8516 113.511 30.0273 113.179 30.2617C112.847 30.4961 112.598 30.7793 112.432 31.1113C112.266 31.4434 112.183 31.8193 112.183 32.2393C112.183 32.6592 112.28 33.0449 112.476 33.3965C112.671 33.7383 112.954 34.0068 113.325 34.2021C113.706 34.3975 114.165 34.4951 114.702 34.4951C115.425 34.4951 116.055 34.3486 116.592 34.0557C117.139 33.7529 117.568 33.3867 117.881 32.957C118.193 32.5176 118.359 32.1025 118.379 31.7119L119.521 33.2793C119.404 33.6797 119.204 34.1094 118.921 34.5684C118.638 35.0273 118.267 35.4668 117.808 35.8867C117.358 36.2969 116.816 36.6338 116.182 36.8975C115.557 37.1611 114.834 37.293 114.014 37.293C112.979 37.293 112.056 37.0879 111.245 36.6777C110.435 36.2578 109.8 35.6963 109.341 34.9932C108.882 34.2803 108.652 33.4746 108.652 32.5762C108.652 31.7363 108.809 30.9941 109.121 30.3496C109.443 29.6953 109.912 29.1484 110.527 28.709C111.152 28.2695 111.914 27.9375 112.812 27.7129C113.711 27.4785 114.736 27.3613 115.889 27.3613H118.657ZM136.206 27.7715V30.5547H128.003V27.7715H136.206ZM129.028 21.1504V37H125.498V21.1504H129.028ZM138.755 21.1504V37H135.225V21.1504H138.755ZM146.167 31.8438L152.393 21.1504H155.923V37H152.393V26.292L146.167 37H142.637V21.1504H146.167V31.8438ZM162.998 29.251H166.66L162.163 37H158.516L162.998 29.251ZM165.576 21.1504H172.373V37H168.857V23.9336H165.576C164.912 23.9336 164.365 24.0508 163.936 24.2852C163.506 24.5098 163.188 24.8076 162.983 25.1787C162.778 25.54 162.676 25.9111 162.676 26.292C162.676 26.6729 162.769 27.0391 162.954 27.3906C163.149 27.7422 163.447 28.0303 163.848 28.2549C164.258 28.4795 164.771 28.5918 165.386 28.5918H170.044V31.1699H165.386C164.409 31.1699 163.535 31.0479 162.764 30.8037C161.992 30.5498 161.338 30.2031 160.801 29.7637C160.264 29.3145 159.854 28.792 159.57 28.1963C159.287 27.5908 159.146 26.9316 159.146 26.2188C159.146 25.4863 159.292 24.8125 159.585 24.1973C159.878 23.582 160.298 23.0449 160.845 22.5859C161.401 22.127 162.075 21.7754 162.866 21.5312C163.667 21.2773 164.57 21.1504 165.576 21.1504Z" fill="black"/>
<path d="M255.903 15.6719V37H252.241V15.6719H255.903ZM268.735 15.6719L260.063 27.8301H254.863L254.365 24.6367H258.027L264.238 15.6719H268.735ZM264.985 37L258.086 27.2734L260.459 24.4463L269.395 37H264.985ZM291.353 21.1504V37H287.822V21.1504H291.353ZM289.858 28.167V30.9648C289.429 31.1504 288.945 31.3213 288.408 31.4775C287.881 31.624 287.324 31.7461 286.738 31.8438C286.152 31.9316 285.562 31.9756 284.966 31.9756C283.569 31.9756 282.363 31.7607 281.348 31.3311C280.342 30.9014 279.565 30.2422 279.019 29.3535C278.481 28.4551 278.213 27.3174 278.213 25.9404V21.1357H281.729V25.9404C281.729 26.7314 281.846 27.3613 282.08 27.8301C282.324 28.2988 282.686 28.6357 283.164 28.8408C283.643 29.0459 284.243 29.1484 284.966 29.1484C285.571 29.1484 286.143 29.1094 286.68 29.0312C287.217 28.9434 287.749 28.8262 288.276 28.6797C288.804 28.5332 289.331 28.3623 289.858 28.167ZM302.104 37.293C300.933 37.293 299.873 37.1025 298.926 36.7217C297.988 36.3311 297.188 35.7891 296.523 35.0957C295.869 34.4023 295.366 33.5869 295.015 32.6494C294.663 31.7119 294.487 30.7012 294.487 29.6172V29.0312C294.487 27.791 294.668 26.668 295.029 25.6621C295.391 24.6562 295.894 23.7969 296.538 23.084C297.183 22.3613 297.944 21.8096 298.823 21.4287C299.702 21.0479 300.654 20.8574 301.68 20.8574C302.812 20.8574 303.804 21.0479 304.653 21.4287C305.503 21.8096 306.206 22.3467 306.763 23.04C307.329 23.7236 307.749 24.5391 308.022 25.4863C308.306 26.4336 308.447 27.4785 308.447 28.6211V30.1299H296.201V27.5957H304.961V27.3174C304.941 26.6826 304.814 26.0869 304.58 25.5303C304.355 24.9736 304.009 24.5244 303.54 24.1826C303.071 23.8408 302.446 23.6699 301.665 23.6699C301.079 23.6699 300.557 23.7969 300.098 24.0508C299.648 24.2949 299.272 24.6514 298.97 25.1201C298.667 25.5889 298.433 26.1553 298.267 26.8193C298.11 27.4736 298.032 28.2109 298.032 29.0312V29.6172C298.032 30.3105 298.125 30.9551 298.311 31.5508C298.506 32.1367 298.789 32.6494 299.16 33.0889C299.531 33.5283 299.98 33.875 300.508 34.1289C301.035 34.373 301.636 34.4951 302.31 34.4951C303.159 34.4951 303.916 34.3242 304.58 33.9824C305.244 33.6406 305.82 33.1572 306.309 32.5322L308.169 34.334C307.827 34.832 307.383 35.3105 306.836 35.7695C306.289 36.2188 305.62 36.585 304.829 36.8682C304.048 37.1514 303.14 37.293 302.104 37.293ZM320.62 32.7227L325.337 21.1504H328.398L321.821 37H319.419L312.856 21.1504H315.918L320.62 32.7227ZM315.01 21.1504V37H311.479V21.1504H315.01ZM326.23 37V21.1504H329.775V37H326.23ZM338.33 35.2715L342.637 21.1504H346.416L340.059 39.417C339.912 39.8076 339.722 40.2324 339.487 40.6914C339.253 41.1504 338.945 41.585 338.564 41.9951C338.193 42.415 337.729 42.752 337.173 43.0059C336.616 43.2695 335.942 43.4014 335.151 43.4014C334.839 43.4014 334.536 43.3721 334.243 43.3135C333.96 43.2646 333.691 43.2109 333.438 43.1523L333.423 40.457C333.521 40.4668 333.638 40.4766 333.774 40.4863C333.921 40.4961 334.038 40.501 334.126 40.501C334.712 40.501 335.2 40.4277 335.591 40.2812C335.981 40.1445 336.299 39.9199 336.543 39.6074C336.797 39.2949 337.012 38.875 337.188 38.3477L338.33 35.2715ZM335.898 21.1504L339.663 33.0156L340.293 36.7363L337.847 37.3662L332.09 21.1504H335.898ZM366.543 21.1504V23.9629H358.721V21.1504H366.543ZM359.556 21.1504V37H356.025V21.1504H359.556ZM369.312 21.1504V37H365.767V21.1504H369.312ZM376.592 24.1973V43.0938H373.062V21.1504H376.313L376.592 24.1973ZM386.919 28.9287V29.2363C386.919 30.3887 386.782 31.458 386.509 32.4443C386.245 33.4209 385.85 34.2754 385.322 35.0078C384.805 35.7305 384.165 36.292 383.403 36.6924C382.642 37.0928 381.763 37.293 380.767 37.293C379.78 37.293 378.916 37.1123 378.174 36.751C377.441 36.3799 376.821 35.8574 376.313 35.1836C375.806 34.5098 375.396 33.7188 375.083 32.8105C374.78 31.8926 374.565 30.8867 374.438 29.793V28.6064C374.565 27.4443 374.78 26.3896 375.083 25.4424C375.396 24.4951 375.806 23.6797 376.313 22.9961C376.821 22.3125 377.441 21.7852 378.174 21.4141C378.906 21.043 379.761 20.8574 380.737 20.8574C381.733 20.8574 382.617 21.0527 383.389 21.4434C384.16 21.8242 384.81 22.3711 385.337 23.084C385.864 23.7871 386.26 24.6367 386.523 25.6328C386.787 26.6191 386.919 27.7178 386.919 28.9287ZM383.389 29.2363V28.9287C383.389 28.1963 383.32 27.5176 383.184 26.8926C383.047 26.2578 382.832 25.7012 382.539 25.2227C382.246 24.7441 381.87 24.373 381.411 24.1094C380.962 23.8359 380.42 23.6992 379.785 23.6992C379.16 23.6992 378.623 23.8066 378.174 24.0215C377.725 24.2266 377.349 24.5146 377.046 24.8857C376.743 25.2568 376.509 25.6914 376.343 26.1895C376.177 26.6777 376.06 27.21 375.991 27.7861V30.6279C376.108 31.3311 376.309 31.9756 376.592 32.5615C376.875 33.1475 377.275 33.6162 377.793 33.9678C378.32 34.3096 378.994 34.4805 379.814 34.4805C380.449 34.4805 380.991 34.3438 381.44 34.0703C381.89 33.7969 382.256 33.4209 382.539 32.9424C382.832 32.4541 383.047 31.8926 383.184 31.2578C383.32 30.623 383.389 29.9492 383.389 29.2363ZM393.569 31.8438L399.795 21.1504H403.325V37H399.795V26.292L393.569 37H390.039V21.1504H393.569V31.8438ZM413.535 34.4805C414.111 34.4805 414.629 34.3682 415.088 34.1436C415.557 33.9092 415.933 33.5869 416.216 33.1768C416.509 32.7666 416.67 32.293 416.699 31.7559H420.024C420.005 32.7812 419.702 33.7139 419.116 34.5537C418.53 35.3936 417.754 36.0625 416.787 36.5605C415.82 37.0488 414.751 37.293 413.579 37.293C412.368 37.293 411.313 37.0879 410.415 36.6777C409.517 36.2578 408.77 35.6816 408.174 34.9492C407.578 34.2168 407.129 33.3721 406.826 32.415C406.533 31.458 406.387 30.4326 406.387 29.3389V28.8262C406.387 27.7324 406.533 26.707 406.826 25.75C407.129 24.7832 407.578 23.9336 408.174 23.2012C408.77 22.4688 409.517 21.8975 410.415 21.4873C411.313 21.0674 412.363 20.8574 413.564 20.8574C414.834 20.8574 415.947 21.1113 416.904 21.6191C417.861 22.1172 418.613 22.8154 419.16 23.7139C419.717 24.6025 420.005 25.6377 420.024 26.8193H416.699C416.67 26.2334 416.523 25.7061 416.26 25.2373C416.006 24.7588 415.645 24.3779 415.176 24.0947C414.717 23.8115 414.165 23.6699 413.521 23.6699C412.808 23.6699 412.217 23.8164 411.748 24.1094C411.279 24.3926 410.913 24.7832 410.649 25.2812C410.386 25.7695 410.195 26.3213 410.078 26.9365C409.971 27.542 409.917 28.1719 409.917 28.8262V29.3389C409.917 29.9932 409.971 30.6279 410.078 31.2432C410.186 31.8584 410.371 32.4102 410.635 32.8984C410.908 33.377 411.279 33.7627 411.748 34.0557C412.217 34.3389 412.812 34.4805 413.535 34.4805ZM422.061 29.251V28.9141C422.061 27.7715 422.227 26.7119 422.559 25.7354C422.891 24.749 423.369 23.8945 423.994 23.1719C424.629 22.4395 425.4 21.873 426.309 21.4727C427.227 21.0625 428.262 20.8574 429.414 20.8574C430.576 20.8574 431.611 21.0625 432.52 21.4727C433.438 21.873 434.214 22.4395 434.849 23.1719C435.483 23.8945 435.967 24.749 436.299 25.7354C436.631 26.7119 436.797 27.7715 436.797 28.9141V29.251C436.797 30.3936 436.631 31.4531 436.299 32.4297C435.967 33.4062 435.483 34.2607 434.849 34.9932C434.214 35.7158 433.442 36.2822 432.534 36.6924C431.626 37.0928 430.596 37.293 429.443 37.293C428.281 37.293 427.241 37.0928 426.323 36.6924C425.415 36.2822 424.644 35.7158 424.009 34.9932C423.374 34.2607 422.891 33.4062 422.559 32.4297C422.227 31.4531 422.061 30.3936 422.061 29.251ZM425.591 28.9141V29.251C425.591 29.9639 425.664 30.6377 425.811 31.2725C425.957 31.9072 426.187 32.4639 426.499 32.9424C426.812 33.4209 427.212 33.7969 427.7 34.0703C428.188 34.3438 428.77 34.4805 429.443 34.4805C430.098 34.4805 430.664 34.3438 431.143 34.0703C431.631 33.7969 432.031 33.4209 432.344 32.9424C432.656 32.4639 432.886 31.9072 433.032 31.2725C433.188 30.6377 433.267 29.9639 433.267 29.251V28.9141C433.267 28.2109 433.188 27.5469 433.032 26.9219C432.886 26.2871 432.651 25.7256 432.329 25.2373C432.017 24.749 431.616 24.3682 431.128 24.0947C430.649 23.8115 430.078 23.6699 429.414 23.6699C428.75 23.6699 428.174 23.8115 427.686 24.0947C427.207 24.3682 426.812 24.749 426.499 25.2373C426.187 25.7256 425.957 26.2871 425.811 26.9219C425.664 27.5469 425.591 28.2109 425.591 28.9141ZM446.743 37.293C445.571 37.293 444.512 37.1025 443.564 36.7217C442.627 36.3311 441.826 35.7891 441.162 35.0957C440.508 34.4023 440.005 33.5869 439.653 32.6494C439.302 31.7119 439.126 30.7012 439.126 29.6172V29.0312C439.126 27.791 439.307 26.668 439.668 25.6621C440.029 24.6562 440.532 23.7969 441.177 23.084C441.821 22.3613 442.583 21.8096 443.462 21.4287C444.341 21.0479 445.293 20.8574 446.318 20.8574C447.451 20.8574 448.442 21.0479 449.292 21.4287C450.142 21.8096 450.845 22.3467 451.401 23.04C451.968 23.7236 452.388 24.5391 452.661 25.4863C452.944 26.4336 453.086 27.4785 453.086 28.6211V30.1299H440.84V27.5957H449.6V27.3174C449.58 26.6826 449.453 26.0869 449.219 25.5303C448.994 24.9736 448.647 24.5244 448.179 24.1826C447.71 23.8408 447.085 23.6699 446.304 23.6699C445.718 23.6699 445.195 23.7969 444.736 24.0508C444.287 24.2949 443.911 24.6514 443.608 25.1201C443.306 25.5889 443.071 26.1553 442.905 26.8193C442.749 27.4736 442.671 28.2109 442.671 29.0312V29.6172C442.671 30.3105 442.764 30.9551 442.949 31.5508C443.145 32.1367 443.428 32.6494 443.799 33.0889C444.17 33.5283 444.619 33.875 445.146 34.1289C445.674 34.373 446.274 34.4951 446.948 34.4951C447.798 34.4951 448.555 34.3242 449.219 33.9824C449.883 33.6406 450.459 33.1572 450.947 32.5322L452.808 34.334C452.466 34.832 452.021 35.3105 451.475 35.7695C450.928 36.2188 450.259 36.585 449.468 36.8682C448.687 37.1514 447.778 37.293 446.743 37.293ZM458.711 21.1504H462.241L462.065 26.7314C462.017 28.3525 461.831 29.7441 461.509 30.9062C461.187 32.0684 460.767 33.0498 460.249 33.8506C459.731 34.6416 459.146 35.291 458.491 35.7988C457.847 36.3066 457.168 36.707 456.455 37H455.415V34.2168L455.913 34.1875C456.333 33.7383 456.694 33.2891 456.997 32.8398C457.31 32.3809 457.573 31.8779 457.788 31.3311C458.003 30.7744 458.169 30.125 458.286 29.3828C458.413 28.6406 458.496 27.7568 458.535 26.7314L458.711 21.1504ZM459.648 21.1504H469.697V37H466.182V24.1387H459.648V21.1504ZM454.609 34.1875H471.865V41.7168H468.335V37H458.184V41.7168H454.595L454.609 34.1875ZM474.531 35.2422C474.531 34.6953 474.717 34.2363 475.088 33.8652C475.459 33.4844 475.962 33.2939 476.597 33.2939C477.241 33.2939 477.744 33.4844 478.105 33.8652C478.477 34.2363 478.662 34.6953 478.662 35.2422C478.662 35.7891 478.477 36.248 478.105 36.6191C477.744 36.9902 477.241 37.1758 476.597 37.1758C475.962 37.1758 475.459 36.9902 475.088 36.6191C474.717 36.248 474.531 35.7891 474.531 35.2422ZM489.341 30.7158H486.074C486.084 29.8076 486.162 29.0459 486.309 28.4307C486.455 27.8057 486.699 27.2393 487.041 26.7314C487.393 26.2236 487.856 25.6865 488.433 25.1201C488.882 24.6904 489.287 24.2852 489.648 23.9043C490.01 23.5137 490.298 23.1035 490.513 22.6738C490.728 22.2344 490.835 21.7314 490.835 21.165C490.835 20.5498 490.732 20.0273 490.527 19.5977C490.322 19.168 490.02 18.8408 489.619 18.6162C489.229 18.3916 488.74 18.2793 488.154 18.2793C487.666 18.2793 487.207 18.377 486.777 18.5723C486.348 18.7578 486.001 19.0508 485.737 19.4512C485.474 19.8418 485.332 20.3594 485.312 21.0039H481.782C481.802 19.7734 482.095 18.7383 482.661 17.8984C483.228 17.0586 483.989 16.4287 484.946 16.0088C485.903 15.5889 486.973 15.3789 488.154 15.3789C489.463 15.3789 490.581 15.6035 491.509 16.0527C492.437 16.4922 493.145 17.1367 493.633 17.9863C494.131 18.8262 494.38 19.8418 494.38 21.0332C494.38 21.8926 494.209 22.6738 493.867 23.377C493.525 24.0703 493.081 24.7197 492.534 25.3252C491.987 25.9209 491.396 26.5166 490.762 27.1123C490.215 27.6104 489.844 28.1523 489.648 28.7383C489.453 29.3145 489.351 29.9736 489.341 30.7158ZM485.781 35.2861C485.781 34.7588 485.962 34.3145 486.323 33.9531C486.685 33.582 487.178 33.3965 487.803 33.3965C488.428 33.3965 488.921 33.582 489.282 33.9531C489.644 34.3145 489.824 34.7588 489.824 35.2861C489.824 35.8135 489.644 36.2627 489.282 36.6338C488.921 36.9951 488.428 37.1758 487.803 37.1758C487.178 37.1758 486.685 36.9951 486.323 36.6338C485.962 36.2627 485.781 35.8135 485.781 35.2861Z" fill="black"/>
<path d="M551.124 15.6719H554.801V22.2783C554.801 23.2842 554.952 24.0752 555.255 24.6514C555.558 25.2178 556.017 25.6182 556.632 25.8525C557.257 26.0869 558.033 26.2041 558.961 26.2041C559.41 26.2041 559.884 26.1846 560.382 26.1455C560.88 26.1064 561.378 26.0527 561.876 25.9844C562.384 25.9062 562.872 25.8184 563.341 25.7207C563.81 25.6133 564.239 25.4961 564.63 25.3691V28.2842C564.249 28.4014 563.829 28.5137 563.37 28.6211C562.921 28.7285 562.452 28.8213 561.964 28.8994C561.476 28.9678 560.978 29.0215 560.47 29.0605C559.962 29.0996 559.459 29.1191 558.961 29.1191C557.35 29.1191 555.958 28.8896 554.786 28.4307C553.614 27.9619 552.711 27.2246 552.076 26.2188C551.441 25.2129 551.124 23.8994 551.124 22.2783V15.6719ZM563.795 15.6719H567.472V37H563.795V15.6719ZM578.883 21.1504V37H575.338V21.1504H578.883ZM584.083 21.1504V23.9336H570.226V21.1504H584.083ZM585.211 29.251V28.9141C585.211 27.7715 585.377 26.7119 585.709 25.7354C586.041 24.749 586.52 23.8945 587.145 23.1719C587.779 22.4395 588.551 21.873 589.459 21.4727C590.377 21.0625 591.412 20.8574 592.564 20.8574C593.727 20.8574 594.762 21.0625 595.67 21.4727C596.588 21.873 597.364 22.4395 597.999 23.1719C598.634 23.8945 599.117 24.749 599.449 25.7354C599.781 26.7119 599.947 27.7715 599.947 28.9141V29.251C599.947 30.3936 599.781 31.4531 599.449 32.4297C599.117 33.4062 598.634 34.2607 597.999 34.9932C597.364 35.7158 596.593 36.2822 595.685 36.6924C594.776 37.0928 593.746 37.293 592.594 37.293C591.432 37.293 590.392 37.0928 589.474 36.6924C588.565 36.2822 587.794 35.7158 587.159 34.9932C586.524 34.2607 586.041 33.4062 585.709 32.4297C585.377 31.4531 585.211 30.3936 585.211 29.251ZM588.741 28.9141V29.251C588.741 29.9639 588.814 30.6377 588.961 31.2725C589.107 31.9072 589.337 32.4639 589.649 32.9424C589.962 33.4209 590.362 33.7969 590.851 34.0703C591.339 34.3438 591.92 34.4805 592.594 34.4805C593.248 34.4805 593.814 34.3438 594.293 34.0703C594.781 33.7969 595.182 33.4209 595.494 32.9424C595.807 32.4639 596.036 31.9072 596.183 31.2725C596.339 30.6377 596.417 29.9639 596.417 29.251V28.9141C596.417 28.2109 596.339 27.5469 596.183 26.9219C596.036 26.2871 595.802 25.7256 595.479 25.2373C595.167 24.749 594.767 24.3682 594.278 24.0947C593.8 23.8115 593.229 23.6699 592.564 23.6699C591.9 23.6699 591.324 23.8115 590.836 24.0947C590.357 24.3682 589.962 24.749 589.649 25.2373C589.337 25.7256 589.107 26.2871 588.961 26.9219C588.814 27.5469 588.741 28.2109 588.741 28.9141ZM613.248 21.1504H616.778L616.603 26.7314C616.554 28.3525 616.368 29.7441 616.046 30.9062C615.724 32.0684 615.304 33.0498 614.786 33.8506C614.269 34.6416 613.683 35.291 613.028 35.7988C612.384 36.3066 611.705 36.707 610.992 37H609.952V34.2168L610.45 34.1875C610.87 33.7383 611.231 33.2891 611.534 32.8398C611.847 32.3809 612.11 31.8779 612.325 31.3311C612.54 30.7744 612.706 30.125 612.823 29.3828C612.95 28.6406 613.033 27.7568 613.072 26.7314L613.248 21.1504ZM614.186 21.1504H624.234V37H620.719V24.1387H614.186V21.1504ZM609.146 34.1875H626.402V41.7168H622.872V37H612.721V41.7168H609.132L609.146 34.1875ZM637.857 33.8213V26.2627C637.857 25.6963 637.755 25.208 637.55 24.7979C637.345 24.3877 637.032 24.0703 636.612 23.8457C636.202 23.6211 635.685 23.5088 635.06 23.5088C634.483 23.5088 633.985 23.6064 633.565 23.8018C633.146 23.9971 632.818 24.2607 632.584 24.5928C632.35 24.9248 632.232 25.3008 632.232 25.7207H628.717C628.717 25.0957 628.868 24.4902 629.171 23.9043C629.474 23.3184 629.913 22.7959 630.489 22.3369C631.065 21.8779 631.754 21.5166 632.555 21.2529C633.355 20.9893 634.254 20.8574 635.25 20.8574C636.441 20.8574 637.496 21.0576 638.414 21.458C639.342 21.8584 640.069 22.4639 640.597 23.2744C641.134 24.0752 641.402 25.0811 641.402 26.292V33.3379C641.402 34.0605 641.451 34.71 641.549 35.2861C641.656 35.8525 641.808 36.3457 642.003 36.7656V37H638.385C638.219 36.6191 638.087 36.1357 637.989 35.5498C637.901 34.9541 637.857 34.3779 637.857 33.8213ZM638.37 27.3613L638.399 29.5439H635.865C635.211 29.5439 634.635 29.6074 634.137 29.7344C633.639 29.8516 633.224 30.0273 632.892 30.2617C632.56 30.4961 632.311 30.7793 632.145 31.1113C631.979 31.4434 631.896 31.8193 631.896 32.2393C631.896 32.6592 631.993 33.0449 632.188 33.3965C632.384 33.7383 632.667 34.0068 633.038 34.2021C633.419 34.3975 633.878 34.4951 634.415 34.4951C635.138 34.4951 635.768 34.3486 636.305 34.0557C636.852 33.7529 637.281 33.3867 637.594 32.957C637.906 32.5176 638.072 32.1025 638.092 31.7119L639.234 33.2793C639.117 33.6797 638.917 34.1094 638.634 34.5684C638.351 35.0273 637.979 35.4668 637.521 35.8867C637.071 36.2969 636.529 36.6338 635.895 36.8975C635.27 37.1611 634.547 37.293 633.727 37.293C632.691 37.293 631.769 37.0879 630.958 36.6777C630.147 36.2578 629.513 35.6963 629.054 34.9932C628.595 34.2803 628.365 33.4746 628.365 32.5762C628.365 31.7363 628.521 30.9941 628.834 30.3496C629.156 29.6953 629.625 29.1484 630.24 28.709C630.865 28.2695 631.627 27.9375 632.525 27.7129C633.424 27.4785 634.449 27.3613 635.602 27.3613H638.37ZM652.081 37.293C650.909 37.293 649.85 37.1025 648.902 36.7217C647.965 36.3311 647.164 35.7891 646.5 35.0957C645.846 34.4023 645.343 33.5869 644.991 32.6494C644.64 31.7119 644.464 30.7012 644.464 29.6172V29.0312C644.464 27.791 644.645 26.668 645.006 25.6621C645.367 24.6562 645.87 23.7969 646.515 23.084C647.159 22.3613 647.921 21.8096 648.8 21.4287C649.679 21.0479 650.631 20.8574 651.656 20.8574C652.789 20.8574 653.78 21.0479 654.63 21.4287C655.479 21.8096 656.183 22.3467 656.739 23.04C657.306 23.7236 657.726 24.5391 657.999 25.4863C658.282 26.4336 658.424 27.4785 658.424 28.6211V30.1299H646.178V27.5957H654.938V27.3174C654.918 26.6826 654.791 26.0869 654.557 25.5303C654.332 24.9736 653.985 24.5244 653.517 24.1826C653.048 23.8408 652.423 23.6699 651.642 23.6699C651.056 23.6699 650.533 23.7969 650.074 24.0508C649.625 24.2949 649.249 24.6514 648.946 25.1201C648.644 25.5889 648.409 26.1553 648.243 26.8193C648.087 27.4736 648.009 28.2109 648.009 29.0312V29.6172C648.009 30.3105 648.102 30.9551 648.287 31.5508C648.482 32.1367 648.766 32.6494 649.137 33.0889C649.508 33.5283 649.957 33.875 650.484 34.1289C651.012 34.373 651.612 34.4951 652.286 34.4951C653.136 34.4951 653.893 34.3242 654.557 33.9824C655.221 33.6406 655.797 33.1572 656.285 32.5322L658.146 34.334C657.804 34.832 657.359 35.3105 656.812 35.7695C656.266 36.2188 655.597 36.585 654.806 36.8682C654.024 37.1514 653.116 37.293 652.081 37.293ZM646.178 16.9463C646.178 16.4678 646.344 16.0674 646.676 15.7451C647.008 15.4131 647.447 15.2471 647.994 15.2471C648.551 15.2471 648.995 15.4131 649.327 15.7451C649.659 16.0674 649.825 16.4678 649.825 16.9463C649.825 17.415 649.659 17.8154 649.327 18.1475C648.995 18.4697 648.551 18.6309 647.994 18.6309C647.447 18.6309 647.008 18.4697 646.676 18.1475C646.344 17.8154 646.178 17.415 646.178 16.9463ZM652.96 16.9609C652.96 16.4824 653.126 16.082 653.458 15.7598C653.79 15.4277 654.234 15.2617 654.791 15.2617C655.338 15.2617 655.777 15.4277 656.109 15.7598C656.451 16.082 656.622 16.4824 656.622 16.9609C656.622 17.4297 656.451 17.8301 656.109 18.1621C655.777 18.4844 655.338 18.6455 654.791 18.6455C654.234 18.6455 653.79 18.4844 653.458 18.1621C653.126 17.8301 652.96 17.4297 652.96 16.9609ZM668.355 21.1504V37H664.811V21.1504H668.355ZM673.556 21.1504V23.9336H659.698V21.1504H673.556ZM682.521 30.7158H679.254C679.264 29.8076 679.342 29.0459 679.488 28.4307C679.635 27.8057 679.879 27.2393 680.221 26.7314C680.572 26.2236 681.036 25.6865 681.612 25.1201C682.062 24.6904 682.467 24.2852 682.828 23.9043C683.189 23.5137 683.478 23.1035 683.692 22.6738C683.907 22.2344 684.015 21.7314 684.015 21.165C684.015 20.5498 683.912 20.0273 683.707 19.5977C683.502 19.168 683.199 18.8408 682.799 18.6162C682.408 18.3916 681.92 18.2793 681.334 18.2793C680.846 18.2793 680.387 18.377 679.957 18.5723C679.527 18.7578 679.181 19.0508 678.917 19.4512C678.653 19.8418 678.512 20.3594 678.492 21.0039H674.962C674.981 19.7734 675.274 18.7383 675.841 17.8984C676.407 17.0586 677.169 16.4287 678.126 16.0088C679.083 15.5889 680.152 15.3789 681.334 15.3789C682.643 15.3789 683.761 15.6035 684.688 16.0527C685.616 16.4922 686.324 17.1367 686.812 17.9863C687.311 18.8262 687.56 19.8418 687.56 21.0332C687.56 21.8926 687.389 22.6738 687.047 23.377C686.705 24.0703 686.261 24.7197 685.714 25.3252C685.167 25.9209 684.576 26.5166 683.941 27.1123C683.395 27.6104 683.023 28.1523 682.828 28.7383C682.633 29.3145 682.53 29.9736 682.521 30.7158ZM678.961 35.2861C678.961 34.7588 679.142 34.3145 679.503 33.9531C679.864 33.582 680.357 33.3965 680.982 33.3965C681.607 33.3965 682.101 33.582 682.462 33.9531C682.823 34.3145 683.004 34.7588 683.004 35.2861C683.004 35.8135 682.823 36.2627 682.462 36.6338C682.101 36.9951 681.607 37.1758 680.982 37.1758C680.357 37.1758 679.864 36.9951 679.503 36.6338C679.142 36.2627 678.961 35.8135 678.961 35.2861Z" fill="black"/>
<line x1="1" y1="52.5" x2="901" y2="52.5" stroke="black"/>
<line y1="127.5" x2="900" y2="127.5" stroke="black"/>
<path d="M258.301 70.4336V72.3086H253.086V70.4336H258.301ZM253.643 70.4336V81H251.289V70.4336H253.643ZM260.146 70.4336V81H257.783V70.4336H260.146ZM265 72.4648V85.0625H262.646V70.4336H264.814L265 72.4648ZM271.885 75.6191V75.8242C271.885 76.5924 271.794 77.3053 271.611 77.9629C271.436 78.6139 271.172 79.1836 270.82 79.6719C270.475 80.1536 270.049 80.528 269.541 80.7949C269.033 81.0618 268.447 81.1953 267.783 81.1953C267.126 81.1953 266.549 81.0749 266.055 80.834C265.566 80.5866 265.153 80.2383 264.814 79.7891C264.476 79.3398 264.202 78.8125 263.994 78.207C263.792 77.5951 263.649 76.9245 263.564 76.1953V75.4043C263.649 74.6296 263.792 73.9264 263.994 73.2949C264.202 72.6634 264.476 72.1198 264.814 71.6641C265.153 71.2083 265.566 70.8568 266.055 70.6094C266.543 70.362 267.113 70.2383 267.764 70.2383C268.428 70.2383 269.017 70.3685 269.531 70.6289C270.046 70.8828 270.479 71.2474 270.83 71.7227C271.182 72.1914 271.445 72.7578 271.621 73.4219C271.797 74.0794 271.885 74.8118 271.885 75.6191ZM269.531 75.8242V75.6191C269.531 75.1309 269.486 74.6784 269.395 74.2617C269.303 73.8385 269.16 73.4674 268.965 73.1484C268.77 72.8294 268.519 72.582 268.213 72.4062C267.913 72.224 267.552 72.1328 267.129 72.1328C266.712 72.1328 266.354 72.2044 266.055 72.3477C265.755 72.4844 265.505 72.6764 265.303 72.9238C265.101 73.1712 264.945 73.4609 264.834 73.793C264.723 74.1185 264.645 74.4733 264.6 74.8574V76.752C264.678 77.2207 264.811 77.6504 265 78.041C265.189 78.4316 265.456 78.7441 265.801 78.9785C266.152 79.2064 266.602 79.3203 267.148 79.3203C267.572 79.3203 267.933 79.2292 268.232 79.0469C268.532 78.8646 268.776 78.6139 268.965 78.2949C269.16 77.9694 269.303 77.5951 269.395 77.1719C269.486 76.7487 269.531 76.2995 269.531 75.8242ZM276.318 77.5625L280.469 70.4336H282.822V81H280.469V73.8613L276.318 81H273.965V70.4336H276.318V77.5625ZM292.412 70.4336V72.3086H287.256V70.4336H292.412ZM294.258 70.4336V81H291.904V70.4336H294.258ZM286.68 70.4336H289.004L288.721 75.6582C288.682 76.4329 288.604 77.1165 288.486 77.709C288.376 78.2949 288.226 78.7995 288.037 79.2227C287.848 79.6393 287.617 79.9779 287.344 80.2383C287.07 80.4987 286.751 80.6908 286.387 80.8145C286.022 80.9382 285.612 81 285.156 81H284.424L284.414 79.0664L284.785 79.0371C285.026 79.0176 285.234 78.9557 285.41 78.8516C285.586 78.7409 285.736 78.5846 285.859 78.3828C285.99 78.181 286.094 77.9206 286.172 77.6016C286.257 77.2826 286.322 76.9049 286.367 76.4688C286.419 76.0326 286.458 75.5247 286.484 74.9453L286.68 70.4336ZM253.184 100.465V113.062H251.367V98.4336H253.027L253.184 100.465ZM260.303 103.629V103.834C260.303 104.602 260.212 105.315 260.029 105.973C259.847 106.624 259.58 107.19 259.229 107.672C258.883 108.154 258.457 108.528 257.949 108.795C257.441 109.062 256.859 109.195 256.201 109.195C255.531 109.195 254.938 109.085 254.424 108.863C253.91 108.642 253.473 108.32 253.115 107.896C252.757 107.473 252.471 106.965 252.256 106.373C252.048 105.781 251.904 105.113 251.826 104.371V103.277C251.904 102.496 252.051 101.796 252.266 101.178C252.48 100.559 252.764 100.032 253.115 99.5957C253.473 99.153 253.906 98.8177 254.414 98.5898C254.922 98.3555 255.508 98.2383 256.172 98.2383C256.836 98.2383 257.425 98.3685 257.939 98.6289C258.454 98.8828 258.887 99.2474 259.238 99.7227C259.59 100.198 259.854 100.768 260.029 101.432C260.212 102.089 260.303 102.822 260.303 103.629ZM258.486 103.834V103.629C258.486 103.102 258.431 102.607 258.32 102.145C258.21 101.676 258.037 101.266 257.803 100.914C257.575 100.556 257.282 100.276 256.924 100.074C256.566 99.8659 256.139 99.7617 255.645 99.7617C255.189 99.7617 254.792 99.8398 254.453 99.9961C254.121 100.152 253.838 100.364 253.604 100.631C253.369 100.891 253.177 101.191 253.027 101.529C252.884 101.861 252.777 102.206 252.705 102.564V105.094C252.835 105.549 253.018 105.979 253.252 106.383C253.486 106.78 253.799 107.102 254.189 107.35C254.58 107.59 255.072 107.711 255.664 107.711C256.152 107.711 256.572 107.61 256.924 107.408C257.282 107.2 257.575 106.917 257.803 106.559C258.037 106.201 258.21 105.79 258.32 105.328C258.431 104.859 258.486 104.361 258.486 103.834ZM262.129 103.834V103.609C262.129 102.848 262.24 102.141 262.461 101.49C262.682 100.833 263.001 100.263 263.418 99.7812C263.835 99.293 264.339 98.9154 264.932 98.6484C265.524 98.375 266.188 98.2383 266.924 98.2383C267.666 98.2383 268.333 98.375 268.926 98.6484C269.525 98.9154 270.033 99.293 270.449 99.7812C270.872 100.263 271.195 100.833 271.416 101.49C271.637 102.141 271.748 102.848 271.748 103.609V103.834C271.748 104.596 271.637 105.302 271.416 105.953C271.195 106.604 270.872 107.174 270.449 107.662C270.033 108.144 269.528 108.521 268.936 108.795C268.35 109.062 267.686 109.195 266.943 109.195C266.201 109.195 265.534 109.062 264.941 108.795C264.349 108.521 263.841 108.144 263.418 107.662C263.001 107.174 262.682 106.604 262.461 105.953C262.24 105.302 262.129 104.596 262.129 103.834ZM263.936 103.609V103.834C263.936 104.361 263.997 104.859 264.121 105.328C264.245 105.79 264.43 106.201 264.678 106.559C264.932 106.917 265.247 107.2 265.625 107.408C266.003 107.61 266.442 107.711 266.943 107.711C267.438 107.711 267.871 107.61 268.242 107.408C268.62 107.2 268.932 106.917 269.18 106.559C269.427 106.201 269.613 105.79 269.736 105.328C269.867 104.859 269.932 104.361 269.932 103.834V103.609C269.932 103.089 269.867 102.597 269.736 102.135C269.613 101.666 269.424 101.253 269.17 100.895C268.923 100.53 268.61 100.243 268.232 100.035C267.861 99.8268 267.425 99.7227 266.924 99.7227C266.429 99.7227 265.993 99.8268 265.615 100.035C265.244 100.243 264.932 100.53 264.678 100.895C264.43 101.253 264.245 101.666 264.121 102.135C263.997 102.597 263.936 103.089 263.936 103.609ZM273.535 103.834V103.609C273.535 102.848 273.646 102.141 273.867 101.49C274.089 100.833 274.408 100.263 274.824 99.7812C275.241 99.293 275.745 98.9154 276.338 98.6484C276.93 98.375 277.594 98.2383 278.33 98.2383C279.072 98.2383 279.74 98.375 280.332 98.6484C280.931 98.9154 281.439 99.293 281.855 99.7812C282.279 100.263 282.601 100.833 282.822 101.49C283.044 102.141 283.154 102.848 283.154 103.609V103.834C283.154 104.596 283.044 105.302 282.822 105.953C282.601 106.604 282.279 107.174 281.855 107.662C281.439 108.144 280.934 108.521 280.342 108.795C279.756 109.062 279.092 109.195 278.35 109.195C277.607 109.195 276.94 109.062 276.348 108.795C275.755 108.521 275.247 108.144 274.824 107.662C274.408 107.174 274.089 106.604 273.867 105.953C273.646 105.302 273.535 104.596 273.535 103.834ZM275.342 103.609V103.834C275.342 104.361 275.404 104.859 275.527 105.328C275.651 105.79 275.837 106.201 276.084 106.559C276.338 106.917 276.654 107.2 277.031 107.408C277.409 107.61 277.848 107.711 278.35 107.711C278.844 107.711 279.277 107.61 279.648 107.408C280.026 107.2 280.339 106.917 280.586 106.559C280.833 106.201 281.019 105.79 281.143 105.328C281.273 104.859 281.338 104.361 281.338 103.834V103.609C281.338 103.089 281.273 102.597 281.143 102.135C281.019 101.666 280.83 101.253 280.576 100.895C280.329 100.53 280.016 100.243 279.639 100.035C279.268 99.8268 278.831 99.7227 278.33 99.7227C277.835 99.7227 277.399 99.8268 277.021 100.035C276.65 100.243 276.338 100.53 276.084 100.895C275.837 101.253 275.651 101.666 275.527 102.135C275.404 102.597 275.342 103.089 275.342 103.609ZM287.227 100.094V109H285.42V98.4336H287.178L287.227 100.094ZM290.527 98.375L290.518 100.055C290.368 100.022 290.225 100.003 290.088 99.9961C289.958 99.9831 289.808 99.9766 289.639 99.9766C289.222 99.9766 288.854 100.042 288.535 100.172C288.216 100.302 287.946 100.484 287.725 100.719C287.503 100.953 287.327 101.233 287.197 101.559C287.074 101.878 286.992 102.229 286.953 102.613L286.445 102.906C286.445 102.268 286.507 101.669 286.631 101.109C286.761 100.549 286.96 100.055 287.227 99.625C287.493 99.1888 287.832 98.8503 288.242 98.6094C288.659 98.362 289.154 98.2383 289.727 98.2383C289.857 98.2383 290.007 98.2546 290.176 98.2871C290.345 98.3132 290.462 98.3424 290.527 98.375ZM300.918 102.213V103.697H296.152V102.213H300.918ZM314.424 93.834H315.908C315.908 94.472 315.811 94.9798 315.615 95.3574C315.42 95.7285 315.153 96.015 314.814 96.2168C314.482 96.4186 314.105 96.5716 313.682 96.6758C313.265 96.7799 312.832 96.8809 312.383 96.9785C311.823 97.0957 311.302 97.2812 310.82 97.5352C310.345 97.7826 309.935 98.1341 309.59 98.5898C309.251 99.0456 309.001 99.638 308.838 100.367C308.682 101.096 308.639 101.998 308.711 103.072V103.971H307.227V103.072C307.227 101.868 307.34 100.816 307.568 99.918C307.803 99.0195 308.132 98.2611 308.555 97.6426C308.978 97.0241 309.479 96.5326 310.059 96.168C310.645 95.8034 311.289 95.5527 311.992 95.416C312.5 95.3184 312.936 95.2142 313.301 95.1035C313.665 94.9863 313.942 94.8301 314.131 94.6348C314.326 94.4395 314.424 94.1725 314.424 93.834ZM312.285 99.0391C312.975 99.0391 313.59 99.1595 314.131 99.4004C314.671 99.6413 315.13 99.9766 315.508 100.406C315.885 100.836 316.172 101.344 316.367 101.93C316.569 102.509 316.67 103.141 316.67 103.824V104.039C316.67 104.775 316.562 105.458 316.348 106.09C316.139 106.715 315.83 107.262 315.42 107.73C315.016 108.193 314.521 108.554 313.936 108.814C313.356 109.075 312.695 109.205 311.953 109.205C311.211 109.205 310.547 109.075 309.961 108.814C309.382 108.554 308.887 108.193 308.477 107.73C308.066 107.262 307.754 106.715 307.539 106.09C307.331 105.458 307.227 104.775 307.227 104.039V103.824C307.227 103.661 307.256 103.502 307.314 103.346C307.373 103.189 307.445 103.03 307.529 102.867C307.62 102.704 307.702 102.532 307.773 102.35C308.014 101.764 308.343 101.22 308.76 100.719C309.183 100.217 309.688 99.8138 310.273 99.5078C310.866 99.1953 311.536 99.0391 312.285 99.0391ZM311.934 100.514C311.27 100.514 310.723 100.667 310.293 100.973C309.87 101.279 309.554 101.686 309.346 102.193C309.137 102.695 309.033 103.238 309.033 103.824V104.039C309.033 104.534 309.092 105.003 309.209 105.445C309.326 105.888 309.502 106.282 309.736 106.627C309.977 106.965 310.28 107.232 310.645 107.428C311.016 107.623 311.452 107.721 311.953 107.721C312.454 107.721 312.887 107.623 313.252 107.428C313.617 107.232 313.916 106.965 314.15 106.627C314.385 106.282 314.561 105.888 314.678 105.445C314.795 105.003 314.854 104.534 314.854 104.039V103.824C314.854 103.382 314.795 102.962 314.678 102.564C314.561 102.167 314.382 101.816 314.141 101.51C313.906 101.204 313.604 100.963 313.232 100.787C312.868 100.605 312.435 100.514 311.934 100.514ZM323.105 109.195C322.37 109.195 321.702 109.072 321.104 108.824C320.511 108.57 320 108.215 319.57 107.76C319.147 107.304 318.822 106.764 318.594 106.139C318.366 105.514 318.252 104.83 318.252 104.088V103.678C318.252 102.818 318.379 102.053 318.633 101.383C318.887 100.706 319.232 100.133 319.668 99.6641C320.104 99.1953 320.599 98.8405 321.152 98.5996C321.706 98.3587 322.279 98.2383 322.871 98.2383C323.626 98.2383 324.277 98.3685 324.824 98.6289C325.378 98.8893 325.83 99.2539 326.182 99.7227C326.533 100.185 326.794 100.732 326.963 101.363C327.132 101.988 327.217 102.672 327.217 103.414V104.225H319.326V102.75H325.41V102.613C325.384 102.145 325.286 101.689 325.117 101.246C324.954 100.803 324.694 100.439 324.336 100.152C323.978 99.8659 323.49 99.7227 322.871 99.7227C322.461 99.7227 322.083 99.8105 321.738 99.9863C321.393 100.156 321.097 100.41 320.85 100.748C320.602 101.087 320.41 101.5 320.273 101.988C320.137 102.477 320.068 103.04 320.068 103.678V104.088C320.068 104.589 320.137 105.061 320.273 105.504C320.417 105.94 320.622 106.324 320.889 106.656C321.162 106.988 321.491 107.249 321.875 107.438C322.266 107.626 322.708 107.721 323.203 107.721C323.841 107.721 324.382 107.59 324.824 107.33C325.267 107.07 325.654 106.721 325.986 106.285L327.08 107.154C326.852 107.499 326.562 107.828 326.211 108.141C325.859 108.453 325.426 108.707 324.912 108.902C324.404 109.098 323.802 109.195 323.105 109.195ZM331.23 98.4336H333.037L332.881 102.389C332.842 103.391 332.728 104.257 332.539 104.986C332.35 105.715 332.109 106.337 331.816 106.852C331.523 107.359 331.195 107.786 330.83 108.131C330.472 108.476 330.101 108.766 329.717 109H328.818L328.867 107.525L329.238 107.516C329.453 107.262 329.661 107.001 329.863 106.734C330.065 106.461 330.251 106.139 330.42 105.768C330.589 105.39 330.729 104.931 330.84 104.391C330.957 103.844 331.032 103.176 331.064 102.389L331.23 98.4336ZM331.68 98.4336H338.037V109H336.23V100.104H331.68V98.4336ZM328.408 107.516H339.395V112.115H337.588V109H330.215V112.115H328.398L328.408 107.516ZM348.564 103.014V104.479H342.979V103.014H348.564ZM343.359 98.4336V109H341.553V98.4336H343.359ZM350.029 98.4336V109H348.213V98.4336H350.029ZM354.424 102.066H357.598C358.451 102.066 359.17 102.216 359.756 102.516C360.342 102.809 360.785 103.215 361.084 103.736C361.39 104.251 361.543 104.837 361.543 105.494C361.543 105.982 361.458 106.441 361.289 106.871C361.12 107.294 360.866 107.665 360.527 107.984C360.195 108.303 359.782 108.554 359.287 108.736C358.799 108.912 358.236 109 357.598 109H353.105V98.4336H354.912V107.516H357.598C358.118 107.516 358.535 107.421 358.848 107.232C359.16 107.044 359.385 106.799 359.521 106.5C359.658 106.201 359.727 105.888 359.727 105.562C359.727 105.243 359.658 104.931 359.521 104.625C359.385 104.319 359.16 104.065 358.848 103.863C358.535 103.655 358.118 103.551 357.598 103.551H354.424V102.066ZM365.303 98.4336V109H363.496V98.4336H365.303ZM370.42 106.139L375.293 98.4336H377.109V109H375.293V101.295L370.42 109H368.623V98.4336H370.42V106.139ZM374.307 94.6055H375.771C375.771 95.1133 375.654 95.5658 375.42 95.9629C375.186 96.3535 374.85 96.6595 374.414 96.8809C373.978 97.1022 373.46 97.2129 372.861 97.2129C371.956 97.2129 371.24 96.972 370.713 96.4902C370.192 96.002 369.932 95.3737 369.932 94.6055H371.396C371.396 94.9896 371.507 95.3281 371.729 95.6211C371.95 95.9141 372.327 96.0605 372.861 96.0605C373.382 96.0605 373.753 95.9141 373.975 95.6211C374.196 95.3281 374.307 94.9896 374.307 94.6055Z" fill="black"/>
<path d="M554.527 79.3203C554.911 79.3203 555.257 79.2454 555.562 79.0957C555.875 78.9395 556.126 78.7246 556.314 78.4512C556.51 78.1777 556.617 77.862 556.637 77.5039H558.854C558.84 78.1875 558.639 78.8092 558.248 79.3691C557.857 79.929 557.34 80.375 556.695 80.707C556.051 81.0326 555.338 81.1953 554.557 81.1953C553.749 81.1953 553.046 81.0586 552.447 80.7852C551.848 80.5052 551.35 80.1211 550.953 79.6328C550.556 79.1445 550.257 78.5814 550.055 77.9434C549.859 77.3053 549.762 76.6217 549.762 75.8926V75.5508C549.762 74.8216 549.859 74.138 550.055 73.5C550.257 72.8555 550.556 72.2891 550.953 71.8008C551.35 71.3125 551.848 70.9316 552.447 70.6582C553.046 70.3783 553.746 70.2383 554.547 70.2383C555.393 70.2383 556.135 70.4076 556.773 70.7461C557.411 71.0781 557.913 71.5436 558.277 72.1426C558.648 72.735 558.84 73.4251 558.854 74.2129H556.637C556.617 73.8223 556.52 73.4707 556.344 73.1582C556.174 72.8392 555.934 72.5853 555.621 72.3965C555.315 72.2077 554.947 72.1133 554.518 72.1133C554.042 72.1133 553.648 72.2109 553.336 72.4062C553.023 72.5951 552.779 72.8555 552.604 73.1875C552.428 73.513 552.301 73.8809 552.223 74.291C552.151 74.6947 552.115 75.1146 552.115 75.5508V75.8926C552.115 76.3288 552.151 76.752 552.223 77.1621C552.294 77.5723 552.418 77.9401 552.594 78.2656C552.776 78.5846 553.023 78.8418 553.336 79.0371C553.648 79.2259 554.046 79.3203 554.527 79.3203ZM563.727 79.8477L566.598 70.4336H569.117L564.879 82.6113C564.781 82.8717 564.654 83.1549 564.498 83.4609C564.342 83.7669 564.137 84.0566 563.883 84.3301C563.635 84.61 563.326 84.8346 562.955 85.0039C562.584 85.1797 562.135 85.2676 561.607 85.2676C561.399 85.2676 561.197 85.248 561.002 85.209C560.813 85.1764 560.634 85.1406 560.465 85.1016L560.455 83.3047C560.52 83.3112 560.598 83.3177 560.689 83.3242C560.787 83.3307 560.865 83.334 560.924 83.334C561.314 83.334 561.64 83.2852 561.9 83.1875C562.161 83.0964 562.372 82.9466 562.535 82.7383C562.704 82.5299 562.848 82.25 562.965 81.8984L563.727 79.8477ZM562.105 70.4336L564.615 78.3438L565.035 80.8242L563.404 81.2441L559.566 70.4336H562.105ZM586.08 79.1348L585.895 84.1348H583.736V81H582.467V79.1348H586.08ZM570.475 70.4336H572.828V79.125H576.188V70.4336H578.551V79.125H581.9V70.4336H584.254V81H570.475V70.4336ZM552.184 100.465V113.062H550.367V98.4336H552.027L552.184 100.465ZM559.303 103.629V103.834C559.303 104.602 559.212 105.315 559.029 105.973C558.847 106.624 558.58 107.19 558.229 107.672C557.883 108.154 557.457 108.528 556.949 108.795C556.441 109.062 555.859 109.195 555.201 109.195C554.531 109.195 553.938 109.085 553.424 108.863C552.91 108.642 552.473 108.32 552.115 107.896C551.757 107.473 551.471 106.965 551.256 106.373C551.048 105.781 550.904 105.113 550.826 104.371V103.277C550.904 102.496 551.051 101.796 551.266 101.178C551.48 100.559 551.764 100.032 552.115 99.5957C552.473 99.153 552.906 98.8177 553.414 98.5898C553.922 98.3555 554.508 98.2383 555.172 98.2383C555.836 98.2383 556.425 98.3685 556.939 98.6289C557.454 98.8828 557.887 99.2474 558.238 99.7227C558.59 100.198 558.854 100.768 559.029 101.432C559.212 102.089 559.303 102.822 559.303 103.629ZM557.486 103.834V103.629C557.486 103.102 557.431 102.607 557.32 102.145C557.21 101.676 557.037 101.266 556.803 100.914C556.575 100.556 556.282 100.276 555.924 100.074C555.566 99.8659 555.139 99.7617 554.645 99.7617C554.189 99.7617 553.792 99.8398 553.453 99.9961C553.121 100.152 552.838 100.364 552.604 100.631C552.369 100.891 552.177 101.191 552.027 101.529C551.884 101.861 551.777 102.206 551.705 102.564V105.094C551.835 105.549 552.018 105.979 552.252 106.383C552.486 106.78 552.799 107.102 553.189 107.35C553.58 107.59 554.072 107.711 554.664 107.711C555.152 107.711 555.572 107.61 555.924 107.408C556.282 107.2 556.575 106.917 556.803 106.559C557.037 106.201 557.21 105.79 557.32 105.328C557.431 104.859 557.486 104.361 557.486 103.834ZM561.129 103.834V103.609C561.129 102.848 561.24 102.141 561.461 101.49C561.682 100.833 562.001 100.263 562.418 99.7812C562.835 99.293 563.339 98.9154 563.932 98.6484C564.524 98.375 565.188 98.2383 565.924 98.2383C566.666 98.2383 567.333 98.375 567.926 98.6484C568.525 98.9154 569.033 99.293 569.449 99.7812C569.872 100.263 570.195 100.833 570.416 101.49C570.637 102.141 570.748 102.848 570.748 103.609V103.834C570.748 104.596 570.637 105.302 570.416 105.953C570.195 106.604 569.872 107.174 569.449 107.662C569.033 108.144 568.528 108.521 567.936 108.795C567.35 109.062 566.686 109.195 565.943 109.195C565.201 109.195 564.534 109.062 563.941 108.795C563.349 108.521 562.841 108.144 562.418 107.662C562.001 107.174 561.682 106.604 561.461 105.953C561.24 105.302 561.129 104.596 561.129 103.834ZM562.936 103.609V103.834C562.936 104.361 562.997 104.859 563.121 105.328C563.245 105.79 563.43 106.201 563.678 106.559C563.932 106.917 564.247 107.2 564.625 107.408C565.003 107.61 565.442 107.711 565.943 107.711C566.438 107.711 566.871 107.61 567.242 107.408C567.62 107.2 567.932 106.917 568.18 106.559C568.427 106.201 568.613 105.79 568.736 105.328C568.867 104.859 568.932 104.361 568.932 103.834V103.609C568.932 103.089 568.867 102.597 568.736 102.135C568.613 101.666 568.424 101.253 568.17 100.895C567.923 100.53 567.61 100.243 567.232 100.035C566.861 99.8268 566.425 99.7227 565.924 99.7227C565.429 99.7227 564.993 99.8268 564.615 100.035C564.244 100.243 563.932 100.53 563.678 100.895C563.43 101.253 563.245 101.666 563.121 102.135C562.997 102.597 562.936 103.089 562.936 103.609ZM572.535 103.834V103.609C572.535 102.848 572.646 102.141 572.867 101.49C573.089 100.833 573.408 100.263 573.824 99.7812C574.241 99.293 574.745 98.9154 575.338 98.6484C575.93 98.375 576.594 98.2383 577.33 98.2383C578.072 98.2383 578.74 98.375 579.332 98.6484C579.931 98.9154 580.439 99.293 580.855 99.7812C581.279 100.263 581.601 100.833 581.822 101.49C582.044 102.141 582.154 102.848 582.154 103.609V103.834C582.154 104.596 582.044 105.302 581.822 105.953C581.601 106.604 581.279 107.174 580.855 107.662C580.439 108.144 579.934 108.521 579.342 108.795C578.756 109.062 578.092 109.195 577.35 109.195C576.607 109.195 575.94 109.062 575.348 108.795C574.755 108.521 574.247 108.144 573.824 107.662C573.408 107.174 573.089 106.604 572.867 105.953C572.646 105.302 572.535 104.596 572.535 103.834ZM574.342 103.609V103.834C574.342 104.361 574.404 104.859 574.527 105.328C574.651 105.79 574.837 106.201 575.084 106.559C575.338 106.917 575.654 107.2 576.031 107.408C576.409 107.61 576.848 107.711 577.35 107.711C577.844 107.711 578.277 107.61 578.648 107.408C579.026 107.2 579.339 106.917 579.586 106.559C579.833 106.201 580.019 105.79 580.143 105.328C580.273 104.859 580.338 104.361 580.338 103.834V103.609C580.338 103.089 580.273 102.597 580.143 102.135C580.019 101.666 579.83 101.253 579.576 100.895C579.329 100.53 579.016 100.243 578.639 100.035C578.268 99.8268 577.831 99.7227 577.33 99.7227C576.835 99.7227 576.399 99.8268 576.021 100.035C575.65 100.243 575.338 100.53 575.084 100.895C574.837 101.253 574.651 101.666 574.527 102.135C574.404 102.597 574.342 103.089 574.342 103.609ZM586.227 100.094V109H584.42V98.4336H586.178L586.227 100.094ZM589.527 98.375L589.518 100.055C589.368 100.022 589.225 100.003 589.088 99.9961C588.958 99.9831 588.808 99.9766 588.639 99.9766C588.222 99.9766 587.854 100.042 587.535 100.172C587.216 100.302 586.946 100.484 586.725 100.719C586.503 100.953 586.327 101.233 586.197 101.559C586.074 101.878 585.992 102.229 585.953 102.613L585.445 102.906C585.445 102.268 585.507 101.669 585.631 101.109C585.761 100.549 585.96 100.055 586.227 99.625C586.493 99.1888 586.832 98.8503 587.242 98.6094C587.659 98.362 588.154 98.2383 588.727 98.2383C588.857 98.2383 589.007 98.2546 589.176 98.2871C589.345 98.3132 589.462 98.3424 589.527 98.375ZM594.928 92.75V94.2344H593.062V110.562H594.928V112.047H591.256V92.75H594.928ZM598.316 100.689V109H596.51V98.4336H598.219L598.316 100.689ZM597.887 103.316L597.135 103.287C597.141 102.564 597.249 101.897 597.457 101.285C597.665 100.667 597.958 100.13 598.336 99.6738C598.714 99.2181 599.163 98.8665 599.684 98.6191C600.211 98.3652 600.794 98.2383 601.432 98.2383C601.952 98.2383 602.421 98.3099 602.838 98.4531C603.255 98.5898 603.609 98.8112 603.902 99.1172C604.202 99.4232 604.43 99.8203 604.586 100.309C604.742 100.79 604.82 101.38 604.82 102.076V109H603.004V102.057C603.004 101.503 602.923 101.061 602.76 100.729C602.597 100.39 602.359 100.146 602.047 99.9961C601.734 99.8398 601.35 99.7617 600.895 99.7617C600.445 99.7617 600.035 99.8561 599.664 100.045C599.299 100.234 598.984 100.494 598.717 100.826C598.456 101.158 598.251 101.539 598.102 101.969C597.958 102.392 597.887 102.841 597.887 103.316ZM611.949 109.195C611.214 109.195 610.546 109.072 609.947 108.824C609.355 108.57 608.844 108.215 608.414 107.76C607.991 107.304 607.665 106.764 607.438 106.139C607.21 105.514 607.096 104.83 607.096 104.088V103.678C607.096 102.818 607.223 102.053 607.477 101.383C607.73 100.706 608.076 100.133 608.512 99.6641C608.948 99.1953 609.443 98.8405 609.996 98.5996C610.549 98.3587 611.122 98.2383 611.715 98.2383C612.47 98.2383 613.121 98.3685 613.668 98.6289C614.221 98.8893 614.674 99.2539 615.025 99.7227C615.377 100.185 615.637 100.732 615.807 101.363C615.976 101.988 616.061 102.672 616.061 103.414V104.225H608.17V102.75H614.254V102.613C614.228 102.145 614.13 101.689 613.961 101.246C613.798 100.803 613.538 100.439 613.18 100.152C612.822 99.8659 612.333 99.7227 611.715 99.7227C611.305 99.7227 610.927 99.8105 610.582 99.9863C610.237 100.156 609.941 100.41 609.693 100.748C609.446 101.087 609.254 101.5 609.117 101.988C608.98 102.477 608.912 103.04 608.912 103.678V104.088C608.912 104.589 608.98 105.061 609.117 105.504C609.26 105.94 609.465 106.324 609.732 106.656C610.006 106.988 610.335 107.249 610.719 107.438C611.109 107.626 611.552 107.721 612.047 107.721C612.685 107.721 613.225 107.59 613.668 107.33C614.111 107.07 614.498 106.721 614.83 106.285L615.924 107.154C615.696 107.499 615.406 107.828 615.055 108.141C614.703 108.453 614.27 108.707 613.756 108.902C613.248 109.098 612.646 109.195 611.949 109.195ZM624.322 106.197C624.322 105.937 624.264 105.696 624.146 105.475C624.036 105.247 623.805 105.042 623.453 104.859C623.108 104.671 622.587 104.508 621.891 104.371C621.305 104.247 620.774 104.101 620.299 103.932C619.83 103.762 619.43 103.557 619.098 103.316C618.772 103.076 618.521 102.792 618.346 102.467C618.17 102.141 618.082 101.76 618.082 101.324C618.082 100.908 618.173 100.514 618.355 100.143C618.544 99.7715 618.808 99.4427 619.146 99.1562C619.492 98.8698 619.905 98.6452 620.387 98.4824C620.868 98.3197 621.406 98.2383 621.998 98.2383C622.844 98.2383 623.567 98.388 624.166 98.6875C624.765 98.987 625.224 99.3874 625.543 99.8887C625.862 100.383 626.021 100.934 626.021 101.539H624.215C624.215 101.246 624.127 100.963 623.951 100.689C623.782 100.41 623.531 100.178 623.199 99.9961C622.874 99.8138 622.473 99.7227 621.998 99.7227C621.497 99.7227 621.09 99.8008 620.777 99.957C620.471 100.107 620.247 100.299 620.104 100.533C619.967 100.768 619.898 101.015 619.898 101.275C619.898 101.471 619.931 101.646 619.996 101.803C620.068 101.952 620.191 102.092 620.367 102.223C620.543 102.346 620.79 102.464 621.109 102.574C621.428 102.685 621.835 102.796 622.33 102.906C623.196 103.102 623.909 103.336 624.469 103.609C625.029 103.883 625.445 104.218 625.719 104.615C625.992 105.012 626.129 105.494 626.129 106.061C626.129 106.523 626.031 106.946 625.836 107.33C625.647 107.714 625.37 108.046 625.006 108.326C624.648 108.6 624.218 108.814 623.717 108.971C623.222 109.12 622.665 109.195 622.047 109.195C621.116 109.195 620.328 109.029 619.684 108.697C619.039 108.365 618.551 107.936 618.219 107.408C617.887 106.881 617.721 106.324 617.721 105.738H619.537C619.563 106.233 619.706 106.627 619.967 106.92C620.227 107.206 620.546 107.411 620.924 107.535C621.301 107.652 621.676 107.711 622.047 107.711C622.542 107.711 622.955 107.646 623.287 107.516C623.626 107.385 623.883 107.206 624.059 106.979C624.234 106.751 624.322 106.49 624.322 106.197ZM634.654 106.197C634.654 105.937 634.596 105.696 634.479 105.475C634.368 105.247 634.137 105.042 633.785 104.859C633.44 104.671 632.919 104.508 632.223 104.371C631.637 104.247 631.106 104.101 630.631 103.932C630.162 103.762 629.762 103.557 629.43 103.316C629.104 103.076 628.854 102.792 628.678 102.467C628.502 102.141 628.414 101.76 628.414 101.324C628.414 100.908 628.505 100.514 628.688 100.143C628.876 99.7715 629.14 99.4427 629.479 99.1562C629.824 98.8698 630.237 98.6452 630.719 98.4824C631.201 98.3197 631.738 98.2383 632.33 98.2383C633.176 98.2383 633.899 98.388 634.498 98.6875C635.097 98.987 635.556 99.3874 635.875 99.8887C636.194 100.383 636.354 100.934 636.354 101.539H634.547C634.547 101.246 634.459 100.963 634.283 100.689C634.114 100.41 633.863 100.178 633.531 99.9961C633.206 99.8138 632.805 99.7227 632.33 99.7227C631.829 99.7227 631.422 99.8008 631.109 99.957C630.803 100.107 630.579 100.299 630.436 100.533C630.299 100.768 630.23 101.015 630.23 101.275C630.23 101.471 630.263 101.646 630.328 101.803C630.4 101.952 630.523 102.092 630.699 102.223C630.875 102.346 631.122 102.464 631.441 102.574C631.76 102.685 632.167 102.796 632.662 102.906C633.528 103.102 634.241 103.336 634.801 103.609C635.361 103.883 635.777 104.218 636.051 104.615C636.324 105.012 636.461 105.494 636.461 106.061C636.461 106.523 636.363 106.946 636.168 107.33C635.979 107.714 635.702 108.046 635.338 108.326C634.98 108.6 634.55 108.814 634.049 108.971C633.554 109.12 632.997 109.195 632.379 109.195C631.448 109.195 630.66 109.029 630.016 108.697C629.371 108.365 628.883 107.936 628.551 107.408C628.219 106.881 628.053 106.324 628.053 105.738H629.869C629.895 106.233 630.038 106.627 630.299 106.92C630.559 107.206 630.878 107.411 631.256 107.535C631.633 107.652 632.008 107.711 632.379 107.711C632.874 107.711 633.287 107.646 633.619 107.516C633.958 107.385 634.215 107.206 634.391 106.979C634.566 106.751 634.654 106.49 634.654 106.197ZM637.555 94.2344V92.75H641.246V112.047H637.555V110.562H639.43V94.2344H637.555ZM652.867 102.213V103.697H648.102V102.213H652.867ZM666.373 93.834H667.857C667.857 94.472 667.76 94.9798 667.564 95.3574C667.369 95.7285 667.102 96.015 666.764 96.2168C666.432 96.4186 666.054 96.5716 665.631 96.6758C665.214 96.7799 664.781 96.8809 664.332 96.9785C663.772 97.0957 663.251 97.2812 662.77 97.5352C662.294 97.7826 661.884 98.1341 661.539 98.5898C661.201 99.0456 660.95 99.638 660.787 100.367C660.631 101.096 660.589 101.998 660.66 103.072V103.971H659.176V103.072C659.176 101.868 659.29 100.816 659.518 99.918C659.752 99.0195 660.081 98.2611 660.504 97.6426C660.927 97.0241 661.428 96.5326 662.008 96.168C662.594 95.8034 663.238 95.5527 663.941 95.416C664.449 95.3184 664.885 95.2142 665.25 95.1035C665.615 94.9863 665.891 94.8301 666.08 94.6348C666.275 94.4395 666.373 94.1725 666.373 93.834ZM664.234 99.0391C664.924 99.0391 665.54 99.1595 666.08 99.4004C666.62 99.6413 667.079 99.9766 667.457 100.406C667.835 100.836 668.121 101.344 668.316 101.93C668.518 102.509 668.619 103.141 668.619 103.824V104.039C668.619 104.775 668.512 105.458 668.297 106.09C668.089 106.715 667.779 107.262 667.369 107.73C666.965 108.193 666.471 108.554 665.885 108.814C665.305 109.075 664.645 109.205 663.902 109.205C663.16 109.205 662.496 109.075 661.91 108.814C661.331 108.554 660.836 108.193 660.426 107.73C660.016 107.262 659.703 106.715 659.488 106.09C659.28 105.458 659.176 104.775 659.176 104.039V103.824C659.176 103.661 659.205 103.502 659.264 103.346C659.322 103.189 659.394 103.03 659.479 102.867C659.57 102.704 659.651 102.532 659.723 102.35C659.964 101.764 660.292 101.22 660.709 100.719C661.132 100.217 661.637 99.8138 662.223 99.5078C662.815 99.1953 663.486 99.0391 664.234 99.0391ZM663.883 100.514C663.219 100.514 662.672 100.667 662.242 100.973C661.819 101.279 661.503 101.686 661.295 102.193C661.087 102.695 660.982 103.238 660.982 103.824V104.039C660.982 104.534 661.041 105.003 661.158 105.445C661.275 105.888 661.451 106.282 661.686 106.627C661.926 106.965 662.229 107.232 662.594 107.428C662.965 107.623 663.401 107.721 663.902 107.721C664.404 107.721 664.837 107.623 665.201 107.428C665.566 107.232 665.865 106.965 666.1 106.627C666.334 106.282 666.51 105.888 666.627 105.445C666.744 105.003 666.803 104.534 666.803 104.039V103.824C666.803 103.382 666.744 102.962 666.627 102.564C666.51 102.167 666.331 101.816 666.09 101.51C665.855 101.204 665.553 100.963 665.182 100.787C664.817 100.605 664.384 100.514 663.883 100.514ZM675.055 109.195C674.319 109.195 673.652 109.072 673.053 108.824C672.46 108.57 671.949 108.215 671.52 107.76C671.096 107.304 670.771 106.764 670.543 106.139C670.315 105.514 670.201 104.83 670.201 104.088V103.678C670.201 102.818 670.328 102.053 670.582 101.383C670.836 100.706 671.181 100.133 671.617 99.6641C672.053 99.1953 672.548 98.8405 673.102 98.5996C673.655 98.3587 674.228 98.2383 674.82 98.2383C675.576 98.2383 676.227 98.3685 676.773 98.6289C677.327 98.8893 677.779 99.2539 678.131 99.7227C678.482 100.185 678.743 100.732 678.912 101.363C679.081 101.988 679.166 102.672 679.166 103.414V104.225H671.275V102.75H677.359V102.613C677.333 102.145 677.236 101.689 677.066 101.246C676.904 100.803 676.643 100.439 676.285 100.152C675.927 99.8659 675.439 99.7227 674.82 99.7227C674.41 99.7227 674.033 99.8105 673.688 99.9863C673.342 100.156 673.046 100.41 672.799 100.748C672.551 101.087 672.359 101.5 672.223 101.988C672.086 102.477 672.018 103.04 672.018 103.678V104.088C672.018 104.589 672.086 105.061 672.223 105.504C672.366 105.94 672.571 106.324 672.838 106.656C673.111 106.988 673.44 107.249 673.824 107.438C674.215 107.626 674.658 107.721 675.152 107.721C675.79 107.721 676.331 107.59 676.773 107.33C677.216 107.07 677.604 106.721 677.936 106.285L679.029 107.154C678.801 107.499 678.512 107.828 678.16 108.141C677.809 108.453 677.376 108.707 676.861 108.902C676.354 109.098 675.751 109.195 675.055 109.195ZM683.18 98.4336H684.986L684.83 102.389C684.791 103.391 684.677 104.257 684.488 104.986C684.299 105.715 684.059 106.337 683.766 106.852C683.473 107.359 683.144 107.786 682.779 108.131C682.421 108.476 682.05 108.766 681.666 109H680.768L680.816 107.525L681.188 107.516C681.402 107.262 681.611 107.001 681.812 106.734C682.014 106.461 682.2 106.139 682.369 105.768C682.538 105.39 682.678 104.931 682.789 104.391C682.906 103.844 682.981 103.176 683.014 102.389L683.18 98.4336ZM683.629 98.4336H689.986V109H688.18V100.104H683.629V98.4336ZM680.357 107.516H691.344V112.115H689.537V109H682.164V112.115H680.348L680.357 107.516ZM700.514 103.014V104.479H694.928V103.014H700.514ZM695.309 98.4336V109H693.502V98.4336H695.309ZM701.979 98.4336V109H700.162V98.4336H701.979ZM704.41 103.834V103.609C704.41 102.848 704.521 102.141 704.742 101.49C704.964 100.833 705.283 100.263 705.699 99.7812C706.116 99.293 706.62 98.9154 707.213 98.6484C707.805 98.375 708.469 98.2383 709.205 98.2383C709.947 98.2383 710.615 98.375 711.207 98.6484C711.806 98.9154 712.314 99.293 712.73 99.7812C713.154 100.263 713.476 100.833 713.697 101.49C713.919 102.141 714.029 102.848 714.029 103.609V103.834C714.029 104.596 713.919 105.302 713.697 105.953C713.476 106.604 713.154 107.174 712.73 107.662C712.314 108.144 711.809 108.521 711.217 108.795C710.631 109.062 709.967 109.195 709.225 109.195C708.482 109.195 707.815 109.062 707.223 108.795C706.63 108.521 706.122 108.144 705.699 107.662C705.283 107.174 704.964 106.604 704.742 105.953C704.521 105.302 704.41 104.596 704.41 103.834ZM706.217 103.609V103.834C706.217 104.361 706.279 104.859 706.402 105.328C706.526 105.79 706.712 106.201 706.959 106.559C707.213 106.917 707.529 107.2 707.906 107.408C708.284 107.61 708.723 107.711 709.225 107.711C709.719 107.711 710.152 107.61 710.523 107.408C710.901 107.2 711.214 106.917 711.461 106.559C711.708 106.201 711.894 105.79 712.018 105.328C712.148 104.859 712.213 104.361 712.213 103.834V103.609C712.213 103.089 712.148 102.597 712.018 102.135C711.894 101.666 711.705 101.253 711.451 100.895C711.204 100.53 710.891 100.243 710.514 100.035C710.143 99.8268 709.706 99.7227 709.205 99.7227C708.71 99.7227 708.274 99.8268 707.896 100.035C707.525 100.243 707.213 100.53 706.959 100.895C706.712 101.253 706.526 101.666 706.402 102.135C706.279 102.597 706.217 103.089 706.217 103.609ZM720.523 107.711C720.953 107.711 721.35 107.623 721.715 107.447C722.079 107.271 722.379 107.031 722.613 106.725C722.848 106.412 722.981 106.057 723.014 105.66H724.732C724.7 106.285 724.488 106.868 724.098 107.408C723.714 107.942 723.209 108.375 722.584 108.707C721.959 109.033 721.272 109.195 720.523 109.195C719.729 109.195 719.036 109.055 718.443 108.775C717.857 108.495 717.369 108.111 716.979 107.623C716.594 107.135 716.305 106.575 716.109 105.943C715.921 105.305 715.826 104.632 715.826 103.922V103.512C715.826 102.802 715.921 102.132 716.109 101.5C716.305 100.862 716.594 100.299 716.979 99.8105C717.369 99.3223 717.857 98.9382 718.443 98.6582C719.036 98.3783 719.729 98.2383 720.523 98.2383C721.35 98.2383 722.073 98.4076 722.691 98.7461C723.31 99.0781 723.795 99.5339 724.146 100.113C724.505 100.686 724.7 101.337 724.732 102.066H723.014C722.981 101.63 722.857 101.236 722.643 100.885C722.434 100.533 722.148 100.253 721.783 100.045C721.425 99.8301 721.005 99.7227 720.523 99.7227C719.97 99.7227 719.505 99.8333 719.127 100.055C718.756 100.27 718.46 100.562 718.238 100.934C718.023 101.298 717.867 101.705 717.77 102.154C717.678 102.597 717.633 103.049 717.633 103.512V103.922C717.633 104.384 717.678 104.84 717.77 105.289C717.861 105.738 718.014 106.145 718.229 106.51C718.45 106.874 718.746 107.167 719.117 107.389C719.495 107.604 719.964 107.711 720.523 107.711ZM731.07 98.4336V109H729.254V98.4336H731.07ZM734.615 98.4336V99.8984H725.777V98.4336H734.615ZM737.877 102.066H741.051C741.904 102.066 742.623 102.216 743.209 102.516C743.795 102.809 744.238 103.215 744.537 103.736C744.843 104.251 744.996 104.837 744.996 105.494C744.996 105.982 744.911 106.441 744.742 106.871C744.573 107.294 744.319 107.665 743.98 107.984C743.648 108.303 743.235 108.554 742.74 108.736C742.252 108.912 741.689 109 741.051 109H736.559V98.4336H738.365V107.516H741.051C741.572 107.516 741.988 107.421 742.301 107.232C742.613 107.044 742.838 106.799 742.975 106.5C743.111 106.201 743.18 105.888 743.18 105.562C743.18 105.243 743.111 104.931 742.975 104.625C742.838 104.319 742.613 104.065 742.301 103.863C741.988 103.655 741.572 103.551 741.051 103.551H737.877V102.066Z" fill="black"/>
<path d="M38.1836 86.3623V90.0708H21.1279V86.3623H38.1836ZM31.6553 79.3896V97.5049H27.6733V79.3896H31.6553ZM54.3677 85.4565V100H50.249V81.5088H54.1284L54.3677 85.4565ZM53.6328 90.0708L52.2998 90.0537C52.3112 88.7435 52.4935 87.5415 52.8467 86.4478C53.2113 85.354 53.7126 84.4141 54.3506 83.6279C55 82.8418 55.7747 82.238 56.6748 81.8164C57.5749 81.3835 58.5775 81.167 59.6826 81.167C60.5713 81.167 61.3745 81.2923 62.0923 81.543C62.8215 81.7822 63.4424 82.1753 63.9551 82.7222C64.4792 83.269 64.8779 83.9811 65.1514 84.8584C65.4248 85.7243 65.5615 86.7896 65.5615 88.0542V100H61.4258V88.0371C61.4258 87.1484 61.2948 86.4478 61.0327 85.9351C60.7821 85.411 60.4118 85.0407 59.9219 84.8242C59.4434 84.5964 58.8452 84.4824 58.1274 84.4824C57.4211 84.4824 56.7887 84.6305 56.2305 84.9268C55.6722 85.223 55.1994 85.6274 54.812 86.1401C54.436 86.6528 54.1455 87.2453 53.9404 87.9175C53.7354 88.5897 53.6328 89.3075 53.6328 90.0708ZM77.9175 100.342C76.5503 100.342 75.3141 100.12 74.209 99.6753C73.1152 99.2196 72.181 98.5872 71.4062 97.7783C70.6429 96.9694 70.0562 96.0181 69.646 94.9243C69.2358 93.8306 69.0308 92.6514 69.0308 91.3867V90.7031C69.0308 89.2562 69.2415 87.946 69.6631 86.7725C70.0846 85.599 70.6714 84.5964 71.4233 83.7646C72.1753 82.9215 73.064 82.2778 74.0894 81.8335C75.1147 81.3892 76.2256 81.167 77.4219 81.167C78.7435 81.167 79.8999 81.3892 80.8911 81.8335C81.8823 82.2778 82.7026 82.9045 83.3521 83.7134C84.0129 84.5109 84.5028 85.4622 84.8218 86.5674C85.1522 87.6725 85.3174 88.8916 85.3174 90.2246V91.9849H71.0303V89.0283H81.25V88.7036C81.2272 87.9631 81.0791 87.2681 80.8057 86.6187C80.5436 85.9692 80.1392 85.4451 79.5923 85.0464C79.0454 84.6476 78.3162 84.4482 77.4048 84.4482C76.7212 84.4482 76.1117 84.5964 75.5762 84.8926C75.0521 85.1774 74.6134 85.5933 74.2603 86.1401C73.9071 86.687 73.6336 87.3478 73.4399 88.1226C73.2576 88.8859 73.1665 89.7461 73.1665 90.7031V91.3867C73.1665 92.1956 73.2747 92.9476 73.4912 93.6426C73.7191 94.3262 74.0495 94.9243 74.4824 95.437C74.9154 95.9497 75.4395 96.3542 76.0547 96.6504C76.6699 96.9352 77.3706 97.0776 78.1567 97.0776C79.1479 97.0776 80.0309 96.8783 80.8057 96.4795C81.5804 96.0807 82.2526 95.5168 82.8223 94.7876L84.9927 96.8896C84.5939 97.4707 84.0755 98.029 83.4375 98.5645C82.7995 99.0885 82.019 99.5158 81.0962 99.8462C80.1847 100.177 79.1252 100.342 77.9175 100.342ZM98.9038 94.9927C98.9038 94.5825 98.8013 94.2122 98.5962 93.8818C98.3911 93.54 97.998 93.2324 97.417 92.959C96.8473 92.6855 96.0042 92.4349 94.8877 92.207C93.9079 91.9906 93.0078 91.7342 92.1875 91.438C91.3786 91.1304 90.6836 90.7601 90.1025 90.3271C89.5215 89.8942 89.0715 89.3815 88.7524 88.7891C88.4334 88.1966 88.2739 87.513 88.2739 86.7383C88.2739 85.9863 88.4391 85.2743 88.7695 84.6021C89.0999 83.9299 89.5728 83.3374 90.188 82.8247C90.8032 82.312 91.5495 81.9076 92.4268 81.6113C93.3154 81.3151 94.3066 81.167 95.4004 81.167C96.9499 81.167 98.2772 81.429 99.3823 81.9531C100.499 82.4658 101.353 83.1665 101.946 84.0552C102.538 84.9325 102.834 85.9237 102.834 87.0288H98.7158C98.7158 86.5389 98.5905 86.0832 98.3398 85.6616C98.1006 85.2287 97.736 84.8812 97.2461 84.6191C96.7562 84.3457 96.141 84.209 95.4004 84.209C94.694 84.209 94.1073 84.3229 93.6401 84.5508C93.1844 84.7673 92.8426 85.0521 92.6147 85.4053C92.3983 85.7585 92.29 86.1458 92.29 86.5674C92.29 86.875 92.347 87.1541 92.4609 87.4048C92.5863 87.644 92.7913 87.8662 93.0762 88.0713C93.361 88.265 93.7484 88.4473 94.2383 88.6182C94.7396 88.7891 95.3662 88.9543 96.1182 89.1138C97.5309 89.41 98.7443 89.7917 99.7583 90.2588C100.784 90.7145 101.57 91.307 102.117 92.0361C102.664 92.7539 102.937 93.6654 102.937 94.7705C102.937 95.5908 102.76 96.3428 102.407 97.0264C102.065 97.6986 101.564 98.2853 100.903 98.7866C100.243 99.2765 99.4507 99.6582 98.5278 99.9316C97.6164 100.205 96.591 100.342 95.4517 100.342C93.7769 100.342 92.3584 100.046 91.1963 99.4531C90.0342 98.8493 89.1512 98.0802 88.5474 97.146C87.9549 96.2004 87.6587 95.2205 87.6587 94.2065H91.6406C91.6862 94.9699 91.897 95.5794 92.2729 96.0352C92.6603 96.4795 93.1388 96.8042 93.7085 97.0093C94.2896 97.203 94.8877 97.2998 95.5029 97.2998C96.2435 97.2998 96.8644 97.203 97.3657 97.0093C97.867 96.8042 98.2487 96.5308 98.5107 96.189C98.7728 95.8358 98.9038 95.437 98.9038 94.9927ZM116.917 94.9927C116.917 94.5825 116.814 94.2122 116.609 93.8818C116.404 93.54 116.011 93.2324 115.43 92.959C114.86 92.6855 114.017 92.4349 112.9 92.207C111.921 91.9906 111.021 91.7342 110.2 91.438C109.391 91.1304 108.696 90.7601 108.115 90.3271C107.534 89.8942 107.084 89.3815 106.765 88.7891C106.446 88.1966 106.287 87.513 106.287 86.7383C106.287 85.9863 106.452 85.2743 106.782 84.6021C107.113 83.9299 107.585 83.3374 108.201 82.8247C108.816 82.312 109.562 81.9076 110.439 81.6113C111.328 81.3151 112.319 81.167 113.413 81.167C114.963 81.167 116.29 81.429 117.395 81.9531C118.512 82.4658 119.366 83.1665 119.958 84.0552C120.551 84.9325 120.847 85.9237 120.847 87.0288H116.729C116.729 86.5389 116.603 86.0832 116.353 85.6616C116.113 85.2287 115.749 84.8812 115.259 84.6191C114.769 84.3457 114.154 84.209 113.413 84.209C112.707 84.209 112.12 84.3229 111.653 84.5508C111.197 84.7673 110.855 85.0521 110.627 85.4053C110.411 85.7585 110.303 86.1458 110.303 86.5674C110.303 86.875 110.36 87.1541 110.474 87.4048C110.599 87.644 110.804 87.8662 111.089 88.0713C111.374 88.265 111.761 88.4473 112.251 88.6182C112.752 88.7891 113.379 88.9543 114.131 89.1138C115.544 89.41 116.757 89.7917 117.771 90.2588C118.796 90.7145 119.583 91.307 120.129 92.0361C120.676 92.7539 120.95 93.6654 120.95 94.7705C120.95 95.5908 120.773 96.3428 120.42 97.0264C120.078 97.6986 119.577 98.2853 118.916 98.7866C118.255 99.2765 117.463 99.6582 116.541 99.9316C115.629 100.205 114.604 100.342 113.464 100.342C111.79 100.342 110.371 100.046 109.209 99.4531C108.047 98.8493 107.164 98.0802 106.56 97.146C105.968 96.2004 105.671 95.2205 105.671 94.2065H109.653C109.699 94.9699 109.91 95.5794 110.286 96.0352C110.673 96.4795 111.152 96.8042 111.721 97.0093C112.302 97.203 112.9 97.2998 113.516 97.2998C114.256 97.2998 114.877 97.203 115.378 97.0093C115.88 96.8042 116.261 96.5308 116.523 96.189C116.785 95.8358 116.917 95.437 116.917 94.9927Z" fill="black"/>
</g>
<defs>
<clipPath id="clip0_2713_947">
<rect width="900" height="128" fill="white"/>
</clipPath>
</defs>
</svg>
