<svg width="900" height="121" viewBox="0 0 900 121" fill="none" xmlns="http://www.w3.org/2000/svg">
<g clip-path="url(#clip0_2716_1141)">
<rect width="900" height="121" fill="white"/>
<line y1="0.5" x2="900" y2="0.5" stroke="black"/>
<line x1="0.805174" y1="-0.0123898" x2="0.49487" y2="121.001" stroke="black"/>
<line x1="899.5" y1="1" x2="899.5" y2="121" stroke="black"/>
<path d="M39.1748 25.75V26.9219C39.1748 28.5332 38.9648 29.9785 38.5449 31.2578C38.125 32.5371 37.5244 33.626 36.7432 34.5244C35.9717 35.4229 35.0439 36.1113 33.96 36.5898C32.876 37.0586 31.6748 37.293 30.3564 37.293C29.0479 37.293 27.8516 37.0586 26.7676 36.5898C25.6934 36.1113 24.7607 35.4229 23.9697 34.5244C23.1787 33.626 22.5635 32.5371 22.124 31.2578C21.6943 29.9785 21.4795 28.5332 21.4795 26.9219V25.75C21.4795 24.1387 21.6943 22.6982 22.124 21.4287C22.5537 20.1494 23.1592 19.0605 23.9404 18.1621C24.7314 17.2539 25.6641 16.5654 26.7383 16.0967C27.8223 15.6182 29.0186 15.3789 30.3271 15.3789C31.6455 15.3789 32.8467 15.6182 33.9307 16.0967C35.0146 16.5654 35.9473 17.2539 36.7285 18.1621C37.5098 19.0605 38.1104 20.1494 38.5303 21.4287C38.96 22.6982 39.1748 24.1387 39.1748 25.75ZM35.498 26.9219V25.7207C35.498 24.5293 35.3809 23.4795 35.1465 22.5713C34.9219 21.6533 34.585 20.8867 34.1357 20.2715C33.6963 19.6465 33.1543 19.1777 32.5098 18.8652C31.8652 18.543 31.1377 18.3818 30.3271 18.3818C29.5166 18.3818 28.7939 18.543 28.1592 18.8652C27.5244 19.1777 26.9824 19.6465 26.5332 20.2715C26.0938 20.8867 25.7568 21.6533 25.5225 22.5713C25.2881 23.4795 25.1709 24.5293 25.1709 25.7207V26.9219C25.1709 28.1133 25.2881 29.168 25.5225 30.0859C25.7568 31.0039 26.0986 31.7803 26.5479 32.415C27.0068 33.04 27.5537 33.5137 28.1885 33.8359C28.8232 34.1484 29.5459 34.3047 30.3564 34.3047C31.1768 34.3047 31.9043 34.1484 32.5391 33.8359C33.1738 33.5137 33.7109 33.04 34.1504 32.415C34.5898 31.7803 34.9219 31.0039 35.1465 30.0859C35.3809 29.168 35.498 28.1133 35.498 26.9219ZM46.3086 21.1504V37H42.7783V21.1504H46.3086ZM56.6504 21.1504L49.5166 30.6865H45.4883L45.0195 27.4932H47.9639L52.2412 21.1504H56.6504ZM52.5195 37L47.7441 30.0859L50.5273 28.0791L57.1631 37H52.5195ZM57.8809 29.251V28.9141C57.8809 27.7715 58.0469 26.7119 58.3789 25.7354C58.7109 24.749 59.1895 23.8945 59.8145 23.1719C60.4492 22.4395 61.2207 21.873 62.1289 21.4727C63.0469 21.0625 64.082 20.8574 65.2344 20.8574C66.3965 20.8574 67.4316 21.0625 68.3398 21.4727C69.2578 21.873 70.0342 22.4395 70.6689 23.1719C71.3037 23.8945 71.7871 24.749 72.1191 25.7354C72.4512 26.7119 72.6172 27.7715 72.6172 28.9141V29.251C72.6172 30.3936 72.4512 31.4531 72.1191 32.4297C71.7871 33.4062 71.3037 34.2607 70.6689 34.9932C70.0342 35.7158 69.2627 36.2822 68.3545 36.6924C67.4463 37.0928 66.416 37.293 65.2637 37.293C64.1016 37.293 63.0615 37.0928 62.1436 36.6924C61.2354 36.2822 60.4639 35.7158 59.8291 34.9932C59.1943 34.2607 58.7109 33.4062 58.3789 32.4297C58.0469 31.4531 57.8809 30.3936 57.8809 29.251ZM61.4111 28.9141V29.251C61.4111 29.9639 61.4844 30.6377 61.6309 31.2725C61.7773 31.9072 62.0068 32.4639 62.3193 32.9424C62.6318 33.4209 63.0322 33.7969 63.5205 34.0703C64.0088 34.3438 64.5898 34.4805 65.2637 34.4805C65.918 34.4805 66.4844 34.3438 66.9629 34.0703C67.4512 33.7969 67.8516 33.4209 68.1641 32.9424C68.4766 32.4639 68.7061 31.9072 68.8525 31.2725C69.0088 30.6377 69.0869 29.9639 69.0869 29.251V28.9141C69.0869 28.2109 69.0088 27.5469 68.8525 26.9219C68.7061 26.2871 68.4717 25.7256 68.1494 25.2373C67.8369 24.749 67.4365 24.3682 66.9482 24.0947C66.4697 23.8115 65.8984 23.6699 65.2344 23.6699C64.5703 23.6699 63.9941 23.8115 63.5059 24.0947C63.0273 24.3682 62.6318 24.749 62.3193 25.2373C62.0068 25.7256 61.7773 26.2871 61.6309 26.9219C61.4844 27.5469 61.4111 28.2109 61.4111 28.9141ZM86.4014 27.7715V30.5547H78.1982V27.7715H86.4014ZM79.2236 21.1504V37H75.6934V21.1504H79.2236ZM88.9502 21.1504V37H85.4199V21.1504H88.9502ZM105.444 21.1504V37H101.914V21.1504H105.444ZM103.95 28.167V30.9648C103.521 31.1504 103.037 31.3213 102.5 31.4775C101.973 31.624 101.416 31.7461 100.83 31.8438C100.244 31.9316 99.6533 31.9756 99.0576 31.9756C97.6611 31.9756 96.4551 31.7607 95.4395 31.3311C94.4336 30.9014 93.6572 30.2422 93.1104 29.3535C92.5732 28.4551 92.3047 27.3174 92.3047 25.9404V21.1357H95.8203V25.9404C95.8203 26.7314 95.9375 27.3613 96.1719 27.8301C96.416 28.2988 96.7773 28.6357 97.2559 28.8408C97.7344 29.0459 98.335 29.1484 99.0576 29.1484C99.6631 29.1484 100.234 29.1094 100.771 29.0312C101.309 28.9434 101.841 28.8262 102.368 28.6797C102.896 28.5332 103.423 28.3623 103.95 28.167ZM118.145 33.8213V26.2627C118.145 25.6963 118.042 25.208 117.837 24.7979C117.632 24.3877 117.319 24.0703 116.899 23.8457C116.489 23.6211 115.972 23.5088 115.347 23.5088C114.771 23.5088 114.272 23.6064 113.853 23.8018C113.433 23.9971 113.105 24.2607 112.871 24.5928C112.637 24.9248 112.52 25.3008 112.52 25.7207H109.004C109.004 25.0957 109.155 24.4902 109.458 23.9043C109.761 23.3184 110.2 22.7959 110.776 22.3369C111.353 21.8779 112.041 21.5166 112.842 21.2529C113.643 20.9893 114.541 20.8574 115.537 20.8574C116.729 20.8574 117.783 21.0576 118.701 21.458C119.629 21.8584 120.356 22.4639 120.884 23.2744C121.421 24.0752 121.689 25.0811 121.689 26.292V33.3379C121.689 34.0605 121.738 34.71 121.836 35.2861C121.943 35.8525 122.095 36.3457 122.29 36.7656V37H118.672C118.506 36.6191 118.374 36.1357 118.276 35.5498C118.188 34.9541 118.145 34.3779 118.145 33.8213ZM118.657 27.3613L118.687 29.5439H116.152C115.498 29.5439 114.922 29.6074 114.424 29.7344C113.926 29.8516 113.511 30.0273 113.179 30.2617C112.847 30.4961 112.598 30.7793 112.432 31.1113C112.266 31.4434 112.183 31.8193 112.183 32.2393C112.183 32.6592 112.28 33.0449 112.476 33.3965C112.671 33.7383 112.954 34.0068 113.325 34.2021C113.706 34.3975 114.165 34.4951 114.702 34.4951C115.425 34.4951 116.055 34.3486 116.592 34.0557C117.139 33.7529 117.568 33.3867 117.881 32.957C118.193 32.5176 118.359 32.1025 118.379 31.7119L119.521 33.2793C119.404 33.6797 119.204 34.1094 118.921 34.5684C118.638 35.0273 118.267 35.4668 117.808 35.8867C117.358 36.2969 116.816 36.6338 116.182 36.8975C115.557 37.1611 114.834 37.293 114.014 37.293C112.979 37.293 112.056 37.0879 111.245 36.6777C110.435 36.2578 109.8 35.6963 109.341 34.9932C108.882 34.2803 108.652 33.4746 108.652 32.5762C108.652 31.7363 108.809 30.9941 109.121 30.3496C109.443 29.6953 109.912 29.1484 110.527 28.709C111.152 28.2695 111.914 27.9375 112.812 27.7129C113.711 27.4785 114.736 27.3613 115.889 27.3613H118.657ZM136.206 27.7715V30.5547H128.003V27.7715H136.206ZM129.028 21.1504V37H125.498V21.1504H129.028ZM138.755 21.1504V37H135.225V21.1504H138.755ZM146.167 31.8438L152.393 21.1504H155.923V37H152.393V26.292L146.167 37H142.637V21.1504H146.167V31.8438ZM162.998 29.251H166.66L162.163 37H158.516L162.998 29.251ZM165.576 21.1504H172.373V37H168.857V23.9336H165.576C164.912 23.9336 164.365 24.0508 163.936 24.2852C163.506 24.5098 163.188 24.8076 162.983 25.1787C162.778 25.54 162.676 25.9111 162.676 26.292C162.676 26.6729 162.769 27.0391 162.954 27.3906C163.149 27.7422 163.447 28.0303 163.848 28.2549C164.258 28.4795 164.771 28.5918 165.386 28.5918H170.044V31.1699H165.386C164.409 31.1699 163.535 31.0479 162.764 30.8037C161.992 30.5498 161.338 30.2031 160.801 29.7637C160.264 29.3145 159.854 28.792 159.57 28.1963C159.287 27.5908 159.146 26.9316 159.146 26.2188C159.146 25.4863 159.292 24.8125 159.585 24.1973C159.878 23.582 160.298 23.0449 160.845 22.5859C161.401 22.127 162.075 21.7754 162.866 21.5312C163.667 21.2773 164.57 21.1504 165.576 21.1504Z" fill="black"/>
<path d="M255.903 15.6719V37H252.241V15.6719H255.903ZM268.735 15.6719L260.063 27.8301H254.863L254.365 24.6367H258.027L264.238 15.6719H268.735ZM264.985 37L258.086 27.2734L260.459 24.4463L269.395 37H264.985ZM291.353 21.1504V37H287.822V21.1504H291.353ZM289.858 28.167V30.9648C289.429 31.1504 288.945 31.3213 288.408 31.4775C287.881 31.624 287.324 31.7461 286.738 31.8438C286.152 31.9316 285.562 31.9756 284.966 31.9756C283.569 31.9756 282.363 31.7607 281.348 31.3311C280.342 30.9014 279.565 30.2422 279.019 29.3535C278.481 28.4551 278.213 27.3174 278.213 25.9404V21.1357H281.729V25.9404C281.729 26.7314 281.846 27.3613 282.08 27.8301C282.324 28.2988 282.686 28.6357 283.164 28.8408C283.643 29.0459 284.243 29.1484 284.966 29.1484C285.571 29.1484 286.143 29.1094 286.68 29.0312C287.217 28.9434 287.749 28.8262 288.276 28.6797C288.804 28.5332 289.331 28.3623 289.858 28.167ZM302.104 37.293C300.933 37.293 299.873 37.1025 298.926 36.7217C297.988 36.3311 297.188 35.7891 296.523 35.0957C295.869 34.4023 295.366 33.5869 295.015 32.6494C294.663 31.7119 294.487 30.7012 294.487 29.6172V29.0312C294.487 27.791 294.668 26.668 295.029 25.6621C295.391 24.6562 295.894 23.7969 296.538 23.084C297.183 22.3613 297.944 21.8096 298.823 21.4287C299.702 21.0479 300.654 20.8574 301.68 20.8574C302.812 20.8574 303.804 21.0479 304.653 21.4287C305.503 21.8096 306.206 22.3467 306.763 23.04C307.329 23.7236 307.749 24.5391 308.022 25.4863C308.306 26.4336 308.447 27.4785 308.447 28.6211V30.1299H296.201V27.5957H304.961V27.3174C304.941 26.6826 304.814 26.0869 304.58 25.5303C304.355 24.9736 304.009 24.5244 303.54 24.1826C303.071 23.8408 302.446 23.6699 301.665 23.6699C301.079 23.6699 300.557 23.7969 300.098 24.0508C299.648 24.2949 299.272 24.6514 298.97 25.1201C298.667 25.5889 298.433 26.1553 298.267 26.8193C298.11 27.4736 298.032 28.2109 298.032 29.0312V29.6172C298.032 30.3105 298.125 30.9551 298.311 31.5508C298.506 32.1367 298.789 32.6494 299.16 33.0889C299.531 33.5283 299.98 33.875 300.508 34.1289C301.035 34.373 301.636 34.4951 302.31 34.4951C303.159 34.4951 303.916 34.3242 304.58 33.9824C305.244 33.6406 305.82 33.1572 306.309 32.5322L308.169 34.334C307.827 34.832 307.383 35.3105 306.836 35.7695C306.289 36.2188 305.62 36.585 304.829 36.8682C304.048 37.1514 303.14 37.293 302.104 37.293ZM320.62 32.7227L325.337 21.1504H328.398L321.821 37H319.419L312.856 21.1504H315.918L320.62 32.7227ZM315.01 21.1504V37H311.479V21.1504H315.01ZM326.23 37V21.1504H329.775V37H326.23ZM338.33 35.2715L342.637 21.1504H346.416L340.059 39.417C339.912 39.8076 339.722 40.2324 339.487 40.6914C339.253 41.1504 338.945 41.585 338.564 41.9951C338.193 42.415 337.729 42.752 337.173 43.0059C336.616 43.2695 335.942 43.4014 335.151 43.4014C334.839 43.4014 334.536 43.3721 334.243 43.3135C333.96 43.2646 333.691 43.2109 333.438 43.1523L333.423 40.457C333.521 40.4668 333.638 40.4766 333.774 40.4863C333.921 40.4961 334.038 40.501 334.126 40.501C334.712 40.501 335.2 40.4277 335.591 40.2812C335.981 40.1445 336.299 39.9199 336.543 39.6074C336.797 39.2949 337.012 38.875 337.188 38.3477L338.33 35.2715ZM335.898 21.1504L339.663 33.0156L340.293 36.7363L337.847 37.3662L332.09 21.1504H335.898ZM366.543 21.1504V23.9629H358.721V21.1504H366.543ZM359.556 21.1504V37H356.025V21.1504H359.556ZM369.312 21.1504V37H365.767V21.1504H369.312ZM376.592 24.1973V43.0938H373.062V21.1504H376.313L376.592 24.1973ZM386.919 28.9287V29.2363C386.919 30.3887 386.782 31.458 386.509 32.4443C386.245 33.4209 385.85 34.2754 385.322 35.0078C384.805 35.7305 384.165 36.292 383.403 36.6924C382.642 37.0928 381.763 37.293 380.767 37.293C379.78 37.293 378.916 37.1123 378.174 36.751C377.441 36.3799 376.821 35.8574 376.313 35.1836C375.806 34.5098 375.396 33.7188 375.083 32.8105C374.78 31.8926 374.565 30.8867 374.438 29.793V28.6064C374.565 27.4443 374.78 26.3896 375.083 25.4424C375.396 24.4951 375.806 23.6797 376.313 22.9961C376.821 22.3125 377.441 21.7852 378.174 21.4141C378.906 21.043 379.761 20.8574 380.737 20.8574C381.733 20.8574 382.617 21.0527 383.389 21.4434C384.16 21.8242 384.81 22.3711 385.337 23.084C385.864 23.7871 386.26 24.6367 386.523 25.6328C386.787 26.6191 386.919 27.7178 386.919 28.9287ZM383.389 29.2363V28.9287C383.389 28.1963 383.32 27.5176 383.184 26.8926C383.047 26.2578 382.832 25.7012 382.539 25.2227C382.246 24.7441 381.87 24.373 381.411 24.1094C380.962 23.8359 380.42 23.6992 379.785 23.6992C379.16 23.6992 378.623 23.8066 378.174 24.0215C377.725 24.2266 377.349 24.5146 377.046 24.8857C376.743 25.2568 376.509 25.6914 376.343 26.1895C376.177 26.6777 376.06 27.21 375.991 27.7861V30.6279C376.108 31.3311 376.309 31.9756 376.592 32.5615C376.875 33.1475 377.275 33.6162 377.793 33.9678C378.32 34.3096 378.994 34.4805 379.814 34.4805C380.449 34.4805 380.991 34.3438 381.44 34.0703C381.89 33.7969 382.256 33.4209 382.539 32.9424C382.832 32.4541 383.047 31.8926 383.184 31.2578C383.32 30.623 383.389 29.9492 383.389 29.2363ZM393.569 31.8438L399.795 21.1504H403.325V37H399.795V26.292L393.569 37H390.039V21.1504H393.569V31.8438ZM413.535 34.4805C414.111 34.4805 414.629 34.3682 415.088 34.1436C415.557 33.9092 415.933 33.5869 416.216 33.1768C416.509 32.7666 416.67 32.293 416.699 31.7559H420.024C420.005 32.7812 419.702 33.7139 419.116 34.5537C418.53 35.3936 417.754 36.0625 416.787 36.5605C415.82 37.0488 414.751 37.293 413.579 37.293C412.368 37.293 411.313 37.0879 410.415 36.6777C409.517 36.2578 408.77 35.6816 408.174 34.9492C407.578 34.2168 407.129 33.3721 406.826 32.415C406.533 31.458 406.387 30.4326 406.387 29.3389V28.8262C406.387 27.7324 406.533 26.707 406.826 25.75C407.129 24.7832 407.578 23.9336 408.174 23.2012C408.77 22.4688 409.517 21.8975 410.415 21.4873C411.313 21.0674 412.363 20.8574 413.564 20.8574C414.834 20.8574 415.947 21.1113 416.904 21.6191C417.861 22.1172 418.613 22.8154 419.16 23.7139C419.717 24.6025 420.005 25.6377 420.024 26.8193H416.699C416.67 26.2334 416.523 25.7061 416.26 25.2373C416.006 24.7588 415.645 24.3779 415.176 24.0947C414.717 23.8115 414.165 23.6699 413.521 23.6699C412.808 23.6699 412.217 23.8164 411.748 24.1094C411.279 24.3926 410.913 24.7832 410.649 25.2812C410.386 25.7695 410.195 26.3213 410.078 26.9365C409.971 27.542 409.917 28.1719 409.917 28.8262V29.3389C409.917 29.9932 409.971 30.6279 410.078 31.2432C410.186 31.8584 410.371 32.4102 410.635 32.8984C410.908 33.377 411.279 33.7627 411.748 34.0557C412.217 34.3389 412.812 34.4805 413.535 34.4805ZM422.061 29.251V28.9141C422.061 27.7715 422.227 26.7119 422.559 25.7354C422.891 24.749 423.369 23.8945 423.994 23.1719C424.629 22.4395 425.4 21.873 426.309 21.4727C427.227 21.0625 428.262 20.8574 429.414 20.8574C430.576 20.8574 431.611 21.0625 432.52 21.4727C433.438 21.873 434.214 22.4395 434.849 23.1719C435.483 23.8945 435.967 24.749 436.299 25.7354C436.631 26.7119 436.797 27.7715 436.797 28.9141V29.251C436.797 30.3936 436.631 31.4531 436.299 32.4297C435.967 33.4062 435.483 34.2607 434.849 34.9932C434.214 35.7158 433.442 36.2822 432.534 36.6924C431.626 37.0928 430.596 37.293 429.443 37.293C428.281 37.293 427.241 37.0928 426.323 36.6924C425.415 36.2822 424.644 35.7158 424.009 34.9932C423.374 34.2607 422.891 33.4062 422.559 32.4297C422.227 31.4531 422.061 30.3936 422.061 29.251ZM425.591 28.9141V29.251C425.591 29.9639 425.664 30.6377 425.811 31.2725C425.957 31.9072 426.187 32.4639 426.499 32.9424C426.812 33.4209 427.212 33.7969 427.7 34.0703C428.188 34.3438 428.77 34.4805 429.443 34.4805C430.098 34.4805 430.664 34.3438 431.143 34.0703C431.631 33.7969 432.031 33.4209 432.344 32.9424C432.656 32.4639 432.886 31.9072 433.032 31.2725C433.188 30.6377 433.267 29.9639 433.267 29.251V28.9141C433.267 28.2109 433.188 27.5469 433.032 26.9219C432.886 26.2871 432.651 25.7256 432.329 25.2373C432.017 24.749 431.616 24.3682 431.128 24.0947C430.649 23.8115 430.078 23.6699 429.414 23.6699C428.75 23.6699 428.174 23.8115 427.686 24.0947C427.207 24.3682 426.812 24.749 426.499 25.2373C426.187 25.7256 425.957 26.2871 425.811 26.9219C425.664 27.5469 425.591 28.2109 425.591 28.9141ZM446.743 37.293C445.571 37.293 444.512 37.1025 443.564 36.7217C442.627 36.3311 441.826 35.7891 441.162 35.0957C440.508 34.4023 440.005 33.5869 439.653 32.6494C439.302 31.7119 439.126 30.7012 439.126 29.6172V29.0312C439.126 27.791 439.307 26.668 439.668 25.6621C440.029 24.6562 440.532 23.7969 441.177 23.084C441.821 22.3613 442.583 21.8096 443.462 21.4287C444.341 21.0479 445.293 20.8574 446.318 20.8574C447.451 20.8574 448.442 21.0479 449.292 21.4287C450.142 21.8096 450.845 22.3467 451.401 23.04C451.968 23.7236 452.388 24.5391 452.661 25.4863C452.944 26.4336 453.086 27.4785 453.086 28.6211V30.1299H440.84V27.5957H449.6V27.3174C449.58 26.6826 449.453 26.0869 449.219 25.5303C448.994 24.9736 448.647 24.5244 448.179 24.1826C447.71 23.8408 447.085 23.6699 446.304 23.6699C445.718 23.6699 445.195 23.7969 444.736 24.0508C444.287 24.2949 443.911 24.6514 443.608 25.1201C443.306 25.5889 443.071 26.1553 442.905 26.8193C442.749 27.4736 442.671 28.2109 442.671 29.0312V29.6172C442.671 30.3105 442.764 30.9551 442.949 31.5508C443.145 32.1367 443.428 32.6494 443.799 33.0889C444.17 33.5283 444.619 33.875 445.146 34.1289C445.674 34.373 446.274 34.4951 446.948 34.4951C447.798 34.4951 448.555 34.3242 449.219 33.9824C449.883 33.6406 450.459 33.1572 450.947 32.5322L452.808 34.334C452.466 34.832 452.021 35.3105 451.475 35.7695C450.928 36.2188 450.259 36.585 449.468 36.8682C448.687 37.1514 447.778 37.293 446.743 37.293ZM458.711 21.1504H462.241L462.065 26.7314C462.017 28.3525 461.831 29.7441 461.509 30.9062C461.187 32.0684 460.767 33.0498 460.249 33.8506C459.731 34.6416 459.146 35.291 458.491 35.7988C457.847 36.3066 457.168 36.707 456.455 37H455.415V34.2168L455.913 34.1875C456.333 33.7383 456.694 33.2891 456.997 32.8398C457.31 32.3809 457.573 31.8779 457.788 31.3311C458.003 30.7744 458.169 30.125 458.286 29.3828C458.413 28.6406 458.496 27.7568 458.535 26.7314L458.711 21.1504ZM459.648 21.1504H469.697V37H466.182V24.1387H459.648V21.1504ZM454.609 34.1875H471.865V41.7168H468.335V37H458.184V41.7168H454.595L454.609 34.1875ZM474.531 35.2422C474.531 34.6953 474.717 34.2363 475.088 33.8652C475.459 33.4844 475.962 33.2939 476.597 33.2939C477.241 33.2939 477.744 33.4844 478.105 33.8652C478.477 34.2363 478.662 34.6953 478.662 35.2422C478.662 35.7891 478.477 36.248 478.105 36.6191C477.744 36.9902 477.241 37.1758 476.597 37.1758C475.962 37.1758 475.459 36.9902 475.088 36.6191C474.717 36.248 474.531 35.7891 474.531 35.2422ZM489.341 30.7158H486.074C486.084 29.8076 486.162 29.0459 486.309 28.4307C486.455 27.8057 486.699 27.2393 487.041 26.7314C487.393 26.2236 487.856 25.6865 488.433 25.1201C488.882 24.6904 489.287 24.2852 489.648 23.9043C490.01 23.5137 490.298 23.1035 490.513 22.6738C490.728 22.2344 490.835 21.7314 490.835 21.165C490.835 20.5498 490.732 20.0273 490.527 19.5977C490.322 19.168 490.02 18.8408 489.619 18.6162C489.229 18.3916 488.74 18.2793 488.154 18.2793C487.666 18.2793 487.207 18.377 486.777 18.5723C486.348 18.7578 486.001 19.0508 485.737 19.4512C485.474 19.8418 485.332 20.3594 485.312 21.0039H481.782C481.802 19.7734 482.095 18.7383 482.661 17.8984C483.228 17.0586 483.989 16.4287 484.946 16.0088C485.903 15.5889 486.973 15.3789 488.154 15.3789C489.463 15.3789 490.581 15.6035 491.509 16.0527C492.437 16.4922 493.145 17.1367 493.633 17.9863C494.131 18.8262 494.38 19.8418 494.38 21.0332C494.38 21.8926 494.209 22.6738 493.867 23.377C493.525 24.0703 493.081 24.7197 492.534 25.3252C491.987 25.9209 491.396 26.5166 490.762 27.1123C490.215 27.6104 489.844 28.1523 489.648 28.7383C489.453 29.3145 489.351 29.9736 489.341 30.7158ZM485.781 35.2861C485.781 34.7588 485.962 34.3145 486.323 33.9531C486.685 33.582 487.178 33.3965 487.803 33.3965C488.428 33.3965 488.921 33.582 489.282 33.9531C489.644 34.3145 489.824 34.7588 489.824 35.2861C489.824 35.8135 489.644 36.2627 489.282 36.6338C488.921 36.9951 488.428 37.1758 487.803 37.1758C487.178 37.1758 486.685 36.9951 486.323 36.6338C485.962 36.2627 485.781 35.8135 485.781 35.2861Z" fill="black"/>
<path d="M551.124 15.6719H554.801V22.2783C554.801 23.2842 554.952 24.0752 555.255 24.6514C555.558 25.2178 556.017 25.6182 556.632 25.8525C557.257 26.0869 558.033 26.2041 558.961 26.2041C559.41 26.2041 559.884 26.1846 560.382 26.1455C560.88 26.1064 561.378 26.0527 561.876 25.9844C562.384 25.9062 562.872 25.8184 563.341 25.7207C563.81 25.6133 564.239 25.4961 564.63 25.3691V28.2842C564.249 28.4014 563.829 28.5137 563.37 28.6211C562.921 28.7285 562.452 28.8213 561.964 28.8994C561.476 28.9678 560.978 29.0215 560.47 29.0605C559.962 29.0996 559.459 29.1191 558.961 29.1191C557.35 29.1191 555.958 28.8896 554.786 28.4307C553.614 27.9619 552.711 27.2246 552.076 26.2188C551.441 25.2129 551.124 23.8994 551.124 22.2783V15.6719ZM563.795 15.6719H567.472V37H563.795V15.6719ZM578.883 21.1504V37H575.338V21.1504H578.883ZM584.083 21.1504V23.9336H570.226V21.1504H584.083ZM585.211 29.251V28.9141C585.211 27.7715 585.377 26.7119 585.709 25.7354C586.041 24.749 586.52 23.8945 587.145 23.1719C587.779 22.4395 588.551 21.873 589.459 21.4727C590.377 21.0625 591.412 20.8574 592.564 20.8574C593.727 20.8574 594.762 21.0625 595.67 21.4727C596.588 21.873 597.364 22.4395 597.999 23.1719C598.634 23.8945 599.117 24.749 599.449 25.7354C599.781 26.7119 599.947 27.7715 599.947 28.9141V29.251C599.947 30.3936 599.781 31.4531 599.449 32.4297C599.117 33.4062 598.634 34.2607 597.999 34.9932C597.364 35.7158 596.593 36.2822 595.685 36.6924C594.776 37.0928 593.746 37.293 592.594 37.293C591.432 37.293 590.392 37.0928 589.474 36.6924C588.565 36.2822 587.794 35.7158 587.159 34.9932C586.524 34.2607 586.041 33.4062 585.709 32.4297C585.377 31.4531 585.211 30.3936 585.211 29.251ZM588.741 28.9141V29.251C588.741 29.9639 588.814 30.6377 588.961 31.2725C589.107 31.9072 589.337 32.4639 589.649 32.9424C589.962 33.4209 590.362 33.7969 590.851 34.0703C591.339 34.3438 591.92 34.4805 592.594 34.4805C593.248 34.4805 593.814 34.3438 594.293 34.0703C594.781 33.7969 595.182 33.4209 595.494 32.9424C595.807 32.4639 596.036 31.9072 596.183 31.2725C596.339 30.6377 596.417 29.9639 596.417 29.251V28.9141C596.417 28.2109 596.339 27.5469 596.183 26.9219C596.036 26.2871 595.802 25.7256 595.479 25.2373C595.167 24.749 594.767 24.3682 594.278 24.0947C593.8 23.8115 593.229 23.6699 592.564 23.6699C591.9 23.6699 591.324 23.8115 590.836 24.0947C590.357 24.3682 589.962 24.749 589.649 25.2373C589.337 25.7256 589.107 26.2871 588.961 26.9219C588.814 27.5469 588.741 28.2109 588.741 28.9141ZM613.248 21.1504H616.778L616.603 26.7314C616.554 28.3525 616.368 29.7441 616.046 30.9062C615.724 32.0684 615.304 33.0498 614.786 33.8506C614.269 34.6416 613.683 35.291 613.028 35.7988C612.384 36.3066 611.705 36.707 610.992 37H609.952V34.2168L610.45 34.1875C610.87 33.7383 611.231 33.2891 611.534 32.8398C611.847 32.3809 612.11 31.8779 612.325 31.3311C612.54 30.7744 612.706 30.125 612.823 29.3828C612.95 28.6406 613.033 27.7568 613.072 26.7314L613.248 21.1504ZM614.186 21.1504H624.234V37H620.719V24.1387H614.186V21.1504ZM609.146 34.1875H626.402V41.7168H622.872V37H612.721V41.7168H609.132L609.146 34.1875ZM637.857 33.8213V26.2627C637.857 25.6963 637.755 25.208 637.55 24.7979C637.345 24.3877 637.032 24.0703 636.612 23.8457C636.202 23.6211 635.685 23.5088 635.06 23.5088C634.483 23.5088 633.985 23.6064 633.565 23.8018C633.146 23.9971 632.818 24.2607 632.584 24.5928C632.35 24.9248 632.232 25.3008 632.232 25.7207H628.717C628.717 25.0957 628.868 24.4902 629.171 23.9043C629.474 23.3184 629.913 22.7959 630.489 22.3369C631.065 21.8779 631.754 21.5166 632.555 21.2529C633.355 20.9893 634.254 20.8574 635.25 20.8574C636.441 20.8574 637.496 21.0576 638.414 21.458C639.342 21.8584 640.069 22.4639 640.597 23.2744C641.134 24.0752 641.402 25.0811 641.402 26.292V33.3379C641.402 34.0605 641.451 34.71 641.549 35.2861C641.656 35.8525 641.808 36.3457 642.003 36.7656V37H638.385C638.219 36.6191 638.087 36.1357 637.989 35.5498C637.901 34.9541 637.857 34.3779 637.857 33.8213ZM638.37 27.3613L638.399 29.5439H635.865C635.211 29.5439 634.635 29.6074 634.137 29.7344C633.639 29.8516 633.224 30.0273 632.892 30.2617C632.56 30.4961 632.311 30.7793 632.145 31.1113C631.979 31.4434 631.896 31.8193 631.896 32.2393C631.896 32.6592 631.993 33.0449 632.188 33.3965C632.384 33.7383 632.667 34.0068 633.038 34.2021C633.419 34.3975 633.878 34.4951 634.415 34.4951C635.138 34.4951 635.768 34.3486 636.305 34.0557C636.852 33.7529 637.281 33.3867 637.594 32.957C637.906 32.5176 638.072 32.1025 638.092 31.7119L639.234 33.2793C639.117 33.6797 638.917 34.1094 638.634 34.5684C638.351 35.0273 637.979 35.4668 637.521 35.8867C637.071 36.2969 636.529 36.6338 635.895 36.8975C635.27 37.1611 634.547 37.293 633.727 37.293C632.691 37.293 631.769 37.0879 630.958 36.6777C630.147 36.2578 629.513 35.6963 629.054 34.9932C628.595 34.2803 628.365 33.4746 628.365 32.5762C628.365 31.7363 628.521 30.9941 628.834 30.3496C629.156 29.6953 629.625 29.1484 630.24 28.709C630.865 28.2695 631.627 27.9375 632.525 27.7129C633.424 27.4785 634.449 27.3613 635.602 27.3613H638.37ZM652.081 37.293C650.909 37.293 649.85 37.1025 648.902 36.7217C647.965 36.3311 647.164 35.7891 646.5 35.0957C645.846 34.4023 645.343 33.5869 644.991 32.6494C644.64 31.7119 644.464 30.7012 644.464 29.6172V29.0312C644.464 27.791 644.645 26.668 645.006 25.6621C645.367 24.6562 645.87 23.7969 646.515 23.084C647.159 22.3613 647.921 21.8096 648.8 21.4287C649.679 21.0479 650.631 20.8574 651.656 20.8574C652.789 20.8574 653.78 21.0479 654.63 21.4287C655.479 21.8096 656.183 22.3467 656.739 23.04C657.306 23.7236 657.726 24.5391 657.999 25.4863C658.282 26.4336 658.424 27.4785 658.424 28.6211V30.1299H646.178V27.5957H654.938V27.3174C654.918 26.6826 654.791 26.0869 654.557 25.5303C654.332 24.9736 653.985 24.5244 653.517 24.1826C653.048 23.8408 652.423 23.6699 651.642 23.6699C651.056 23.6699 650.533 23.7969 650.074 24.0508C649.625 24.2949 649.249 24.6514 648.946 25.1201C648.644 25.5889 648.409 26.1553 648.243 26.8193C648.087 27.4736 648.009 28.2109 648.009 29.0312V29.6172C648.009 30.3105 648.102 30.9551 648.287 31.5508C648.482 32.1367 648.766 32.6494 649.137 33.0889C649.508 33.5283 649.957 33.875 650.484 34.1289C651.012 34.373 651.612 34.4951 652.286 34.4951C653.136 34.4951 653.893 34.3242 654.557 33.9824C655.221 33.6406 655.797 33.1572 656.285 32.5322L658.146 34.334C657.804 34.832 657.359 35.3105 656.812 35.7695C656.266 36.2188 655.597 36.585 654.806 36.8682C654.024 37.1514 653.116 37.293 652.081 37.293ZM646.178 16.9463C646.178 16.4678 646.344 16.0674 646.676 15.7451C647.008 15.4131 647.447 15.2471 647.994 15.2471C648.551 15.2471 648.995 15.4131 649.327 15.7451C649.659 16.0674 649.825 16.4678 649.825 16.9463C649.825 17.415 649.659 17.8154 649.327 18.1475C648.995 18.4697 648.551 18.6309 647.994 18.6309C647.447 18.6309 647.008 18.4697 646.676 18.1475C646.344 17.8154 646.178 17.415 646.178 16.9463ZM652.96 16.9609C652.96 16.4824 653.126 16.082 653.458 15.7598C653.79 15.4277 654.234 15.2617 654.791 15.2617C655.338 15.2617 655.777 15.4277 656.109 15.7598C656.451 16.082 656.622 16.4824 656.622 16.9609C656.622 17.4297 656.451 17.8301 656.109 18.1621C655.777 18.4844 655.338 18.6455 654.791 18.6455C654.234 18.6455 653.79 18.4844 653.458 18.1621C653.126 17.8301 652.96 17.4297 652.96 16.9609ZM668.355 21.1504V37H664.811V21.1504H668.355ZM673.556 21.1504V23.9336H659.698V21.1504H673.556ZM682.521 30.7158H679.254C679.264 29.8076 679.342 29.0459 679.488 28.4307C679.635 27.8057 679.879 27.2393 680.221 26.7314C680.572 26.2236 681.036 25.6865 681.612 25.1201C682.062 24.6904 682.467 24.2852 682.828 23.9043C683.189 23.5137 683.478 23.1035 683.692 22.6738C683.907 22.2344 684.015 21.7314 684.015 21.165C684.015 20.5498 683.912 20.0273 683.707 19.5977C683.502 19.168 683.199 18.8408 682.799 18.6162C682.408 18.3916 681.92 18.2793 681.334 18.2793C680.846 18.2793 680.387 18.377 679.957 18.5723C679.527 18.7578 679.181 19.0508 678.917 19.4512C678.653 19.8418 678.512 20.3594 678.492 21.0039H674.962C674.981 19.7734 675.274 18.7383 675.841 17.8984C676.407 17.0586 677.169 16.4287 678.126 16.0088C679.083 15.5889 680.152 15.3789 681.334 15.3789C682.643 15.3789 683.761 15.6035 684.688 16.0527C685.616 16.4922 686.324 17.1367 686.812 17.9863C687.311 18.8262 687.56 19.8418 687.56 21.0332C687.56 21.8926 687.389 22.6738 687.047 23.377C686.705 24.0703 686.261 24.7197 685.714 25.3252C685.167 25.9209 684.576 26.5166 683.941 27.1123C683.395 27.6104 683.023 28.1523 682.828 28.7383C682.633 29.3145 682.53 29.9736 682.521 30.7158ZM678.961 35.2861C678.961 34.7588 679.142 34.3145 679.503 33.9531C679.864 33.582 680.357 33.3965 680.982 33.3965C681.607 33.3965 682.101 33.582 682.462 33.9531C682.823 34.3145 683.004 34.7588 683.004 35.2861C683.004 35.8135 682.823 36.2627 682.462 36.6338C682.101 36.9951 681.607 37.1758 680.982 37.1758C680.357 37.1758 679.864 36.9951 679.503 36.6338C679.142 36.2627 678.961 35.8135 678.961 35.2861Z" fill="black"/>
<line x1="1" y1="52.5" x2="901" y2="52.5" stroke="black"/>
<line y1="120.5" x2="900" y2="120.5" stroke="black"/>
<path d="M255.527 75.3203C255.911 75.3203 256.257 75.2454 256.562 75.0957C256.875 74.9395 257.126 74.7246 257.314 74.4512C257.51 74.1777 257.617 73.862 257.637 73.5039H259.854C259.84 74.1875 259.639 74.8092 259.248 75.3691C258.857 75.929 258.34 76.375 257.695 76.707C257.051 77.0326 256.338 77.1953 255.557 77.1953C254.749 77.1953 254.046 77.0586 253.447 76.7852C252.848 76.5052 252.35 76.1211 251.953 75.6328C251.556 75.1445 251.257 74.5814 251.055 73.9434C250.859 73.3053 250.762 72.6217 250.762 71.8926V71.5508C250.762 70.8216 250.859 70.138 251.055 69.5C251.257 68.8555 251.556 68.2891 251.953 67.8008C252.35 67.3125 252.848 66.9316 253.447 66.6582C254.046 66.3783 254.746 66.2383 255.547 66.2383C256.393 66.2383 257.135 66.4076 257.773 66.7461C258.411 67.0781 258.913 67.5436 259.277 68.1426C259.648 68.735 259.84 69.4251 259.854 70.2129H257.637C257.617 69.8223 257.52 69.4707 257.344 69.1582C257.174 68.8392 256.934 68.5853 256.621 68.3965C256.315 68.2077 255.947 68.1133 255.518 68.1133C255.042 68.1133 254.648 68.2109 254.336 68.4062C254.023 68.5951 253.779 68.8555 253.604 69.1875C253.428 69.513 253.301 69.8809 253.223 70.291C253.151 70.6947 253.115 71.1146 253.115 71.5508V71.8926C253.115 72.3288 253.151 72.752 253.223 73.1621C253.294 73.5723 253.418 73.9401 253.594 74.2656C253.776 74.5846 254.023 74.8418 254.336 75.0371C254.648 75.2259 255.046 75.3203 255.527 75.3203ZM264.727 75.8477L267.598 66.4336H270.117L265.879 78.6113C265.781 78.8717 265.654 79.1549 265.498 79.4609C265.342 79.7669 265.137 80.0566 264.883 80.3301C264.635 80.61 264.326 80.8346 263.955 81.0039C263.584 81.1797 263.135 81.2676 262.607 81.2676C262.399 81.2676 262.197 81.248 262.002 81.209C261.813 81.1764 261.634 81.1406 261.465 81.1016L261.455 79.3047C261.52 79.3112 261.598 79.3177 261.689 79.3242C261.787 79.3307 261.865 79.334 261.924 79.334C262.314 79.334 262.64 79.2852 262.9 79.1875C263.161 79.0964 263.372 78.9466 263.535 78.7383C263.704 78.5299 263.848 78.25 263.965 77.8984L264.727 75.8477ZM263.105 66.4336L265.615 74.3438L266.035 76.8242L264.404 77.2441L260.566 66.4336H263.105ZM287.08 75.1348L286.895 80.1348H284.736V77H283.467V75.1348H287.08ZM271.475 66.4336H273.828V75.125H277.188V66.4336H279.551V75.125H282.9V66.4336H285.254V77H271.475V66.4336ZM254.053 103.125L256.768 94.4336H257.959L257.725 96.1621L254.961 105H253.799L254.053 103.125ZM252.227 94.4336L254.541 103.223L254.707 105H253.486L250.42 94.4336H252.227ZM260.557 103.154L262.764 94.4336H264.561L261.494 105H260.283L260.557 103.154ZM258.223 94.4336L260.879 102.979L261.182 105H260.029L257.188 96.1426L256.953 94.4336H258.223ZM268.379 94.4336V105H266.562V94.4336H268.379ZM266.426 91.6309C266.426 91.3379 266.514 91.0905 266.689 90.8887C266.872 90.6868 267.139 90.5859 267.49 90.5859C267.835 90.5859 268.099 90.6868 268.281 90.8887C268.47 91.0905 268.564 91.3379 268.564 91.6309C268.564 91.9108 268.47 92.1517 268.281 92.3535C268.099 92.5488 267.835 92.6465 267.49 92.6465C267.139 92.6465 266.872 92.5488 266.689 92.3535C266.514 92.1517 266.426 91.9108 266.426 91.6309ZM279.15 103.516V105H271.465V103.516H279.15ZM278.867 95.7129L271.875 105H270.771V103.672L277.715 94.4336H278.867V95.7129ZM278.066 94.4336V95.9277H270.85V94.4336H278.066ZM287.432 103.193V97.7539C287.432 97.3372 287.347 96.9759 287.178 96.6699C287.015 96.3574 286.768 96.1165 286.436 95.9473C286.104 95.778 285.693 95.6934 285.205 95.6934C284.749 95.6934 284.349 95.7715 284.004 95.9277C283.665 96.084 283.398 96.2891 283.203 96.543C283.014 96.7969 282.92 97.0703 282.92 97.3633H281.113C281.113 96.9857 281.211 96.6113 281.406 96.2402C281.602 95.8691 281.882 95.5339 282.246 95.2344C282.617 94.9284 283.06 94.6875 283.574 94.5117C284.095 94.3294 284.674 94.2383 285.312 94.2383C286.081 94.2383 286.758 94.3685 287.344 94.6289C287.936 94.8893 288.398 95.2832 288.73 95.8105C289.069 96.3314 289.238 96.9857 289.238 97.7734V102.695C289.238 103.047 289.268 103.421 289.326 103.818C289.391 104.215 289.486 104.557 289.609 104.844V105H287.725C287.633 104.792 287.562 104.515 287.51 104.17C287.458 103.818 287.432 103.493 287.432 103.193ZM287.744 98.5938L287.764 99.8633H285.938C285.423 99.8633 284.964 99.9056 284.561 99.9902C284.157 100.068 283.818 100.189 283.545 100.352C283.271 100.514 283.063 100.719 282.92 100.967C282.777 101.208 282.705 101.491 282.705 101.816C282.705 102.148 282.78 102.451 282.93 102.725C283.079 102.998 283.304 103.216 283.604 103.379C283.91 103.535 284.284 103.613 284.727 103.613C285.28 103.613 285.768 103.496 286.191 103.262C286.615 103.027 286.95 102.741 287.197 102.402C287.451 102.064 287.588 101.735 287.607 101.416L288.379 102.285C288.333 102.559 288.21 102.861 288.008 103.193C287.806 103.525 287.536 103.844 287.197 104.15C286.865 104.45 286.468 104.701 286.006 104.902C285.55 105.098 285.036 105.195 284.463 105.195C283.747 105.195 283.118 105.055 282.578 104.775C282.044 104.495 281.628 104.121 281.328 103.652C281.035 103.177 280.889 102.646 280.889 102.061C280.889 101.494 280.999 100.996 281.221 100.566C281.442 100.13 281.761 99.7689 282.178 99.4824C282.594 99.1895 283.096 98.9681 283.682 98.8184C284.268 98.6686 284.922 98.5938 285.645 98.5938H287.744ZM293.887 96.0938V105H292.08V94.4336H293.838L293.887 96.0938ZM297.188 94.375L297.178 96.0547C297.028 96.0221 296.885 96.0026 296.748 95.9961C296.618 95.9831 296.468 95.9766 296.299 95.9766C295.882 95.9766 295.514 96.0417 295.195 96.1719C294.876 96.3021 294.606 96.4844 294.385 96.7188C294.163 96.9531 293.988 97.2331 293.857 97.5586C293.734 97.8776 293.652 98.2292 293.613 98.6133L293.105 98.9062C293.105 98.2682 293.167 97.6693 293.291 97.1094C293.421 96.5495 293.62 96.0547 293.887 95.625C294.154 95.1888 294.492 94.8503 294.902 94.6094C295.319 94.362 295.814 94.2383 296.387 94.2383C296.517 94.2383 296.667 94.2546 296.836 94.2871C297.005 94.3132 297.122 94.3424 297.188 94.375ZM305.322 102.949V90H307.139V105H305.479L305.322 102.949ZM298.213 99.834V99.6289C298.213 98.8216 298.311 98.0892 298.506 97.4316C298.708 96.7676 298.991 96.1979 299.355 95.7227C299.727 95.2474 300.166 94.8828 300.674 94.6289C301.188 94.3685 301.761 94.2383 302.393 94.2383C303.057 94.2383 303.636 94.3555 304.131 94.5898C304.632 94.8177 305.055 95.153 305.4 95.5957C305.752 96.0319 306.029 96.5592 306.23 97.1777C306.432 97.7962 306.572 98.4961 306.65 99.2773V100.176C306.579 100.951 306.439 101.647 306.23 102.266C306.029 102.884 305.752 103.411 305.4 103.848C305.055 104.284 304.632 104.619 304.131 104.854C303.63 105.081 303.044 105.195 302.373 105.195C301.755 105.195 301.188 105.062 300.674 104.795C300.166 104.528 299.727 104.154 299.355 103.672C298.991 103.19 298.708 102.624 298.506 101.973C298.311 101.315 298.213 100.602 298.213 99.834ZM300.029 99.6289V99.834C300.029 100.361 300.081 100.856 300.186 101.318C300.296 101.781 300.465 102.188 300.693 102.539C300.921 102.891 301.211 103.167 301.562 103.369C301.914 103.564 302.334 103.662 302.822 103.662C303.421 103.662 303.913 103.535 304.297 103.281C304.688 103.027 305 102.692 305.234 102.275C305.469 101.859 305.651 101.406 305.781 100.918V98.5645C305.703 98.2064 305.589 97.8613 305.439 97.5293C305.296 97.1908 305.107 96.8913 304.873 96.6309C304.645 96.3639 304.362 96.1523 304.023 95.9961C303.691 95.8398 303.298 95.7617 302.842 95.7617C302.347 95.7617 301.921 95.8659 301.562 96.0742C301.211 96.276 300.921 96.556 300.693 96.9141C300.465 97.2656 300.296 97.6758 300.186 98.1445C300.081 98.6068 300.029 99.1016 300.029 99.6289ZM318.672 98.2129V99.6973H313.906V98.2129H318.672ZM330.361 100.352H326.895L326.875 98.9062H329.707C330.267 98.9062 330.732 98.8509 331.104 98.7402C331.481 98.6296 331.764 98.4635 331.953 98.2422C332.142 98.0208 332.236 97.7474 332.236 97.4219C332.236 97.168 332.181 96.9466 332.07 96.7578C331.966 96.5625 331.807 96.403 331.592 96.2793C331.377 96.1491 331.11 96.0547 330.791 95.9961C330.479 95.931 330.111 95.8984 329.688 95.8984H327.373V105H325.566V94.4336H329.688C330.358 94.4336 330.96 94.4922 331.494 94.6094C332.035 94.7266 332.493 94.9056 332.871 95.1465C333.255 95.3809 333.548 95.6803 333.75 96.0449C333.952 96.4095 334.053 96.8392 334.053 97.334C334.053 97.653 333.988 97.9557 333.857 98.2422C333.727 98.5286 333.535 98.7826 333.281 99.0039C333.027 99.2253 332.715 99.4076 332.344 99.5508C331.973 99.6875 331.546 99.7754 331.064 99.8145L330.361 100.352ZM330.361 105H326.24L327.139 103.535H330.361C330.863 103.535 331.279 103.473 331.611 103.35C331.943 103.219 332.191 103.037 332.354 102.803C332.523 102.562 332.607 102.275 332.607 101.943C332.607 101.611 332.523 101.328 332.354 101.094C332.191 100.853 331.943 100.671 331.611 100.547C331.279 100.417 330.863 100.352 330.361 100.352H327.617L327.637 98.9062H331.064L331.719 99.4531C332.298 99.4987 332.79 99.6419 333.193 99.8828C333.597 100.124 333.903 100.43 334.111 100.801C334.32 101.165 334.424 101.562 334.424 101.992C334.424 102.487 334.329 102.923 334.141 103.301C333.958 103.678 333.691 103.994 333.34 104.248C332.988 104.495 332.562 104.684 332.061 104.814C331.559 104.938 330.993 105 330.361 105ZM336.367 99.834V99.6094C336.367 98.8477 336.478 98.1413 336.699 97.4902C336.921 96.8327 337.24 96.263 337.656 95.7812C338.073 95.293 338.577 94.9154 339.17 94.6484C339.762 94.375 340.426 94.2383 341.162 94.2383C341.904 94.2383 342.572 94.375 343.164 94.6484C343.763 94.9154 344.271 95.293 344.688 95.7812C345.111 96.263 345.433 96.8327 345.654 97.4902C345.876 98.1413 345.986 98.8477 345.986 99.6094V99.834C345.986 100.596 345.876 101.302 345.654 101.953C345.433 102.604 345.111 103.174 344.688 103.662C344.271 104.144 343.766 104.521 343.174 104.795C342.588 105.062 341.924 105.195 341.182 105.195C340.439 105.195 339.772 105.062 339.18 104.795C338.587 104.521 338.079 104.144 337.656 103.662C337.24 103.174 336.921 102.604 336.699 101.953C336.478 101.302 336.367 100.596 336.367 99.834ZM338.174 99.6094V99.834C338.174 100.361 338.236 100.859 338.359 101.328C338.483 101.79 338.669 102.201 338.916 102.559C339.17 102.917 339.486 103.2 339.863 103.408C340.241 103.61 340.68 103.711 341.182 103.711C341.676 103.711 342.109 103.61 342.48 103.408C342.858 103.2 343.171 102.917 343.418 102.559C343.665 102.201 343.851 101.79 343.975 101.328C344.105 100.859 344.17 100.361 344.17 99.834V99.6094C344.17 99.0885 344.105 98.597 343.975 98.1348C343.851 97.666 343.662 97.2526 343.408 96.8945C343.161 96.5299 342.848 96.2435 342.471 96.0352C342.1 95.8268 341.663 95.7227 341.162 95.7227C340.667 95.7227 340.231 95.8268 339.854 96.0352C339.482 96.2435 339.17 96.5299 338.916 96.8945C338.669 97.2526 338.483 97.666 338.359 98.1348C338.236 98.597 338.174 99.0885 338.174 99.6094ZM355.156 94.4336V95.9277H350.049V94.4336H355.156ZM356.748 94.4336V105H354.941V94.4336H356.748ZM349.609 94.4336H351.426L351.152 99.5312C351.107 100.319 351.032 101.016 350.928 101.621C350.83 102.22 350.693 102.734 350.518 103.164C350.348 103.594 350.133 103.945 349.873 104.219C349.619 104.486 349.313 104.684 348.955 104.814C348.597 104.938 348.184 105 347.715 105H347.148V103.408L347.539 103.379C347.819 103.359 348.057 103.294 348.252 103.184C348.454 103.073 348.623 102.91 348.76 102.695C348.896 102.474 349.007 102.191 349.092 101.846C349.183 101.501 349.251 101.09 349.297 100.615C349.349 100.14 349.388 99.5866 349.414 98.9551L349.609 94.4336ZM359.814 94.4336H361.621V103.516H365.488V94.4336H367.305V103.516H371.162V94.4336H372.969V105H359.814V94.4336ZM380.234 105.195C379.499 105.195 378.831 105.072 378.232 104.824C377.64 104.57 377.129 104.215 376.699 103.76C376.276 103.304 375.951 102.764 375.723 102.139C375.495 101.514 375.381 100.83 375.381 100.088V99.6777C375.381 98.8184 375.508 98.0534 375.762 97.3828C376.016 96.7057 376.361 96.1328 376.797 95.6641C377.233 95.1953 377.728 94.8405 378.281 94.5996C378.835 94.3587 379.408 94.2383 380 94.2383C380.755 94.2383 381.406 94.3685 381.953 94.6289C382.507 94.8893 382.959 95.2539 383.311 95.7227C383.662 96.1849 383.923 96.7318 384.092 97.3633C384.261 97.9883 384.346 98.6719 384.346 99.4141V100.225H376.455V98.75H382.539V98.6133C382.513 98.1445 382.415 97.6888 382.246 97.2461C382.083 96.8034 381.823 96.4388 381.465 96.1523C381.107 95.8659 380.618 95.7227 380 95.7227C379.59 95.7227 379.212 95.8105 378.867 95.9863C378.522 96.1556 378.226 96.4095 377.979 96.748C377.731 97.0866 377.539 97.5 377.402 97.9883C377.266 98.4766 377.197 99.0397 377.197 99.6777V100.088C377.197 100.589 377.266 101.061 377.402 101.504C377.546 101.94 377.751 102.324 378.018 102.656C378.291 102.988 378.62 103.249 379.004 103.438C379.395 103.626 379.837 103.721 380.332 103.721C380.97 103.721 381.51 103.59 381.953 103.33C382.396 103.07 382.783 102.721 383.115 102.285L384.209 103.154C383.981 103.499 383.691 103.828 383.34 104.141C382.988 104.453 382.555 104.707 382.041 104.902C381.533 105.098 380.931 105.195 380.234 105.195ZM393.232 89.834H394.717C394.717 90.472 394.619 90.9798 394.424 91.3574C394.229 91.7285 393.962 92.015 393.623 92.2168C393.291 92.4186 392.913 92.5716 392.49 92.6758C392.074 92.7799 391.641 92.8809 391.191 92.9785C390.632 93.0957 390.111 93.2812 389.629 93.5352C389.154 93.7826 388.743 94.1341 388.398 94.5898C388.06 95.0456 387.809 95.638 387.646 96.3672C387.49 97.0964 387.448 97.998 387.52 99.0723V99.9707H386.035V99.0723C386.035 97.8678 386.149 96.8164 386.377 95.918C386.611 95.0195 386.94 94.2611 387.363 93.6426C387.786 93.0241 388.288 92.5326 388.867 92.168C389.453 91.8034 390.098 91.5527 390.801 91.416C391.309 91.3184 391.745 91.2142 392.109 91.1035C392.474 90.9863 392.751 90.8301 392.939 90.6348C393.135 90.4395 393.232 90.1725 393.232 89.834ZM391.094 95.0391C391.784 95.0391 392.399 95.1595 392.939 95.4004C393.48 95.6413 393.939 95.9766 394.316 96.4062C394.694 96.8359 394.98 97.3438 395.176 97.9297C395.378 98.5091 395.479 99.1406 395.479 99.8242V100.039C395.479 100.775 395.371 101.458 395.156 102.09C394.948 102.715 394.639 103.262 394.229 103.73C393.825 104.193 393.33 104.554 392.744 104.814C392.165 105.075 391.504 105.205 390.762 105.205C390.02 105.205 389.355 105.075 388.77 104.814C388.19 104.554 387.695 104.193 387.285 103.73C386.875 103.262 386.562 102.715 386.348 102.09C386.139 101.458 386.035 100.775 386.035 100.039V99.8242C386.035 99.6615 386.064 99.502 386.123 99.3457C386.182 99.1895 386.253 99.0299 386.338 98.8672C386.429 98.7044 386.51 98.5319 386.582 98.3496C386.823 97.7637 387.152 97.2201 387.568 96.7188C387.992 96.2174 388.496 95.8138 389.082 95.5078C389.674 95.1953 390.345 95.0391 391.094 95.0391ZM390.742 96.5137C390.078 96.5137 389.531 96.6667 389.102 96.9727C388.678 97.2786 388.363 97.6855 388.154 98.1934C387.946 98.6947 387.842 99.2383 387.842 99.8242V100.039C387.842 100.534 387.9 101.003 388.018 101.445C388.135 101.888 388.311 102.282 388.545 102.627C388.786 102.965 389.089 103.232 389.453 103.428C389.824 103.623 390.26 103.721 390.762 103.721C391.263 103.721 391.696 103.623 392.061 103.428C392.425 103.232 392.725 102.965 392.959 102.627C393.193 102.282 393.369 101.888 393.486 101.445C393.604 101.003 393.662 100.534 393.662 100.039V99.8242C393.662 99.3815 393.604 98.9616 393.486 98.5645C393.369 98.1673 393.19 97.8158 392.949 97.5098C392.715 97.2038 392.412 96.9629 392.041 96.7871C391.676 96.6048 391.243 96.5137 390.742 96.5137ZM404.521 99.0137V100.479H398.936V99.0137H404.521ZM399.316 94.4336V105H397.51V94.4336H399.316ZM405.986 94.4336V105H404.17V94.4336H405.986ZM410.85 102.139L415.723 94.4336H417.539V105H415.723V97.2949L410.85 105H409.053V94.4336H410.85V102.139ZM422.402 94.4336V105H420.596V94.4336H422.402ZM429.336 94.4336L424.326 100.488H421.797L421.523 98.9062H423.594L427.139 94.4336H429.336ZM427.393 105L423.506 100.215L424.668 98.9062L429.688 105H427.393Z" fill="black"/>
<path d="M554.527 75.3203C554.911 75.3203 555.257 75.2454 555.562 75.0957C555.875 74.9395 556.126 74.7246 556.314 74.4512C556.51 74.1777 556.617 73.862 556.637 73.5039H558.854C558.84 74.1875 558.639 74.8092 558.248 75.3691C557.857 75.929 557.34 76.375 556.695 76.707C556.051 77.0326 555.338 77.1953 554.557 77.1953C553.749 77.1953 553.046 77.0586 552.447 76.7852C551.848 76.5052 551.35 76.1211 550.953 75.6328C550.556 75.1445 550.257 74.5814 550.055 73.9434C549.859 73.3053 549.762 72.6217 549.762 71.8926V71.5508C549.762 70.8216 549.859 70.138 550.055 69.5C550.257 68.8555 550.556 68.2891 550.953 67.8008C551.35 67.3125 551.848 66.9316 552.447 66.6582C553.046 66.3783 553.746 66.2383 554.547 66.2383C555.393 66.2383 556.135 66.4076 556.773 66.7461C557.411 67.0781 557.913 67.5436 558.277 68.1426C558.648 68.735 558.84 69.4251 558.854 70.2129H556.637C556.617 69.8223 556.52 69.4707 556.344 69.1582C556.174 68.8392 555.934 68.5853 555.621 68.3965C555.315 68.2077 554.947 68.1133 554.518 68.1133C554.042 68.1133 553.648 68.2109 553.336 68.4062C553.023 68.5951 552.779 68.8555 552.604 69.1875C552.428 69.513 552.301 69.8809 552.223 70.291C552.151 70.6947 552.115 71.1146 552.115 71.5508V71.8926C552.115 72.3288 552.151 72.752 552.223 73.1621C552.294 73.5723 552.418 73.9401 552.594 74.2656C552.776 74.5846 553.023 74.8418 553.336 75.0371C553.648 75.2259 554.046 75.3203 554.527 75.3203ZM563.727 75.8477L566.598 66.4336H569.117L564.879 78.6113C564.781 78.8717 564.654 79.1549 564.498 79.4609C564.342 79.7669 564.137 80.0566 563.883 80.3301C563.635 80.61 563.326 80.8346 562.955 81.0039C562.584 81.1797 562.135 81.2676 561.607 81.2676C561.399 81.2676 561.197 81.248 561.002 81.209C560.813 81.1764 560.634 81.1406 560.465 81.1016L560.455 79.3047C560.52 79.3112 560.598 79.3177 560.689 79.3242C560.787 79.3307 560.865 79.334 560.924 79.334C561.314 79.334 561.64 79.2852 561.9 79.1875C562.161 79.0964 562.372 78.9466 562.535 78.7383C562.704 78.5299 562.848 78.25 562.965 77.8984L563.727 75.8477ZM562.105 66.4336L564.615 74.3438L565.035 76.8242L563.404 77.2441L559.566 66.4336H562.105ZM586.08 75.1348L585.895 80.1348H583.736V77H582.467V75.1348H586.08ZM570.475 66.4336H572.828V75.125H576.188V66.4336H578.551V75.125H581.9V66.4336H584.254V77H570.475V66.4336ZM553.053 103.125L555.768 94.4336H556.959L556.725 96.1621L553.961 105H552.799L553.053 103.125ZM551.227 94.4336L553.541 103.223L553.707 105H552.486L549.42 94.4336H551.227ZM559.557 103.154L561.764 94.4336H563.561L560.494 105H559.283L559.557 103.154ZM557.223 94.4336L559.879 102.979L560.182 105H559.029L556.188 96.1426L555.953 94.4336H557.223ZM567.379 94.4336V105H565.562V94.4336H567.379ZM565.426 91.6309C565.426 91.3379 565.514 91.0905 565.689 90.8887C565.872 90.6868 566.139 90.5859 566.49 90.5859C566.835 90.5859 567.099 90.6868 567.281 90.8887C567.47 91.0905 567.564 91.3379 567.564 91.6309C567.564 91.9108 567.47 92.1517 567.281 92.3535C567.099 92.5488 566.835 92.6465 566.49 92.6465C566.139 92.6465 565.872 92.5488 565.689 92.3535C565.514 92.1517 565.426 91.9108 565.426 91.6309ZM578.15 103.516V105H570.465V103.516H578.15ZM577.867 95.7129L570.875 105H569.771V103.672L576.715 94.4336H577.867V95.7129ZM577.066 94.4336V95.9277H569.85V94.4336H577.066ZM586.432 103.193V97.7539C586.432 97.3372 586.347 96.9759 586.178 96.6699C586.015 96.3574 585.768 96.1165 585.436 95.9473C585.104 95.778 584.693 95.6934 584.205 95.6934C583.749 95.6934 583.349 95.7715 583.004 95.9277C582.665 96.084 582.398 96.2891 582.203 96.543C582.014 96.7969 581.92 97.0703 581.92 97.3633H580.113C580.113 96.9857 580.211 96.6113 580.406 96.2402C580.602 95.8691 580.882 95.5339 581.246 95.2344C581.617 94.9284 582.06 94.6875 582.574 94.5117C583.095 94.3294 583.674 94.2383 584.312 94.2383C585.081 94.2383 585.758 94.3685 586.344 94.6289C586.936 94.8893 587.398 95.2832 587.73 95.8105C588.069 96.3314 588.238 96.9857 588.238 97.7734V102.695C588.238 103.047 588.268 103.421 588.326 103.818C588.391 104.215 588.486 104.557 588.609 104.844V105H586.725C586.633 104.792 586.562 104.515 586.51 104.17C586.458 103.818 586.432 103.493 586.432 103.193ZM586.744 98.5938L586.764 99.8633H584.938C584.423 99.8633 583.964 99.9056 583.561 99.9902C583.157 100.068 582.818 100.189 582.545 100.352C582.271 100.514 582.063 100.719 581.92 100.967C581.777 101.208 581.705 101.491 581.705 101.816C581.705 102.148 581.78 102.451 581.93 102.725C582.079 102.998 582.304 103.216 582.604 103.379C582.91 103.535 583.284 103.613 583.727 103.613C584.28 103.613 584.768 103.496 585.191 103.262C585.615 103.027 585.95 102.741 586.197 102.402C586.451 102.064 586.588 101.735 586.607 101.416L587.379 102.285C587.333 102.559 587.21 102.861 587.008 103.193C586.806 103.525 586.536 103.844 586.197 104.15C585.865 104.45 585.468 104.701 585.006 104.902C584.55 105.098 584.036 105.195 583.463 105.195C582.747 105.195 582.118 105.055 581.578 104.775C581.044 104.495 580.628 104.121 580.328 103.652C580.035 103.177 579.889 102.646 579.889 102.061C579.889 101.494 579.999 100.996 580.221 100.566C580.442 100.13 580.761 99.7689 581.178 99.4824C581.594 99.1895 582.096 98.9681 582.682 98.8184C583.268 98.6686 583.922 98.5938 584.645 98.5938H586.744ZM592.887 96.0938V105H591.08V94.4336H592.838L592.887 96.0938ZM596.188 94.375L596.178 96.0547C596.028 96.0221 595.885 96.0026 595.748 95.9961C595.618 95.9831 595.468 95.9766 595.299 95.9766C594.882 95.9766 594.514 96.0417 594.195 96.1719C593.876 96.3021 593.606 96.4844 593.385 96.7188C593.163 96.9531 592.988 97.2331 592.857 97.5586C592.734 97.8776 592.652 98.2292 592.613 98.6133L592.105 98.9062C592.105 98.2682 592.167 97.6693 592.291 97.1094C592.421 96.5495 592.62 96.0547 592.887 95.625C593.154 95.1888 593.492 94.8503 593.902 94.6094C594.319 94.362 594.814 94.2383 595.387 94.2383C595.517 94.2383 595.667 94.2546 595.836 94.2871C596.005 94.3132 596.122 94.3424 596.188 94.375ZM604.322 102.949V90H606.139V105H604.479L604.322 102.949ZM597.213 99.834V99.6289C597.213 98.8216 597.311 98.0892 597.506 97.4316C597.708 96.7676 597.991 96.1979 598.355 95.7227C598.727 95.2474 599.166 94.8828 599.674 94.6289C600.188 94.3685 600.761 94.2383 601.393 94.2383C602.057 94.2383 602.636 94.3555 603.131 94.5898C603.632 94.8177 604.055 95.153 604.4 95.5957C604.752 96.0319 605.029 96.5592 605.23 97.1777C605.432 97.7962 605.572 98.4961 605.65 99.2773V100.176C605.579 100.951 605.439 101.647 605.23 102.266C605.029 102.884 604.752 103.411 604.4 103.848C604.055 104.284 603.632 104.619 603.131 104.854C602.63 105.081 602.044 105.195 601.373 105.195C600.755 105.195 600.188 105.062 599.674 104.795C599.166 104.528 598.727 104.154 598.355 103.672C597.991 103.19 597.708 102.624 597.506 101.973C597.311 101.315 597.213 100.602 597.213 99.834ZM599.029 99.6289V99.834C599.029 100.361 599.081 100.856 599.186 101.318C599.296 101.781 599.465 102.188 599.693 102.539C599.921 102.891 600.211 103.167 600.562 103.369C600.914 103.564 601.334 103.662 601.822 103.662C602.421 103.662 602.913 103.535 603.297 103.281C603.688 103.027 604 102.692 604.234 102.275C604.469 101.859 604.651 101.406 604.781 100.918V98.5645C604.703 98.2064 604.589 97.8613 604.439 97.5293C604.296 97.1908 604.107 96.8913 603.873 96.6309C603.645 96.3639 603.362 96.1523 603.023 95.9961C602.691 95.8398 602.298 95.7617 601.842 95.7617C601.347 95.7617 600.921 95.8659 600.562 96.0742C600.211 96.276 599.921 96.556 599.693 96.9141C599.465 97.2656 599.296 97.6758 599.186 98.1445C599.081 98.6068 599.029 99.1016 599.029 99.6289ZM612.682 88.75V90.2344H610.816V106.562H612.682V108.047H609.01V88.75H612.682ZM616.07 96.0938V105H614.264V94.4336H616.021L616.07 96.0938ZM619.371 94.375L619.361 96.0547C619.212 96.0221 619.068 96.0026 618.932 95.9961C618.801 95.9831 618.652 95.9766 618.482 95.9766C618.066 95.9766 617.698 96.0417 617.379 96.1719C617.06 96.3021 616.79 96.4844 616.568 96.7188C616.347 96.9531 616.171 97.2331 616.041 97.5586C615.917 97.8776 615.836 98.2292 615.797 98.6133L615.289 98.9062C615.289 98.2682 615.351 97.6693 615.475 97.1094C615.605 96.5495 615.803 96.0547 616.07 95.625C616.337 95.1888 616.676 94.8503 617.086 94.6094C617.503 94.362 617.997 94.2383 618.57 94.2383C618.701 94.2383 618.85 94.2546 619.02 94.2871C619.189 94.3132 619.306 94.3424 619.371 94.375ZM624.186 103.906L627.125 94.4336H629.059L624.82 106.631C624.723 106.891 624.592 107.171 624.43 107.471C624.273 107.777 624.072 108.066 623.824 108.34C623.577 108.613 623.277 108.835 622.926 109.004C622.581 109.18 622.167 109.268 621.686 109.268C621.542 109.268 621.36 109.248 621.139 109.209C620.917 109.17 620.761 109.137 620.67 109.111L620.66 107.646C620.712 107.653 620.794 107.66 620.904 107.666C621.021 107.679 621.103 107.686 621.148 107.686C621.559 107.686 621.907 107.63 622.193 107.52C622.48 107.415 622.721 107.236 622.916 106.982C623.118 106.735 623.29 106.393 623.434 105.957L624.186 103.906ZM622.027 94.4336L624.771 102.637L625.24 104.541L623.941 105.205L620.055 94.4336H622.027ZM629.41 90.2344V88.75H633.102V108.047H629.41V106.562H631.285V90.2344H629.41ZM644.723 98.2129V99.6973H639.957V98.2129H644.723ZM653.414 94.4336V105H651.607V94.4336H653.414ZM660.348 94.4336L655.338 100.488H652.809L652.535 98.9062H654.605L658.15 94.4336H660.348ZM658.404 105L654.518 100.215L655.68 98.9062L660.699 105H658.404ZM661.578 99.834V99.6094C661.578 98.8477 661.689 98.1413 661.91 97.4902C662.132 96.8327 662.451 96.263 662.867 95.7812C663.284 95.293 663.788 94.9154 664.381 94.6484C664.973 94.375 665.637 94.2383 666.373 94.2383C667.115 94.2383 667.783 94.375 668.375 94.6484C668.974 94.9154 669.482 95.293 669.898 95.7812C670.322 96.263 670.644 96.8327 670.865 97.4902C671.087 98.1413 671.197 98.8477 671.197 99.6094V99.834C671.197 100.596 671.087 101.302 670.865 101.953C670.644 102.604 670.322 103.174 669.898 103.662C669.482 104.144 668.977 104.521 668.385 104.795C667.799 105.062 667.135 105.195 666.393 105.195C665.65 105.195 664.983 105.062 664.391 104.795C663.798 104.521 663.29 104.144 662.867 103.662C662.451 103.174 662.132 102.604 661.91 101.953C661.689 101.302 661.578 100.596 661.578 99.834ZM663.385 99.6094V99.834C663.385 100.361 663.447 100.859 663.57 101.328C663.694 101.79 663.88 102.201 664.127 102.559C664.381 102.917 664.697 103.2 665.074 103.408C665.452 103.61 665.891 103.711 666.393 103.711C666.887 103.711 667.32 103.61 667.691 103.408C668.069 103.2 668.382 102.917 668.629 102.559C668.876 102.201 669.062 101.79 669.186 101.328C669.316 100.859 669.381 100.361 669.381 99.834V99.6094C669.381 99.0885 669.316 98.597 669.186 98.1348C669.062 97.666 668.873 97.2526 668.619 96.8945C668.372 96.5299 668.059 96.2435 667.682 96.0352C667.311 95.8268 666.874 95.7227 666.373 95.7227C665.878 95.7227 665.442 95.8268 665.064 96.0352C664.693 96.2435 664.381 96.5299 664.127 96.8945C663.88 97.2526 663.694 97.666 663.57 98.1348C663.447 98.597 663.385 99.0885 663.385 99.6094ZM680.367 94.4336V95.9277H675.26V94.4336H680.367ZM681.959 94.4336V105H680.152V94.4336H681.959ZM674.82 94.4336H676.637L676.363 99.5312C676.318 100.319 676.243 101.016 676.139 101.621C676.041 102.22 675.904 102.734 675.729 103.164C675.559 103.594 675.344 103.945 675.084 104.219C674.83 104.486 674.524 104.684 674.166 104.814C673.808 104.938 673.395 105 672.926 105H672.359V103.408L672.75 103.379C673.03 103.359 673.268 103.294 673.463 103.184C673.665 103.073 673.834 102.91 673.971 102.695C674.107 102.474 674.218 102.191 674.303 101.846C674.394 101.501 674.462 101.09 674.508 100.615C674.56 100.14 674.599 99.5866 674.625 98.9551L674.82 94.4336ZM686.773 94.4336H688.58L688.424 98.3887C688.385 99.3913 688.271 100.257 688.082 100.986C687.893 101.715 687.652 102.337 687.359 102.852C687.066 103.359 686.738 103.786 686.373 104.131C686.015 104.476 685.644 104.766 685.26 105H684.361L684.41 103.525L684.781 103.516C684.996 103.262 685.204 103.001 685.406 102.734C685.608 102.461 685.794 102.139 685.963 101.768C686.132 101.39 686.272 100.931 686.383 100.391C686.5 99.8438 686.575 99.1764 686.607 98.3887L686.773 94.4336ZM687.223 94.4336H693.58V105H691.773V96.1035H687.223V94.4336ZM683.951 103.516H694.938V108.115H693.131V105H685.758V108.115H683.941L683.951 103.516ZM696.461 99.834V99.6094C696.461 98.8477 696.572 98.1413 696.793 97.4902C697.014 96.8327 697.333 96.263 697.75 95.7812C698.167 95.293 698.671 94.9154 699.264 94.6484C699.856 94.375 700.52 94.2383 701.256 94.2383C701.998 94.2383 702.665 94.375 703.258 94.6484C703.857 94.9154 704.365 95.293 704.781 95.7812C705.204 96.263 705.527 96.8327 705.748 97.4902C705.969 98.1413 706.08 98.8477 706.08 99.6094V99.834C706.08 100.596 705.969 101.302 705.748 101.953C705.527 102.604 705.204 103.174 704.781 103.662C704.365 104.144 703.86 104.521 703.268 104.795C702.682 105.062 702.018 105.195 701.275 105.195C700.533 105.195 699.866 105.062 699.273 104.795C698.681 104.521 698.173 104.144 697.75 103.662C697.333 103.174 697.014 102.604 696.793 101.953C696.572 101.302 696.461 100.596 696.461 99.834ZM698.268 99.6094V99.834C698.268 100.361 698.329 100.859 698.453 101.328C698.577 101.79 698.762 102.201 699.01 102.559C699.264 102.917 699.579 103.2 699.957 103.408C700.335 103.61 700.774 103.711 701.275 103.711C701.77 103.711 702.203 103.61 702.574 103.408C702.952 103.2 703.264 102.917 703.512 102.559C703.759 102.201 703.945 101.79 704.068 101.328C704.199 100.859 704.264 100.361 704.264 99.834V99.6094C704.264 99.0885 704.199 98.597 704.068 98.1348C703.945 97.666 703.756 97.2526 703.502 96.8945C703.255 96.5299 702.942 96.2435 702.564 96.0352C702.193 95.8268 701.757 95.7227 701.256 95.7227C700.761 95.7227 700.325 95.8268 699.947 96.0352C699.576 96.2435 699.264 96.5299 699.01 96.8945C698.762 97.2526 698.577 97.666 698.453 98.1348C698.329 98.597 698.268 99.0885 698.268 99.6094ZM713.307 100.352H709.84L709.82 98.9062H712.652C713.212 98.9062 713.678 98.8509 714.049 98.7402C714.426 98.6296 714.71 98.4635 714.898 98.2422C715.087 98.0208 715.182 97.7474 715.182 97.4219C715.182 97.168 715.126 96.9466 715.016 96.7578C714.911 96.5625 714.752 96.403 714.537 96.2793C714.322 96.1491 714.055 96.0547 713.736 95.9961C713.424 95.931 713.056 95.8984 712.633 95.8984H710.318V105H708.512V94.4336H712.633C713.303 94.4336 713.906 94.4922 714.439 94.6094C714.98 94.7266 715.439 94.9056 715.816 95.1465C716.201 95.3809 716.493 95.6803 716.695 96.0449C716.897 96.4095 716.998 96.8392 716.998 97.334C716.998 97.653 716.933 97.9557 716.803 98.2422C716.673 98.5286 716.48 98.7826 716.227 99.0039C715.973 99.2253 715.66 99.4076 715.289 99.5508C714.918 99.6875 714.492 99.7754 714.01 99.8145L713.307 100.352ZM713.307 105H709.186L710.084 103.535H713.307C713.808 103.535 714.225 103.473 714.557 103.35C714.889 103.219 715.136 103.037 715.299 102.803C715.468 102.562 715.553 102.275 715.553 101.943C715.553 101.611 715.468 101.328 715.299 101.094C715.136 100.853 714.889 100.671 714.557 100.547C714.225 100.417 713.808 100.352 713.307 100.352H710.562L710.582 98.9062H714.01L714.664 99.4531C715.243 99.4987 715.735 99.6419 716.139 99.8828C716.542 100.124 716.848 100.43 717.057 100.801C717.265 101.165 717.369 101.562 717.369 101.992C717.369 102.487 717.275 102.923 717.086 103.301C716.904 103.678 716.637 103.994 716.285 104.248C715.934 104.495 715.507 104.684 715.006 104.814C714.505 104.938 713.938 105 713.307 105ZM724.02 103.711C724.449 103.711 724.846 103.623 725.211 103.447C725.576 103.271 725.875 103.031 726.109 102.725C726.344 102.412 726.477 102.057 726.51 101.66H728.229C728.196 102.285 727.984 102.868 727.594 103.408C727.21 103.942 726.705 104.375 726.08 104.707C725.455 105.033 724.768 105.195 724.02 105.195C723.225 105.195 722.532 105.055 721.939 104.775C721.354 104.495 720.865 104.111 720.475 103.623C720.09 103.135 719.801 102.575 719.605 101.943C719.417 101.305 719.322 100.632 719.322 99.9219V99.5117C719.322 98.8021 719.417 98.1315 719.605 97.5C719.801 96.862 720.09 96.2988 720.475 95.8105C720.865 95.3223 721.354 94.9382 721.939 94.6582C722.532 94.3783 723.225 94.2383 724.02 94.2383C724.846 94.2383 725.569 94.4076 726.188 94.7461C726.806 95.0781 727.291 95.5339 727.643 96.1133C728.001 96.6862 728.196 97.3372 728.229 98.0664H726.51C726.477 97.6302 726.354 97.2363 726.139 96.8848C725.93 96.5332 725.644 96.2533 725.279 96.0449C724.921 95.8301 724.501 95.7227 724.02 95.7227C723.466 95.7227 723.001 95.8333 722.623 96.0547C722.252 96.2695 721.956 96.5625 721.734 96.9336C721.52 97.2982 721.363 97.7051 721.266 98.1543C721.174 98.597 721.129 99.0495 721.129 99.5117V99.9219C721.129 100.384 721.174 100.84 721.266 101.289C721.357 101.738 721.51 102.145 721.725 102.51C721.946 102.874 722.242 103.167 722.613 103.389C722.991 103.604 723.46 103.711 724.02 103.711ZM734.566 94.4336V105H732.75V94.4336H734.566ZM738.111 94.4336V95.8984H729.273V94.4336H738.111ZM744.85 100.352H741.383L741.363 98.9062H744.195C744.755 98.9062 745.221 98.8509 745.592 98.7402C745.969 98.6296 746.253 98.4635 746.441 98.2422C746.63 98.0208 746.725 97.7474 746.725 97.4219C746.725 97.168 746.669 96.9466 746.559 96.7578C746.454 96.5625 746.295 96.403 746.08 96.2793C745.865 96.1491 745.598 96.0547 745.279 95.9961C744.967 95.931 744.599 95.8984 744.176 95.8984H741.861V105H740.055V94.4336H744.176C744.846 94.4336 745.449 94.4922 745.982 94.6094C746.523 94.7266 746.982 94.9056 747.359 95.1465C747.743 95.3809 748.036 95.6803 748.238 96.0449C748.44 96.4095 748.541 96.8392 748.541 97.334C748.541 97.653 748.476 97.9557 748.346 98.2422C748.215 98.5286 748.023 98.7826 747.77 99.0039C747.516 99.2253 747.203 99.4076 746.832 99.5508C746.461 99.6875 746.035 99.7754 745.553 99.8145L744.85 100.352ZM744.85 105H740.729L741.627 103.535H744.85C745.351 103.535 745.768 103.473 746.1 103.35C746.432 103.219 746.679 103.037 746.842 102.803C747.011 102.562 747.096 102.275 747.096 101.943C747.096 101.611 747.011 101.328 746.842 101.094C746.679 100.853 746.432 100.671 746.1 100.547C745.768 100.417 745.351 100.352 744.85 100.352H742.105L742.125 98.9062H745.553L746.207 99.4531C746.786 99.4987 747.278 99.6419 747.682 99.8828C748.085 100.124 748.391 100.43 748.6 100.801C748.808 101.165 748.912 101.562 748.912 101.992C748.912 102.487 748.818 102.923 748.629 103.301C748.447 103.678 748.18 103.994 747.828 104.248C747.477 104.495 747.05 104.684 746.549 104.814C746.048 104.938 745.481 105 744.85 105ZM750.855 99.834V99.6094C750.855 98.8477 750.966 98.1413 751.188 97.4902C751.409 96.8327 751.728 96.263 752.145 95.7812C752.561 95.293 753.066 94.9154 753.658 94.6484C754.251 94.375 754.915 94.2383 755.65 94.2383C756.393 94.2383 757.06 94.375 757.652 94.6484C758.251 94.9154 758.759 95.293 759.176 95.7812C759.599 96.263 759.921 96.8327 760.143 97.4902C760.364 98.1413 760.475 98.8477 760.475 99.6094V99.834C760.475 100.596 760.364 101.302 760.143 101.953C759.921 102.604 759.599 103.174 759.176 103.662C758.759 104.144 758.255 104.521 757.662 104.795C757.076 105.062 756.412 105.195 755.67 105.195C754.928 105.195 754.26 105.062 753.668 104.795C753.076 104.521 752.568 104.144 752.145 103.662C751.728 103.174 751.409 102.604 751.188 101.953C750.966 101.302 750.855 100.596 750.855 99.834ZM752.662 99.6094V99.834C752.662 100.361 752.724 100.859 752.848 101.328C752.971 101.79 753.157 102.201 753.404 102.559C753.658 102.917 753.974 103.2 754.352 103.408C754.729 103.61 755.169 103.711 755.67 103.711C756.165 103.711 756.598 103.61 756.969 103.408C757.346 103.2 757.659 102.917 757.906 102.559C758.154 102.201 758.339 101.79 758.463 101.328C758.593 100.859 758.658 100.361 758.658 99.834V99.6094C758.658 99.0885 758.593 98.597 758.463 98.1348C758.339 97.666 758.15 97.2526 757.896 96.8945C757.649 96.5299 757.337 96.2435 756.959 96.0352C756.588 95.8268 756.152 95.7227 755.65 95.7227C755.156 95.7227 754.719 95.8268 754.342 96.0352C753.971 96.2435 753.658 96.5299 753.404 96.8945C753.157 97.2526 752.971 97.666 752.848 98.1348C752.724 98.597 752.662 99.0885 752.662 99.6094Z" fill="black"/>
<path d="M38.1836 82.3623V86.0708H21.1279V82.3623H38.1836ZM31.6553 75.3896V93.5049H27.6733V75.3896H31.6553ZM54.4189 81.0293V96H50.3003V77.5088H54.231L54.4189 81.0293ZM60.0757 77.3892L60.0415 81.2173C59.7909 81.1717 59.5174 81.1375 59.2212 81.1147C58.9364 81.092 58.6515 81.0806 58.3667 81.0806C57.6603 81.0806 57.0394 81.1831 56.5039 81.3882C55.9684 81.5819 55.5184 81.8667 55.1538 82.2427C54.8006 82.6073 54.5272 83.0516 54.3335 83.5757C54.1398 84.0998 54.0259 84.6865 53.9917 85.3359L53.0518 85.4043C53.0518 84.2422 53.1657 83.1655 53.3936 82.1743C53.6214 81.1831 53.9632 80.3115 54.4189 79.5596C54.8861 78.8076 55.4671 78.2209 56.1621 77.7993C56.8685 77.3778 57.6831 77.167 58.606 77.167C58.8566 77.167 59.1243 77.1898 59.4092 77.2354C59.7054 77.2809 59.9276 77.3322 60.0757 77.3892ZM68.3301 93.9834L73.3545 77.5088H77.7637L70.3467 98.8198C70.1758 99.2756 69.9536 99.7712 69.6802 100.307C69.4067 100.842 69.0479 101.349 68.6035 101.828C68.1706 102.318 67.6294 102.711 66.98 103.007C66.3306 103.314 65.5444 103.468 64.6216 103.468C64.257 103.468 63.9038 103.434 63.562 103.366C63.2316 103.309 62.9183 103.246 62.6221 103.178L62.605 100.033C62.7189 100.045 62.8556 100.056 63.0151 100.067C63.186 100.079 63.3228 100.084 63.4253 100.084C64.1089 100.084 64.6785 99.999 65.1343 99.8281C65.59 99.6686 65.9603 99.4066 66.2451 99.042C66.5413 98.6774 66.792 98.1875 66.9971 97.5723L68.3301 93.9834ZM65.4932 77.5088L69.8853 91.3516L70.6201 95.6924L67.7661 96.4272L61.0498 77.5088H65.4932Z" fill="black"/>
</g>
<defs>
<clipPath id="clip0_2716_1141">
<rect width="900" height="121" fill="white"/>
</clipPath>
</defs>
</svg>
