<svg width="900" height="158" viewBox="0 0 900 158" fill="none" xmlns="http://www.w3.org/2000/svg">
<g clip-path="url(#clip0_2713_648)">
<rect width="900" height="158" fill="white"/>
<line y1="0.5" x2="900" y2="0.5" stroke="black"/>
<line y1="157.5" x2="900" y2="157.5" stroke="black"/>
<line x1="0.5" x2="0.5" y2="158" stroke="black"/>
<line x1="899.5" x2="899.5" y2="158" stroke="black"/>
<path d="M39.1748 25.75V26.9219C39.1748 28.5332 38.9648 29.9785 38.5449 31.2578C38.125 32.5371 37.5244 33.626 36.7432 34.5244C35.9717 35.4229 35.0439 36.1113 33.96 36.5898C32.876 37.0586 31.6748 37.293 30.3564 37.293C29.0479 37.293 27.8516 37.0586 26.7676 36.5898C25.6934 36.1113 24.7607 35.4229 23.9697 34.5244C23.1787 33.626 22.5635 32.5371 22.124 31.2578C21.6943 29.9785 21.4795 28.5332 21.4795 26.9219V25.75C21.4795 24.1387 21.6943 22.6982 22.124 21.4287C22.5537 20.1494 23.1592 19.0605 23.9404 18.1621C24.7314 17.2539 25.6641 16.5654 26.7383 16.0967C27.8223 15.6182 29.0186 15.3789 30.3271 15.3789C31.6455 15.3789 32.8467 15.6182 33.9307 16.0967C35.0146 16.5654 35.9473 17.2539 36.7285 18.1621C37.5098 19.0605 38.1104 20.1494 38.5303 21.4287C38.96 22.6982 39.1748 24.1387 39.1748 25.75ZM35.498 26.9219V25.7207C35.498 24.5293 35.3809 23.4795 35.1465 22.5713C34.9219 21.6533 34.585 20.8867 34.1357 20.2715C33.6963 19.6465 33.1543 19.1777 32.5098 18.8652C31.8652 18.543 31.1377 18.3818 30.3271 18.3818C29.5166 18.3818 28.7939 18.543 28.1592 18.8652C27.5244 19.1777 26.9824 19.6465 26.5332 20.2715C26.0938 20.8867 25.7568 21.6533 25.5225 22.5713C25.2881 23.4795 25.1709 24.5293 25.1709 25.7207V26.9219C25.1709 28.1133 25.2881 29.168 25.5225 30.0859C25.7568 31.0039 26.0986 31.7803 26.5479 32.415C27.0068 33.04 27.5537 33.5137 28.1885 33.8359C28.8232 34.1484 29.5459 34.3047 30.3564 34.3047C31.1768 34.3047 31.9043 34.1484 32.5391 33.8359C33.1738 33.5137 33.7109 33.04 34.1504 32.415C34.5898 31.7803 34.9219 31.0039 35.1465 30.0859C35.3809 29.168 35.498 28.1133 35.498 26.9219ZM46.3086 21.1504V37H42.7783V21.1504H46.3086ZM56.6504 21.1504L49.5166 30.6865H45.4883L45.0195 27.4932H47.9639L52.2412 21.1504H56.6504ZM52.5195 37L47.7441 30.0859L50.5273 28.0791L57.1631 37H52.5195ZM57.8809 29.251V28.9141C57.8809 27.7715 58.0469 26.7119 58.3789 25.7354C58.7109 24.749 59.1895 23.8945 59.8145 23.1719C60.4492 22.4395 61.2207 21.873 62.1289 21.4727C63.0469 21.0625 64.082 20.8574 65.2344 20.8574C66.3965 20.8574 67.4316 21.0625 68.3398 21.4727C69.2578 21.873 70.0342 22.4395 70.6689 23.1719C71.3037 23.8945 71.7871 24.749 72.1191 25.7354C72.4512 26.7119 72.6172 27.7715 72.6172 28.9141V29.251C72.6172 30.3936 72.4512 31.4531 72.1191 32.4297C71.7871 33.4062 71.3037 34.2607 70.6689 34.9932C70.0342 35.7158 69.2627 36.2822 68.3545 36.6924C67.4463 37.0928 66.416 37.293 65.2637 37.293C64.1016 37.293 63.0615 37.0928 62.1436 36.6924C61.2354 36.2822 60.4639 35.7158 59.8291 34.9932C59.1943 34.2607 58.7109 33.4062 58.3789 32.4297C58.0469 31.4531 57.8809 30.3936 57.8809 29.251ZM61.4111 28.9141V29.251C61.4111 29.9639 61.4844 30.6377 61.6309 31.2725C61.7773 31.9072 62.0068 32.4639 62.3193 32.9424C62.6318 33.4209 63.0322 33.7969 63.5205 34.0703C64.0088 34.3438 64.5898 34.4805 65.2637 34.4805C65.918 34.4805 66.4844 34.3438 66.9629 34.0703C67.4512 33.7969 67.8516 33.4209 68.1641 32.9424C68.4766 32.4639 68.7061 31.9072 68.8525 31.2725C69.0088 30.6377 69.0869 29.9639 69.0869 29.251V28.9141C69.0869 28.2109 69.0088 27.5469 68.8525 26.9219C68.7061 26.2871 68.4717 25.7256 68.1494 25.2373C67.8369 24.749 67.4365 24.3682 66.9482 24.0947C66.4697 23.8115 65.8984 23.6699 65.2344 23.6699C64.5703 23.6699 63.9941 23.8115 63.5059 24.0947C63.0273 24.3682 62.6318 24.749 62.3193 25.2373C62.0068 25.7256 61.7773 26.2871 61.6309 26.9219C61.4844 27.5469 61.4111 28.2109 61.4111 28.9141ZM86.4014 27.7715V30.5547H78.1982V27.7715H86.4014ZM79.2236 21.1504V37H75.6934V21.1504H79.2236ZM88.9502 21.1504V37H85.4199V21.1504H88.9502ZM105.444 21.1504V37H101.914V21.1504H105.444ZM103.95 28.167V30.9648C103.521 31.1504 103.037 31.3213 102.5 31.4775C101.973 31.624 101.416 31.7461 100.83 31.8438C100.244 31.9316 99.6533 31.9756 99.0576 31.9756C97.6611 31.9756 96.4551 31.7607 95.4395 31.3311C94.4336 30.9014 93.6572 30.2422 93.1104 29.3535C92.5732 28.4551 92.3047 27.3174 92.3047 25.9404V21.1357H95.8203V25.9404C95.8203 26.7314 95.9375 27.3613 96.1719 27.8301C96.416 28.2988 96.7773 28.6357 97.2559 28.8408C97.7344 29.0459 98.335 29.1484 99.0576 29.1484C99.6631 29.1484 100.234 29.1094 100.771 29.0312C101.309 28.9434 101.841 28.8262 102.368 28.6797C102.896 28.5332 103.423 28.3623 103.95 28.167ZM118.145 33.8213V26.2627C118.145 25.6963 118.042 25.208 117.837 24.7979C117.632 24.3877 117.319 24.0703 116.899 23.8457C116.489 23.6211 115.972 23.5088 115.347 23.5088C114.771 23.5088 114.272 23.6064 113.853 23.8018C113.433 23.9971 113.105 24.2607 112.871 24.5928C112.637 24.9248 112.52 25.3008 112.52 25.7207H109.004C109.004 25.0957 109.155 24.4902 109.458 23.9043C109.761 23.3184 110.2 22.7959 110.776 22.3369C111.353 21.8779 112.041 21.5166 112.842 21.2529C113.643 20.9893 114.541 20.8574 115.537 20.8574C116.729 20.8574 117.783 21.0576 118.701 21.458C119.629 21.8584 120.356 22.4639 120.884 23.2744C121.421 24.0752 121.689 25.0811 121.689 26.292V33.3379C121.689 34.0605 121.738 34.71 121.836 35.2861C121.943 35.8525 122.095 36.3457 122.29 36.7656V37H118.672C118.506 36.6191 118.374 36.1357 118.276 35.5498C118.188 34.9541 118.145 34.3779 118.145 33.8213ZM118.657 27.3613L118.687 29.5439H116.152C115.498 29.5439 114.922 29.6074 114.424 29.7344C113.926 29.8516 113.511 30.0273 113.179 30.2617C112.847 30.4961 112.598 30.7793 112.432 31.1113C112.266 31.4434 112.183 31.8193 112.183 32.2393C112.183 32.6592 112.28 33.0449 112.476 33.3965C112.671 33.7383 112.954 34.0068 113.325 34.2021C113.706 34.3975 114.165 34.4951 114.702 34.4951C115.425 34.4951 116.055 34.3486 116.592 34.0557C117.139 33.7529 117.568 33.3867 117.881 32.957C118.193 32.5176 118.359 32.1025 118.379 31.7119L119.521 33.2793C119.404 33.6797 119.204 34.1094 118.921 34.5684C118.638 35.0273 118.267 35.4668 117.808 35.8867C117.358 36.2969 116.816 36.6338 116.182 36.8975C115.557 37.1611 114.834 37.293 114.014 37.293C112.979 37.293 112.056 37.0879 111.245 36.6777C110.435 36.2578 109.8 35.6963 109.341 34.9932C108.882 34.2803 108.652 33.4746 108.652 32.5762C108.652 31.7363 108.809 30.9941 109.121 30.3496C109.443 29.6953 109.912 29.1484 110.527 28.709C111.152 28.2695 111.914 27.9375 112.812 27.7129C113.711 27.4785 114.736 27.3613 115.889 27.3613H118.657ZM136.206 27.7715V30.5547H128.003V27.7715H136.206ZM129.028 21.1504V37H125.498V21.1504H129.028ZM138.755 21.1504V37H135.225V21.1504H138.755ZM146.167 31.8438L152.393 21.1504H155.923V37H152.393V26.292L146.167 37H142.637V21.1504H146.167V31.8438ZM162.998 29.251H166.66L162.163 37H158.516L162.998 29.251ZM165.576 21.1504H172.373V37H168.857V23.9336H165.576C164.912 23.9336 164.365 24.0508 163.936 24.2852C163.506 24.5098 163.188 24.8076 162.983 25.1787C162.778 25.54 162.676 25.9111 162.676 26.292C162.676 26.6729 162.769 27.0391 162.954 27.3906C163.149 27.7422 163.447 28.0303 163.848 28.2549C164.258 28.4795 164.771 28.5918 165.386 28.5918H170.044V31.1699H165.386C164.409 31.1699 163.535 31.0479 162.764 30.8037C161.992 30.5498 161.338 30.2031 160.801 29.7637C160.264 29.3145 159.854 28.792 159.57 28.1963C159.287 27.5908 159.146 26.9316 159.146 26.2188C159.146 25.4863 159.292 24.8125 159.585 24.1973C159.878 23.582 160.298 23.0449 160.845 22.5859C161.401 22.127 162.075 21.7754 162.866 21.5312C163.667 21.2773 164.57 21.1504 165.576 21.1504Z" fill="black"/>
<path d="M255.903 15.6719V37H252.241V15.6719H255.903ZM268.735 15.6719L260.063 27.8301H254.863L254.365 24.6367H258.027L264.238 15.6719H268.735ZM264.985 37L258.086 27.2734L260.459 24.4463L269.395 37H264.985ZM291.353 21.1504V37H287.822V21.1504H291.353ZM289.858 28.167V30.9648C289.429 31.1504 288.945 31.3213 288.408 31.4775C287.881 31.624 287.324 31.7461 286.738 31.8438C286.152 31.9316 285.562 31.9756 284.966 31.9756C283.569 31.9756 282.363 31.7607 281.348 31.3311C280.342 30.9014 279.565 30.2422 279.019 29.3535C278.481 28.4551 278.213 27.3174 278.213 25.9404V21.1357H281.729V25.9404C281.729 26.7314 281.846 27.3613 282.08 27.8301C282.324 28.2988 282.686 28.6357 283.164 28.8408C283.643 29.0459 284.243 29.1484 284.966 29.1484C285.571 29.1484 286.143 29.1094 286.68 29.0312C287.217 28.9434 287.749 28.8262 288.276 28.6797C288.804 28.5332 289.331 28.3623 289.858 28.167ZM302.104 37.293C300.933 37.293 299.873 37.1025 298.926 36.7217C297.988 36.3311 297.188 35.7891 296.523 35.0957C295.869 34.4023 295.366 33.5869 295.015 32.6494C294.663 31.7119 294.487 30.7012 294.487 29.6172V29.0312C294.487 27.791 294.668 26.668 295.029 25.6621C295.391 24.6562 295.894 23.7969 296.538 23.084C297.183 22.3613 297.944 21.8096 298.823 21.4287C299.702 21.0479 300.654 20.8574 301.68 20.8574C302.812 20.8574 303.804 21.0479 304.653 21.4287C305.503 21.8096 306.206 22.3467 306.763 23.04C307.329 23.7236 307.749 24.5391 308.022 25.4863C308.306 26.4336 308.447 27.4785 308.447 28.6211V30.1299H296.201V27.5957H304.961V27.3174C304.941 26.6826 304.814 26.0869 304.58 25.5303C304.355 24.9736 304.009 24.5244 303.54 24.1826C303.071 23.8408 302.446 23.6699 301.665 23.6699C301.079 23.6699 300.557 23.7969 300.098 24.0508C299.648 24.2949 299.272 24.6514 298.97 25.1201C298.667 25.5889 298.433 26.1553 298.267 26.8193C298.11 27.4736 298.032 28.2109 298.032 29.0312V29.6172C298.032 30.3105 298.125 30.9551 298.311 31.5508C298.506 32.1367 298.789 32.6494 299.16 33.0889C299.531 33.5283 299.98 33.875 300.508 34.1289C301.035 34.373 301.636 34.4951 302.31 34.4951C303.159 34.4951 303.916 34.3242 304.58 33.9824C305.244 33.6406 305.82 33.1572 306.309 32.5322L308.169 34.334C307.827 34.832 307.383 35.3105 306.836 35.7695C306.289 36.2188 305.62 36.585 304.829 36.8682C304.048 37.1514 303.14 37.293 302.104 37.293ZM320.62 32.7227L325.337 21.1504H328.398L321.821 37H319.419L312.856 21.1504H315.918L320.62 32.7227ZM315.01 21.1504V37H311.479V21.1504H315.01ZM326.23 37V21.1504H329.775V37H326.23ZM338.33 35.2715L342.637 21.1504H346.416L340.059 39.417C339.912 39.8076 339.722 40.2324 339.487 40.6914C339.253 41.1504 338.945 41.585 338.564 41.9951C338.193 42.415 337.729 42.752 337.173 43.0059C336.616 43.2695 335.942 43.4014 335.151 43.4014C334.839 43.4014 334.536 43.3721 334.243 43.3135C333.96 43.2646 333.691 43.2109 333.438 43.1523L333.423 40.457C333.521 40.4668 333.638 40.4766 333.774 40.4863C333.921 40.4961 334.038 40.501 334.126 40.501C334.712 40.501 335.2 40.4277 335.591 40.2812C335.981 40.1445 336.299 39.9199 336.543 39.6074C336.797 39.2949 337.012 38.875 337.188 38.3477L338.33 35.2715ZM335.898 21.1504L339.663 33.0156L340.293 36.7363L337.847 37.3662L332.09 21.1504H335.898ZM366.543 21.1504V23.9629H358.721V21.1504H366.543ZM359.556 21.1504V37H356.025V21.1504H359.556ZM369.312 21.1504V37H365.767V21.1504H369.312ZM376.592 24.1973V43.0938H373.062V21.1504H376.313L376.592 24.1973ZM386.919 28.9287V29.2363C386.919 30.3887 386.782 31.458 386.509 32.4443C386.245 33.4209 385.85 34.2754 385.322 35.0078C384.805 35.7305 384.165 36.292 383.403 36.6924C382.642 37.0928 381.763 37.293 380.767 37.293C379.78 37.293 378.916 37.1123 378.174 36.751C377.441 36.3799 376.821 35.8574 376.313 35.1836C375.806 34.5098 375.396 33.7188 375.083 32.8105C374.78 31.8926 374.565 30.8867 374.438 29.793V28.6064C374.565 27.4443 374.78 26.3896 375.083 25.4424C375.396 24.4951 375.806 23.6797 376.313 22.9961C376.821 22.3125 377.441 21.7852 378.174 21.4141C378.906 21.043 379.761 20.8574 380.737 20.8574C381.733 20.8574 382.617 21.0527 383.389 21.4434C384.16 21.8242 384.81 22.3711 385.337 23.084C385.864 23.7871 386.26 24.6367 386.523 25.6328C386.787 26.6191 386.919 27.7178 386.919 28.9287ZM383.389 29.2363V28.9287C383.389 28.1963 383.32 27.5176 383.184 26.8926C383.047 26.2578 382.832 25.7012 382.539 25.2227C382.246 24.7441 381.87 24.373 381.411 24.1094C380.962 23.8359 380.42 23.6992 379.785 23.6992C379.16 23.6992 378.623 23.8066 378.174 24.0215C377.725 24.2266 377.349 24.5146 377.046 24.8857C376.743 25.2568 376.509 25.6914 376.343 26.1895C376.177 26.6777 376.06 27.21 375.991 27.7861V30.6279C376.108 31.3311 376.309 31.9756 376.592 32.5615C376.875 33.1475 377.275 33.6162 377.793 33.9678C378.32 34.3096 378.994 34.4805 379.814 34.4805C380.449 34.4805 380.991 34.3438 381.44 34.0703C381.89 33.7969 382.256 33.4209 382.539 32.9424C382.832 32.4541 383.047 31.8926 383.184 31.2578C383.32 30.623 383.389 29.9492 383.389 29.2363ZM393.569 31.8438L399.795 21.1504H403.325V37H399.795V26.292L393.569 37H390.039V21.1504H393.569V31.8438ZM413.535 34.4805C414.111 34.4805 414.629 34.3682 415.088 34.1436C415.557 33.9092 415.933 33.5869 416.216 33.1768C416.509 32.7666 416.67 32.293 416.699 31.7559H420.024C420.005 32.7812 419.702 33.7139 419.116 34.5537C418.53 35.3936 417.754 36.0625 416.787 36.5605C415.82 37.0488 414.751 37.293 413.579 37.293C412.368 37.293 411.313 37.0879 410.415 36.6777C409.517 36.2578 408.77 35.6816 408.174 34.9492C407.578 34.2168 407.129 33.3721 406.826 32.415C406.533 31.458 406.387 30.4326 406.387 29.3389V28.8262C406.387 27.7324 406.533 26.707 406.826 25.75C407.129 24.7832 407.578 23.9336 408.174 23.2012C408.77 22.4688 409.517 21.8975 410.415 21.4873C411.313 21.0674 412.363 20.8574 413.564 20.8574C414.834 20.8574 415.947 21.1113 416.904 21.6191C417.861 22.1172 418.613 22.8154 419.16 23.7139C419.717 24.6025 420.005 25.6377 420.024 26.8193H416.699C416.67 26.2334 416.523 25.7061 416.26 25.2373C416.006 24.7588 415.645 24.3779 415.176 24.0947C414.717 23.8115 414.165 23.6699 413.521 23.6699C412.808 23.6699 412.217 23.8164 411.748 24.1094C411.279 24.3926 410.913 24.7832 410.649 25.2812C410.386 25.7695 410.195 26.3213 410.078 26.9365C409.971 27.542 409.917 28.1719 409.917 28.8262V29.3389C409.917 29.9932 409.971 30.6279 410.078 31.2432C410.186 31.8584 410.371 32.4102 410.635 32.8984C410.908 33.377 411.279 33.7627 411.748 34.0557C412.217 34.3389 412.812 34.4805 413.535 34.4805ZM422.061 29.251V28.9141C422.061 27.7715 422.227 26.7119 422.559 25.7354C422.891 24.749 423.369 23.8945 423.994 23.1719C424.629 22.4395 425.4 21.873 426.309 21.4727C427.227 21.0625 428.262 20.8574 429.414 20.8574C430.576 20.8574 431.611 21.0625 432.52 21.4727C433.438 21.873 434.214 22.4395 434.849 23.1719C435.483 23.8945 435.967 24.749 436.299 25.7354C436.631 26.7119 436.797 27.7715 436.797 28.9141V29.251C436.797 30.3936 436.631 31.4531 436.299 32.4297C435.967 33.4062 435.483 34.2607 434.849 34.9932C434.214 35.7158 433.442 36.2822 432.534 36.6924C431.626 37.0928 430.596 37.293 429.443 37.293C428.281 37.293 427.241 37.0928 426.323 36.6924C425.415 36.2822 424.644 35.7158 424.009 34.9932C423.374 34.2607 422.891 33.4062 422.559 32.4297C422.227 31.4531 422.061 30.3936 422.061 29.251ZM425.591 28.9141V29.251C425.591 29.9639 425.664 30.6377 425.811 31.2725C425.957 31.9072 426.187 32.4639 426.499 32.9424C426.812 33.4209 427.212 33.7969 427.7 34.0703C428.188 34.3438 428.77 34.4805 429.443 34.4805C430.098 34.4805 430.664 34.3438 431.143 34.0703C431.631 33.7969 432.031 33.4209 432.344 32.9424C432.656 32.4639 432.886 31.9072 433.032 31.2725C433.188 30.6377 433.267 29.9639 433.267 29.251V28.9141C433.267 28.2109 433.188 27.5469 433.032 26.9219C432.886 26.2871 432.651 25.7256 432.329 25.2373C432.017 24.749 431.616 24.3682 431.128 24.0947C430.649 23.8115 430.078 23.6699 429.414 23.6699C428.75 23.6699 428.174 23.8115 427.686 24.0947C427.207 24.3682 426.812 24.749 426.499 25.2373C426.187 25.7256 425.957 26.2871 425.811 26.9219C425.664 27.5469 425.591 28.2109 425.591 28.9141ZM446.743 37.293C445.571 37.293 444.512 37.1025 443.564 36.7217C442.627 36.3311 441.826 35.7891 441.162 35.0957C440.508 34.4023 440.005 33.5869 439.653 32.6494C439.302 31.7119 439.126 30.7012 439.126 29.6172V29.0312C439.126 27.791 439.307 26.668 439.668 25.6621C440.029 24.6562 440.532 23.7969 441.177 23.084C441.821 22.3613 442.583 21.8096 443.462 21.4287C444.341 21.0479 445.293 20.8574 446.318 20.8574C447.451 20.8574 448.442 21.0479 449.292 21.4287C450.142 21.8096 450.845 22.3467 451.401 23.04C451.968 23.7236 452.388 24.5391 452.661 25.4863C452.944 26.4336 453.086 27.4785 453.086 28.6211V30.1299H440.84V27.5957H449.6V27.3174C449.58 26.6826 449.453 26.0869 449.219 25.5303C448.994 24.9736 448.647 24.5244 448.179 24.1826C447.71 23.8408 447.085 23.6699 446.304 23.6699C445.718 23.6699 445.195 23.7969 444.736 24.0508C444.287 24.2949 443.911 24.6514 443.608 25.1201C443.306 25.5889 443.071 26.1553 442.905 26.8193C442.749 27.4736 442.671 28.2109 442.671 29.0312V29.6172C442.671 30.3105 442.764 30.9551 442.949 31.5508C443.145 32.1367 443.428 32.6494 443.799 33.0889C444.17 33.5283 444.619 33.875 445.146 34.1289C445.674 34.373 446.274 34.4951 446.948 34.4951C447.798 34.4951 448.555 34.3242 449.219 33.9824C449.883 33.6406 450.459 33.1572 450.947 32.5322L452.808 34.334C452.466 34.832 452.021 35.3105 451.475 35.7695C450.928 36.2188 450.259 36.585 449.468 36.8682C448.687 37.1514 447.778 37.293 446.743 37.293ZM458.711 21.1504H462.241L462.065 26.7314C462.017 28.3525 461.831 29.7441 461.509 30.9062C461.187 32.0684 460.767 33.0498 460.249 33.8506C459.731 34.6416 459.146 35.291 458.491 35.7988C457.847 36.3066 457.168 36.707 456.455 37H455.415V34.2168L455.913 34.1875C456.333 33.7383 456.694 33.2891 456.997 32.8398C457.31 32.3809 457.573 31.8779 457.788 31.3311C458.003 30.7744 458.169 30.125 458.286 29.3828C458.413 28.6406 458.496 27.7568 458.535 26.7314L458.711 21.1504ZM459.648 21.1504H469.697V37H466.182V24.1387H459.648V21.1504ZM454.609 34.1875H471.865V41.7168H468.335V37H458.184V41.7168H454.595L454.609 34.1875ZM474.531 35.2422C474.531 34.6953 474.717 34.2363 475.088 33.8652C475.459 33.4844 475.962 33.2939 476.597 33.2939C477.241 33.2939 477.744 33.4844 478.105 33.8652C478.477 34.2363 478.662 34.6953 478.662 35.2422C478.662 35.7891 478.477 36.248 478.105 36.6191C477.744 36.9902 477.241 37.1758 476.597 37.1758C475.962 37.1758 475.459 36.9902 475.088 36.6191C474.717 36.248 474.531 35.7891 474.531 35.2422ZM489.341 30.7158H486.074C486.084 29.8076 486.162 29.0459 486.309 28.4307C486.455 27.8057 486.699 27.2393 487.041 26.7314C487.393 26.2236 487.856 25.6865 488.433 25.1201C488.882 24.6904 489.287 24.2852 489.648 23.9043C490.01 23.5137 490.298 23.1035 490.513 22.6738C490.728 22.2344 490.835 21.7314 490.835 21.165C490.835 20.5498 490.732 20.0273 490.527 19.5977C490.322 19.168 490.02 18.8408 489.619 18.6162C489.229 18.3916 488.74 18.2793 488.154 18.2793C487.666 18.2793 487.207 18.377 486.777 18.5723C486.348 18.7578 486.001 19.0508 485.737 19.4512C485.474 19.8418 485.332 20.3594 485.312 21.0039H481.782C481.802 19.7734 482.095 18.7383 482.661 17.8984C483.228 17.0586 483.989 16.4287 484.946 16.0088C485.903 15.5889 486.973 15.3789 488.154 15.3789C489.463 15.3789 490.581 15.6035 491.509 16.0527C492.437 16.4922 493.145 17.1367 493.633 17.9863C494.131 18.8262 494.38 19.8418 494.38 21.0332C494.38 21.8926 494.209 22.6738 493.867 23.377C493.525 24.0703 493.081 24.7197 492.534 25.3252C491.987 25.9209 491.396 26.5166 490.762 27.1123C490.215 27.6104 489.844 28.1523 489.648 28.7383C489.453 29.3145 489.351 29.9736 489.341 30.7158ZM485.781 35.2861C485.781 34.7588 485.962 34.3145 486.323 33.9531C486.685 33.582 487.178 33.3965 487.803 33.3965C488.428 33.3965 488.921 33.582 489.282 33.9531C489.644 34.3145 489.824 34.7588 489.824 35.2861C489.824 35.8135 489.644 36.2627 489.282 36.6338C488.921 36.9951 488.428 37.1758 487.803 37.1758C487.178 37.1758 486.685 36.9951 486.323 36.6338C485.962 36.2627 485.781 35.8135 485.781 35.2861Z" fill="black"/>
<path d="M551.124 15.6719H554.801V22.2783C554.801 23.2842 554.952 24.0752 555.255 24.6514C555.558 25.2178 556.017 25.6182 556.632 25.8525C557.257 26.0869 558.033 26.2041 558.961 26.2041C559.41 26.2041 559.884 26.1846 560.382 26.1455C560.88 26.1064 561.378 26.0527 561.876 25.9844C562.384 25.9062 562.872 25.8184 563.341 25.7207C563.81 25.6133 564.239 25.4961 564.63 25.3691V28.2842C564.249 28.4014 563.829 28.5137 563.37 28.6211C562.921 28.7285 562.452 28.8213 561.964 28.8994C561.476 28.9678 560.978 29.0215 560.47 29.0605C559.962 29.0996 559.459 29.1191 558.961 29.1191C557.35 29.1191 555.958 28.8896 554.786 28.4307C553.614 27.9619 552.711 27.2246 552.076 26.2188C551.441 25.2129 551.124 23.8994 551.124 22.2783V15.6719ZM563.795 15.6719H567.472V37H563.795V15.6719ZM578.883 21.1504V37H575.338V21.1504H578.883ZM584.083 21.1504V23.9336H570.226V21.1504H584.083ZM585.211 29.251V28.9141C585.211 27.7715 585.377 26.7119 585.709 25.7354C586.041 24.749 586.52 23.8945 587.145 23.1719C587.779 22.4395 588.551 21.873 589.459 21.4727C590.377 21.0625 591.412 20.8574 592.564 20.8574C593.727 20.8574 594.762 21.0625 595.67 21.4727C596.588 21.873 597.364 22.4395 597.999 23.1719C598.634 23.8945 599.117 24.749 599.449 25.7354C599.781 26.7119 599.947 27.7715 599.947 28.9141V29.251C599.947 30.3936 599.781 31.4531 599.449 32.4297C599.117 33.4062 598.634 34.2607 597.999 34.9932C597.364 35.7158 596.593 36.2822 595.685 36.6924C594.776 37.0928 593.746 37.293 592.594 37.293C591.432 37.293 590.392 37.0928 589.474 36.6924C588.565 36.2822 587.794 35.7158 587.159 34.9932C586.524 34.2607 586.041 33.4062 585.709 32.4297C585.377 31.4531 585.211 30.3936 585.211 29.251ZM588.741 28.9141V29.251C588.741 29.9639 588.814 30.6377 588.961 31.2725C589.107 31.9072 589.337 32.4639 589.649 32.9424C589.962 33.4209 590.362 33.7969 590.851 34.0703C591.339 34.3438 591.92 34.4805 592.594 34.4805C593.248 34.4805 593.814 34.3438 594.293 34.0703C594.781 33.7969 595.182 33.4209 595.494 32.9424C595.807 32.4639 596.036 31.9072 596.183 31.2725C596.339 30.6377 596.417 29.9639 596.417 29.251V28.9141C596.417 28.2109 596.339 27.5469 596.183 26.9219C596.036 26.2871 595.802 25.7256 595.479 25.2373C595.167 24.749 594.767 24.3682 594.278 24.0947C593.8 23.8115 593.229 23.6699 592.564 23.6699C591.9 23.6699 591.324 23.8115 590.836 24.0947C590.357 24.3682 589.962 24.749 589.649 25.2373C589.337 25.7256 589.107 26.2871 588.961 26.9219C588.814 27.5469 588.741 28.2109 588.741 28.9141ZM613.248 21.1504H616.778L616.603 26.7314C616.554 28.3525 616.368 29.7441 616.046 30.9062C615.724 32.0684 615.304 33.0498 614.786 33.8506C614.269 34.6416 613.683 35.291 613.028 35.7988C612.384 36.3066 611.705 36.707 610.992 37H609.952V34.2168L610.45 34.1875C610.87 33.7383 611.231 33.2891 611.534 32.8398C611.847 32.3809 612.11 31.8779 612.325 31.3311C612.54 30.7744 612.706 30.125 612.823 29.3828C612.95 28.6406 613.033 27.7568 613.072 26.7314L613.248 21.1504ZM614.186 21.1504H624.234V37H620.719V24.1387H614.186V21.1504ZM609.146 34.1875H626.402V41.7168H622.872V37H612.721V41.7168H609.132L609.146 34.1875ZM637.857 33.8213V26.2627C637.857 25.6963 637.755 25.208 637.55 24.7979C637.345 24.3877 637.032 24.0703 636.612 23.8457C636.202 23.6211 635.685 23.5088 635.06 23.5088C634.483 23.5088 633.985 23.6064 633.565 23.8018C633.146 23.9971 632.818 24.2607 632.584 24.5928C632.35 24.9248 632.232 25.3008 632.232 25.7207H628.717C628.717 25.0957 628.868 24.4902 629.171 23.9043C629.474 23.3184 629.913 22.7959 630.489 22.3369C631.065 21.8779 631.754 21.5166 632.555 21.2529C633.355 20.9893 634.254 20.8574 635.25 20.8574C636.441 20.8574 637.496 21.0576 638.414 21.458C639.342 21.8584 640.069 22.4639 640.597 23.2744C641.134 24.0752 641.402 25.0811 641.402 26.292V33.3379C641.402 34.0605 641.451 34.71 641.549 35.2861C641.656 35.8525 641.808 36.3457 642.003 36.7656V37H638.385C638.219 36.6191 638.087 36.1357 637.989 35.5498C637.901 34.9541 637.857 34.3779 637.857 33.8213ZM638.37 27.3613L638.399 29.5439H635.865C635.211 29.5439 634.635 29.6074 634.137 29.7344C633.639 29.8516 633.224 30.0273 632.892 30.2617C632.56 30.4961 632.311 30.7793 632.145 31.1113C631.979 31.4434 631.896 31.8193 631.896 32.2393C631.896 32.6592 631.993 33.0449 632.188 33.3965C632.384 33.7383 632.667 34.0068 633.038 34.2021C633.419 34.3975 633.878 34.4951 634.415 34.4951C635.138 34.4951 635.768 34.3486 636.305 34.0557C636.852 33.7529 637.281 33.3867 637.594 32.957C637.906 32.5176 638.072 32.1025 638.092 31.7119L639.234 33.2793C639.117 33.6797 638.917 34.1094 638.634 34.5684C638.351 35.0273 637.979 35.4668 637.521 35.8867C637.071 36.2969 636.529 36.6338 635.895 36.8975C635.27 37.1611 634.547 37.293 633.727 37.293C632.691 37.293 631.769 37.0879 630.958 36.6777C630.147 36.2578 629.513 35.6963 629.054 34.9932C628.595 34.2803 628.365 33.4746 628.365 32.5762C628.365 31.7363 628.521 30.9941 628.834 30.3496C629.156 29.6953 629.625 29.1484 630.24 28.709C630.865 28.2695 631.627 27.9375 632.525 27.7129C633.424 27.4785 634.449 27.3613 635.602 27.3613H638.37ZM652.081 37.293C650.909 37.293 649.85 37.1025 648.902 36.7217C647.965 36.3311 647.164 35.7891 646.5 35.0957C645.846 34.4023 645.343 33.5869 644.991 32.6494C644.64 31.7119 644.464 30.7012 644.464 29.6172V29.0312C644.464 27.791 644.645 26.668 645.006 25.6621C645.367 24.6562 645.87 23.7969 646.515 23.084C647.159 22.3613 647.921 21.8096 648.8 21.4287C649.679 21.0479 650.631 20.8574 651.656 20.8574C652.789 20.8574 653.78 21.0479 654.63 21.4287C655.479 21.8096 656.183 22.3467 656.739 23.04C657.306 23.7236 657.726 24.5391 657.999 25.4863C658.282 26.4336 658.424 27.4785 658.424 28.6211V30.1299H646.178V27.5957H654.938V27.3174C654.918 26.6826 654.791 26.0869 654.557 25.5303C654.332 24.9736 653.985 24.5244 653.517 24.1826C653.048 23.8408 652.423 23.6699 651.642 23.6699C651.056 23.6699 650.533 23.7969 650.074 24.0508C649.625 24.2949 649.249 24.6514 648.946 25.1201C648.644 25.5889 648.409 26.1553 648.243 26.8193C648.087 27.4736 648.009 28.2109 648.009 29.0312V29.6172C648.009 30.3105 648.102 30.9551 648.287 31.5508C648.482 32.1367 648.766 32.6494 649.137 33.0889C649.508 33.5283 649.957 33.875 650.484 34.1289C651.012 34.373 651.612 34.4951 652.286 34.4951C653.136 34.4951 653.893 34.3242 654.557 33.9824C655.221 33.6406 655.797 33.1572 656.285 32.5322L658.146 34.334C657.804 34.832 657.359 35.3105 656.812 35.7695C656.266 36.2188 655.597 36.585 654.806 36.8682C654.024 37.1514 653.116 37.293 652.081 37.293ZM646.178 16.9463C646.178 16.4678 646.344 16.0674 646.676 15.7451C647.008 15.4131 647.447 15.2471 647.994 15.2471C648.551 15.2471 648.995 15.4131 649.327 15.7451C649.659 16.0674 649.825 16.4678 649.825 16.9463C649.825 17.415 649.659 17.8154 649.327 18.1475C648.995 18.4697 648.551 18.6309 647.994 18.6309C647.447 18.6309 647.008 18.4697 646.676 18.1475C646.344 17.8154 646.178 17.415 646.178 16.9463ZM652.96 16.9609C652.96 16.4824 653.126 16.082 653.458 15.7598C653.79 15.4277 654.234 15.2617 654.791 15.2617C655.338 15.2617 655.777 15.4277 656.109 15.7598C656.451 16.082 656.622 16.4824 656.622 16.9609C656.622 17.4297 656.451 17.8301 656.109 18.1621C655.777 18.4844 655.338 18.6455 654.791 18.6455C654.234 18.6455 653.79 18.4844 653.458 18.1621C653.126 17.8301 652.96 17.4297 652.96 16.9609ZM668.355 21.1504V37H664.811V21.1504H668.355ZM673.556 21.1504V23.9336H659.698V21.1504H673.556ZM682.521 30.7158H679.254C679.264 29.8076 679.342 29.0459 679.488 28.4307C679.635 27.8057 679.879 27.2393 680.221 26.7314C680.572 26.2236 681.036 25.6865 681.612 25.1201C682.062 24.6904 682.467 24.2852 682.828 23.9043C683.189 23.5137 683.478 23.1035 683.692 22.6738C683.907 22.2344 684.015 21.7314 684.015 21.165C684.015 20.5498 683.912 20.0273 683.707 19.5977C683.502 19.168 683.199 18.8408 682.799 18.6162C682.408 18.3916 681.92 18.2793 681.334 18.2793C680.846 18.2793 680.387 18.377 679.957 18.5723C679.527 18.7578 679.181 19.0508 678.917 19.4512C678.653 19.8418 678.512 20.3594 678.492 21.0039H674.962C674.981 19.7734 675.274 18.7383 675.841 17.8984C676.407 17.0586 677.169 16.4287 678.126 16.0088C679.083 15.5889 680.152 15.3789 681.334 15.3789C682.643 15.3789 683.761 15.6035 684.688 16.0527C685.616 16.4922 686.324 17.1367 686.812 17.9863C687.311 18.8262 687.56 19.8418 687.56 21.0332C687.56 21.8926 687.389 22.6738 687.047 23.377C686.705 24.0703 686.261 24.7197 685.714 25.3252C685.167 25.9209 684.576 26.5166 683.941 27.1123C683.395 27.6104 683.023 28.1523 682.828 28.7383C682.633 29.3145 682.53 29.9736 682.521 30.7158ZM678.961 35.2861C678.961 34.7588 679.142 34.3145 679.503 33.9531C679.864 33.582 680.357 33.3965 680.982 33.3965C681.607 33.3965 682.101 33.582 682.462 33.9531C682.823 34.3145 683.004 34.7588 683.004 35.2861C683.004 35.8135 682.823 36.2627 682.462 36.6338C682.101 36.9951 681.607 37.1758 680.982 37.1758C680.357 37.1758 679.864 36.9951 679.503 36.6338C679.142 36.2627 678.961 35.8135 678.961 35.2861Z" fill="black"/>
<line x1="1" y1="52.5" x2="901" y2="52.5" stroke="black"/>
<path d="M38.1836 101.362V105.071H21.1279V101.362H38.1836ZM31.6553 94.3896V112.505H27.6733V94.3896H31.6553ZM60.6567 109.993C60.6567 109.583 60.5542 109.212 60.3491 108.882C60.144 108.54 59.751 108.232 59.1699 107.959C58.6003 107.686 57.7572 107.435 56.6406 107.207C55.6608 106.991 54.7607 106.734 53.9404 106.438C53.1315 106.13 52.4365 105.76 51.8555 105.327C51.2744 104.894 50.8244 104.382 50.5054 103.789C50.1864 103.197 50.0269 102.513 50.0269 101.738C50.0269 100.986 50.1921 100.274 50.5225 99.6021C50.8529 98.9299 51.3257 98.3374 51.9409 97.8247C52.5562 97.312 53.3024 96.9076 54.1797 96.6113C55.0684 96.3151 56.0596 96.167 57.1533 96.167C58.7028 96.167 60.0301 96.429 61.1353 96.9531C62.2518 97.4658 63.1063 98.1665 63.6987 99.0552C64.2912 99.9325 64.5874 100.924 64.5874 102.029H60.4688C60.4688 101.539 60.3434 101.083 60.0928 100.662C59.8535 100.229 59.4889 99.8812 58.999 99.6191C58.5091 99.3457 57.8939 99.209 57.1533 99.209C56.4469 99.209 55.8602 99.3229 55.3931 99.5508C54.9373 99.7673 54.5955 100.052 54.3677 100.405C54.1512 100.758 54.043 101.146 54.043 101.567C54.043 101.875 54.0999 102.154 54.2139 102.405C54.3392 102.644 54.5443 102.866 54.8291 103.071C55.1139 103.265 55.5013 103.447 55.9912 103.618C56.4925 103.789 57.1191 103.954 57.8711 104.114C59.2839 104.41 60.4972 104.792 61.5112 105.259C62.5366 105.715 63.3228 106.307 63.8696 107.036C64.4165 107.754 64.6899 108.665 64.6899 109.771C64.6899 110.591 64.5133 111.343 64.1602 112.026C63.8184 112.699 63.3171 113.285 62.6562 113.787C61.9954 114.277 61.2036 114.658 60.2808 114.932C59.3693 115.205 58.3439 115.342 57.2046 115.342C55.5298 115.342 54.1113 115.046 52.9492 114.453C51.7871 113.849 50.9041 113.08 50.3003 112.146C49.7078 111.2 49.4116 110.221 49.4116 109.207H53.3936C53.4391 109.97 53.6499 110.579 54.0259 111.035C54.4132 111.479 54.8918 111.804 55.4614 112.009C56.0425 112.203 56.6406 112.3 57.2559 112.3C57.9964 112.3 58.6174 112.203 59.1187 112.009C59.62 111.804 60.0016 111.531 60.2637 111.189C60.5257 110.836 60.6567 110.437 60.6567 109.993Z" fill="black"/>
<path d="M258.301 72.4336V74.3086H253.086V72.4336H258.301ZM253.643 72.4336V83H251.289V72.4336H253.643ZM260.146 72.4336V83H257.783V72.4336H260.146ZM262.188 77.834V77.6094C262.188 76.8477 262.298 76.1413 262.52 75.4902C262.741 74.8327 263.06 74.263 263.477 73.7812C263.9 73.293 264.414 72.9154 265.02 72.6484C265.632 72.375 266.322 72.2383 267.09 72.2383C267.865 72.2383 268.555 72.375 269.16 72.6484C269.772 72.9154 270.29 73.293 270.713 73.7812C271.136 74.263 271.458 74.8327 271.68 75.4902C271.901 76.1413 272.012 76.8477 272.012 77.6094V77.834C272.012 78.5957 271.901 79.3021 271.68 79.9531C271.458 80.6042 271.136 81.1738 270.713 81.6621C270.29 82.1439 269.775 82.5215 269.17 82.7949C268.564 83.0618 267.878 83.1953 267.109 83.1953C266.335 83.1953 265.641 83.0618 265.029 82.7949C264.424 82.5215 263.91 82.1439 263.486 81.6621C263.063 81.1738 262.741 80.6042 262.52 79.9531C262.298 79.3021 262.188 78.5957 262.188 77.834ZM264.541 77.6094V77.834C264.541 78.3092 264.59 78.7585 264.688 79.1816C264.785 79.6048 264.938 79.9759 265.146 80.2949C265.355 80.6139 265.622 80.8646 265.947 81.0469C266.273 81.2292 266.66 81.3203 267.109 81.3203C267.546 81.3203 267.923 81.2292 268.242 81.0469C268.568 80.8646 268.835 80.6139 269.043 80.2949C269.251 79.9759 269.404 79.6048 269.502 79.1816C269.606 78.7585 269.658 78.3092 269.658 77.834V77.6094C269.658 77.1406 269.606 76.6979 269.502 76.2812C269.404 75.8581 269.248 75.4837 269.033 75.1582C268.825 74.8327 268.558 74.5788 268.232 74.3965C267.913 74.2077 267.533 74.1133 267.09 74.1133C266.647 74.1133 266.263 74.2077 265.938 74.3965C265.618 74.5788 265.355 74.8327 265.146 75.1582C264.938 75.4837 264.785 75.8581 264.688 76.2812C264.59 76.6979 264.541 77.1406 264.541 77.6094ZM278.301 81.3203C278.685 81.3203 279.03 81.2454 279.336 81.0957C279.648 80.9395 279.899 80.7246 280.088 80.4512C280.283 80.1777 280.391 79.862 280.41 79.5039H282.627C282.614 80.1875 282.412 80.8092 282.021 81.3691C281.631 81.929 281.113 82.375 280.469 82.707C279.824 83.0326 279.111 83.1953 278.33 83.1953C277.523 83.1953 276.82 83.0586 276.221 82.7852C275.622 82.5052 275.124 82.1211 274.727 81.6328C274.329 81.1445 274.03 80.5814 273.828 79.9434C273.633 79.3053 273.535 78.6217 273.535 77.8926V77.5508C273.535 76.8216 273.633 76.138 273.828 75.5C274.03 74.8555 274.329 74.2891 274.727 73.8008C275.124 73.3125 275.622 72.9316 276.221 72.6582C276.82 72.3783 277.52 72.2383 278.32 72.2383C279.167 72.2383 279.909 72.4076 280.547 72.7461C281.185 73.0781 281.686 73.5436 282.051 74.1426C282.422 74.735 282.614 75.4251 282.627 76.2129H280.41C280.391 75.8223 280.293 75.4707 280.117 75.1582C279.948 74.8392 279.707 74.5853 279.395 74.3965C279.089 74.2077 278.721 74.1133 278.291 74.1133C277.816 74.1133 277.422 74.2109 277.109 74.4062C276.797 74.5951 276.553 74.8555 276.377 75.1875C276.201 75.513 276.074 75.8809 275.996 76.291C275.924 76.6947 275.889 77.1146 275.889 77.5508V77.8926C275.889 78.3288 275.924 78.752 275.996 79.1621C276.068 79.5723 276.191 79.9401 276.367 80.2656C276.549 80.5846 276.797 80.8418 277.109 81.0371C277.422 81.2259 277.819 81.3203 278.301 81.3203ZM291.533 72.4336V74.3086H286.377V72.4336H291.533ZM293.379 72.4336V83H291.025V72.4336H293.379ZM285.801 72.4336H288.125L287.842 77.6582C287.803 78.4329 287.725 79.1165 287.607 79.709C287.497 80.2949 287.347 80.7995 287.158 81.2227C286.969 81.6393 286.738 81.9779 286.465 82.2383C286.191 82.4987 285.872 82.6908 285.508 82.8145C285.143 82.9382 284.733 83 284.277 83H283.545L283.535 81.0664L283.906 81.0371C284.147 81.0176 284.355 80.9557 284.531 80.8516C284.707 80.7409 284.857 80.5846 284.98 80.3828C285.111 80.181 285.215 79.9206 285.293 79.6016C285.378 79.2826 285.443 78.9049 285.488 78.4688C285.54 78.0326 285.579 77.5247 285.605 76.9453L285.801 72.4336ZM300.537 83.1953C299.756 83.1953 299.049 83.0684 298.418 82.8145C297.793 82.554 297.259 82.1927 296.816 81.7305C296.38 81.2682 296.045 80.7246 295.811 80.0996C295.576 79.4746 295.459 78.8008 295.459 78.0781V77.6875C295.459 76.8607 295.579 76.112 295.82 75.4414C296.061 74.7708 296.396 74.1979 296.826 73.7227C297.256 73.2409 297.764 72.873 298.35 72.6191C298.936 72.3652 299.57 72.2383 300.254 72.2383C301.009 72.2383 301.67 72.3652 302.236 72.6191C302.803 72.873 303.271 73.2311 303.643 73.6934C304.02 74.1491 304.3 74.6927 304.482 75.3242C304.671 75.9557 304.766 76.6523 304.766 77.4141V78.4199H296.602V76.7305H302.441V76.5449C302.428 76.1217 302.344 75.7246 302.188 75.3535C302.038 74.9824 301.807 74.6829 301.494 74.4551C301.182 74.2272 300.765 74.1133 300.244 74.1133C299.854 74.1133 299.505 74.1979 299.199 74.3672C298.9 74.5299 298.649 74.7676 298.447 75.0801C298.245 75.3926 298.089 75.7702 297.979 76.2129C297.874 76.6491 297.822 77.1406 297.822 77.6875V78.0781C297.822 78.5404 297.884 78.9701 298.008 79.3672C298.138 79.7578 298.327 80.0996 298.574 80.3926C298.822 80.6855 299.121 80.9167 299.473 81.0859C299.824 81.2487 300.225 81.3301 300.674 81.3301C301.24 81.3301 301.745 81.2161 302.188 80.9883C302.63 80.7604 303.014 80.4382 303.34 80.0215L304.58 81.2227C304.352 81.5547 304.056 81.8737 303.691 82.1797C303.327 82.4792 302.881 82.7233 302.354 82.9121C301.833 83.1009 301.227 83.1953 300.537 83.1953ZM313.906 68V83H311.562V68H313.906ZM313.496 77.3262L312.734 77.3164C312.741 76.5872 312.842 75.9134 313.037 75.2949C313.239 74.6764 313.519 74.1393 313.877 73.6836C314.242 73.2214 314.678 72.8665 315.186 72.6191C315.693 72.3652 316.257 72.2383 316.875 72.2383C317.396 72.2383 317.865 72.3099 318.281 72.4531C318.704 72.5964 319.069 72.8275 319.375 73.1465C319.681 73.459 319.912 73.8691 320.068 74.377C320.231 74.8783 320.312 75.4902 320.312 76.2129V83H317.949V76.1934C317.949 75.6855 317.874 75.2819 317.725 74.9824C317.581 74.6829 317.37 74.4681 317.09 74.3379C316.81 74.2012 316.468 74.1328 316.064 74.1328C315.641 74.1328 315.267 74.2174 314.941 74.3867C314.622 74.556 314.355 74.7871 314.141 75.0801C313.926 75.373 313.763 75.7116 313.652 76.0957C313.548 76.4798 313.496 76.89 313.496 77.3262ZM327.354 83.1953C326.572 83.1953 325.866 83.0684 325.234 82.8145C324.609 82.554 324.076 82.1927 323.633 81.7305C323.197 81.2682 322.861 80.7246 322.627 80.0996C322.393 79.4746 322.275 78.8008 322.275 78.0781V77.6875C322.275 76.8607 322.396 76.112 322.637 75.4414C322.878 74.7708 323.213 74.1979 323.643 73.7227C324.072 73.2409 324.58 72.873 325.166 72.6191C325.752 72.3652 326.387 72.2383 327.07 72.2383C327.826 72.2383 328.486 72.3652 329.053 72.6191C329.619 72.873 330.088 73.2311 330.459 73.6934C330.837 74.1491 331.117 74.6927 331.299 75.3242C331.488 75.9557 331.582 76.6523 331.582 77.4141V78.4199H323.418V76.7305H329.258V76.5449C329.245 76.1217 329.16 75.7246 329.004 75.3535C328.854 74.9824 328.623 74.6829 328.311 74.4551C327.998 74.2272 327.581 74.1133 327.061 74.1133C326.67 74.1133 326.322 74.1979 326.016 74.3672C325.716 74.5299 325.465 74.7676 325.264 75.0801C325.062 75.3926 324.906 75.7702 324.795 76.2129C324.691 76.6491 324.639 77.1406 324.639 77.6875V78.0781C324.639 78.5404 324.701 78.9701 324.824 79.3672C324.954 79.7578 325.143 80.0996 325.391 80.3926C325.638 80.6855 325.938 80.9167 326.289 81.0859C326.641 81.2487 327.041 81.3301 327.49 81.3301C328.057 81.3301 328.561 81.2161 329.004 80.9883C329.447 80.7604 329.831 80.4382 330.156 80.0215L331.396 81.2227C331.169 81.5547 330.872 81.8737 330.508 82.1797C330.143 82.4792 329.697 82.7233 329.17 82.9121C328.649 83.1009 328.044 83.1953 327.354 83.1953ZM335.625 80.7344L335.615 82.4141C335.615 83.0781 335.449 83.7617 335.117 84.4648C334.785 85.168 334.346 85.7474 333.799 86.2031L332.539 85.4707C332.721 85.1777 332.887 84.8815 333.037 84.582C333.187 84.2826 333.307 83.9635 333.398 83.625C333.49 83.2865 333.535 82.9121 333.535 82.502V80.7344H335.625ZM348.799 80.1387C348.799 79.9043 348.74 79.6927 348.623 79.5039C348.506 79.3086 348.281 79.1328 347.949 78.9766C347.624 78.8203 347.142 78.6771 346.504 78.5469C345.944 78.4232 345.43 78.2767 344.961 78.1074C344.499 77.9316 344.102 77.7201 343.77 77.4727C343.438 77.2253 343.18 76.9323 342.998 76.5938C342.816 76.2552 342.725 75.8646 342.725 75.4219C342.725 74.9922 342.819 74.5853 343.008 74.2012C343.197 73.8171 343.467 73.4785 343.818 73.1855C344.17 72.8926 344.596 72.6615 345.098 72.4922C345.605 72.3229 346.172 72.2383 346.797 72.2383C347.682 72.2383 348.441 72.388 349.072 72.6875C349.71 72.9805 350.199 73.3809 350.537 73.8887C350.876 74.39 351.045 74.9564 351.045 75.5879H348.691C348.691 75.3079 348.62 75.0475 348.477 74.8066C348.34 74.5592 348.132 74.3607 347.852 74.2109C347.572 74.0547 347.22 73.9766 346.797 73.9766C346.393 73.9766 346.058 74.0417 345.791 74.1719C345.531 74.2956 345.335 74.4583 345.205 74.6602C345.081 74.862 345.02 75.0833 345.02 75.3242C345.02 75.5 345.052 75.6595 345.117 75.8027C345.189 75.9395 345.306 76.0664 345.469 76.1836C345.632 76.2943 345.853 76.3984 346.133 76.4961C346.419 76.5938 346.777 76.6882 347.207 76.7793C348.014 76.9486 348.708 77.1667 349.287 77.4336C349.873 77.694 350.322 78.0326 350.635 78.4492C350.947 78.8594 351.104 79.3802 351.104 80.0117C351.104 80.4805 351.003 80.9102 350.801 81.3008C350.605 81.6849 350.319 82.0202 349.941 82.3066C349.564 82.5866 349.111 82.8047 348.584 82.9609C348.063 83.1172 347.477 83.1953 346.826 83.1953C345.869 83.1953 345.059 83.026 344.395 82.6875C343.73 82.3424 343.226 81.903 342.881 81.3691C342.542 80.8288 342.373 80.2689 342.373 79.6895H344.648C344.674 80.1257 344.795 80.474 345.01 80.7344C345.231 80.9883 345.505 81.1738 345.83 81.291C346.162 81.4017 346.504 81.457 346.855 81.457C347.279 81.457 347.633 81.4017 347.92 81.291C348.206 81.1738 348.424 81.0176 348.574 80.8223C348.724 80.6204 348.799 80.3926 348.799 80.1387ZM355.488 68V83H353.145V68H355.488ZM355.078 77.3262L354.316 77.3164C354.323 76.5872 354.424 75.9134 354.619 75.2949C354.821 74.6764 355.101 74.1393 355.459 73.6836C355.824 73.2214 356.26 72.8665 356.768 72.6191C357.275 72.3652 357.839 72.2383 358.457 72.2383C358.978 72.2383 359.447 72.3099 359.863 72.4531C360.286 72.5964 360.651 72.8275 360.957 73.1465C361.263 73.459 361.494 73.8691 361.65 74.377C361.813 74.8783 361.895 75.4902 361.895 76.2129V83H359.531V76.1934C359.531 75.6855 359.456 75.2819 359.307 74.9824C359.163 74.6829 358.952 74.4681 358.672 74.3379C358.392 74.2012 358.05 74.1328 357.646 74.1328C357.223 74.1328 356.849 74.2174 356.523 74.3867C356.204 74.556 355.938 74.7871 355.723 75.0801C355.508 75.373 355.345 75.7116 355.234 76.0957C355.13 76.4798 355.078 76.89 355.078 77.3262ZM368.936 83.1953C368.154 83.1953 367.448 83.0684 366.816 82.8145C366.191 82.554 365.658 82.1927 365.215 81.7305C364.779 81.2682 364.443 80.7246 364.209 80.0996C363.975 79.4746 363.857 78.8008 363.857 78.0781V77.6875C363.857 76.8607 363.978 76.112 364.219 75.4414C364.46 74.7708 364.795 74.1979 365.225 73.7227C365.654 73.2409 366.162 72.873 366.748 72.6191C367.334 72.3652 367.969 72.2383 368.652 72.2383C369.408 72.2383 370.068 72.3652 370.635 72.6191C371.201 72.873 371.67 73.2311 372.041 73.6934C372.419 74.1491 372.699 74.6927 372.881 75.3242C373.07 75.9557 373.164 76.6523 373.164 77.4141V78.4199H365V76.7305H370.84V76.5449C370.827 76.1217 370.742 75.7246 370.586 75.3535C370.436 74.9824 370.205 74.6829 369.893 74.4551C369.58 74.2272 369.163 74.1133 368.643 74.1133C368.252 74.1133 367.904 74.1979 367.598 74.3672C367.298 74.5299 367.048 74.7676 366.846 75.0801C366.644 75.3926 366.488 75.7702 366.377 76.2129C366.273 76.6491 366.221 77.1406 366.221 77.6875V78.0781C366.221 78.5404 366.283 78.9701 366.406 79.3672C366.536 79.7578 366.725 80.0996 366.973 80.3926C367.22 80.6855 367.52 80.9167 367.871 81.0859C368.223 81.2487 368.623 81.3301 369.072 81.3301C369.639 81.3301 370.143 81.2161 370.586 80.9883C371.029 80.7604 371.413 80.4382 371.738 80.0215L372.979 81.2227C372.751 81.5547 372.454 81.8737 372.09 82.1797C371.725 82.4792 371.279 82.7233 370.752 82.9121C370.231 83.1009 369.626 83.1953 368.936 83.1953ZM377.207 80.7344L377.197 82.4141C377.197 83.0781 377.031 83.7617 376.699 84.4648C376.367 85.168 375.928 85.7474 375.381 86.2031L374.121 85.4707C374.303 85.1777 374.469 84.8815 374.619 84.582C374.769 84.2826 374.889 83.9635 374.98 83.625C375.072 83.2865 375.117 82.9121 375.117 82.502V80.7344H377.207ZM386.973 72.4336V83H384.609V72.4336H386.973ZM384.453 69.6602C384.453 69.3021 384.57 69.0059 384.805 68.7715C385.046 68.5306 385.378 68.4102 385.801 68.4102C386.217 68.4102 386.546 68.5306 386.787 68.7715C387.028 69.0059 387.148 69.3021 387.148 69.6602C387.148 70.0117 387.028 70.3047 386.787 70.5391C386.546 70.7734 386.217 70.8906 385.801 70.8906C385.378 70.8906 385.046 70.7734 384.805 70.5391C384.57 70.3047 384.453 70.0117 384.453 69.6602ZM394.395 72.4336V74.1523H388.438V72.4336H394.395ZM390.156 69.8457H392.51V80.0801C392.51 80.4056 392.555 80.6562 392.646 80.832C392.744 81.0013 392.878 81.1152 393.047 81.1738C393.216 81.2324 393.415 81.2617 393.643 81.2617C393.805 81.2617 393.962 81.252 394.111 81.2324C394.261 81.2129 394.382 81.1934 394.473 81.1738L394.482 82.9707C394.287 83.0293 394.059 83.0814 393.799 83.127C393.545 83.1725 393.252 83.1953 392.92 83.1953C392.38 83.1953 391.901 83.1009 391.484 82.9121C391.068 82.7168 390.742 82.401 390.508 81.9648C390.273 81.5286 390.156 80.9492 390.156 80.2266V69.8457ZM398.418 80.7344L398.408 82.4141C398.408 83.0781 398.242 83.7617 397.91 84.4648C397.578 85.168 397.139 85.7474 396.592 86.2031L395.332 85.4707C395.514 85.1777 395.68 84.8815 395.83 84.582C395.98 84.2826 396.1 83.9635 396.191 83.625C396.283 83.2865 396.328 82.9121 396.328 82.502V80.7344H398.418ZM408.535 80.6562L410.977 72.4336H412.48L412.07 74.8945L409.609 83H408.262L408.535 80.6562ZM407.1 72.4336L409.004 80.6953L409.16 83H407.656L404.795 72.4336H407.1ZM414.766 80.5977L416.611 72.4336H418.906L416.055 83H414.551L414.766 80.5977ZM412.734 72.4336L415.146 80.5586L415.449 83H414.102L411.611 74.8848L411.201 72.4336H412.734ZM422.832 68V83H420.488V68H422.832ZM422.422 77.3262L421.66 77.3164C421.667 76.5872 421.768 75.9134 421.963 75.2949C422.165 74.6764 422.445 74.1393 422.803 73.6836C423.167 73.2214 423.604 72.8665 424.111 72.6191C424.619 72.3652 425.182 72.2383 425.801 72.2383C426.322 72.2383 426.79 72.3099 427.207 72.4531C427.63 72.5964 427.995 72.8275 428.301 73.1465C428.607 73.459 428.838 73.8691 428.994 74.377C429.157 74.8783 429.238 75.4902 429.238 76.2129V83H426.875V76.1934C426.875 75.6855 426.8 75.2819 426.65 74.9824C426.507 74.6829 426.296 74.4681 426.016 74.3379C425.736 74.2012 425.394 74.1328 424.99 74.1328C424.567 74.1328 424.193 74.2174 423.867 74.3867C423.548 74.556 423.281 74.7871 423.066 75.0801C422.852 75.373 422.689 75.7116 422.578 76.0957C422.474 76.4798 422.422 76.89 422.422 77.3262ZM431.172 77.834V77.6094C431.172 76.8477 431.283 76.1413 431.504 75.4902C431.725 74.8327 432.044 74.263 432.461 73.7812C432.884 73.293 433.398 72.9154 434.004 72.6484C434.616 72.375 435.306 72.2383 436.074 72.2383C436.849 72.2383 437.539 72.375 438.145 72.6484C438.757 72.9154 439.274 73.293 439.697 73.7812C440.12 74.263 440.443 74.8327 440.664 75.4902C440.885 76.1413 440.996 76.8477 440.996 77.6094V77.834C440.996 78.5957 440.885 79.3021 440.664 79.9531C440.443 80.6042 440.12 81.1738 439.697 81.6621C439.274 82.1439 438.76 82.5215 438.154 82.7949C437.549 83.0618 436.862 83.1953 436.094 83.1953C435.319 83.1953 434.626 83.0618 434.014 82.7949C433.408 82.5215 432.894 82.1439 432.471 81.6621C432.048 81.1738 431.725 80.6042 431.504 79.9531C431.283 79.3021 431.172 78.5957 431.172 77.834ZM433.525 77.6094V77.834C433.525 78.3092 433.574 78.7585 433.672 79.1816C433.77 79.6048 433.923 79.9759 434.131 80.2949C434.339 80.6139 434.606 80.8646 434.932 81.0469C435.257 81.2292 435.645 81.3203 436.094 81.3203C436.53 81.3203 436.908 81.2292 437.227 81.0469C437.552 80.8646 437.819 80.6139 438.027 80.2949C438.236 79.9759 438.389 79.6048 438.486 79.1816C438.59 78.7585 438.643 78.3092 438.643 77.834V77.6094C438.643 77.1406 438.59 76.6979 438.486 76.2812C438.389 75.8581 438.232 75.4837 438.018 75.1582C437.809 74.8327 437.542 74.5788 437.217 74.3965C436.898 74.2077 436.517 74.1133 436.074 74.1133C435.632 74.1133 435.247 74.2077 434.922 74.3965C434.603 74.5788 434.339 74.8327 434.131 75.1582C433.923 75.4837 433.77 75.8581 433.672 76.2812C433.574 76.6979 433.525 77.1406 433.525 77.6094ZM450.381 79.5625L454.531 72.4336H456.885V83H454.531V75.8613L450.381 83H448.027V72.4336H450.381V79.5625ZM255.527 109.32C255.911 109.32 256.257 109.245 256.562 109.096C256.875 108.939 257.126 108.725 257.314 108.451C257.51 108.178 257.617 107.862 257.637 107.504H259.854C259.84 108.188 259.639 108.809 259.248 109.369C258.857 109.929 258.34 110.375 257.695 110.707C257.051 111.033 256.338 111.195 255.557 111.195C254.749 111.195 254.046 111.059 253.447 110.785C252.848 110.505 252.35 110.121 251.953 109.633C251.556 109.145 251.257 108.581 251.055 107.943C250.859 107.305 250.762 106.622 250.762 105.893V105.551C250.762 104.822 250.859 104.138 251.055 103.5C251.257 102.855 251.556 102.289 251.953 101.801C252.35 101.312 252.848 100.932 253.447 100.658C254.046 100.378 254.746 100.238 255.547 100.238C256.393 100.238 257.135 100.408 257.773 100.746C258.411 101.078 258.913 101.544 259.277 102.143C259.648 102.735 259.84 103.425 259.854 104.213H257.637C257.617 103.822 257.52 103.471 257.344 103.158C257.174 102.839 256.934 102.585 256.621 102.396C256.315 102.208 255.947 102.113 255.518 102.113C255.042 102.113 254.648 102.211 254.336 102.406C254.023 102.595 253.779 102.855 253.604 103.188C253.428 103.513 253.301 103.881 253.223 104.291C253.151 104.695 253.115 105.115 253.115 105.551V105.893C253.115 106.329 253.151 106.752 253.223 107.162C253.294 107.572 253.418 107.94 253.594 108.266C253.776 108.585 254.023 108.842 254.336 109.037C254.648 109.226 255.046 109.32 255.527 109.32ZM264.727 109.848L267.598 100.434H270.117L265.879 112.611C265.781 112.872 265.654 113.155 265.498 113.461C265.342 113.767 265.137 114.057 264.883 114.33C264.635 114.61 264.326 114.835 263.955 115.004C263.584 115.18 263.135 115.268 262.607 115.268C262.399 115.268 262.197 115.248 262.002 115.209C261.813 115.176 261.634 115.141 261.465 115.102L261.455 113.305C261.52 113.311 261.598 113.318 261.689 113.324C261.787 113.331 261.865 113.334 261.924 113.334C262.314 113.334 262.64 113.285 262.9 113.188C263.161 113.096 263.372 112.947 263.535 112.738C263.704 112.53 263.848 112.25 263.965 111.898L264.727 109.848ZM263.105 100.434L265.615 108.344L266.035 110.824L264.404 111.244L260.566 100.434H263.105ZM287.08 109.135L286.895 114.135H284.736V111H283.467V109.135H287.08ZM271.475 100.434H273.828V109.125H277.188V100.434H279.551V109.125H282.9V100.434H285.254V111H271.475V100.434ZM288.877 105.385V105.219C288.877 103.826 289.027 102.562 289.326 101.43C289.632 100.29 290.029 99.2943 290.518 98.4414C291.006 97.582 291.527 96.8724 292.08 96.3125C292.64 95.7461 293.177 95.3392 293.691 95.0918L294.16 96.4395C293.783 96.7194 293.405 97.1068 293.027 97.6016C292.656 98.0964 292.314 98.7051 292.002 99.4277C291.696 100.144 291.449 100.984 291.26 101.947C291.077 102.904 290.986 103.988 290.986 105.199V105.404C290.986 106.615 291.077 107.702 291.26 108.666C291.449 109.623 291.696 110.463 292.002 111.186C292.314 111.908 292.656 112.52 293.027 113.021C293.405 113.529 293.783 113.933 294.16 114.232L293.691 115.521C293.177 115.268 292.64 114.857 292.08 114.291C291.527 113.731 291.006 113.021 290.518 112.162C290.029 111.309 289.632 110.316 289.326 109.184C289.027 108.044 288.877 106.778 288.877 105.385ZM300.42 111.195C299.639 111.195 298.932 111.068 298.301 110.814C297.676 110.554 297.142 110.193 296.699 109.73C296.263 109.268 295.928 108.725 295.693 108.1C295.459 107.475 295.342 106.801 295.342 106.078V105.688C295.342 104.861 295.462 104.112 295.703 103.441C295.944 102.771 296.279 102.198 296.709 101.723C297.139 101.241 297.646 100.873 298.232 100.619C298.818 100.365 299.453 100.238 300.137 100.238C300.892 100.238 301.553 100.365 302.119 100.619C302.686 100.873 303.154 101.231 303.525 101.693C303.903 102.149 304.183 102.693 304.365 103.324C304.554 103.956 304.648 104.652 304.648 105.414V106.42H296.484V104.73H302.324V104.545C302.311 104.122 302.227 103.725 302.07 103.354C301.921 102.982 301.689 102.683 301.377 102.455C301.064 102.227 300.648 102.113 300.127 102.113C299.736 102.113 299.388 102.198 299.082 102.367C298.783 102.53 298.532 102.768 298.33 103.08C298.128 103.393 297.972 103.77 297.861 104.213C297.757 104.649 297.705 105.141 297.705 105.688V106.078C297.705 106.54 297.767 106.97 297.891 107.367C298.021 107.758 298.21 108.1 298.457 108.393C298.704 108.686 299.004 108.917 299.355 109.086C299.707 109.249 300.107 109.33 300.557 109.33C301.123 109.33 301.628 109.216 302.07 108.988C302.513 108.76 302.897 108.438 303.223 108.021L304.463 109.223C304.235 109.555 303.939 109.874 303.574 110.18C303.21 110.479 302.764 110.723 302.236 110.912C301.715 111.101 301.11 111.195 300.42 111.195ZM314.971 100.434V111H312.617V100.434H314.971ZM313.975 105.111V106.977C313.688 107.1 313.366 107.214 313.008 107.318C312.656 107.416 312.285 107.497 311.895 107.562C311.504 107.621 311.11 107.65 310.713 107.65C309.782 107.65 308.978 107.507 308.301 107.221C307.63 106.934 307.113 106.495 306.748 105.902C306.39 105.303 306.211 104.545 306.211 103.627V100.424H308.555V103.627C308.555 104.154 308.633 104.574 308.789 104.887C308.952 105.199 309.193 105.424 309.512 105.561C309.831 105.697 310.231 105.766 310.713 105.766C311.117 105.766 311.497 105.74 311.855 105.688C312.214 105.629 312.568 105.551 312.92 105.453C313.271 105.355 313.623 105.242 313.975 105.111ZM322.021 105.219V105.385C322.021 106.758 321.865 108.012 321.553 109.145C321.247 110.277 320.846 111.273 320.352 112.133C319.863 112.992 319.333 113.708 318.76 114.281C318.193 114.854 317.65 115.268 317.129 115.521L316.65 114.232C317.028 113.946 317.402 113.552 317.773 113.051C318.151 112.556 318.493 111.941 318.799 111.205C319.111 110.476 319.359 109.63 319.541 108.666C319.73 107.702 319.824 106.615 319.824 105.404V105.199C319.824 103.988 319.727 102.901 319.531 101.938C319.342 100.967 319.089 100.121 318.77 99.3984C318.451 98.6693 318.105 98.054 317.734 97.5527C317.363 97.0514 317.002 96.6608 316.65 96.3809L317.129 95.0918C317.65 95.3392 318.193 95.7493 318.76 96.3223C319.333 96.8952 319.863 97.6146 320.352 98.4805C320.846 99.3398 321.247 100.336 321.553 101.469C321.865 102.602 322.021 103.852 322.021 105.219ZM329.609 106.479H326.23L326.211 104.818H328.984C329.44 104.818 329.814 104.773 330.107 104.682C330.407 104.59 330.628 104.454 330.771 104.271C330.915 104.083 330.986 103.855 330.986 103.588C330.986 103.367 330.944 103.174 330.859 103.012C330.775 102.842 330.645 102.706 330.469 102.602C330.299 102.491 330.085 102.413 329.824 102.367C329.57 102.315 329.274 102.289 328.936 102.289H327.012V111H324.658V100.434H328.936C329.613 100.434 330.221 100.492 330.762 100.609C331.309 100.727 331.774 100.906 332.158 101.146C332.542 101.387 332.835 101.693 333.037 102.064C333.245 102.429 333.35 102.859 333.35 103.354C333.35 103.679 333.278 103.985 333.135 104.271C332.998 104.558 332.793 104.812 332.52 105.033C332.246 105.255 331.911 105.437 331.514 105.58C331.117 105.717 330.661 105.801 330.146 105.834L329.609 106.479ZM329.609 111H325.547L326.484 109.145H329.609C330.026 109.145 330.371 109.092 330.645 108.988C330.918 108.884 331.12 108.734 331.25 108.539C331.387 108.337 331.455 108.1 331.455 107.826C331.455 107.546 331.39 107.305 331.26 107.104C331.13 106.902 330.928 106.749 330.654 106.645C330.387 106.534 330.039 106.479 329.609 106.479H326.924L326.943 104.818H330.137L330.811 105.463C331.481 105.508 332.038 105.652 332.48 105.893C332.923 106.133 333.255 106.436 333.477 106.801C333.698 107.165 333.809 107.562 333.809 107.992C333.809 108.487 333.714 108.923 333.525 109.301C333.343 109.678 333.07 109.994 332.705 110.248C332.347 110.495 331.908 110.684 331.387 110.814C330.866 110.938 330.273 111 329.609 111ZM348.037 104.848V106.703H342.568V104.848H348.037ZM343.252 100.434V111H340.898V100.434H343.252ZM349.736 100.434V111H347.383V100.434H349.736ZM358.203 108.881V103.842C358.203 103.464 358.135 103.139 357.998 102.865C357.861 102.592 357.653 102.38 357.373 102.23C357.1 102.081 356.755 102.006 356.338 102.006C355.954 102.006 355.622 102.071 355.342 102.201C355.062 102.331 354.844 102.507 354.688 102.729C354.531 102.95 354.453 103.201 354.453 103.48H352.109C352.109 103.064 352.21 102.66 352.412 102.27C352.614 101.879 352.907 101.531 353.291 101.225C353.675 100.919 354.134 100.678 354.668 100.502C355.202 100.326 355.801 100.238 356.465 100.238C357.259 100.238 357.962 100.372 358.574 100.639C359.193 100.906 359.678 101.309 360.029 101.85C360.387 102.383 360.566 103.054 360.566 103.861V108.559C360.566 109.04 360.599 109.473 360.664 109.857C360.736 110.235 360.837 110.564 360.967 110.844V111H358.555C358.444 110.746 358.356 110.424 358.291 110.033C358.232 109.636 358.203 109.252 358.203 108.881ZM358.545 104.574L358.564 106.029H356.875C356.439 106.029 356.055 106.072 355.723 106.156C355.391 106.234 355.114 106.352 354.893 106.508C354.671 106.664 354.505 106.853 354.395 107.074C354.284 107.296 354.229 107.546 354.229 107.826C354.229 108.106 354.294 108.363 354.424 108.598C354.554 108.826 354.743 109.005 354.99 109.135C355.244 109.265 355.55 109.33 355.908 109.33C356.39 109.33 356.81 109.232 357.168 109.037C357.533 108.835 357.819 108.591 358.027 108.305C358.236 108.012 358.346 107.735 358.359 107.475L359.121 108.52C359.043 108.786 358.91 109.073 358.721 109.379C358.532 109.685 358.285 109.978 357.979 110.258C357.679 110.531 357.318 110.756 356.895 110.932C356.478 111.107 355.996 111.195 355.449 111.195C354.759 111.195 354.144 111.059 353.604 110.785C353.063 110.505 352.64 110.131 352.334 109.662C352.028 109.187 351.875 108.65 351.875 108.051C351.875 107.491 351.979 106.996 352.188 106.566C352.402 106.13 352.715 105.766 353.125 105.473C353.542 105.18 354.049 104.958 354.648 104.809C355.247 104.652 355.931 104.574 356.699 104.574H358.545ZM367.344 109.32C367.728 109.32 368.073 109.245 368.379 109.096C368.691 108.939 368.942 108.725 369.131 108.451C369.326 108.178 369.434 107.862 369.453 107.504H371.67C371.657 108.188 371.455 108.809 371.064 109.369C370.674 109.929 370.156 110.375 369.512 110.707C368.867 111.033 368.154 111.195 367.373 111.195C366.566 111.195 365.863 111.059 365.264 110.785C364.665 110.505 364.167 110.121 363.77 109.633C363.372 109.145 363.073 108.581 362.871 107.943C362.676 107.305 362.578 106.622 362.578 105.893V105.551C362.578 104.822 362.676 104.138 362.871 103.5C363.073 102.855 363.372 102.289 363.77 101.801C364.167 101.312 364.665 100.932 365.264 100.658C365.863 100.378 366.562 100.238 367.363 100.238C368.21 100.238 368.952 100.408 369.59 100.746C370.228 101.078 370.729 101.544 371.094 102.143C371.465 102.735 371.657 103.425 371.67 104.213H369.453C369.434 103.822 369.336 103.471 369.16 103.158C368.991 102.839 368.75 102.585 368.438 102.396C368.132 102.208 367.764 102.113 367.334 102.113C366.859 102.113 366.465 102.211 366.152 102.406C365.84 102.595 365.596 102.855 365.42 103.188C365.244 103.513 365.117 103.881 365.039 104.291C364.967 104.695 364.932 105.115 364.932 105.551V105.893C364.932 106.329 364.967 106.752 365.039 107.162C365.111 107.572 365.234 107.94 365.41 108.266C365.592 108.585 365.84 108.842 366.152 109.037C366.465 109.226 366.862 109.32 367.344 109.32ZM378.379 100.434V111H376.016V100.434H378.379ZM381.846 100.434V102.289H372.607V100.434H381.846ZM383.516 109.828C383.516 109.464 383.639 109.158 383.887 108.91C384.134 108.656 384.469 108.529 384.893 108.529C385.322 108.529 385.658 108.656 385.898 108.91C386.146 109.158 386.27 109.464 386.27 109.828C386.27 110.193 386.146 110.499 385.898 110.746C385.658 110.993 385.322 111.117 384.893 111.117C384.469 111.117 384.134 110.993 383.887 110.746C383.639 110.499 383.516 110.193 383.516 109.828ZM399.102 106.479H395.723L395.703 104.818H398.477C398.932 104.818 399.307 104.773 399.6 104.682C399.899 104.59 400.12 104.454 400.264 104.271C400.407 104.083 400.479 103.855 400.479 103.588C400.479 103.367 400.436 103.174 400.352 103.012C400.267 102.842 400.137 102.706 399.961 102.602C399.792 102.491 399.577 102.413 399.316 102.367C399.062 102.315 398.766 102.289 398.428 102.289H396.504V111H394.15V100.434H398.428C399.105 100.434 399.714 100.492 400.254 100.609C400.801 100.727 401.266 100.906 401.65 101.146C402.035 101.387 402.327 101.693 402.529 102.064C402.738 102.429 402.842 102.859 402.842 103.354C402.842 103.679 402.77 103.985 402.627 104.271C402.49 104.558 402.285 104.812 402.012 105.033C401.738 105.255 401.403 105.437 401.006 105.58C400.609 105.717 400.153 105.801 399.639 105.834L399.102 106.479ZM399.102 111H395.039L395.977 109.145H399.102C399.518 109.145 399.863 109.092 400.137 108.988C400.41 108.884 400.612 108.734 400.742 108.539C400.879 108.337 400.947 108.1 400.947 107.826C400.947 107.546 400.882 107.305 400.752 107.104C400.622 106.902 400.42 106.749 400.146 106.645C399.88 106.534 399.531 106.479 399.102 106.479H396.416L396.436 104.818H399.629L400.303 105.463C400.973 105.508 401.53 105.652 401.973 105.893C402.415 106.133 402.747 106.436 402.969 106.801C403.19 107.165 403.301 107.562 403.301 107.992C403.301 108.487 403.206 108.923 403.018 109.301C402.835 109.678 402.562 109.994 402.197 110.248C401.839 110.495 401.4 110.684 400.879 110.814C400.358 110.938 399.766 111 399.102 111ZM407.695 102.465V115.062H405.342V100.434H407.51L407.695 102.465ZM414.58 105.619V105.824C414.58 106.592 414.489 107.305 414.307 107.963C414.131 108.614 413.867 109.184 413.516 109.672C413.171 110.154 412.744 110.528 412.236 110.795C411.729 111.062 411.143 111.195 410.479 111.195C409.821 111.195 409.245 111.075 408.75 110.834C408.262 110.587 407.848 110.238 407.51 109.789C407.171 109.34 406.898 108.812 406.689 108.207C406.488 107.595 406.344 106.924 406.26 106.195V105.404C406.344 104.63 406.488 103.926 406.689 103.295C406.898 102.663 407.171 102.12 407.51 101.664C407.848 101.208 408.262 100.857 408.75 100.609C409.238 100.362 409.808 100.238 410.459 100.238C411.123 100.238 411.712 100.368 412.227 100.629C412.741 100.883 413.174 101.247 413.525 101.723C413.877 102.191 414.141 102.758 414.316 103.422C414.492 104.079 414.58 104.812 414.58 105.619ZM412.227 105.824V105.619C412.227 105.131 412.181 104.678 412.09 104.262C411.999 103.839 411.855 103.467 411.66 103.148C411.465 102.829 411.214 102.582 410.908 102.406C410.609 102.224 410.247 102.133 409.824 102.133C409.408 102.133 409.049 102.204 408.75 102.348C408.451 102.484 408.2 102.676 407.998 102.924C407.796 103.171 407.64 103.461 407.529 103.793C407.419 104.118 407.34 104.473 407.295 104.857V106.752C407.373 107.221 407.507 107.65 407.695 108.041C407.884 108.432 408.151 108.744 408.496 108.979C408.848 109.206 409.297 109.32 409.844 109.32C410.267 109.32 410.628 109.229 410.928 109.047C411.227 108.865 411.471 108.614 411.66 108.295C411.855 107.969 411.999 107.595 412.09 107.172C412.181 106.749 412.227 106.299 412.227 105.824ZM416.68 109.828C416.68 109.464 416.803 109.158 417.051 108.91C417.298 108.656 417.633 108.529 418.057 108.529C418.486 108.529 418.822 108.656 419.062 108.91C419.31 109.158 419.434 109.464 419.434 109.828C419.434 110.193 419.31 110.499 419.062 110.746C418.822 110.993 418.486 111.117 418.057 111.117C417.633 111.117 417.298 110.993 417.051 110.746C416.803 110.499 416.68 110.193 416.68 109.828ZM429.668 100.434V111H427.314V100.434H429.668ZM436.562 100.434L431.807 106.791H429.121L428.809 104.662H430.771L433.623 100.434H436.562ZM433.809 111L430.625 106.391L432.48 105.053L436.904 111H433.809ZM450.195 100.434V102.309H445.586V111H443.232V100.434H450.195ZM458.271 100.434V102.309H453.115V100.434H458.271ZM460.117 100.434V111H457.764V100.434H460.117ZM452.539 100.434H454.863L454.58 105.658C454.541 106.433 454.463 107.117 454.346 107.709C454.235 108.295 454.085 108.799 453.896 109.223C453.708 109.639 453.477 109.978 453.203 110.238C452.93 110.499 452.611 110.691 452.246 110.814C451.882 110.938 451.471 111 451.016 111H450.283L450.273 109.066L450.645 109.037C450.885 109.018 451.094 108.956 451.27 108.852C451.445 108.741 451.595 108.585 451.719 108.383C451.849 108.181 451.953 107.921 452.031 107.602C452.116 107.283 452.181 106.905 452.227 106.469C452.279 106.033 452.318 105.525 452.344 104.945L452.539 100.434ZM468.574 108.881V103.842C468.574 103.464 468.506 103.139 468.369 102.865C468.232 102.592 468.024 102.38 467.744 102.23C467.471 102.081 467.126 102.006 466.709 102.006C466.325 102.006 465.993 102.071 465.713 102.201C465.433 102.331 465.215 102.507 465.059 102.729C464.902 102.95 464.824 103.201 464.824 103.48H462.48C462.48 103.064 462.581 102.66 462.783 102.27C462.985 101.879 463.278 101.531 463.662 101.225C464.046 100.919 464.505 100.678 465.039 100.502C465.573 100.326 466.172 100.238 466.836 100.238C467.63 100.238 468.333 100.372 468.945 100.639C469.564 100.906 470.049 101.309 470.4 101.85C470.758 102.383 470.938 103.054 470.938 103.861V108.559C470.938 109.04 470.97 109.473 471.035 109.857C471.107 110.235 471.208 110.564 471.338 110.844V111H468.926C468.815 110.746 468.727 110.424 468.662 110.033C468.604 109.636 468.574 109.252 468.574 108.881ZM468.916 104.574L468.936 106.029H467.246C466.81 106.029 466.426 106.072 466.094 106.156C465.762 106.234 465.485 106.352 465.264 106.508C465.042 106.664 464.876 106.853 464.766 107.074C464.655 107.296 464.6 107.546 464.6 107.826C464.6 108.106 464.665 108.363 464.795 108.598C464.925 108.826 465.114 109.005 465.361 109.135C465.615 109.265 465.921 109.33 466.279 109.33C466.761 109.33 467.181 109.232 467.539 109.037C467.904 108.835 468.19 108.591 468.398 108.305C468.607 108.012 468.717 107.735 468.73 107.475L469.492 108.52C469.414 108.786 469.281 109.073 469.092 109.379C468.903 109.685 468.656 109.978 468.35 110.258C468.05 110.531 467.689 110.756 467.266 110.932C466.849 111.107 466.367 111.195 465.82 111.195C465.13 111.195 464.515 111.059 463.975 110.785C463.434 110.505 463.011 110.131 462.705 109.662C462.399 109.187 462.246 108.65 462.246 108.051C462.246 107.491 462.35 106.996 462.559 106.566C462.773 106.13 463.086 105.766 463.496 105.473C463.913 105.18 464.421 104.958 465.02 104.809C465.618 104.652 466.302 104.574 467.07 104.574H468.916ZM480.43 100.434V102.309H475.82V111H473.467V100.434H480.43ZM481.152 105.834V105.609C481.152 104.848 481.263 104.141 481.484 103.49C481.706 102.833 482.025 102.263 482.441 101.781C482.865 101.293 483.379 100.915 483.984 100.648C484.596 100.375 485.286 100.238 486.055 100.238C486.829 100.238 487.52 100.375 488.125 100.648C488.737 100.915 489.255 101.293 489.678 101.781C490.101 102.263 490.423 102.833 490.645 103.49C490.866 104.141 490.977 104.848 490.977 105.609V105.834C490.977 106.596 490.866 107.302 490.645 107.953C490.423 108.604 490.101 109.174 489.678 109.662C489.255 110.144 488.74 110.521 488.135 110.795C487.529 111.062 486.842 111.195 486.074 111.195C485.299 111.195 484.606 111.062 483.994 110.795C483.389 110.521 482.874 110.144 482.451 109.662C482.028 109.174 481.706 108.604 481.484 107.953C481.263 107.302 481.152 106.596 481.152 105.834ZM483.506 105.609V105.834C483.506 106.309 483.555 106.758 483.652 107.182C483.75 107.605 483.903 107.976 484.111 108.295C484.32 108.614 484.587 108.865 484.912 109.047C485.238 109.229 485.625 109.32 486.074 109.32C486.51 109.32 486.888 109.229 487.207 109.047C487.533 108.865 487.799 108.614 488.008 108.295C488.216 107.976 488.369 107.605 488.467 107.182C488.571 106.758 488.623 106.309 488.623 105.834V105.609C488.623 105.141 488.571 104.698 488.467 104.281C488.369 103.858 488.213 103.484 487.998 103.158C487.79 102.833 487.523 102.579 487.197 102.396C486.878 102.208 486.497 102.113 486.055 102.113C485.612 102.113 485.228 102.208 484.902 102.396C484.583 102.579 484.32 102.833 484.111 103.158C483.903 103.484 483.75 103.858 483.652 104.281C483.555 104.698 483.506 105.141 483.506 105.609ZM499.893 100.434V102.309H494.736V100.434H499.893ZM501.738 100.434V111H499.385V100.434H501.738ZM494.16 100.434H496.484L496.201 105.658C496.162 106.433 496.084 107.117 495.967 107.709C495.856 108.295 495.706 108.799 495.518 109.223C495.329 109.639 495.098 109.978 494.824 110.238C494.551 110.499 494.232 110.691 493.867 110.814C493.503 110.938 493.092 111 492.637 111H491.904L491.895 109.066L492.266 109.037C492.507 109.018 492.715 108.956 492.891 108.852C493.066 108.741 493.216 108.585 493.34 108.383C493.47 108.181 493.574 107.921 493.652 107.602C493.737 107.283 493.802 106.905 493.848 106.469C493.9 106.033 493.939 105.525 493.965 104.945L494.16 100.434ZM507.305 109.848L510.176 100.434H512.695L508.457 112.611C508.359 112.872 508.232 113.155 508.076 113.461C507.92 113.767 507.715 114.057 507.461 114.33C507.214 114.61 506.904 114.835 506.533 115.004C506.162 115.18 505.713 115.268 505.186 115.268C504.977 115.268 504.775 115.248 504.58 115.209C504.391 115.176 504.212 115.141 504.043 115.102L504.033 113.305C504.098 113.311 504.176 113.318 504.268 113.324C504.365 113.331 504.443 113.334 504.502 113.334C504.893 113.334 505.218 113.285 505.479 113.188C505.739 113.096 505.951 112.947 506.113 112.738C506.283 112.53 506.426 112.25 506.543 111.898L507.305 109.848ZM505.684 100.434L508.193 108.344L508.613 110.824L506.982 111.244L503.145 100.434H505.684ZM253.184 130.465V143.062H251.367V128.434H253.027L253.184 130.465ZM260.303 133.629V133.834C260.303 134.602 260.212 135.315 260.029 135.973C259.847 136.624 259.58 137.19 259.229 137.672C258.883 138.154 258.457 138.528 257.949 138.795C257.441 139.062 256.859 139.195 256.201 139.195C255.531 139.195 254.938 139.085 254.424 138.863C253.91 138.642 253.473 138.32 253.115 137.896C252.757 137.473 252.471 136.965 252.256 136.373C252.048 135.781 251.904 135.113 251.826 134.371V133.277C251.904 132.496 252.051 131.796 252.266 131.178C252.48 130.559 252.764 130.032 253.115 129.596C253.473 129.153 253.906 128.818 254.414 128.59C254.922 128.355 255.508 128.238 256.172 128.238C256.836 128.238 257.425 128.368 257.939 128.629C258.454 128.883 258.887 129.247 259.238 129.723C259.59 130.198 259.854 130.768 260.029 131.432C260.212 132.089 260.303 132.822 260.303 133.629ZM258.486 133.834V133.629C258.486 133.102 258.431 132.607 258.32 132.145C258.21 131.676 258.037 131.266 257.803 130.914C257.575 130.556 257.282 130.276 256.924 130.074C256.566 129.866 256.139 129.762 255.645 129.762C255.189 129.762 254.792 129.84 254.453 129.996C254.121 130.152 253.838 130.364 253.604 130.631C253.369 130.891 253.177 131.191 253.027 131.529C252.884 131.861 252.777 132.206 252.705 132.564V135.094C252.835 135.549 253.018 135.979 253.252 136.383C253.486 136.78 253.799 137.102 254.189 137.35C254.58 137.59 255.072 137.711 255.664 137.711C256.152 137.711 256.572 137.61 256.924 137.408C257.282 137.2 257.575 136.917 257.803 136.559C258.037 136.201 258.21 135.79 258.32 135.328C258.431 134.859 258.486 134.361 258.486 133.834ZM268.838 137.193V131.754C268.838 131.337 268.753 130.976 268.584 130.67C268.421 130.357 268.174 130.117 267.842 129.947C267.51 129.778 267.1 129.693 266.611 129.693C266.156 129.693 265.755 129.771 265.41 129.928C265.072 130.084 264.805 130.289 264.609 130.543C264.421 130.797 264.326 131.07 264.326 131.363H262.52C262.52 130.986 262.617 130.611 262.812 130.24C263.008 129.869 263.288 129.534 263.652 129.234C264.023 128.928 264.466 128.688 264.98 128.512C265.501 128.329 266.081 128.238 266.719 128.238C267.487 128.238 268.164 128.368 268.75 128.629C269.342 128.889 269.805 129.283 270.137 129.811C270.475 130.331 270.645 130.986 270.645 131.773V136.695C270.645 137.047 270.674 137.421 270.732 137.818C270.798 138.215 270.892 138.557 271.016 138.844V139H269.131C269.04 138.792 268.968 138.515 268.916 138.17C268.864 137.818 268.838 137.493 268.838 137.193ZM269.15 132.594L269.17 133.863H267.344C266.829 133.863 266.37 133.906 265.967 133.99C265.563 134.068 265.225 134.189 264.951 134.352C264.678 134.514 264.469 134.719 264.326 134.967C264.183 135.208 264.111 135.491 264.111 135.816C264.111 136.148 264.186 136.451 264.336 136.725C264.486 136.998 264.71 137.216 265.01 137.379C265.316 137.535 265.69 137.613 266.133 137.613C266.686 137.613 267.174 137.496 267.598 137.262C268.021 137.027 268.356 136.741 268.604 136.402C268.857 136.064 268.994 135.735 269.014 135.416L269.785 136.285C269.74 136.559 269.616 136.861 269.414 137.193C269.212 137.525 268.942 137.844 268.604 138.15C268.271 138.45 267.874 138.701 267.412 138.902C266.956 139.098 266.442 139.195 265.869 139.195C265.153 139.195 264.525 139.055 263.984 138.775C263.451 138.495 263.034 138.121 262.734 137.652C262.441 137.177 262.295 136.646 262.295 136.061C262.295 135.494 262.406 134.996 262.627 134.566C262.848 134.13 263.167 133.769 263.584 133.482C264.001 133.189 264.502 132.968 265.088 132.818C265.674 132.669 266.328 132.594 267.051 132.594H269.15ZM275.449 128.434V139H273.633V128.434H275.449ZM273.496 125.631C273.496 125.338 273.584 125.09 273.76 124.889C273.942 124.687 274.209 124.586 274.561 124.586C274.906 124.586 275.169 124.687 275.352 124.889C275.54 125.09 275.635 125.338 275.635 125.631C275.635 125.911 275.54 126.152 275.352 126.354C275.169 126.549 274.906 126.646 274.561 126.646C274.209 126.646 273.942 126.549 273.76 126.354C273.584 126.152 273.496 125.911 273.496 125.631ZM280.156 130.689V139H278.35V128.434H280.059L280.156 130.689ZM279.727 133.316L278.975 133.287C278.981 132.564 279.089 131.897 279.297 131.285C279.505 130.667 279.798 130.13 280.176 129.674C280.553 129.218 281.003 128.867 281.523 128.619C282.051 128.365 282.633 128.238 283.271 128.238C283.792 128.238 284.261 128.31 284.678 128.453C285.094 128.59 285.449 128.811 285.742 129.117C286.042 129.423 286.27 129.82 286.426 130.309C286.582 130.79 286.66 131.38 286.66 132.076V139H284.844V132.057C284.844 131.503 284.762 131.061 284.6 130.729C284.437 130.39 284.199 130.146 283.887 129.996C283.574 129.84 283.19 129.762 282.734 129.762C282.285 129.762 281.875 129.856 281.504 130.045C281.139 130.234 280.824 130.494 280.557 130.826C280.296 131.158 280.091 131.539 279.941 131.969C279.798 132.392 279.727 132.841 279.727 133.316ZM293.828 128.434V129.82H288.115V128.434H293.828ZM290.049 125.865H291.855V136.383C291.855 136.741 291.911 137.011 292.021 137.193C292.132 137.376 292.275 137.496 292.451 137.555C292.627 137.613 292.816 137.643 293.018 137.643C293.167 137.643 293.324 137.63 293.486 137.604C293.656 137.571 293.783 137.545 293.867 137.525L293.877 139C293.734 139.046 293.545 139.088 293.311 139.127C293.083 139.173 292.806 139.195 292.48 139.195C292.038 139.195 291.631 139.107 291.26 138.932C290.889 138.756 290.592 138.463 290.371 138.053C290.156 137.636 290.049 137.076 290.049 136.373V125.865ZM304.668 132.213V133.697H299.902V132.213H304.668ZM313.359 128.434V139H311.553V128.434H313.359ZM320.293 128.434L315.283 134.488H312.754L312.48 132.906H314.551L318.096 128.434H320.293ZM318.35 139L314.463 134.215L315.625 132.906L320.645 139H318.35ZM324.023 130.465V143.062H322.207V128.434H323.867L324.023 130.465ZM331.143 133.629V133.834C331.143 134.602 331.051 135.315 330.869 135.973C330.687 136.624 330.42 137.19 330.068 137.672C329.723 138.154 329.297 138.528 328.789 138.795C328.281 139.062 327.699 139.195 327.041 139.195C326.37 139.195 325.778 139.085 325.264 138.863C324.749 138.642 324.313 138.32 323.955 137.896C323.597 137.473 323.311 136.965 323.096 136.373C322.887 135.781 322.744 135.113 322.666 134.371V133.277C322.744 132.496 322.891 131.796 323.105 131.178C323.32 130.559 323.604 130.032 323.955 129.596C324.313 129.153 324.746 128.818 325.254 128.59C325.762 128.355 326.348 128.238 327.012 128.238C327.676 128.238 328.265 128.368 328.779 128.629C329.294 128.883 329.727 129.247 330.078 129.723C330.43 130.198 330.693 130.768 330.869 131.432C331.051 132.089 331.143 132.822 331.143 133.629ZM329.326 133.834V133.629C329.326 133.102 329.271 132.607 329.16 132.145C329.049 131.676 328.877 131.266 328.643 130.914C328.415 130.556 328.122 130.276 327.764 130.074C327.406 129.866 326.979 129.762 326.484 129.762C326.029 129.762 325.632 129.84 325.293 129.996C324.961 130.152 324.678 130.364 324.443 130.631C324.209 130.891 324.017 131.191 323.867 131.529C323.724 131.861 323.617 132.206 323.545 132.564V135.094C323.675 135.549 323.857 135.979 324.092 136.383C324.326 136.78 324.639 137.102 325.029 137.35C325.42 137.59 325.911 137.711 326.504 137.711C326.992 137.711 327.412 137.61 327.764 137.408C328.122 137.2 328.415 136.917 328.643 136.559C328.877 136.201 329.049 135.79 329.16 135.328C329.271 134.859 329.326 134.361 329.326 133.834ZM339.678 137.193V131.754C339.678 131.337 339.593 130.976 339.424 130.67C339.261 130.357 339.014 130.117 338.682 129.947C338.35 129.778 337.939 129.693 337.451 129.693C336.995 129.693 336.595 129.771 336.25 129.928C335.911 130.084 335.645 130.289 335.449 130.543C335.26 130.797 335.166 131.07 335.166 131.363H333.359C333.359 130.986 333.457 130.611 333.652 130.24C333.848 129.869 334.128 129.534 334.492 129.234C334.863 128.928 335.306 128.688 335.82 128.512C336.341 128.329 336.921 128.238 337.559 128.238C338.327 128.238 339.004 128.368 339.59 128.629C340.182 128.889 340.645 129.283 340.977 129.811C341.315 130.331 341.484 130.986 341.484 131.773V136.695C341.484 137.047 341.514 137.421 341.572 137.818C341.637 138.215 341.732 138.557 341.855 138.844V139H339.971C339.88 138.792 339.808 138.515 339.756 138.17C339.704 137.818 339.678 137.493 339.678 137.193ZM339.99 132.594L340.01 133.863H338.184C337.669 133.863 337.21 133.906 336.807 133.99C336.403 134.068 336.064 134.189 335.791 134.352C335.518 134.514 335.309 134.719 335.166 134.967C335.023 135.208 334.951 135.491 334.951 135.816C334.951 136.148 335.026 136.451 335.176 136.725C335.326 136.998 335.55 137.216 335.85 137.379C336.156 137.535 336.53 137.613 336.973 137.613C337.526 137.613 338.014 137.496 338.438 137.262C338.861 137.027 339.196 136.741 339.443 136.402C339.697 136.064 339.834 135.735 339.854 135.416L340.625 136.285C340.579 136.559 340.456 136.861 340.254 137.193C340.052 137.525 339.782 137.844 339.443 138.15C339.111 138.45 338.714 138.701 338.252 138.902C337.796 139.098 337.282 139.195 336.709 139.195C335.993 139.195 335.365 139.055 334.824 138.775C334.29 138.495 333.874 138.121 333.574 137.652C333.281 137.177 333.135 136.646 333.135 136.061C333.135 135.494 333.245 134.996 333.467 134.566C333.688 134.13 334.007 133.769 334.424 133.482C334.84 133.189 335.342 132.968 335.928 132.818C336.514 132.669 337.168 132.594 337.891 132.594H339.99ZM348.555 137.711C348.984 137.711 349.382 137.623 349.746 137.447C350.111 137.271 350.41 137.031 350.645 136.725C350.879 136.412 351.012 136.057 351.045 135.66H352.764C352.731 136.285 352.52 136.868 352.129 137.408C351.745 137.942 351.24 138.375 350.615 138.707C349.99 139.033 349.303 139.195 348.555 139.195C347.76 139.195 347.067 139.055 346.475 138.775C345.889 138.495 345.4 138.111 345.01 137.623C344.626 137.135 344.336 136.575 344.141 135.943C343.952 135.305 343.857 134.632 343.857 133.922V133.512C343.857 132.802 343.952 132.132 344.141 131.5C344.336 130.862 344.626 130.299 345.01 129.811C345.4 129.322 345.889 128.938 346.475 128.658C347.067 128.378 347.76 128.238 348.555 128.238C349.382 128.238 350.104 128.408 350.723 128.746C351.341 129.078 351.826 129.534 352.178 130.113C352.536 130.686 352.731 131.337 352.764 132.066H351.045C351.012 131.63 350.889 131.236 350.674 130.885C350.465 130.533 350.179 130.253 349.814 130.045C349.456 129.83 349.036 129.723 348.555 129.723C348.001 129.723 347.536 129.833 347.158 130.055C346.787 130.27 346.491 130.562 346.27 130.934C346.055 131.298 345.898 131.705 345.801 132.154C345.71 132.597 345.664 133.049 345.664 133.512V133.922C345.664 134.384 345.71 134.84 345.801 135.289C345.892 135.738 346.045 136.145 346.26 136.51C346.481 136.874 346.777 137.167 347.148 137.389C347.526 137.604 347.995 137.711 348.555 137.711ZM356.748 136.139L361.621 128.434H363.438V139H361.621V131.295L356.748 139H354.951V128.434H356.748V136.139ZM370.645 128.434V139H368.828V128.434H370.645ZM374.189 128.434V129.898H365.352V128.434H374.189ZM377.451 132.066H380.625C381.478 132.066 382.197 132.216 382.783 132.516C383.369 132.809 383.812 133.215 384.111 133.736C384.417 134.251 384.57 134.837 384.57 135.494C384.57 135.982 384.486 136.441 384.316 136.871C384.147 137.294 383.893 137.665 383.555 137.984C383.223 138.303 382.809 138.554 382.314 138.736C381.826 138.912 381.263 139 380.625 139H376.133V128.434H377.939V137.516H380.625C381.146 137.516 381.562 137.421 381.875 137.232C382.188 137.044 382.412 136.799 382.549 136.5C382.686 136.201 382.754 135.888 382.754 135.562C382.754 135.243 382.686 134.931 382.549 134.625C382.412 134.319 382.188 134.065 381.875 133.863C381.562 133.655 381.146 133.551 380.625 133.551H377.451V132.066Z" fill="black"/>
<path d="M552.184 128.465V141.062H550.367V126.434H552.027L552.184 128.465ZM559.303 131.629V131.834C559.303 132.602 559.212 133.315 559.029 133.973C558.847 134.624 558.58 135.19 558.229 135.672C557.883 136.154 557.457 136.528 556.949 136.795C556.441 137.062 555.859 137.195 555.201 137.195C554.531 137.195 553.938 137.085 553.424 136.863C552.91 136.642 552.473 136.32 552.115 135.896C551.757 135.473 551.471 134.965 551.256 134.373C551.048 133.781 550.904 133.113 550.826 132.371V131.277C550.904 130.496 551.051 129.796 551.266 129.178C551.48 128.559 551.764 128.032 552.115 127.596C552.473 127.153 552.906 126.818 553.414 126.59C553.922 126.355 554.508 126.238 555.172 126.238C555.836 126.238 556.425 126.368 556.939 126.629C557.454 126.883 557.887 127.247 558.238 127.723C558.59 128.198 558.854 128.768 559.029 129.432C559.212 130.089 559.303 130.822 559.303 131.629ZM557.486 131.834V131.629C557.486 131.102 557.431 130.607 557.32 130.145C557.21 129.676 557.037 129.266 556.803 128.914C556.575 128.556 556.282 128.276 555.924 128.074C555.566 127.866 555.139 127.762 554.645 127.762C554.189 127.762 553.792 127.84 553.453 127.996C553.121 128.152 552.838 128.364 552.604 128.631C552.369 128.891 552.177 129.191 552.027 129.529C551.884 129.861 551.777 130.206 551.705 130.564V133.094C551.835 133.549 552.018 133.979 552.252 134.383C552.486 134.78 552.799 135.102 553.189 135.35C553.58 135.59 554.072 135.711 554.664 135.711C555.152 135.711 555.572 135.61 555.924 135.408C556.282 135.2 556.575 134.917 556.803 134.559C557.037 134.201 557.21 133.79 557.32 133.328C557.431 132.859 557.486 132.361 557.486 131.834ZM567.838 135.193V129.754C567.838 129.337 567.753 128.976 567.584 128.67C567.421 128.357 567.174 128.117 566.842 127.947C566.51 127.778 566.1 127.693 565.611 127.693C565.156 127.693 564.755 127.771 564.41 127.928C564.072 128.084 563.805 128.289 563.609 128.543C563.421 128.797 563.326 129.07 563.326 129.363H561.52C561.52 128.986 561.617 128.611 561.812 128.24C562.008 127.869 562.288 127.534 562.652 127.234C563.023 126.928 563.466 126.688 563.98 126.512C564.501 126.329 565.081 126.238 565.719 126.238C566.487 126.238 567.164 126.368 567.75 126.629C568.342 126.889 568.805 127.283 569.137 127.811C569.475 128.331 569.645 128.986 569.645 129.773V134.695C569.645 135.047 569.674 135.421 569.732 135.818C569.798 136.215 569.892 136.557 570.016 136.844V137H568.131C568.04 136.792 567.968 136.515 567.916 136.17C567.864 135.818 567.838 135.493 567.838 135.193ZM568.15 130.594L568.17 131.863H566.344C565.829 131.863 565.37 131.906 564.967 131.99C564.563 132.068 564.225 132.189 563.951 132.352C563.678 132.514 563.469 132.719 563.326 132.967C563.183 133.208 563.111 133.491 563.111 133.816C563.111 134.148 563.186 134.451 563.336 134.725C563.486 134.998 563.71 135.216 564.01 135.379C564.316 135.535 564.69 135.613 565.133 135.613C565.686 135.613 566.174 135.496 566.598 135.262C567.021 135.027 567.356 134.741 567.604 134.402C567.857 134.064 567.994 133.735 568.014 133.416L568.785 134.285C568.74 134.559 568.616 134.861 568.414 135.193C568.212 135.525 567.942 135.844 567.604 136.15C567.271 136.45 566.874 136.701 566.412 136.902C565.956 137.098 565.442 137.195 564.869 137.195C564.153 137.195 563.525 137.055 562.984 136.775C562.451 136.495 562.034 136.121 561.734 135.652C561.441 135.177 561.295 134.646 561.295 134.061C561.295 133.494 561.406 132.996 561.627 132.566C561.848 132.13 562.167 131.769 562.584 131.482C563.001 131.189 563.502 130.968 564.088 130.818C564.674 130.669 565.328 130.594 566.051 130.594H568.15ZM574.449 126.434V137H572.633V126.434H574.449ZM572.496 123.631C572.496 123.338 572.584 123.09 572.76 122.889C572.942 122.687 573.209 122.586 573.561 122.586C573.906 122.586 574.169 122.687 574.352 122.889C574.54 123.09 574.635 123.338 574.635 123.631C574.635 123.911 574.54 124.152 574.352 124.354C574.169 124.549 573.906 124.646 573.561 124.646C573.209 124.646 572.942 124.549 572.76 124.354C572.584 124.152 572.496 123.911 572.496 123.631ZM579.156 128.689V137H577.35V126.434H579.059L579.156 128.689ZM578.727 131.316L577.975 131.287C577.981 130.564 578.089 129.897 578.297 129.285C578.505 128.667 578.798 128.13 579.176 127.674C579.553 127.218 580.003 126.867 580.523 126.619C581.051 126.365 581.633 126.238 582.271 126.238C582.792 126.238 583.261 126.31 583.678 126.453C584.094 126.59 584.449 126.811 584.742 127.117C585.042 127.423 585.27 127.82 585.426 128.309C585.582 128.79 585.66 129.38 585.66 130.076V137H583.844V130.057C583.844 129.503 583.762 129.061 583.6 128.729C583.437 128.39 583.199 128.146 582.887 127.996C582.574 127.84 582.19 127.762 581.734 127.762C581.285 127.762 580.875 127.856 580.504 128.045C580.139 128.234 579.824 128.494 579.557 128.826C579.296 129.158 579.091 129.539 578.941 129.969C578.798 130.392 578.727 130.841 578.727 131.316ZM592.828 126.434V127.82H587.115V126.434H592.828ZM589.049 123.865H590.855V134.383C590.855 134.741 590.911 135.011 591.021 135.193C591.132 135.376 591.275 135.496 591.451 135.555C591.627 135.613 591.816 135.643 592.018 135.643C592.167 135.643 592.324 135.63 592.486 135.604C592.656 135.571 592.783 135.545 592.867 135.525L592.877 137C592.734 137.046 592.545 137.088 592.311 137.127C592.083 137.173 591.806 137.195 591.48 137.195C591.038 137.195 590.631 137.107 590.26 136.932C589.889 136.756 589.592 136.463 589.371 136.053C589.156 135.636 589.049 135.076 589.049 134.373V123.865ZM598.678 120.75V122.234H596.812V138.562H598.678V140.047H595.006V120.75H598.678ZM606.412 134.197C606.412 133.937 606.354 133.696 606.236 133.475C606.126 133.247 605.895 133.042 605.543 132.859C605.198 132.671 604.677 132.508 603.98 132.371C603.395 132.247 602.864 132.101 602.389 131.932C601.92 131.762 601.52 131.557 601.188 131.316C600.862 131.076 600.611 130.792 600.436 130.467C600.26 130.141 600.172 129.76 600.172 129.324C600.172 128.908 600.263 128.514 600.445 128.143C600.634 127.771 600.898 127.443 601.236 127.156C601.581 126.87 601.995 126.645 602.477 126.482C602.958 126.32 603.495 126.238 604.088 126.238C604.934 126.238 605.657 126.388 606.256 126.688C606.855 126.987 607.314 127.387 607.633 127.889C607.952 128.383 608.111 128.934 608.111 129.539H606.305C606.305 129.246 606.217 128.963 606.041 128.689C605.872 128.41 605.621 128.178 605.289 127.996C604.964 127.814 604.563 127.723 604.088 127.723C603.587 127.723 603.18 127.801 602.867 127.957C602.561 128.107 602.337 128.299 602.193 128.533C602.057 128.768 601.988 129.015 601.988 129.275C601.988 129.471 602.021 129.646 602.086 129.803C602.158 129.952 602.281 130.092 602.457 130.223C602.633 130.346 602.88 130.464 603.199 130.574C603.518 130.685 603.925 130.796 604.42 130.906C605.286 131.102 605.999 131.336 606.559 131.609C607.118 131.883 607.535 132.218 607.809 132.615C608.082 133.012 608.219 133.494 608.219 134.061C608.219 134.523 608.121 134.946 607.926 135.33C607.737 135.714 607.46 136.046 607.096 136.326C606.738 136.6 606.308 136.814 605.807 136.971C605.312 137.12 604.755 137.195 604.137 137.195C603.206 137.195 602.418 137.029 601.773 136.697C601.129 136.365 600.641 135.936 600.309 135.408C599.977 134.881 599.811 134.324 599.811 133.738H601.627C601.653 134.233 601.796 134.627 602.057 134.92C602.317 135.206 602.636 135.411 603.014 135.535C603.391 135.652 603.766 135.711 604.137 135.711C604.632 135.711 605.045 135.646 605.377 135.516C605.715 135.385 605.973 135.206 606.148 134.979C606.324 134.751 606.412 134.49 606.412 134.197ZM609.312 122.234V120.75H613.004V140.047H609.312V138.562H611.188V122.234H609.312ZM624.625 130.213V131.697H619.859V130.213H624.625ZM633.316 126.434V137H631.51V126.434H633.316ZM640.25 126.434L635.24 132.488H632.711L632.438 130.906H634.508L638.053 126.434H640.25ZM638.307 137L634.42 132.215L635.582 130.906L640.602 137H638.307ZM643.98 128.465V141.062H642.164V126.434H643.824L643.98 128.465ZM651.1 131.629V131.834C651.1 132.602 651.008 133.315 650.826 133.973C650.644 134.624 650.377 135.19 650.025 135.672C649.68 136.154 649.254 136.528 648.746 136.795C648.238 137.062 647.656 137.195 646.998 137.195C646.327 137.195 645.735 137.085 645.221 136.863C644.706 136.642 644.27 136.32 643.912 135.896C643.554 135.473 643.268 134.965 643.053 134.373C642.844 133.781 642.701 133.113 642.623 132.371V131.277C642.701 130.496 642.848 129.796 643.062 129.178C643.277 128.559 643.561 128.032 643.912 127.596C644.27 127.153 644.703 126.818 645.211 126.59C645.719 126.355 646.305 126.238 646.969 126.238C647.633 126.238 648.222 126.368 648.736 126.629C649.251 126.883 649.684 127.247 650.035 127.723C650.387 128.198 650.65 128.768 650.826 129.432C651.008 130.089 651.1 130.822 651.1 131.629ZM649.283 131.834V131.629C649.283 131.102 649.228 130.607 649.117 130.145C649.007 129.676 648.834 129.266 648.6 128.914C648.372 128.556 648.079 128.276 647.721 128.074C647.363 127.866 646.936 127.762 646.441 127.762C645.986 127.762 645.589 127.84 645.25 127.996C644.918 128.152 644.635 128.364 644.4 128.631C644.166 128.891 643.974 129.191 643.824 129.529C643.681 129.861 643.574 130.206 643.502 130.564V133.094C643.632 133.549 643.814 133.979 644.049 134.383C644.283 134.78 644.596 135.102 644.986 135.35C645.377 135.59 645.868 135.711 646.461 135.711C646.949 135.711 647.369 135.61 647.721 135.408C648.079 135.2 648.372 134.917 648.6 134.559C648.834 134.201 649.007 133.79 649.117 133.328C649.228 132.859 649.283 132.361 649.283 131.834ZM659.635 135.193V129.754C659.635 129.337 659.55 128.976 659.381 128.67C659.218 128.357 658.971 128.117 658.639 127.947C658.307 127.778 657.896 127.693 657.408 127.693C656.952 127.693 656.552 127.771 656.207 127.928C655.868 128.084 655.602 128.289 655.406 128.543C655.217 128.797 655.123 129.07 655.123 129.363H653.316C653.316 128.986 653.414 128.611 653.609 128.24C653.805 127.869 654.085 127.534 654.449 127.234C654.82 126.928 655.263 126.688 655.777 126.512C656.298 126.329 656.878 126.238 657.516 126.238C658.284 126.238 658.961 126.368 659.547 126.629C660.139 126.889 660.602 127.283 660.934 127.811C661.272 128.331 661.441 128.986 661.441 129.773V134.695C661.441 135.047 661.471 135.421 661.529 135.818C661.594 136.215 661.689 136.557 661.812 136.844V137H659.928C659.837 136.792 659.765 136.515 659.713 136.17C659.661 135.818 659.635 135.493 659.635 135.193ZM659.947 130.594L659.967 131.863H658.141C657.626 131.863 657.167 131.906 656.764 131.99C656.36 132.068 656.021 132.189 655.748 132.352C655.475 132.514 655.266 132.719 655.123 132.967C654.98 133.208 654.908 133.491 654.908 133.816C654.908 134.148 654.983 134.451 655.133 134.725C655.283 134.998 655.507 135.216 655.807 135.379C656.113 135.535 656.487 135.613 656.93 135.613C657.483 135.613 657.971 135.496 658.395 135.262C658.818 135.027 659.153 134.741 659.4 134.402C659.654 134.064 659.791 133.735 659.811 133.416L660.582 134.285C660.536 134.559 660.413 134.861 660.211 135.193C660.009 135.525 659.739 135.844 659.4 136.15C659.068 136.45 658.671 136.701 658.209 136.902C657.753 137.098 657.239 137.195 656.666 137.195C655.95 137.195 655.322 137.055 654.781 136.775C654.247 136.495 653.831 136.121 653.531 135.652C653.238 135.177 653.092 134.646 653.092 134.061C653.092 133.494 653.202 132.996 653.424 132.566C653.645 132.13 653.964 131.769 654.381 131.482C654.798 131.189 655.299 130.968 655.885 130.818C656.471 130.669 657.125 130.594 657.848 130.594H659.947ZM668.512 135.711C668.941 135.711 669.339 135.623 669.703 135.447C670.068 135.271 670.367 135.031 670.602 134.725C670.836 134.412 670.969 134.057 671.002 133.66H672.721C672.688 134.285 672.477 134.868 672.086 135.408C671.702 135.942 671.197 136.375 670.572 136.707C669.947 137.033 669.26 137.195 668.512 137.195C667.717 137.195 667.024 137.055 666.432 136.775C665.846 136.495 665.357 136.111 664.967 135.623C664.583 135.135 664.293 134.575 664.098 133.943C663.909 133.305 663.814 132.632 663.814 131.922V131.512C663.814 130.802 663.909 130.132 664.098 129.5C664.293 128.862 664.583 128.299 664.967 127.811C665.357 127.322 665.846 126.938 666.432 126.658C667.024 126.378 667.717 126.238 668.512 126.238C669.339 126.238 670.061 126.408 670.68 126.746C671.298 127.078 671.783 127.534 672.135 128.113C672.493 128.686 672.688 129.337 672.721 130.066H671.002C670.969 129.63 670.846 129.236 670.631 128.885C670.423 128.533 670.136 128.253 669.771 128.045C669.413 127.83 668.993 127.723 668.512 127.723C667.958 127.723 667.493 127.833 667.115 128.055C666.744 128.27 666.448 128.562 666.227 128.934C666.012 129.298 665.855 129.705 665.758 130.154C665.667 130.597 665.621 131.049 665.621 131.512V131.922C665.621 132.384 665.667 132.84 665.758 133.289C665.849 133.738 666.002 134.145 666.217 134.51C666.438 134.874 666.734 135.167 667.105 135.389C667.483 135.604 667.952 135.711 668.512 135.711ZM676.705 134.139L681.578 126.434H683.395V137H681.578V129.295L676.705 137H674.908V126.434H676.705V134.139ZM690.602 126.434V137H688.785V126.434H690.602ZM694.146 126.434V127.898H685.309V126.434H694.146Z" fill="black"/>
</g>
<defs>
<clipPath id="clip0_2713_648">
<rect width="900" height="158" fill="white"/>
</clipPath>
</defs>
</svg>
