<svg width="900" height="125" viewBox="0 0 900 125" fill="none" xmlns="http://www.w3.org/2000/svg">
<g clip-path="url(#clip0_2713_768)">
<rect width="900" height="125" fill="white"/>
<line y1="0.5" x2="900" y2="0.5" stroke="black"/>
<line y1="124.5" x2="900" y2="124.5" stroke="black"/>
<line x1="0.5" x2="0.5" y2="125" stroke="black"/>
<line x1="899.5" y1="1" x2="899.5" y2="125" stroke="black"/>
<path d="M39.1748 25.75V26.9219C39.1748 28.5332 38.9648 29.9785 38.5449 31.2578C38.125 32.5371 37.5244 33.626 36.7432 34.5244C35.9717 35.4229 35.0439 36.1113 33.96 36.5898C32.876 37.0586 31.6748 37.293 30.3564 37.293C29.0479 37.293 27.8516 37.0586 26.7676 36.5898C25.6934 36.1113 24.7607 35.4229 23.9697 34.5244C23.1787 33.626 22.5635 32.5371 22.124 31.2578C21.6943 29.9785 21.4795 28.5332 21.4795 26.9219V25.75C21.4795 24.1387 21.6943 22.6982 22.124 21.4287C22.5537 20.1494 23.1592 19.0605 23.9404 18.1621C24.7314 17.2539 25.6641 16.5654 26.7383 16.0967C27.8223 15.6182 29.0186 15.3789 30.3271 15.3789C31.6455 15.3789 32.8467 15.6182 33.9307 16.0967C35.0146 16.5654 35.9473 17.2539 36.7285 18.1621C37.5098 19.0605 38.1104 20.1494 38.5303 21.4287C38.96 22.6982 39.1748 24.1387 39.1748 25.75ZM35.498 26.9219V25.7207C35.498 24.5293 35.3809 23.4795 35.1465 22.5713C34.9219 21.6533 34.585 20.8867 34.1357 20.2715C33.6963 19.6465 33.1543 19.1777 32.5098 18.8652C31.8652 18.543 31.1377 18.3818 30.3271 18.3818C29.5166 18.3818 28.7939 18.543 28.1592 18.8652C27.5244 19.1777 26.9824 19.6465 26.5332 20.2715C26.0938 20.8867 25.7568 21.6533 25.5225 22.5713C25.2881 23.4795 25.1709 24.5293 25.1709 25.7207V26.9219C25.1709 28.1133 25.2881 29.168 25.5225 30.0859C25.7568 31.0039 26.0986 31.7803 26.5479 32.415C27.0068 33.04 27.5537 33.5137 28.1885 33.8359C28.8232 34.1484 29.5459 34.3047 30.3564 34.3047C31.1768 34.3047 31.9043 34.1484 32.5391 33.8359C33.1738 33.5137 33.7109 33.04 34.1504 32.415C34.5898 31.7803 34.9219 31.0039 35.1465 30.0859C35.3809 29.168 35.498 28.1133 35.498 26.9219ZM46.3086 21.1504V37H42.7783V21.1504H46.3086ZM56.6504 21.1504L49.5166 30.6865H45.4883L45.0195 27.4932H47.9639L52.2412 21.1504H56.6504ZM52.5195 37L47.7441 30.0859L50.5273 28.0791L57.1631 37H52.5195ZM57.8809 29.251V28.9141C57.8809 27.7715 58.0469 26.7119 58.3789 25.7354C58.7109 24.749 59.1895 23.8945 59.8145 23.1719C60.4492 22.4395 61.2207 21.873 62.1289 21.4727C63.0469 21.0625 64.082 20.8574 65.2344 20.8574C66.3965 20.8574 67.4316 21.0625 68.3398 21.4727C69.2578 21.873 70.0342 22.4395 70.6689 23.1719C71.3037 23.8945 71.7871 24.749 72.1191 25.7354C72.4512 26.7119 72.6172 27.7715 72.6172 28.9141V29.251C72.6172 30.3936 72.4512 31.4531 72.1191 32.4297C71.7871 33.4062 71.3037 34.2607 70.6689 34.9932C70.0342 35.7158 69.2627 36.2822 68.3545 36.6924C67.4463 37.0928 66.416 37.293 65.2637 37.293C64.1016 37.293 63.0615 37.0928 62.1436 36.6924C61.2354 36.2822 60.4639 35.7158 59.8291 34.9932C59.1943 34.2607 58.7109 33.4062 58.3789 32.4297C58.0469 31.4531 57.8809 30.3936 57.8809 29.251ZM61.4111 28.9141V29.251C61.4111 29.9639 61.4844 30.6377 61.6309 31.2725C61.7773 31.9072 62.0068 32.4639 62.3193 32.9424C62.6318 33.4209 63.0322 33.7969 63.5205 34.0703C64.0088 34.3438 64.5898 34.4805 65.2637 34.4805C65.918 34.4805 66.4844 34.3438 66.9629 34.0703C67.4512 33.7969 67.8516 33.4209 68.1641 32.9424C68.4766 32.4639 68.7061 31.9072 68.8525 31.2725C69.0088 30.6377 69.0869 29.9639 69.0869 29.251V28.9141C69.0869 28.2109 69.0088 27.5469 68.8525 26.9219C68.7061 26.2871 68.4717 25.7256 68.1494 25.2373C67.8369 24.749 67.4365 24.3682 66.9482 24.0947C66.4697 23.8115 65.8984 23.6699 65.2344 23.6699C64.5703 23.6699 63.9941 23.8115 63.5059 24.0947C63.0273 24.3682 62.6318 24.749 62.3193 25.2373C62.0068 25.7256 61.7773 26.2871 61.6309 26.9219C61.4844 27.5469 61.4111 28.2109 61.4111 28.9141ZM86.4014 27.7715V30.5547H78.1982V27.7715H86.4014ZM79.2236 21.1504V37H75.6934V21.1504H79.2236ZM88.9502 21.1504V37H85.4199V21.1504H88.9502ZM105.444 21.1504V37H101.914V21.1504H105.444ZM103.95 28.167V30.9648C103.521 31.1504 103.037 31.3213 102.5 31.4775C101.973 31.624 101.416 31.7461 100.83 31.8438C100.244 31.9316 99.6533 31.9756 99.0576 31.9756C97.6611 31.9756 96.4551 31.7607 95.4395 31.3311C94.4336 30.9014 93.6572 30.2422 93.1104 29.3535C92.5732 28.4551 92.3047 27.3174 92.3047 25.9404V21.1357H95.8203V25.9404C95.8203 26.7314 95.9375 27.3613 96.1719 27.8301C96.416 28.2988 96.7773 28.6357 97.2559 28.8408C97.7344 29.0459 98.335 29.1484 99.0576 29.1484C99.6631 29.1484 100.234 29.1094 100.771 29.0312C101.309 28.9434 101.841 28.8262 102.368 28.6797C102.896 28.5332 103.423 28.3623 103.95 28.167ZM118.145 33.8213V26.2627C118.145 25.6963 118.042 25.208 117.837 24.7979C117.632 24.3877 117.319 24.0703 116.899 23.8457C116.489 23.6211 115.972 23.5088 115.347 23.5088C114.771 23.5088 114.272 23.6064 113.853 23.8018C113.433 23.9971 113.105 24.2607 112.871 24.5928C112.637 24.9248 112.52 25.3008 112.52 25.7207H109.004C109.004 25.0957 109.155 24.4902 109.458 23.9043C109.761 23.3184 110.2 22.7959 110.776 22.3369C111.353 21.8779 112.041 21.5166 112.842 21.2529C113.643 20.9893 114.541 20.8574 115.537 20.8574C116.729 20.8574 117.783 21.0576 118.701 21.458C119.629 21.8584 120.356 22.4639 120.884 23.2744C121.421 24.0752 121.689 25.0811 121.689 26.292V33.3379C121.689 34.0605 121.738 34.71 121.836 35.2861C121.943 35.8525 122.095 36.3457 122.29 36.7656V37H118.672C118.506 36.6191 118.374 36.1357 118.276 35.5498C118.188 34.9541 118.145 34.3779 118.145 33.8213ZM118.657 27.3613L118.687 29.5439H116.152C115.498 29.5439 114.922 29.6074 114.424 29.7344C113.926 29.8516 113.511 30.0273 113.179 30.2617C112.847 30.4961 112.598 30.7793 112.432 31.1113C112.266 31.4434 112.183 31.8193 112.183 32.2393C112.183 32.6592 112.28 33.0449 112.476 33.3965C112.671 33.7383 112.954 34.0068 113.325 34.2021C113.706 34.3975 114.165 34.4951 114.702 34.4951C115.425 34.4951 116.055 34.3486 116.592 34.0557C117.139 33.7529 117.568 33.3867 117.881 32.957C118.193 32.5176 118.359 32.1025 118.379 31.7119L119.521 33.2793C119.404 33.6797 119.204 34.1094 118.921 34.5684C118.638 35.0273 118.267 35.4668 117.808 35.8867C117.358 36.2969 116.816 36.6338 116.182 36.8975C115.557 37.1611 114.834 37.293 114.014 37.293C112.979 37.293 112.056 37.0879 111.245 36.6777C110.435 36.2578 109.8 35.6963 109.341 34.9932C108.882 34.2803 108.652 33.4746 108.652 32.5762C108.652 31.7363 108.809 30.9941 109.121 30.3496C109.443 29.6953 109.912 29.1484 110.527 28.709C111.152 28.2695 111.914 27.9375 112.812 27.7129C113.711 27.4785 114.736 27.3613 115.889 27.3613H118.657ZM136.206 27.7715V30.5547H128.003V27.7715H136.206ZM129.028 21.1504V37H125.498V21.1504H129.028ZM138.755 21.1504V37H135.225V21.1504H138.755ZM146.167 31.8438L152.393 21.1504H155.923V37H152.393V26.292L146.167 37H142.637V21.1504H146.167V31.8438ZM162.998 29.251H166.66L162.163 37H158.516L162.998 29.251ZM165.576 21.1504H172.373V37H168.857V23.9336H165.576C164.912 23.9336 164.365 24.0508 163.936 24.2852C163.506 24.5098 163.188 24.8076 162.983 25.1787C162.778 25.54 162.676 25.9111 162.676 26.292C162.676 26.6729 162.769 27.0391 162.954 27.3906C163.149 27.7422 163.447 28.0303 163.848 28.2549C164.258 28.4795 164.771 28.5918 165.386 28.5918H170.044V31.1699H165.386C164.409 31.1699 163.535 31.0479 162.764 30.8037C161.992 30.5498 161.338 30.2031 160.801 29.7637C160.264 29.3145 159.854 28.792 159.57 28.1963C159.287 27.5908 159.146 26.9316 159.146 26.2188C159.146 25.4863 159.292 24.8125 159.585 24.1973C159.878 23.582 160.298 23.0449 160.845 22.5859C161.401 22.127 162.075 21.7754 162.866 21.5312C163.667 21.2773 164.57 21.1504 165.576 21.1504Z" fill="black"/>
<path d="M255.903 15.6719V37H252.241V15.6719H255.903ZM268.735 15.6719L260.063 27.8301H254.863L254.365 24.6367H258.027L264.238 15.6719H268.735ZM264.985 37L258.086 27.2734L260.459 24.4463L269.395 37H264.985ZM291.353 21.1504V37H287.822V21.1504H291.353ZM289.858 28.167V30.9648C289.429 31.1504 288.945 31.3213 288.408 31.4775C287.881 31.624 287.324 31.7461 286.738 31.8438C286.152 31.9316 285.562 31.9756 284.966 31.9756C283.569 31.9756 282.363 31.7607 281.348 31.3311C280.342 30.9014 279.565 30.2422 279.019 29.3535C278.481 28.4551 278.213 27.3174 278.213 25.9404V21.1357H281.729V25.9404C281.729 26.7314 281.846 27.3613 282.08 27.8301C282.324 28.2988 282.686 28.6357 283.164 28.8408C283.643 29.0459 284.243 29.1484 284.966 29.1484C285.571 29.1484 286.143 29.1094 286.68 29.0312C287.217 28.9434 287.749 28.8262 288.276 28.6797C288.804 28.5332 289.331 28.3623 289.858 28.167ZM302.104 37.293C300.933 37.293 299.873 37.1025 298.926 36.7217C297.988 36.3311 297.188 35.7891 296.523 35.0957C295.869 34.4023 295.366 33.5869 295.015 32.6494C294.663 31.7119 294.487 30.7012 294.487 29.6172V29.0312C294.487 27.791 294.668 26.668 295.029 25.6621C295.391 24.6562 295.894 23.7969 296.538 23.084C297.183 22.3613 297.944 21.8096 298.823 21.4287C299.702 21.0479 300.654 20.8574 301.68 20.8574C302.812 20.8574 303.804 21.0479 304.653 21.4287C305.503 21.8096 306.206 22.3467 306.763 23.04C307.329 23.7236 307.749 24.5391 308.022 25.4863C308.306 26.4336 308.447 27.4785 308.447 28.6211V30.1299H296.201V27.5957H304.961V27.3174C304.941 26.6826 304.814 26.0869 304.58 25.5303C304.355 24.9736 304.009 24.5244 303.54 24.1826C303.071 23.8408 302.446 23.6699 301.665 23.6699C301.079 23.6699 300.557 23.7969 300.098 24.0508C299.648 24.2949 299.272 24.6514 298.97 25.1201C298.667 25.5889 298.433 26.1553 298.267 26.8193C298.11 27.4736 298.032 28.2109 298.032 29.0312V29.6172C298.032 30.3105 298.125 30.9551 298.311 31.5508C298.506 32.1367 298.789 32.6494 299.16 33.0889C299.531 33.5283 299.98 33.875 300.508 34.1289C301.035 34.373 301.636 34.4951 302.31 34.4951C303.159 34.4951 303.916 34.3242 304.58 33.9824C305.244 33.6406 305.82 33.1572 306.309 32.5322L308.169 34.334C307.827 34.832 307.383 35.3105 306.836 35.7695C306.289 36.2188 305.62 36.585 304.829 36.8682C304.048 37.1514 303.14 37.293 302.104 37.293ZM320.62 32.7227L325.337 21.1504H328.398L321.821 37H319.419L312.856 21.1504H315.918L320.62 32.7227ZM315.01 21.1504V37H311.479V21.1504H315.01ZM326.23 37V21.1504H329.775V37H326.23ZM338.33 35.2715L342.637 21.1504H346.416L340.059 39.417C339.912 39.8076 339.722 40.2324 339.487 40.6914C339.253 41.1504 338.945 41.585 338.564 41.9951C338.193 42.415 337.729 42.752 337.173 43.0059C336.616 43.2695 335.942 43.4014 335.151 43.4014C334.839 43.4014 334.536 43.3721 334.243 43.3135C333.96 43.2646 333.691 43.2109 333.438 43.1523L333.423 40.457C333.521 40.4668 333.638 40.4766 333.774 40.4863C333.921 40.4961 334.038 40.501 334.126 40.501C334.712 40.501 335.2 40.4277 335.591 40.2812C335.981 40.1445 336.299 39.9199 336.543 39.6074C336.797 39.2949 337.012 38.875 337.188 38.3477L338.33 35.2715ZM335.898 21.1504L339.663 33.0156L340.293 36.7363L337.847 37.3662L332.09 21.1504H335.898ZM366.543 21.1504V23.9629H358.721V21.1504H366.543ZM359.556 21.1504V37H356.025V21.1504H359.556ZM369.312 21.1504V37H365.767V21.1504H369.312ZM376.592 24.1973V43.0938H373.062V21.1504H376.313L376.592 24.1973ZM386.919 28.9287V29.2363C386.919 30.3887 386.782 31.458 386.509 32.4443C386.245 33.4209 385.85 34.2754 385.322 35.0078C384.805 35.7305 384.165 36.292 383.403 36.6924C382.642 37.0928 381.763 37.293 380.767 37.293C379.78 37.293 378.916 37.1123 378.174 36.751C377.441 36.3799 376.821 35.8574 376.313 35.1836C375.806 34.5098 375.396 33.7188 375.083 32.8105C374.78 31.8926 374.565 30.8867 374.438 29.793V28.6064C374.565 27.4443 374.78 26.3896 375.083 25.4424C375.396 24.4951 375.806 23.6797 376.313 22.9961C376.821 22.3125 377.441 21.7852 378.174 21.4141C378.906 21.043 379.761 20.8574 380.737 20.8574C381.733 20.8574 382.617 21.0527 383.389 21.4434C384.16 21.8242 384.81 22.3711 385.337 23.084C385.864 23.7871 386.26 24.6367 386.523 25.6328C386.787 26.6191 386.919 27.7178 386.919 28.9287ZM383.389 29.2363V28.9287C383.389 28.1963 383.32 27.5176 383.184 26.8926C383.047 26.2578 382.832 25.7012 382.539 25.2227C382.246 24.7441 381.87 24.373 381.411 24.1094C380.962 23.8359 380.42 23.6992 379.785 23.6992C379.16 23.6992 378.623 23.8066 378.174 24.0215C377.725 24.2266 377.349 24.5146 377.046 24.8857C376.743 25.2568 376.509 25.6914 376.343 26.1895C376.177 26.6777 376.06 27.21 375.991 27.7861V30.6279C376.108 31.3311 376.309 31.9756 376.592 32.5615C376.875 33.1475 377.275 33.6162 377.793 33.9678C378.32 34.3096 378.994 34.4805 379.814 34.4805C380.449 34.4805 380.991 34.3438 381.44 34.0703C381.89 33.7969 382.256 33.4209 382.539 32.9424C382.832 32.4541 383.047 31.8926 383.184 31.2578C383.32 30.623 383.389 29.9492 383.389 29.2363ZM393.569 31.8438L399.795 21.1504H403.325V37H399.795V26.292L393.569 37H390.039V21.1504H393.569V31.8438ZM413.535 34.4805C414.111 34.4805 414.629 34.3682 415.088 34.1436C415.557 33.9092 415.933 33.5869 416.216 33.1768C416.509 32.7666 416.67 32.293 416.699 31.7559H420.024C420.005 32.7812 419.702 33.7139 419.116 34.5537C418.53 35.3936 417.754 36.0625 416.787 36.5605C415.82 37.0488 414.751 37.293 413.579 37.293C412.368 37.293 411.313 37.0879 410.415 36.6777C409.517 36.2578 408.77 35.6816 408.174 34.9492C407.578 34.2168 407.129 33.3721 406.826 32.415C406.533 31.458 406.387 30.4326 406.387 29.3389V28.8262C406.387 27.7324 406.533 26.707 406.826 25.75C407.129 24.7832 407.578 23.9336 408.174 23.2012C408.77 22.4688 409.517 21.8975 410.415 21.4873C411.313 21.0674 412.363 20.8574 413.564 20.8574C414.834 20.8574 415.947 21.1113 416.904 21.6191C417.861 22.1172 418.613 22.8154 419.16 23.7139C419.717 24.6025 420.005 25.6377 420.024 26.8193H416.699C416.67 26.2334 416.523 25.7061 416.26 25.2373C416.006 24.7588 415.645 24.3779 415.176 24.0947C414.717 23.8115 414.165 23.6699 413.521 23.6699C412.808 23.6699 412.217 23.8164 411.748 24.1094C411.279 24.3926 410.913 24.7832 410.649 25.2812C410.386 25.7695 410.195 26.3213 410.078 26.9365C409.971 27.542 409.917 28.1719 409.917 28.8262V29.3389C409.917 29.9932 409.971 30.6279 410.078 31.2432C410.186 31.8584 410.371 32.4102 410.635 32.8984C410.908 33.377 411.279 33.7627 411.748 34.0557C412.217 34.3389 412.812 34.4805 413.535 34.4805ZM422.061 29.251V28.9141C422.061 27.7715 422.227 26.7119 422.559 25.7354C422.891 24.749 423.369 23.8945 423.994 23.1719C424.629 22.4395 425.4 21.873 426.309 21.4727C427.227 21.0625 428.262 20.8574 429.414 20.8574C430.576 20.8574 431.611 21.0625 432.52 21.4727C433.438 21.873 434.214 22.4395 434.849 23.1719C435.483 23.8945 435.967 24.749 436.299 25.7354C436.631 26.7119 436.797 27.7715 436.797 28.9141V29.251C436.797 30.3936 436.631 31.4531 436.299 32.4297C435.967 33.4062 435.483 34.2607 434.849 34.9932C434.214 35.7158 433.442 36.2822 432.534 36.6924C431.626 37.0928 430.596 37.293 429.443 37.293C428.281 37.293 427.241 37.0928 426.323 36.6924C425.415 36.2822 424.644 35.7158 424.009 34.9932C423.374 34.2607 422.891 33.4062 422.559 32.4297C422.227 31.4531 422.061 30.3936 422.061 29.251ZM425.591 28.9141V29.251C425.591 29.9639 425.664 30.6377 425.811 31.2725C425.957 31.9072 426.187 32.4639 426.499 32.9424C426.812 33.4209 427.212 33.7969 427.7 34.0703C428.188 34.3438 428.77 34.4805 429.443 34.4805C430.098 34.4805 430.664 34.3438 431.143 34.0703C431.631 33.7969 432.031 33.4209 432.344 32.9424C432.656 32.4639 432.886 31.9072 433.032 31.2725C433.188 30.6377 433.267 29.9639 433.267 29.251V28.9141C433.267 28.2109 433.188 27.5469 433.032 26.9219C432.886 26.2871 432.651 25.7256 432.329 25.2373C432.017 24.749 431.616 24.3682 431.128 24.0947C430.649 23.8115 430.078 23.6699 429.414 23.6699C428.75 23.6699 428.174 23.8115 427.686 24.0947C427.207 24.3682 426.812 24.749 426.499 25.2373C426.187 25.7256 425.957 26.2871 425.811 26.9219C425.664 27.5469 425.591 28.2109 425.591 28.9141ZM446.743 37.293C445.571 37.293 444.512 37.1025 443.564 36.7217C442.627 36.3311 441.826 35.7891 441.162 35.0957C440.508 34.4023 440.005 33.5869 439.653 32.6494C439.302 31.7119 439.126 30.7012 439.126 29.6172V29.0312C439.126 27.791 439.307 26.668 439.668 25.6621C440.029 24.6562 440.532 23.7969 441.177 23.084C441.821 22.3613 442.583 21.8096 443.462 21.4287C444.341 21.0479 445.293 20.8574 446.318 20.8574C447.451 20.8574 448.442 21.0479 449.292 21.4287C450.142 21.8096 450.845 22.3467 451.401 23.04C451.968 23.7236 452.388 24.5391 452.661 25.4863C452.944 26.4336 453.086 27.4785 453.086 28.6211V30.1299H440.84V27.5957H449.6V27.3174C449.58 26.6826 449.453 26.0869 449.219 25.5303C448.994 24.9736 448.647 24.5244 448.179 24.1826C447.71 23.8408 447.085 23.6699 446.304 23.6699C445.718 23.6699 445.195 23.7969 444.736 24.0508C444.287 24.2949 443.911 24.6514 443.608 25.1201C443.306 25.5889 443.071 26.1553 442.905 26.8193C442.749 27.4736 442.671 28.2109 442.671 29.0312V29.6172C442.671 30.3105 442.764 30.9551 442.949 31.5508C443.145 32.1367 443.428 32.6494 443.799 33.0889C444.17 33.5283 444.619 33.875 445.146 34.1289C445.674 34.373 446.274 34.4951 446.948 34.4951C447.798 34.4951 448.555 34.3242 449.219 33.9824C449.883 33.6406 450.459 33.1572 450.947 32.5322L452.808 34.334C452.466 34.832 452.021 35.3105 451.475 35.7695C450.928 36.2188 450.259 36.585 449.468 36.8682C448.687 37.1514 447.778 37.293 446.743 37.293ZM458.711 21.1504H462.241L462.065 26.7314C462.017 28.3525 461.831 29.7441 461.509 30.9062C461.187 32.0684 460.767 33.0498 460.249 33.8506C459.731 34.6416 459.146 35.291 458.491 35.7988C457.847 36.3066 457.168 36.707 456.455 37H455.415V34.2168L455.913 34.1875C456.333 33.7383 456.694 33.2891 456.997 32.8398C457.31 32.3809 457.573 31.8779 457.788 31.3311C458.003 30.7744 458.169 30.125 458.286 29.3828C458.413 28.6406 458.496 27.7568 458.535 26.7314L458.711 21.1504ZM459.648 21.1504H469.697V37H466.182V24.1387H459.648V21.1504ZM454.609 34.1875H471.865V41.7168H468.335V37H458.184V41.7168H454.595L454.609 34.1875ZM474.531 35.2422C474.531 34.6953 474.717 34.2363 475.088 33.8652C475.459 33.4844 475.962 33.2939 476.597 33.2939C477.241 33.2939 477.744 33.4844 478.105 33.8652C478.477 34.2363 478.662 34.6953 478.662 35.2422C478.662 35.7891 478.477 36.248 478.105 36.6191C477.744 36.9902 477.241 37.1758 476.597 37.1758C475.962 37.1758 475.459 36.9902 475.088 36.6191C474.717 36.248 474.531 35.7891 474.531 35.2422ZM489.341 30.7158H486.074C486.084 29.8076 486.162 29.0459 486.309 28.4307C486.455 27.8057 486.699 27.2393 487.041 26.7314C487.393 26.2236 487.856 25.6865 488.433 25.1201C488.882 24.6904 489.287 24.2852 489.648 23.9043C490.01 23.5137 490.298 23.1035 490.513 22.6738C490.728 22.2344 490.835 21.7314 490.835 21.165C490.835 20.5498 490.732 20.0273 490.527 19.5977C490.322 19.168 490.02 18.8408 489.619 18.6162C489.229 18.3916 488.74 18.2793 488.154 18.2793C487.666 18.2793 487.207 18.377 486.777 18.5723C486.348 18.7578 486.001 19.0508 485.737 19.4512C485.474 19.8418 485.332 20.3594 485.312 21.0039H481.782C481.802 19.7734 482.095 18.7383 482.661 17.8984C483.228 17.0586 483.989 16.4287 484.946 16.0088C485.903 15.5889 486.973 15.3789 488.154 15.3789C489.463 15.3789 490.581 15.6035 491.509 16.0527C492.437 16.4922 493.145 17.1367 493.633 17.9863C494.131 18.8262 494.38 19.8418 494.38 21.0332C494.38 21.8926 494.209 22.6738 493.867 23.377C493.525 24.0703 493.081 24.7197 492.534 25.3252C491.987 25.9209 491.396 26.5166 490.762 27.1123C490.215 27.6104 489.844 28.1523 489.648 28.7383C489.453 29.3145 489.351 29.9736 489.341 30.7158ZM485.781 35.2861C485.781 34.7588 485.962 34.3145 486.323 33.9531C486.685 33.582 487.178 33.3965 487.803 33.3965C488.428 33.3965 488.921 33.582 489.282 33.9531C489.644 34.3145 489.824 34.7588 489.824 35.2861C489.824 35.8135 489.644 36.2627 489.282 36.6338C488.921 36.9951 488.428 37.1758 487.803 37.1758C487.178 37.1758 486.685 36.9951 486.323 36.6338C485.962 36.2627 485.781 35.8135 485.781 35.2861Z" fill="black"/>
<path d="M551.124 15.6719H554.801V22.2783C554.801 23.2842 554.952 24.0752 555.255 24.6514C555.558 25.2178 556.017 25.6182 556.632 25.8525C557.257 26.0869 558.033 26.2041 558.961 26.2041C559.41 26.2041 559.884 26.1846 560.382 26.1455C560.88 26.1064 561.378 26.0527 561.876 25.9844C562.384 25.9062 562.872 25.8184 563.341 25.7207C563.81 25.6133 564.239 25.4961 564.63 25.3691V28.2842C564.249 28.4014 563.829 28.5137 563.37 28.6211C562.921 28.7285 562.452 28.8213 561.964 28.8994C561.476 28.9678 560.978 29.0215 560.47 29.0605C559.962 29.0996 559.459 29.1191 558.961 29.1191C557.35 29.1191 555.958 28.8896 554.786 28.4307C553.614 27.9619 552.711 27.2246 552.076 26.2188C551.441 25.2129 551.124 23.8994 551.124 22.2783V15.6719ZM563.795 15.6719H567.472V37H563.795V15.6719ZM578.883 21.1504V37H575.338V21.1504H578.883ZM584.083 21.1504V23.9336H570.226V21.1504H584.083ZM585.211 29.251V28.9141C585.211 27.7715 585.377 26.7119 585.709 25.7354C586.041 24.749 586.52 23.8945 587.145 23.1719C587.779 22.4395 588.551 21.873 589.459 21.4727C590.377 21.0625 591.412 20.8574 592.564 20.8574C593.727 20.8574 594.762 21.0625 595.67 21.4727C596.588 21.873 597.364 22.4395 597.999 23.1719C598.634 23.8945 599.117 24.749 599.449 25.7354C599.781 26.7119 599.947 27.7715 599.947 28.9141V29.251C599.947 30.3936 599.781 31.4531 599.449 32.4297C599.117 33.4062 598.634 34.2607 597.999 34.9932C597.364 35.7158 596.593 36.2822 595.685 36.6924C594.776 37.0928 593.746 37.293 592.594 37.293C591.432 37.293 590.392 37.0928 589.474 36.6924C588.565 36.2822 587.794 35.7158 587.159 34.9932C586.524 34.2607 586.041 33.4062 585.709 32.4297C585.377 31.4531 585.211 30.3936 585.211 29.251ZM588.741 28.9141V29.251C588.741 29.9639 588.814 30.6377 588.961 31.2725C589.107 31.9072 589.337 32.4639 589.649 32.9424C589.962 33.4209 590.362 33.7969 590.851 34.0703C591.339 34.3438 591.92 34.4805 592.594 34.4805C593.248 34.4805 593.814 34.3438 594.293 34.0703C594.781 33.7969 595.182 33.4209 595.494 32.9424C595.807 32.4639 596.036 31.9072 596.183 31.2725C596.339 30.6377 596.417 29.9639 596.417 29.251V28.9141C596.417 28.2109 596.339 27.5469 596.183 26.9219C596.036 26.2871 595.802 25.7256 595.479 25.2373C595.167 24.749 594.767 24.3682 594.278 24.0947C593.8 23.8115 593.229 23.6699 592.564 23.6699C591.9 23.6699 591.324 23.8115 590.836 24.0947C590.357 24.3682 589.962 24.749 589.649 25.2373C589.337 25.7256 589.107 26.2871 588.961 26.9219C588.814 27.5469 588.741 28.2109 588.741 28.9141ZM613.248 21.1504H616.778L616.603 26.7314C616.554 28.3525 616.368 29.7441 616.046 30.9062C615.724 32.0684 615.304 33.0498 614.786 33.8506C614.269 34.6416 613.683 35.291 613.028 35.7988C612.384 36.3066 611.705 36.707 610.992 37H609.952V34.2168L610.45 34.1875C610.87 33.7383 611.231 33.2891 611.534 32.8398C611.847 32.3809 612.11 31.8779 612.325 31.3311C612.54 30.7744 612.706 30.125 612.823 29.3828C612.95 28.6406 613.033 27.7568 613.072 26.7314L613.248 21.1504ZM614.186 21.1504H624.234V37H620.719V24.1387H614.186V21.1504ZM609.146 34.1875H626.402V41.7168H622.872V37H612.721V41.7168H609.132L609.146 34.1875ZM637.857 33.8213V26.2627C637.857 25.6963 637.755 25.208 637.55 24.7979C637.345 24.3877 637.032 24.0703 636.612 23.8457C636.202 23.6211 635.685 23.5088 635.06 23.5088C634.483 23.5088 633.985 23.6064 633.565 23.8018C633.146 23.9971 632.818 24.2607 632.584 24.5928C632.35 24.9248 632.232 25.3008 632.232 25.7207H628.717C628.717 25.0957 628.868 24.4902 629.171 23.9043C629.474 23.3184 629.913 22.7959 630.489 22.3369C631.065 21.8779 631.754 21.5166 632.555 21.2529C633.355 20.9893 634.254 20.8574 635.25 20.8574C636.441 20.8574 637.496 21.0576 638.414 21.458C639.342 21.8584 640.069 22.4639 640.597 23.2744C641.134 24.0752 641.402 25.0811 641.402 26.292V33.3379C641.402 34.0605 641.451 34.71 641.549 35.2861C641.656 35.8525 641.808 36.3457 642.003 36.7656V37H638.385C638.219 36.6191 638.087 36.1357 637.989 35.5498C637.901 34.9541 637.857 34.3779 637.857 33.8213ZM638.37 27.3613L638.399 29.5439H635.865C635.211 29.5439 634.635 29.6074 634.137 29.7344C633.639 29.8516 633.224 30.0273 632.892 30.2617C632.56 30.4961 632.311 30.7793 632.145 31.1113C631.979 31.4434 631.896 31.8193 631.896 32.2393C631.896 32.6592 631.993 33.0449 632.188 33.3965C632.384 33.7383 632.667 34.0068 633.038 34.2021C633.419 34.3975 633.878 34.4951 634.415 34.4951C635.138 34.4951 635.768 34.3486 636.305 34.0557C636.852 33.7529 637.281 33.3867 637.594 32.957C637.906 32.5176 638.072 32.1025 638.092 31.7119L639.234 33.2793C639.117 33.6797 638.917 34.1094 638.634 34.5684C638.351 35.0273 637.979 35.4668 637.521 35.8867C637.071 36.2969 636.529 36.6338 635.895 36.8975C635.27 37.1611 634.547 37.293 633.727 37.293C632.691 37.293 631.769 37.0879 630.958 36.6777C630.147 36.2578 629.513 35.6963 629.054 34.9932C628.595 34.2803 628.365 33.4746 628.365 32.5762C628.365 31.7363 628.521 30.9941 628.834 30.3496C629.156 29.6953 629.625 29.1484 630.24 28.709C630.865 28.2695 631.627 27.9375 632.525 27.7129C633.424 27.4785 634.449 27.3613 635.602 27.3613H638.37ZM652.081 37.293C650.909 37.293 649.85 37.1025 648.902 36.7217C647.965 36.3311 647.164 35.7891 646.5 35.0957C645.846 34.4023 645.343 33.5869 644.991 32.6494C644.64 31.7119 644.464 30.7012 644.464 29.6172V29.0312C644.464 27.791 644.645 26.668 645.006 25.6621C645.367 24.6562 645.87 23.7969 646.515 23.084C647.159 22.3613 647.921 21.8096 648.8 21.4287C649.679 21.0479 650.631 20.8574 651.656 20.8574C652.789 20.8574 653.78 21.0479 654.63 21.4287C655.479 21.8096 656.183 22.3467 656.739 23.04C657.306 23.7236 657.726 24.5391 657.999 25.4863C658.282 26.4336 658.424 27.4785 658.424 28.6211V30.1299H646.178V27.5957H654.938V27.3174C654.918 26.6826 654.791 26.0869 654.557 25.5303C654.332 24.9736 653.985 24.5244 653.517 24.1826C653.048 23.8408 652.423 23.6699 651.642 23.6699C651.056 23.6699 650.533 23.7969 650.074 24.0508C649.625 24.2949 649.249 24.6514 648.946 25.1201C648.644 25.5889 648.409 26.1553 648.243 26.8193C648.087 27.4736 648.009 28.2109 648.009 29.0312V29.6172C648.009 30.3105 648.102 30.9551 648.287 31.5508C648.482 32.1367 648.766 32.6494 649.137 33.0889C649.508 33.5283 649.957 33.875 650.484 34.1289C651.012 34.373 651.612 34.4951 652.286 34.4951C653.136 34.4951 653.893 34.3242 654.557 33.9824C655.221 33.6406 655.797 33.1572 656.285 32.5322L658.146 34.334C657.804 34.832 657.359 35.3105 656.812 35.7695C656.266 36.2188 655.597 36.585 654.806 36.8682C654.024 37.1514 653.116 37.293 652.081 37.293ZM646.178 16.9463C646.178 16.4678 646.344 16.0674 646.676 15.7451C647.008 15.4131 647.447 15.2471 647.994 15.2471C648.551 15.2471 648.995 15.4131 649.327 15.7451C649.659 16.0674 649.825 16.4678 649.825 16.9463C649.825 17.415 649.659 17.8154 649.327 18.1475C648.995 18.4697 648.551 18.6309 647.994 18.6309C647.447 18.6309 647.008 18.4697 646.676 18.1475C646.344 17.8154 646.178 17.415 646.178 16.9463ZM652.96 16.9609C652.96 16.4824 653.126 16.082 653.458 15.7598C653.79 15.4277 654.234 15.2617 654.791 15.2617C655.338 15.2617 655.777 15.4277 656.109 15.7598C656.451 16.082 656.622 16.4824 656.622 16.9609C656.622 17.4297 656.451 17.8301 656.109 18.1621C655.777 18.4844 655.338 18.6455 654.791 18.6455C654.234 18.6455 653.79 18.4844 653.458 18.1621C653.126 17.8301 652.96 17.4297 652.96 16.9609ZM668.355 21.1504V37H664.811V21.1504H668.355ZM673.556 21.1504V23.9336H659.698V21.1504H673.556ZM682.521 30.7158H679.254C679.264 29.8076 679.342 29.0459 679.488 28.4307C679.635 27.8057 679.879 27.2393 680.221 26.7314C680.572 26.2236 681.036 25.6865 681.612 25.1201C682.062 24.6904 682.467 24.2852 682.828 23.9043C683.189 23.5137 683.478 23.1035 683.692 22.6738C683.907 22.2344 684.015 21.7314 684.015 21.165C684.015 20.5498 683.912 20.0273 683.707 19.5977C683.502 19.168 683.199 18.8408 682.799 18.6162C682.408 18.3916 681.92 18.2793 681.334 18.2793C680.846 18.2793 680.387 18.377 679.957 18.5723C679.527 18.7578 679.181 19.0508 678.917 19.4512C678.653 19.8418 678.512 20.3594 678.492 21.0039H674.962C674.981 19.7734 675.274 18.7383 675.841 17.8984C676.407 17.0586 677.169 16.4287 678.126 16.0088C679.083 15.5889 680.152 15.3789 681.334 15.3789C682.643 15.3789 683.761 15.6035 684.688 16.0527C685.616 16.4922 686.324 17.1367 686.812 17.9863C687.311 18.8262 687.56 19.8418 687.56 21.0332C687.56 21.8926 687.389 22.6738 687.047 23.377C686.705 24.0703 686.261 24.7197 685.714 25.3252C685.167 25.9209 684.576 26.5166 683.941 27.1123C683.395 27.6104 683.023 28.1523 682.828 28.7383C682.633 29.3145 682.53 29.9736 682.521 30.7158ZM678.961 35.2861C678.961 34.7588 679.142 34.3145 679.503 33.9531C679.864 33.582 680.357 33.3965 680.982 33.3965C681.607 33.3965 682.101 33.582 682.462 33.9531C682.823 34.3145 683.004 34.7588 683.004 35.2861C683.004 35.8135 682.823 36.2627 682.462 36.6338C682.101 36.9951 681.607 37.1758 680.982 37.1758C680.357 37.1758 679.864 36.9951 679.503 36.6338C679.142 36.2627 678.961 35.8135 678.961 35.2861Z" fill="black"/>
<line x1="1" y1="52.5" x2="901" y2="52.5" stroke="black"/>
<path d="M38.1836 86.3623V90.0708H21.1279V86.3623H38.1836ZM31.6553 79.3896V97.5049H27.6733V79.3896H31.6553ZM58.7598 81.5088V84.5166H48.335V81.5088H58.7598ZM51.3428 76.98H55.4614V94.8901C55.4614 95.4598 55.5412 95.8984 55.7007 96.2061C55.8716 96.5023 56.1051 96.7017 56.4014 96.8042C56.6976 96.9067 57.0451 96.958 57.4438 96.958C57.7287 96.958 58.0021 96.9409 58.2642 96.9067C58.5262 96.8726 58.737 96.8384 58.8965 96.8042L58.9136 99.9487C58.5718 100.051 58.173 100.142 57.7173 100.222C57.2729 100.302 56.7603 100.342 56.1792 100.342C55.2336 100.342 54.3962 100.177 53.667 99.8462C52.9378 99.5044 52.3682 98.9518 51.958 98.1885C51.5479 97.4251 51.3428 96.4111 51.3428 95.1465V76.98ZM66.0059 73.75V100H61.9043V73.75H66.0059ZM65.2881 90.0708L63.9551 90.0537C63.9665 88.7777 64.1431 87.5985 64.4849 86.5161C64.8381 85.4338 65.328 84.4938 65.9546 83.6963C66.5926 82.8874 67.356 82.2664 68.2446 81.8335C69.1333 81.3892 70.1188 81.167 71.2012 81.167C72.1126 81.167 72.9329 81.2923 73.6621 81.543C74.4027 81.7936 75.0407 82.1981 75.5762 82.7563C76.1117 83.3032 76.5161 84.021 76.7896 84.9097C77.0744 85.7869 77.2168 86.8579 77.2168 88.1226V100H73.0811V88.0884C73.0811 87.1997 72.95 86.4933 72.688 85.9692C72.4373 85.4451 72.0671 85.0692 71.5771 84.8413C71.0872 84.6021 70.4891 84.4824 69.7827 84.4824C69.0422 84.4824 68.387 84.6305 67.8174 84.9268C67.2591 85.223 66.792 85.6274 66.416 86.1401C66.04 86.6528 65.7552 87.2453 65.5615 87.9175C65.3792 88.5897 65.2881 89.3075 65.2881 90.0708Z" fill="black"/>
<path d="M253.75 70.4336V81H251.396V70.4336H253.75ZM260.645 70.4336L255.889 76.791H253.203L252.891 74.6621H254.854L257.705 70.4336H260.645ZM257.891 81L254.707 76.3906L256.562 75.0527L260.986 81H257.891ZM261.465 75.834V75.6094C261.465 74.8477 261.576 74.1413 261.797 73.4902C262.018 72.8327 262.337 72.263 262.754 71.7812C263.177 71.293 263.691 70.9154 264.297 70.6484C264.909 70.375 265.599 70.2383 266.367 70.2383C267.142 70.2383 267.832 70.375 268.438 70.6484C269.049 70.9154 269.567 71.293 269.99 71.7812C270.413 72.263 270.736 72.8327 270.957 73.4902C271.178 74.1413 271.289 74.8477 271.289 75.6094V75.834C271.289 76.5957 271.178 77.3021 270.957 77.9531C270.736 78.6042 270.413 79.1738 269.99 79.6621C269.567 80.1439 269.053 80.5215 268.447 80.7949C267.842 81.0618 267.155 81.1953 266.387 81.1953C265.612 81.1953 264.919 81.0618 264.307 80.7949C263.701 80.5215 263.187 80.1439 262.764 79.6621C262.34 79.1738 262.018 78.6042 261.797 77.9531C261.576 77.3021 261.465 76.5957 261.465 75.834ZM263.818 75.6094V75.834C263.818 76.3092 263.867 76.7585 263.965 77.1816C264.062 77.6048 264.215 77.9759 264.424 78.2949C264.632 78.6139 264.899 78.8646 265.225 79.0469C265.55 79.2292 265.938 79.3203 266.387 79.3203C266.823 79.3203 267.201 79.2292 267.52 79.0469C267.845 78.8646 268.112 78.6139 268.32 78.2949C268.529 77.9759 268.682 77.6048 268.779 77.1816C268.883 76.7585 268.936 76.3092 268.936 75.834V75.6094C268.936 75.1406 268.883 74.6979 268.779 74.2812C268.682 73.8581 268.525 73.4837 268.311 73.1582C268.102 72.8327 267.835 72.5788 267.51 72.3965C267.191 72.2077 266.81 72.1133 266.367 72.1133C265.924 72.1133 265.54 72.2077 265.215 72.3965C264.896 72.5788 264.632 72.8327 264.424 73.1582C264.215 73.4837 264.062 73.8581 263.965 74.2812C263.867 74.6979 263.818 75.1406 263.818 75.6094ZM280.205 70.4336V72.3086H275.049V70.4336H280.205ZM282.051 70.4336V81H279.697V70.4336H282.051ZM274.473 70.4336H276.797L276.514 75.6582C276.475 76.4329 276.396 77.1165 276.279 77.709C276.169 78.2949 276.019 78.7995 275.83 79.2227C275.641 79.6393 275.41 79.9779 275.137 80.2383C274.863 80.4987 274.544 80.6908 274.18 80.8145C273.815 80.9382 273.405 81 272.949 81H272.217L272.207 79.0664L272.578 79.0371C272.819 79.0176 273.027 78.9557 273.203 78.8516C273.379 78.7409 273.529 78.5846 273.652 78.3828C273.783 78.181 273.887 77.9206 273.965 77.6016C274.049 77.2826 274.115 76.9049 274.16 76.4688C274.212 76.0326 274.251 75.5247 274.277 74.9453L274.473 70.4336ZM286.982 77.5625L291.133 70.4336H293.486V81H291.133V73.8613L286.982 81H284.629V70.4336H286.982V77.5625ZM304.463 70.4336V81H302.109V70.4336H304.463ZM303.467 75.1113V76.9766C303.18 77.1003 302.858 77.2142 302.5 77.3184C302.148 77.416 301.777 77.4974 301.387 77.5625C300.996 77.6211 300.602 77.6504 300.205 77.6504C299.274 77.6504 298.47 77.5072 297.793 77.2207C297.122 76.9342 296.605 76.4948 296.24 75.9023C295.882 75.3034 295.703 74.5449 295.703 73.627V70.4238H298.047V73.627C298.047 74.1543 298.125 74.5742 298.281 74.8867C298.444 75.1992 298.685 75.4238 299.004 75.5605C299.323 75.6973 299.723 75.7656 300.205 75.7656C300.609 75.7656 300.99 75.7396 301.348 75.6875C301.706 75.6289 302.061 75.5508 302.412 75.4531C302.764 75.3555 303.115 75.2415 303.467 75.1113ZM311.631 81.1953C310.85 81.1953 310.143 81.0684 309.512 80.8145C308.887 80.554 308.353 80.1927 307.91 79.7305C307.474 79.2682 307.139 78.7246 306.904 78.0996C306.67 77.4746 306.553 76.8008 306.553 76.0781V75.6875C306.553 74.8607 306.673 74.112 306.914 73.4414C307.155 72.7708 307.49 72.1979 307.92 71.7227C308.35 71.2409 308.857 70.873 309.443 70.6191C310.029 70.3652 310.664 70.2383 311.348 70.2383C312.103 70.2383 312.764 70.3652 313.33 70.6191C313.896 70.873 314.365 71.2311 314.736 71.6934C315.114 72.1491 315.394 72.6927 315.576 73.3242C315.765 73.9557 315.859 74.6523 315.859 75.4141V76.4199H307.695V74.7305H313.535V74.5449C313.522 74.1217 313.438 73.7246 313.281 73.3535C313.132 72.9824 312.9 72.6829 312.588 72.4551C312.275 72.2272 311.859 72.1133 311.338 72.1133C310.947 72.1133 310.599 72.1979 310.293 72.3672C309.993 72.5299 309.743 72.7676 309.541 73.0801C309.339 73.3926 309.183 73.7702 309.072 74.2129C308.968 74.6491 308.916 75.1406 308.916 75.6875V76.0781C308.916 76.5404 308.978 76.9701 309.102 77.3672C309.232 77.7578 309.421 78.0996 309.668 78.3926C309.915 78.6855 310.215 78.9167 310.566 79.0859C310.918 79.2487 311.318 79.3301 311.768 79.3301C312.334 79.3301 312.839 79.2161 313.281 78.9883C313.724 78.7604 314.108 78.4382 314.434 78.0215L315.674 79.2227C315.446 79.5547 315.15 79.8737 314.785 80.1797C314.421 80.4792 313.975 80.7233 313.447 80.9121C312.926 81.1009 312.321 81.1953 311.631 81.1953ZM322.012 79.3203C322.396 79.3203 322.741 79.2454 323.047 79.0957C323.359 78.9395 323.61 78.7246 323.799 78.4512C323.994 78.1777 324.102 77.862 324.121 77.5039H326.338C326.325 78.1875 326.123 78.8092 325.732 79.3691C325.342 79.929 324.824 80.375 324.18 80.707C323.535 81.0326 322.822 81.1953 322.041 81.1953C321.234 81.1953 320.531 81.0586 319.932 80.7852C319.333 80.5052 318.835 80.1211 318.438 79.6328C318.04 79.1445 317.741 78.5814 317.539 77.9434C317.344 77.3053 317.246 76.6217 317.246 75.8926V75.5508C317.246 74.8216 317.344 74.138 317.539 73.5C317.741 72.8555 318.04 72.2891 318.438 71.8008C318.835 71.3125 319.333 70.9316 319.932 70.6582C320.531 70.3783 321.23 70.2383 322.031 70.2383C322.878 70.2383 323.62 70.4076 324.258 70.7461C324.896 71.0781 325.397 71.5436 325.762 72.1426C326.133 72.735 326.325 73.4251 326.338 74.2129H324.121C324.102 73.8223 324.004 73.4707 323.828 73.1582C323.659 72.8392 323.418 72.5853 323.105 72.3965C322.799 72.2077 322.432 72.1133 322.002 72.1133C321.527 72.1133 321.133 72.2109 320.82 72.4062C320.508 72.5951 320.264 72.8555 320.088 73.1875C319.912 73.513 319.785 73.8809 319.707 74.291C319.635 74.6947 319.6 75.1146 319.6 75.5508V75.8926C319.6 76.3288 319.635 76.752 319.707 77.1621C319.779 77.5723 319.902 77.9401 320.078 78.2656C320.26 78.5846 320.508 78.8418 320.82 79.0371C321.133 79.2259 321.53 79.3203 322.012 79.3203ZM333.047 70.4336V81H330.684V70.4336H333.047ZM336.514 70.4336V72.2891H327.275V70.4336H336.514ZM338.184 79.8281C338.184 79.4635 338.307 79.1576 338.555 78.9102C338.802 78.6562 339.137 78.5293 339.561 78.5293C339.99 78.5293 340.326 78.6562 340.566 78.9102C340.814 79.1576 340.938 79.4635 340.938 79.8281C340.938 80.1927 340.814 80.4987 340.566 80.7461C340.326 80.9935 339.99 81.1172 339.561 81.1172C339.137 81.1172 338.802 80.9935 338.555 80.7461C338.307 80.4987 338.184 80.1927 338.184 79.8281ZM357.119 70.4336V81H354.766V70.4336H357.119ZM356.123 75.1113V76.9766C355.837 77.1003 355.514 77.2142 355.156 77.3184C354.805 77.416 354.434 77.4974 354.043 77.5625C353.652 77.6211 353.258 77.6504 352.861 77.6504C351.93 77.6504 351.126 77.5072 350.449 77.2207C349.779 76.9342 349.261 76.4948 348.896 75.9023C348.538 75.3034 348.359 74.5449 348.359 73.627V70.4238H350.703V73.627C350.703 74.1543 350.781 74.5742 350.938 74.8867C351.1 75.1992 351.341 75.4238 351.66 75.5605C351.979 75.6973 352.38 75.7656 352.861 75.7656C353.265 75.7656 353.646 75.7396 354.004 75.6875C354.362 75.6289 354.717 75.5508 355.068 75.4531C355.42 75.3555 355.771 75.2415 356.123 75.1113ZM362.061 77.5625L366.211 70.4336H368.564V81H366.211V73.8613L362.061 81H359.707V70.4336H362.061V77.5625ZM375.371 79.3203C375.755 79.3203 376.1 79.2454 376.406 79.0957C376.719 78.9395 376.969 78.7246 377.158 78.4512C377.354 78.1777 377.461 77.862 377.48 77.5039H379.697C379.684 78.1875 379.482 78.8092 379.092 79.3691C378.701 79.929 378.184 80.375 377.539 80.707C376.895 81.0326 376.182 81.1953 375.4 81.1953C374.593 81.1953 373.89 81.0586 373.291 80.7852C372.692 80.5052 372.194 80.1211 371.797 79.6328C371.4 79.1445 371.1 78.5814 370.898 77.9434C370.703 77.3053 370.605 76.6217 370.605 75.8926V75.5508C370.605 74.8216 370.703 74.138 370.898 73.5C371.1 72.8555 371.4 72.2891 371.797 71.8008C372.194 71.3125 372.692 70.9316 373.291 70.6582C373.89 70.3783 374.59 70.2383 375.391 70.2383C376.237 70.2383 376.979 70.4076 377.617 70.7461C378.255 71.0781 378.757 71.5436 379.121 72.1426C379.492 72.735 379.684 73.4251 379.697 74.2129H377.48C377.461 73.8223 377.363 73.4707 377.188 73.1582C377.018 72.8392 376.777 72.5853 376.465 72.3965C376.159 72.2077 375.791 72.1133 375.361 72.1133C374.886 72.1133 374.492 72.2109 374.18 72.4062C373.867 72.5951 373.623 72.8555 373.447 73.1875C373.271 73.513 373.145 73.8809 373.066 74.291C372.995 74.6947 372.959 75.1146 372.959 75.5508V75.8926C372.959 76.3288 372.995 76.752 373.066 77.1621C373.138 77.5723 373.262 77.9401 373.438 78.2656C373.62 78.5846 373.867 78.8418 374.18 79.0371C374.492 79.2259 374.889 79.3203 375.371 79.3203ZM388.604 70.4336V72.3086H383.447V70.4336H388.604ZM390.449 70.4336V81H388.096V70.4336H390.449ZM382.871 70.4336H385.195L384.912 75.6582C384.873 76.4329 384.795 77.1165 384.678 77.709C384.567 78.2949 384.417 78.7995 384.229 79.2227C384.04 79.6393 383.809 79.9779 383.535 80.2383C383.262 80.4987 382.943 80.6908 382.578 80.8145C382.214 80.9382 381.803 81 381.348 81H380.615L380.605 79.0664L380.977 79.0371C381.217 79.0176 381.426 78.9557 381.602 78.8516C381.777 78.7409 381.927 78.5846 382.051 78.3828C382.181 78.181 382.285 77.9206 382.363 77.6016C382.448 77.2826 382.513 76.9049 382.559 76.4688C382.611 76.0326 382.65 75.5247 382.676 74.9453L382.871 70.4336ZM395.381 77.5625L399.531 70.4336H401.885V81H399.531V73.8613L395.381 81H393.027V70.4336H395.381V77.5625ZM409.277 70.4336V81H406.914V70.4336H409.277ZM412.744 70.4336V72.2891H403.506V70.4336H412.744ZM414.414 79.8281C414.414 79.4635 414.538 79.1576 414.785 78.9102C415.033 78.6562 415.368 78.5293 415.791 78.5293C416.221 78.5293 416.556 78.6562 416.797 78.9102C417.044 79.1576 417.168 79.4635 417.168 79.8281C417.168 80.1927 417.044 80.4987 416.797 80.7461C416.556 80.9935 416.221 81.1172 415.791 81.1172C415.368 81.1172 415.033 80.9935 414.785 80.7461C414.538 80.4987 414.414 80.1927 414.414 79.8281ZM257.529 106.197C257.529 105.937 257.471 105.696 257.354 105.475C257.243 105.247 257.012 105.042 256.66 104.859C256.315 104.671 255.794 104.508 255.098 104.371C254.512 104.247 253.981 104.101 253.506 103.932C253.037 103.762 252.637 103.557 252.305 103.316C251.979 103.076 251.729 102.792 251.553 102.467C251.377 102.141 251.289 101.76 251.289 101.324C251.289 100.908 251.38 100.514 251.562 100.143C251.751 99.7715 252.015 99.4427 252.354 99.1562C252.699 98.8698 253.112 98.6452 253.594 98.4824C254.076 98.3197 254.613 98.2383 255.205 98.2383C256.051 98.2383 256.774 98.388 257.373 98.6875C257.972 98.987 258.431 99.3874 258.75 99.8887C259.069 100.383 259.229 100.934 259.229 101.539H257.422C257.422 101.246 257.334 100.963 257.158 100.689C256.989 100.41 256.738 100.178 256.406 99.9961C256.081 99.8138 255.68 99.7227 255.205 99.7227C254.704 99.7227 254.297 99.8008 253.984 99.957C253.678 100.107 253.454 100.299 253.311 100.533C253.174 100.768 253.105 101.015 253.105 101.275C253.105 101.471 253.138 101.646 253.203 101.803C253.275 101.952 253.398 102.092 253.574 102.223C253.75 102.346 253.997 102.464 254.316 102.574C254.635 102.685 255.042 102.796 255.537 102.906C256.403 103.102 257.116 103.336 257.676 103.609C258.236 103.883 258.652 104.218 258.926 104.615C259.199 105.012 259.336 105.494 259.336 106.061C259.336 106.523 259.238 106.946 259.043 107.33C258.854 107.714 258.577 108.046 258.213 108.326C257.855 108.6 257.425 108.814 256.924 108.971C256.429 109.12 255.872 109.195 255.254 109.195C254.323 109.195 253.535 109.029 252.891 108.697C252.246 108.365 251.758 107.936 251.426 107.408C251.094 106.881 250.928 106.324 250.928 105.738H252.744C252.77 106.233 252.913 106.627 253.174 106.92C253.434 107.206 253.753 107.411 254.131 107.535C254.508 107.652 254.883 107.711 255.254 107.711C255.749 107.711 256.162 107.646 256.494 107.516C256.833 107.385 257.09 107.206 257.266 106.979C257.441 106.751 257.529 106.49 257.529 106.197ZM266.094 109.195C265.358 109.195 264.691 109.072 264.092 108.824C263.499 108.57 262.988 108.215 262.559 107.76C262.135 107.304 261.81 106.764 261.582 106.139C261.354 105.514 261.24 104.83 261.24 104.088V103.678C261.24 102.818 261.367 102.053 261.621 101.383C261.875 100.706 262.22 100.133 262.656 99.6641C263.092 99.1953 263.587 98.8405 264.141 98.5996C264.694 98.3587 265.267 98.2383 265.859 98.2383C266.615 98.2383 267.266 98.3685 267.812 98.6289C268.366 98.8893 268.818 99.2539 269.17 99.7227C269.521 100.185 269.782 100.732 269.951 101.363C270.12 101.988 270.205 102.672 270.205 103.414V104.225H262.314V102.75H268.398V102.613C268.372 102.145 268.275 101.689 268.105 101.246C267.943 100.803 267.682 100.439 267.324 100.152C266.966 99.8659 266.478 99.7227 265.859 99.7227C265.449 99.7227 265.072 99.8105 264.727 99.9863C264.382 100.156 264.085 100.41 263.838 100.748C263.59 101.087 263.398 101.5 263.262 101.988C263.125 102.477 263.057 103.04 263.057 103.678V104.088C263.057 104.589 263.125 105.061 263.262 105.504C263.405 105.94 263.61 106.324 263.877 106.656C264.15 106.988 264.479 107.249 264.863 107.438C265.254 107.626 265.697 107.721 266.191 107.721C266.829 107.721 267.37 107.59 267.812 107.33C268.255 107.07 268.643 106.721 268.975 106.285L270.068 107.154C269.84 107.499 269.551 107.828 269.199 108.141C268.848 108.453 268.415 108.707 267.9 108.902C267.393 109.098 266.79 109.195 266.094 109.195ZM275.391 107.369L278.281 98.4336H280.127L276.328 109H275.117L275.391 107.369ZM272.979 98.4336L275.957 107.418L276.162 109H274.951L271.123 98.4336H272.979ZM286.113 109.195C285.378 109.195 284.71 109.072 284.111 108.824C283.519 108.57 283.008 108.215 282.578 107.76C282.155 107.304 281.829 106.764 281.602 106.139C281.374 105.514 281.26 104.83 281.26 104.088V103.678C281.26 102.818 281.387 102.053 281.641 101.383C281.895 100.706 282.24 100.133 282.676 99.6641C283.112 99.1953 283.607 98.8405 284.16 98.5996C284.714 98.3587 285.286 98.2383 285.879 98.2383C286.634 98.2383 287.285 98.3685 287.832 98.6289C288.385 98.8893 288.838 99.2539 289.189 99.7227C289.541 100.185 289.801 100.732 289.971 101.363C290.14 101.988 290.225 102.672 290.225 103.414V104.225H282.334V102.75H288.418V102.613C288.392 102.145 288.294 101.689 288.125 101.246C287.962 100.803 287.702 100.439 287.344 100.152C286.986 99.8659 286.497 99.7227 285.879 99.7227C285.469 99.7227 285.091 99.8105 284.746 99.9863C284.401 100.156 284.105 100.41 283.857 100.748C283.61 101.087 283.418 101.5 283.281 101.988C283.145 102.477 283.076 103.04 283.076 103.678V104.088C283.076 104.589 283.145 105.061 283.281 105.504C283.424 105.94 283.63 106.324 283.896 106.656C284.17 106.988 284.499 107.249 284.883 107.438C285.273 107.626 285.716 107.721 286.211 107.721C286.849 107.721 287.389 107.59 287.832 107.33C288.275 107.07 288.662 106.721 288.994 106.285L290.088 107.154C289.86 107.499 289.57 107.828 289.219 108.141C288.867 108.453 288.434 108.707 287.92 108.902C287.412 109.098 286.81 109.195 286.113 109.195ZM294.141 100.689V109H292.334V98.4336H294.043L294.141 100.689ZM293.711 103.316L292.959 103.287C292.965 102.564 293.073 101.897 293.281 101.285C293.49 100.667 293.783 100.13 294.16 99.6738C294.538 99.2181 294.987 98.8665 295.508 98.6191C296.035 98.3652 296.618 98.2383 297.256 98.2383C297.777 98.2383 298.245 98.3099 298.662 98.4531C299.079 98.5898 299.434 98.8112 299.727 99.1172C300.026 99.4232 300.254 99.8203 300.41 100.309C300.566 100.79 300.645 101.38 300.645 102.076V109H298.828V102.057C298.828 101.503 298.747 101.061 298.584 100.729C298.421 100.39 298.184 100.146 297.871 99.9961C297.559 99.8398 297.174 99.7617 296.719 99.7617C296.27 99.7617 295.859 99.8561 295.488 100.045C295.124 100.234 294.808 100.494 294.541 100.826C294.281 101.158 294.076 101.539 293.926 101.969C293.783 102.392 293.711 102.841 293.711 103.316ZM312.109 102.213V103.697H307.344V102.213H312.109ZM323.066 107.711C323.496 107.711 323.893 107.623 324.258 107.447C324.622 107.271 324.922 107.031 325.156 106.725C325.391 106.412 325.524 106.057 325.557 105.66H327.275C327.243 106.285 327.031 106.868 326.641 107.408C326.257 107.942 325.752 108.375 325.127 108.707C324.502 109.033 323.815 109.195 323.066 109.195C322.272 109.195 321.579 109.055 320.986 108.775C320.4 108.495 319.912 108.111 319.521 107.623C319.137 107.135 318.848 106.575 318.652 105.943C318.464 105.305 318.369 104.632 318.369 103.922V103.512C318.369 102.802 318.464 102.132 318.652 101.5C318.848 100.862 319.137 100.299 319.521 99.8105C319.912 99.3223 320.4 98.9382 320.986 98.6582C321.579 98.3783 322.272 98.2383 323.066 98.2383C323.893 98.2383 324.616 98.4076 325.234 98.7461C325.853 99.0781 326.338 99.5339 326.689 100.113C327.048 100.686 327.243 101.337 327.275 102.066H325.557C325.524 101.63 325.4 101.236 325.186 100.885C324.977 100.533 324.691 100.253 324.326 100.045C323.968 99.8301 323.548 99.7227 323.066 99.7227C322.513 99.7227 322.048 99.8333 321.67 100.055C321.299 100.27 321.003 100.562 320.781 100.934C320.566 101.298 320.41 101.705 320.312 102.154C320.221 102.597 320.176 103.049 320.176 103.512V103.922C320.176 104.384 320.221 104.84 320.312 105.289C320.404 105.738 320.557 106.145 320.771 106.51C320.993 106.874 321.289 107.167 321.66 107.389C322.038 107.604 322.507 107.711 323.066 107.711ZM333.691 109.195C332.956 109.195 332.288 109.072 331.689 108.824C331.097 108.57 330.586 108.215 330.156 107.76C329.733 107.304 329.408 106.764 329.18 106.139C328.952 105.514 328.838 104.83 328.838 104.088V103.678C328.838 102.818 328.965 102.053 329.219 101.383C329.473 100.706 329.818 100.133 330.254 99.6641C330.69 99.1953 331.185 98.8405 331.738 98.5996C332.292 98.3587 332.865 98.2383 333.457 98.2383C334.212 98.2383 334.863 98.3685 335.41 98.6289C335.964 98.8893 336.416 99.2539 336.768 99.7227C337.119 100.185 337.38 100.732 337.549 101.363C337.718 101.988 337.803 102.672 337.803 103.414V104.225H329.912V102.75H335.996V102.613C335.97 102.145 335.872 101.689 335.703 101.246C335.54 100.803 335.28 100.439 334.922 100.152C334.564 99.8659 334.076 99.7227 333.457 99.7227C333.047 99.7227 332.669 99.8105 332.324 99.9863C331.979 100.156 331.683 100.41 331.436 100.748C331.188 101.087 330.996 101.5 330.859 101.988C330.723 102.477 330.654 103.04 330.654 103.678V104.088C330.654 104.589 330.723 105.061 330.859 105.504C331.003 105.94 331.208 106.324 331.475 106.656C331.748 106.988 332.077 107.249 332.461 107.438C332.852 107.626 333.294 107.721 333.789 107.721C334.427 107.721 334.967 107.59 335.41 107.33C335.853 107.07 336.24 106.721 336.572 106.285L337.666 107.154C337.438 107.499 337.148 107.828 336.797 108.141C336.445 108.453 336.012 108.707 335.498 108.902C334.99 109.098 334.388 109.195 333.691 109.195ZM345.986 106.598L349.58 98.4336H351.318L346.611 109H345.361L340.674 98.4336H342.412L345.986 106.598ZM341.885 98.4336V109H340.078V98.4336H341.885ZM350.029 109V98.4336H351.846V109H350.029ZM356.24 102.066H359.414C360.267 102.066 360.986 102.216 361.572 102.516C362.158 102.809 362.601 103.215 362.9 103.736C363.206 104.251 363.359 104.837 363.359 105.494C363.359 105.982 363.275 106.441 363.105 106.871C362.936 107.294 362.682 107.665 362.344 107.984C362.012 108.303 361.598 108.554 361.104 108.736C360.615 108.912 360.052 109 359.414 109H354.922V98.4336H356.729V107.516H359.414C359.935 107.516 360.352 107.421 360.664 107.232C360.977 107.044 361.201 106.799 361.338 106.5C361.475 106.201 361.543 105.888 361.543 105.562C361.543 105.243 361.475 104.931 361.338 104.625C361.201 104.319 360.977 104.065 360.664 103.863C360.352 103.655 359.935 103.551 359.414 103.551H356.24V102.066Z" fill="black"/>
<path d="M557.301 70.4336V72.3086H552.086V70.4336H557.301ZM552.643 70.4336V81H550.289V70.4336H552.643ZM559.146 70.4336V81H556.783V70.4336H559.146ZM561.188 75.834V75.6094C561.188 74.8477 561.298 74.1413 561.52 73.4902C561.741 72.8327 562.06 72.263 562.477 71.7812C562.9 71.293 563.414 70.9154 564.02 70.6484C564.632 70.375 565.322 70.2383 566.09 70.2383C566.865 70.2383 567.555 70.375 568.16 70.6484C568.772 70.9154 569.29 71.293 569.713 71.7812C570.136 72.263 570.458 72.8327 570.68 73.4902C570.901 74.1413 571.012 74.8477 571.012 75.6094V75.834C571.012 76.5957 570.901 77.3021 570.68 77.9531C570.458 78.6042 570.136 79.1738 569.713 79.6621C569.29 80.1439 568.775 80.5215 568.17 80.7949C567.564 81.0618 566.878 81.1953 566.109 81.1953C565.335 81.1953 564.641 81.0618 564.029 80.7949C563.424 80.5215 562.91 80.1439 562.486 79.6621C562.063 79.1738 561.741 78.6042 561.52 77.9531C561.298 77.3021 561.188 76.5957 561.188 75.834ZM563.541 75.6094V75.834C563.541 76.3092 563.59 76.7585 563.688 77.1816C563.785 77.6048 563.938 77.9759 564.146 78.2949C564.355 78.6139 564.622 78.8646 564.947 79.0469C565.273 79.2292 565.66 79.3203 566.109 79.3203C566.546 79.3203 566.923 79.2292 567.242 79.0469C567.568 78.8646 567.835 78.6139 568.043 78.2949C568.251 77.9759 568.404 77.6048 568.502 77.1816C568.606 76.7585 568.658 76.3092 568.658 75.834V75.6094C568.658 75.1406 568.606 74.6979 568.502 74.2812C568.404 73.8581 568.248 73.4837 568.033 73.1582C567.825 72.8327 567.558 72.5788 567.232 72.3965C566.913 72.2077 566.533 72.1133 566.09 72.1133C565.647 72.1133 565.263 72.2077 564.938 72.3965C564.618 72.5788 564.355 72.8327 564.146 73.1582C563.938 73.4837 563.785 73.8581 563.688 74.2812C563.59 74.6979 563.541 75.1406 563.541 75.6094ZM575.348 72.4648V85.0625H572.994V70.4336H575.162L575.348 72.4648ZM582.232 75.6191V75.8242C582.232 76.5924 582.141 77.3053 581.959 77.9629C581.783 78.6139 581.52 79.1836 581.168 79.6719C580.823 80.1536 580.396 80.528 579.889 80.7949C579.381 81.0618 578.795 81.1953 578.131 81.1953C577.473 81.1953 576.897 81.0749 576.402 80.834C575.914 80.5866 575.501 80.2383 575.162 79.7891C574.824 79.3398 574.55 78.8125 574.342 78.207C574.14 77.5951 573.997 76.9245 573.912 76.1953V75.4043C573.997 74.6296 574.14 73.9264 574.342 73.2949C574.55 72.6634 574.824 72.1198 575.162 71.6641C575.501 71.2083 575.914 70.8568 576.402 70.6094C576.891 70.362 577.46 70.2383 578.111 70.2383C578.775 70.2383 579.365 70.3685 579.879 70.6289C580.393 70.8828 580.826 71.2474 581.178 71.7227C581.529 72.1914 581.793 72.7578 581.969 73.4219C582.145 74.0794 582.232 74.8118 582.232 75.6191ZM579.879 75.8242V75.6191C579.879 75.1309 579.833 74.6784 579.742 74.2617C579.651 73.8385 579.508 73.4674 579.312 73.1484C579.117 72.8294 578.867 72.582 578.561 72.4062C578.261 72.224 577.9 72.1328 577.477 72.1328C577.06 72.1328 576.702 72.2044 576.402 72.3477C576.103 72.4844 575.852 72.6764 575.65 72.9238C575.449 73.1712 575.292 73.4609 575.182 73.793C575.071 74.1185 574.993 74.4733 574.947 74.8574V76.752C575.025 77.2207 575.159 77.6504 575.348 78.041C575.536 78.4316 575.803 78.7441 576.148 78.9785C576.5 79.2064 576.949 79.3203 577.496 79.3203C577.919 79.3203 578.281 79.2292 578.58 79.0469C578.88 78.8646 579.124 78.6139 579.312 78.2949C579.508 77.9694 579.651 77.5951 579.742 77.1719C579.833 76.7487 579.879 76.2995 579.879 75.8242ZM586.461 75.834H588.902L585.904 81H583.473L586.461 75.834ZM588.18 70.4336H592.711V81H590.367V72.2891H588.18C587.737 72.2891 587.372 72.3672 587.086 72.5234C586.799 72.6732 586.588 72.8717 586.451 73.1191C586.314 73.36 586.246 73.6074 586.246 73.8613C586.246 74.1152 586.308 74.3594 586.432 74.5938C586.562 74.8281 586.76 75.0202 587.027 75.1699C587.301 75.3197 587.643 75.3945 588.053 75.3945H591.158V77.1133H588.053C587.402 77.1133 586.819 77.0319 586.305 76.8691C585.79 76.6999 585.354 76.4688 584.996 76.1758C584.638 75.8763 584.365 75.528 584.176 75.1309C583.987 74.7272 583.893 74.2878 583.893 73.8125C583.893 73.3242 583.99 72.875 584.186 72.4648C584.381 72.0547 584.661 71.6966 585.025 71.3906C585.396 71.0846 585.846 70.8503 586.373 70.6875C586.907 70.5182 587.509 70.4336 588.18 70.4336ZM597.242 70.4336H599.596L599.479 74.1543C599.446 75.235 599.322 76.1628 599.107 76.9375C598.893 77.7122 598.613 78.3665 598.268 78.9004C597.923 79.4277 597.532 79.8607 597.096 80.1992C596.666 80.5378 596.214 80.8047 595.738 81H595.045V79.1445L595.377 79.125C595.657 78.8255 595.898 78.526 596.1 78.2266C596.308 77.9206 596.484 77.5853 596.627 77.2207C596.77 76.8496 596.881 76.4167 596.959 75.9219C597.044 75.4271 597.099 74.8379 597.125 74.1543L597.242 70.4336ZM597.867 70.4336H604.566V81H602.223V72.4258H597.867V70.4336ZM594.508 79.125H606.012V84.1445H603.658V81H596.891V84.1445H594.498L594.508 79.125ZM610.172 70.4336V81H607.818V70.4336H610.172ZM617.066 70.4336L612.311 76.791H609.625L609.312 74.6621H611.275L614.127 70.4336H617.066ZM614.312 81L611.129 76.3906L612.984 75.0527L617.408 81H614.312ZM618.785 79.8281C618.785 79.4635 618.909 79.1576 619.156 78.9102C619.404 78.6562 619.739 78.5293 620.162 78.5293C620.592 78.5293 620.927 78.6562 621.168 78.9102C621.415 79.1576 621.539 79.4635 621.539 79.8281C621.539 80.1927 621.415 80.4987 621.168 80.7461C620.927 80.9935 620.592 81.1172 620.162 81.1172C619.739 81.1172 619.404 80.9935 619.156 80.7461C618.909 80.4987 618.785 80.1927 618.785 79.8281ZM637.721 70.4336V81H635.367V70.4336H637.721ZM636.725 75.1113V76.9766C636.438 77.1003 636.116 77.2142 635.758 77.3184C635.406 77.416 635.035 77.4974 634.645 77.5625C634.254 77.6211 633.86 77.6504 633.463 77.6504C632.532 77.6504 631.728 77.5072 631.051 77.2207C630.38 76.9342 629.863 76.4948 629.498 75.9023C629.14 75.3034 628.961 74.5449 628.961 73.627V70.4238H631.305V73.627C631.305 74.1543 631.383 74.5742 631.539 74.8867C631.702 75.1992 631.943 75.4238 632.262 75.5605C632.581 75.6973 632.981 75.7656 633.463 75.7656C633.867 75.7656 634.247 75.7396 634.605 75.6875C634.964 75.6289 635.318 75.5508 635.67 75.4531C636.021 75.3555 636.373 75.2415 636.725 75.1113ZM642.662 77.5625L646.812 70.4336H649.166V81H646.812V73.8613L642.662 81H640.309V70.4336H642.662V77.5625ZM655.973 79.3203C656.357 79.3203 656.702 79.2454 657.008 79.0957C657.32 78.9395 657.571 78.7246 657.76 78.4512C657.955 78.1777 658.062 77.862 658.082 77.5039H660.299C660.286 78.1875 660.084 78.8092 659.693 79.3691C659.303 79.929 658.785 80.375 658.141 80.707C657.496 81.0326 656.783 81.1953 656.002 81.1953C655.195 81.1953 654.492 81.0586 653.893 80.7852C653.294 80.5052 652.796 80.1211 652.398 79.6328C652.001 79.1445 651.702 78.5814 651.5 77.9434C651.305 77.3053 651.207 76.6217 651.207 75.8926V75.5508C651.207 74.8216 651.305 74.138 651.5 73.5C651.702 72.8555 652.001 72.2891 652.398 71.8008C652.796 71.3125 653.294 70.9316 653.893 70.6582C654.492 70.3783 655.191 70.2383 655.992 70.2383C656.839 70.2383 657.581 70.4076 658.219 70.7461C658.857 71.0781 659.358 71.5436 659.723 72.1426C660.094 72.735 660.286 73.4251 660.299 74.2129H658.082C658.062 73.8223 657.965 73.4707 657.789 73.1582C657.62 72.8392 657.379 72.5853 657.066 72.3965C656.76 72.2077 656.393 72.1133 655.963 72.1133C655.488 72.1133 655.094 72.2109 654.781 72.4062C654.469 72.5951 654.225 72.8555 654.049 73.1875C653.873 73.513 653.746 73.8809 653.668 74.291C653.596 74.6947 653.561 75.1146 653.561 75.5508V75.8926C653.561 76.3288 653.596 76.752 653.668 77.1621C653.74 77.5723 653.863 77.9401 654.039 78.2656C654.221 78.5846 654.469 78.8418 654.781 79.0371C655.094 79.2259 655.491 79.3203 655.973 79.3203ZM669.205 70.4336V72.3086H664.049V70.4336H669.205ZM671.051 70.4336V81H668.697V70.4336H671.051ZM663.473 70.4336H665.797L665.514 75.6582C665.475 76.4329 665.396 77.1165 665.279 77.709C665.169 78.2949 665.019 78.7995 664.83 79.2227C664.641 79.6393 664.41 79.9779 664.137 80.2383C663.863 80.4987 663.544 80.6908 663.18 80.8145C662.815 80.9382 662.405 81 661.949 81H661.217L661.207 79.0664L661.578 79.0371C661.819 79.0176 662.027 78.9557 662.203 78.8516C662.379 78.7409 662.529 78.5846 662.652 78.3828C662.783 78.181 662.887 77.9206 662.965 77.6016C663.049 77.2826 663.115 76.9049 663.16 76.4688C663.212 76.0326 663.251 75.5247 663.277 74.9453L663.473 70.4336ZM675.982 77.5625L680.133 70.4336H682.486V81H680.133V73.8613L675.982 81H673.629V70.4336H675.982V77.5625ZM689.879 70.4336V81H687.516V70.4336H689.879ZM693.346 70.4336V72.2891H684.107V70.4336H693.346ZM695.016 79.8281C695.016 79.4635 695.139 79.1576 695.387 78.9102C695.634 78.6562 695.969 78.5293 696.393 78.5293C696.822 78.5293 697.158 78.6562 697.398 78.9102C697.646 79.1576 697.77 79.4635 697.77 79.8281C697.77 80.1927 697.646 80.4987 697.398 80.7461C697.158 80.9935 696.822 81.1172 696.393 81.1172C695.969 81.1172 695.634 80.9935 695.387 80.7461C695.139 80.4987 695.016 80.1927 695.016 79.8281ZM556.529 106.197C556.529 105.937 556.471 105.696 556.354 105.475C556.243 105.247 556.012 105.042 555.66 104.859C555.315 104.671 554.794 104.508 554.098 104.371C553.512 104.247 552.981 104.101 552.506 103.932C552.037 103.762 551.637 103.557 551.305 103.316C550.979 103.076 550.729 102.792 550.553 102.467C550.377 102.141 550.289 101.76 550.289 101.324C550.289 100.908 550.38 100.514 550.562 100.143C550.751 99.7715 551.015 99.4427 551.354 99.1562C551.699 98.8698 552.112 98.6452 552.594 98.4824C553.076 98.3197 553.613 98.2383 554.205 98.2383C555.051 98.2383 555.774 98.388 556.373 98.6875C556.972 98.987 557.431 99.3874 557.75 99.8887C558.069 100.383 558.229 100.934 558.229 101.539H556.422C556.422 101.246 556.334 100.963 556.158 100.689C555.989 100.41 555.738 100.178 555.406 99.9961C555.081 99.8138 554.68 99.7227 554.205 99.7227C553.704 99.7227 553.297 99.8008 552.984 99.957C552.678 100.107 552.454 100.299 552.311 100.533C552.174 100.768 552.105 101.015 552.105 101.275C552.105 101.471 552.138 101.646 552.203 101.803C552.275 101.952 552.398 102.092 552.574 102.223C552.75 102.346 552.997 102.464 553.316 102.574C553.635 102.685 554.042 102.796 554.537 102.906C555.403 103.102 556.116 103.336 556.676 103.609C557.236 103.883 557.652 104.218 557.926 104.615C558.199 105.012 558.336 105.494 558.336 106.061C558.336 106.523 558.238 106.946 558.043 107.33C557.854 107.714 557.577 108.046 557.213 108.326C556.855 108.6 556.425 108.814 555.924 108.971C555.429 109.12 554.872 109.195 554.254 109.195C553.323 109.195 552.535 109.029 551.891 108.697C551.246 108.365 550.758 107.936 550.426 107.408C550.094 106.881 549.928 106.324 549.928 105.738H551.744C551.77 106.233 551.913 106.627 552.174 106.92C552.434 107.206 552.753 107.411 553.131 107.535C553.508 107.652 553.883 107.711 554.254 107.711C554.749 107.711 555.162 107.646 555.494 107.516C555.833 107.385 556.09 107.206 556.266 106.979C556.441 106.751 556.529 106.49 556.529 106.197ZM565.094 109.195C564.358 109.195 563.691 109.072 563.092 108.824C562.499 108.57 561.988 108.215 561.559 107.76C561.135 107.304 560.81 106.764 560.582 106.139C560.354 105.514 560.24 104.83 560.24 104.088V103.678C560.24 102.818 560.367 102.053 560.621 101.383C560.875 100.706 561.22 100.133 561.656 99.6641C562.092 99.1953 562.587 98.8405 563.141 98.5996C563.694 98.3587 564.267 98.2383 564.859 98.2383C565.615 98.2383 566.266 98.3685 566.812 98.6289C567.366 98.8893 567.818 99.2539 568.17 99.7227C568.521 100.185 568.782 100.732 568.951 101.363C569.12 101.988 569.205 102.672 569.205 103.414V104.225H561.314V102.75H567.398V102.613C567.372 102.145 567.275 101.689 567.105 101.246C566.943 100.803 566.682 100.439 566.324 100.152C565.966 99.8659 565.478 99.7227 564.859 99.7227C564.449 99.7227 564.072 99.8105 563.727 99.9863C563.382 100.156 563.085 100.41 562.838 100.748C562.59 101.087 562.398 101.5 562.262 101.988C562.125 102.477 562.057 103.04 562.057 103.678V104.088C562.057 104.589 562.125 105.061 562.262 105.504C562.405 105.94 562.61 106.324 562.877 106.656C563.15 106.988 563.479 107.249 563.863 107.438C564.254 107.626 564.697 107.721 565.191 107.721C565.829 107.721 566.37 107.59 566.812 107.33C567.255 107.07 567.643 106.721 567.975 106.285L569.068 107.154C568.84 107.499 568.551 107.828 568.199 108.141C567.848 108.453 567.415 108.707 566.9 108.902C566.393 109.098 565.79 109.195 565.094 109.195ZM574.391 107.369L577.281 98.4336H579.127L575.328 109H574.117L574.391 107.369ZM571.979 98.4336L574.957 107.418L575.162 109H573.951L570.123 98.4336H571.979ZM585.113 109.195C584.378 109.195 583.71 109.072 583.111 108.824C582.519 108.57 582.008 108.215 581.578 107.76C581.155 107.304 580.829 106.764 580.602 106.139C580.374 105.514 580.26 104.83 580.26 104.088V103.678C580.26 102.818 580.387 102.053 580.641 101.383C580.895 100.706 581.24 100.133 581.676 99.6641C582.112 99.1953 582.607 98.8405 583.16 98.5996C583.714 98.3587 584.286 98.2383 584.879 98.2383C585.634 98.2383 586.285 98.3685 586.832 98.6289C587.385 98.8893 587.838 99.2539 588.189 99.7227C588.541 100.185 588.801 100.732 588.971 101.363C589.14 101.988 589.225 102.672 589.225 103.414V104.225H581.334V102.75H587.418V102.613C587.392 102.145 587.294 101.689 587.125 101.246C586.962 100.803 586.702 100.439 586.344 100.152C585.986 99.8659 585.497 99.7227 584.879 99.7227C584.469 99.7227 584.091 99.8105 583.746 99.9863C583.401 100.156 583.105 100.41 582.857 100.748C582.61 101.087 582.418 101.5 582.281 101.988C582.145 102.477 582.076 103.04 582.076 103.678V104.088C582.076 104.589 582.145 105.061 582.281 105.504C582.424 105.94 582.63 106.324 582.896 106.656C583.17 106.988 583.499 107.249 583.883 107.438C584.273 107.626 584.716 107.721 585.211 107.721C585.849 107.721 586.389 107.59 586.832 107.33C587.275 107.07 587.662 106.721 587.994 106.285L589.088 107.154C588.86 107.499 588.57 107.828 588.219 108.141C587.867 108.453 587.434 108.707 586.92 108.902C586.412 109.098 585.81 109.195 585.113 109.195ZM593.141 100.689V109H591.334V98.4336H593.043L593.141 100.689ZM592.711 103.316L591.959 103.287C591.965 102.564 592.073 101.897 592.281 101.285C592.49 100.667 592.783 100.13 593.16 99.6738C593.538 99.2181 593.987 98.8665 594.508 98.6191C595.035 98.3652 595.618 98.2383 596.256 98.2383C596.777 98.2383 597.245 98.3099 597.662 98.4531C598.079 98.5898 598.434 98.8112 598.727 99.1172C599.026 99.4232 599.254 99.8203 599.41 100.309C599.566 100.79 599.645 101.38 599.645 102.076V109H597.828V102.057C597.828 101.503 597.747 101.061 597.584 100.729C597.421 100.39 597.184 100.146 596.871 99.9961C596.559 99.8398 596.174 99.7617 595.719 99.7617C595.27 99.7617 594.859 99.8561 594.488 100.045C594.124 100.234 593.808 100.494 593.541 100.826C593.281 101.158 593.076 101.539 592.926 101.969C592.783 102.392 592.711 102.841 592.711 103.316ZM606.119 92.75V94.2344H604.254V110.562H606.119V112.047H602.447V92.75H606.119ZM612.125 98.4336V99.8203H606.412V98.4336H612.125ZM608.346 95.8652H610.152V106.383C610.152 106.741 610.208 107.011 610.318 107.193C610.429 107.376 610.572 107.496 610.748 107.555C610.924 107.613 611.113 107.643 611.314 107.643C611.464 107.643 611.62 107.63 611.783 107.604C611.952 107.571 612.079 107.545 612.164 107.525L612.174 109C612.031 109.046 611.842 109.088 611.607 109.127C611.38 109.173 611.103 109.195 610.777 109.195C610.335 109.195 609.928 109.107 609.557 108.932C609.186 108.756 608.889 108.463 608.668 108.053C608.453 107.636 608.346 107.076 608.346 106.373V95.8652ZM616.051 94V109H614.244V94H616.051ZM615.621 103.316L614.869 103.287C614.876 102.564 614.983 101.897 615.191 101.285C615.4 100.667 615.693 100.13 616.07 99.6738C616.448 99.2181 616.897 98.8665 617.418 98.6191C617.945 98.3652 618.528 98.2383 619.166 98.2383C619.687 98.2383 620.156 98.3099 620.572 98.4531C620.989 98.5898 621.344 98.8112 621.637 99.1172C621.936 99.4232 622.164 99.8203 622.32 100.309C622.477 100.79 622.555 101.38 622.555 102.076V109H620.738V102.057C620.738 101.503 620.657 101.061 620.494 100.729C620.331 100.39 620.094 100.146 619.781 99.9961C619.469 99.8398 619.085 99.7617 618.629 99.7617C618.18 99.7617 617.77 99.8561 617.398 100.045C617.034 100.234 616.718 100.494 616.451 100.826C616.191 101.158 615.986 101.539 615.836 101.969C615.693 102.392 615.621 102.841 615.621 103.316ZM623.98 94.2344V92.75H627.672V112.047H623.98V110.562H625.855V94.2344H623.98ZM639.293 102.213V103.697H634.527V102.213H639.293ZM650.25 107.711C650.68 107.711 651.077 107.623 651.441 107.447C651.806 107.271 652.105 107.031 652.34 106.725C652.574 106.412 652.708 106.057 652.74 105.66H654.459C654.426 106.285 654.215 106.868 653.824 107.408C653.44 107.942 652.936 108.375 652.311 108.707C651.686 109.033 650.999 109.195 650.25 109.195C649.456 109.195 648.762 109.055 648.17 108.775C647.584 108.495 647.096 108.111 646.705 107.623C646.321 107.135 646.031 106.575 645.836 105.943C645.647 105.305 645.553 104.632 645.553 103.922V103.512C645.553 102.802 645.647 102.132 645.836 101.5C646.031 100.862 646.321 100.299 646.705 99.8105C647.096 99.3223 647.584 98.9382 648.17 98.6582C648.762 98.3783 649.456 98.2383 650.25 98.2383C651.077 98.2383 651.799 98.4076 652.418 98.7461C653.036 99.0781 653.521 99.5339 653.873 100.113C654.231 100.686 654.426 101.337 654.459 102.066H652.74C652.708 101.63 652.584 101.236 652.369 100.885C652.161 100.533 651.874 100.253 651.51 100.045C651.152 99.8301 650.732 99.7227 650.25 99.7227C649.697 99.7227 649.231 99.8333 648.854 100.055C648.482 100.27 648.186 100.562 647.965 100.934C647.75 101.298 647.594 101.705 647.496 102.154C647.405 102.597 647.359 103.049 647.359 103.512V103.922C647.359 104.384 647.405 104.84 647.496 105.289C647.587 105.738 647.74 106.145 647.955 106.51C648.176 106.874 648.473 107.167 648.844 107.389C649.221 107.604 649.69 107.711 650.25 107.711ZM660.875 109.195C660.139 109.195 659.472 109.072 658.873 108.824C658.281 108.57 657.77 108.215 657.34 107.76C656.917 107.304 656.591 106.764 656.363 106.139C656.135 105.514 656.021 104.83 656.021 104.088V103.678C656.021 102.818 656.148 102.053 656.402 101.383C656.656 100.706 657.001 100.133 657.438 99.6641C657.874 99.1953 658.368 98.8405 658.922 98.5996C659.475 98.3587 660.048 98.2383 660.641 98.2383C661.396 98.2383 662.047 98.3685 662.594 98.6289C663.147 98.8893 663.6 99.2539 663.951 99.7227C664.303 100.185 664.563 100.732 664.732 101.363C664.902 101.988 664.986 102.672 664.986 103.414V104.225H657.096V102.75H663.18V102.613C663.154 102.145 663.056 101.689 662.887 101.246C662.724 100.803 662.464 100.439 662.105 100.152C661.747 99.8659 661.259 99.7227 660.641 99.7227C660.23 99.7227 659.853 99.8105 659.508 99.9863C659.163 100.156 658.867 100.41 658.619 100.748C658.372 101.087 658.18 101.5 658.043 101.988C657.906 102.477 657.838 103.04 657.838 103.678V104.088C657.838 104.589 657.906 105.061 658.043 105.504C658.186 105.94 658.391 106.324 658.658 106.656C658.932 106.988 659.26 107.249 659.645 107.438C660.035 107.626 660.478 107.721 660.973 107.721C661.611 107.721 662.151 107.59 662.594 107.33C663.036 107.07 663.424 106.721 663.756 106.285L664.85 107.154C664.622 107.499 664.332 107.828 663.98 108.141C663.629 108.453 663.196 108.707 662.682 108.902C662.174 109.098 661.572 109.195 660.875 109.195ZM669 98.4336H670.807L670.65 102.389C670.611 103.391 670.497 104.257 670.309 104.986C670.12 105.715 669.879 106.337 669.586 106.852C669.293 107.359 668.964 107.786 668.6 108.131C668.242 108.476 667.87 108.766 667.486 109H666.588L666.637 107.525L667.008 107.516C667.223 107.262 667.431 107.001 667.633 106.734C667.835 106.461 668.02 106.139 668.189 105.768C668.359 105.39 668.499 104.931 668.609 104.391C668.727 103.844 668.801 103.176 668.834 102.389L669 98.4336ZM669.449 98.4336H675.807V109H674V100.104H669.449V98.4336ZM666.178 107.516H677.164V112.115H675.357V109H667.984V112.115H666.168L666.178 107.516ZM680.65 102.066H683.824C684.677 102.066 685.396 102.216 685.982 102.516C686.568 102.809 687.011 103.215 687.311 103.736C687.617 104.251 687.77 104.837 687.77 105.494C687.77 105.982 687.685 106.441 687.516 106.871C687.346 107.294 687.092 107.665 686.754 107.984C686.422 108.303 686.008 108.554 685.514 108.736C685.025 108.912 684.462 109 683.824 109H679.332V98.4336H681.139V107.516H683.824C684.345 107.516 684.762 107.421 685.074 107.232C685.387 107.044 685.611 106.799 685.748 106.5C685.885 106.201 685.953 105.888 685.953 105.562C685.953 105.243 685.885 104.931 685.748 104.625C685.611 104.319 685.387 104.065 685.074 103.863C684.762 103.655 684.345 103.551 683.824 103.551H680.65V102.066ZM696.1 106.598L699.693 98.4336H701.432L696.725 109H695.475L690.787 98.4336H692.525L696.1 106.598ZM691.998 98.4336V109H690.191V98.4336H691.998ZM700.143 109V98.4336H701.959V109H700.143ZM704.391 103.834V103.609C704.391 102.848 704.501 102.141 704.723 101.49C704.944 100.833 705.263 100.263 705.68 99.7812C706.096 99.293 706.601 98.9154 707.193 98.6484C707.786 98.375 708.45 98.2383 709.186 98.2383C709.928 98.2383 710.595 98.375 711.188 98.6484C711.786 98.9154 712.294 99.293 712.711 99.7812C713.134 100.263 713.456 100.833 713.678 101.49C713.899 102.141 714.01 102.848 714.01 103.609V103.834C714.01 104.596 713.899 105.302 713.678 105.953C713.456 106.604 713.134 107.174 712.711 107.662C712.294 108.144 711.79 108.521 711.197 108.795C710.611 109.062 709.947 109.195 709.205 109.195C708.463 109.195 707.796 109.062 707.203 108.795C706.611 108.521 706.103 108.144 705.68 107.662C705.263 107.174 704.944 106.604 704.723 105.953C704.501 105.302 704.391 104.596 704.391 103.834ZM706.197 103.609V103.834C706.197 104.361 706.259 104.859 706.383 105.328C706.507 105.79 706.692 106.201 706.939 106.559C707.193 106.917 707.509 107.2 707.887 107.408C708.264 107.61 708.704 107.711 709.205 107.711C709.7 107.711 710.133 107.61 710.504 107.408C710.882 107.2 711.194 106.917 711.441 106.559C711.689 106.201 711.874 105.79 711.998 105.328C712.128 104.859 712.193 104.361 712.193 103.834V103.609C712.193 103.089 712.128 102.597 711.998 102.135C711.874 101.666 711.686 101.253 711.432 100.895C711.184 100.53 710.872 100.243 710.494 100.035C710.123 99.8268 709.687 99.7227 709.186 99.7227C708.691 99.7227 708.255 99.8268 707.877 100.035C707.506 100.243 707.193 100.53 706.939 100.895C706.692 101.253 706.507 101.666 706.383 102.135C706.259 102.597 706.197 103.089 706.197 103.609ZM718.229 106.139L723.102 98.4336H724.918V109H723.102V101.295L718.229 109H716.432V98.4336H718.229V106.139ZM722.115 94.6055H723.58C723.58 95.1133 723.463 95.5658 723.229 95.9629C722.994 96.3535 722.659 96.6595 722.223 96.8809C721.786 97.1022 721.269 97.2129 720.67 97.2129C719.765 97.2129 719.049 96.972 718.521 96.4902C718.001 96.002 717.74 95.3737 717.74 94.6055H719.205C719.205 94.9896 719.316 95.3281 719.537 95.6211C719.758 95.9141 720.136 96.0605 720.67 96.0605C721.191 96.0605 721.562 95.9141 721.783 95.6211C722.005 95.3281 722.115 94.9896 722.115 94.6055Z" fill="black"/>
</g>
<defs>
<clipPath id="clip0_2713_768">
<rect width="900" height="125" fill="white"/>
</clipPath>
</defs>
</svg>
