<svg width="900" height="192" viewBox="0 0 900 192" fill="none" xmlns="http://www.w3.org/2000/svg">
<g clip-path="url(#clip0_2713_753)">
<rect width="900" height="192" fill="white"/>
<line y1="0.5" x2="900" y2="0.5" stroke="black"/>
<line y1="191.5" x2="900" y2="191.5" stroke="black"/>
<line x1="0.5" x2="0.5" y2="192" stroke="black"/>
<line x1="899.5" y1="1" x2="899.5" y2="192" stroke="black"/>
<path d="M39.1748 25.75V26.9219C39.1748 28.5332 38.9648 29.9785 38.5449 31.2578C38.125 32.5371 37.5244 33.626 36.7432 34.5244C35.9717 35.4229 35.0439 36.1113 33.96 36.5898C32.876 37.0586 31.6748 37.293 30.3564 37.293C29.0479 37.293 27.8516 37.0586 26.7676 36.5898C25.6934 36.1113 24.7607 35.4229 23.9697 34.5244C23.1787 33.626 22.5635 32.5371 22.124 31.2578C21.6943 29.9785 21.4795 28.5332 21.4795 26.9219V25.75C21.4795 24.1387 21.6943 22.6982 22.124 21.4287C22.5537 20.1494 23.1592 19.0605 23.9404 18.1621C24.7314 17.2539 25.6641 16.5654 26.7383 16.0967C27.8223 15.6182 29.0186 15.3789 30.3271 15.3789C31.6455 15.3789 32.8467 15.6182 33.9307 16.0967C35.0146 16.5654 35.9473 17.2539 36.7285 18.1621C37.5098 19.0605 38.1104 20.1494 38.5303 21.4287C38.96 22.6982 39.1748 24.1387 39.1748 25.75ZM35.498 26.9219V25.7207C35.498 24.5293 35.3809 23.4795 35.1465 22.5713C34.9219 21.6533 34.585 20.8867 34.1357 20.2715C33.6963 19.6465 33.1543 19.1777 32.5098 18.8652C31.8652 18.543 31.1377 18.3818 30.3271 18.3818C29.5166 18.3818 28.7939 18.543 28.1592 18.8652C27.5244 19.1777 26.9824 19.6465 26.5332 20.2715C26.0938 20.8867 25.7568 21.6533 25.5225 22.5713C25.2881 23.4795 25.1709 24.5293 25.1709 25.7207V26.9219C25.1709 28.1133 25.2881 29.168 25.5225 30.0859C25.7568 31.0039 26.0986 31.7803 26.5479 32.415C27.0068 33.04 27.5537 33.5137 28.1885 33.8359C28.8232 34.1484 29.5459 34.3047 30.3564 34.3047C31.1768 34.3047 31.9043 34.1484 32.5391 33.8359C33.1738 33.5137 33.7109 33.04 34.1504 32.415C34.5898 31.7803 34.9219 31.0039 35.1465 30.0859C35.3809 29.168 35.498 28.1133 35.498 26.9219ZM46.3086 21.1504V37H42.7783V21.1504H46.3086ZM56.6504 21.1504L49.5166 30.6865H45.4883L45.0195 27.4932H47.9639L52.2412 21.1504H56.6504ZM52.5195 37L47.7441 30.0859L50.5273 28.0791L57.1631 37H52.5195ZM57.8809 29.251V28.9141C57.8809 27.7715 58.0469 26.7119 58.3789 25.7354C58.7109 24.749 59.1895 23.8945 59.8145 23.1719C60.4492 22.4395 61.2207 21.873 62.1289 21.4727C63.0469 21.0625 64.082 20.8574 65.2344 20.8574C66.3965 20.8574 67.4316 21.0625 68.3398 21.4727C69.2578 21.873 70.0342 22.4395 70.6689 23.1719C71.3037 23.8945 71.7871 24.749 72.1191 25.7354C72.4512 26.7119 72.6172 27.7715 72.6172 28.9141V29.251C72.6172 30.3936 72.4512 31.4531 72.1191 32.4297C71.7871 33.4062 71.3037 34.2607 70.6689 34.9932C70.0342 35.7158 69.2627 36.2822 68.3545 36.6924C67.4463 37.0928 66.416 37.293 65.2637 37.293C64.1016 37.293 63.0615 37.0928 62.1436 36.6924C61.2354 36.2822 60.4639 35.7158 59.8291 34.9932C59.1943 34.2607 58.7109 33.4062 58.3789 32.4297C58.0469 31.4531 57.8809 30.3936 57.8809 29.251ZM61.4111 28.9141V29.251C61.4111 29.9639 61.4844 30.6377 61.6309 31.2725C61.7773 31.9072 62.0068 32.4639 62.3193 32.9424C62.6318 33.4209 63.0322 33.7969 63.5205 34.0703C64.0088 34.3438 64.5898 34.4805 65.2637 34.4805C65.918 34.4805 66.4844 34.3438 66.9629 34.0703C67.4512 33.7969 67.8516 33.4209 68.1641 32.9424C68.4766 32.4639 68.7061 31.9072 68.8525 31.2725C69.0088 30.6377 69.0869 29.9639 69.0869 29.251V28.9141C69.0869 28.2109 69.0088 27.5469 68.8525 26.9219C68.7061 26.2871 68.4717 25.7256 68.1494 25.2373C67.8369 24.749 67.4365 24.3682 66.9482 24.0947C66.4697 23.8115 65.8984 23.6699 65.2344 23.6699C64.5703 23.6699 63.9941 23.8115 63.5059 24.0947C63.0273 24.3682 62.6318 24.749 62.3193 25.2373C62.0068 25.7256 61.7773 26.2871 61.6309 26.9219C61.4844 27.5469 61.4111 28.2109 61.4111 28.9141ZM86.4014 27.7715V30.5547H78.1982V27.7715H86.4014ZM79.2236 21.1504V37H75.6934V21.1504H79.2236ZM88.9502 21.1504V37H85.4199V21.1504H88.9502ZM105.444 21.1504V37H101.914V21.1504H105.444ZM103.95 28.167V30.9648C103.521 31.1504 103.037 31.3213 102.5 31.4775C101.973 31.624 101.416 31.7461 100.83 31.8438C100.244 31.9316 99.6533 31.9756 99.0576 31.9756C97.6611 31.9756 96.4551 31.7607 95.4395 31.3311C94.4336 30.9014 93.6572 30.2422 93.1104 29.3535C92.5732 28.4551 92.3047 27.3174 92.3047 25.9404V21.1357H95.8203V25.9404C95.8203 26.7314 95.9375 27.3613 96.1719 27.8301C96.416 28.2988 96.7773 28.6357 97.2559 28.8408C97.7344 29.0459 98.335 29.1484 99.0576 29.1484C99.6631 29.1484 100.234 29.1094 100.771 29.0312C101.309 28.9434 101.841 28.8262 102.368 28.6797C102.896 28.5332 103.423 28.3623 103.95 28.167ZM118.145 33.8213V26.2627C118.145 25.6963 118.042 25.208 117.837 24.7979C117.632 24.3877 117.319 24.0703 116.899 23.8457C116.489 23.6211 115.972 23.5088 115.347 23.5088C114.771 23.5088 114.272 23.6064 113.853 23.8018C113.433 23.9971 113.105 24.2607 112.871 24.5928C112.637 24.9248 112.52 25.3008 112.52 25.7207H109.004C109.004 25.0957 109.155 24.4902 109.458 23.9043C109.761 23.3184 110.2 22.7959 110.776 22.3369C111.353 21.8779 112.041 21.5166 112.842 21.2529C113.643 20.9893 114.541 20.8574 115.537 20.8574C116.729 20.8574 117.783 21.0576 118.701 21.458C119.629 21.8584 120.356 22.4639 120.884 23.2744C121.421 24.0752 121.689 25.0811 121.689 26.292V33.3379C121.689 34.0605 121.738 34.71 121.836 35.2861C121.943 35.8525 122.095 36.3457 122.29 36.7656V37H118.672C118.506 36.6191 118.374 36.1357 118.276 35.5498C118.188 34.9541 118.145 34.3779 118.145 33.8213ZM118.657 27.3613L118.687 29.5439H116.152C115.498 29.5439 114.922 29.6074 114.424 29.7344C113.926 29.8516 113.511 30.0273 113.179 30.2617C112.847 30.4961 112.598 30.7793 112.432 31.1113C112.266 31.4434 112.183 31.8193 112.183 32.2393C112.183 32.6592 112.28 33.0449 112.476 33.3965C112.671 33.7383 112.954 34.0068 113.325 34.2021C113.706 34.3975 114.165 34.4951 114.702 34.4951C115.425 34.4951 116.055 34.3486 116.592 34.0557C117.139 33.7529 117.568 33.3867 117.881 32.957C118.193 32.5176 118.359 32.1025 118.379 31.7119L119.521 33.2793C119.404 33.6797 119.204 34.1094 118.921 34.5684C118.638 35.0273 118.267 35.4668 117.808 35.8867C117.358 36.2969 116.816 36.6338 116.182 36.8975C115.557 37.1611 114.834 37.293 114.014 37.293C112.979 37.293 112.056 37.0879 111.245 36.6777C110.435 36.2578 109.8 35.6963 109.341 34.9932C108.882 34.2803 108.652 33.4746 108.652 32.5762C108.652 31.7363 108.809 30.9941 109.121 30.3496C109.443 29.6953 109.912 29.1484 110.527 28.709C111.152 28.2695 111.914 27.9375 112.812 27.7129C113.711 27.4785 114.736 27.3613 115.889 27.3613H118.657ZM136.206 27.7715V30.5547H128.003V27.7715H136.206ZM129.028 21.1504V37H125.498V21.1504H129.028ZM138.755 21.1504V37H135.225V21.1504H138.755ZM146.167 31.8438L152.393 21.1504H155.923V37H152.393V26.292L146.167 37H142.637V21.1504H146.167V31.8438ZM162.998 29.251H166.66L162.163 37H158.516L162.998 29.251ZM165.576 21.1504H172.373V37H168.857V23.9336H165.576C164.912 23.9336 164.365 24.0508 163.936 24.2852C163.506 24.5098 163.188 24.8076 162.983 25.1787C162.778 25.54 162.676 25.9111 162.676 26.292C162.676 26.6729 162.769 27.0391 162.954 27.3906C163.149 27.7422 163.447 28.0303 163.848 28.2549C164.258 28.4795 164.771 28.5918 165.386 28.5918H170.044V31.1699H165.386C164.409 31.1699 163.535 31.0479 162.764 30.8037C161.992 30.5498 161.338 30.2031 160.801 29.7637C160.264 29.3145 159.854 28.792 159.57 28.1963C159.287 27.5908 159.146 26.9316 159.146 26.2188C159.146 25.4863 159.292 24.8125 159.585 24.1973C159.878 23.582 160.298 23.0449 160.845 22.5859C161.401 22.127 162.075 21.7754 162.866 21.5312C163.667 21.2773 164.57 21.1504 165.576 21.1504Z" fill="black"/>
<path d="M255.903 15.6719V37H252.241V15.6719H255.903ZM268.735 15.6719L260.063 27.8301H254.863L254.365 24.6367H258.027L264.238 15.6719H268.735ZM264.985 37L258.086 27.2734L260.459 24.4463L269.395 37H264.985ZM291.353 21.1504V37H287.822V21.1504H291.353ZM289.858 28.167V30.9648C289.429 31.1504 288.945 31.3213 288.408 31.4775C287.881 31.624 287.324 31.7461 286.738 31.8438C286.152 31.9316 285.562 31.9756 284.966 31.9756C283.569 31.9756 282.363 31.7607 281.348 31.3311C280.342 30.9014 279.565 30.2422 279.019 29.3535C278.481 28.4551 278.213 27.3174 278.213 25.9404V21.1357H281.729V25.9404C281.729 26.7314 281.846 27.3613 282.08 27.8301C282.324 28.2988 282.686 28.6357 283.164 28.8408C283.643 29.0459 284.243 29.1484 284.966 29.1484C285.571 29.1484 286.143 29.1094 286.68 29.0312C287.217 28.9434 287.749 28.8262 288.276 28.6797C288.804 28.5332 289.331 28.3623 289.858 28.167ZM302.104 37.293C300.933 37.293 299.873 37.1025 298.926 36.7217C297.988 36.3311 297.188 35.7891 296.523 35.0957C295.869 34.4023 295.366 33.5869 295.015 32.6494C294.663 31.7119 294.487 30.7012 294.487 29.6172V29.0312C294.487 27.791 294.668 26.668 295.029 25.6621C295.391 24.6562 295.894 23.7969 296.538 23.084C297.183 22.3613 297.944 21.8096 298.823 21.4287C299.702 21.0479 300.654 20.8574 301.68 20.8574C302.812 20.8574 303.804 21.0479 304.653 21.4287C305.503 21.8096 306.206 22.3467 306.763 23.04C307.329 23.7236 307.749 24.5391 308.022 25.4863C308.306 26.4336 308.447 27.4785 308.447 28.6211V30.1299H296.201V27.5957H304.961V27.3174C304.941 26.6826 304.814 26.0869 304.58 25.5303C304.355 24.9736 304.009 24.5244 303.54 24.1826C303.071 23.8408 302.446 23.6699 301.665 23.6699C301.079 23.6699 300.557 23.7969 300.098 24.0508C299.648 24.2949 299.272 24.6514 298.97 25.1201C298.667 25.5889 298.433 26.1553 298.267 26.8193C298.11 27.4736 298.032 28.2109 298.032 29.0312V29.6172C298.032 30.3105 298.125 30.9551 298.311 31.5508C298.506 32.1367 298.789 32.6494 299.16 33.0889C299.531 33.5283 299.98 33.875 300.508 34.1289C301.035 34.373 301.636 34.4951 302.31 34.4951C303.159 34.4951 303.916 34.3242 304.58 33.9824C305.244 33.6406 305.82 33.1572 306.309 32.5322L308.169 34.334C307.827 34.832 307.383 35.3105 306.836 35.7695C306.289 36.2188 305.62 36.585 304.829 36.8682C304.048 37.1514 303.14 37.293 302.104 37.293ZM320.62 32.7227L325.337 21.1504H328.398L321.821 37H319.419L312.856 21.1504H315.918L320.62 32.7227ZM315.01 21.1504V37H311.479V21.1504H315.01ZM326.23 37V21.1504H329.775V37H326.23ZM338.33 35.2715L342.637 21.1504H346.416L340.059 39.417C339.912 39.8076 339.722 40.2324 339.487 40.6914C339.253 41.1504 338.945 41.585 338.564 41.9951C338.193 42.415 337.729 42.752 337.173 43.0059C336.616 43.2695 335.942 43.4014 335.151 43.4014C334.839 43.4014 334.536 43.3721 334.243 43.3135C333.96 43.2646 333.691 43.2109 333.438 43.1523L333.423 40.457C333.521 40.4668 333.638 40.4766 333.774 40.4863C333.921 40.4961 334.038 40.501 334.126 40.501C334.712 40.501 335.2 40.4277 335.591 40.2812C335.981 40.1445 336.299 39.9199 336.543 39.6074C336.797 39.2949 337.012 38.875 337.188 38.3477L338.33 35.2715ZM335.898 21.1504L339.663 33.0156L340.293 36.7363L337.847 37.3662L332.09 21.1504H335.898ZM366.543 21.1504V23.9629H358.721V21.1504H366.543ZM359.556 21.1504V37H356.025V21.1504H359.556ZM369.312 21.1504V37H365.767V21.1504H369.312ZM376.592 24.1973V43.0938H373.062V21.1504H376.313L376.592 24.1973ZM386.919 28.9287V29.2363C386.919 30.3887 386.782 31.458 386.509 32.4443C386.245 33.4209 385.85 34.2754 385.322 35.0078C384.805 35.7305 384.165 36.292 383.403 36.6924C382.642 37.0928 381.763 37.293 380.767 37.293C379.78 37.293 378.916 37.1123 378.174 36.751C377.441 36.3799 376.821 35.8574 376.313 35.1836C375.806 34.5098 375.396 33.7188 375.083 32.8105C374.78 31.8926 374.565 30.8867 374.438 29.793V28.6064C374.565 27.4443 374.78 26.3896 375.083 25.4424C375.396 24.4951 375.806 23.6797 376.313 22.9961C376.821 22.3125 377.441 21.7852 378.174 21.4141C378.906 21.043 379.761 20.8574 380.737 20.8574C381.733 20.8574 382.617 21.0527 383.389 21.4434C384.16 21.8242 384.81 22.3711 385.337 23.084C385.864 23.7871 386.26 24.6367 386.523 25.6328C386.787 26.6191 386.919 27.7178 386.919 28.9287ZM383.389 29.2363V28.9287C383.389 28.1963 383.32 27.5176 383.184 26.8926C383.047 26.2578 382.832 25.7012 382.539 25.2227C382.246 24.7441 381.87 24.373 381.411 24.1094C380.962 23.8359 380.42 23.6992 379.785 23.6992C379.16 23.6992 378.623 23.8066 378.174 24.0215C377.725 24.2266 377.349 24.5146 377.046 24.8857C376.743 25.2568 376.509 25.6914 376.343 26.1895C376.177 26.6777 376.06 27.21 375.991 27.7861V30.6279C376.108 31.3311 376.309 31.9756 376.592 32.5615C376.875 33.1475 377.275 33.6162 377.793 33.9678C378.32 34.3096 378.994 34.4805 379.814 34.4805C380.449 34.4805 380.991 34.3438 381.44 34.0703C381.89 33.7969 382.256 33.4209 382.539 32.9424C382.832 32.4541 383.047 31.8926 383.184 31.2578C383.32 30.623 383.389 29.9492 383.389 29.2363ZM393.569 31.8438L399.795 21.1504H403.325V37H399.795V26.292L393.569 37H390.039V21.1504H393.569V31.8438ZM413.535 34.4805C414.111 34.4805 414.629 34.3682 415.088 34.1436C415.557 33.9092 415.933 33.5869 416.216 33.1768C416.509 32.7666 416.67 32.293 416.699 31.7559H420.024C420.005 32.7812 419.702 33.7139 419.116 34.5537C418.53 35.3936 417.754 36.0625 416.787 36.5605C415.82 37.0488 414.751 37.293 413.579 37.293C412.368 37.293 411.313 37.0879 410.415 36.6777C409.517 36.2578 408.77 35.6816 408.174 34.9492C407.578 34.2168 407.129 33.3721 406.826 32.415C406.533 31.458 406.387 30.4326 406.387 29.3389V28.8262C406.387 27.7324 406.533 26.707 406.826 25.75C407.129 24.7832 407.578 23.9336 408.174 23.2012C408.77 22.4688 409.517 21.8975 410.415 21.4873C411.313 21.0674 412.363 20.8574 413.564 20.8574C414.834 20.8574 415.947 21.1113 416.904 21.6191C417.861 22.1172 418.613 22.8154 419.16 23.7139C419.717 24.6025 420.005 25.6377 420.024 26.8193H416.699C416.67 26.2334 416.523 25.7061 416.26 25.2373C416.006 24.7588 415.645 24.3779 415.176 24.0947C414.717 23.8115 414.165 23.6699 413.521 23.6699C412.808 23.6699 412.217 23.8164 411.748 24.1094C411.279 24.3926 410.913 24.7832 410.649 25.2812C410.386 25.7695 410.195 26.3213 410.078 26.9365C409.971 27.542 409.917 28.1719 409.917 28.8262V29.3389C409.917 29.9932 409.971 30.6279 410.078 31.2432C410.186 31.8584 410.371 32.4102 410.635 32.8984C410.908 33.377 411.279 33.7627 411.748 34.0557C412.217 34.3389 412.812 34.4805 413.535 34.4805ZM422.061 29.251V28.9141C422.061 27.7715 422.227 26.7119 422.559 25.7354C422.891 24.749 423.369 23.8945 423.994 23.1719C424.629 22.4395 425.4 21.873 426.309 21.4727C427.227 21.0625 428.262 20.8574 429.414 20.8574C430.576 20.8574 431.611 21.0625 432.52 21.4727C433.438 21.873 434.214 22.4395 434.849 23.1719C435.483 23.8945 435.967 24.749 436.299 25.7354C436.631 26.7119 436.797 27.7715 436.797 28.9141V29.251C436.797 30.3936 436.631 31.4531 436.299 32.4297C435.967 33.4062 435.483 34.2607 434.849 34.9932C434.214 35.7158 433.442 36.2822 432.534 36.6924C431.626 37.0928 430.596 37.293 429.443 37.293C428.281 37.293 427.241 37.0928 426.323 36.6924C425.415 36.2822 424.644 35.7158 424.009 34.9932C423.374 34.2607 422.891 33.4062 422.559 32.4297C422.227 31.4531 422.061 30.3936 422.061 29.251ZM425.591 28.9141V29.251C425.591 29.9639 425.664 30.6377 425.811 31.2725C425.957 31.9072 426.187 32.4639 426.499 32.9424C426.812 33.4209 427.212 33.7969 427.7 34.0703C428.188 34.3438 428.77 34.4805 429.443 34.4805C430.098 34.4805 430.664 34.3438 431.143 34.0703C431.631 33.7969 432.031 33.4209 432.344 32.9424C432.656 32.4639 432.886 31.9072 433.032 31.2725C433.188 30.6377 433.267 29.9639 433.267 29.251V28.9141C433.267 28.2109 433.188 27.5469 433.032 26.9219C432.886 26.2871 432.651 25.7256 432.329 25.2373C432.017 24.749 431.616 24.3682 431.128 24.0947C430.649 23.8115 430.078 23.6699 429.414 23.6699C428.75 23.6699 428.174 23.8115 427.686 24.0947C427.207 24.3682 426.812 24.749 426.499 25.2373C426.187 25.7256 425.957 26.2871 425.811 26.9219C425.664 27.5469 425.591 28.2109 425.591 28.9141ZM446.743 37.293C445.571 37.293 444.512 37.1025 443.564 36.7217C442.627 36.3311 441.826 35.7891 441.162 35.0957C440.508 34.4023 440.005 33.5869 439.653 32.6494C439.302 31.7119 439.126 30.7012 439.126 29.6172V29.0312C439.126 27.791 439.307 26.668 439.668 25.6621C440.029 24.6562 440.532 23.7969 441.177 23.084C441.821 22.3613 442.583 21.8096 443.462 21.4287C444.341 21.0479 445.293 20.8574 446.318 20.8574C447.451 20.8574 448.442 21.0479 449.292 21.4287C450.142 21.8096 450.845 22.3467 451.401 23.04C451.968 23.7236 452.388 24.5391 452.661 25.4863C452.944 26.4336 453.086 27.4785 453.086 28.6211V30.1299H440.84V27.5957H449.6V27.3174C449.58 26.6826 449.453 26.0869 449.219 25.5303C448.994 24.9736 448.647 24.5244 448.179 24.1826C447.71 23.8408 447.085 23.6699 446.304 23.6699C445.718 23.6699 445.195 23.7969 444.736 24.0508C444.287 24.2949 443.911 24.6514 443.608 25.1201C443.306 25.5889 443.071 26.1553 442.905 26.8193C442.749 27.4736 442.671 28.2109 442.671 29.0312V29.6172C442.671 30.3105 442.764 30.9551 442.949 31.5508C443.145 32.1367 443.428 32.6494 443.799 33.0889C444.17 33.5283 444.619 33.875 445.146 34.1289C445.674 34.373 446.274 34.4951 446.948 34.4951C447.798 34.4951 448.555 34.3242 449.219 33.9824C449.883 33.6406 450.459 33.1572 450.947 32.5322L452.808 34.334C452.466 34.832 452.021 35.3105 451.475 35.7695C450.928 36.2188 450.259 36.585 449.468 36.8682C448.687 37.1514 447.778 37.293 446.743 37.293ZM458.711 21.1504H462.241L462.065 26.7314C462.017 28.3525 461.831 29.7441 461.509 30.9062C461.187 32.0684 460.767 33.0498 460.249 33.8506C459.731 34.6416 459.146 35.291 458.491 35.7988C457.847 36.3066 457.168 36.707 456.455 37H455.415V34.2168L455.913 34.1875C456.333 33.7383 456.694 33.2891 456.997 32.8398C457.31 32.3809 457.573 31.8779 457.788 31.3311C458.003 30.7744 458.169 30.125 458.286 29.3828C458.413 28.6406 458.496 27.7568 458.535 26.7314L458.711 21.1504ZM459.648 21.1504H469.697V37H466.182V24.1387H459.648V21.1504ZM454.609 34.1875H471.865V41.7168H468.335V37H458.184V41.7168H454.595L454.609 34.1875ZM474.531 35.2422C474.531 34.6953 474.717 34.2363 475.088 33.8652C475.459 33.4844 475.962 33.2939 476.597 33.2939C477.241 33.2939 477.744 33.4844 478.105 33.8652C478.477 34.2363 478.662 34.6953 478.662 35.2422C478.662 35.7891 478.477 36.248 478.105 36.6191C477.744 36.9902 477.241 37.1758 476.597 37.1758C475.962 37.1758 475.459 36.9902 475.088 36.6191C474.717 36.248 474.531 35.7891 474.531 35.2422ZM489.341 30.7158H486.074C486.084 29.8076 486.162 29.0459 486.309 28.4307C486.455 27.8057 486.699 27.2393 487.041 26.7314C487.393 26.2236 487.856 25.6865 488.433 25.1201C488.882 24.6904 489.287 24.2852 489.648 23.9043C490.01 23.5137 490.298 23.1035 490.513 22.6738C490.728 22.2344 490.835 21.7314 490.835 21.165C490.835 20.5498 490.732 20.0273 490.527 19.5977C490.322 19.168 490.02 18.8408 489.619 18.6162C489.229 18.3916 488.74 18.2793 488.154 18.2793C487.666 18.2793 487.207 18.377 486.777 18.5723C486.348 18.7578 486.001 19.0508 485.737 19.4512C485.474 19.8418 485.332 20.3594 485.312 21.0039H481.782C481.802 19.7734 482.095 18.7383 482.661 17.8984C483.228 17.0586 483.989 16.4287 484.946 16.0088C485.903 15.5889 486.973 15.3789 488.154 15.3789C489.463 15.3789 490.581 15.6035 491.509 16.0527C492.437 16.4922 493.145 17.1367 493.633 17.9863C494.131 18.8262 494.38 19.8418 494.38 21.0332C494.38 21.8926 494.209 22.6738 493.867 23.377C493.525 24.0703 493.081 24.7197 492.534 25.3252C491.987 25.9209 491.396 26.5166 490.762 27.1123C490.215 27.6104 489.844 28.1523 489.648 28.7383C489.453 29.3145 489.351 29.9736 489.341 30.7158ZM485.781 35.2861C485.781 34.7588 485.962 34.3145 486.323 33.9531C486.685 33.582 487.178 33.3965 487.803 33.3965C488.428 33.3965 488.921 33.582 489.282 33.9531C489.644 34.3145 489.824 34.7588 489.824 35.2861C489.824 35.8135 489.644 36.2627 489.282 36.6338C488.921 36.9951 488.428 37.1758 487.803 37.1758C487.178 37.1758 486.685 36.9951 486.323 36.6338C485.962 36.2627 485.781 35.8135 485.781 35.2861Z" fill="black"/>
<path d="M551.124 15.6719H554.801V22.2783C554.801 23.2842 554.952 24.0752 555.255 24.6514C555.558 25.2178 556.017 25.6182 556.632 25.8525C557.257 26.0869 558.033 26.2041 558.961 26.2041C559.41 26.2041 559.884 26.1846 560.382 26.1455C560.88 26.1064 561.378 26.0527 561.876 25.9844C562.384 25.9062 562.872 25.8184 563.341 25.7207C563.81 25.6133 564.239 25.4961 564.63 25.3691V28.2842C564.249 28.4014 563.829 28.5137 563.37 28.6211C562.921 28.7285 562.452 28.8213 561.964 28.8994C561.476 28.9678 560.978 29.0215 560.47 29.0605C559.962 29.0996 559.459 29.1191 558.961 29.1191C557.35 29.1191 555.958 28.8896 554.786 28.4307C553.614 27.9619 552.711 27.2246 552.076 26.2188C551.441 25.2129 551.124 23.8994 551.124 22.2783V15.6719ZM563.795 15.6719H567.472V37H563.795V15.6719ZM578.883 21.1504V37H575.338V21.1504H578.883ZM584.083 21.1504V23.9336H570.226V21.1504H584.083ZM585.211 29.251V28.9141C585.211 27.7715 585.377 26.7119 585.709 25.7354C586.041 24.749 586.52 23.8945 587.145 23.1719C587.779 22.4395 588.551 21.873 589.459 21.4727C590.377 21.0625 591.412 20.8574 592.564 20.8574C593.727 20.8574 594.762 21.0625 595.67 21.4727C596.588 21.873 597.364 22.4395 597.999 23.1719C598.634 23.8945 599.117 24.749 599.449 25.7354C599.781 26.7119 599.947 27.7715 599.947 28.9141V29.251C599.947 30.3936 599.781 31.4531 599.449 32.4297C599.117 33.4062 598.634 34.2607 597.999 34.9932C597.364 35.7158 596.593 36.2822 595.685 36.6924C594.776 37.0928 593.746 37.293 592.594 37.293C591.432 37.293 590.392 37.0928 589.474 36.6924C588.565 36.2822 587.794 35.7158 587.159 34.9932C586.524 34.2607 586.041 33.4062 585.709 32.4297C585.377 31.4531 585.211 30.3936 585.211 29.251ZM588.741 28.9141V29.251C588.741 29.9639 588.814 30.6377 588.961 31.2725C589.107 31.9072 589.337 32.4639 589.649 32.9424C589.962 33.4209 590.362 33.7969 590.851 34.0703C591.339 34.3438 591.92 34.4805 592.594 34.4805C593.248 34.4805 593.814 34.3438 594.293 34.0703C594.781 33.7969 595.182 33.4209 595.494 32.9424C595.807 32.4639 596.036 31.9072 596.183 31.2725C596.339 30.6377 596.417 29.9639 596.417 29.251V28.9141C596.417 28.2109 596.339 27.5469 596.183 26.9219C596.036 26.2871 595.802 25.7256 595.479 25.2373C595.167 24.749 594.767 24.3682 594.278 24.0947C593.8 23.8115 593.229 23.6699 592.564 23.6699C591.9 23.6699 591.324 23.8115 590.836 24.0947C590.357 24.3682 589.962 24.749 589.649 25.2373C589.337 25.7256 589.107 26.2871 588.961 26.9219C588.814 27.5469 588.741 28.2109 588.741 28.9141ZM613.248 21.1504H616.778L616.603 26.7314C616.554 28.3525 616.368 29.7441 616.046 30.9062C615.724 32.0684 615.304 33.0498 614.786 33.8506C614.269 34.6416 613.683 35.291 613.028 35.7988C612.384 36.3066 611.705 36.707 610.992 37H609.952V34.2168L610.45 34.1875C610.87 33.7383 611.231 33.2891 611.534 32.8398C611.847 32.3809 612.11 31.8779 612.325 31.3311C612.54 30.7744 612.706 30.125 612.823 29.3828C612.95 28.6406 613.033 27.7568 613.072 26.7314L613.248 21.1504ZM614.186 21.1504H624.234V37H620.719V24.1387H614.186V21.1504ZM609.146 34.1875H626.402V41.7168H622.872V37H612.721V41.7168H609.132L609.146 34.1875ZM637.857 33.8213V26.2627C637.857 25.6963 637.755 25.208 637.55 24.7979C637.345 24.3877 637.032 24.0703 636.612 23.8457C636.202 23.6211 635.685 23.5088 635.06 23.5088C634.483 23.5088 633.985 23.6064 633.565 23.8018C633.146 23.9971 632.818 24.2607 632.584 24.5928C632.35 24.9248 632.232 25.3008 632.232 25.7207H628.717C628.717 25.0957 628.868 24.4902 629.171 23.9043C629.474 23.3184 629.913 22.7959 630.489 22.3369C631.065 21.8779 631.754 21.5166 632.555 21.2529C633.355 20.9893 634.254 20.8574 635.25 20.8574C636.441 20.8574 637.496 21.0576 638.414 21.458C639.342 21.8584 640.069 22.4639 640.597 23.2744C641.134 24.0752 641.402 25.0811 641.402 26.292V33.3379C641.402 34.0605 641.451 34.71 641.549 35.2861C641.656 35.8525 641.808 36.3457 642.003 36.7656V37H638.385C638.219 36.6191 638.087 36.1357 637.989 35.5498C637.901 34.9541 637.857 34.3779 637.857 33.8213ZM638.37 27.3613L638.399 29.5439H635.865C635.211 29.5439 634.635 29.6074 634.137 29.7344C633.639 29.8516 633.224 30.0273 632.892 30.2617C632.56 30.4961 632.311 30.7793 632.145 31.1113C631.979 31.4434 631.896 31.8193 631.896 32.2393C631.896 32.6592 631.993 33.0449 632.188 33.3965C632.384 33.7383 632.667 34.0068 633.038 34.2021C633.419 34.3975 633.878 34.4951 634.415 34.4951C635.138 34.4951 635.768 34.3486 636.305 34.0557C636.852 33.7529 637.281 33.3867 637.594 32.957C637.906 32.5176 638.072 32.1025 638.092 31.7119L639.234 33.2793C639.117 33.6797 638.917 34.1094 638.634 34.5684C638.351 35.0273 637.979 35.4668 637.521 35.8867C637.071 36.2969 636.529 36.6338 635.895 36.8975C635.27 37.1611 634.547 37.293 633.727 37.293C632.691 37.293 631.769 37.0879 630.958 36.6777C630.147 36.2578 629.513 35.6963 629.054 34.9932C628.595 34.2803 628.365 33.4746 628.365 32.5762C628.365 31.7363 628.521 30.9941 628.834 30.3496C629.156 29.6953 629.625 29.1484 630.24 28.709C630.865 28.2695 631.627 27.9375 632.525 27.7129C633.424 27.4785 634.449 27.3613 635.602 27.3613H638.37ZM652.081 37.293C650.909 37.293 649.85 37.1025 648.902 36.7217C647.965 36.3311 647.164 35.7891 646.5 35.0957C645.846 34.4023 645.343 33.5869 644.991 32.6494C644.64 31.7119 644.464 30.7012 644.464 29.6172V29.0312C644.464 27.791 644.645 26.668 645.006 25.6621C645.367 24.6562 645.87 23.7969 646.515 23.084C647.159 22.3613 647.921 21.8096 648.8 21.4287C649.679 21.0479 650.631 20.8574 651.656 20.8574C652.789 20.8574 653.78 21.0479 654.63 21.4287C655.479 21.8096 656.183 22.3467 656.739 23.04C657.306 23.7236 657.726 24.5391 657.999 25.4863C658.282 26.4336 658.424 27.4785 658.424 28.6211V30.1299H646.178V27.5957H654.938V27.3174C654.918 26.6826 654.791 26.0869 654.557 25.5303C654.332 24.9736 653.985 24.5244 653.517 24.1826C653.048 23.8408 652.423 23.6699 651.642 23.6699C651.056 23.6699 650.533 23.7969 650.074 24.0508C649.625 24.2949 649.249 24.6514 648.946 25.1201C648.644 25.5889 648.409 26.1553 648.243 26.8193C648.087 27.4736 648.009 28.2109 648.009 29.0312V29.6172C648.009 30.3105 648.102 30.9551 648.287 31.5508C648.482 32.1367 648.766 32.6494 649.137 33.0889C649.508 33.5283 649.957 33.875 650.484 34.1289C651.012 34.373 651.612 34.4951 652.286 34.4951C653.136 34.4951 653.893 34.3242 654.557 33.9824C655.221 33.6406 655.797 33.1572 656.285 32.5322L658.146 34.334C657.804 34.832 657.359 35.3105 656.812 35.7695C656.266 36.2188 655.597 36.585 654.806 36.8682C654.024 37.1514 653.116 37.293 652.081 37.293ZM646.178 16.9463C646.178 16.4678 646.344 16.0674 646.676 15.7451C647.008 15.4131 647.447 15.2471 647.994 15.2471C648.551 15.2471 648.995 15.4131 649.327 15.7451C649.659 16.0674 649.825 16.4678 649.825 16.9463C649.825 17.415 649.659 17.8154 649.327 18.1475C648.995 18.4697 648.551 18.6309 647.994 18.6309C647.447 18.6309 647.008 18.4697 646.676 18.1475C646.344 17.8154 646.178 17.415 646.178 16.9463ZM652.96 16.9609C652.96 16.4824 653.126 16.082 653.458 15.7598C653.79 15.4277 654.234 15.2617 654.791 15.2617C655.338 15.2617 655.777 15.4277 656.109 15.7598C656.451 16.082 656.622 16.4824 656.622 16.9609C656.622 17.4297 656.451 17.8301 656.109 18.1621C655.777 18.4844 655.338 18.6455 654.791 18.6455C654.234 18.6455 653.79 18.4844 653.458 18.1621C653.126 17.8301 652.96 17.4297 652.96 16.9609ZM668.355 21.1504V37H664.811V21.1504H668.355ZM673.556 21.1504V23.9336H659.698V21.1504H673.556ZM682.521 30.7158H679.254C679.264 29.8076 679.342 29.0459 679.488 28.4307C679.635 27.8057 679.879 27.2393 680.221 26.7314C680.572 26.2236 681.036 25.6865 681.612 25.1201C682.062 24.6904 682.467 24.2852 682.828 23.9043C683.189 23.5137 683.478 23.1035 683.692 22.6738C683.907 22.2344 684.015 21.7314 684.015 21.165C684.015 20.5498 683.912 20.0273 683.707 19.5977C683.502 19.168 683.199 18.8408 682.799 18.6162C682.408 18.3916 681.92 18.2793 681.334 18.2793C680.846 18.2793 680.387 18.377 679.957 18.5723C679.527 18.7578 679.181 19.0508 678.917 19.4512C678.653 19.8418 678.512 20.3594 678.492 21.0039H674.962C674.981 19.7734 675.274 18.7383 675.841 17.8984C676.407 17.0586 677.169 16.4287 678.126 16.0088C679.083 15.5889 680.152 15.3789 681.334 15.3789C682.643 15.3789 683.761 15.6035 684.688 16.0527C685.616 16.4922 686.324 17.1367 686.812 17.9863C687.311 18.8262 687.56 19.8418 687.56 21.0332C687.56 21.8926 687.389 22.6738 687.047 23.377C686.705 24.0703 686.261 24.7197 685.714 25.3252C685.167 25.9209 684.576 26.5166 683.941 27.1123C683.395 27.6104 683.023 28.1523 682.828 28.7383C682.633 29.3145 682.53 29.9736 682.521 30.7158ZM678.961 35.2861C678.961 34.7588 679.142 34.3145 679.503 33.9531C679.864 33.582 680.357 33.3965 680.982 33.3965C681.607 33.3965 682.101 33.582 682.462 33.9531C682.823 34.3145 683.004 34.7588 683.004 35.2861C683.004 35.8135 682.823 36.2627 682.462 36.6338C682.101 36.9951 681.607 37.1758 680.982 37.1758C680.357 37.1758 679.864 36.9951 679.503 36.6338C679.142 36.2627 678.961 35.8135 678.961 35.2861Z" fill="black"/>
<line x1="1" y1="52.5" x2="901" y2="52.5" stroke="black"/>
<path d="M38.1836 86.3623V90.0708H21.1279V86.3623H38.1836ZM31.6553 79.3896V97.5049H27.6733V79.3896H31.6553ZM55.6494 97.9834L60.6738 81.5088H65.083L57.666 102.82C57.4951 103.276 57.2729 103.771 56.9995 104.307C56.7261 104.842 56.3672 105.349 55.9229 105.828C55.4899 106.318 54.9487 106.711 54.2993 107.007C53.6499 107.314 52.8638 107.468 51.9409 107.468C51.5763 107.468 51.2231 107.434 50.8813 107.366C50.5509 107.309 50.2376 107.246 49.9414 107.178L49.9243 104.033C50.0382 104.045 50.175 104.056 50.3345 104.067C50.5054 104.079 50.6421 104.084 50.7446 104.084C51.4282 104.084 51.9979 103.999 52.4536 103.828C52.9093 103.669 53.2796 103.407 53.5645 103.042C53.8607 102.677 54.1113 102.188 54.3164 101.572L55.6494 97.9834ZM52.8125 81.5088L57.2046 95.3516L57.9395 99.6924L55.0854 100.427L48.3691 81.5088H52.8125Z" fill="black"/>
<path d="M255.527 79.3203C255.911 79.3203 256.257 79.2454 256.562 79.0957C256.875 78.9395 257.126 78.7246 257.314 78.4512C257.51 78.1777 257.617 77.862 257.637 77.5039H259.854C259.84 78.1875 259.639 78.8092 259.248 79.3691C258.857 79.929 258.34 80.375 257.695 80.707C257.051 81.0326 256.338 81.1953 255.557 81.1953C254.749 81.1953 254.046 81.0586 253.447 80.7852C252.848 80.5052 252.35 80.1211 251.953 79.6328C251.556 79.1445 251.257 78.5814 251.055 77.9434C250.859 77.3053 250.762 76.6217 250.762 75.8926V75.5508C250.762 74.8216 250.859 74.138 251.055 73.5C251.257 72.8555 251.556 72.2891 251.953 71.8008C252.35 71.3125 252.848 70.9316 253.447 70.6582C254.046 70.3783 254.746 70.2383 255.547 70.2383C256.393 70.2383 257.135 70.4076 257.773 70.7461C258.411 71.0781 258.913 71.5436 259.277 72.1426C259.648 72.735 259.84 73.4251 259.854 74.2129H257.637C257.617 73.8223 257.52 73.4707 257.344 73.1582C257.174 72.8392 256.934 72.5853 256.621 72.3965C256.315 72.2077 255.947 72.1133 255.518 72.1133C255.042 72.1133 254.648 72.2109 254.336 72.4062C254.023 72.5951 253.779 72.8555 253.604 73.1875C253.428 73.513 253.301 73.8809 253.223 74.291C253.151 74.6947 253.115 75.1146 253.115 75.5508V75.8926C253.115 76.3288 253.151 76.752 253.223 77.1621C253.294 77.5723 253.418 77.9401 253.594 78.2656C253.776 78.5846 254.023 78.8418 254.336 79.0371C254.648 79.2259 255.046 79.3203 255.527 79.3203ZM264.727 79.8477L267.598 70.4336H270.117L265.879 82.6113C265.781 82.8717 265.654 83.1549 265.498 83.4609C265.342 83.7669 265.137 84.0566 264.883 84.3301C264.635 84.61 264.326 84.8346 263.955 85.0039C263.584 85.1797 263.135 85.2676 262.607 85.2676C262.399 85.2676 262.197 85.248 262.002 85.209C261.813 85.1764 261.634 85.1406 261.465 85.1016L261.455 83.3047C261.52 83.3112 261.598 83.3177 261.689 83.3242C261.787 83.3307 261.865 83.334 261.924 83.334C262.314 83.334 262.64 83.2852 262.9 83.1875C263.161 83.0964 263.372 82.9466 263.535 82.7383C263.704 82.5299 263.848 82.25 263.965 81.8984L264.727 79.8477ZM263.105 70.4336L265.615 78.3438L266.035 80.8242L264.404 81.2441L260.566 70.4336H263.105ZM287.08 79.1348L286.895 84.1348H284.736V81H283.467V79.1348H287.08ZM271.475 70.4336H273.828V79.125H277.188V70.4336H279.551V79.125H282.9V70.4336H285.254V81H271.475V70.4336ZM293.857 75.3848V75.2188C293.857 73.8255 294.007 72.5625 294.307 71.4297C294.613 70.2904 295.01 69.2943 295.498 68.4414C295.986 67.582 296.507 66.8724 297.061 66.3125C297.62 65.7461 298.158 65.3392 298.672 65.0918L299.141 66.4395C298.763 66.7194 298.385 67.1068 298.008 67.6016C297.637 68.0964 297.295 68.7051 296.982 69.4277C296.676 70.1439 296.429 70.9837 296.24 71.9473C296.058 72.9043 295.967 73.9883 295.967 75.1992V75.4043C295.967 76.6152 296.058 77.7025 296.24 78.666C296.429 79.623 296.676 80.4629 296.982 81.1855C297.295 81.9082 297.637 82.5202 298.008 83.0215C298.385 83.5293 298.763 83.9329 299.141 84.2324L298.672 85.5215C298.158 85.2676 297.62 84.8574 297.061 84.291C296.507 83.7311 295.986 83.0215 295.498 82.1621C295.01 81.3092 294.613 80.3164 294.307 79.1836C294.007 78.0443 293.857 76.778 293.857 75.3848ZM305.4 81.1953C304.619 81.1953 303.913 81.0684 303.281 80.8145C302.656 80.554 302.122 80.1927 301.68 79.7305C301.243 79.2682 300.908 78.7246 300.674 78.0996C300.439 77.4746 300.322 76.8008 300.322 76.0781V75.6875C300.322 74.8607 300.443 74.112 300.684 73.4414C300.924 72.7708 301.26 72.1979 301.689 71.7227C302.119 71.2409 302.627 70.873 303.213 70.6191C303.799 70.3652 304.434 70.2383 305.117 70.2383C305.872 70.2383 306.533 70.3652 307.1 70.6191C307.666 70.873 308.135 71.2311 308.506 71.6934C308.883 72.1491 309.163 72.6927 309.346 73.3242C309.535 73.9557 309.629 74.6523 309.629 75.4141V76.4199H301.465V74.7305H307.305V74.5449C307.292 74.1217 307.207 73.7246 307.051 73.3535C306.901 72.9824 306.67 72.6829 306.357 72.4551C306.045 72.2272 305.628 72.1133 305.107 72.1133C304.717 72.1133 304.368 72.1979 304.062 72.3672C303.763 72.5299 303.512 72.7676 303.311 73.0801C303.109 73.3926 302.952 73.7702 302.842 74.2129C302.738 74.6491 302.686 75.1406 302.686 75.6875V76.0781C302.686 76.5404 302.747 76.9701 302.871 77.3672C303.001 77.7578 303.19 78.0996 303.438 78.3926C303.685 78.6855 303.984 78.9167 304.336 79.0859C304.688 79.2487 305.088 79.3301 305.537 79.3301C306.104 79.3301 306.608 79.2161 307.051 78.9883C307.493 78.7604 307.878 78.4382 308.203 78.0215L309.443 79.2227C309.215 79.5547 308.919 79.8737 308.555 80.1797C308.19 80.4792 307.744 80.7233 307.217 80.9121C306.696 81.1009 306.09 81.1953 305.4 81.1953ZM319.951 70.4336V81H317.598V70.4336H319.951ZM318.955 75.1113V76.9766C318.669 77.1003 318.346 77.2142 317.988 77.3184C317.637 77.416 317.266 77.4974 316.875 77.5625C316.484 77.6211 316.09 77.6504 315.693 77.6504C314.762 77.6504 313.958 77.5072 313.281 77.2207C312.611 76.9342 312.093 76.4948 311.729 75.9023C311.37 75.3034 311.191 74.5449 311.191 73.627V70.4238H313.535V73.627C313.535 74.1543 313.613 74.5742 313.77 74.8867C313.932 75.1992 314.173 75.4238 314.492 75.5605C314.811 75.6973 315.212 75.7656 315.693 75.7656C316.097 75.7656 316.478 75.7396 316.836 75.6875C317.194 75.6289 317.549 75.5508 317.9 75.4531C318.252 75.3555 318.604 75.2415 318.955 75.1113ZM327.002 75.2188V75.3848C327.002 76.7585 326.846 78.0117 326.533 79.1445C326.227 80.2773 325.827 81.2734 325.332 82.1328C324.844 82.9922 324.313 83.7083 323.74 84.2812C323.174 84.8542 322.63 85.2676 322.109 85.5215L321.631 84.2324C322.008 83.946 322.383 83.5521 322.754 83.0508C323.132 82.556 323.473 81.9408 323.779 81.2051C324.092 80.4759 324.339 79.6296 324.521 78.666C324.71 77.7025 324.805 76.6152 324.805 75.4043V75.1992C324.805 73.9883 324.707 72.901 324.512 71.9375C324.323 70.9674 324.069 70.1211 323.75 69.3984C323.431 68.6693 323.086 68.054 322.715 67.5527C322.344 67.0514 321.982 66.6608 321.631 66.3809L322.109 65.0918C322.63 65.3392 323.174 65.7493 323.74 66.3223C324.313 66.8952 324.844 67.6146 325.332 68.4805C325.827 69.3398 326.227 70.3359 326.533 71.4688C326.846 72.6016 327.002 73.8516 327.002 75.2188ZM253.184 100.094V109H251.377V98.4336H253.135L253.184 100.094ZM256.484 98.375L256.475 100.055C256.325 100.022 256.182 100.003 256.045 99.9961C255.915 99.9831 255.765 99.9766 255.596 99.9766C255.179 99.9766 254.811 100.042 254.492 100.172C254.173 100.302 253.903 100.484 253.682 100.719C253.46 100.953 253.285 101.233 253.154 101.559C253.031 101.878 252.949 102.229 252.91 102.613L252.402 102.906C252.402 102.268 252.464 101.669 252.588 101.109C252.718 100.549 252.917 100.055 253.184 99.625C253.451 99.1888 253.789 98.8503 254.199 98.6094C254.616 98.362 255.111 98.2383 255.684 98.2383C255.814 98.2383 255.964 98.2546 256.133 98.2871C256.302 98.3132 256.419 98.3424 256.484 98.375ZM263.994 107.193V101.754C263.994 101.337 263.91 100.976 263.74 100.67C263.577 100.357 263.33 100.117 262.998 99.9473C262.666 99.778 262.256 99.6934 261.768 99.6934C261.312 99.6934 260.911 99.7715 260.566 99.9277C260.228 100.084 259.961 100.289 259.766 100.543C259.577 100.797 259.482 101.07 259.482 101.363H257.676C257.676 100.986 257.773 100.611 257.969 100.24C258.164 99.8691 258.444 99.5339 258.809 99.2344C259.18 98.9284 259.622 98.6875 260.137 98.5117C260.658 98.3294 261.237 98.2383 261.875 98.2383C262.643 98.2383 263.32 98.3685 263.906 98.6289C264.499 98.8893 264.961 99.2832 265.293 99.8105C265.632 100.331 265.801 100.986 265.801 101.773V106.695C265.801 107.047 265.83 107.421 265.889 107.818C265.954 108.215 266.048 108.557 266.172 108.844V109H264.287C264.196 108.792 264.124 108.515 264.072 108.17C264.02 107.818 263.994 107.493 263.994 107.193ZM264.307 102.594L264.326 103.863H262.5C261.986 103.863 261.527 103.906 261.123 103.99C260.719 104.068 260.381 104.189 260.107 104.352C259.834 104.514 259.626 104.719 259.482 104.967C259.339 105.208 259.268 105.491 259.268 105.816C259.268 106.148 259.342 106.451 259.492 106.725C259.642 106.998 259.867 107.216 260.166 107.379C260.472 107.535 260.846 107.613 261.289 107.613C261.842 107.613 262.331 107.496 262.754 107.262C263.177 107.027 263.512 106.741 263.76 106.402C264.014 106.064 264.15 105.735 264.17 105.416L264.941 106.285C264.896 106.559 264.772 106.861 264.57 107.193C264.368 107.525 264.098 107.844 263.76 108.15C263.428 108.45 263.031 108.701 262.568 108.902C262.113 109.098 261.598 109.195 261.025 109.195C260.309 109.195 259.681 109.055 259.141 108.775C258.607 108.495 258.19 108.121 257.891 107.652C257.598 107.177 257.451 106.646 257.451 106.061C257.451 105.494 257.562 104.996 257.783 104.566C258.005 104.13 258.324 103.769 258.74 103.482C259.157 103.189 259.658 102.968 260.244 102.818C260.83 102.669 261.484 102.594 262.207 102.594H264.307ZM270.605 98.4336V109H268.789V98.4336H270.605ZM268.652 95.6309C268.652 95.3379 268.74 95.0905 268.916 94.8887C269.098 94.6868 269.365 94.5859 269.717 94.5859C270.062 94.5859 270.326 94.6868 270.508 94.8887C270.697 95.0905 270.791 95.3379 270.791 95.6309C270.791 95.9108 270.697 96.1517 270.508 96.3535C270.326 96.5488 270.062 96.6465 269.717 96.6465C269.365 96.6465 269.098 96.5488 268.916 96.3535C268.74 96.1517 268.652 95.9108 268.652 95.6309ZM275.312 100.689V109H273.506V98.4336H275.215L275.312 100.689ZM274.883 103.316L274.131 103.287C274.137 102.564 274.245 101.897 274.453 101.285C274.661 100.667 274.954 100.13 275.332 99.6738C275.71 99.2181 276.159 98.8665 276.68 98.6191C277.207 98.3652 277.79 98.2383 278.428 98.2383C278.949 98.2383 279.417 98.3099 279.834 98.4531C280.251 98.5898 280.605 98.8112 280.898 99.1172C281.198 99.4232 281.426 99.8203 281.582 100.309C281.738 100.79 281.816 101.38 281.816 102.076V109H280V102.057C280 101.503 279.919 101.061 279.756 100.729C279.593 100.39 279.355 100.146 279.043 99.9961C278.73 99.8398 278.346 99.7617 277.891 99.7617C277.441 99.7617 277.031 99.8561 276.66 100.045C276.296 100.234 275.98 100.494 275.713 100.826C275.452 101.158 275.247 101.539 275.098 101.969C274.954 102.392 274.883 102.841 274.883 103.316ZM293.281 102.213V103.697H288.516V102.213H293.281ZM301.914 98.4336H303.721L303.564 102.389C303.525 103.391 303.411 104.257 303.223 104.986C303.034 105.715 302.793 106.337 302.5 106.852C302.207 107.359 301.878 107.786 301.514 108.131C301.156 108.476 300.785 108.766 300.4 109H299.502L299.551 107.525L299.922 107.516C300.137 107.262 300.345 107.001 300.547 106.734C300.749 106.461 300.934 106.139 301.104 105.768C301.273 105.39 301.413 104.931 301.523 104.391C301.641 103.844 301.715 103.176 301.748 102.389L301.914 98.4336ZM302.363 98.4336H308.721V109H306.914V100.104H302.363V98.4336ZM299.092 107.516H310.078V112.115H308.271V109H300.898V112.115H299.082L299.092 107.516ZM311.602 103.834V103.609C311.602 102.848 311.712 102.141 311.934 101.49C312.155 100.833 312.474 100.263 312.891 99.7812C313.307 99.293 313.812 98.9154 314.404 98.6484C314.997 98.375 315.661 98.2383 316.396 98.2383C317.139 98.2383 317.806 98.375 318.398 98.6484C318.997 98.9154 319.505 99.293 319.922 99.7812C320.345 100.263 320.667 100.833 320.889 101.49C321.11 102.141 321.221 102.848 321.221 103.609V103.834C321.221 104.596 321.11 105.302 320.889 105.953C320.667 106.604 320.345 107.174 319.922 107.662C319.505 108.144 319.001 108.521 318.408 108.795C317.822 109.062 317.158 109.195 316.416 109.195C315.674 109.195 315.007 109.062 314.414 108.795C313.822 108.521 313.314 108.144 312.891 107.662C312.474 107.174 312.155 106.604 311.934 105.953C311.712 105.302 311.602 104.596 311.602 103.834ZM313.408 103.609V103.834C313.408 104.361 313.47 104.859 313.594 105.328C313.717 105.79 313.903 106.201 314.15 106.559C314.404 106.917 314.72 107.2 315.098 107.408C315.475 107.61 315.915 107.711 316.416 107.711C316.911 107.711 317.344 107.61 317.715 107.408C318.092 107.2 318.405 106.917 318.652 106.559C318.9 106.201 319.085 105.79 319.209 105.328C319.339 104.859 319.404 104.361 319.404 103.834V103.609C319.404 103.089 319.339 102.597 319.209 102.135C319.085 101.666 318.896 101.253 318.643 100.895C318.395 100.53 318.083 100.243 317.705 100.035C317.334 99.8268 316.898 99.7227 316.396 99.7227C315.902 99.7227 315.465 99.8268 315.088 100.035C314.717 100.243 314.404 100.53 314.15 100.895C313.903 101.253 313.717 101.666 313.594 102.135C313.47 102.597 313.408 103.089 313.408 103.609ZM326.475 104.4L322.471 98.4336H324.648L327.383 102.809H329.492L329.229 104.4H326.475ZM327.461 104.215L324.395 109H322.109L326.318 102.906L327.461 104.215ZM330.42 98.4336V109H328.613V98.4336H330.42ZM336.582 98.4336L332.578 104.4H329.824L329.541 102.809H331.66L334.395 98.4336H336.582ZM334.648 109L331.572 104.215L332.734 102.906L336.934 109H334.648ZM340.508 98.4336H342.314L342.158 102.389C342.119 103.391 342.005 104.257 341.816 104.986C341.628 105.715 341.387 106.337 341.094 106.852C340.801 107.359 340.472 107.786 340.107 108.131C339.749 108.476 339.378 108.766 338.994 109H338.096L338.145 107.525L338.516 107.516C338.73 107.262 338.939 107.001 339.141 106.734C339.342 106.461 339.528 106.139 339.697 105.768C339.867 105.39 340.007 104.931 340.117 104.391C340.234 103.844 340.309 103.176 340.342 102.389L340.508 98.4336ZM340.957 98.4336H347.314V109H345.508V100.104H340.957V98.4336ZM337.686 107.516H348.672V112.115H346.865V109H339.492V112.115H337.676L337.686 107.516ZM352.158 102.066H355.332C356.185 102.066 356.904 102.216 357.49 102.516C358.076 102.809 358.519 103.215 358.818 103.736C359.124 104.251 359.277 104.837 359.277 105.494C359.277 105.982 359.193 106.441 359.023 106.871C358.854 107.294 358.6 107.665 358.262 107.984C357.93 108.303 357.516 108.554 357.021 108.736C356.533 108.912 355.97 109 355.332 109H350.84V98.4336H352.646V107.516H355.332C355.853 107.516 356.27 107.421 356.582 107.232C356.895 107.044 357.119 106.799 357.256 106.5C357.393 106.201 357.461 105.888 357.461 105.562C357.461 105.243 357.393 104.931 357.256 104.625C357.119 104.319 356.895 104.065 356.582 103.863C356.27 103.655 355.853 103.551 355.332 103.551H352.158V102.066Z" fill="black"/>
<path d="M557.301 70.4336V72.3086H552.086V70.4336H557.301ZM552.643 70.4336V81H550.289V70.4336H552.643ZM559.146 70.4336V81H556.783V70.4336H559.146ZM564 72.4648V85.0625H561.646V70.4336H563.814L564 72.4648ZM570.885 75.6191V75.8242C570.885 76.5924 570.794 77.3053 570.611 77.9629C570.436 78.6139 570.172 79.1836 569.82 79.6719C569.475 80.1536 569.049 80.528 568.541 80.7949C568.033 81.0618 567.447 81.1953 566.783 81.1953C566.126 81.1953 565.549 81.0749 565.055 80.834C564.566 80.5866 564.153 80.2383 563.814 79.7891C563.476 79.3398 563.202 78.8125 562.994 78.207C562.792 77.5951 562.649 76.9245 562.564 76.1953V75.4043C562.649 74.6296 562.792 73.9264 562.994 73.2949C563.202 72.6634 563.476 72.1198 563.814 71.6641C564.153 71.2083 564.566 70.8568 565.055 70.6094C565.543 70.362 566.113 70.2383 566.764 70.2383C567.428 70.2383 568.017 70.3685 568.531 70.6289C569.046 70.8828 569.479 71.2474 569.83 71.7227C570.182 72.1914 570.445 72.7578 570.621 73.4219C570.797 74.0794 570.885 74.8118 570.885 75.6191ZM568.531 75.8242V75.6191C568.531 75.1309 568.486 74.6784 568.395 74.2617C568.303 73.8385 568.16 73.4674 567.965 73.1484C567.77 72.8294 567.519 72.582 567.213 72.4062C566.913 72.224 566.552 72.1328 566.129 72.1328C565.712 72.1328 565.354 72.2044 565.055 72.3477C564.755 72.4844 564.505 72.6764 564.303 72.9238C564.101 73.1712 563.945 73.4609 563.834 73.793C563.723 74.1185 563.645 74.4733 563.6 74.8574V76.752C563.678 77.2207 563.811 77.6504 564 78.041C564.189 78.4316 564.456 78.7441 564.801 78.9785C565.152 79.2064 565.602 79.3203 566.148 79.3203C566.572 79.3203 566.933 79.2292 567.232 79.0469C567.532 78.8646 567.776 78.6139 567.965 78.2949C568.16 77.9694 568.303 77.5951 568.395 77.1719C568.486 76.7487 568.531 76.2995 568.531 75.8242ZM575.318 77.5625L579.469 70.4336H581.822V81H579.469V73.8613L575.318 81H572.965V70.4336H575.318V77.5625ZM591.412 70.4336V72.3086H586.256V70.4336H591.412ZM593.258 70.4336V81H590.904V70.4336H593.258ZM585.68 70.4336H588.004L587.721 75.6582C587.682 76.4329 587.604 77.1165 587.486 77.709C587.376 78.2949 587.226 78.7995 587.037 79.2227C586.848 79.6393 586.617 79.9779 586.344 80.2383C586.07 80.4987 585.751 80.6908 585.387 80.8145C585.022 80.9382 584.612 81 584.156 81H583.424L583.414 79.0664L583.785 79.0371C584.026 79.0176 584.234 78.9557 584.41 78.8516C584.586 78.7409 584.736 78.5846 584.859 78.3828C584.99 78.181 585.094 77.9206 585.172 77.6016C585.257 77.2826 585.322 76.9049 585.367 76.4688C585.419 76.0326 585.458 75.5247 585.484 74.9453L585.68 70.4336ZM552.184 100.094V109H550.377V98.4336H552.135L552.184 100.094ZM555.484 98.375L555.475 100.055C555.325 100.022 555.182 100.003 555.045 99.9961C554.915 99.9831 554.765 99.9766 554.596 99.9766C554.179 99.9766 553.811 100.042 553.492 100.172C553.173 100.302 552.903 100.484 552.682 100.719C552.46 100.953 552.285 101.233 552.154 101.559C552.031 101.878 551.949 102.229 551.91 102.613L551.402 102.906C551.402 102.268 551.464 101.669 551.588 101.109C551.718 100.549 551.917 100.055 552.184 99.625C552.451 99.1888 552.789 98.8503 553.199 98.6094C553.616 98.362 554.111 98.2383 554.684 98.2383C554.814 98.2383 554.964 98.2546 555.133 98.2871C555.302 98.3132 555.419 98.3424 555.484 98.375ZM562.994 107.193V101.754C562.994 101.337 562.91 100.976 562.74 100.67C562.577 100.357 562.33 100.117 561.998 99.9473C561.666 99.778 561.256 99.6934 560.768 99.6934C560.312 99.6934 559.911 99.7715 559.566 99.9277C559.228 100.084 558.961 100.289 558.766 100.543C558.577 100.797 558.482 101.07 558.482 101.363H556.676C556.676 100.986 556.773 100.611 556.969 100.24C557.164 99.8691 557.444 99.5339 557.809 99.2344C558.18 98.9284 558.622 98.6875 559.137 98.5117C559.658 98.3294 560.237 98.2383 560.875 98.2383C561.643 98.2383 562.32 98.3685 562.906 98.6289C563.499 98.8893 563.961 99.2832 564.293 99.8105C564.632 100.331 564.801 100.986 564.801 101.773V106.695C564.801 107.047 564.83 107.421 564.889 107.818C564.954 108.215 565.048 108.557 565.172 108.844V109H563.287C563.196 108.792 563.124 108.515 563.072 108.17C563.02 107.818 562.994 107.493 562.994 107.193ZM563.307 102.594L563.326 103.863H561.5C560.986 103.863 560.527 103.906 560.123 103.99C559.719 104.068 559.381 104.189 559.107 104.352C558.834 104.514 558.626 104.719 558.482 104.967C558.339 105.208 558.268 105.491 558.268 105.816C558.268 106.148 558.342 106.451 558.492 106.725C558.642 106.998 558.867 107.216 559.166 107.379C559.472 107.535 559.846 107.613 560.289 107.613C560.842 107.613 561.331 107.496 561.754 107.262C562.177 107.027 562.512 106.741 562.76 106.402C563.014 106.064 563.15 105.735 563.17 105.416L563.941 106.285C563.896 106.559 563.772 106.861 563.57 107.193C563.368 107.525 563.098 107.844 562.76 108.15C562.428 108.45 562.031 108.701 561.568 108.902C561.113 109.098 560.598 109.195 560.025 109.195C559.309 109.195 558.681 109.055 558.141 108.775C557.607 108.495 557.19 108.121 556.891 107.652C556.598 107.177 556.451 106.646 556.451 106.061C556.451 105.494 556.562 104.996 556.783 104.566C557.005 104.13 557.324 103.769 557.74 103.482C558.157 103.189 558.658 102.968 559.244 102.818C559.83 102.669 560.484 102.594 561.207 102.594H563.307ZM569.605 98.4336V109H567.789V98.4336H569.605ZM567.652 95.6309C567.652 95.3379 567.74 95.0905 567.916 94.8887C568.098 94.6868 568.365 94.5859 568.717 94.5859C569.062 94.5859 569.326 94.6868 569.508 94.8887C569.697 95.0905 569.791 95.3379 569.791 95.6309C569.791 95.9108 569.697 96.1517 569.508 96.3535C569.326 96.5488 569.062 96.6465 568.717 96.6465C568.365 96.6465 568.098 96.5488 567.916 96.3535C567.74 96.1517 567.652 95.9108 567.652 95.6309ZM574.312 100.689V109H572.506V98.4336H574.215L574.312 100.689ZM573.883 103.316L573.131 103.287C573.137 102.564 573.245 101.897 573.453 101.285C573.661 100.667 573.954 100.13 574.332 99.6738C574.71 99.2181 575.159 98.8665 575.68 98.6191C576.207 98.3652 576.79 98.2383 577.428 98.2383C577.949 98.2383 578.417 98.3099 578.834 98.4531C579.251 98.5898 579.605 98.8112 579.898 99.1172C580.198 99.4232 580.426 99.8203 580.582 100.309C580.738 100.79 580.816 101.38 580.816 102.076V109H579V102.057C579 101.503 578.919 101.061 578.756 100.729C578.593 100.39 578.355 100.146 578.043 99.9961C577.73 99.8398 577.346 99.7617 576.891 99.7617C576.441 99.7617 576.031 99.8561 575.66 100.045C575.296 100.234 574.98 100.494 574.713 100.826C574.452 101.158 574.247 101.539 574.098 101.969C573.954 102.392 573.883 102.841 573.883 103.316ZM587.291 92.75V94.2344H585.426V110.562H587.291V112.047H583.619V92.75H587.291ZM591.842 107.906L594.781 98.4336H596.715L592.477 110.631C592.379 110.891 592.249 111.171 592.086 111.471C591.93 111.777 591.728 112.066 591.48 112.34C591.233 112.613 590.934 112.835 590.582 113.004C590.237 113.18 589.824 113.268 589.342 113.268C589.199 113.268 589.016 113.248 588.795 113.209C588.574 113.17 588.417 113.137 588.326 113.111L588.316 111.646C588.368 111.653 588.45 111.66 588.561 111.666C588.678 111.679 588.759 111.686 588.805 111.686C589.215 111.686 589.563 111.63 589.85 111.52C590.136 111.415 590.377 111.236 590.572 110.982C590.774 110.735 590.947 110.393 591.09 109.957L591.842 107.906ZM589.684 98.4336L592.428 106.637L592.896 108.541L591.598 109.205L587.711 98.4336H589.684ZM597.066 94.2344V92.75H600.758V112.047H597.066V110.562H598.941V94.2344H597.066ZM612.379 102.213V103.697H607.613V102.213H612.379ZM621.012 98.4336H622.818L622.662 102.389C622.623 103.391 622.509 104.257 622.32 104.986C622.132 105.715 621.891 106.337 621.598 106.852C621.305 107.359 620.976 107.786 620.611 108.131C620.253 108.476 619.882 108.766 619.498 109H618.6L618.648 107.525L619.02 107.516C619.234 107.262 619.443 107.001 619.645 106.734C619.846 106.461 620.032 106.139 620.201 105.768C620.37 105.39 620.51 104.931 620.621 104.391C620.738 103.844 620.813 103.176 620.846 102.389L621.012 98.4336ZM621.461 98.4336H627.818V109H626.012V100.104H621.461V98.4336ZM618.189 107.516H629.176V112.115H627.369V109H619.996V112.115H618.18L618.189 107.516ZM630.699 103.834V103.609C630.699 102.848 630.81 102.141 631.031 101.49C631.253 100.833 631.572 100.263 631.988 99.7812C632.405 99.293 632.91 98.9154 633.502 98.6484C634.094 98.375 634.758 98.2383 635.494 98.2383C636.236 98.2383 636.904 98.375 637.496 98.6484C638.095 98.9154 638.603 99.293 639.02 99.7812C639.443 100.263 639.765 100.833 639.986 101.49C640.208 102.141 640.318 102.848 640.318 103.609V103.834C640.318 104.596 640.208 105.302 639.986 105.953C639.765 106.604 639.443 107.174 639.02 107.662C638.603 108.144 638.098 108.521 637.506 108.795C636.92 109.062 636.256 109.195 635.514 109.195C634.771 109.195 634.104 109.062 633.512 108.795C632.919 108.521 632.411 108.144 631.988 107.662C631.572 107.174 631.253 106.604 631.031 105.953C630.81 105.302 630.699 104.596 630.699 103.834ZM632.506 103.609V103.834C632.506 104.361 632.568 104.859 632.691 105.328C632.815 105.79 633.001 106.201 633.248 106.559C633.502 106.917 633.818 107.2 634.195 107.408C634.573 107.61 635.012 107.711 635.514 107.711C636.008 107.711 636.441 107.61 636.812 107.408C637.19 107.2 637.503 106.917 637.75 106.559C637.997 106.201 638.183 105.79 638.307 105.328C638.437 104.859 638.502 104.361 638.502 103.834V103.609C638.502 103.089 638.437 102.597 638.307 102.135C638.183 101.666 637.994 101.253 637.74 100.895C637.493 100.53 637.18 100.243 636.803 100.035C636.432 99.8268 635.995 99.7227 635.494 99.7227C634.999 99.7227 634.563 99.8268 634.186 100.035C633.814 100.243 633.502 100.53 633.248 100.895C633.001 101.253 632.815 101.666 632.691 102.135C632.568 102.597 632.506 103.089 632.506 103.609ZM645.572 104.4L641.568 98.4336H643.746L646.48 102.809H648.59L648.326 104.4H645.572ZM646.559 104.215L643.492 109H641.207L645.416 102.906L646.559 104.215ZM649.518 98.4336V109H647.711V98.4336H649.518ZM655.68 98.4336L651.676 104.4H648.922L648.639 102.809H650.758L653.492 98.4336H655.68ZM653.746 109L650.67 104.215L651.832 102.906L656.031 109H653.746ZM664.762 98.4336V99.9277H659.654V98.4336H664.762ZM666.354 98.4336V109H664.547V98.4336H666.354ZM659.215 98.4336H661.031L660.758 103.531C660.712 104.319 660.637 105.016 660.533 105.621C660.436 106.22 660.299 106.734 660.123 107.164C659.954 107.594 659.739 107.945 659.479 108.219C659.225 108.486 658.919 108.684 658.561 108.814C658.202 108.938 657.789 109 657.32 109H656.754V107.408L657.145 107.379C657.424 107.359 657.662 107.294 657.857 107.184C658.059 107.073 658.229 106.91 658.365 106.695C658.502 106.474 658.613 106.191 658.697 105.846C658.788 105.501 658.857 105.09 658.902 104.615C658.954 104.14 658.993 103.587 659.02 102.955L659.215 98.4336ZM671.217 106.139L676.09 98.4336H677.906V109H676.09V101.295L671.217 109H669.42V98.4336H671.217V106.139ZM685.768 104.352H682.301L682.281 102.906H685.113C685.673 102.906 686.139 102.851 686.51 102.74C686.887 102.63 687.171 102.464 687.359 102.242C687.548 102.021 687.643 101.747 687.643 101.422C687.643 101.168 687.587 100.947 687.477 100.758C687.372 100.562 687.213 100.403 686.998 100.279C686.783 100.149 686.516 100.055 686.197 99.9961C685.885 99.931 685.517 99.8984 685.094 99.8984H682.779V109H680.973V98.4336H685.094C685.764 98.4336 686.367 98.4922 686.9 98.6094C687.441 98.7266 687.9 98.9056 688.277 99.1465C688.661 99.3809 688.954 99.6803 689.156 100.045C689.358 100.41 689.459 100.839 689.459 101.334C689.459 101.653 689.394 101.956 689.264 102.242C689.133 102.529 688.941 102.783 688.688 103.004C688.434 103.225 688.121 103.408 687.75 103.551C687.379 103.688 686.952 103.775 686.471 103.814L685.768 104.352ZM685.768 109H681.646L682.545 107.535H685.768C686.269 107.535 686.686 107.473 687.018 107.35C687.35 107.219 687.597 107.037 687.76 106.803C687.929 106.562 688.014 106.275 688.014 105.943C688.014 105.611 687.929 105.328 687.76 105.094C687.597 104.853 687.35 104.671 687.018 104.547C686.686 104.417 686.269 104.352 685.768 104.352H683.023L683.043 102.906H686.471L687.125 103.453C687.704 103.499 688.196 103.642 688.6 103.883C689.003 104.124 689.309 104.43 689.518 104.801C689.726 105.165 689.83 105.562 689.83 105.992C689.83 106.487 689.736 106.923 689.547 107.301C689.365 107.678 689.098 107.994 688.746 108.248C688.395 108.495 687.968 108.684 687.467 108.814C686.965 108.938 686.399 109 685.768 109ZM693.736 102.066H696.91C697.763 102.066 698.482 102.216 699.068 102.516C699.654 102.809 700.097 103.215 700.396 103.736C700.702 104.251 700.855 104.837 700.855 105.494C700.855 105.982 700.771 106.441 700.602 106.871C700.432 107.294 700.178 107.665 699.84 107.984C699.508 108.303 699.094 108.554 698.6 108.736C698.111 108.912 697.548 109 696.91 109H692.418V98.4336H694.225V107.516H696.91C697.431 107.516 697.848 107.421 698.16 107.232C698.473 107.044 698.697 106.799 698.834 106.5C698.971 106.201 699.039 105.888 699.039 105.562C699.039 105.243 698.971 104.931 698.834 104.625C698.697 104.319 698.473 104.065 698.16 103.863C697.848 103.655 697.431 103.551 696.91 103.551H693.736V102.066ZM704.615 98.4336V109H702.809V98.4336H704.615ZM709.732 106.139L714.605 98.4336H716.422V109H714.605V101.295L709.732 109H707.936V98.4336H709.732V106.139ZM713.619 94.6055H715.084C715.084 95.1133 714.967 95.5658 714.732 95.9629C714.498 96.3535 714.163 96.6595 713.727 96.8809C713.29 97.1022 712.773 97.2129 712.174 97.2129C711.269 97.2129 710.553 96.972 710.025 96.4902C709.505 96.002 709.244 95.3737 709.244 94.6055H710.709C710.709 94.9896 710.82 95.3281 711.041 95.6211C711.262 95.9141 711.64 96.0605 712.174 96.0605C712.695 96.0605 713.066 95.9141 713.287 95.6211C713.508 95.3281 713.619 94.9896 713.619 94.6055Z" fill="black"/>
<path d="M255.527 146.32C255.911 146.32 256.257 146.245 256.562 146.096C256.875 145.939 257.126 145.725 257.314 145.451C257.51 145.178 257.617 144.862 257.637 144.504H259.854C259.84 145.188 259.639 145.809 259.248 146.369C258.857 146.929 258.34 147.375 257.695 147.707C257.051 148.033 256.338 148.195 255.557 148.195C254.749 148.195 254.046 148.059 253.447 147.785C252.848 147.505 252.35 147.121 251.953 146.633C251.556 146.145 251.257 145.581 251.055 144.943C250.859 144.305 250.762 143.622 250.762 142.893V142.551C250.762 141.822 250.859 141.138 251.055 140.5C251.257 139.855 251.556 139.289 251.953 138.801C252.35 138.312 252.848 137.932 253.447 137.658C254.046 137.378 254.746 137.238 255.547 137.238C256.393 137.238 257.135 137.408 257.773 137.746C258.411 138.078 258.913 138.544 259.277 139.143C259.648 139.735 259.84 140.425 259.854 141.213H257.637C257.617 140.822 257.52 140.471 257.344 140.158C257.174 139.839 256.934 139.585 256.621 139.396C256.315 139.208 255.947 139.113 255.518 139.113C255.042 139.113 254.648 139.211 254.336 139.406C254.023 139.595 253.779 139.855 253.604 140.188C253.428 140.513 253.301 140.881 253.223 141.291C253.151 141.695 253.115 142.115 253.115 142.551V142.893C253.115 143.329 253.151 143.752 253.223 144.162C253.294 144.572 253.418 144.94 253.594 145.266C253.776 145.585 254.023 145.842 254.336 146.037C254.648 146.226 255.046 146.32 255.527 146.32ZM264.727 146.848L267.598 137.434H270.117L265.879 149.611C265.781 149.872 265.654 150.155 265.498 150.461C265.342 150.767 265.137 151.057 264.883 151.33C264.635 151.61 264.326 151.835 263.955 152.004C263.584 152.18 263.135 152.268 262.607 152.268C262.399 152.268 262.197 152.248 262.002 152.209C261.813 152.176 261.634 152.141 261.465 152.102L261.455 150.305C261.52 150.311 261.598 150.318 261.689 150.324C261.787 150.331 261.865 150.334 261.924 150.334C262.314 150.334 262.64 150.285 262.9 150.188C263.161 150.096 263.372 149.947 263.535 149.738C263.704 149.53 263.848 149.25 263.965 148.898L264.727 146.848ZM263.105 137.434L265.615 145.344L266.035 147.824L264.404 148.244L260.566 137.434H263.105ZM287.08 146.135L286.895 151.135H284.736V148H283.467V146.135H287.08ZM271.475 137.434H273.828V146.125H277.188V137.434H279.551V146.125H282.9V137.434H285.254V148H271.475V137.434ZM253.184 167.094V176H251.377V165.434H253.135L253.184 167.094ZM256.484 165.375L256.475 167.055C256.325 167.022 256.182 167.003 256.045 166.996C255.915 166.983 255.765 166.977 255.596 166.977C255.179 166.977 254.811 167.042 254.492 167.172C254.173 167.302 253.903 167.484 253.682 167.719C253.46 167.953 253.285 168.233 253.154 168.559C253.031 168.878 252.949 169.229 252.91 169.613L252.402 169.906C252.402 169.268 252.464 168.669 252.588 168.109C252.718 167.549 252.917 167.055 253.184 166.625C253.451 166.189 253.789 165.85 254.199 165.609C254.616 165.362 255.111 165.238 255.684 165.238C255.814 165.238 255.964 165.255 256.133 165.287C256.302 165.313 256.419 165.342 256.484 165.375ZM263.994 174.193V168.754C263.994 168.337 263.91 167.976 263.74 167.67C263.577 167.357 263.33 167.117 262.998 166.947C262.666 166.778 262.256 166.693 261.768 166.693C261.312 166.693 260.911 166.771 260.566 166.928C260.228 167.084 259.961 167.289 259.766 167.543C259.577 167.797 259.482 168.07 259.482 168.363H257.676C257.676 167.986 257.773 167.611 257.969 167.24C258.164 166.869 258.444 166.534 258.809 166.234C259.18 165.928 259.622 165.688 260.137 165.512C260.658 165.329 261.237 165.238 261.875 165.238C262.643 165.238 263.32 165.368 263.906 165.629C264.499 165.889 264.961 166.283 265.293 166.811C265.632 167.331 265.801 167.986 265.801 168.773V173.695C265.801 174.047 265.83 174.421 265.889 174.818C265.954 175.215 266.048 175.557 266.172 175.844V176H264.287C264.196 175.792 264.124 175.515 264.072 175.17C264.02 174.818 263.994 174.493 263.994 174.193ZM264.307 169.594L264.326 170.863H262.5C261.986 170.863 261.527 170.906 261.123 170.99C260.719 171.068 260.381 171.189 260.107 171.352C259.834 171.514 259.626 171.719 259.482 171.967C259.339 172.208 259.268 172.491 259.268 172.816C259.268 173.148 259.342 173.451 259.492 173.725C259.642 173.998 259.867 174.216 260.166 174.379C260.472 174.535 260.846 174.613 261.289 174.613C261.842 174.613 262.331 174.496 262.754 174.262C263.177 174.027 263.512 173.741 263.76 173.402C264.014 173.064 264.15 172.735 264.17 172.416L264.941 173.285C264.896 173.559 264.772 173.861 264.57 174.193C264.368 174.525 264.098 174.844 263.76 175.15C263.428 175.45 263.031 175.701 262.568 175.902C262.113 176.098 261.598 176.195 261.025 176.195C260.309 176.195 259.681 176.055 259.141 175.775C258.607 175.495 258.19 175.121 257.891 174.652C257.598 174.177 257.451 173.646 257.451 173.061C257.451 172.494 257.562 171.996 257.783 171.566C258.005 171.13 258.324 170.769 258.74 170.482C259.157 170.189 259.658 169.968 260.244 169.818C260.83 169.669 261.484 169.594 262.207 169.594H264.307ZM270.605 165.434V176H268.789V165.434H270.605ZM268.652 162.631C268.652 162.338 268.74 162.09 268.916 161.889C269.098 161.687 269.365 161.586 269.717 161.586C270.062 161.586 270.326 161.687 270.508 161.889C270.697 162.09 270.791 162.338 270.791 162.631C270.791 162.911 270.697 163.152 270.508 163.354C270.326 163.549 270.062 163.646 269.717 163.646C269.365 163.646 269.098 163.549 268.916 163.354C268.74 163.152 268.652 162.911 268.652 162.631ZM275.312 167.689V176H273.506V165.434H275.215L275.312 167.689ZM274.883 170.316L274.131 170.287C274.137 169.564 274.245 168.897 274.453 168.285C274.661 167.667 274.954 167.13 275.332 166.674C275.71 166.218 276.159 165.867 276.68 165.619C277.207 165.365 277.79 165.238 278.428 165.238C278.949 165.238 279.417 165.31 279.834 165.453C280.251 165.59 280.605 165.811 280.898 166.117C281.198 166.423 281.426 166.82 281.582 167.309C281.738 167.79 281.816 168.38 281.816 169.076V176H280V169.057C280 168.503 279.919 168.061 279.756 167.729C279.593 167.39 279.355 167.146 279.043 166.996C278.73 166.84 278.346 166.762 277.891 166.762C277.441 166.762 277.031 166.856 276.66 167.045C276.296 167.234 275.98 167.494 275.713 167.826C275.452 168.158 275.247 168.539 275.098 168.969C274.954 169.392 274.883 169.841 274.883 170.316ZM293.281 169.213V170.697H288.516V169.213H293.281ZM301.914 165.434H303.721L303.564 169.389C303.525 170.391 303.411 171.257 303.223 171.986C303.034 172.715 302.793 173.337 302.5 173.852C302.207 174.359 301.878 174.786 301.514 175.131C301.156 175.476 300.785 175.766 300.4 176H299.502L299.551 174.525L299.922 174.516C300.137 174.262 300.345 174.001 300.547 173.734C300.749 173.461 300.934 173.139 301.104 172.768C301.273 172.39 301.413 171.931 301.523 171.391C301.641 170.844 301.715 170.176 301.748 169.389L301.914 165.434ZM302.363 165.434H308.721V176H306.914V167.104H302.363V165.434ZM299.092 174.516H310.078V179.115H308.271V176H300.898V179.115H299.082L299.092 174.516ZM311.602 170.834V170.609C311.602 169.848 311.712 169.141 311.934 168.49C312.155 167.833 312.474 167.263 312.891 166.781C313.307 166.293 313.812 165.915 314.404 165.648C314.997 165.375 315.661 165.238 316.396 165.238C317.139 165.238 317.806 165.375 318.398 165.648C318.997 165.915 319.505 166.293 319.922 166.781C320.345 167.263 320.667 167.833 320.889 168.49C321.11 169.141 321.221 169.848 321.221 170.609V170.834C321.221 171.596 321.11 172.302 320.889 172.953C320.667 173.604 320.345 174.174 319.922 174.662C319.505 175.144 319.001 175.521 318.408 175.795C317.822 176.062 317.158 176.195 316.416 176.195C315.674 176.195 315.007 176.062 314.414 175.795C313.822 175.521 313.314 175.144 312.891 174.662C312.474 174.174 312.155 173.604 311.934 172.953C311.712 172.302 311.602 171.596 311.602 170.834ZM313.408 170.609V170.834C313.408 171.361 313.47 171.859 313.594 172.328C313.717 172.79 313.903 173.201 314.15 173.559C314.404 173.917 314.72 174.2 315.098 174.408C315.475 174.61 315.915 174.711 316.416 174.711C316.911 174.711 317.344 174.61 317.715 174.408C318.092 174.2 318.405 173.917 318.652 173.559C318.9 173.201 319.085 172.79 319.209 172.328C319.339 171.859 319.404 171.361 319.404 170.834V170.609C319.404 170.089 319.339 169.597 319.209 169.135C319.085 168.666 318.896 168.253 318.643 167.895C318.395 167.53 318.083 167.243 317.705 167.035C317.334 166.827 316.898 166.723 316.396 166.723C315.902 166.723 315.465 166.827 315.088 167.035C314.717 167.243 314.404 167.53 314.15 167.895C313.903 168.253 313.717 168.666 313.594 169.135C313.47 169.597 313.408 170.089 313.408 170.609ZM326.475 171.4L322.471 165.434H324.648L327.383 169.809H329.492L329.229 171.4H326.475ZM327.461 171.215L324.395 176H322.109L326.318 169.906L327.461 171.215ZM330.42 165.434V176H328.613V165.434H330.42ZM336.582 165.434L332.578 171.4H329.824L329.541 169.809H331.66L334.395 165.434H336.582ZM334.648 176L331.572 171.215L332.734 169.906L336.934 176H334.648ZM340.508 165.434H342.314L342.158 169.389C342.119 170.391 342.005 171.257 341.816 171.986C341.628 172.715 341.387 173.337 341.094 173.852C340.801 174.359 340.472 174.786 340.107 175.131C339.749 175.476 339.378 175.766 338.994 176H338.096L338.145 174.525L338.516 174.516C338.73 174.262 338.939 174.001 339.141 173.734C339.342 173.461 339.528 173.139 339.697 172.768C339.867 172.39 340.007 171.931 340.117 171.391C340.234 170.844 340.309 170.176 340.342 169.389L340.508 165.434ZM340.957 165.434H347.314V176H345.508V167.104H340.957V165.434ZM337.686 174.516H348.672V179.115H346.865V176H339.492V179.115H337.676L337.686 174.516ZM352.158 169.066H355.332C356.185 169.066 356.904 169.216 357.49 169.516C358.076 169.809 358.519 170.215 358.818 170.736C359.124 171.251 359.277 171.837 359.277 172.494C359.277 172.982 359.193 173.441 359.023 173.871C358.854 174.294 358.6 174.665 358.262 174.984C357.93 175.303 357.516 175.554 357.021 175.736C356.533 175.912 355.97 176 355.332 176H350.84V165.434H352.646V174.516H355.332C355.853 174.516 356.27 174.421 356.582 174.232C356.895 174.044 357.119 173.799 357.256 173.5C357.393 173.201 357.461 172.888 357.461 172.562C357.461 172.243 357.393 171.931 357.256 171.625C357.119 171.319 356.895 171.065 356.582 170.863C356.27 170.655 355.853 170.551 355.332 170.551H352.158V169.066Z" fill="black"/>
<path d="M554.527 146.32C554.911 146.32 555.257 146.245 555.562 146.096C555.875 145.939 556.126 145.725 556.314 145.451C556.51 145.178 556.617 144.862 556.637 144.504H558.854C558.84 145.188 558.639 145.809 558.248 146.369C557.857 146.929 557.34 147.375 556.695 147.707C556.051 148.033 555.338 148.195 554.557 148.195C553.749 148.195 553.046 148.059 552.447 147.785C551.848 147.505 551.35 147.121 550.953 146.633C550.556 146.145 550.257 145.581 550.055 144.943C549.859 144.305 549.762 143.622 549.762 142.893V142.551C549.762 141.822 549.859 141.138 550.055 140.5C550.257 139.855 550.556 139.289 550.953 138.801C551.35 138.312 551.848 137.932 552.447 137.658C553.046 137.378 553.746 137.238 554.547 137.238C555.393 137.238 556.135 137.408 556.773 137.746C557.411 138.078 557.913 138.544 558.277 139.143C558.648 139.735 558.84 140.425 558.854 141.213H556.637C556.617 140.822 556.52 140.471 556.344 140.158C556.174 139.839 555.934 139.585 555.621 139.396C555.315 139.208 554.947 139.113 554.518 139.113C554.042 139.113 553.648 139.211 553.336 139.406C553.023 139.595 552.779 139.855 552.604 140.188C552.428 140.513 552.301 140.881 552.223 141.291C552.151 141.695 552.115 142.115 552.115 142.551V142.893C552.115 143.329 552.151 143.752 552.223 144.162C552.294 144.572 552.418 144.94 552.594 145.266C552.776 145.585 553.023 145.842 553.336 146.037C553.648 146.226 554.046 146.32 554.527 146.32ZM563.727 146.848L566.598 137.434H569.117L564.879 149.611C564.781 149.872 564.654 150.155 564.498 150.461C564.342 150.767 564.137 151.057 563.883 151.33C563.635 151.61 563.326 151.835 562.955 152.004C562.584 152.18 562.135 152.268 561.607 152.268C561.399 152.268 561.197 152.248 561.002 152.209C560.813 152.176 560.634 152.141 560.465 152.102L560.455 150.305C560.52 150.311 560.598 150.318 560.689 150.324C560.787 150.331 560.865 150.334 560.924 150.334C561.314 150.334 561.64 150.285 561.9 150.188C562.161 150.096 562.372 149.947 562.535 149.738C562.704 149.53 562.848 149.25 562.965 148.898L563.727 146.848ZM562.105 137.434L564.615 145.344L565.035 147.824L563.404 148.244L559.566 137.434H562.105ZM586.08 146.135L585.895 151.135H583.736V148H582.467V146.135H586.08ZM570.475 137.434H572.828V146.125H576.188V137.434H578.551V146.125H581.9V137.434H584.254V148H570.475V137.434ZM552.184 167.094V176H550.377V165.434H552.135L552.184 167.094ZM555.484 165.375L555.475 167.055C555.325 167.022 555.182 167.003 555.045 166.996C554.915 166.983 554.765 166.977 554.596 166.977C554.179 166.977 553.811 167.042 553.492 167.172C553.173 167.302 552.903 167.484 552.682 167.719C552.46 167.953 552.285 168.233 552.154 168.559C552.031 168.878 551.949 169.229 551.91 169.613L551.402 169.906C551.402 169.268 551.464 168.669 551.588 168.109C551.718 167.549 551.917 167.055 552.184 166.625C552.451 166.189 552.789 165.85 553.199 165.609C553.616 165.362 554.111 165.238 554.684 165.238C554.814 165.238 554.964 165.255 555.133 165.287C555.302 165.313 555.419 165.342 555.484 165.375ZM562.994 174.193V168.754C562.994 168.337 562.91 167.976 562.74 167.67C562.577 167.357 562.33 167.117 561.998 166.947C561.666 166.778 561.256 166.693 560.768 166.693C560.312 166.693 559.911 166.771 559.566 166.928C559.228 167.084 558.961 167.289 558.766 167.543C558.577 167.797 558.482 168.07 558.482 168.363H556.676C556.676 167.986 556.773 167.611 556.969 167.24C557.164 166.869 557.444 166.534 557.809 166.234C558.18 165.928 558.622 165.688 559.137 165.512C559.658 165.329 560.237 165.238 560.875 165.238C561.643 165.238 562.32 165.368 562.906 165.629C563.499 165.889 563.961 166.283 564.293 166.811C564.632 167.331 564.801 167.986 564.801 168.773V173.695C564.801 174.047 564.83 174.421 564.889 174.818C564.954 175.215 565.048 175.557 565.172 175.844V176H563.287C563.196 175.792 563.124 175.515 563.072 175.17C563.02 174.818 562.994 174.493 562.994 174.193ZM563.307 169.594L563.326 170.863H561.5C560.986 170.863 560.527 170.906 560.123 170.99C559.719 171.068 559.381 171.189 559.107 171.352C558.834 171.514 558.626 171.719 558.482 171.967C558.339 172.208 558.268 172.491 558.268 172.816C558.268 173.148 558.342 173.451 558.492 173.725C558.642 173.998 558.867 174.216 559.166 174.379C559.472 174.535 559.846 174.613 560.289 174.613C560.842 174.613 561.331 174.496 561.754 174.262C562.177 174.027 562.512 173.741 562.76 173.402C563.014 173.064 563.15 172.735 563.17 172.416L563.941 173.285C563.896 173.559 563.772 173.861 563.57 174.193C563.368 174.525 563.098 174.844 562.76 175.15C562.428 175.45 562.031 175.701 561.568 175.902C561.113 176.098 560.598 176.195 560.025 176.195C559.309 176.195 558.681 176.055 558.141 175.775C557.607 175.495 557.19 175.121 556.891 174.652C556.598 174.177 556.451 173.646 556.451 173.061C556.451 172.494 556.562 171.996 556.783 171.566C557.005 171.13 557.324 170.769 557.74 170.482C558.157 170.189 558.658 169.968 559.244 169.818C559.83 169.669 560.484 169.594 561.207 169.594H563.307ZM569.605 165.434V176H567.789V165.434H569.605ZM567.652 162.631C567.652 162.338 567.74 162.09 567.916 161.889C568.098 161.687 568.365 161.586 568.717 161.586C569.062 161.586 569.326 161.687 569.508 161.889C569.697 162.09 569.791 162.338 569.791 162.631C569.791 162.911 569.697 163.152 569.508 163.354C569.326 163.549 569.062 163.646 568.717 163.646C568.365 163.646 568.098 163.549 567.916 163.354C567.74 163.152 567.652 162.911 567.652 162.631ZM574.312 167.689V176H572.506V165.434H574.215L574.312 167.689ZM573.883 170.316L573.131 170.287C573.137 169.564 573.245 168.897 573.453 168.285C573.661 167.667 573.954 167.13 574.332 166.674C574.71 166.218 575.159 165.867 575.68 165.619C576.207 165.365 576.79 165.238 577.428 165.238C577.949 165.238 578.417 165.31 578.834 165.453C579.251 165.59 579.605 165.811 579.898 166.117C580.198 166.423 580.426 166.82 580.582 167.309C580.738 167.79 580.816 168.38 580.816 169.076V176H579V169.057C579 168.503 578.919 168.061 578.756 167.729C578.593 167.39 578.355 167.146 578.043 166.996C577.73 166.84 577.346 166.762 576.891 166.762C576.441 166.762 576.031 166.856 575.66 167.045C575.296 167.234 574.98 167.494 574.713 167.826C574.452 168.158 574.247 168.539 574.098 168.969C573.954 169.392 573.883 169.841 573.883 170.316ZM587.291 159.75V161.234H585.426V177.562H587.291V179.047H583.619V159.75H587.291ZM590.836 165.434V176H589.02V165.434H590.836ZM588.883 162.631C588.883 162.338 588.971 162.09 589.146 161.889C589.329 161.687 589.596 161.586 589.947 161.586C590.292 161.586 590.556 161.687 590.738 161.889C590.927 162.09 591.021 162.338 591.021 162.631C591.021 162.911 590.927 163.152 590.738 163.354C590.556 163.549 590.292 163.646 589.947 163.646C589.596 163.646 589.329 163.549 589.146 163.354C588.971 163.152 588.883 162.911 588.883 162.631ZM592.457 161.234V159.75H596.148V179.047H592.457V177.562H594.332V161.234H592.457ZM602.779 159.75V161.234H600.914V177.562H602.779V179.047H599.107V159.75H602.779ZM606.168 167.689V176H604.361V165.434H606.07L606.168 167.689ZM605.738 170.316L604.986 170.287C604.993 169.564 605.1 168.897 605.309 168.285C605.517 167.667 605.81 167.13 606.188 166.674C606.565 166.218 607.014 165.867 607.535 165.619C608.062 165.365 608.645 165.238 609.283 165.238C609.804 165.238 610.273 165.31 610.689 165.453C611.106 165.59 611.461 165.811 611.754 166.117C612.053 166.423 612.281 166.82 612.438 167.309C612.594 167.79 612.672 168.38 612.672 169.076V176H610.855V169.057C610.855 168.503 610.774 168.061 610.611 167.729C610.449 167.39 610.211 167.146 609.898 166.996C609.586 166.84 609.202 166.762 608.746 166.762C608.297 166.762 607.887 166.856 607.516 167.045C607.151 167.234 606.835 167.494 606.568 167.826C606.308 168.158 606.103 168.539 605.953 168.969C605.81 169.392 605.738 169.841 605.738 170.316ZM619.801 176.195C619.065 176.195 618.398 176.072 617.799 175.824C617.206 175.57 616.695 175.215 616.266 174.76C615.842 174.304 615.517 173.764 615.289 173.139C615.061 172.514 614.947 171.83 614.947 171.088V170.678C614.947 169.818 615.074 169.053 615.328 168.383C615.582 167.706 615.927 167.133 616.363 166.664C616.799 166.195 617.294 165.84 617.848 165.6C618.401 165.359 618.974 165.238 619.566 165.238C620.322 165.238 620.973 165.368 621.52 165.629C622.073 165.889 622.525 166.254 622.877 166.723C623.229 167.185 623.489 167.732 623.658 168.363C623.827 168.988 623.912 169.672 623.912 170.414V171.225H616.021V169.75H622.105V169.613C622.079 169.145 621.982 168.689 621.812 168.246C621.65 167.803 621.389 167.439 621.031 167.152C620.673 166.866 620.185 166.723 619.566 166.723C619.156 166.723 618.779 166.811 618.434 166.986C618.089 167.156 617.792 167.41 617.545 167.748C617.298 168.087 617.105 168.5 616.969 168.988C616.832 169.477 616.764 170.04 616.764 170.678V171.088C616.764 171.589 616.832 172.061 616.969 172.504C617.112 172.94 617.317 173.324 617.584 173.656C617.857 173.988 618.186 174.249 618.57 174.438C618.961 174.626 619.404 174.721 619.898 174.721C620.536 174.721 621.077 174.59 621.52 174.33C621.962 174.07 622.35 173.721 622.682 173.285L623.775 174.154C623.548 174.499 623.258 174.828 622.906 175.141C622.555 175.453 622.122 175.707 621.607 175.902C621.1 176.098 620.497 176.195 619.801 176.195ZM632.174 173.197C632.174 172.937 632.115 172.696 631.998 172.475C631.887 172.247 631.656 172.042 631.305 171.859C630.96 171.671 630.439 171.508 629.742 171.371C629.156 171.247 628.626 171.101 628.15 170.932C627.682 170.762 627.281 170.557 626.949 170.316C626.624 170.076 626.373 169.792 626.197 169.467C626.021 169.141 625.934 168.76 625.934 168.324C625.934 167.908 626.025 167.514 626.207 167.143C626.396 166.771 626.66 166.443 626.998 166.156C627.343 165.87 627.757 165.645 628.238 165.482C628.72 165.32 629.257 165.238 629.85 165.238C630.696 165.238 631.419 165.388 632.018 165.688C632.617 165.987 633.076 166.387 633.395 166.889C633.714 167.383 633.873 167.934 633.873 168.539H632.066C632.066 168.246 631.979 167.963 631.803 167.689C631.633 167.41 631.383 167.178 631.051 166.996C630.725 166.814 630.325 166.723 629.85 166.723C629.348 166.723 628.941 166.801 628.629 166.957C628.323 167.107 628.098 167.299 627.955 167.533C627.818 167.768 627.75 168.015 627.75 168.275C627.75 168.471 627.783 168.646 627.848 168.803C627.919 168.952 628.043 169.092 628.219 169.223C628.395 169.346 628.642 169.464 628.961 169.574C629.28 169.685 629.687 169.796 630.182 169.906C631.048 170.102 631.76 170.336 632.32 170.609C632.88 170.883 633.297 171.218 633.57 171.615C633.844 172.012 633.98 172.494 633.98 173.061C633.98 173.523 633.883 173.946 633.688 174.33C633.499 174.714 633.222 175.046 632.857 175.326C632.499 175.6 632.07 175.814 631.568 175.971C631.074 176.12 630.517 176.195 629.898 176.195C628.967 176.195 628.18 176.029 627.535 175.697C626.891 175.365 626.402 174.936 626.07 174.408C625.738 173.881 625.572 173.324 625.572 172.738H627.389C627.415 173.233 627.558 173.627 627.818 173.92C628.079 174.206 628.398 174.411 628.775 174.535C629.153 174.652 629.527 174.711 629.898 174.711C630.393 174.711 630.807 174.646 631.139 174.516C631.477 174.385 631.734 174.206 631.91 173.979C632.086 173.751 632.174 173.49 632.174 173.197ZM642.506 173.197C642.506 172.937 642.447 172.696 642.33 172.475C642.219 172.247 641.988 172.042 641.637 171.859C641.292 171.671 640.771 171.508 640.074 171.371C639.488 171.247 638.958 171.101 638.482 170.932C638.014 170.762 637.613 170.557 637.281 170.316C636.956 170.076 636.705 169.792 636.529 169.467C636.354 169.141 636.266 168.76 636.266 168.324C636.266 167.908 636.357 167.514 636.539 167.143C636.728 166.771 636.992 166.443 637.33 166.156C637.675 165.87 638.089 165.645 638.57 165.482C639.052 165.32 639.589 165.238 640.182 165.238C641.028 165.238 641.751 165.388 642.35 165.688C642.949 165.987 643.408 166.387 643.727 166.889C644.046 167.383 644.205 167.934 644.205 168.539H642.398C642.398 168.246 642.311 167.963 642.135 167.689C641.965 167.41 641.715 167.178 641.383 166.996C641.057 166.814 640.657 166.723 640.182 166.723C639.68 166.723 639.273 166.801 638.961 166.957C638.655 167.107 638.43 167.299 638.287 167.533C638.15 167.768 638.082 168.015 638.082 168.275C638.082 168.471 638.115 168.646 638.18 168.803C638.251 168.952 638.375 169.092 638.551 169.223C638.727 169.346 638.974 169.464 639.293 169.574C639.612 169.685 640.019 169.796 640.514 169.906C641.38 170.102 642.092 170.336 642.652 170.609C643.212 170.883 643.629 171.218 643.902 171.615C644.176 172.012 644.312 172.494 644.312 173.061C644.312 173.523 644.215 173.946 644.02 174.33C643.831 174.714 643.554 175.046 643.189 175.326C642.831 175.6 642.402 175.814 641.9 175.971C641.406 176.12 640.849 176.195 640.23 176.195C639.299 176.195 638.512 176.029 637.867 175.697C637.223 175.365 636.734 174.936 636.402 174.408C636.07 173.881 635.904 173.324 635.904 172.738H637.721C637.747 173.233 637.89 173.627 638.15 173.92C638.411 174.206 638.73 174.411 639.107 174.535C639.485 174.652 639.859 174.711 640.23 174.711C640.725 174.711 641.139 174.646 641.471 174.516C641.809 174.385 642.066 174.206 642.242 173.979C642.418 173.751 642.506 173.49 642.506 173.197ZM645.406 161.234V159.75H649.098V179.047H645.406V177.562H647.281V161.234H645.406ZM660.719 169.213V170.697H655.953V169.213H660.719ZM669.352 165.434H671.158L671.002 169.389C670.963 170.391 670.849 171.257 670.66 171.986C670.471 172.715 670.23 173.337 669.938 173.852C669.645 174.359 669.316 174.786 668.951 175.131C668.593 175.476 668.222 175.766 667.838 176H666.939L666.988 174.525L667.359 174.516C667.574 174.262 667.783 174.001 667.984 173.734C668.186 173.461 668.372 173.139 668.541 172.768C668.71 172.39 668.85 171.931 668.961 171.391C669.078 170.844 669.153 170.176 669.186 169.389L669.352 165.434ZM669.801 165.434H676.158V176H674.352V167.104H669.801V165.434ZM666.529 174.516H677.516V179.115H675.709V176H668.336V179.115H666.52L666.529 174.516ZM679.039 170.834V170.609C679.039 169.848 679.15 169.141 679.371 168.49C679.592 167.833 679.911 167.263 680.328 166.781C680.745 166.293 681.249 165.915 681.842 165.648C682.434 165.375 683.098 165.238 683.834 165.238C684.576 165.238 685.243 165.375 685.836 165.648C686.435 165.915 686.943 166.293 687.359 166.781C687.783 167.263 688.105 167.833 688.326 168.49C688.548 169.141 688.658 169.848 688.658 170.609V170.834C688.658 171.596 688.548 172.302 688.326 172.953C688.105 173.604 687.783 174.174 687.359 174.662C686.943 175.144 686.438 175.521 685.846 175.795C685.26 176.062 684.596 176.195 683.854 176.195C683.111 176.195 682.444 176.062 681.852 175.795C681.259 175.521 680.751 175.144 680.328 174.662C679.911 174.174 679.592 173.604 679.371 172.953C679.15 172.302 679.039 171.596 679.039 170.834ZM680.846 170.609V170.834C680.846 171.361 680.908 171.859 681.031 172.328C681.155 172.79 681.34 173.201 681.588 173.559C681.842 173.917 682.158 174.2 682.535 174.408C682.913 174.61 683.352 174.711 683.854 174.711C684.348 174.711 684.781 174.61 685.152 174.408C685.53 174.2 685.842 173.917 686.09 173.559C686.337 173.201 686.523 172.79 686.646 172.328C686.777 171.859 686.842 171.361 686.842 170.834V170.609C686.842 170.089 686.777 169.597 686.646 169.135C686.523 168.666 686.334 168.253 686.08 167.895C685.833 167.53 685.52 167.243 685.143 167.035C684.771 166.827 684.335 166.723 683.834 166.723C683.339 166.723 682.903 166.827 682.525 167.035C682.154 167.243 681.842 167.53 681.588 167.895C681.34 168.253 681.155 168.666 681.031 169.135C680.908 169.597 680.846 170.089 680.846 170.609ZM693.912 171.4L689.908 165.434H692.086L694.82 169.809H696.93L696.666 171.4H693.912ZM694.898 171.215L691.832 176H689.547L693.756 169.906L694.898 171.215ZM697.857 165.434V176H696.051V165.434H697.857ZM704.02 165.434L700.016 171.4H697.262L696.979 169.809H699.098L701.832 165.434H704.02ZM702.086 176L699.01 171.215L700.172 169.906L704.371 176H702.086ZM707.945 165.434H709.752L709.596 169.389C709.557 170.391 709.443 171.257 709.254 171.986C709.065 172.715 708.824 173.337 708.531 173.852C708.238 174.359 707.91 174.786 707.545 175.131C707.187 175.476 706.816 175.766 706.432 176H705.533L705.582 174.525L705.953 174.516C706.168 174.262 706.376 174.001 706.578 173.734C706.78 173.461 706.965 173.139 707.135 172.768C707.304 172.39 707.444 171.931 707.555 171.391C707.672 170.844 707.747 170.176 707.779 169.389L707.945 165.434ZM708.395 165.434H714.752V176H712.945V167.104H708.395V165.434ZM705.123 174.516H716.109V179.115H714.303V176H706.93V179.115H705.113L705.123 174.516ZM725.172 165.434V166.928H720.064V165.434H725.172ZM726.764 165.434V176H724.957V165.434H726.764ZM719.625 165.434H721.441L721.168 170.531C721.122 171.319 721.048 172.016 720.943 172.621C720.846 173.22 720.709 173.734 720.533 174.164C720.364 174.594 720.149 174.945 719.889 175.219C719.635 175.486 719.329 175.684 718.971 175.814C718.613 175.938 718.199 176 717.73 176H717.164V174.408L717.555 174.379C717.835 174.359 718.072 174.294 718.268 174.184C718.469 174.073 718.639 173.91 718.775 173.695C718.912 173.474 719.023 173.191 719.107 172.846C719.199 172.501 719.267 172.09 719.312 171.615C719.365 171.14 719.404 170.587 719.43 169.955L719.625 165.434ZM731.627 173.139L736.5 165.434H738.316V176H736.5V168.295L731.627 176H729.83V165.434H731.627V173.139ZM746.178 171.352H742.711L742.691 169.906H745.523C746.083 169.906 746.549 169.851 746.92 169.74C747.298 169.63 747.581 169.464 747.77 169.242C747.958 169.021 748.053 168.747 748.053 168.422C748.053 168.168 747.997 167.947 747.887 167.758C747.783 167.562 747.623 167.403 747.408 167.279C747.193 167.149 746.926 167.055 746.607 166.996C746.295 166.931 745.927 166.898 745.504 166.898H743.189V176H741.383V165.434H745.504C746.174 165.434 746.777 165.492 747.311 165.609C747.851 165.727 748.31 165.906 748.688 166.146C749.072 166.381 749.365 166.68 749.566 167.045C749.768 167.41 749.869 167.839 749.869 168.334C749.869 168.653 749.804 168.956 749.674 169.242C749.544 169.529 749.352 169.783 749.098 170.004C748.844 170.225 748.531 170.408 748.16 170.551C747.789 170.688 747.363 170.775 746.881 170.814L746.178 171.352ZM746.178 176H742.057L742.955 174.535H746.178C746.679 174.535 747.096 174.473 747.428 174.35C747.76 174.219 748.007 174.037 748.17 173.803C748.339 173.562 748.424 173.275 748.424 172.943C748.424 172.611 748.339 172.328 748.17 172.094C748.007 171.853 747.76 171.671 747.428 171.547C747.096 171.417 746.679 171.352 746.178 171.352H743.434L743.453 169.906H746.881L747.535 170.453C748.115 170.499 748.606 170.642 749.01 170.883C749.413 171.124 749.719 171.43 749.928 171.801C750.136 172.165 750.24 172.562 750.24 172.992C750.24 173.487 750.146 173.923 749.957 174.301C749.775 174.678 749.508 174.994 749.156 175.248C748.805 175.495 748.378 175.684 747.877 175.814C747.376 175.938 746.809 176 746.178 176ZM752.184 170.834V170.609C752.184 169.848 752.294 169.141 752.516 168.49C752.737 167.833 753.056 167.263 753.473 166.781C753.889 166.293 754.394 165.915 754.986 165.648C755.579 165.375 756.243 165.238 756.979 165.238C757.721 165.238 758.388 165.375 758.98 165.648C759.579 165.915 760.087 166.293 760.504 166.781C760.927 167.263 761.249 167.833 761.471 168.49C761.692 169.141 761.803 169.848 761.803 170.609V170.834C761.803 171.596 761.692 172.302 761.471 172.953C761.249 173.604 760.927 174.174 760.504 174.662C760.087 175.144 759.583 175.521 758.99 175.795C758.404 176.062 757.74 176.195 756.998 176.195C756.256 176.195 755.589 176.062 754.996 175.795C754.404 175.521 753.896 175.144 753.473 174.662C753.056 174.174 752.737 173.604 752.516 172.953C752.294 172.302 752.184 171.596 752.184 170.834ZM753.99 170.609V170.834C753.99 171.361 754.052 171.859 754.176 172.328C754.299 172.79 754.485 173.201 754.732 173.559C754.986 173.917 755.302 174.2 755.68 174.408C756.057 174.61 756.497 174.711 756.998 174.711C757.493 174.711 757.926 174.61 758.297 174.408C758.674 174.2 758.987 173.917 759.234 173.559C759.482 173.201 759.667 172.79 759.791 172.328C759.921 171.859 759.986 171.361 759.986 170.834V170.609C759.986 170.089 759.921 169.597 759.791 169.135C759.667 168.666 759.479 168.253 759.225 167.895C758.977 167.53 758.665 167.243 758.287 167.035C757.916 166.827 757.48 166.723 756.979 166.723C756.484 166.723 756.048 166.827 755.67 167.035C755.299 167.243 754.986 167.53 754.732 167.895C754.485 168.253 754.299 168.666 754.176 169.135C754.052 169.597 753.99 170.089 753.99 170.609ZM768.297 174.711C768.727 174.711 769.124 174.623 769.488 174.447C769.853 174.271 770.152 174.031 770.387 173.725C770.621 173.412 770.755 173.057 770.787 172.66H772.506C772.473 173.285 772.262 173.868 771.871 174.408C771.487 174.942 770.982 175.375 770.357 175.707C769.732 176.033 769.046 176.195 768.297 176.195C767.503 176.195 766.809 176.055 766.217 175.775C765.631 175.495 765.143 175.111 764.752 174.623C764.368 174.135 764.078 173.575 763.883 172.943C763.694 172.305 763.6 171.632 763.6 170.922V170.512C763.6 169.802 763.694 169.132 763.883 168.5C764.078 167.862 764.368 167.299 764.752 166.811C765.143 166.322 765.631 165.938 766.217 165.658C766.809 165.378 767.503 165.238 768.297 165.238C769.124 165.238 769.846 165.408 770.465 165.746C771.083 166.078 771.568 166.534 771.92 167.113C772.278 167.686 772.473 168.337 772.506 169.066H770.787C770.755 168.63 770.631 168.236 770.416 167.885C770.208 167.533 769.921 167.253 769.557 167.045C769.199 166.83 768.779 166.723 768.297 166.723C767.743 166.723 767.278 166.833 766.9 167.055C766.529 167.27 766.233 167.562 766.012 167.934C765.797 168.298 765.641 168.705 765.543 169.154C765.452 169.597 765.406 170.049 765.406 170.512V170.922C765.406 171.384 765.452 171.84 765.543 172.289C765.634 172.738 765.787 173.145 766.002 173.51C766.223 173.874 766.52 174.167 766.891 174.389C767.268 174.604 767.737 174.711 768.297 174.711ZM778.844 165.434V176H777.027V165.434H778.844ZM782.389 165.434V166.898H773.551V165.434H782.389ZM785.65 169.066H788.824C789.677 169.066 790.396 169.216 790.982 169.516C791.568 169.809 792.011 170.215 792.311 170.736C792.617 171.251 792.77 171.837 792.77 172.494C792.77 172.982 792.685 173.441 792.516 173.871C792.346 174.294 792.092 174.665 791.754 174.984C791.422 175.303 791.008 175.554 790.514 175.736C790.025 175.912 789.462 176 788.824 176H784.332V165.434H786.139V174.516H788.824C789.345 174.516 789.762 174.421 790.074 174.232C790.387 174.044 790.611 173.799 790.748 173.5C790.885 173.201 790.953 172.888 790.953 172.562C790.953 172.243 790.885 171.931 790.748 171.625C790.611 171.319 790.387 171.065 790.074 170.863C789.762 170.655 789.345 170.551 788.824 170.551H785.65V169.066Z" fill="black"/>
<path d="M38.1836 153.362V157.071H21.1279V153.362H38.1836ZM31.6553 146.39V164.505H27.6733V146.39H31.6553ZM55.6494 164.983L60.6738 148.509H65.083L57.666 169.82C57.4951 170.276 57.2729 170.771 56.9995 171.307C56.7261 171.842 56.3672 172.349 55.9229 172.828C55.4899 173.318 54.9487 173.711 54.2993 174.007C53.6499 174.314 52.8638 174.468 51.9409 174.468C51.5763 174.468 51.2231 174.434 50.8813 174.366C50.5509 174.309 50.2376 174.246 49.9414 174.178L49.9243 171.033C50.0382 171.045 50.175 171.056 50.3345 171.067C50.5054 171.079 50.6421 171.084 50.7446 171.084C51.4282 171.084 51.9979 170.999 52.4536 170.828C52.9093 170.669 53.2796 170.407 53.5645 170.042C53.8607 169.677 54.1113 169.188 54.3164 168.572L55.6494 164.983ZM52.8125 148.509L57.2046 162.352L57.9395 166.692L55.0854 167.427L48.3691 148.509H52.8125ZM92.2217 153.362V157.071H75.166V153.362H92.2217ZM85.6934 146.39V164.505H81.7114V146.39H85.6934ZM108.406 152.457V167H104.287V148.509H108.167L108.406 152.457ZM107.671 157.071L106.338 157.054C106.349 155.743 106.532 154.542 106.885 153.448C107.249 152.354 107.751 151.414 108.389 150.628C109.038 149.842 109.813 149.238 110.713 148.816C111.613 148.383 112.616 148.167 113.721 148.167C114.609 148.167 115.413 148.292 116.13 148.543C116.86 148.782 117.48 149.175 117.993 149.722C118.517 150.269 118.916 150.981 119.189 151.858C119.463 152.724 119.6 153.79 119.6 155.054V167H115.464V155.037C115.464 154.148 115.333 153.448 115.071 152.935C114.82 152.411 114.45 152.041 113.96 151.824C113.481 151.596 112.883 151.482 112.166 151.482C111.459 151.482 110.827 151.631 110.269 151.927C109.71 152.223 109.237 152.627 108.85 153.14C108.474 153.653 108.184 154.245 107.979 154.917C107.773 155.59 107.671 156.307 107.671 157.071ZM131.956 167.342C130.588 167.342 129.352 167.12 128.247 166.675C127.153 166.22 126.219 165.587 125.444 164.778C124.681 163.969 124.094 163.018 123.684 161.924C123.274 160.831 123.069 159.651 123.069 158.387V157.703C123.069 156.256 123.28 154.946 123.701 153.772C124.123 152.599 124.709 151.596 125.461 150.765C126.213 149.922 127.102 149.278 128.127 148.833C129.153 148.389 130.264 148.167 131.46 148.167C132.782 148.167 133.938 148.389 134.929 148.833C135.92 149.278 136.741 149.904 137.39 150.713C138.051 151.511 138.541 152.462 138.86 153.567C139.19 154.673 139.355 155.892 139.355 157.225V158.985H125.068V156.028H135.288V155.704C135.265 154.963 135.117 154.268 134.844 153.619C134.582 152.969 134.177 152.445 133.63 152.046C133.083 151.648 132.354 151.448 131.443 151.448C130.759 151.448 130.15 151.596 129.614 151.893C129.09 152.177 128.652 152.593 128.298 153.14C127.945 153.687 127.672 154.348 127.478 155.123C127.296 155.886 127.205 156.746 127.205 157.703V158.387C127.205 159.196 127.313 159.948 127.529 160.643C127.757 161.326 128.088 161.924 128.521 162.437C128.953 162.95 129.478 163.354 130.093 163.65C130.708 163.935 131.409 164.078 132.195 164.078C133.186 164.078 134.069 163.878 134.844 163.479C135.618 163.081 136.291 162.517 136.86 161.788L139.031 163.89C138.632 164.471 138.114 165.029 137.476 165.564C136.838 166.089 136.057 166.516 135.134 166.846C134.223 167.177 133.163 167.342 131.956 167.342ZM152.942 161.993C152.942 161.583 152.839 161.212 152.634 160.882C152.429 160.54 152.036 160.232 151.455 159.959C150.885 159.686 150.042 159.435 148.926 159.207C147.946 158.991 147.046 158.734 146.226 158.438C145.417 158.13 144.722 157.76 144.141 157.327C143.56 156.894 143.11 156.382 142.791 155.789C142.472 155.197 142.312 154.513 142.312 153.738C142.312 152.986 142.477 152.274 142.808 151.602C143.138 150.93 143.611 150.337 144.226 149.825C144.841 149.312 145.588 148.908 146.465 148.611C147.354 148.315 148.345 148.167 149.438 148.167C150.988 148.167 152.315 148.429 153.42 148.953C154.537 149.466 155.391 150.167 155.984 151.055C156.576 151.932 156.873 152.924 156.873 154.029H152.754C152.754 153.539 152.629 153.083 152.378 152.662C152.139 152.229 151.774 151.881 151.284 151.619C150.794 151.346 150.179 151.209 149.438 151.209C148.732 151.209 148.145 151.323 147.678 151.551C147.222 151.767 146.881 152.052 146.653 152.405C146.436 152.758 146.328 153.146 146.328 153.567C146.328 153.875 146.385 154.154 146.499 154.405C146.624 154.644 146.829 154.866 147.114 155.071C147.399 155.265 147.786 155.447 148.276 155.618C148.778 155.789 149.404 155.954 150.156 156.114C151.569 156.41 152.782 156.792 153.796 157.259C154.822 157.715 155.608 158.307 156.155 159.036C156.702 159.754 156.975 160.665 156.975 161.771C156.975 162.591 156.799 163.343 156.445 164.026C156.104 164.699 155.602 165.285 154.941 165.787C154.281 166.277 153.489 166.658 152.566 166.932C151.654 167.205 150.629 167.342 149.49 167.342C147.815 167.342 146.396 167.046 145.234 166.453C144.072 165.849 143.189 165.08 142.585 164.146C141.993 163.2 141.697 162.221 141.697 161.207H145.679C145.724 161.97 145.935 162.579 146.311 163.035C146.698 163.479 147.177 163.804 147.747 164.009C148.328 164.203 148.926 164.3 149.541 164.3C150.282 164.3 150.903 164.203 151.404 164.009C151.905 163.804 152.287 163.531 152.549 163.189C152.811 162.836 152.942 162.437 152.942 161.993ZM170.955 161.993C170.955 161.583 170.852 161.212 170.647 160.882C170.442 160.54 170.049 160.232 169.468 159.959C168.898 159.686 168.055 159.435 166.938 159.207C165.959 158.991 165.059 158.734 164.238 158.438C163.429 158.13 162.734 157.76 162.153 157.327C161.572 156.894 161.122 156.382 160.803 155.789C160.484 155.197 160.325 154.513 160.325 153.738C160.325 152.986 160.49 152.274 160.82 151.602C161.151 150.93 161.624 150.337 162.239 149.825C162.854 149.312 163.6 148.908 164.478 148.611C165.366 148.315 166.357 148.167 167.451 148.167C169.001 148.167 170.328 148.429 171.433 148.953C172.55 149.466 173.404 150.167 173.997 151.055C174.589 151.932 174.885 152.924 174.885 154.029H170.767C170.767 153.539 170.641 153.083 170.391 152.662C170.151 152.229 169.787 151.881 169.297 151.619C168.807 151.346 168.192 151.209 167.451 151.209C166.745 151.209 166.158 151.323 165.691 151.551C165.235 151.767 164.893 152.052 164.666 152.405C164.449 152.758 164.341 153.146 164.341 153.567C164.341 153.875 164.398 154.154 164.512 154.405C164.637 154.644 164.842 154.866 165.127 155.071C165.412 155.265 165.799 155.447 166.289 155.618C166.79 155.789 167.417 155.954 168.169 156.114C169.582 156.41 170.795 156.792 171.809 157.259C172.834 157.715 173.621 158.307 174.167 159.036C174.714 159.754 174.988 160.665 174.988 161.771C174.988 162.591 174.811 163.343 174.458 164.026C174.116 164.699 173.615 165.285 172.954 165.787C172.293 166.277 171.501 166.658 170.579 166.932C169.667 167.205 168.642 167.342 167.502 167.342C165.828 167.342 164.409 167.046 163.247 166.453C162.085 165.849 161.202 165.08 160.598 164.146C160.006 163.2 159.709 162.221 159.709 161.207H163.691C163.737 161.97 163.948 162.579 164.324 163.035C164.711 163.479 165.19 163.804 165.759 164.009C166.34 164.203 166.938 164.3 167.554 164.3C168.294 164.3 168.915 164.203 169.417 164.009C169.918 163.804 170.299 163.531 170.562 163.189C170.824 162.836 170.955 162.437 170.955 161.993Z" fill="black"/>
</g>
<defs>
<clipPath id="clip0_2713_753">
<rect width="900" height="192" fill="white"/>
</clipPath>
</defs>
</svg>
