<svg width="900" height="77" viewBox="0 0 900 77" fill="none" xmlns="http://www.w3.org/2000/svg">
<g clip-path="url(#clip0_2716_1421)">
<rect width="900" height="77" fill="white"/>
<line x1="-3.35794e-10" y1="0.5" x2="900" y2="0.499999" stroke="black"/>
<line x1="-3.35794e-10" y1="76.5" x2="900" y2="76.5" stroke="black"/>
<line x1="0.5" x2="0.5" y2="77" stroke="black"/>
<line x1="899.5" y1="77" x2="899.5" y2="1" stroke="black"/>
<path d="M73.3457 27.9062L76.2852 18.4336H78.2188L73.9805 30.6309C73.8828 30.8913 73.7526 31.1712 73.5898 31.4707C73.4336 31.7767 73.2318 32.0664 72.9844 32.3398C72.737 32.6133 72.4375 32.8346 72.0859 33.0039C71.7409 33.1797 71.3275 33.2676 70.8457 33.2676C70.7025 33.2676 70.5202 33.248 70.2988 33.209C70.0775 33.1699 69.9212 33.1374 69.8301 33.1113L69.8203 31.6465C69.8724 31.653 69.9538 31.6595 70.0645 31.666C70.1816 31.679 70.263 31.6855 70.3086 31.6855C70.7188 31.6855 71.0671 31.6302 71.3535 31.5195C71.64 31.4154 71.8809 31.2363 72.0762 30.9824C72.278 30.735 72.4505 30.3932 72.5938 29.957L73.3457 27.9062ZM71.1875 18.4336L73.9316 26.6367L74.4004 28.541L73.1016 29.2051L69.2148 18.4336H71.1875ZM81.8125 18.4336V29H80.0059V18.4336H81.8125ZM88.7461 18.4336L83.7363 24.4883H81.207L80.9336 22.9062H83.0039L86.5488 18.4336H88.7461ZM86.8027 29L82.916 24.2148L84.0781 22.9062L89.0977 29H86.8027ZM96.9004 27.1934V21.7539C96.9004 21.3372 96.8158 20.9759 96.6465 20.6699C96.4837 20.3574 96.2363 20.1165 95.9043 19.9473C95.5723 19.778 95.1621 19.6934 94.6738 19.6934C94.2181 19.6934 93.8177 19.7715 93.4727 19.9277C93.1341 20.084 92.8672 20.2891 92.6719 20.543C92.4831 20.7969 92.3887 21.0703 92.3887 21.3633H90.582C90.582 20.9857 90.6797 20.6113 90.875 20.2402C91.0703 19.8691 91.3503 19.5339 91.7148 19.2344C92.0859 18.9284 92.5286 18.6875 93.043 18.5117C93.5638 18.3294 94.1432 18.2383 94.7812 18.2383C95.5495 18.2383 96.2266 18.3685 96.8125 18.6289C97.4049 18.8893 97.8672 19.2832 98.1992 19.8105C98.5378 20.3314 98.707 20.9857 98.707 21.7734V26.6953C98.707 27.0469 98.7363 27.4212 98.7949 27.8184C98.86 28.2155 98.9544 28.5573 99.0781 28.8438V29H97.1934C97.1022 28.7917 97.0306 28.515 96.9785 28.1699C96.9264 27.8184 96.9004 27.4928 96.9004 27.1934ZM97.2129 22.5938L97.2324 23.8633H95.4062C94.8919 23.8633 94.4329 23.9056 94.0293 23.9902C93.6257 24.0684 93.2871 24.1888 93.0137 24.3516C92.7402 24.5143 92.5319 24.7194 92.3887 24.9668C92.2454 25.2077 92.1738 25.4909 92.1738 25.8164C92.1738 26.1484 92.2487 26.4512 92.3984 26.7246C92.5482 26.998 92.7728 27.2161 93.0723 27.3789C93.3783 27.5352 93.7526 27.6133 94.1953 27.6133C94.7487 27.6133 95.237 27.4961 95.6602 27.2617C96.0833 27.0273 96.4186 26.7409 96.666 26.4023C96.9199 26.0638 97.0566 25.735 97.0762 25.416L97.8477 26.2852C97.8021 26.5586 97.6784 26.8613 97.4766 27.1934C97.2747 27.5254 97.0046 27.8444 96.666 28.1504C96.334 28.4499 95.9368 28.7005 95.4746 28.9023C95.0189 29.0977 94.5046 29.1953 93.9316 29.1953C93.2155 29.1953 92.5872 29.0553 92.0469 28.7754C91.513 28.4954 91.0964 28.1211 90.7969 27.6523C90.5039 27.1771 90.3574 26.6465 90.3574 26.0605C90.3574 25.4941 90.4681 24.9961 90.6895 24.5664C90.9108 24.1302 91.2298 23.7689 91.6465 23.4824C92.0632 23.1895 92.5645 22.9681 93.1504 22.8184C93.7363 22.6686 94.3906 22.5938 95.1133 22.5938H97.2129ZM105.494 23.9512H103.551V22.8379H105.348C105.849 22.8379 106.246 22.776 106.539 22.6523C106.832 22.5221 107.04 22.3431 107.164 22.1152C107.288 21.8874 107.35 21.6204 107.35 21.3145C107.35 21.041 107.278 20.7839 107.135 20.543C106.998 20.2956 106.777 20.097 106.471 19.9473C106.165 19.791 105.755 19.7129 105.24 19.7129C104.824 19.7129 104.446 19.7878 104.107 19.9375C103.769 20.0807 103.499 20.2793 103.297 20.5332C103.102 20.7806 103.004 21.0605 103.004 21.373H101.197C101.197 20.7285 101.38 20.1751 101.744 19.7129C102.115 19.2441 102.607 18.8828 103.219 18.6289C103.837 18.375 104.511 18.248 105.24 18.248C105.852 18.248 106.399 18.3164 106.881 18.4531C107.369 18.5833 107.783 18.7786 108.121 19.0391C108.46 19.293 108.717 19.612 108.893 19.9961C109.075 20.3737 109.166 20.8132 109.166 21.3145C109.166 21.6725 109.081 22.0111 108.912 22.3301C108.743 22.6491 108.499 22.9323 108.18 23.1797C107.861 23.4206 107.473 23.6094 107.018 23.7461C106.568 23.8828 106.061 23.9512 105.494 23.9512ZM103.551 23.2676H105.494C106.126 23.2676 106.682 23.3294 107.164 23.4531C107.646 23.5703 108.049 23.7461 108.375 23.9805C108.701 24.2148 108.945 24.5046 109.107 24.8496C109.277 25.1882 109.361 25.5788 109.361 26.0215C109.361 26.5163 109.26 26.9622 109.059 27.3594C108.863 27.75 108.583 28.082 108.219 28.3555C107.854 28.6289 107.418 28.8372 106.91 28.9805C106.409 29.1237 105.852 29.1953 105.24 29.1953C104.557 29.1953 103.893 29.0781 103.248 28.8438C102.604 28.6094 102.073 28.248 101.656 27.7598C101.24 27.265 101.031 26.6367 101.031 25.875H102.838C102.838 26.194 102.939 26.4967 103.141 26.7832C103.342 27.0697 103.622 27.3008 103.98 27.4766C104.345 27.6523 104.765 27.7402 105.24 27.7402C105.748 27.7402 106.171 27.6621 106.51 27.5059C106.848 27.3496 107.102 27.1413 107.271 26.8809C107.447 26.6204 107.535 26.3372 107.535 26.0312C107.535 25.6341 107.457 25.3151 107.301 25.0742C107.145 24.8333 106.904 24.6576 106.578 24.5469C106.259 24.4297 105.849 24.3711 105.348 24.3711H103.551V23.2676ZM113.189 22.0664H116.363C117.216 22.0664 117.936 22.2161 118.521 22.5156C119.107 22.8086 119.55 23.2155 119.85 23.7363C120.156 24.2507 120.309 24.8366 120.309 25.4941C120.309 25.9824 120.224 26.4414 120.055 26.8711C119.885 27.2943 119.632 27.6654 119.293 27.9844C118.961 28.3034 118.548 28.554 118.053 28.7363C117.564 28.9121 117.001 29 116.363 29H111.871V18.4336H113.678V27.5156H116.363C116.884 27.5156 117.301 27.4212 117.613 27.2324C117.926 27.0436 118.15 26.7995 118.287 26.5C118.424 26.2005 118.492 25.888 118.492 25.5625C118.492 25.2435 118.424 24.931 118.287 24.625C118.15 24.319 117.926 24.0651 117.613 23.8633C117.301 23.6549 116.884 23.5508 116.363 23.5508H113.189V22.0664ZM124.068 18.4336V29H122.262V18.4336H124.068ZM132.193 24.3516H128.727L128.707 22.9062H131.539C132.099 22.9062 132.564 22.8509 132.936 22.7402C133.313 22.6296 133.596 22.4635 133.785 22.2422C133.974 22.0208 134.068 21.7474 134.068 21.4219C134.068 21.168 134.013 20.9466 133.902 20.7578C133.798 20.5625 133.639 20.403 133.424 20.2793C133.209 20.1491 132.942 20.0547 132.623 19.9961C132.311 19.931 131.943 19.8984 131.52 19.8984H129.205V29H127.398V18.4336H131.52C132.19 18.4336 132.792 18.4922 133.326 18.6094C133.867 18.7266 134.326 18.9056 134.703 19.1465C135.087 19.3809 135.38 19.6803 135.582 20.0449C135.784 20.4095 135.885 20.8392 135.885 21.334C135.885 21.653 135.82 21.9557 135.689 22.2422C135.559 22.5286 135.367 22.7826 135.113 23.0039C134.859 23.2253 134.547 23.4076 134.176 23.5508C133.805 23.6875 133.378 23.7754 132.896 23.8145L132.193 24.3516ZM132.193 29H128.072L128.971 27.5352H132.193C132.695 27.5352 133.111 27.4733 133.443 27.3496C133.775 27.2194 134.023 27.0371 134.186 26.8027C134.355 26.5618 134.439 26.2754 134.439 25.9434C134.439 25.6113 134.355 25.3281 134.186 25.0938C134.023 24.8529 133.775 24.6706 133.443 24.5469C133.111 24.4167 132.695 24.3516 132.193 24.3516H129.449L129.469 22.9062H132.896L133.551 23.4531C134.13 23.4987 134.622 23.6419 135.025 23.8828C135.429 24.1237 135.735 24.4297 135.943 24.8008C136.152 25.1654 136.256 25.5625 136.256 25.9922C136.256 26.487 136.161 26.9232 135.973 27.3008C135.79 27.6784 135.523 27.9941 135.172 28.248C134.82 28.4954 134.394 28.6842 133.893 28.8145C133.391 28.9382 132.825 29 132.193 29ZM144.908 27.1934V21.7539C144.908 21.3372 144.824 20.9759 144.654 20.6699C144.492 20.3574 144.244 20.1165 143.912 19.9473C143.58 19.778 143.17 19.6934 142.682 19.6934C142.226 19.6934 141.826 19.7715 141.48 19.9277C141.142 20.084 140.875 20.2891 140.68 20.543C140.491 20.7969 140.396 21.0703 140.396 21.3633H138.59C138.59 20.9857 138.688 20.6113 138.883 20.2402C139.078 19.8691 139.358 19.5339 139.723 19.2344C140.094 18.9284 140.536 18.6875 141.051 18.5117C141.572 18.3294 142.151 18.2383 142.789 18.2383C143.557 18.2383 144.234 18.3685 144.82 18.6289C145.413 18.8893 145.875 19.2832 146.207 19.8105C146.546 20.3314 146.715 20.9857 146.715 21.7734V26.6953C146.715 27.0469 146.744 27.4212 146.803 27.8184C146.868 28.2155 146.962 28.5573 147.086 28.8438V29H145.201C145.11 28.7917 145.038 28.515 144.986 28.1699C144.934 27.8184 144.908 27.4928 144.908 27.1934ZM145.221 22.5938L145.24 23.8633H143.414C142.9 23.8633 142.441 23.9056 142.037 23.9902C141.633 24.0684 141.295 24.1888 141.021 24.3516C140.748 24.5143 140.54 24.7194 140.396 24.9668C140.253 25.2077 140.182 25.4909 140.182 25.8164C140.182 26.1484 140.257 26.4512 140.406 26.7246C140.556 26.998 140.781 27.2161 141.08 27.3789C141.386 27.5352 141.76 27.6133 142.203 27.6133C142.757 27.6133 143.245 27.4961 143.668 27.2617C144.091 27.0273 144.426 26.7409 144.674 26.4023C144.928 26.0638 145.064 25.735 145.084 25.416L145.855 26.2852C145.81 26.5586 145.686 26.8613 145.484 27.1934C145.283 27.5254 145.012 27.8444 144.674 28.1504C144.342 28.4499 143.945 28.7005 143.482 28.9023C143.027 29.0977 142.512 29.1953 141.939 29.1953C141.223 29.1953 140.595 29.0553 140.055 28.7754C139.521 28.4954 139.104 28.1211 138.805 27.6523C138.512 27.1771 138.365 26.6465 138.365 26.0605C138.365 25.4941 138.476 24.9961 138.697 24.5664C138.919 24.1302 139.238 23.7689 139.654 23.4824C140.071 23.1895 140.572 22.9681 141.158 22.8184C141.744 22.6686 142.398 22.5938 143.121 22.5938H145.221ZM153.941 29.1953C153.206 29.1953 152.538 29.0716 151.939 28.8242C151.347 28.5703 150.836 28.2155 150.406 27.7598C149.983 27.304 149.658 26.7637 149.43 26.1387C149.202 25.5137 149.088 24.8301 149.088 24.0879V23.6777C149.088 22.8184 149.215 22.0534 149.469 21.3828C149.723 20.7057 150.068 20.1328 150.504 19.6641C150.94 19.1953 151.435 18.8405 151.988 18.5996C152.542 18.3587 153.115 18.2383 153.707 18.2383C154.462 18.2383 155.113 18.3685 155.66 18.6289C156.214 18.8893 156.666 19.2539 157.018 19.7227C157.369 20.1849 157.63 20.7318 157.799 21.3633C157.968 21.9883 158.053 22.6719 158.053 23.4141V24.2246H150.162V22.75H156.246V22.6133C156.22 22.1445 156.122 21.6888 155.953 21.2461C155.79 20.8034 155.53 20.4388 155.172 20.1523C154.814 19.8659 154.326 19.7227 153.707 19.7227C153.297 19.7227 152.919 19.8105 152.574 19.9863C152.229 20.1556 151.933 20.4095 151.686 20.748C151.438 21.0866 151.246 21.5 151.109 21.9883C150.973 22.4766 150.904 23.0397 150.904 23.6777V24.0879C150.904 24.5892 150.973 25.0612 151.109 25.5039C151.253 25.9401 151.458 26.3242 151.725 26.6562C151.998 26.9883 152.327 27.2487 152.711 27.4375C153.102 27.6263 153.544 27.7207 154.039 27.7207C154.677 27.7207 155.217 27.5905 155.66 27.3301C156.103 27.0697 156.49 26.7214 156.822 26.2852L157.916 27.1543C157.688 27.4993 157.398 27.8281 157.047 28.1406C156.695 28.4531 156.262 28.707 155.748 28.9023C155.24 29.0977 154.638 29.1953 153.941 29.1953ZM164.352 18.4336V29H162.535V18.4336H164.352ZM167.896 18.4336V19.8984H159.059V18.4336H167.896ZM181.803 23.0137V24.4785H176.217V23.0137H181.803ZM176.598 18.4336V29H174.791V18.4336H176.598ZM183.268 18.4336V29H181.451V18.4336H183.268ZM192.408 27.1934V21.7539C192.408 21.3372 192.324 20.9759 192.154 20.6699C191.992 20.3574 191.744 20.1165 191.412 19.9473C191.08 19.778 190.67 19.6934 190.182 19.6934C189.726 19.6934 189.326 19.7715 188.98 19.9277C188.642 20.084 188.375 20.2891 188.18 20.543C187.991 20.7969 187.896 21.0703 187.896 21.3633H186.09C186.09 20.9857 186.188 20.6113 186.383 20.2402C186.578 19.8691 186.858 19.5339 187.223 19.2344C187.594 18.9284 188.036 18.6875 188.551 18.5117C189.072 18.3294 189.651 18.2383 190.289 18.2383C191.057 18.2383 191.734 18.3685 192.32 18.6289C192.913 18.8893 193.375 19.2832 193.707 19.8105C194.046 20.3314 194.215 20.9857 194.215 21.7734V26.6953C194.215 27.0469 194.244 27.4212 194.303 27.8184C194.368 28.2155 194.462 28.5573 194.586 28.8438V29H192.701C192.61 28.7917 192.538 28.515 192.486 28.1699C192.434 27.8184 192.408 27.4928 192.408 27.1934ZM192.721 22.5938L192.74 23.8633H190.914C190.4 23.8633 189.941 23.9056 189.537 23.9902C189.133 24.0684 188.795 24.1888 188.521 24.3516C188.248 24.5143 188.04 24.7194 187.896 24.9668C187.753 25.2077 187.682 25.4909 187.682 25.8164C187.682 26.1484 187.757 26.4512 187.906 26.7246C188.056 26.998 188.281 27.2161 188.58 27.3789C188.886 27.5352 189.26 27.6133 189.703 27.6133C190.257 27.6133 190.745 27.4961 191.168 27.2617C191.591 27.0273 191.926 26.7409 192.174 26.4023C192.428 26.0638 192.564 25.735 192.584 25.416L193.355 26.2852C193.31 26.5586 193.186 26.8613 192.984 27.1934C192.783 27.5254 192.512 27.8444 192.174 28.1504C191.842 28.4499 191.445 28.7005 190.982 28.9023C190.527 29.0977 190.012 29.1953 189.439 29.1953C188.723 29.1953 188.095 29.0553 187.555 28.7754C187.021 28.4954 186.604 28.1211 186.305 27.6523C186.012 27.1771 185.865 26.6465 185.865 26.0605C185.865 25.4941 185.976 24.9961 186.197 24.5664C186.419 24.1302 186.738 23.7689 187.154 23.4824C187.571 23.1895 188.072 22.9681 188.658 22.8184C189.244 22.6686 189.898 22.5938 190.621 22.5938H192.721ZM206.246 27.7109C206.676 27.7109 207.073 27.623 207.438 27.4473C207.802 27.2715 208.102 27.0306 208.336 26.7246C208.57 26.4121 208.704 26.0573 208.736 25.6602H210.455C210.423 26.2852 210.211 26.8678 209.82 27.4082C209.436 27.9421 208.932 28.375 208.307 28.707C207.682 29.0326 206.995 29.1953 206.246 29.1953C205.452 29.1953 204.758 29.0553 204.166 28.7754C203.58 28.4954 203.092 28.1113 202.701 27.623C202.317 27.1348 202.027 26.5749 201.832 25.9434C201.643 25.3053 201.549 24.6315 201.549 23.9219V23.5117C201.549 22.8021 201.643 22.1315 201.832 21.5C202.027 20.862 202.317 20.2988 202.701 19.8105C203.092 19.3223 203.58 18.9382 204.166 18.6582C204.758 18.3783 205.452 18.2383 206.246 18.2383C207.073 18.2383 207.796 18.4076 208.414 18.7461C209.033 19.0781 209.518 19.5339 209.869 20.1133C210.227 20.6862 210.423 21.3372 210.455 22.0664H208.736C208.704 21.6302 208.58 21.2363 208.365 20.8848C208.157 20.5332 207.87 20.2533 207.506 20.0449C207.148 19.8301 206.728 19.7227 206.246 19.7227C205.693 19.7227 205.227 19.8333 204.85 20.0547C204.479 20.2695 204.182 20.5625 203.961 20.9336C203.746 21.2982 203.59 21.7051 203.492 22.1543C203.401 22.597 203.355 23.0495 203.355 23.5117V23.9219C203.355 24.3841 203.401 24.8398 203.492 25.2891C203.583 25.7383 203.736 26.1452 203.951 26.5098C204.173 26.8743 204.469 27.1673 204.84 27.3887C205.217 27.6035 205.686 27.7109 206.246 27.7109ZM212.008 23.834V23.6094C212.008 22.8477 212.118 22.1413 212.34 21.4902C212.561 20.8327 212.88 20.263 213.297 19.7812C213.714 19.293 214.218 18.9154 214.811 18.6484C215.403 18.375 216.067 18.2383 216.803 18.2383C217.545 18.2383 218.212 18.375 218.805 18.6484C219.404 18.9154 219.911 19.293 220.328 19.7812C220.751 20.263 221.074 20.8327 221.295 21.4902C221.516 22.1413 221.627 22.8477 221.627 23.6094V23.834C221.627 24.5957 221.516 25.3021 221.295 25.9531C221.074 26.6042 220.751 27.1738 220.328 27.6621C219.911 28.1439 219.407 28.5215 218.814 28.7949C218.229 29.0618 217.564 29.1953 216.822 29.1953C216.08 29.1953 215.413 29.0618 214.82 28.7949C214.228 28.5215 213.72 28.1439 213.297 27.6621C212.88 27.1738 212.561 26.6042 212.34 25.9531C212.118 25.3021 212.008 24.5957 212.008 23.834ZM213.814 23.6094V23.834C213.814 24.3613 213.876 24.8594 214 25.3281C214.124 25.7904 214.309 26.2005 214.557 26.5586C214.811 26.9167 215.126 27.1999 215.504 27.4082C215.882 27.61 216.321 27.7109 216.822 27.7109C217.317 27.7109 217.75 27.61 218.121 27.4082C218.499 27.1999 218.811 26.9167 219.059 26.5586C219.306 26.2005 219.492 25.7904 219.615 25.3281C219.745 24.8594 219.811 24.3613 219.811 23.834V23.6094C219.811 23.0885 219.745 22.597 219.615 22.1348C219.492 21.666 219.303 21.2526 219.049 20.8945C218.801 20.5299 218.489 20.2435 218.111 20.0352C217.74 19.8268 217.304 19.7227 216.803 19.7227C216.308 19.7227 215.872 19.8268 215.494 20.0352C215.123 20.2435 214.811 20.5299 214.557 20.8945C214.309 21.2526 214.124 21.666 214 22.1348C213.876 22.597 213.814 23.0885 213.814 23.6094ZM228.854 24.3516H225.387L225.367 22.9062H228.199C228.759 22.9062 229.225 22.8509 229.596 22.7402C229.973 22.6296 230.257 22.4635 230.445 22.2422C230.634 22.0208 230.729 21.7474 230.729 21.4219C230.729 21.168 230.673 20.9466 230.562 20.7578C230.458 20.5625 230.299 20.403 230.084 20.2793C229.869 20.1491 229.602 20.0547 229.283 19.9961C228.971 19.931 228.603 19.8984 228.18 19.8984H225.865V29H224.059V18.4336H228.18C228.85 18.4336 229.452 18.4922 229.986 18.6094C230.527 18.7266 230.986 18.9056 231.363 19.1465C231.747 19.3809 232.04 19.6803 232.242 20.0449C232.444 20.4095 232.545 20.8392 232.545 21.334C232.545 21.653 232.48 21.9557 232.35 22.2422C232.219 22.5286 232.027 22.7826 231.773 23.0039C231.52 23.2253 231.207 23.4076 230.836 23.5508C230.465 23.6875 230.038 23.7754 229.557 23.8145L228.854 24.3516ZM228.854 29H224.732L225.631 27.5352H228.854C229.355 27.5352 229.771 27.4733 230.104 27.3496C230.436 27.2194 230.683 27.0371 230.846 26.8027C231.015 26.5618 231.1 26.2754 231.1 25.9434C231.1 25.6113 231.015 25.3281 230.846 25.0938C230.683 24.8529 230.436 24.6706 230.104 24.5469C229.771 24.4167 229.355 24.3516 228.854 24.3516H226.109L226.129 22.9062H229.557L230.211 23.4531C230.79 23.4987 231.282 23.6419 231.686 23.8828C232.089 24.1237 232.395 24.4297 232.604 24.8008C232.812 25.1654 232.916 25.5625 232.916 25.9922C232.916 26.487 232.822 26.9232 232.633 27.3008C232.451 27.6784 232.184 27.9941 231.832 28.248C231.48 28.4954 231.054 28.6842 230.553 28.8145C230.051 28.9382 229.485 29 228.854 29ZM241.412 26.5977L245.006 18.4336H246.744L242.037 29H240.787L236.1 18.4336H237.838L241.412 26.5977ZM237.311 18.4336V29H235.504V18.4336H237.311ZM245.455 29V18.4336H247.271V29H245.455ZM254.566 29.1953C253.831 29.1953 253.163 29.0716 252.564 28.8242C251.972 28.5703 251.461 28.2155 251.031 27.7598C250.608 27.304 250.283 26.7637 250.055 26.1387C249.827 25.5137 249.713 24.8301 249.713 24.0879V23.6777C249.713 22.8184 249.84 22.0534 250.094 21.3828C250.348 20.7057 250.693 20.1328 251.129 19.6641C251.565 19.1953 252.06 18.8405 252.613 18.5996C253.167 18.3587 253.74 18.2383 254.332 18.2383C255.087 18.2383 255.738 18.3685 256.285 18.6289C256.839 18.8893 257.291 19.2539 257.643 19.7227C257.994 20.1849 258.255 20.7318 258.424 21.3633C258.593 21.9883 258.678 22.6719 258.678 23.4141V24.2246H250.787V22.75H256.871V22.6133C256.845 22.1445 256.747 21.6888 256.578 21.2461C256.415 20.8034 256.155 20.4388 255.797 20.1523C255.439 19.8659 254.951 19.7227 254.332 19.7227C253.922 19.7227 253.544 19.8105 253.199 19.9863C252.854 20.1556 252.558 20.4095 252.311 20.748C252.063 21.0866 251.871 21.5 251.734 21.9883C251.598 22.4766 251.529 23.0397 251.529 23.6777V24.0879C251.529 24.5892 251.598 25.0612 251.734 25.5039C251.878 25.9401 252.083 26.3242 252.35 26.6562C252.623 26.9883 252.952 27.2487 253.336 27.4375C253.727 27.6263 254.169 27.7207 254.664 27.7207C255.302 27.7207 255.842 27.5905 256.285 27.3301C256.728 27.0697 257.115 26.7214 257.447 26.2852L258.541 27.1543C258.313 27.4993 258.023 27.8281 257.672 28.1406C257.32 28.4531 256.887 28.707 256.373 28.9023C255.865 29.0977 255.263 29.1953 254.566 29.1953ZM265.016 27.7109C265.445 27.7109 265.842 27.623 266.207 27.4473C266.572 27.2715 266.871 27.0306 267.105 26.7246C267.34 26.4121 267.473 26.0573 267.506 25.6602H269.225C269.192 26.2852 268.98 26.8678 268.59 27.4082C268.206 27.9421 267.701 28.375 267.076 28.707C266.451 29.0326 265.764 29.1953 265.016 29.1953C264.221 29.1953 263.528 29.0553 262.936 28.7754C262.35 28.4954 261.861 28.1113 261.471 27.623C261.087 27.1348 260.797 26.5749 260.602 25.9434C260.413 25.3053 260.318 24.6315 260.318 23.9219V23.5117C260.318 22.8021 260.413 22.1315 260.602 21.5C260.797 20.862 261.087 20.2988 261.471 19.8105C261.861 19.3223 262.35 18.9382 262.936 18.6582C263.528 18.3783 264.221 18.2383 265.016 18.2383C265.842 18.2383 266.565 18.4076 267.184 18.7461C267.802 19.0781 268.287 19.5339 268.639 20.1133C268.997 20.6862 269.192 21.3372 269.225 22.0664H267.506C267.473 21.6302 267.35 21.2363 267.135 20.8848C266.926 20.5332 266.64 20.2533 266.275 20.0449C265.917 19.8301 265.497 19.7227 265.016 19.7227C264.462 19.7227 263.997 19.8333 263.619 20.0547C263.248 20.2695 262.952 20.5625 262.73 20.9336C262.516 21.2982 262.359 21.7051 262.262 22.1543C262.171 22.597 262.125 23.0495 262.125 23.5117V23.9219C262.125 24.3841 262.171 24.8398 262.262 25.2891C262.353 25.7383 262.506 26.1452 262.721 26.5098C262.942 26.8743 263.238 27.1673 263.609 27.3887C263.987 27.6035 264.456 27.7109 265.016 27.7109ZM275.562 18.4336V29H273.746V18.4336H275.562ZM279.107 18.4336V19.8984H270.27V18.4336H279.107ZM288.053 23.0137V24.4785H282.467V23.0137H288.053ZM282.848 18.4336V29H281.041V18.4336H282.848ZM289.518 18.4336V29H287.701V18.4336H289.518ZM291.949 23.834V23.6094C291.949 22.8477 292.06 22.1413 292.281 21.4902C292.503 20.8327 292.822 20.263 293.238 19.7812C293.655 19.293 294.16 18.9154 294.752 18.6484C295.344 18.375 296.008 18.2383 296.744 18.2383C297.486 18.2383 298.154 18.375 298.746 18.6484C299.345 18.9154 299.853 19.293 300.27 19.7812C300.693 20.263 301.015 20.8327 301.236 21.4902C301.458 22.1413 301.568 22.8477 301.568 23.6094V23.834C301.568 24.5957 301.458 25.3021 301.236 25.9531C301.015 26.6042 300.693 27.1738 300.27 27.6621C299.853 28.1439 299.348 28.5215 298.756 28.7949C298.17 29.0618 297.506 29.1953 296.764 29.1953C296.021 29.1953 295.354 29.0618 294.762 28.7949C294.169 28.5215 293.661 28.1439 293.238 27.6621C292.822 27.1738 292.503 26.6042 292.281 25.9531C292.06 25.3021 291.949 24.5957 291.949 23.834ZM293.756 23.6094V23.834C293.756 24.3613 293.818 24.8594 293.941 25.3281C294.065 25.7904 294.251 26.2005 294.498 26.5586C294.752 26.9167 295.068 27.1999 295.445 27.4082C295.823 27.61 296.262 27.7109 296.764 27.7109C297.258 27.7109 297.691 27.61 298.062 27.4082C298.44 27.1999 298.753 26.9167 299 26.5586C299.247 26.2005 299.433 25.7904 299.557 25.3281C299.687 24.8594 299.752 24.3613 299.752 23.834V23.6094C299.752 23.0885 299.687 22.597 299.557 22.1348C299.433 21.666 299.244 21.2526 298.99 20.8945C298.743 20.5299 298.43 20.2435 298.053 20.0352C297.682 19.8268 297.245 19.7227 296.744 19.7227C296.249 19.7227 295.813 19.8268 295.436 20.0352C295.064 20.2435 294.752 20.5299 294.498 20.8945C294.251 21.2526 294.065 21.666 293.941 22.1348C293.818 22.597 293.756 23.0885 293.756 23.6094ZM308.062 27.7109C308.492 27.7109 308.889 27.623 309.254 27.4473C309.618 27.2715 309.918 27.0306 310.152 26.7246C310.387 26.4121 310.52 26.0573 310.553 25.6602H312.271C312.239 26.2852 312.027 26.8678 311.637 27.4082C311.253 27.9421 310.748 28.375 310.123 28.707C309.498 29.0326 308.811 29.1953 308.062 29.1953C307.268 29.1953 306.575 29.0553 305.982 28.7754C305.396 28.4954 304.908 28.1113 304.518 27.623C304.133 27.1348 303.844 26.5749 303.648 25.9434C303.46 25.3053 303.365 24.6315 303.365 23.9219V23.5117C303.365 22.8021 303.46 22.1315 303.648 21.5C303.844 20.862 304.133 20.2988 304.518 19.8105C304.908 19.3223 305.396 18.9382 305.982 18.6582C306.575 18.3783 307.268 18.2383 308.062 18.2383C308.889 18.2383 309.612 18.4076 310.23 18.7461C310.849 19.0781 311.334 19.5339 311.686 20.1133C312.044 20.6862 312.239 21.3372 312.271 22.0664H310.553C310.52 21.6302 310.396 21.2363 310.182 20.8848C309.973 20.5332 309.687 20.2533 309.322 20.0449C308.964 19.8301 308.544 19.7227 308.062 19.7227C307.509 19.7227 307.044 19.8333 306.666 20.0547C306.295 20.2695 305.999 20.5625 305.777 20.9336C305.562 21.2982 305.406 21.7051 305.309 22.1543C305.217 22.597 305.172 23.0495 305.172 23.5117V23.9219C305.172 24.3841 305.217 24.8398 305.309 25.2891C305.4 25.7383 305.553 26.1452 305.768 26.5098C305.989 26.8743 306.285 27.1673 306.656 27.3887C307.034 27.6035 307.503 27.7109 308.062 27.7109ZM318.609 18.4336V29H316.793V18.4336H318.609ZM322.154 18.4336V19.8984H313.316V18.4336H322.154ZM325.416 22.0664H328.59C329.443 22.0664 330.162 22.2161 330.748 22.5156C331.334 22.8086 331.777 23.2155 332.076 23.7363C332.382 24.2507 332.535 24.8366 332.535 25.4941C332.535 25.9824 332.451 26.4414 332.281 26.8711C332.112 27.2943 331.858 27.6654 331.52 27.9844C331.188 28.3034 330.774 28.554 330.279 28.7363C329.791 28.9121 329.228 29 328.59 29H324.098V18.4336H325.904V27.5156H328.59C329.111 27.5156 329.527 27.4212 329.84 27.2324C330.152 27.0436 330.377 26.7995 330.514 26.5C330.65 26.2005 330.719 25.888 330.719 25.5625C330.719 25.2435 330.65 24.931 330.514 24.625C330.377 24.319 330.152 24.0651 329.84 23.8633C329.527 23.6549 329.111 23.5508 328.59 23.5508H325.416V22.0664ZM341.715 18.4336V29H339.908V18.4336H341.715ZM348.648 18.4336L343.639 24.4883H341.109L340.836 22.9062H342.906L346.451 18.4336H348.648ZM346.705 29L342.818 24.2148L343.98 22.9062L349 29H346.705ZM356.803 27.1934V21.7539C356.803 21.3372 356.718 20.9759 356.549 20.6699C356.386 20.3574 356.139 20.1165 355.807 19.9473C355.475 19.778 355.064 19.6934 354.576 19.6934C354.12 19.6934 353.72 19.7715 353.375 19.9277C353.036 20.084 352.77 20.2891 352.574 20.543C352.385 20.7969 352.291 21.0703 352.291 21.3633H350.484C350.484 20.9857 350.582 20.6113 350.777 20.2402C350.973 19.8691 351.253 19.5339 351.617 19.2344C351.988 18.9284 352.431 18.6875 352.945 18.5117C353.466 18.3294 354.046 18.2383 354.684 18.2383C355.452 18.2383 356.129 18.3685 356.715 18.6289C357.307 18.8893 357.77 19.2832 358.102 19.8105C358.44 20.3314 358.609 20.9857 358.609 21.7734V26.6953C358.609 27.0469 358.639 27.4212 358.697 27.8184C358.762 28.2155 358.857 28.5573 358.98 28.8438V29H357.096C357.005 28.7917 356.933 28.515 356.881 28.1699C356.829 27.8184 356.803 27.4928 356.803 27.1934ZM357.115 22.5938L357.135 23.8633H355.309C354.794 23.8633 354.335 23.9056 353.932 23.9902C353.528 24.0684 353.189 24.1888 352.916 24.3516C352.643 24.5143 352.434 24.7194 352.291 24.9668C352.148 25.2077 352.076 25.4909 352.076 25.8164C352.076 26.1484 352.151 26.4512 352.301 26.7246C352.451 26.998 352.675 27.2161 352.975 27.3789C353.281 27.5352 353.655 27.6133 354.098 27.6133C354.651 27.6133 355.139 27.4961 355.562 27.2617C355.986 27.0273 356.321 26.7409 356.568 26.4023C356.822 26.0638 356.959 25.735 356.979 25.416L357.75 26.2852C357.704 26.5586 357.581 26.8613 357.379 27.1934C357.177 27.5254 356.907 27.8444 356.568 28.1504C356.236 28.4499 355.839 28.7005 355.377 28.9023C354.921 29.0977 354.407 29.1953 353.834 29.1953C353.118 29.1953 352.49 29.0553 351.949 28.7754C351.415 28.4954 350.999 28.1211 350.699 27.6523C350.406 27.1771 350.26 26.6465 350.26 26.0605C350.26 25.4941 350.37 24.9961 350.592 24.5664C350.813 24.1302 351.132 23.7689 351.549 23.4824C351.965 23.1895 352.467 22.9681 353.053 22.8184C353.639 22.6686 354.293 22.5938 355.016 22.5938H357.115ZM363.414 18.4336V29H361.607V18.4336H363.414ZM370.348 18.4336L365.338 24.4883H362.809L362.535 22.9062H364.605L368.15 18.4336H370.348ZM368.404 29L364.518 24.2148L365.68 22.9062L370.699 29H368.404ZM371.578 23.834V23.6094C371.578 22.8477 371.689 22.1413 371.91 21.4902C372.132 20.8327 372.451 20.263 372.867 19.7812C373.284 19.293 373.788 18.9154 374.381 18.6484C374.973 18.375 375.637 18.2383 376.373 18.2383C377.115 18.2383 377.783 18.375 378.375 18.6484C378.974 18.9154 379.482 19.293 379.898 19.7812C380.322 20.263 380.644 20.8327 380.865 21.4902C381.087 22.1413 381.197 22.8477 381.197 23.6094V23.834C381.197 24.5957 381.087 25.3021 380.865 25.9531C380.644 26.6042 380.322 27.1738 379.898 27.6621C379.482 28.1439 378.977 28.5215 378.385 28.7949C377.799 29.0618 377.135 29.1953 376.393 29.1953C375.65 29.1953 374.983 29.0618 374.391 28.7949C373.798 28.5215 373.29 28.1439 372.867 27.6621C372.451 27.1738 372.132 26.6042 371.91 25.9531C371.689 25.3021 371.578 24.5957 371.578 23.834ZM373.385 23.6094V23.834C373.385 24.3613 373.447 24.8594 373.57 25.3281C373.694 25.7904 373.88 26.2005 374.127 26.5586C374.381 26.9167 374.697 27.1999 375.074 27.4082C375.452 27.61 375.891 27.7109 376.393 27.7109C376.887 27.7109 377.32 27.61 377.691 27.4082C378.069 27.1999 378.382 26.9167 378.629 26.5586C378.876 26.2005 379.062 25.7904 379.186 25.3281C379.316 24.8594 379.381 24.3613 379.381 23.834V23.6094C379.381 23.0885 379.316 22.597 379.186 22.1348C379.062 21.666 378.873 21.2526 378.619 20.8945C378.372 20.5299 378.059 20.2435 377.682 20.0352C377.311 19.8268 376.874 19.7227 376.373 19.7227C375.878 19.7227 375.442 19.8268 375.064 20.0352C374.693 20.2435 374.381 20.5299 374.127 20.8945C373.88 21.2526 373.694 21.666 373.57 22.1348C373.447 22.597 373.385 23.0885 373.385 23.6094ZM390.289 18.4336V19.9277H385.406V29H383.6V18.4336H390.289ZM391.188 23.834V23.6094C391.188 22.8477 391.298 22.1413 391.52 21.4902C391.741 20.8327 392.06 20.263 392.477 19.7812C392.893 19.293 393.398 18.9154 393.99 18.6484C394.583 18.375 395.247 18.2383 395.982 18.2383C396.725 18.2383 397.392 18.375 397.984 18.6484C398.583 18.9154 399.091 19.293 399.508 19.7812C399.931 20.263 400.253 20.8327 400.475 21.4902C400.696 22.1413 400.807 22.8477 400.807 23.6094V23.834C400.807 24.5957 400.696 25.3021 400.475 25.9531C400.253 26.6042 399.931 27.1738 399.508 27.6621C399.091 28.1439 398.587 28.5215 397.994 28.7949C397.408 29.0618 396.744 29.1953 396.002 29.1953C395.26 29.1953 394.592 29.0618 394 28.7949C393.408 28.5215 392.9 28.1439 392.477 27.6621C392.06 27.1738 391.741 26.6042 391.52 25.9531C391.298 25.3021 391.188 24.5957 391.188 23.834ZM392.994 23.6094V23.834C392.994 24.3613 393.056 24.8594 393.18 25.3281C393.303 25.7904 393.489 26.2005 393.736 26.5586C393.99 26.9167 394.306 27.1999 394.684 27.4082C395.061 27.61 395.501 27.7109 396.002 27.7109C396.497 27.7109 396.93 27.61 397.301 27.4082C397.678 27.1999 397.991 26.9167 398.238 26.5586C398.486 26.2005 398.671 25.7904 398.795 25.3281C398.925 24.8594 398.99 24.3613 398.99 23.834V23.6094C398.99 23.0885 398.925 22.597 398.795 22.1348C398.671 21.666 398.482 21.2526 398.229 20.8945C397.981 20.5299 397.669 20.2435 397.291 20.0352C396.92 19.8268 396.484 19.7227 395.982 19.7227C395.488 19.7227 395.051 19.8268 394.674 20.0352C394.303 20.2435 393.99 20.5299 393.736 20.8945C393.489 21.2526 393.303 21.666 393.18 22.1348C393.056 22.597 392.994 23.0885 392.994 23.6094ZM406.832 22.2129V23.6973H402.066V22.2129H406.832ZM415.66 18.4336V19.9277H410.553V18.4336H415.66ZM417.252 18.4336V29H415.445V18.4336H417.252ZM410.113 18.4336H411.93L411.656 23.5312C411.611 24.319 411.536 25.0156 411.432 25.6211C411.334 26.2201 411.197 26.7344 411.021 27.1641C410.852 27.5938 410.637 27.9453 410.377 28.2188C410.123 28.4857 409.817 28.6842 409.459 28.8145C409.101 28.9382 408.688 29 408.219 29H407.652V27.4082L408.043 27.3789C408.323 27.3594 408.561 27.2943 408.756 27.1836C408.958 27.0729 409.127 26.9102 409.264 26.6953C409.4 26.474 409.511 26.1908 409.596 25.8457C409.687 25.5007 409.755 25.0905 409.801 24.6152C409.853 24.14 409.892 23.5866 409.918 22.9551L410.113 18.4336ZM422.115 26.1387L426.988 18.4336H428.805V29H426.988V21.2949L422.115 29H420.318V18.4336H422.115V26.1387ZM438.482 13.834H439.967C439.967 14.472 439.869 14.9798 439.674 15.3574C439.479 15.7285 439.212 16.015 438.873 16.2168C438.541 16.4186 438.163 16.5716 437.74 16.6758C437.324 16.7799 436.891 16.8809 436.441 16.9785C435.882 17.0957 435.361 17.2812 434.879 17.5352C434.404 17.7826 433.993 18.1341 433.648 18.5898C433.31 19.0456 433.059 19.638 432.896 20.3672C432.74 21.0964 432.698 21.998 432.77 23.0723V23.9707H431.285V23.0723C431.285 21.8678 431.399 20.8164 431.627 19.918C431.861 19.0195 432.19 18.2611 432.613 17.6426C433.036 17.0241 433.538 16.5326 434.117 16.168C434.703 15.8034 435.348 15.5527 436.051 15.416C436.559 15.3184 436.995 15.2142 437.359 15.1035C437.724 14.9863 438.001 14.8301 438.189 14.6348C438.385 14.4395 438.482 14.1725 438.482 13.834ZM436.344 19.0391C437.034 19.0391 437.649 19.1595 438.189 19.4004C438.73 19.6413 439.189 19.9766 439.566 20.4062C439.944 20.8359 440.23 21.3438 440.426 21.9297C440.628 22.5091 440.729 23.1406 440.729 23.8242V24.0391C440.729 24.7747 440.621 25.4583 440.406 26.0898C440.198 26.7148 439.889 27.2617 439.479 27.7305C439.075 28.1927 438.58 28.554 437.994 28.8145C437.415 29.0749 436.754 29.2051 436.012 29.2051C435.27 29.2051 434.605 29.0749 434.02 28.8145C433.44 28.554 432.945 28.1927 432.535 27.7305C432.125 27.2617 431.812 26.7148 431.598 26.0898C431.389 25.4583 431.285 24.7747 431.285 24.0391V23.8242C431.285 23.6615 431.314 23.502 431.373 23.3457C431.432 23.1895 431.503 23.0299 431.588 22.8672C431.679 22.7044 431.76 22.5319 431.832 22.3496C432.073 21.7637 432.402 21.2201 432.818 20.7188C433.242 20.2174 433.746 19.8138 434.332 19.5078C434.924 19.1953 435.595 19.0391 436.344 19.0391ZM435.992 20.5137C435.328 20.5137 434.781 20.6667 434.352 20.9727C433.928 21.2786 433.613 21.6855 433.404 22.1934C433.196 22.6947 433.092 23.2383 433.092 23.8242V24.0391C433.092 24.5339 433.15 25.0026 433.268 25.4453C433.385 25.888 433.561 26.2819 433.795 26.627C434.036 26.9655 434.339 27.2324 434.703 27.4277C435.074 27.623 435.51 27.7207 436.012 27.7207C436.513 27.7207 436.946 27.623 437.311 27.4277C437.675 27.2324 437.975 26.9655 438.209 26.627C438.443 26.2819 438.619 25.888 438.736 25.4453C438.854 25.0026 438.912 24.5339 438.912 24.0391V23.8242C438.912 23.3815 438.854 22.9616 438.736 22.5645C438.619 22.1673 438.44 21.8158 438.199 21.5098C437.965 21.2038 437.662 20.9629 437.291 20.7871C436.926 20.6048 436.493 20.5137 435.992 20.5137ZM442.301 23.834V23.6094C442.301 22.8477 442.411 22.1413 442.633 21.4902C442.854 20.8327 443.173 20.263 443.59 19.7812C444.007 19.293 444.511 18.9154 445.104 18.6484C445.696 18.375 446.36 18.2383 447.096 18.2383C447.838 18.2383 448.505 18.375 449.098 18.6484C449.697 18.9154 450.204 19.293 450.621 19.7812C451.044 20.263 451.367 20.8327 451.588 21.4902C451.809 22.1413 451.92 22.8477 451.92 23.6094V23.834C451.92 24.5957 451.809 25.3021 451.588 25.9531C451.367 26.6042 451.044 27.1738 450.621 27.6621C450.204 28.1439 449.7 28.5215 449.107 28.7949C448.521 29.0618 447.857 29.1953 447.115 29.1953C446.373 29.1953 445.706 29.0618 445.113 28.7949C444.521 28.5215 444.013 28.1439 443.59 27.6621C443.173 27.1738 442.854 26.6042 442.633 25.9531C442.411 25.3021 442.301 24.5957 442.301 23.834ZM444.107 23.6094V23.834C444.107 24.3613 444.169 24.8594 444.293 25.3281C444.417 25.7904 444.602 26.2005 444.85 26.5586C445.104 26.9167 445.419 27.1999 445.797 27.4082C446.174 27.61 446.614 27.7109 447.115 27.7109C447.61 27.7109 448.043 27.61 448.414 27.4082C448.792 27.1999 449.104 26.9167 449.352 26.5586C449.599 26.2005 449.785 25.7904 449.908 25.3281C450.038 24.8594 450.104 24.3613 450.104 23.834V23.6094C450.104 23.0885 450.038 22.597 449.908 22.1348C449.785 21.666 449.596 21.2526 449.342 20.8945C449.094 20.5299 448.782 20.2435 448.404 20.0352C448.033 19.8268 447.597 19.7227 447.096 19.7227C446.601 19.7227 446.165 19.8268 445.787 20.0352C445.416 20.2435 445.104 20.5299 444.85 20.8945C444.602 21.2526 444.417 21.666 444.293 22.1348C444.169 22.597 444.107 23.0885 444.107 23.6094ZM461.051 18.4336H462.857L462.701 22.3887C462.662 23.3913 462.548 24.2572 462.359 24.9863C462.171 25.7155 461.93 26.3372 461.637 26.8516C461.344 27.3594 461.015 27.7858 460.65 28.1309C460.292 28.4759 459.921 28.7656 459.537 29H458.639L458.688 27.5254L459.059 27.5156C459.273 27.2617 459.482 27.0013 459.684 26.7344C459.885 26.4609 460.071 26.1387 460.24 25.7676C460.41 25.39 460.549 24.931 460.66 24.3906C460.777 23.8438 460.852 23.1764 460.885 22.3887L461.051 18.4336ZM461.5 18.4336H467.857V29H466.051V20.1035H461.5V18.4336ZM458.229 27.5156H469.215V32.1152H467.408V29H460.035V32.1152H458.219L458.229 27.5156ZM475.602 29.1953C474.866 29.1953 474.199 29.0716 473.6 28.8242C473.007 28.5703 472.496 28.2155 472.066 27.7598C471.643 27.304 471.318 26.7637 471.09 26.1387C470.862 25.5137 470.748 24.8301 470.748 24.0879V23.6777C470.748 22.8184 470.875 22.0534 471.129 21.3828C471.383 20.7057 471.728 20.1328 472.164 19.6641C472.6 19.1953 473.095 18.8405 473.648 18.5996C474.202 18.3587 474.775 18.2383 475.367 18.2383C476.122 18.2383 476.773 18.3685 477.32 18.6289C477.874 18.8893 478.326 19.2539 478.678 19.7227C479.029 20.1849 479.29 20.7318 479.459 21.3633C479.628 21.9883 479.713 22.6719 479.713 23.4141V24.2246H471.822V22.75H477.906V22.6133C477.88 22.1445 477.783 21.6888 477.613 21.2461C477.451 20.8034 477.19 20.4388 476.832 20.1523C476.474 19.8659 475.986 19.7227 475.367 19.7227C474.957 19.7227 474.579 19.8105 474.234 19.9863C473.889 20.1556 473.593 20.4095 473.346 20.748C473.098 21.0866 472.906 21.5 472.77 21.9883C472.633 22.4766 472.564 23.0397 472.564 23.6777V24.0879C472.564 24.5892 472.633 25.0612 472.77 25.5039C472.913 25.9401 473.118 26.3242 473.385 26.6562C473.658 26.9883 473.987 27.2487 474.371 27.4375C474.762 27.6263 475.204 27.7207 475.699 27.7207C476.337 27.7207 476.878 27.5905 477.32 27.3301C477.763 27.0697 478.15 26.7214 478.482 26.2852L479.576 27.1543C479.348 27.4993 479.059 27.8281 478.707 28.1406C478.355 28.4531 477.923 28.707 477.408 28.9023C476.9 29.0977 476.298 29.1953 475.602 29.1953ZM483.775 26.1387L488.648 18.4336H490.465V29H488.648V21.2949L483.775 29H481.979V18.4336H483.775V26.1387ZM487.662 14.6055H489.127C489.127 15.1133 489.01 15.5658 488.775 15.9629C488.541 16.3535 488.206 16.6595 487.77 16.8809C487.333 17.1022 486.816 17.2129 486.217 17.2129C485.312 17.2129 484.596 16.972 484.068 16.4902C483.548 16.002 483.287 15.3737 483.287 14.6055H484.752C484.752 14.9896 484.863 15.3281 485.084 15.6211C485.305 15.9141 485.683 16.0605 486.217 16.0605C486.738 16.0605 487.109 15.9141 487.33 15.6211C487.551 15.3281 487.662 14.9896 487.662 14.6055ZM497.594 27.7109C498.023 27.7109 498.421 27.623 498.785 27.4473C499.15 27.2715 499.449 27.0306 499.684 26.7246C499.918 26.4121 500.051 26.0573 500.084 25.6602H501.803C501.77 26.2852 501.559 26.8678 501.168 27.4082C500.784 27.9421 500.279 28.375 499.654 28.707C499.029 29.0326 498.342 29.1953 497.594 29.1953C496.799 29.1953 496.106 29.0553 495.514 28.7754C494.928 28.4954 494.439 28.1113 494.049 27.623C493.665 27.1348 493.375 26.5749 493.18 25.9434C492.991 25.3053 492.896 24.6315 492.896 23.9219V23.5117C492.896 22.8021 492.991 22.1315 493.18 21.5C493.375 20.862 493.665 20.2988 494.049 19.8105C494.439 19.3223 494.928 18.9382 495.514 18.6582C496.106 18.3783 496.799 18.2383 497.594 18.2383C498.421 18.2383 499.143 18.4076 499.762 18.7461C500.38 19.0781 500.865 19.5339 501.217 20.1133C501.575 20.6862 501.77 21.3372 501.803 22.0664H500.084C500.051 21.6302 499.928 21.2363 499.713 20.8848C499.505 20.5332 499.218 20.2533 498.854 20.0449C498.495 19.8301 498.076 19.7227 497.594 19.7227C497.04 19.7227 496.575 19.8333 496.197 20.0547C495.826 20.2695 495.53 20.5625 495.309 20.9336C495.094 21.2982 494.938 21.7051 494.84 22.1543C494.749 22.597 494.703 23.0495 494.703 23.5117V23.9219C494.703 24.3841 494.749 24.8398 494.84 25.2891C494.931 25.7383 495.084 26.1452 495.299 26.5098C495.52 26.8743 495.816 27.1673 496.188 27.3887C496.565 27.6035 497.034 27.7109 497.594 27.7109ZM508.141 18.4336V29H506.324V18.4336H508.141ZM511.686 18.4336V19.8984H502.848V18.4336H511.686ZM518.424 24.3516H514.957L514.938 22.9062H517.77C518.329 22.9062 518.795 22.8509 519.166 22.7402C519.544 22.6296 519.827 22.4635 520.016 22.2422C520.204 22.0208 520.299 21.7474 520.299 21.4219C520.299 21.168 520.243 20.9466 520.133 20.7578C520.029 20.5625 519.869 20.403 519.654 20.2793C519.439 20.1491 519.173 20.0547 518.854 19.9961C518.541 19.931 518.173 19.8984 517.75 19.8984H515.436V29H513.629V18.4336H517.75C518.421 18.4336 519.023 18.4922 519.557 18.6094C520.097 18.7266 520.556 18.9056 520.934 19.1465C521.318 19.3809 521.611 19.6803 521.812 20.0449C522.014 20.4095 522.115 20.8392 522.115 21.334C522.115 21.653 522.05 21.9557 521.92 22.2422C521.79 22.5286 521.598 22.7826 521.344 23.0039C521.09 23.2253 520.777 23.4076 520.406 23.5508C520.035 23.6875 519.609 23.7754 519.127 23.8145L518.424 24.3516ZM518.424 29H514.303L515.201 27.5352H518.424C518.925 27.5352 519.342 27.4733 519.674 27.3496C520.006 27.2194 520.253 27.0371 520.416 26.8027C520.585 26.5618 520.67 26.2754 520.67 25.9434C520.67 25.6113 520.585 25.3281 520.416 25.0938C520.253 24.8529 520.006 24.6706 519.674 24.5469C519.342 24.4167 518.925 24.3516 518.424 24.3516H515.68L515.699 22.9062H519.127L519.781 23.4531C520.361 23.4987 520.852 23.6419 521.256 23.8828C521.66 24.1237 521.965 24.4297 522.174 24.8008C522.382 25.1654 522.486 25.5625 522.486 25.9922C522.486 26.487 522.392 26.9232 522.203 27.3008C522.021 27.6784 521.754 27.9941 521.402 28.248C521.051 28.4954 520.624 28.6842 520.123 28.8145C519.622 28.9382 519.055 29 518.424 29ZM526.861 26.1387L531.734 18.4336H533.551V29H531.734V21.2949L526.861 29H525.064V18.4336H526.861V26.1387ZM538.59 23.9609H540.543L537.486 29H535.533L538.59 23.9609ZM540.104 18.4336H544.518V29H542.711V19.8984H540.104C539.589 19.8984 539.169 19.9863 538.844 20.1621C538.518 20.3314 538.281 20.5527 538.131 20.8262C537.981 21.0996 537.906 21.3828 537.906 21.6758C537.906 21.9622 537.975 22.2389 538.111 22.5059C538.248 22.7663 538.463 22.9811 538.756 23.1504C539.049 23.3197 539.426 23.4043 539.889 23.4043H543.199V24.8887H539.889C539.283 24.8887 538.746 24.8073 538.277 24.6445C537.809 24.4818 537.411 24.2572 537.086 23.9707C536.76 23.6777 536.513 23.3359 536.344 22.9453C536.174 22.5482 536.09 22.1185 536.09 21.6562C536.09 21.194 536.178 20.7676 536.354 20.377C536.536 19.9863 536.796 19.6445 537.135 19.3516C537.48 19.0586 537.9 18.834 538.395 18.6777C538.896 18.515 539.465 18.4336 540.104 18.4336ZM556.617 27.7109C557.047 27.7109 557.444 27.623 557.809 27.4473C558.173 27.2715 558.473 27.0306 558.707 26.7246C558.941 26.4121 559.075 26.0573 559.107 25.6602H560.826C560.794 26.2852 560.582 26.8678 560.191 27.4082C559.807 27.9421 559.303 28.375 558.678 28.707C558.053 29.0326 557.366 29.1953 556.617 29.1953C555.823 29.1953 555.13 29.0553 554.537 28.7754C553.951 28.4954 553.463 28.1113 553.072 27.623C552.688 27.1348 552.398 26.5749 552.203 25.9434C552.014 25.3053 551.92 24.6315 551.92 23.9219V23.5117C551.92 22.8021 552.014 22.1315 552.203 21.5C552.398 20.862 552.688 20.2988 553.072 19.8105C553.463 19.3223 553.951 18.9382 554.537 18.6582C555.13 18.3783 555.823 18.2383 556.617 18.2383C557.444 18.2383 558.167 18.4076 558.785 18.7461C559.404 19.0781 559.889 19.5339 560.24 20.1133C560.598 20.6862 560.794 21.3372 560.826 22.0664H559.107C559.075 21.6302 558.951 21.2363 558.736 20.8848C558.528 20.5332 558.242 20.2533 557.877 20.0449C557.519 19.8301 557.099 19.7227 556.617 19.7227C556.064 19.7227 555.598 19.8333 555.221 20.0547C554.85 20.2695 554.553 20.5625 554.332 20.9336C554.117 21.2982 553.961 21.7051 553.863 22.1543C553.772 22.597 553.727 23.0495 553.727 23.5117V23.9219C553.727 24.3841 553.772 24.8398 553.863 25.2891C553.954 25.7383 554.107 26.1452 554.322 26.5098C554.544 26.8743 554.84 27.1673 555.211 27.3887C555.589 27.6035 556.057 27.7109 556.617 27.7109ZM569.781 18.4336V29H567.975V18.4336H569.781ZM576.715 18.4336L571.705 24.4883H569.176L568.902 22.9062H570.973L574.518 18.4336H576.715ZM574.771 29L570.885 24.2148L572.047 22.9062L577.066 29H574.771ZM582.867 29.1953C582.132 29.1953 581.464 29.0716 580.865 28.8242C580.273 28.5703 579.762 28.2155 579.332 27.7598C578.909 27.304 578.583 26.7637 578.355 26.1387C578.128 25.5137 578.014 24.8301 578.014 24.0879V23.6777C578.014 22.8184 578.141 22.0534 578.395 21.3828C578.648 20.7057 578.993 20.1328 579.43 19.6641C579.866 19.1953 580.361 18.8405 580.914 18.5996C581.467 18.3587 582.04 18.2383 582.633 18.2383C583.388 18.2383 584.039 18.3685 584.586 18.6289C585.139 18.8893 585.592 19.2539 585.943 19.7227C586.295 20.1849 586.555 20.7318 586.725 21.3633C586.894 21.9883 586.979 22.6719 586.979 23.4141V24.2246H579.088V22.75H585.172V22.6133C585.146 22.1445 585.048 21.6888 584.879 21.2461C584.716 20.8034 584.456 20.4388 584.098 20.1523C583.74 19.8659 583.251 19.7227 582.633 19.7227C582.223 19.7227 581.845 19.8105 581.5 19.9863C581.155 20.1556 580.859 20.4095 580.611 20.748C580.364 21.0866 580.172 21.5 580.035 21.9883C579.898 22.4766 579.83 23.0397 579.83 23.6777V24.0879C579.83 24.5892 579.898 25.0612 580.035 25.5039C580.178 25.9401 580.383 26.3242 580.65 26.6562C580.924 26.9883 581.253 27.2487 581.637 27.4375C582.027 27.6263 582.47 27.7207 582.965 27.7207C583.603 27.7207 584.143 27.5905 584.586 27.3301C585.029 27.0697 585.416 26.7214 585.748 26.2852L586.842 27.1543C586.614 27.4993 586.324 27.8281 585.973 28.1406C585.621 28.4531 585.188 28.707 584.674 28.9023C584.166 29.0977 583.564 29.1953 582.867 29.1953ZM595.162 26.5977L598.756 18.4336H600.494L595.787 29H594.537L589.85 18.4336H591.588L595.162 26.5977ZM591.061 18.4336V29H589.254V18.4336H591.061ZM599.205 29V18.4336H601.021V29H599.205ZM607.691 22.2129V23.6973H602.926V22.2129H607.691ZM613.766 18.4336V29H611.949V18.4336H613.766ZM617.311 18.4336V19.8984H608.473V18.4336H617.311ZM618.199 23.834V23.6094C618.199 22.8477 618.31 22.1413 618.531 21.4902C618.753 20.8327 619.072 20.263 619.488 19.7812C619.905 19.293 620.41 18.9154 621.002 18.6484C621.594 18.375 622.258 18.2383 622.994 18.2383C623.736 18.2383 624.404 18.375 624.996 18.6484C625.595 18.9154 626.103 19.293 626.52 19.7812C626.943 20.263 627.265 20.8327 627.486 21.4902C627.708 22.1413 627.818 22.8477 627.818 23.6094V23.834C627.818 24.5957 627.708 25.3021 627.486 25.9531C627.265 26.6042 626.943 27.1738 626.52 27.6621C626.103 28.1439 625.598 28.5215 625.006 28.7949C624.42 29.0618 623.756 29.1953 623.014 29.1953C622.271 29.1953 621.604 29.0618 621.012 28.7949C620.419 28.5215 619.911 28.1439 619.488 27.6621C619.072 27.1738 618.753 26.6042 618.531 25.9531C618.31 25.3021 618.199 24.5957 618.199 23.834ZM620.006 23.6094V23.834C620.006 24.3613 620.068 24.8594 620.191 25.3281C620.315 25.7904 620.501 26.2005 620.748 26.5586C621.002 26.9167 621.318 27.1999 621.695 27.4082C622.073 27.61 622.512 27.7109 623.014 27.7109C623.508 27.7109 623.941 27.61 624.312 27.4082C624.69 27.1999 625.003 26.9167 625.25 26.5586C625.497 26.2005 625.683 25.7904 625.807 25.3281C625.937 24.8594 626.002 24.3613 626.002 23.834V23.6094C626.002 23.0885 625.937 22.597 625.807 22.1348C625.683 21.666 625.494 21.2526 625.24 20.8945C624.993 20.5299 624.68 20.2435 624.303 20.0352C623.932 19.8268 623.495 19.7227 622.994 19.7227C622.499 19.7227 622.063 19.8268 621.686 20.0352C621.314 20.2435 621.002 20.5299 620.748 20.8945C620.501 21.2526 620.315 21.666 620.191 22.1348C620.068 22.597 620.006 23.0885 620.006 23.6094ZM636.998 26.1387L641.871 18.4336H643.688V29H641.871V21.2949L636.998 29H635.201V18.4336H636.998V26.1387ZM653.648 18.4336V19.9277H648.541V18.4336H653.648ZM655.24 18.4336V29H653.434V18.4336H655.24ZM648.102 18.4336H649.918L649.645 23.5312C649.599 24.319 649.524 25.0156 649.42 25.6211C649.322 26.2201 649.186 26.7344 649.01 27.1641C648.84 27.5938 648.626 27.9453 648.365 28.2188C648.111 28.4857 647.805 28.6842 647.447 28.8145C647.089 28.9382 646.676 29 646.207 29H645.641V27.4082L646.031 27.3789C646.311 27.3594 646.549 27.2943 646.744 27.1836C646.946 27.0729 647.115 26.9102 647.252 26.6953C647.389 26.474 647.499 26.1908 647.584 25.8457C647.675 25.5007 647.743 25.0905 647.789 24.6152C647.841 24.14 647.88 23.5866 647.906 22.9551L648.102 18.4336ZM660.104 26.1387L664.977 18.4336H666.793V29H664.977V21.2949L660.104 29H658.307V18.4336H660.104V26.1387ZM682.623 18.4336V29H680.816V18.4336H682.623ZM682.008 23.2871V24.7715C681.643 24.9082 681.272 25.0319 680.895 25.1426C680.523 25.2467 680.13 25.3314 679.713 25.3965C679.303 25.4551 678.857 25.4844 678.375 25.4844C677.542 25.4844 676.819 25.3411 676.207 25.0547C675.595 24.7617 675.123 24.3223 674.791 23.7363C674.459 23.1439 674.293 22.3984 674.293 21.5V18.4141H676.1V21.5C676.1 22.0859 676.188 22.5612 676.363 22.9258C676.539 23.2904 676.796 23.5605 677.135 23.7363C677.473 23.9056 677.887 23.9902 678.375 23.9902C678.844 23.9902 679.283 23.9609 679.693 23.9023C680.11 23.8372 680.507 23.7526 680.885 23.6484C681.269 23.5443 681.643 23.4238 682.008 23.2871ZM689.918 29.1953C689.182 29.1953 688.515 29.0716 687.916 28.8242C687.324 28.5703 686.812 28.2155 686.383 27.7598C685.96 27.304 685.634 26.7637 685.406 26.1387C685.178 25.5137 685.064 24.8301 685.064 24.0879V23.6777C685.064 22.8184 685.191 22.0534 685.445 21.3828C685.699 20.7057 686.044 20.1328 686.48 19.6641C686.917 19.1953 687.411 18.8405 687.965 18.5996C688.518 18.3587 689.091 18.2383 689.684 18.2383C690.439 18.2383 691.09 18.3685 691.637 18.6289C692.19 18.8893 692.643 19.2539 692.994 19.7227C693.346 20.1849 693.606 20.7318 693.775 21.3633C693.945 21.9883 694.029 22.6719 694.029 23.4141V24.2246H686.139V22.75H692.223V22.6133C692.197 22.1445 692.099 21.6888 691.93 21.2461C691.767 20.8034 691.507 20.4388 691.148 20.1523C690.79 19.8659 690.302 19.7227 689.684 19.7227C689.273 19.7227 688.896 19.8105 688.551 19.9863C688.206 20.1556 687.91 20.4095 687.662 20.748C687.415 21.0866 687.223 21.5 687.086 21.9883C686.949 22.4766 686.881 23.0397 686.881 23.6777V24.0879C686.881 24.5892 686.949 25.0612 687.086 25.5039C687.229 25.9401 687.434 26.3242 687.701 26.6562C687.975 26.9883 688.303 27.2487 688.688 27.4375C689.078 27.6263 689.521 27.7207 690.016 27.7207C690.654 27.7207 691.194 27.5905 691.637 27.3301C692.079 27.0697 692.467 26.7214 692.799 26.2852L693.893 27.1543C693.665 27.4993 693.375 27.8281 693.023 28.1406C692.672 28.4531 692.239 28.707 691.725 28.9023C691.217 29.0977 690.615 29.1953 689.918 29.1953ZM702.213 26.5977L705.807 18.4336H707.545L702.838 29H701.588L696.9 18.4336H698.639L702.213 26.5977ZM698.111 18.4336V29H696.305V18.4336H698.111ZM706.256 29V18.4336H708.072V29H706.256ZM714.742 22.2129V23.6973H709.977V22.2129H714.742ZM720.816 18.4336V29H719V18.4336H720.816ZM724.361 18.4336V19.8984H715.523V18.4336H724.361ZM725.25 23.834V23.6094C725.25 22.8477 725.361 22.1413 725.582 21.4902C725.803 20.8327 726.122 20.263 726.539 19.7812C726.956 19.293 727.46 18.9154 728.053 18.6484C728.645 18.375 729.309 18.2383 730.045 18.2383C730.787 18.2383 731.454 18.375 732.047 18.6484C732.646 18.9154 733.154 19.293 733.57 19.7812C733.993 20.263 734.316 20.8327 734.537 21.4902C734.758 22.1413 734.869 22.8477 734.869 23.6094V23.834C734.869 24.5957 734.758 25.3021 734.537 25.9531C734.316 26.6042 733.993 27.1738 733.57 27.6621C733.154 28.1439 732.649 28.5215 732.057 28.7949C731.471 29.0618 730.807 29.1953 730.064 29.1953C729.322 29.1953 728.655 29.0618 728.062 28.7949C727.47 28.5215 726.962 28.1439 726.539 27.6621C726.122 27.1738 725.803 26.6042 725.582 25.9531C725.361 25.3021 725.25 24.5957 725.25 23.834ZM727.057 23.6094V23.834C727.057 24.3613 727.118 24.8594 727.242 25.3281C727.366 25.7904 727.551 26.2005 727.799 26.5586C728.053 26.9167 728.368 27.1999 728.746 27.4082C729.124 27.61 729.563 27.7109 730.064 27.7109C730.559 27.7109 730.992 27.61 731.363 27.4082C731.741 27.1999 732.053 26.9167 732.301 26.5586C732.548 26.2005 732.734 25.7904 732.857 25.3281C732.988 24.8594 733.053 24.3613 733.053 23.834V23.6094C733.053 23.0885 732.988 22.597 732.857 22.1348C732.734 21.666 732.545 21.2526 732.291 20.8945C732.044 20.5299 731.731 20.2435 731.354 20.0352C730.982 19.8268 730.546 19.7227 730.045 19.7227C729.55 19.7227 729.114 19.8268 728.736 20.0352C728.365 20.2435 728.053 20.5299 727.799 20.8945C727.551 21.2526 727.366 21.666 727.242 22.1348C727.118 22.597 727.057 23.0885 727.057 23.6094ZM737.164 28.043C737.164 27.737 737.258 27.4798 737.447 27.2715C737.643 27.0566 737.923 26.9492 738.287 26.9492C738.652 26.9492 738.928 27.0566 739.117 27.2715C739.312 27.4798 739.41 27.737 739.41 28.043C739.41 28.3424 739.312 28.5964 739.117 28.8047C738.928 29.013 738.652 29.1172 738.287 29.1172C737.923 29.1172 737.643 29.013 737.447 28.8047C737.258 28.5964 737.164 28.3424 737.164 28.043Z" fill="black"/>
<path d="M19.291 30.4805C19.8672 30.4805 20.3848 30.3682 20.8438 30.1436C21.3125 29.9092 21.6885 29.5869 21.9717 29.1768C22.2646 28.7666 22.4258 28.293 22.4551 27.7559H25.7803C25.7607 28.7812 25.458 29.7139 24.8721 30.5537C24.2861 31.3936 23.5098 32.0625 22.543 32.5605C21.5762 33.0488 20.5068 33.293 19.335 33.293C18.124 33.293 17.0693 33.0879 16.1709 32.6777C15.2725 32.2578 14.5254 31.6816 13.9297 30.9492C13.334 30.2168 12.8848 29.3721 12.582 28.415C12.2891 27.458 12.1426 26.4326 12.1426 25.3389V24.8262C12.1426 23.7324 12.2891 22.707 12.582 21.75C12.8848 20.7832 13.334 19.9336 13.9297 19.2012C14.5254 18.4688 15.2725 17.8975 16.1709 17.4873C17.0693 17.0674 18.1191 16.8574 19.3203 16.8574C20.5898 16.8574 21.7031 17.1113 22.6602 17.6191C23.6172 18.1172 24.3691 18.8154 24.916 19.7139C25.4727 20.6025 25.7607 21.6377 25.7803 22.8193H22.4551C22.4258 22.2334 22.2793 21.7061 22.0156 21.2373C21.7617 20.7588 21.4004 20.3779 20.9316 20.0947C20.4727 19.8115 19.9209 19.6699 19.2764 19.6699C18.5635 19.6699 17.9727 19.8164 17.5039 20.1094C17.0352 20.3926 16.6689 20.7832 16.4053 21.2812C16.1416 21.7695 15.9512 22.3213 15.834 22.9365C15.7266 23.542 15.6729 24.1719 15.6729 24.8262V25.3389C15.6729 25.9932 15.7266 26.6279 15.834 27.2432C15.9414 27.8584 16.127 28.4102 16.3906 28.8984C16.6641 29.377 17.0352 29.7627 17.5039 30.0557C17.9727 30.3389 18.5684 30.4805 19.291 30.4805ZM27.8164 25.251V24.9141C27.8164 23.7715 27.9824 22.7119 28.3145 21.7354C28.6465 20.749 29.125 19.8945 29.75 19.1719C30.3848 18.4395 31.1562 17.873 32.0645 17.4727C32.9824 17.0625 34.0176 16.8574 35.1699 16.8574C36.332 16.8574 37.3672 17.0625 38.2754 17.4727C39.1934 17.873 39.9697 18.4395 40.6045 19.1719C41.2393 19.8945 41.7227 20.749 42.0547 21.7354C42.3867 22.7119 42.5527 23.7715 42.5527 24.9141V25.251C42.5527 26.3936 42.3867 27.4531 42.0547 28.4297C41.7227 29.4062 41.2393 30.2607 40.6045 30.9932C39.9697 31.7158 39.1982 32.2822 38.29 32.6924C37.3818 33.0928 36.3516 33.293 35.1992 33.293C34.0371 33.293 32.9971 33.0928 32.0791 32.6924C31.1709 32.2822 30.3994 31.7158 29.7646 30.9932C29.1299 30.2607 28.6465 29.4062 28.3145 28.4297C27.9824 27.4531 27.8164 26.3936 27.8164 25.251ZM31.3467 24.9141V25.251C31.3467 25.9639 31.4199 26.6377 31.5664 27.2725C31.7129 27.9072 31.9424 28.4639 32.2549 28.9424C32.5674 29.4209 32.9678 29.7969 33.4561 30.0703C33.9443 30.3438 34.5254 30.4805 35.1992 30.4805C35.8535 30.4805 36.4199 30.3438 36.8984 30.0703C37.3867 29.7969 37.7871 29.4209 38.0996 28.9424C38.4121 28.4639 38.6416 27.9072 38.7881 27.2725C38.9443 26.6377 39.0225 25.9639 39.0225 25.251V24.9141C39.0225 24.2109 38.9443 23.5469 38.7881 22.9219C38.6416 22.2871 38.4072 21.7256 38.085 21.2373C37.7725 20.749 37.3721 20.3682 36.8838 20.0947C36.4053 19.8115 35.834 19.6699 35.1699 19.6699C34.5059 19.6699 33.9297 19.8115 33.4414 20.0947C32.9629 20.3682 32.5674 20.749 32.2549 21.2373C31.9424 21.7256 31.7129 22.2871 31.5664 22.9219C31.4199 23.5469 31.3467 24.2109 31.3467 24.9141ZM52.6162 22.4824V25.2949H44.8672V22.4824H52.6162Z" fill="black"/>
<path d="M74.8691 63.1953C74.0879 63.1953 73.3815 63.0684 72.75 62.8145C72.125 62.554 71.5911 62.1927 71.1484 61.7305C70.7122 61.2682 70.377 60.7246 70.1426 60.0996C69.9082 59.4746 69.791 58.8008 69.791 58.0781V57.6875C69.791 56.8607 69.9115 56.112 70.1523 55.4414C70.3932 54.7708 70.7285 54.1979 71.1582 53.7227C71.5879 53.2409 72.0957 52.873 72.6816 52.6191C73.2676 52.3652 73.9023 52.2383 74.5859 52.2383C75.3411 52.2383 76.002 52.3652 76.5684 52.6191C77.1348 52.873 77.6035 53.2311 77.9746 53.6934C78.3522 54.1491 78.6322 54.6927 78.8145 55.3242C79.0033 55.9557 79.0977 56.6523 79.0977 57.4141V58.4199H70.9336V56.7305H76.7734V56.5449C76.7604 56.1217 76.6758 55.7246 76.5195 55.3535C76.3698 54.9824 76.1387 54.6829 75.8262 54.4551C75.5137 54.2272 75.097 54.1133 74.5762 54.1133C74.1855 54.1133 73.8372 54.1979 73.5312 54.3672C73.2318 54.5299 72.9811 54.7676 72.7793 55.0801C72.5775 55.3926 72.4212 55.7702 72.3105 56.2129C72.2064 56.6491 72.1543 57.1406 72.1543 57.6875V58.0781C72.1543 58.5404 72.2161 58.9701 72.3398 59.3672C72.4701 59.7578 72.6589 60.0996 72.9062 60.3926C73.1536 60.6855 73.4531 60.9167 73.8047 61.0859C74.1562 61.2487 74.5566 61.3301 75.0059 61.3301C75.5723 61.3301 76.0768 61.2161 76.5195 60.9883C76.9622 60.7604 77.3464 60.4382 77.6719 60.0215L78.9121 61.2227C78.6842 61.5547 78.388 61.8737 78.0234 62.1797C77.6589 62.4792 77.2129 62.7233 76.6855 62.9121C76.1647 63.1009 75.5592 63.1953 74.8691 63.1953ZM82.7305 52.4336L84.7422 55.9395L86.793 52.4336H89.3809L86.1777 57.6191L89.5078 63H86.9199L84.7715 59.3477L82.623 63H80.0254L83.3457 57.6191L80.1523 52.4336H82.7305ZM93.5117 52.4336V63H91.1484V52.4336H93.5117ZM90.9922 49.6602C90.9922 49.3021 91.1094 49.0059 91.3438 48.7715C91.5846 48.5306 91.9167 48.4102 92.3398 48.4102C92.7565 48.4102 93.0853 48.5306 93.3262 48.7715C93.5671 49.0059 93.6875 49.3021 93.6875 49.6602C93.6875 50.0117 93.5671 50.3047 93.3262 50.5391C93.0853 50.7734 92.7565 50.8906 92.3398 50.8906C91.9167 50.8906 91.5846 50.7734 91.3438 50.5391C91.1094 50.3047 90.9922 50.0117 90.9922 49.6602ZM102.018 60.1387C102.018 59.9043 101.959 59.6927 101.842 59.5039C101.725 59.3086 101.5 59.1328 101.168 58.9766C100.842 58.8203 100.361 58.6771 99.7227 58.5469C99.1628 58.4232 98.6484 58.2767 98.1797 58.1074C97.7174 57.9316 97.3203 57.7201 96.9883 57.4727C96.6562 57.2253 96.3991 56.9323 96.2168 56.5938C96.0345 56.2552 95.9434 55.8646 95.9434 55.4219C95.9434 54.9922 96.0378 54.5853 96.2266 54.2012C96.4154 53.8171 96.6855 53.4785 97.0371 53.1855C97.3887 52.8926 97.8151 52.6615 98.3164 52.4922C98.8242 52.3229 99.3906 52.2383 100.016 52.2383C100.901 52.2383 101.66 52.388 102.291 52.6875C102.929 52.9805 103.417 53.3809 103.756 53.8887C104.094 54.39 104.264 54.9564 104.264 55.5879H101.91C101.91 55.3079 101.839 55.0475 101.695 54.8066C101.559 54.5592 101.35 54.3607 101.07 54.2109C100.79 54.0547 100.439 53.9766 100.016 53.9766C99.612 53.9766 99.2767 54.0417 99.0098 54.1719C98.7493 54.2956 98.554 54.4583 98.4238 54.6602C98.3001 54.862 98.2383 55.0833 98.2383 55.3242C98.2383 55.5 98.2708 55.6595 98.3359 55.8027C98.4076 55.9395 98.5247 56.0664 98.6875 56.1836C98.8503 56.2943 99.0716 56.3984 99.3516 56.4961C99.638 56.5938 99.9961 56.6882 100.426 56.7793C101.233 56.9486 101.926 57.1667 102.506 57.4336C103.092 57.694 103.541 58.0326 103.854 58.4492C104.166 58.8594 104.322 59.3802 104.322 60.0117C104.322 60.4805 104.221 60.9102 104.02 61.3008C103.824 61.6849 103.538 62.0202 103.16 62.3066C102.783 62.5866 102.33 62.8047 101.803 62.9609C101.282 63.1172 100.696 63.1953 100.045 63.1953C99.0879 63.1953 98.2773 63.026 97.6133 62.6875C96.9492 62.3424 96.4447 61.903 96.0996 61.3691C95.7611 60.8288 95.5918 60.2689 95.5918 59.6895H97.8672C97.8932 60.1257 98.0137 60.474 98.2285 60.7344C98.4499 60.9883 98.7233 61.1738 99.0488 61.291C99.3809 61.4017 99.7227 61.457 100.074 61.457C100.497 61.457 100.852 61.4017 101.139 61.291C101.425 61.1738 101.643 61.0176 101.793 60.8223C101.943 60.6204 102.018 60.3926 102.018 60.1387ZM111.227 52.4336V54.1523H105.27V52.4336H111.227ZM106.988 49.8457H109.342V60.0801C109.342 60.4056 109.387 60.6562 109.479 60.832C109.576 61.0013 109.71 61.1152 109.879 61.1738C110.048 61.2324 110.247 61.2617 110.475 61.2617C110.637 61.2617 110.794 61.252 110.943 61.2324C111.093 61.2129 111.214 61.1934 111.305 61.1738L111.314 62.9707C111.119 63.0293 110.891 63.0814 110.631 63.127C110.377 63.1725 110.084 63.1953 109.752 63.1953C109.212 63.1953 108.733 63.1009 108.316 62.9121C107.9 62.7168 107.574 62.401 107.34 61.9648C107.105 61.5286 106.988 60.9492 106.988 60.2266V49.8457ZM120.665 57.9097V59.0229H117.091V57.9097H120.665ZM128.883 62.0332C129.205 62.0332 129.503 61.9673 129.776 61.8354C130.05 61.7036 130.274 61.5229 130.45 61.2935C130.626 61.0591 130.726 60.793 130.75 60.4951H132.04C132.015 60.9639 131.856 61.4009 131.563 61.8062C131.275 62.2065 130.897 62.5312 130.428 62.7803C129.959 63.0244 129.444 63.1465 128.883 63.1465C128.287 63.1465 127.767 63.0415 127.323 62.8315C126.883 62.6216 126.517 62.3335 126.224 61.9673C125.936 61.6011 125.719 61.1812 125.572 60.7075C125.431 60.229 125.36 59.7236 125.36 59.1914V58.8838C125.36 58.3516 125.431 57.8486 125.572 57.375C125.719 56.8965 125.936 56.4741 126.224 56.1079C126.517 55.7417 126.883 55.4536 127.323 55.2437C127.767 55.0337 128.287 54.9287 128.883 54.9287C129.503 54.9287 130.045 55.0557 130.509 55.3096C130.973 55.5586 131.336 55.9004 131.6 56.335C131.869 56.7646 132.015 57.2529 132.04 57.7998H130.75C130.726 57.4727 130.633 57.1772 130.472 56.9136C130.316 56.6499 130.101 56.4399 129.828 56.2837C129.559 56.1226 129.244 56.042 128.883 56.042C128.468 56.042 128.119 56.125 127.835 56.291C127.557 56.4521 127.335 56.6719 127.169 56.9502C127.008 57.2236 126.891 57.5288 126.817 57.8657C126.749 58.1978 126.715 58.5371 126.715 58.8838V59.1914C126.715 59.5381 126.749 59.8799 126.817 60.2168C126.886 60.5537 127 60.8589 127.162 61.1323C127.328 61.4058 127.55 61.6255 127.828 61.7915C128.111 61.9526 128.463 62.0332 128.883 62.0332ZM135.79 62.1797L137.994 55.0752H139.444L136.266 64.2231C136.192 64.4185 136.095 64.6284 135.973 64.853C135.855 65.0825 135.704 65.2998 135.519 65.5049C135.333 65.71 135.108 65.876 134.845 66.0029C134.586 66.1348 134.276 66.2007 133.915 66.2007C133.807 66.2007 133.67 66.186 133.504 66.1567C133.338 66.1274 133.221 66.103 133.153 66.0835L133.146 64.9849C133.185 64.9897 133.246 64.9946 133.329 64.9995C133.417 65.0093 133.478 65.0142 133.512 65.0142C133.819 65.0142 134.081 64.9727 134.295 64.8896C134.51 64.8115 134.691 64.6772 134.837 64.4868C134.989 64.3013 135.118 64.0449 135.226 63.7178L135.79 62.1797ZM134.171 55.0752L136.229 61.2275L136.581 62.6558L135.606 63.1538L132.691 55.0752H134.171ZM151.683 61.8867L151.551 65.3511H150.343V63H149.31V61.8867H151.683ZM140.704 55.0752H142.059V61.8867H144.959V55.0752H146.322V61.8867H149.215V55.0752H150.57V63H140.704V55.0752ZM156.466 63.1465C155.914 63.1465 155.414 63.0537 154.964 62.8682C154.52 62.6777 154.137 62.4116 153.814 62.0698C153.497 61.728 153.253 61.3228 153.082 60.854C152.911 60.3853 152.826 59.8726 152.826 59.3159V59.0083C152.826 58.3638 152.921 57.79 153.111 57.2871C153.302 56.7793 153.561 56.3496 153.888 55.998C154.215 55.6465 154.586 55.3804 155.001 55.1997C155.416 55.019 155.846 54.9287 156.29 54.9287C156.856 54.9287 157.345 55.0264 157.755 55.2217C158.17 55.417 158.509 55.6904 158.773 56.042C159.037 56.3887 159.232 56.7988 159.359 57.2725C159.486 57.7412 159.549 58.2539 159.549 58.8105V59.4185H153.631V58.3125H158.194V58.21C158.175 57.8584 158.102 57.5166 157.975 57.1846C157.853 56.8525 157.657 56.5791 157.389 56.3643C157.12 56.1494 156.754 56.042 156.29 56.042C155.982 56.042 155.699 56.1079 155.44 56.2397C155.182 56.3667 154.959 56.5571 154.774 56.811C154.588 57.0649 154.444 57.375 154.342 57.7412C154.239 58.1074 154.188 58.5298 154.188 59.0083V59.3159C154.188 59.6919 154.239 60.0459 154.342 60.3779C154.449 60.7051 154.603 60.9932 154.803 61.2422C155.008 61.4912 155.255 61.6865 155.543 61.8281C155.836 61.9697 156.168 62.0405 156.539 62.0405C157.018 62.0405 157.423 61.9429 157.755 61.7476C158.087 61.5522 158.377 61.291 158.626 60.9639L159.447 61.6157C159.276 61.8745 159.059 62.1211 158.795 62.3555C158.531 62.5898 158.207 62.7803 157.821 62.9268C157.44 63.0732 156.988 63.1465 156.466 63.1465ZM164.303 62.0332C164.625 62.0332 164.923 61.9673 165.196 61.8354C165.47 61.7036 165.694 61.5229 165.87 61.2935C166.046 61.0591 166.146 60.793 166.17 60.4951H167.459C167.435 60.9639 167.276 61.4009 166.983 61.8062C166.695 62.2065 166.317 62.5312 165.848 62.7803C165.379 63.0244 164.864 63.1465 164.303 63.1465C163.707 63.1465 163.187 63.0415 162.743 62.8315C162.303 62.6216 161.937 62.3335 161.644 61.9673C161.356 61.6011 161.139 61.1812 160.992 60.7075C160.851 60.229 160.78 59.7236 160.78 59.1914V58.8838C160.78 58.3516 160.851 57.8486 160.992 57.375C161.139 56.8965 161.356 56.4741 161.644 56.1079C161.937 55.7417 162.303 55.4536 162.743 55.2437C163.187 55.0337 163.707 54.9287 164.303 54.9287C164.923 54.9287 165.465 55.0557 165.929 55.3096C166.393 55.5586 166.756 55.9004 167.02 56.335C167.289 56.7646 167.435 57.2529 167.459 57.7998H166.17C166.146 57.4727 166.053 57.1772 165.892 56.9136C165.736 56.6499 165.521 56.4399 165.248 56.2837C164.979 56.1226 164.664 56.042 164.303 56.042C163.888 56.042 163.539 56.125 163.255 56.291C162.977 56.4521 162.755 56.6719 162.589 56.9502C162.428 57.2236 162.311 57.5288 162.237 57.8657C162.169 58.1978 162.135 58.5371 162.135 58.8838V59.1914C162.135 59.5381 162.169 59.8799 162.237 60.2168C162.306 60.5537 162.42 60.8589 162.582 61.1323C162.748 61.4058 162.97 61.6255 163.248 61.7915C163.531 61.9526 163.883 62.0332 164.303 62.0332ZM172.213 55.0752V63H170.851V55.0752H172.213ZM174.872 55.0752V56.1738H168.243V55.0752H174.872ZM179.925 59.5137H177.325L177.311 58.4297H179.435C179.854 58.4297 180.204 58.3882 180.482 58.3052C180.765 58.2222 180.978 58.0977 181.119 57.9316C181.261 57.7656 181.332 57.5605 181.332 57.3164C181.332 57.126 181.29 56.96 181.207 56.8184C181.129 56.6719 181.009 56.5522 180.848 56.4595C180.687 56.3618 180.487 56.291 180.248 56.2471C180.013 56.1982 179.737 56.1738 179.42 56.1738H177.684V63H176.329V55.0752H179.42C179.923 55.0752 180.375 55.1191 180.775 55.207C181.18 55.2949 181.524 55.4292 181.808 55.6099C182.096 55.7856 182.315 56.0103 182.467 56.2837C182.618 56.5571 182.694 56.8794 182.694 57.2505C182.694 57.4897 182.645 57.7168 182.547 57.9316C182.45 58.1465 182.306 58.3369 182.115 58.5029C181.925 58.6689 181.69 58.8057 181.412 58.9131C181.134 59.0156 180.814 59.0815 180.453 59.1108L179.925 59.5137ZM179.925 63H176.834L177.508 61.9014H179.925C180.301 61.9014 180.614 61.855 180.863 61.7622C181.112 61.6646 181.297 61.5278 181.419 61.3521C181.546 61.1714 181.61 60.9565 181.61 60.7075C181.61 60.4585 181.546 60.2461 181.419 60.0703C181.297 59.8896 181.112 59.7529 180.863 59.6602C180.614 59.5625 180.301 59.5137 179.925 59.5137H177.867L177.882 58.4297H180.453L180.943 58.8398C181.378 58.874 181.747 58.9814 182.049 59.1621C182.352 59.3428 182.582 59.5723 182.738 59.8506C182.894 60.124 182.972 60.4219 182.972 60.7441C182.972 61.1152 182.901 61.4424 182.76 61.7256C182.623 62.0088 182.423 62.2456 182.159 62.436C181.896 62.6216 181.576 62.7632 181.2 62.8608C180.824 62.9536 180.399 63 179.925 63ZM184.43 59.1255V58.957C184.43 58.3857 184.513 57.856 184.679 57.3677C184.845 56.8745 185.084 56.4473 185.396 56.0859C185.709 55.7197 186.087 55.4365 186.532 55.2363C186.976 55.0312 187.474 54.9287 188.026 54.9287C188.583 54.9287 189.083 55.0312 189.527 55.2363C189.977 55.4365 190.357 55.7197 190.67 56.0859C190.987 56.4473 191.229 56.8745 191.395 57.3677C191.561 57.856 191.644 58.3857 191.644 58.957V59.1255C191.644 59.6968 191.561 60.2266 191.395 60.7148C191.229 61.2031 190.987 61.6304 190.67 61.9966C190.357 62.3579 189.979 62.6411 189.535 62.8462C189.095 63.0464 188.597 63.1465 188.041 63.1465C187.484 63.1465 186.983 63.0464 186.539 62.8462C186.095 62.6411 185.714 62.3579 185.396 61.9966C185.084 61.6304 184.845 61.2031 184.679 60.7148C184.513 60.2266 184.43 59.6968 184.43 59.1255ZM185.785 58.957V59.1255C185.785 59.521 185.831 59.8945 185.924 60.2461C186.017 60.5928 186.156 60.9004 186.341 61.1689C186.532 61.4375 186.769 61.6499 187.052 61.8062C187.335 61.9575 187.665 62.0332 188.041 62.0332C188.412 62.0332 188.736 61.9575 189.015 61.8062C189.298 61.6499 189.532 61.4375 189.718 61.1689C189.903 60.9004 190.042 60.5928 190.135 60.2461C190.233 59.8945 190.282 59.521 190.282 59.1255V58.957C190.282 58.5664 190.233 58.1978 190.135 57.8511C190.042 57.4995 189.901 57.1895 189.71 56.9209C189.525 56.6475 189.291 56.4326 189.007 56.2764C188.729 56.1201 188.402 56.042 188.026 56.042C187.655 56.042 187.328 56.1201 187.044 56.2764C186.766 56.4326 186.532 56.6475 186.341 56.9209C186.156 57.1895 186.017 57.4995 185.924 57.8511C185.831 58.1978 185.785 58.5664 185.785 58.957ZM197.064 59.5137H194.464L194.449 58.4297H196.573C196.993 58.4297 197.342 58.3882 197.621 58.3052C197.904 58.2222 198.116 58.0977 198.258 57.9316C198.399 57.7656 198.47 57.5605 198.47 57.3164C198.47 57.126 198.429 56.96 198.346 56.8184C198.268 56.6719 198.148 56.5522 197.987 56.4595C197.826 56.3618 197.625 56.291 197.386 56.2471C197.152 56.1982 196.876 56.1738 196.559 56.1738H194.823V63H193.468V55.0752H196.559C197.062 55.0752 197.513 55.1191 197.914 55.207C198.319 55.2949 198.663 55.4292 198.946 55.6099C199.234 55.7856 199.454 56.0103 199.605 56.2837C199.757 56.5571 199.833 56.8794 199.833 57.2505C199.833 57.4897 199.784 57.7168 199.686 57.9316C199.588 58.1465 199.444 58.3369 199.254 58.5029C199.063 58.6689 198.829 58.8057 198.551 58.9131C198.272 59.0156 197.953 59.0815 197.591 59.1108L197.064 59.5137ZM197.064 63H193.973L194.647 61.9014H197.064C197.44 61.9014 197.752 61.855 198.001 61.7622C198.25 61.6646 198.436 61.5278 198.558 61.3521C198.685 61.1714 198.749 60.9565 198.749 60.7075C198.749 60.4585 198.685 60.2461 198.558 60.0703C198.436 59.8896 198.25 59.7529 198.001 59.6602C197.752 59.5625 197.44 59.5137 197.064 59.5137H195.006L195.021 58.4297H197.591L198.082 58.8398C198.517 58.874 198.885 58.9814 199.188 59.1621C199.491 59.3428 199.72 59.5723 199.876 59.8506C200.033 60.124 200.111 60.4219 200.111 60.7441C200.111 61.1152 200.04 61.4424 199.898 61.7256C199.762 62.0088 199.562 62.2456 199.298 62.436C199.034 62.6216 198.714 62.7632 198.338 62.8608C197.962 62.9536 197.538 63 197.064 63ZM206.6 61.645V57.5654C206.6 57.2529 206.537 56.9819 206.41 56.7524C206.288 56.5181 206.102 56.3374 205.853 56.2104C205.604 56.0835 205.296 56.02 204.93 56.02C204.588 56.02 204.288 56.0786 204.029 56.1958C203.775 56.313 203.575 56.4668 203.429 56.6572C203.287 56.8477 203.216 57.0527 203.216 57.2725H201.861C201.861 56.9893 201.935 56.7085 202.081 56.4302C202.228 56.1519 202.438 55.9004 202.711 55.6758C202.989 55.4463 203.321 55.2656 203.707 55.1338C204.098 54.9971 204.532 54.9287 205.011 54.9287C205.587 54.9287 206.095 55.0264 206.534 55.2217C206.979 55.417 207.325 55.7124 207.574 56.1079C207.828 56.4985 207.955 56.9893 207.955 57.5801V61.2715C207.955 61.5352 207.977 61.8159 208.021 62.1138C208.07 62.4116 208.141 62.668 208.233 62.8828V63H206.82C206.751 62.8438 206.698 62.6362 206.659 62.3774C206.62 62.1138 206.6 61.8696 206.6 61.645ZM206.834 58.1953L206.849 59.1475H205.479C205.094 59.1475 204.75 59.1792 204.447 59.2427C204.144 59.3013 203.89 59.3916 203.685 59.5137C203.48 59.6357 203.324 59.7896 203.216 59.9751C203.109 60.1558 203.055 60.3682 203.055 60.6123C203.055 60.8613 203.111 61.0884 203.224 61.2935C203.336 61.4985 203.504 61.6621 203.729 61.7842C203.958 61.9014 204.239 61.96 204.571 61.96C204.986 61.96 205.353 61.8721 205.67 61.6963C205.987 61.5205 206.239 61.3057 206.424 61.0518C206.615 60.7979 206.717 60.5513 206.732 60.312L207.311 60.9639C207.276 61.1689 207.184 61.396 207.032 61.645C206.881 61.894 206.678 62.1333 206.424 62.3628C206.175 62.5874 205.877 62.7754 205.531 62.9268C205.189 63.0732 204.803 63.1465 204.374 63.1465C203.836 63.1465 203.365 63.0415 202.96 62.8315C202.56 62.6216 202.247 62.3408 202.022 61.9893C201.803 61.6328 201.693 61.2349 201.693 60.7954C201.693 60.3706 201.776 59.9971 201.942 59.6748C202.108 59.3477 202.347 59.0767 202.66 58.8618C202.972 58.6421 203.348 58.4761 203.788 58.3638C204.227 58.2515 204.718 58.1953 205.26 58.1953H206.834ZM213.199 55.0752V63H211.837V55.0752H213.199ZM215.858 55.0752V56.1738H209.229V55.0752H215.858ZM218.304 57.7998H220.685C221.324 57.7998 221.864 57.9121 222.303 58.1367C222.743 58.3564 223.075 58.6616 223.299 59.0522C223.529 59.438 223.644 59.8774 223.644 60.3706C223.644 60.7368 223.58 61.0811 223.453 61.4033C223.326 61.7207 223.136 61.999 222.882 62.2383C222.633 62.4775 222.323 62.6655 221.952 62.8022C221.585 62.9341 221.163 63 220.685 63H217.315V55.0752H218.67V61.8867H220.685C221.075 61.8867 221.388 61.8159 221.622 61.6743C221.856 61.5327 222.025 61.3496 222.127 61.125C222.23 60.9004 222.281 60.666 222.281 60.4219C222.281 60.1826 222.23 59.9482 222.127 59.7188C222.025 59.4893 221.856 59.2988 221.622 59.1475C221.388 58.9912 221.075 58.9131 220.685 58.9131H218.304V57.7998Z" fill="black"/>
<path d="M339.527 61.3203C339.911 61.3203 340.257 61.2454 340.562 61.0957C340.875 60.9395 341.126 60.7246 341.314 60.4512C341.51 60.1777 341.617 59.862 341.637 59.5039H343.854C343.84 60.1875 343.639 60.8092 343.248 61.3691C342.857 61.929 342.34 62.375 341.695 62.707C341.051 63.0326 340.338 63.1953 339.557 63.1953C338.749 63.1953 338.046 63.0586 337.447 62.7852C336.848 62.5052 336.35 62.1211 335.953 61.6328C335.556 61.1445 335.257 60.5814 335.055 59.9434C334.859 59.3053 334.762 58.6217 334.762 57.8926V57.5508C334.762 56.8216 334.859 56.138 335.055 55.5C335.257 54.8555 335.556 54.2891 335.953 53.8008C336.35 53.3125 336.848 52.9316 337.447 52.6582C338.046 52.3783 338.746 52.2383 339.547 52.2383C340.393 52.2383 341.135 52.4076 341.773 52.7461C342.411 53.0781 342.913 53.5436 343.277 54.1426C343.648 54.735 343.84 55.4251 343.854 56.2129H341.637C341.617 55.8223 341.52 55.4707 341.344 55.1582C341.174 54.8392 340.934 54.5853 340.621 54.3965C340.315 54.2077 339.947 54.1133 339.518 54.1133C339.042 54.1133 338.648 54.2109 338.336 54.4062C338.023 54.5951 337.779 54.8555 337.604 55.1875C337.428 55.513 337.301 55.8809 337.223 56.291C337.151 56.6947 337.115 57.1146 337.115 57.5508V57.8926C337.115 58.3288 337.151 58.752 337.223 59.1621C337.294 59.5723 337.418 59.9401 337.594 60.2656C337.776 60.5846 338.023 60.8418 338.336 61.0371C338.648 61.2259 339.046 61.3203 339.527 61.3203ZM345.211 57.834V57.6094C345.211 56.8477 345.322 56.1413 345.543 55.4902C345.764 54.8327 346.083 54.263 346.5 53.7812C346.923 53.293 347.438 52.9154 348.043 52.6484C348.655 52.375 349.345 52.2383 350.113 52.2383C350.888 52.2383 351.578 52.375 352.184 52.6484C352.796 52.9154 353.313 53.293 353.736 53.7812C354.16 54.263 354.482 54.8327 354.703 55.4902C354.924 56.1413 355.035 56.8477 355.035 57.6094V57.834C355.035 58.5957 354.924 59.3021 354.703 59.9531C354.482 60.6042 354.16 61.1738 353.736 61.6621C353.313 62.1439 352.799 62.5215 352.193 62.7949C351.588 63.0618 350.901 63.1953 350.133 63.1953C349.358 63.1953 348.665 63.0618 348.053 62.7949C347.447 62.5215 346.933 62.1439 346.51 61.6621C346.087 61.1738 345.764 60.6042 345.543 59.9531C345.322 59.3021 345.211 58.5957 345.211 57.834ZM347.564 57.6094V57.834C347.564 58.3092 347.613 58.7585 347.711 59.1816C347.809 59.6048 347.962 59.9759 348.17 60.2949C348.378 60.6139 348.645 60.8646 348.971 61.0469C349.296 61.2292 349.684 61.3203 350.133 61.3203C350.569 61.3203 350.947 61.2292 351.266 61.0469C351.591 60.8646 351.858 60.6139 352.066 60.2949C352.275 59.9759 352.428 59.6048 352.525 59.1816C352.63 58.7585 352.682 58.3092 352.682 57.834V57.6094C352.682 57.1406 352.63 56.6979 352.525 56.2812C352.428 55.8581 352.271 55.4837 352.057 55.1582C351.848 54.8327 351.581 54.5788 351.256 54.3965C350.937 54.2077 350.556 54.1133 350.113 54.1133C349.671 54.1133 349.286 54.2077 348.961 54.3965C348.642 54.5788 348.378 54.8327 348.17 55.1582C347.962 55.4837 347.809 55.8581 347.711 56.2812C347.613 56.6979 347.564 57.1406 347.564 57.6094ZM361.666 63.1953C360.885 63.1953 360.178 63.0684 359.547 62.8145C358.922 62.554 358.388 62.1927 357.945 61.7305C357.509 61.2682 357.174 60.7246 356.939 60.0996C356.705 59.4746 356.588 58.8008 356.588 58.0781V57.6875C356.588 56.8607 356.708 56.112 356.949 55.4414C357.19 54.7708 357.525 54.1979 357.955 53.7227C358.385 53.2409 358.893 52.873 359.479 52.6191C360.064 52.3652 360.699 52.2383 361.383 52.2383C362.138 52.2383 362.799 52.3652 363.365 52.6191C363.932 52.873 364.4 53.2311 364.771 53.6934C365.149 54.1491 365.429 54.6927 365.611 55.3242C365.8 55.9557 365.895 56.6523 365.895 57.4141V58.4199H357.73V56.7305H363.57V56.5449C363.557 56.1217 363.473 55.7246 363.316 55.3535C363.167 54.9824 362.936 54.6829 362.623 54.4551C362.311 54.2272 361.894 54.1133 361.373 54.1133C360.982 54.1133 360.634 54.1979 360.328 54.3672C360.029 54.5299 359.778 54.7676 359.576 55.0801C359.374 55.3926 359.218 55.7702 359.107 56.2129C359.003 56.6491 358.951 57.1406 358.951 57.6875V58.0781C358.951 58.5404 359.013 58.9701 359.137 59.3672C359.267 59.7578 359.456 60.0996 359.703 60.3926C359.951 60.6855 360.25 60.9167 360.602 61.0859C360.953 61.2487 361.354 61.3301 361.803 61.3301C362.369 61.3301 362.874 61.2161 363.316 60.9883C363.759 60.7604 364.143 60.4382 364.469 60.0215L365.709 61.2227C365.481 61.5547 365.185 61.8737 364.82 62.1797C364.456 62.4792 364.01 62.7233 363.482 62.9121C362.962 63.1009 362.356 63.1953 361.666 63.1953ZM369.527 52.4336L371.539 55.9395L373.59 52.4336H376.178L372.975 57.6191L376.305 63H373.717L371.568 59.3477L369.42 63H366.822L370.143 57.6191L366.949 52.4336H369.527ZM380.309 52.4336V63H377.945V52.4336H380.309ZM377.789 49.6602C377.789 49.3021 377.906 49.0059 378.141 48.7715C378.382 48.5306 378.714 48.4102 379.137 48.4102C379.553 48.4102 379.882 48.5306 380.123 48.7715C380.364 49.0059 380.484 49.3021 380.484 49.6602C380.484 50.0117 380.364 50.3047 380.123 50.5391C379.882 50.7734 379.553 50.8906 379.137 50.8906C378.714 50.8906 378.382 50.7734 378.141 50.5391C377.906 50.3047 377.789 50.0117 377.789 49.6602ZM388.814 60.1387C388.814 59.9043 388.756 59.6927 388.639 59.5039C388.521 59.3086 388.297 59.1328 387.965 58.9766C387.639 58.8203 387.158 58.6771 386.52 58.5469C385.96 58.4232 385.445 58.2767 384.977 58.1074C384.514 57.9316 384.117 57.7201 383.785 57.4727C383.453 57.2253 383.196 56.9323 383.014 56.5938C382.831 56.2552 382.74 55.8646 382.74 55.4219C382.74 54.9922 382.835 54.5853 383.023 54.2012C383.212 53.8171 383.482 53.4785 383.834 53.1855C384.186 52.8926 384.612 52.6615 385.113 52.4922C385.621 52.3229 386.188 52.2383 386.812 52.2383C387.698 52.2383 388.456 52.388 389.088 52.6875C389.726 52.9805 390.214 53.3809 390.553 53.8887C390.891 54.39 391.061 54.9564 391.061 55.5879H388.707C388.707 55.3079 388.635 55.0475 388.492 54.8066C388.355 54.5592 388.147 54.3607 387.867 54.2109C387.587 54.0547 387.236 53.9766 386.812 53.9766C386.409 53.9766 386.074 54.0417 385.807 54.1719C385.546 54.2956 385.351 54.4583 385.221 54.6602C385.097 54.862 385.035 55.0833 385.035 55.3242C385.035 55.5 385.068 55.6595 385.133 55.8027C385.204 55.9395 385.322 56.0664 385.484 56.1836C385.647 56.2943 385.868 56.3984 386.148 56.4961C386.435 56.5938 386.793 56.6882 387.223 56.7793C388.03 56.9486 388.723 57.1667 389.303 57.4336C389.889 57.694 390.338 58.0326 390.65 58.4492C390.963 58.8594 391.119 59.3802 391.119 60.0117C391.119 60.4805 391.018 60.9102 390.816 61.3008C390.621 61.6849 390.335 62.0202 389.957 62.3066C389.579 62.5866 389.127 62.8047 388.6 62.9609C388.079 63.1172 387.493 63.1953 386.842 63.1953C385.885 63.1953 385.074 63.026 384.41 62.6875C383.746 62.3424 383.242 61.903 382.896 61.3691C382.558 60.8288 382.389 60.2689 382.389 59.6895H384.664C384.69 60.1257 384.811 60.474 385.025 60.7344C385.247 60.9883 385.52 61.1738 385.846 61.291C386.178 61.4017 386.52 61.457 386.871 61.457C387.294 61.457 387.649 61.4017 387.936 61.291C388.222 61.1738 388.44 61.0176 388.59 60.8223C388.74 60.6204 388.814 60.3926 388.814 60.1387ZM398.023 52.4336V54.1523H392.066V52.4336H398.023ZM393.785 49.8457H396.139V60.0801C396.139 60.4056 396.184 60.6562 396.275 60.832C396.373 61.0013 396.507 61.1152 396.676 61.1738C396.845 61.2324 397.044 61.2617 397.271 61.2617C397.434 61.2617 397.59 61.252 397.74 61.2324C397.89 61.2129 398.01 61.1934 398.102 61.1738L398.111 62.9707C397.916 63.0293 397.688 63.0814 397.428 63.127C397.174 63.1725 396.881 63.1953 396.549 63.1953C396.008 63.1953 395.53 63.1009 395.113 62.9121C394.697 62.7168 394.371 62.401 394.137 61.9648C393.902 61.5286 393.785 60.9492 393.785 60.2266V49.8457ZM407.462 57.9097V59.0229H403.888V57.9097H407.462ZM415.68 62.0332C416.002 62.0332 416.3 61.9673 416.573 61.8354C416.847 61.7036 417.071 61.5229 417.247 61.2935C417.423 61.0591 417.523 60.793 417.547 60.4951H418.836C418.812 60.9639 418.653 61.4009 418.36 61.8062C418.072 62.2065 417.694 62.5312 417.225 62.7803C416.756 63.0244 416.241 63.1465 415.68 63.1465C415.084 63.1465 414.564 63.0415 414.12 62.8315C413.68 62.6216 413.314 62.3335 413.021 61.9673C412.733 61.6011 412.516 61.1812 412.369 60.7075C412.228 60.229 412.157 59.7236 412.157 59.1914V58.8838C412.157 58.3516 412.228 57.8486 412.369 57.375C412.516 56.8965 412.733 56.4741 413.021 56.1079C413.314 55.7417 413.68 55.4536 414.12 55.2437C414.564 55.0337 415.084 54.9287 415.68 54.9287C416.3 54.9287 416.842 55.0557 417.306 55.3096C417.77 55.5586 418.133 55.9004 418.397 56.335C418.666 56.7646 418.812 57.2529 418.836 57.7998H417.547C417.523 57.4727 417.43 57.1772 417.269 56.9136C417.113 56.6499 416.898 56.4399 416.625 56.2837C416.356 56.1226 416.041 56.042 415.68 56.042C415.265 56.042 414.916 56.125 414.632 56.291C414.354 56.4521 414.132 56.6719 413.966 56.9502C413.805 57.2236 413.688 57.5288 413.614 57.8657C413.546 58.1978 413.512 58.5371 413.512 58.8838V59.1914C413.512 59.5381 413.546 59.8799 413.614 60.2168C413.683 60.5537 413.797 60.8589 413.958 61.1323C414.125 61.4058 414.347 61.6255 414.625 61.7915C414.908 61.9526 415.26 62.0332 415.68 62.0332ZM420.001 59.1255V58.957C420.001 58.3857 420.084 57.856 420.25 57.3677C420.416 56.8745 420.655 56.4473 420.968 56.0859C421.28 55.7197 421.659 55.4365 422.103 55.2363C422.547 55.0312 423.045 54.9287 423.597 54.9287C424.154 54.9287 424.654 55.0312 425.099 55.2363C425.548 55.4365 425.929 55.7197 426.241 56.0859C426.559 56.4473 426.8 56.8745 426.966 57.3677C427.132 57.856 427.215 58.3857 427.215 58.957V59.1255C427.215 59.6968 427.132 60.2266 426.966 60.7148C426.8 61.2031 426.559 61.6304 426.241 61.9966C425.929 62.3579 425.55 62.6411 425.106 62.8462C424.667 63.0464 424.168 63.1465 423.612 63.1465C423.055 63.1465 422.555 63.0464 422.11 62.8462C421.666 62.6411 421.285 62.3579 420.968 61.9966C420.655 61.6304 420.416 61.2031 420.25 60.7148C420.084 60.2266 420.001 59.6968 420.001 59.1255ZM421.356 58.957V59.1255C421.356 59.521 421.402 59.8945 421.495 60.2461C421.588 60.5928 421.727 60.9004 421.913 61.1689C422.103 61.4375 422.34 61.6499 422.623 61.8062C422.906 61.9575 423.236 62.0332 423.612 62.0332C423.983 62.0332 424.308 61.9575 424.586 61.8062C424.869 61.6499 425.104 61.4375 425.289 61.1689C425.475 60.9004 425.614 60.5928 425.707 60.2461C425.804 59.8945 425.853 59.521 425.853 59.1255V58.957C425.853 58.5664 425.804 58.1978 425.707 57.8511C425.614 57.4995 425.472 57.1895 425.282 56.9209C425.096 56.6475 424.862 56.4326 424.579 56.2764C424.3 56.1201 423.973 56.042 423.597 56.042C423.226 56.042 422.899 56.1201 422.616 56.2764C422.337 56.4326 422.103 56.6475 421.913 56.9209C421.727 57.1895 421.588 57.4995 421.495 57.8511C421.402 58.1978 421.356 58.5664 421.356 58.957ZM432.086 62.0332C432.408 62.0332 432.706 61.9673 432.979 61.8354C433.253 61.7036 433.478 61.5229 433.653 61.2935C433.829 61.0591 433.929 60.793 433.954 60.4951H435.243C435.218 60.9639 435.06 61.4009 434.767 61.8062C434.479 62.2065 434.1 62.5312 433.631 62.7803C433.163 63.0244 432.647 63.1465 432.086 63.1465C431.49 63.1465 430.97 63.0415 430.526 62.8315C430.086 62.6216 429.72 62.3335 429.427 61.9673C429.139 61.6011 428.922 61.1812 428.775 60.7075C428.634 60.229 428.563 59.7236 428.563 59.1914V58.8838C428.563 58.3516 428.634 57.8486 428.775 57.375C428.922 56.8965 429.139 56.4741 429.427 56.1079C429.72 55.7417 430.086 55.4536 430.526 55.2437C430.97 55.0337 431.49 54.9287 432.086 54.9287C432.706 54.9287 433.248 55.0557 433.712 55.3096C434.176 55.5586 434.54 55.9004 434.803 56.335C435.072 56.7646 435.218 57.2529 435.243 57.7998H433.954C433.929 57.4727 433.836 57.1772 433.675 56.9136C433.519 56.6499 433.304 56.4399 433.031 56.2837C432.762 56.1226 432.447 56.042 432.086 56.042C431.671 56.042 431.322 56.125 431.039 56.291C430.76 56.4521 430.538 56.6719 430.372 56.9502C430.211 57.2236 430.094 57.5288 430.021 57.8657C429.952 58.1978 429.918 58.5371 429.918 58.8838V59.1914C429.918 59.5381 429.952 59.8799 430.021 60.2168C430.089 60.5537 430.204 60.8589 430.365 61.1323C430.531 61.4058 430.753 61.6255 431.031 61.7915C431.314 61.9526 431.666 62.0332 432.086 62.0332ZM438.993 62.1797L441.197 55.0752H442.647L439.469 64.2231C439.396 64.4185 439.298 64.6284 439.176 64.853C439.059 65.0825 438.907 65.2998 438.722 65.5049C438.536 65.71 438.312 65.876 438.048 66.0029C437.789 66.1348 437.479 66.2007 437.118 66.2007C437.01 66.2007 436.874 66.186 436.708 66.1567C436.542 66.1274 436.424 66.103 436.356 66.0835L436.349 64.9849C436.388 64.9897 436.449 64.9946 436.532 64.9995C436.62 65.0093 436.681 65.0142 436.715 65.0142C437.022 65.0142 437.284 64.9727 437.499 64.8896C437.713 64.8115 437.894 64.6772 438.041 64.4868C438.192 64.3013 438.321 64.0449 438.429 63.7178L438.993 62.1797ZM437.374 55.0752L439.432 61.2275L439.784 62.6558L438.81 63.1538L435.895 55.0752H437.374ZM454.886 61.8867L454.754 65.3511H453.546V63H452.513V61.8867H454.886ZM443.907 55.0752H445.262V61.8867H448.163V55.0752H449.525V61.8867H452.418V55.0752H453.773V63H443.907V55.0752ZM459.669 63.1465C459.117 63.1465 458.617 63.0537 458.167 62.8682C457.723 62.6777 457.34 62.4116 457.018 62.0698C456.7 61.728 456.456 61.3228 456.285 60.854C456.114 60.3853 456.029 59.8726 456.029 59.3159V59.0083C456.029 58.3638 456.124 57.79 456.314 57.2871C456.505 56.7793 456.764 56.3496 457.091 55.998C457.418 55.6465 457.789 55.3804 458.204 55.1997C458.619 55.019 459.049 54.9287 459.493 54.9287C460.06 54.9287 460.548 55.0264 460.958 55.2217C461.373 55.417 461.712 55.6904 461.976 56.042C462.24 56.3887 462.435 56.7988 462.562 57.2725C462.689 57.7412 462.752 58.2539 462.752 58.8105V59.4185H456.834V58.3125H461.397V58.21C461.378 57.8584 461.305 57.5166 461.178 57.1846C461.056 56.8525 460.86 56.5791 460.592 56.3643C460.323 56.1494 459.957 56.042 459.493 56.042C459.186 56.042 458.902 56.1079 458.644 56.2397C458.385 56.3667 458.163 56.5571 457.977 56.811C457.792 57.0649 457.647 57.375 457.545 57.7412C457.442 58.1074 457.391 58.5298 457.391 59.0083V59.3159C457.391 59.6919 457.442 60.0459 457.545 60.3779C457.652 60.7051 457.806 60.9932 458.006 61.2422C458.211 61.4912 458.458 61.6865 458.746 61.8281C459.039 61.9697 459.371 62.0405 459.742 62.0405C460.221 62.0405 460.626 61.9429 460.958 61.7476C461.29 61.5522 461.581 61.291 461.83 60.9639L462.65 61.6157C462.479 61.8745 462.262 62.1211 461.998 62.3555C461.734 62.5898 461.41 62.7803 461.024 62.9268C460.643 63.0732 460.191 63.1465 459.669 63.1465ZM467.506 62.0332C467.828 62.0332 468.126 61.9673 468.399 61.8354C468.673 61.7036 468.897 61.5229 469.073 61.2935C469.249 61.0591 469.349 60.793 469.374 60.4951H470.663C470.638 60.9639 470.479 61.4009 470.187 61.8062C469.898 62.2065 469.52 62.5312 469.051 62.7803C468.583 63.0244 468.067 63.1465 467.506 63.1465C466.91 63.1465 466.39 63.0415 465.946 62.8315C465.506 62.6216 465.14 62.3335 464.847 61.9673C464.559 61.6011 464.342 61.1812 464.195 60.7075C464.054 60.229 463.983 59.7236 463.983 59.1914V58.8838C463.983 58.3516 464.054 57.8486 464.195 57.375C464.342 56.8965 464.559 56.4741 464.847 56.1079C465.14 55.7417 465.506 55.4536 465.946 55.2437C466.39 55.0337 466.91 54.9287 467.506 54.9287C468.126 54.9287 468.668 55.0557 469.132 55.3096C469.596 55.5586 469.959 55.9004 470.223 56.335C470.492 56.7646 470.638 57.2529 470.663 57.7998H469.374C469.349 57.4727 469.256 57.1772 469.095 56.9136C468.939 56.6499 468.724 56.4399 468.451 56.2837C468.182 56.1226 467.867 56.042 467.506 56.042C467.091 56.042 466.742 56.125 466.458 56.291C466.18 56.4521 465.958 56.6719 465.792 56.9502C465.631 57.2236 465.514 57.5288 465.44 57.8657C465.372 58.1978 465.338 58.5371 465.338 58.8838V59.1914C465.338 59.5381 465.372 59.8799 465.44 60.2168C465.509 60.5537 465.624 60.8589 465.785 61.1323C465.951 61.4058 466.173 61.6255 466.451 61.7915C466.734 61.9526 467.086 62.0332 467.506 62.0332ZM475.416 55.0752V63H474.054V55.0752H475.416ZM478.075 55.0752V56.1738H471.446V55.0752H478.075ZM483.128 59.5137H480.528L480.514 58.4297H482.638C483.058 58.4297 483.407 58.3882 483.685 58.3052C483.968 58.2222 484.181 58.0977 484.322 57.9316C484.464 57.7656 484.535 57.5605 484.535 57.3164C484.535 57.126 484.493 56.96 484.41 56.8184C484.332 56.6719 484.212 56.5522 484.051 56.4595C483.89 56.3618 483.69 56.291 483.451 56.2471C483.216 56.1982 482.94 56.1738 482.623 56.1738H480.887V63H479.532V55.0752H482.623C483.126 55.0752 483.578 55.1191 483.978 55.207C484.383 55.2949 484.728 55.4292 485.011 55.6099C485.299 55.7856 485.519 56.0103 485.67 56.2837C485.821 56.5571 485.897 56.8794 485.897 57.2505C485.897 57.4897 485.848 57.7168 485.75 57.9316C485.653 58.1465 485.509 58.3369 485.318 58.5029C485.128 58.6689 484.894 58.8057 484.615 58.9131C484.337 59.0156 484.017 59.0815 483.656 59.1108L483.128 59.5137ZM483.128 63H480.038L480.711 61.9014H483.128C483.504 61.9014 483.817 61.855 484.066 61.7622C484.315 61.6646 484.5 61.5278 484.623 61.3521C484.75 61.1714 484.813 60.9565 484.813 60.7075C484.813 60.4585 484.75 60.2461 484.623 60.0703C484.5 59.8896 484.315 59.7529 484.066 59.6602C483.817 59.5625 483.504 59.5137 483.128 59.5137H481.07L481.085 58.4297H483.656L484.146 58.8398C484.581 58.874 484.95 58.9814 485.252 59.1621C485.555 59.3428 485.785 59.5723 485.941 59.8506C486.097 60.124 486.175 60.4219 486.175 60.7441C486.175 61.1152 486.104 61.4424 485.963 61.7256C485.826 62.0088 485.626 62.2456 485.362 62.436C485.099 62.6216 484.779 62.7632 484.403 62.8608C484.027 62.9536 483.602 63 483.128 63ZM487.633 59.1255V58.957C487.633 58.3857 487.716 57.856 487.882 57.3677C488.048 56.8745 488.287 56.4473 488.6 56.0859C488.912 55.7197 489.291 55.4365 489.735 55.2363C490.179 55.0312 490.677 54.9287 491.229 54.9287C491.786 54.9287 492.286 55.0312 492.73 55.2363C493.18 55.4365 493.561 55.7197 493.873 56.0859C494.19 56.4473 494.432 56.8745 494.598 57.3677C494.764 57.856 494.847 58.3857 494.847 58.957V59.1255C494.847 59.6968 494.764 60.2266 494.598 60.7148C494.432 61.2031 494.19 61.6304 493.873 61.9966C493.561 62.3579 493.182 62.6411 492.738 62.8462C492.298 63.0464 491.8 63.1465 491.244 63.1465C490.687 63.1465 490.187 63.0464 489.742 62.8462C489.298 62.6411 488.917 62.3579 488.6 61.9966C488.287 61.6304 488.048 61.2031 487.882 60.7148C487.716 60.2266 487.633 59.6968 487.633 59.1255ZM488.988 58.957V59.1255C488.988 59.521 489.034 59.8945 489.127 60.2461C489.22 60.5928 489.359 60.9004 489.544 61.1689C489.735 61.4375 489.972 61.6499 490.255 61.8062C490.538 61.9575 490.868 62.0332 491.244 62.0332C491.615 62.0332 491.939 61.9575 492.218 61.8062C492.501 61.6499 492.735 61.4375 492.921 61.1689C493.106 60.9004 493.246 60.5928 493.338 60.2461C493.436 59.8945 493.485 59.521 493.485 59.1255V58.957C493.485 58.5664 493.436 58.1978 493.338 57.8511C493.246 57.4995 493.104 57.1895 492.914 56.9209C492.728 56.6475 492.494 56.4326 492.21 56.2764C491.932 56.1201 491.605 56.042 491.229 56.042C490.858 56.042 490.531 56.1201 490.248 56.2764C489.969 56.4326 489.735 56.6475 489.544 56.9209C489.359 57.1895 489.22 57.4995 489.127 57.8511C489.034 58.1978 488.988 58.5664 488.988 58.957ZM500.267 59.5137H497.667L497.652 58.4297H499.776C500.196 58.4297 500.545 58.3882 500.824 58.3052C501.107 58.2222 501.319 58.0977 501.461 57.9316C501.603 57.7656 501.673 57.5605 501.673 57.3164C501.673 57.126 501.632 56.96 501.549 56.8184C501.471 56.6719 501.351 56.5522 501.19 56.4595C501.029 56.3618 500.829 56.291 500.589 56.2471C500.355 56.1982 500.079 56.1738 499.762 56.1738H498.026V63H496.671V55.0752H499.762C500.265 55.0752 500.716 55.1191 501.117 55.207C501.522 55.2949 501.866 55.4292 502.149 55.6099C502.438 55.7856 502.657 56.0103 502.809 56.2837C502.96 56.5571 503.036 56.8794 503.036 57.2505C503.036 57.4897 502.987 57.7168 502.889 57.9316C502.792 58.1465 502.647 58.3369 502.457 58.5029C502.267 58.6689 502.032 58.8057 501.754 58.9131C501.476 59.0156 501.156 59.0815 500.794 59.1108L500.267 59.5137ZM500.267 63H497.176L497.85 61.9014H500.267C500.643 61.9014 500.956 61.855 501.205 61.7622C501.454 61.6646 501.639 61.5278 501.761 61.3521C501.888 61.1714 501.952 60.9565 501.952 60.7075C501.952 60.4585 501.888 60.2461 501.761 60.0703C501.639 59.8896 501.454 59.7529 501.205 59.6602C500.956 59.5625 500.643 59.5137 500.267 59.5137H498.209L498.224 58.4297H500.794L501.285 58.8398C501.72 58.874 502.088 58.9814 502.391 59.1621C502.694 59.3428 502.923 59.5723 503.08 59.8506C503.236 60.124 503.314 60.4219 503.314 60.7441C503.314 61.1152 503.243 61.4424 503.102 61.7256C502.965 62.0088 502.765 62.2456 502.501 62.436C502.237 62.6216 501.917 62.7632 501.542 62.8608C501.166 62.9536 500.741 63 500.267 63ZM509.803 61.645V57.5654C509.803 57.2529 509.74 56.9819 509.613 56.7524C509.491 56.5181 509.305 56.3374 509.056 56.2104C508.807 56.0835 508.5 56.02 508.133 56.02C507.792 56.02 507.491 56.0786 507.232 56.1958C506.979 56.313 506.778 56.4668 506.632 56.6572C506.49 56.8477 506.419 57.0527 506.419 57.2725H505.064C505.064 56.9893 505.138 56.7085 505.284 56.4302C505.431 56.1519 505.641 55.9004 505.914 55.6758C506.192 55.4463 506.524 55.2656 506.91 55.1338C507.301 54.9971 507.735 54.9287 508.214 54.9287C508.79 54.9287 509.298 55.0264 509.737 55.2217C510.182 55.417 510.528 55.7124 510.777 56.1079C511.031 56.4985 511.158 56.9893 511.158 57.5801V61.2715C511.158 61.5352 511.18 61.8159 511.224 62.1138C511.273 62.4116 511.344 62.668 511.437 62.8828V63H510.023C509.955 62.8438 509.901 62.6362 509.862 62.3774C509.823 62.1138 509.803 61.8696 509.803 61.645ZM510.038 58.1953L510.052 59.1475H508.683C508.297 59.1475 507.953 59.1792 507.65 59.2427C507.347 59.3013 507.093 59.3916 506.888 59.5137C506.683 59.6357 506.527 59.7896 506.419 59.9751C506.312 60.1558 506.258 60.3682 506.258 60.6123C506.258 60.8613 506.314 61.0884 506.427 61.2935C506.539 61.4985 506.708 61.6621 506.932 61.7842C507.162 61.9014 507.442 61.96 507.774 61.96C508.189 61.96 508.556 61.8721 508.873 61.6963C509.19 61.5205 509.442 61.3057 509.627 61.0518C509.818 60.7979 509.92 60.5513 509.935 60.312L510.514 60.9639C510.479 61.1689 510.387 61.396 510.235 61.645C510.084 61.894 509.881 62.1333 509.627 62.3628C509.378 62.5874 509.081 62.7754 508.734 62.9268C508.392 63.0732 508.006 63.1465 507.577 63.1465C507.04 63.1465 506.568 63.0415 506.163 62.8315C505.763 62.6216 505.45 62.3408 505.226 61.9893C505.006 61.6328 504.896 61.2349 504.896 60.7954C504.896 60.3706 504.979 59.9971 505.145 59.6748C505.311 59.3477 505.55 59.0767 505.863 58.8618C506.175 58.6421 506.551 58.4761 506.991 58.3638C507.43 58.2515 507.921 58.1953 508.463 58.1953H510.038ZM516.402 55.0752V63H515.04V55.0752H516.402ZM519.061 55.0752V56.1738H512.433V55.0752H519.061ZM521.507 57.7998H523.888C524.527 57.7998 525.067 57.9121 525.506 58.1367C525.946 58.3564 526.278 58.6616 526.502 59.0522C526.732 59.438 526.847 59.8774 526.847 60.3706C526.847 60.7368 526.783 61.0811 526.656 61.4033C526.529 61.7207 526.339 61.999 526.085 62.2383C525.836 62.4775 525.526 62.6655 525.155 62.8022C524.789 62.9341 524.366 63 523.888 63H520.519V55.0752H521.874V61.8867H523.888C524.278 61.8867 524.591 61.8159 524.825 61.6743C525.06 61.5327 525.228 61.3496 525.331 61.125C525.433 60.9004 525.484 60.666 525.484 60.4219C525.484 60.1826 525.433 59.9482 525.331 59.7188C525.228 59.4893 525.06 59.2988 524.825 59.1475C524.591 58.9912 524.278 58.9131 523.888 58.9131H521.507V57.7998Z" fill="black"/>
</g>
<defs>
<clipPath id="clip0_2716_1421">
<rect width="900" height="77" fill="white"/>
</clipPath>
</defs>
</svg>
